<?xml version="1.0" encoding="utf-8"?>
<!-- Generator: Adobe Illustrator 16.0.0, SVG Export Plug-In . SVG Version: 6.00 Build 0)  -->
<!DOCTYPE svg PUBLIC "-//W3C//DTD SVG 1.1//EN" "http://www.w3.org/Graphics/SVG/1.1/DTD/svg11.dtd">
<svg version="1.1" id="Capa_1" xmlns="http://www.w3.org/2000/svg" xmlns:xlink="http://www.w3.org/1999/xlink" x="0px" y="0px"
	 width="178.551px" height="178.173px" viewBox="0 0 178.551 178.173" enable-background="new 0 0 178.551 178.173"
	 xml:space="preserve">
<g>
	<rect fill="#E6E6E6" width="178.551" height="178.173"/>
	<g>
		<path fill="#CDCCCC" d="M89.914,178.173c27.017,0,88.637,0,88.637,0c-19.109-51.465-61.92-70.416-89.793-70.416
			c-27.279,0-70.316,18.951-88.758,70.416C0,178.173,62.186,178.173,89.914,178.173z"/>
	</g>
	<g>
		<path fill="#CDCCCC" d="M70.408,135.145v-14.287c-6.119-1.936-11.539-5.801-15.387-11.006c-3.913-5.288-5.981-11.567-5.981-18.157
			v-7.488c0-3.493,0.583-6.905,1.736-10.168c-1.341-1.264-3.854-3.829-6.338-7.411c-6.197-8.938-13.762-26.739,5.215-45.547
			l5.135-5.088l-1.789,7.004c-0.214,0.857-4.938,21.11,20.416,31.273c2.056-0.426,4.14-0.641,6.202-0.641h20.598
			c2.062,0,4.146,0.215,6.203,0.641c2.486-0.998,4.794-2.142,6.869-3.404c11.288-6.882,13.837-16.124,13.987-22.665
			c0.07-3.108-0.438-5.19-0.442-5.211l-1.722-6.925l5.068,5.016c2.954,2.926,5.403,5.978,7.277,9.069
			c5.751,9.489,6.326,19.859,1.666,29.99c-1.007,2.188-2.262,4.371-3.729,6.487c-2.484,3.582-4.998,6.148-6.338,7.412
			c1.152,3.261,1.735,6.673,1.735,10.167v7.488c0,6.59-2.067,12.869-5.979,18.158c-3.853,5.207-9.273,9.073-15.39,11.005v14.287
			H70.408z"/>
		<path fill="#E6E6E6" d="M128.771,22.501c2.962,2.934,5.25,5.841,6.975,8.686c6.504,10.732,5.01,20.616,1.559,28.117h-0.002
			c-1.057,2.301-2.3,4.376-3.553,6.184c-3.441,4.962-6.959,7.902-6.959,7.902l-0.169-0.113c1.396,3.367,2.169,7.059,2.169,10.93
			v7.488c0,6.355-2.078,12.224-5.588,16.969c-3.831,5.18-9.366,9.024-15.781,10.689v13.792h-7.209v-12.873h-2.316v12.873h-6.821
			v-12.873h-2.317v12.873h-6.822v-12.873h-2.316v12.873h-7.211v-13.792c-6.414-1.668-11.949-5.51-15.778-10.689
			c-3.511-4.745-5.59-10.613-5.59-16.969v-7.488c0-3.871,0.774-7.562,2.17-10.93l-0.168,0.113c0,0-3.52-2.94-6.96-7.902
			c-6.426-9.267-12.58-25.584,4.979-42.986c0,0-5.864,22.96,22.185,33.852c2.05-0.467,4.18-0.724,6.371-0.724h20.598
			c2.191,0,4.32,0.257,6.372,0.724c2.938-1.141,5.501-2.416,7.74-3.779c12.405-7.562,14.8-17.947,14.946-24.327
			C129.353,24.782,128.771,22.501,128.771,22.501 M58.515,9.482L48.246,19.66C28.232,39.494,36.24,58.313,42.795,67.767
			c2.086,3.008,4.206,5.34,5.689,6.83c-0.959,3.102-1.444,6.322-1.444,9.609v7.488c0,7.021,2.204,13.711,6.374,19.348
			c3.802,5.143,9.049,9.06,14.994,11.244v10.858v4h4h7.211h4h5.139h4h5.139h4h5.525h4v-4v-10.856
			c5.943-2.184,11.19-6.1,14.997-11.246c4.169-5.637,6.372-12.326,6.372-19.348v-7.488c0-3.287-0.484-6.508-1.443-9.609
			c1.482-1.488,3.604-3.822,5.689-6.83c1.014-1.463,1.931-2.957,2.74-4.463h0.088l1.073-2.328
			c4.951-10.762,4.339-21.779-1.771-31.862c-1.96-3.232-4.511-6.413-7.581-9.454L121.333,9.504l3.558,13.967
			c0.026,0.11,0.446,1.957,0.384,4.685c-0.139,6.042-2.512,14.591-13.029,21.002c-1.828,1.113-3.852,2.132-6.028,3.034
			c-1.994-0.374-4.007-0.562-6.002-0.562H79.617c-1.996,0-4.01,0.188-6.002,0.562c-9.774-4.044-15.873-10.08-18.135-17.953
			c-1.693-5.894-0.556-10.7-0.543-10.747L58.515,9.482L58.515,9.482z"/>
	</g>
</g>
</svg>
