<?xml version="1.0" encoding="utf-8"?>
<!-- Generator: Adobe Illustrator 16.0.0, SVG Export Plug-In . SVG Version: 6.00 Build 0)  -->
<!DOCTYPE svg PUBLIC "-//W3C//DTD SVG 1.1//EN" "http://www.w3.org/Graphics/SVG/1.1/DTD/svg11.dtd">
<svg version="1.1" id="Capa_1" xmlns="http://www.w3.org/2000/svg" xmlns:xlink="http://www.w3.org/1999/xlink" x="0px" y="0px"
	 width="69.981px" height="45.961px" viewBox="0 0 69.981 45.961" enable-background="new 0 0 69.981 45.961" xml:space="preserve">
<g>
	<path fill="#FFFFFF" d="M69.895,39.197c-0.067-0.078-0.166-0.123-0.269-0.123H0.355c-0.103,0-0.201,0.045-0.269,0.123
		s-0.098,0.183-0.083,0.284c0.011,0.065,1.056,6.479,9.165,6.479h51.644c8.11,0,9.155-6.414,9.166-6.479
		C69.992,39.38,69.962,39.276,69.895,39.197z M40.201,43.715h-10.42v-2.396h10.42V43.715z"/>
	<path fill="#FFFFFF" d="M7.55,36.58h54.879c0.794,0,1.438-0.643,1.438-1.437V1.438C63.867,0.644,63.223,0,62.429,0H7.55
		C6.757,0,6.113,0.644,6.113,1.438v33.706C6.113,35.938,6.757,36.58,7.55,36.58z M11.144,5.03h47.692v26.521H11.144V5.03z"/>
</g>
</svg>
