<?xml version="1.0" encoding="utf-8"?>
<!-- Generator: Adobe Illustrator 16.0.0, SVG Export Plug-In . SVG Version: 6.00 Build 0)  -->
<!DOCTYPE svg PUBLIC "-//W3C//DTD SVG 1.1//EN" "http://www.w3.org/Graphics/SVG/1.1/DTD/svg11.dtd">
<svg version="1.1" id="Capa_1" xmlns="http://www.w3.org/2000/svg" xmlns:xlink="http://www.w3.org/1999/xlink" x="0px" y="0px"
	 width="228.711px" height="63.97px" viewBox="0 0 228.711 63.97" enable-background="new 0 0 228.711 63.97" xml:space="preserve">
<g>
	<g id="surface2_2_">
		<g>
			<path fill="#E6E7E9" d="M78.279,55.46c-0.036,0.328-0.948,0.648-2.728,0.959c-1.777,0.29-4.245,0.542-7.401,0.753
				c-3.154,0.23-6.808,0.408-10.969,0.52c-4.144,0.134-8.609,0.206-13.41,0.206c-4.8,0-9.275-0.065-13.437-0.206
				c-4.158-0.112-7.816-0.29-10.97-0.52c-3.154-0.211-5.621-0.463-7.401-0.753c-1.762-0.291-2.662-0.613-2.7-0.959
				c0.039-0.329,0.938-0.637,2.7-0.928c1.78-0.29,4.247-0.557,7.401-0.786c3.155-0.214,6.812-0.376,10.97-0.495
				c4.162-0.133,8.64-0.202,13.437-0.202c4.8,0,9.276,0.068,13.436,0.202c4.141,0.118,7.79,0.281,10.943,0.495
				c3.157,0.231,5.624,0.495,7.401,0.786C77.332,54.823,78.241,55.131,78.279,55.46"/>
		</g>
		<g>
			<path fill="#3D64AD" d="M34.6,29.745c1.354-0.444,2.707-0.928,4.063-1.451l0,0c0.018,0,0.018,0,0,0
				c1.238-0.483,2.407-0.979,3.512-1.478c-0.037-0.098-0.079-0.185-0.118-0.264c-0.542-1.161-0.762-2.284-0.665-3.365
				c0.098-1.084,0.465-2.043,1.101-2.875c0.641-0.812,1.512-1.393,2.611-1.741c0.061,0,0.109-0.009,0.146-0.027
				c-0.463-0.951-0.967-1.886-1.508-2.817l0,0l0,0c-0.619-1.063-1.277-2.061-1.976-2.988c-0.056,0.019-0.132,0.039-0.229,0.057
				c-1.044,0.251-2.108,0.311-3.192,0.174c-1.083-0.136-2.079-0.445-2.986-0.93c-0.909-0.462-1.626-1.063-2.153-1.798
				c-1.043,0.23-2.089,0.521-3.134,0.871l0,0l0,0c-1.296,0.426-2.534,0.901-3.712,1.421c0.347,0.794,0.415,1.625,0.201,2.497
				c-0.213,0.871-0.656,1.692-1.335,2.466c-0.675,0.794-1.545,1.452-2.612,1.973c0.328,1.083,0.737,2.197,1.219,3.338l0,0l0,0
				c0.444,1.084,0.939,2.159,1.481,3.222c1.218-0.465,2.438-0.618,3.658-0.465c1.218,0.155,2.322,0.58,3.308,1.277
				c0.986,0.717,1.75,1.656,2.292,2.817C34.57,29.679,34.579,29.706,34.6,29.745 M43.277,28.411c-1.2,0.561-2.467,1.103-3.803,1.624
				c0,0.021,0,0.031,0,0.031c0-0.019,0-0.019,0,0c-1.452,0.562-2.912,1.075-4.383,1.538c0.133,1.043,0.036,2.06-0.291,3.048
				c-0.308,0.986-0.812,1.875-1.511,2.669c0.326,0.329,0.66,0.64,0.986,0.931c1.43,1.315,2.825,2.339,4.176,3.077
				c0.037-0.64,0.183-1.278,0.436-1.916c0.425-1.025,1.035-1.849,1.829-2.467c0.792-0.601,1.682-0.978,2.67-1.131
				c0.985-0.136,1.974,0.008,2.963,0.435c0.676,0.291,1.256,0.687,1.741,1.188c0.425-1.489,0.619-3.202,0.58-5.136
				c0-0.426-0.009-0.854-0.029-1.277c-1.004-0.059-1.97-0.311-2.901-0.755C44.834,29.824,44.012,29.202,43.277,28.411 M25.631,11.46
				c1.218-0.521,2.485-0.996,3.8-1.421l0,0c1.104-0.348,2.189-0.649,3.251-0.901c-0.174-0.657-0.115-1.268,0.175-1.827
				c0.27-0.561,0.743-1.036,1.422-1.422c-0.136-0.077-0.271-0.154-0.406-0.233c-1.296-0.659-2.544-1.111-3.743-1.363
				c-0.021,0.29-0.145,0.58-0.379,0.87c-0.385,0.465-0.918,0.861-1.597,1.19c-0.676,0.308-1.421,0.53-2.232,0.667
				c-0.794,0.135-1.579,0.154-2.353,0.059c-0.328-0.039-0.63-0.107-0.9-0.205c-0.465,0.735-0.811,1.617-1.045,2.642
				c-0.039,0.193-0.077,0.407-0.116,0.638c0.833-0.057,1.607,0.03,2.322,0.263C24.547,10.649,25.146,10.997,25.631,11.46
				 M44.698,9.371c0.059,0.543-0.048,1.055-0.319,1.537c-0.27,0.485-0.689,0.9-1.247,1.25c0.734,0.985,1.441,2.04,2.118,3.163
				c0.021,0,0.021,0,0,0c0.6,0.985,1.148,1.993,1.654,3.017c0.929,0.021,1.848,0.223,2.757,0.611
				c0.891,0.385,1.694,0.927,2.409,1.625c0.194-0.175,0.375-0.358,0.552-0.553c0.928-0.986,1.547-1.952,1.854-2.902
				c-0.562-0.095-1.162-0.3-1.801-0.608c-0.834-0.426-1.536-0.95-2.118-1.569c-0.58-0.619-0.997-1.247-1.245-1.886
				c-0.254-0.658-0.29-1.269-0.116-1.827c0.098-0.291,0.252-0.533,0.465-0.726c-1.083-0.406-2.322-0.726-3.713-0.958
				C45.539,9.466,45.124,9.41,44.698,9.371 M20.609,32.475c0.059-1.084,0.349-2.099,0.871-3.047c0.503-0.969,1.21-1.792,2.119-2.467
				c-0.562-1.104-1.065-2.235-1.511-3.397l0,0l0,0c-0.482-1.181-0.891-2.331-1.22-3.453c-0.986,0.229-1.925,0.29-2.814,0.174
				c-0.871-0.136-1.626-0.436-2.265-0.9c-0.192,0.174-0.376,0.347-0.551,0.52c-1.255,1.315-2.244,2.594-2.958,3.833
				c0.406,0,0.812,0.057,1.217,0.174c0.814,0.27,1.442,0.736,1.887,1.392c0.465,0.678,0.725,1.461,0.785,2.352
				c0.057,0.889-0.106,1.81-0.495,2.757c-0.25,0.56-0.549,1.062-0.9,1.507c1.374,0.409,3.039,0.602,4.994,0.582
				C20.037,32.502,20.318,32.493,20.609,32.475 M35.381,15.322c-0.752-0.233-1.512-0.311-2.263-0.233
				c-0.734,0.097-1.413,0.339-2.032,0.725c-0.6,0.388-1.063,0.882-1.391,1.481c-0.328,0.658-0.447,1.315-0.35,1.975
				c0.115,0.676,0.406,1.285,0.871,1.828c0.465,0.521,1.083,0.929,1.856,1.22c0.794,0.269,1.588,0.367,2.381,0.29
				c0.773-0.097,1.47-0.358,2.088-0.784c0.62-0.406,1.084-0.948,1.395-1.626c0.407-1.007,0.368-1.963-0.115-2.873
				C37.335,16.415,36.524,15.748,35.381,15.322 M31.436,0.025c-0.679,0.038-1.229,0.154-1.656,0.35
				c-0.427,0.193-0.628,0.406-0.609,0.638c0.077,0.252,0.387,0.447,0.93,0.581c0.541,0.136,1.189,0.175,1.942,0.118
				c0.738-0.059,1.307-0.184,1.715-0.378c0.424-0.193,0.593-0.416,0.495-0.667c-0.132-0.233-0.468-0.406-0.986-0.523
				C32.742,0.007,32.131-0.032,31.436,0.025 M15.878,4.64c-0.619,0.349-1.054,0.707-1.306,1.075c-0.233,0.367-0.233,0.656,0,0.87
				c0.291,0.213,0.744,0.26,1.363,0.145c0.62-0.115,1.269-0.359,1.946-0.726c0.64-0.388,1.075-0.764,1.307-1.132
				c0.213-0.367,0.174-0.648-0.116-0.841c-0.31-0.174-0.763-0.204-1.365-0.087C17.108,4.059,16.498,4.293,15.878,4.64 M2.092,24.609
				c-0.039,0.735,0.125,1.286,0.493,1.653c0.387,0.35,0.91,0.418,1.569,0.205c0.676-0.271,1.257-0.756,1.742-1.452
				c0.483-0.678,0.753-1.414,0.812-2.207c0.039-0.756-0.155-1.286-0.582-1.596c-0.406-0.33-0.929-0.359-1.565-0.086
				c-0.64,0.27-1.183,0.735-1.627,1.392C2.468,23.176,2.188,23.875,2.092,24.609 M6.678,42.979c0.503,0.776,1.13,1.221,1.886,1.336
				c0.775,0.136,1.489-0.086,2.147-0.667c0.446-0.407,0.763-0.9,0.958-1.48c0.193-0.562,0.261-1.151,0.202-1.77
				c-0.058-0.62-0.26-1.191-0.607-1.712c-0.524-0.755-1.173-1.182-1.946-1.278c-0.756-0.079-1.461,0.185-2.118,0.783
				C6.6,38.811,6.25,39.575,6.155,40.483C6.058,41.374,6.232,42.207,6.678,42.979 M37.006,56.274
				c1.025-0.195,1.839-0.665,2.438-1.424c0.601-0.749,0.853-1.632,0.755-2.636c-0.136-1.028-0.599-1.83-1.392-2.411
				c-0.775-0.58-1.694-0.802-2.757-0.666c-1.045,0.174-1.877,0.648-2.497,1.421c-0.601,0.794-0.841,1.704-0.726,2.728
				c0.174,0.986,0.657,1.759,1.452,2.322C35.052,56.168,35.961,56.39,37.006,56.274 M57.672,46.493
				c0.638-0.64,1.016-1.413,1.132-2.322c0.097-0.909-0.086-1.75-0.551-2.526c-0.503-0.773-1.152-1.218-1.946-1.333
				c-0.772-0.118-1.506,0.125-2.206,0.725c-0.462,0.406-0.803,0.898-1.016,1.478c-0.193,0.581-0.261,1.182-0.206,1.801
				c0.061,0.619,0.261,1.19,0.614,1.712c0.542,0.754,1.197,1.169,1.97,1.249C56.26,47.373,56.995,47.111,57.672,46.493
				 M63.797,20.371c-0.273-0.696-0.679-1.306-1.22-1.827c-0.542-0.523-1.093-0.843-1.656-0.959c-0.581-0.077-0.98,0.098-1.188,0.523
				c-0.234,0.424-0.234,1.005,0,1.742c0.269,0.752,0.692,1.401,1.272,1.943c0.563,0.542,1.144,0.853,1.741,0.931
				c0.544,0.038,0.908-0.165,1.101-0.61C64.048,21.668,64.028,21.088,63.797,20.371 M54.045,6.904
				c-0.542-0.426-1.113-0.754-1.713-0.986c-0.616-0.233-1.133-0.311-1.536-0.233c-0.406,0.098-0.563,0.34-0.468,0.726
				c0.098,0.367,0.42,0.785,0.959,1.249c0.58,0.462,1.19,0.812,1.827,1.043c0.64,0.233,1.162,0.291,1.567,0.175
				c0.349-0.137,0.465-0.385,0.349-0.756C54.916,7.755,54.586,7.349,54.045,6.904 M21.074,35.405
				c-0.137-0.33-0.244-0.667-0.32-1.016c-0.367,0.021-0.735,0.03-1.103,0.03c-2.612,0-4.758-0.359-6.444-1.073
				c-0.657,0.385-1.335,0.629-2.031,0.726c-0.696,0.095-1.363,0.009-2.001-0.263c-0.736-0.329-1.307-0.833-1.713-1.509
				c-0.406-0.678-0.619-1.44-0.639-2.291c-0.039-0.872,0.136-1.754,0.524-2.643c0.347-0.754,0.79-1.412,1.333-1.974
				c0.562-0.543,1.173-0.957,1.829-1.248c0.794-1.683,2.032-3.377,3.714-5.079c0.213-0.231,0.436-0.444,0.669-0.639
				c-0.174-0.271-0.311-0.561-0.408-0.872c-0.291-1.025-0.184-2.069,0.32-3.133c-1.218-0.231-2.399-0.415-3.54-0.551
				c-0.465,0.521-1.015,0.978-1.654,1.363c-0.892,0.504-1.645,0.717-2.263,0.641c-0.619-0.06-0.968-0.397-1.046-1.017
				c-0.039-0.58,0.194-1.22,0.696-1.916c0.503-0.717,1.152-1.324,1.946-1.827c0.833-0.486,1.567-0.716,2.203-0.696
				c0.64,0.038,1.029,0.317,1.163,0.841c0.097,0.406,0.02,0.87-0.231,1.392c1.141,0.136,2.322,0.3,3.542,0.496
				c0.772-0.95,1.798-1.712,3.075-2.293c0.426-0.174,0.844-0.32,1.249-0.435c0.039-0.253,0.086-0.496,0.146-0.727
				c0.329-1.335,0.862-2.466,1.596-3.396c-0.271-0.291-0.387-0.61-0.349-0.957c0.039-0.37,0.242-0.737,0.61-1.104
				c0.388-0.386,0.9-0.727,1.538-1.016c0.64-0.291,1.326-0.493,2.06-0.611c0.718-0.133,1.422-0.171,2.121-0.115
				c1.124,0.136,1.875,0.456,2.263,0.959c1.606,0.193,3.27,0.726,4.993,1.597c0.193,0.095,0.385,0.202,0.58,0.317
				c0.211-0.057,0.424-0.115,0.637-0.172c1.277-0.233,2.556-0.184,3.834,0.145c0.406-0.677,0.804-1.306,1.192-1.886
				c-0.661-0.233-1.173-0.515-1.539-0.844c-0.406-0.406-0.494-0.743-0.261-1.015c0.23-0.271,0.727-0.416,1.483-0.436
				c0.754-0.019,1.535,0.097,2.352,0.35c0.79,0.23,1.43,0.532,1.913,0.9c0.486,0.406,0.649,0.754,0.497,1.044
				c-0.175,0.308-0.641,0.483-1.391,0.521c-0.523,0.039-1.076,0-1.656-0.115c-0.351,0.599-0.727,1.247-1.131,1.943
				c1.047,0.466,1.876,1.075,2.498,1.83c0.193,0.231,0.349,0.454,0.464,0.667c0.465,0.059,0.931,0.127,1.392,0.204
				c1.897,0.33,3.568,0.821,5.019,1.481c0.447-0.079,0.958-0.068,1.538,0.027c0.56,0.118,1.14,0.34,1.742,0.669
				c1.101,0.599,1.971,1.362,2.612,2.292c0.64,0.909,0.909,1.77,0.812,2.583c-0.155,0.793-0.629,1.296-1.421,1.51
				c-0.197,1.374-0.909,2.757-2.148,4.15c-0.23,0.251-0.472,0.503-0.725,0.754c0.115,0.193,0.23,0.396,0.349,0.61
				c0.351,0.695,0.582,1.392,0.694,2.088c0.118,0.698,0.118,1.374,0,2.032c1.451,0.755,2.866,1.531,4.24,2.322
				c0.273-0.676,0.726-1.141,1.367-1.392c0.756-0.27,1.529-0.155,2.321,0.35c0.773,0.5,1.384,1.268,1.827,2.292
				c0.388,1.045,0.485,2.033,0.29,2.959c-0.212,0.95-0.665,1.617-1.365,2.004c-0.793,0.368-1.596,0.318-2.408-0.145
				c-0.834-0.486-1.483-1.279-1.945-2.381c-0.291-0.716-0.424-1.421-0.409-2.118c-1.43-0.793-2.912-1.587-4.438-2.381
				c-0.544,1.084-1.42,1.887-2.641,2.408c-0.231,0.079-0.467,0.145-0.697,0.205c0.036,0.542,0.068,1.075,0.085,1.596
				c0.037,2.709-0.318,5.05-1.073,7.025c0.271,0.675,0.406,1.392,0.406,2.147c0.021,0.755-0.115,1.499-0.406,2.234
				c-0.406,1.007-0.998,1.82-1.771,2.44c-0.773,0.618-1.644,1.015-2.612,1.188c-0.967,0.157-1.946,0.05-2.932-0.317
				c-0.793-0.329-1.46-0.785-2.001-1.366c-0.561-0.602-0.978-1.276-1.247-2.031c-1.955-0.812-3.93-2.139-5.922-3.978
				c-0.386-0.368-0.774-0.743-1.161-1.131c-0.348,0.252-0.735,0.456-1.161,0.61c-0.773,0.328-1.567,0.521-2.379,0.58
				c-0.793,0.06-1.578-0.009-2.352-0.204c-0.716,1.821-1.431,3.64-2.146,5.458c0.735,0.502,1.295,1.19,1.681,2.061
				c0.329,0.812,0.456,1.615,0.379,2.409c-0.098,0.812-0.379,1.527-0.843,2.147c-0.463,0.639-1.081,1.113-1.856,1.421
				c-0.755,0.29-1.519,0.37-2.292,0.233c-0.756-0.135-1.451-0.444-2.091-0.931c-0.619-0.483-1.101-1.111-1.452-1.887
				c-0.328-0.793-0.453-1.586-0.375-2.378c0.076-0.775,0.327-1.48,0.755-2.12c0.444-0.637,1.033-1.122,1.771-1.451
				c0.832-0.347,1.674-0.444,2.524-0.291c0.696-1.798,1.412-3.597,2.147-5.399c-0.676-0.385-1.269-0.87-1.768-1.451
				C21.769,36.837,21.363,36.16,21.074,35.405"/>
		</g>
	</g>
	<g id="surface4_2_">
		<g enable-background="new    ">
			<path fill="#1C3761" d="M105.398,27.747c-2.446,0.655-5.132,0.791-7.23,0.137c-2.721-0.894-3.857-2.65-3.857-6.128V17.35
				c0-6.714,5.681-8.332,11.019-5.853l-0.861,2.616c-4.098-1.619-7.023-0.31-7.023,3.03v4.992c0,3.787,4.854,3.339,7.127,2.65
				L105.398,27.747z"/>
			<path fill="#1C3761" d="M120.786,21.619c0,3.512-1.825,6.68-6.369,6.68c-4.511,0-6.473-3.167-6.473-6.68v-4.545
				c0-4.337,2.307-6.748,6.473-6.748c3.993,0,6.369,2.582,6.369,6.748V21.619z M117.688,17.074c0-3.064-1.722-3.649-3.271-3.649
				c-1.687,0-3.339,0.757-3.339,3.649v4.889c0,2.238,1.446,3.305,3.339,3.305c1.929,0,3.271-1.136,3.271-3.305V17.074z"/>
			<path fill="#1C3761" d="M127.052,21.446c0.207,2.065,1.929,3.822,4.751,3.822c3.1,0,4.82-1.619,4.82-3.683
				c0-6.75-12.325-4.339-12.325-12.12c0-2.892,2.444-5.957,7.781-5.957c2.376,0,3.648,0.379,5.026,1.034
				c0,0.035-0.586,1.722-0.999,2.961c-1.273-0.515-2.513-0.827-3.993-0.827c-2.995,0-4.545,1.24-4.44,3.03
				c0.241,4.2,12.393,3.375,12.393,11.603c0,3.822-2.341,7.022-8.229,7.022c-5.336,0-8.021-3.442-8.124-6.506L127.052,21.446z"/>
			<path fill="#1C3761" d="M143.199,27.954V9.052c0-5.233,3.993-5.956,6.852-5.439l-0.518,2.823c-1.343-0.31-3.167,0-3.167,2.617
				v1.653h3.34l-0.827,2.96h-2.513v14.288H143.199z"/>
			<path fill="#1C3761" d="M163.166,26.749c-1.617,0.999-3.718,1.583-5.68,1.618c-3.409,0.104-5.854-1.446-5.854-5.026v-7.059
				c0-3.787,2.582-5.887,6.335-5.887c3.822,0,6.06,2.169,6.06,5.785v4.957l-9.227,0.516v1.343c0,2.823,3.029,3.305,7.195,1.103
				L163.166,26.749z M160.861,16.145c0-2.065-1.653-2.754-2.928-2.754c-2.064,0-3.133,1.273-3.133,2.926v2.41l6.061-0.344V16.145z"
				/>
			<path fill="#1C3761" d="M167.54,27.954V10.705h2.959l0.139,0.516c2.308-1.204,4.338-0.792,6.162-0.413l-0.758,2.996
				c-2.236-0.999-5.371-0.172-5.371,2.237v11.913H167.54z"/>
			<path fill="#1C3761" d="M190.743,27.954c-5.473,0.517-13.254,1.55-13.254-5.818v-2.858c0-2.479,0.964-3.89,2.375-4.578
				c2.444-1.206,6.162-0.207,7.746,0.827c0-1.963-1.549-2.892-4.268-2.892l0.24-2.205c7.16,0,7.16,3.959,7.16,7.264V27.954z
				 M187.61,18.659c-1.894-1.068-6.988-2.823-6.988,0.963v2.272c0,2.891,2.342,4.062,6.988,3.339V18.659z"/>
		</g>
		<g enable-background="new    ">
			<path fill="#676767" d="M96.884,48.176h0.227c0.103,0,0.179,0.151,0.227,0.454c0.15,0.018,0.227,0.076,0.227,0.17
				c-0.171,0.416-0.284,0.624-0.34,0.624c-0.056,0.331-0.227,0.595-0.51,0.794c0,0.151-0.208,0.491-0.624,1.02
				c0,0.142-0.227,0.728-0.681,1.757l-0.114,0.511c0,0.756,0.302,1.134,0.907,1.134c1.153,0,2.344-1.191,3.572-3.571
				c0.302-0.492,0.453-0.812,0.453-0.964h0.114l0.227,0.85l-0.737,1.305c0,0.264-0.303,0.756-0.907,1.473
				c-0.794,0.963-1.606,1.55-2.438,1.757H96.43c-1.011,0-1.653-0.472-1.928-1.418c0-0.575,0.284-1.521,0.851-2.834l0.454-1.077
				l0.227-0.283v-0.114l-0.113-0.17C96.487,48.648,96.808,48.176,96.884,48.176z"/>
			<path fill="#676767" d="M101.179,49.183l0.411,0.198c0.698,0.662,1.113,1.247,1.246,1.757l0.228,0.297l1.091-0.056l0.198-0.029
				l0.057,0.029c0.085,0.038,0.057,0.274-0.085,0.708l-1.233,0.241c-0.085,1.153-0.184,1.856-0.297,2.112l-0.341,0.595l0.029,0.071
				c-0.17,0.048-0.388,0.194-0.652,0.439l-0.298,0.114l-0.027-0.072l-0.326,0.028l-0.313-0.141l-0.552-0.822
				c0.065-0.141-0.028-0.519-0.283-1.134l0.07-0.014c0.076-0.199,0.052-0.42-0.07-0.666l0.354-1.276l0.141-0.184
				c-0.292-0.625-0.364-1.139-0.212-1.544l-0.057-0.142l0.043-0.1c0.056-0.122,0.254-0.283,0.595-0.481l0.028,0.085l0.057,0.015
				L101.179,49.183z M101.561,52.244l-0.141-0.071l-0.029-0.085l-0.057-0.014l-0.042,0.099l-0.057-0.029
				c-0.407,1.484-0.266,2.387,0.424,2.708l0.228-0.086l0.028,0.071l0.057,0.028l0.015-0.042l0.07-0.283l0.156-0.058l0.042-0.099
				c0.132-0.284,0.203-0.878,0.213-1.786l0.042-0.099c-0.104-0.047-0.137-0.108-0.099-0.184L101.561,52.244z M101.107,50.146
				l0.014,0.383l0.142,0.071l0.214-0.028l0.099,0.042c0.066,0.038,0.104,0.265,0.113,0.679l0.269,0.128l0.143-0.056
				c0.16-0.331-0.033-0.714-0.581-1.148l0.042-0.1l-0.155-0.085L101.107,50.146z"/>
			<path fill="#676767" d="M116.087,45.909h0.171l0.113,0.114v0.057l-0.852,0.624c-0.453,0.472-0.868,1.284-1.246,2.438
				c-0.113,0-0.246,0.453-0.397,1.36c-0.085,0-0.161,0.303-0.228,0.907c-0.112,0-0.226,0.397-0.339,1.19l-0.058,0.17h-0.056
				l0.056,0.056v0.057c-0.075,0.321-0.169,0.548-0.282,0.68l0.056,0.283l-0.056,0.17l0.056,0.284v0.17
				c0,0.226-0.112,0.453-0.339,0.68c0,0.227-0.058,0.34-0.17,0.34h-0.341c-0.095,0-0.208-0.34-0.34-1.02h0.057
				c-0.359-2.173-0.774-3.799-1.247-4.876l-0.057-0.056h-0.115c-0.386,0.388-0.859,1.975-1.416,4.762
				c-0.18,0.369-0.425,0.671-0.736,0.907h-0.057c-0.341,0-0.604-0.359-0.794-1.078c-0.755-1.663-1.172-2.702-1.247-3.118
				c-0.151-0.586-0.548-1.285-1.19-2.097c-0.228-0.123-0.341-0.332-0.341-0.624v-0.114c0-0.113,0.171-0.207,0.511-0.284
				c0.396,0,0.907,0.68,1.531,2.041c0.132,0.539,0.283,0.917,0.453,1.134c0.491,1.53,0.831,2.419,1.021,2.664v0.056h0.169
				c0.416-1.18,0.757-2.428,1.021-3.741c0.406-1.058,0.708-1.587,0.906-1.587h0.057l0.057,0.057l0.398-0.113
				c0.405,0.254,0.689,0.804,0.85,1.644c0.188,0.417,0.415,1.286,0.68,2.608l0.113,0.113c0.114-0.029,0.17-0.18,0.17-0.454h0.058
				l-0.058-0.056v-0.057l0.511-1.474l-0.057-0.057c0.075,0,0.245-0.51,0.51-1.53c0.086-0.009,0.198-0.255,0.34-0.737
				c0.18-0.519,0.407-0.897,0.681-1.134c0.01-0.264,0.406-0.68,1.189-1.247C115.803,45.957,115.897,45.919,116.087,45.909z"/>
			<path fill="#676767" d="M116.328,49.183l0.411,0.198c0.698,0.662,1.115,1.247,1.247,1.757l0.226,0.297l1.092-0.056l0.198-0.029
				l0.057,0.029c0.086,0.038,0.057,0.274-0.085,0.708l-1.231,0.241c-0.086,1.153-0.185,1.856-0.298,2.112l-0.341,0.595l0.028,0.071
				c-0.17,0.048-0.388,0.194-0.651,0.439l-0.298,0.114l-0.028-0.072l-0.326,0.028l-0.312-0.141l-0.552-0.822
				c0.066-0.141-0.029-0.519-0.284-1.134l0.071-0.014c0.075-0.199,0.052-0.42-0.071-0.666l0.354-1.276l0.143-0.184
				c-0.293-0.625-0.363-1.139-0.212-1.544l-0.058-0.142l0.043-0.1c0.057-0.122,0.255-0.283,0.596-0.481l0.027,0.085l0.057,0.015
				L116.328,49.183z M116.711,52.244l-0.142-0.071l-0.028-0.085l-0.057-0.014l-0.042,0.099l-0.058-0.029
				c-0.406,1.484-0.265,2.387,0.426,2.708l0.227-0.086l0.028,0.071l0.057,0.028l0.015-0.042l0.07-0.283l0.156-0.058l0.042-0.099
				c0.132-0.284,0.203-0.878,0.212-1.786l0.044-0.099c-0.105-0.047-0.139-0.108-0.1-0.184L116.711,52.244z M116.258,50.146
				l0.015,0.383l0.141,0.071l0.213-0.028l0.099,0.042c0.065,0.038,0.104,0.265,0.114,0.679l0.269,0.128l0.143-0.056
				c0.16-0.331-0.033-0.714-0.581-1.148l0.042-0.1l-0.155-0.085L116.258,50.146z"/>
			<path fill="#676767" d="M120.069,47.213c0.528,0.047,0.793,0.274,0.793,0.68l0.058,0.057l-0.058,0.057v0.056
				c0.256,0.879,0.444,1.899,0.567,3.061l0.056,0.057v0.056l-0.112,0.113l0.057,0.341h0.113c0.188-0.227,0.473-0.831,0.851-1.814
				c0.15-0.378,0.491-0.812,1.021-1.305c0.235-0.348,0.822-0.67,1.757-0.963c0.585,0,1.001,0.113,1.247,0.34v0.057
				c0,0.283-0.284,0.453-0.851,0.51l-0.623-0.057c0,0.086-0.189,0.162-0.567,0.227c0,0.151-0.132,0.227-0.396,0.227
				c0,0.123-0.188,0.331-0.566,0.624c0,0.113-0.057,0.17-0.17,0.17c0,0.132-0.17,0.435-0.511,0.907c0,0.189-0.094,0.359-0.283,0.51
				v0.057l0.058,0.453l-0.397,0.737l0.057,0.057v0.056c-0.265,0.586-0.396,1.304-0.396,2.155c-0.067,0-0.162,0.208-0.285,0.623
				c-0.094,0-0.227,0.077-0.396,0.227h-0.057c-0.065,0-0.179-0.132-0.34-0.396v-0.171l0.17-0.227v-1.474l-0.453-3.74
				c-0.066,0-0.142-0.34-0.228-1.021c-0.226-0.065-0.339-0.368-0.339-0.906C119.994,47.553,120.069,47.44,120.069,47.213z"/>
			<path fill="#676767" d="M127.893,35.762c0.378,0,0.567,0.227,0.567,0.68v0.397c-0.114,0.226-0.379,1.417-0.794,3.571v0.737
				l-0.283,0.454c0.065,0.378,0.122,0.566,0.169,0.566l-0.056,0.397l0.056,0.51c-0.037,0.558-0.113,0.955-0.227,1.191l0.058,0.056
				v0.057l-0.114,0.566l0.057,0.171l-0.057,0.056h-0.058l0.058,0.227v0.114h-0.058c0.075,0.492,0.114,1.134,0.114,1.928
				l-0.057,0.227l0.114,0.453l-0.058,0.511l0.113,0.113v0.284h0.058l0.793-0.681c0.746-0.642,1.482-1.189,2.211-1.643
				c0-0.114,0.188-0.284,0.566-0.511c0-0.066,0.133-0.104,0.396-0.113h0.114l0.226,0.17c0,0.331-0.207,0.633-0.623,0.907
				c-1.342,0.953-2.191,1.615-2.551,1.984l-0.51,0.623v0.114c0.435,0.425,1.134,0.747,2.097,0.963c0.378,0,0.642,0.076,0.793,0.227
				l0.058-0.057c0.415,0.038,0.661,0.095,0.736,0.17l0.171-0.057v0.057l0.057-0.057c0.679,0.048,1.021,0.104,1.021,0.169
				l0.283-0.056h0.169l0.283,0.056l0.624-0.112l0.283,0.112l0.566-0.112c0.189,0.028,0.284,0.085,0.284,0.169v0.057
				c0,0.152-0.246,0.265-0.737,0.34v0.057l-0.227-0.057c-0.68,0.227-1.304,0.34-1.872,0.34c-1.785,0-3.522-0.454-5.213-1.36
				l-0.058-0.17c-0.094,0-0.152,0.076-0.17,0.226l-0.058,1.304l0.058,0.056v0.058l-0.058,0.169l0.058,0.397l-0.058,0.056
				c0.104,0,0.2,0.548,0.285,1.645c-0.028,0.416-0.161,0.624-0.397,0.624c0,0.265-0.058,0.396-0.171,0.396
				c-0.303-0.114-0.452-0.34-0.452-0.68v-0.454l0.056-0.285l-0.056-0.227l0.056-1.87v-0.113l0.057-0.057l-0.057-0.057v-0.454
				l-0.056-0.169l0.056-0.283v-0.963l0.057-0.057l-0.057-0.057l0.057-0.283v-1.078l0.057-0.227l-0.113-0.396l0.057-0.057v-0.056
				l-0.057-0.34h0.057l-0.057-0.057v-1.474l0.057-0.227l-0.17-0.453v-0.114l0.227-0.793l-0.057-0.453
				c0.075,0,0.17-0.567,0.284-1.701l-0.058-0.227c0.454-4.043,0.775-6.065,0.965-6.065H127.893z"/>
			<path fill="#676767" d="M135.687,49.027c0.15,0.254,0.228,0.463,0.228,0.623l-0.058,1.928l0.058,0.169l-0.058,0.057l0.113,1.077
				l-0.056,0.056v0.057c0.15,0.303,0.245,0.889,0.282,1.758l0.057,0.227c-0.057,0.34-0.227,0.51-0.51,0.51
				c-0.075-0.009-0.227-0.198-0.453-0.567v-0.339c0-0.265-0.038-0.397-0.114-0.397l0.058-0.283v-0.057l-0.058-0.283h0.058
				c0-0.15-0.095-0.435-0.284-0.85l-0.057-0.793l0.057-1.361l-0.057-0.964C134.893,49.443,135.157,49.254,135.687,49.027z
				 M135.8,45.172h0.057c0.49,0,0.736,0.265,0.736,0.794c0,0.151-0.17,0.358-0.51,0.623h-0.169c-0.19-0.358-0.322-0.755-0.397-1.191
				L135.8,45.172z"/>
			<path fill="#676767" d="M137.019,49.027h0.227c0.388,0.048,0.633,1.104,0.736,3.174v0.283l0.114,0.114
				c0.188,0,0.454-0.548,0.794-1.644c0.057,0,0.32-0.434,0.794-1.304c0.122,0,0.255-0.151,0.396-0.454l0.51-0.113
				c0.453,0.416,0.681,0.756,0.681,1.021c0.142,0,0.273,0.605,0.396,1.814l0.057,0.056l-0.057,0.227l0.34,1.36
				c0.15,0,0.321,0.246,0.51,0.737c0.218,0.085,0.388,0.199,0.511,0.34l0.228,0.056l1.076-0.339v0.056l0.171,0.51
				c0,0.048-0.266,0.162-0.795,0.34l-0.171,0.113l-0.056-0.056h-0.057l-0.284,0.056c-0.65-0.198-1.086-0.519-1.303-0.963
				c-0.368-0.406-0.651-1.312-0.85-2.721c0-0.689-0.171-1.256-0.51-1.701c-0.341,0.076-0.512,0.208-0.512,0.396
				c-0.122,0.085-0.217,0.255-0.282,0.51c-0.142,0-0.35,0.529-0.624,1.587c-0.085,0-0.161,0.208-0.227,0.625
				c-0.151,0.094-0.227,0.339-0.227,0.736c-0.095,0-0.189,0.057-0.284,0.17l0.056,0.056v0.057c0,0.501-0.207,0.86-0.623,1.078
				c-0.028,0.189-0.085,0.283-0.17,0.283h-0.057c-0.226-0.094-0.34-0.246-0.34-0.454l0.114-0.34v-0.113l-0.058-0.34
				c0.075-0.151,0.113-0.359,0.113-0.624l-0.113-0.113v-0.114l0.113-0.17v-1.303c-0.188-0.292-0.283-0.652-0.283-1.078l-0.34-1.248
				v-0.056C136.81,49.197,136.905,49.027,137.019,49.027z"/>
			<path fill="#676767" d="M148.497,47.723c0.341,0.142,0.511,0.369,0.511,0.681c-0.049,0.406-0.294,0.86-0.737,1.36l-0.056,0.057
				v0.113h0.056l0.057-0.056l0.284,0.056c0.188,0,0.282-0.037,0.282-0.113c0.729,0,1.258,0.113,1.588,0.34
				c0.596-0.037,0.917-0.094,0.964-0.169h0.227l0.057,0.056c0.123-0.113,0.426-0.188,0.907-0.227c0,0.076,0.058,0.113,0.17,0.113
				l0.057,0.057v0.056c0,0.105-0.396,0.218-1.19,0.34c0,0.056-0.075,0.113-0.227,0.17l-0.057,0.057v0.169h0.113v0.284
				c0.453,0.879,0.681,1.502,0.681,1.87h-0.057l0.17,0.794l-0.057,0.283v0.737l0.057,0.227c-0.066,0.378-0.123,0.566-0.17,0.566
				l0.057,0.057v0.057c0,0.557-0.17,1.332-0.511,2.324c-0.321,0.954-1.021,2.182-2.097,3.684c-0.398,0.481-0.946,0.973-1.645,1.474
				c0,0.132-0.265,0.283-0.793,0.454l-0.737,0.226c0,0.075-0.095,0.114-0.283,0.114v0.056c-0.644,0-1.097-0.189-1.36-0.567
				c-0.34-0.161-0.661-0.842-0.965-2.041l0.058-0.34v-0.171l-0.114-0.169l0.114-0.454v-0.114l-0.058-0.226
				c0-0.672,0.436-2.089,1.305-4.252c0.065-0.472,0.443-1.19,1.134-2.154c0.048-0.227,0.463-0.699,1.246-1.417l0.454-0.34
				l1.19-0.793c0.028-0.123,0.198-0.199,0.511-0.227V50.67l-0.284-0.113h-0.567c-0.614,0.189-1.218,0.51-1.812,0.963
				c-0.577,0.388-1.05,0.633-1.417,0.738h-0.171c-0.378,0-0.566-0.208-0.566-0.625l0.112-0.227l-0.056-0.057
				c0-0.802,0.453-1.747,1.36-2.834C146.958,47.987,147.713,47.723,148.497,47.723z M149.632,51.351l-0.057-0.057
				c-0.7,0.681-1.229,1.021-1.588,1.021c0,0.198-0.34,0.539-1.02,1.02l-0.907,1.418c-0.293,0.407-0.766,1.672-1.417,3.797
				c-0.189,0.983-0.283,1.758-0.283,2.324l0.113,0.511l-0.057,0.057v0.056c0.33,1.135,0.858,1.701,1.586,1.701l0.624-0.169
				l0.17,0.057c0.283-0.19,0.51-0.284,0.68-0.284c0-0.066,0.246-0.274,0.738-0.624c1.02-0.888,1.72-1.757,2.098-2.608
				c0.907-1.483,1.359-3.126,1.359-4.931v-0.057c0-1.729-0.396-2.919-1.19-3.572h-0.112
				C150.001,51.237,149.754,51.351,149.632,51.351z M145.834,50.954c0.227-0.066,0.68-0.349,1.359-0.85
				c0.756-0.632,1.134-1.124,1.134-1.474l-0.17-0.114c-0.557,0.076-1.125,0.397-1.7,0.964l-0.566,1.077L145.834,50.954z"/>
			<path fill="#676767" d="M160.444,46.816h0.624c0.378,0.141,0.567,0.387,0.567,0.737v0.681c-0.265,0.973-0.605,1.804-1.021,2.494
				c-0.266,0.52-0.907,1.389-1.927,2.607v0.057c0,0.558,0.453,0.974,1.36,1.248h0.283c0.414,0,0.889-0.265,1.417-0.794
				c0.369-0.406,0.709-0.935,1.021-1.586h0.113v0.793c0,0.217-0.188,0.576-0.565,1.077c0,0.123-0.247,0.388-0.738,0.793
				c-0.472,0.378-0.927,0.567-1.361,0.567c-0.774,0-1.378-0.302-1.813-0.907c-0.17-0.057-0.303-0.227-0.396-0.511h-0.113
				c-0.52,0.378-0.84,0.568-0.964,0.568c-0.103,0-0.235-0.132-0.396-0.397v-0.227c0-0.065,0.321-0.292,0.964-0.681
				c0.189-0.169,0.283-0.415,0.283-0.736l-0.058-0.339l0.058-0.057v-0.058l-0.058-0.339l0.342-1.361
				c0.301-0.991,0.697-1.804,1.189-2.437C159.32,47.647,159.717,47.25,160.444,46.816z M158.517,51.464l0.057,0.057v0.057
				l-0.057,0.51v0.056l0.113,0.115l1.135-1.362c0.698-1.218,1.134-2.125,1.304-2.721v-0.057c0-0.245-0.095-0.433-0.283-0.566
				c-0.512,0.218-0.983,0.708-1.418,1.474l-0.453,0.85L158.517,51.464z"/>
			<path fill="#676767" d="M163.193,49.027h0.228c0.387,0.048,0.632,1.104,0.736,3.174v0.283l0.113,0.114
				c0.188,0,0.454-0.548,0.793-1.644c0.058,0,0.322-0.434,0.794-1.304c0.123,0,0.256-0.151,0.397-0.454l0.51-0.113
				c0.454,0.416,0.681,0.756,0.681,1.021c0.143,0,0.274,0.605,0.396,1.814l0.058,0.056l-0.058,0.227l0.341,1.36
				c0.15,0,0.321,0.246,0.51,0.737c0.218,0.085,0.387,0.199,0.511,0.34l0.227,0.056l1.076-0.339v0.056l0.171,0.51
				c0,0.048-0.266,0.162-0.794,0.34l-0.171,0.113l-0.057-0.056H169.6l-0.284,0.056c-0.651-0.198-1.086-0.519-1.303-0.963
				c-0.369-0.406-0.652-1.312-0.851-2.721c0-0.689-0.17-1.256-0.51-1.701c-0.341,0.076-0.512,0.208-0.512,0.396
				c-0.122,0.085-0.217,0.255-0.283,0.51c-0.141,0-0.35,0.529-0.623,1.587c-0.086,0-0.16,0.208-0.227,0.625
				c-0.151,0.094-0.228,0.339-0.228,0.736c-0.095,0-0.188,0.057-0.282,0.17l0.056,0.056v0.057c0,0.501-0.207,0.86-0.623,1.078
				c-0.028,0.189-0.085,0.283-0.17,0.283h-0.057c-0.227-0.094-0.341-0.246-0.341-0.454l0.114-0.34v-0.113l-0.057-0.34
				c0.075-0.151,0.113-0.359,0.113-0.624l-0.113-0.113v-0.114l0.113-0.17v-1.303c-0.189-0.292-0.283-0.652-0.283-1.078l-0.34-1.248
				v-0.056C162.985,49.197,163.08,49.027,163.193,49.027z"/>
			<path fill="#676767" d="M181.518,41.147l0.34,0.057l0.681-0.057l0.112,0.396c-0.047,0.266-0.122,0.397-0.227,0.397h-0.396
				c-0.548,0-1.322,0.265-2.323,0.793c-0.245,0.123-0.51,0.331-0.793,0.624c-0.171,0.114-0.454,0.454-0.851,1.021
				c-0.218,0.198-0.426,0.519-0.624,0.962c-0.143,0-0.332,0.284-0.567,0.851l-0.681,1.587c-0.056,0-0.188,0.416-0.396,1.248
				c-0.113,0.132-0.227,0.566-0.34,1.304h-0.058l0.058,0.056v0.056l-0.058,0.227l0.058,0.057v0.056l-0.058,0.227l0.058,0.17
				l-0.113,0.34c0.151,1.049,0.377,1.767,0.681,2.154c0,0.208,0.377,0.436,1.133,0.681l0.058-0.057l0.566,0.057h0.228
				c0.812-0.274,1.473-0.596,1.984-0.964c0.386-0.273,0.708-0.425,0.962-0.454c0-0.189,0.189-0.358,0.567-0.51
				c0.123-0.189,0.368-0.396,0.736-0.624c0-0.104,0.246-0.293,0.737-0.567c0-0.169,0.189-0.321,0.567-0.454
				c0.954-1.01,1.653-1.577,2.098-1.7c0-0.075,0.057-0.114,0.169-0.114c0.133-0.302,0.228-0.453,0.284-0.453l0.227,0.17v0.171
				c0,0.416-0.133,0.699-0.396,0.85c-0.321,0.321-0.719,0.604-1.19,0.85c-0.236,0.274-0.481,0.481-0.736,0.624
				c0,0.112-0.397,0.51-1.191,1.19c-2.353,1.985-3.977,3.024-4.875,3.118l-0.283-0.056h-1.021c-0.841-0.406-1.295-0.709-1.36-0.908
				c-0.52-0.501-0.784-1.029-0.794-1.587c-0.066,0-0.141-0.283-0.226-0.85l0.112-0.227l-0.057-0.057v-0.057l0.057-0.169
				l-0.057-0.228l0.227-1.19l-0.057-0.056v-0.057c0.52-1.928,0.897-3.061,1.134-3.401c0.104-0.377,0.349-0.888,0.737-1.53
				c0.396-0.746,0.887-1.408,1.475-1.984c0.49-0.529,1.038-1.021,1.643-1.475L181.518,41.147z"/>
			<path fill="#676767" d="M186.648,49.183l0.411,0.198c0.698,0.662,1.113,1.247,1.246,1.757l0.229,0.297l1.09-0.056l0.199-0.029
				l0.056,0.029c0.086,0.038,0.058,0.274-0.085,0.708l-1.232,0.241c-0.086,1.153-0.186,1.856-0.298,2.112l-0.341,0.595l0.029,0.071
				c-0.171,0.048-0.389,0.194-0.653,0.439l-0.297,0.114l-0.028-0.072l-0.325,0.028l-0.312-0.141l-0.553-0.822
				c0.066-0.141-0.027-0.519-0.283-1.134l0.071-0.014c0.075-0.199,0.052-0.42-0.071-0.666l0.354-1.276l0.142-0.184
				c-0.293-0.625-0.364-1.139-0.213-1.544l-0.057-0.142l0.043-0.1c0.056-0.122,0.255-0.283,0.595-0.481l0.028,0.085l0.057,0.015
				L186.648,49.183z M187.03,52.244l-0.142-0.071l-0.028-0.085l-0.057-0.014l-0.043,0.099l-0.057-0.029
				c-0.406,1.484-0.265,2.387,0.425,2.708l0.228-0.086l0.028,0.071l0.057,0.028l0.015-0.042l0.069-0.283l0.157-0.058l0.042-0.099
				c0.132-0.284,0.203-0.878,0.213-1.786l0.042-0.099c-0.104-0.047-0.137-0.108-0.1-0.184L187.03,52.244z M186.577,50.146
				l0.014,0.383l0.142,0.071l0.213-0.028l0.1,0.042c0.065,0.038,0.103,0.265,0.113,0.679l0.269,0.128l0.142-0.056
				c0.16-0.331-0.033-0.714-0.581-1.148l0.043-0.1l-0.155-0.085L186.577,50.146z"/>
			<path fill="#676767" d="M190.389,47.213c0.529,0.047,0.794,0.274,0.794,0.68l0.057,0.057l-0.057,0.057v0.056
				c0.256,0.879,0.443,1.899,0.567,3.061l0.057,0.057v0.056l-0.114,0.113l0.058,0.341h0.112c0.189-0.227,0.473-0.831,0.851-1.814
				c0.151-0.378,0.491-0.812,1.021-1.305c0.235-0.348,0.822-0.67,1.758-0.963c0.586,0,1.001,0.113,1.246,0.34v0.057
				c0,0.283-0.282,0.453-0.85,0.51l-0.624-0.057c0,0.086-0.188,0.162-0.565,0.227c0,0.151-0.133,0.227-0.396,0.227
				c0,0.123-0.191,0.331-0.568,0.624c0,0.113-0.057,0.17-0.171,0.17c0,0.132-0.169,0.435-0.509,0.907
				c0,0.189-0.095,0.359-0.284,0.51v0.057l0.058,0.453l-0.397,0.737l0.057,0.057v0.056c-0.265,0.586-0.397,1.304-0.397,2.155
				c-0.066,0-0.16,0.208-0.282,0.623c-0.096,0-0.228,0.077-0.396,0.227h-0.057c-0.066,0-0.181-0.132-0.341-0.396v-0.171l0.17-0.227
				v-1.474l-0.453-3.74c-0.065,0-0.142-0.34-0.227-1.021c-0.227-0.065-0.341-0.368-0.341-0.906
				C190.313,47.553,190.389,47.44,190.389,47.213z"/>
			<path fill="#676767" d="M206.318,38.88c0.416,0.274,0.681,0.633,0.794,1.076v0.737l0.056,0.511l-0.056,0.056v0.056l0.056,0.057
				l-0.056,0.396v0.567c-0.151,0.444-0.228,0.785-0.228,1.02h-0.056l0.056,0.283v0.284c-0.104,0.123-0.198,0.5-0.282,1.133
				c-0.209,0.661-0.36,1.021-0.454,1.077l0.058,0.057v0.17h-0.171v0.17c0,0.132-0.095,0.321-0.283,0.566
				c-0.236,0.623-0.538,1.171-0.908,1.644c0,0.105-0.094,0.237-0.283,0.397c0,0.161-0.133,0.387-0.396,0.68
				c-0.113,0.406-0.171,0.898-0.171,1.473c0.161,0.89,0.369,1.531,0.624,1.928l0.624,1.135c0.576,0.793,0.898,1.189,0.965,1.189
				c0.149,0,0.227,0.114,0.227,0.34c0.188,0,0.472,0.151,0.85,0.454c0.292,0.113,0.727,0.208,1.304,0.283v0.057
				c0,0.084-0.151,0.16-0.453,0.227c-1.021-0.142-1.53-0.293-1.53-0.454c-0.162,0-0.596-0.302-1.305-0.907l-0.454-0.51
				c-0.49-0.642-0.869-1.437-1.134-2.38c-0.15-0.33-0.227-0.596-0.227-0.794c-0.066,0-0.104-0.283-0.113-0.851l-0.057-0.057h-0.17
				c0,0.17-0.227,0.454-0.68,0.851c-0.954,1.2-1.635,1.899-2.041,2.097c-0.879,0.793-1.691,1.191-2.438,1.191
				c-0.832-0.246-1.248-0.585-1.248-1.021c0-0.519,0.625-1.521,1.871-3.003c1.437-1.408,2.287-2.125,2.552-2.154
				c0.519-0.341,1.181-0.586,1.983-0.737l0.057-1.134v-0.396l0.113-0.17V46.08l0.17-1.021l-0.113-0.114v-0.169
				c0.151-0.161,0.227-0.312,0.227-0.454v-0.737c0.085-0.085,0.143-0.368,0.17-0.851l0.681-1.983c0-0.227,0.094-0.473,0.284-0.737
				c0-0.132,0.074-0.283,0.226-0.454c0-0.198,0.227-0.425,0.682-0.68H206.318z M202.689,49.083c0,0.095-0.151,0.17-0.452,0.227
				h-0.228c0,0.104-0.056,0.198-0.17,0.283l-0.17-0.056l-1.02,0.681V50.16c-0.378,0.237-0.567,0.464-0.567,0.681
				c-0.085,0-0.312,0.189-0.681,0.567l-0.85,0.851c-0.237,0.453-0.389,0.679-0.454,0.679c-0.066,0.265-0.18,0.396-0.34,0.396
				l-0.057,0.51c0,0.17,0.188,0.284,0.566,0.34v0.057l0.34-0.227l0.057,0.056h0.057c0.218-0.15,0.426-0.245,0.624-0.283
				c0.624-0.33,1.38-0.954,2.268-1.87l1.076-1.135c0-0.141,0.114-0.292,0.342-0.453c0.112-0.255,0.188-0.576,0.226-0.964
				c-0.038-0.189-0.113-0.284-0.226-0.284l-0.058,0.057h-0.057L202.689,49.083z M205.809,39.787V39.9
				c-0.218,0.123-0.407,0.369-0.567,0.737c-0.086,0-0.18,0.207-0.284,0.623c-0.218,0-0.425,0.718-0.623,2.154
				c-0.113,0-0.265,0.907-0.453,2.721c-0.076,0-0.114,0.095-0.114,0.283l0.114,1.531l-0.057,0.454
				c0.142,0.113,0.273,0.169,0.396,0.169c0.717-0.897,1.267-1.898,1.645-3.004c0.17-0.065,0.32-0.462,0.453-1.189l0.114-0.284
				l-0.058-0.056l0.113-0.964v-0.227c0.075-0.056,0.132-0.359,0.17-0.906l-0.056-1.36c-0.143-0.501-0.275-0.766-0.396-0.794H205.809
				z"/>
			<path fill="#676767" d="M209.252,49.183l0.41,0.198c0.699,0.662,1.116,1.247,1.248,1.757l0.227,0.297l1.091-0.056l0.199-0.029
				l0.057,0.029c0.085,0.038,0.056,0.274-0.086,0.708l-1.231,0.241c-0.085,1.153-0.185,1.856-0.298,2.112l-0.342,0.595l0.028,0.071
				c-0.17,0.048-0.387,0.194-0.651,0.439l-0.297,0.114l-0.028-0.072l-0.326,0.028l-0.312-0.141l-0.552-0.822
				c0.065-0.141-0.029-0.519-0.284-1.134l0.071-0.014c0.075-0.199,0.052-0.42-0.071-0.666l0.354-1.276l0.142-0.184
				c-0.294-0.625-0.363-1.139-0.212-1.544l-0.058-0.142l0.042-0.1c0.058-0.122,0.256-0.283,0.596-0.481l0.029,0.085l0.056,0.015
				L209.252,49.183z M209.634,52.244l-0.142-0.071l-0.028-0.085l-0.057-0.014l-0.043,0.099l-0.056-0.029
				c-0.407,1.484-0.265,2.387,0.425,2.708l0.227-0.086l0.028,0.071l0.057,0.028l0.014-0.042l0.071-0.283l0.156-0.058l0.042-0.099
				c0.132-0.284,0.203-0.878,0.213-1.786l0.043-0.099c-0.104-0.047-0.138-0.108-0.1-0.184L209.634,52.244z M209.181,50.146
				l0.015,0.383l0.142,0.071l0.212-0.028l0.1,0.042c0.066,0.038,0.104,0.265,0.112,0.679l0.27,0.128l0.143-0.056
				c0.16-0.331-0.033-0.714-0.581-1.148l0.042-0.1l-0.155-0.085L209.181,50.146z"/>
			<path fill="#676767" d="M214.24,40.467c0.312,0.19,0.5,0.436,0.566,0.738v0.056c-0.085,0.454-0.16,0.681-0.227,0.681
				l-0.057-0.057h-0.057c-0.321,0.491-0.51,1.077-0.566,1.757c-0.095,0-0.171,0.397-0.227,1.191l-0.058,0.056l0.113,0.34
				l-0.169,1.021l0.056,0.057v0.056l-0.056,0.17l0.056,0.509l-0.113,0.907l0.058,0.169l-0.113,0.115l0.056,0.169l-0.056,0.624
				l0.113,0.454h-0.058l0.058,0.056v0.056l-0.058,0.681l0.058,0.057v0.056l-0.113,0.681l0.113,0.737l-0.113,1.02l0.113,1.645
				l-0.058,0.056l0.058,0.567v0.453c0,1.625,0.245,3.042,0.736,4.251c0.236,0.34,0.388,0.511,0.454,0.511h0.112
				c0.18-0.105,0.369-0.444,0.567-1.021c0.17-0.265,0.282-0.623,0.34-1.076c0.132,0,0.245-0.567,0.34-1.701l-0.057-0.057v-0.057
				l0.113-0.169l-0.057-0.396v-0.114l0.057-0.51c-0.075-1.313-0.208-2.202-0.396-2.665c0-0.331-0.284-0.614-0.851-0.85l-0.623-0.624
				l-0.057-0.227c0.104-0.34,0.293-0.51,0.566-0.51l1.077,0.737l0.681,0.113l1.814-0.284v0.057l0.34-0.17l0.227,0.057
				c0-0.094,0.075-0.151,0.227-0.17c0.227,0.039,0.34,0.095,0.34,0.17v0.113c-0.085,0.236-0.595,0.463-1.53,0.68
				c-0.472,0.227-0.906,0.36-1.303,0.397l-0.171-0.057l-0.171,0.227v0.454c0.189,0,0.284,0.454,0.284,1.36l0.114,0.454l-0.057,0.17
				l0.112,0.567l-0.112,0.227l0.057,0.056v0.056c-0.038,0.765-0.096,1.2-0.171,1.304l0.057,0.057
				c-0.075,0.567-0.15,0.851-0.228,0.851l0.059,0.057v0.056c-0.417,2.192-0.966,3.289-1.646,3.289h-0.283
				c-0.255,0-0.557-0.303-0.907-0.907c-0.302-0.889-0.491-1.72-0.565-2.494l-0.115-1.304l0.058-0.169l-0.113-0.284l0.056-0.227
				l-0.056-0.227l0.056-0.056v-0.056l-0.112-0.34l0.112-0.681l-0.056-0.056l0.056-0.171l-0.112-1.02l0.057-0.34l-0.057-0.34
				l0.057-0.453v-0.113h-0.113v-0.057l0.113-0.17l-0.057-1.077c0.028-2.872,0.085-4.308,0.17-4.308l-0.113-0.34
				c0.075-0.132,0.151-0.548,0.227-1.248l-0.113-0.113l0.34-1.531l-0.056-0.057v-0.057c0.179-1.662,0.443-2.494,0.793-2.494H214.24z
				"/>
			<path fill="#676767" d="M223.226,48.63c0.17,0.066,0.302,0.179,0.396,0.339v0.114c0,0.19-0.038,0.284-0.113,0.284l0.057,0.057
				v0.057c-0.15,0.708-0.266,1.709-0.34,3.003c0.113,1.437,0.321,2.155,0.623,2.155h0.228l0.113-0.114l0.056,0.057h0.113
				c0-0.142,0.341-0.463,1.021-0.964c0-0.161,0.302-0.539,0.907-1.134c0.057-0.377,0.132-0.566,0.227-0.566h0.112v0.113
				c0,0.312-0.151,0.69-0.452,1.133c-0.794,1.209-1.436,1.947-1.928,2.21l-0.51,0.114c-0.699,0-1.152-0.755-1.36-2.268l-0.057-0.85
				c-0.283,0.255-0.529,0.671-0.738,1.248c-0.16,0-0.349,0.302-0.565,0.907c-0.501,0.605-0.936,0.908-1.304,0.908h-0.17
				c-0.341-0.171-0.511-0.472-0.511-0.908l0.057-0.056l-0.057-0.398v-0.227c0-1.474,0.566-2.796,1.7-3.967
				c0.501-0.227,0.841-0.454,1.02-0.681l0.058,0.057h0.057C222.44,48.838,222.895,48.63,223.226,48.63z M219.88,53.109l0.113,0.51
				l-0.056,0.056v0.057l0.112,0.396h0.114c0.179-0.084,0.293-0.236,0.34-0.454c0.217-0.16,0.481-0.5,0.794-1.02l-0.057-0.057v-0.057
				c0.151,0,0.528-0.774,1.134-2.324l-0.057-0.227l0.057-0.057v-0.056l-0.057-0.057h-0.113c-0.265,0.113-0.738,0.491-1.418,1.134
				c-0.227,0.331-0.491,0.917-0.794,1.757C219.928,52.711,219.89,52.844,219.88,53.109z"/>
		</g>
	</g>
</g>
</svg>
