<?xml version="1.0" encoding="utf-8"?>
<!-- Generator: Adobe Illustrator 16.0.0, SVG Export Plug-In . SVG Version: 6.00 Build 0)  -->
<!DOCTYPE svg PUBLIC "-//W3C//DTD SVG 1.1//EN" "http://www.w3.org/Graphics/SVG/1.1/DTD/svg11.dtd">
<svg version="1.1" id="Capa_1" xmlns="http://www.w3.org/2000/svg" xmlns:xlink="http://www.w3.org/1999/xlink" x="0px" y="0px"
	 width="54.199px" height="45.576px" viewBox="0 0 54.199 45.576" enable-background="new 0 0 54.199 45.576" xml:space="preserve">
<g>
	<path fill="#FFFFFF" d="M11.832,25.014v18.562c0,1.105,0.895,2,2,2c1.104,0,2-0.895,2-2V25.014c0-1.104-0.896-2-2-2
		C12.727,23.014,11.832,23.908,11.832,25.014z"/>
	<path fill="#FFFFFF" d="M5.555,45.599h4.404V23.561c0.012-0.105,0.031-0.21,0.031-0.318C9.99,13.734,17.664,6,27.095,6
		c9.43,0,17.104,7.734,17.104,17.242c0,0.146,0.021,0.285,0.043,0.426v21.931h4.403c3.065,0,5.554-2.573,5.554-5.746V28.36
		c0-2.618-1.695-4.823-4.011-5.517C49.977,10.213,39.701,0,27.096,0C14.486,0,4.211,10.215,4,22.849c-2.312,0.694-4,2.897-4,5.513
		v11.491C0,43.024,2.486,45.599,5.555,45.599z"/>
	<path fill="#FFFFFF" d="M38.369,25.014v18.562c0,1.105,0.896,2,2,2s2-0.895,2-2V25.014c0-1.104-0.896-2-2-2
		C39.264,23.014,38.369,23.908,38.369,25.014z"/>
</g>
</svg>
