<?xml version="1.0" encoding="utf-8"?>
<!-- Generator: Adobe Illustrator 16.0.0, SVG Export Plug-In . SVG Version: 6.00 Build 0)  -->
<!DOCTYPE svg PUBLIC "-//W3C//DTD SVG 1.1//EN" "http://www.w3.org/Graphics/SVG/1.1/DTD/svg11.dtd">
<svg version="1.1" id="Capa_1" xmlns="http://www.w3.org/2000/svg" xmlns:xlink="http://www.w3.org/1999/xlink" x="0px" y="0px"
	 width="79.446px" height="79.446px" viewBox="0 0 79.446 79.446" enable-background="new 0 0 79.446 79.446" xml:space="preserve">
<g>
	<circle fill="#1A1A1A" cx="39.723" cy="39.723" r="39.723"/>
	<g>
		<path fill="#FFFFFF" d="M61.999,56.986l-0.012-27.034c0-2.188-1.52-3.443-1.52-3.443s-7.096-6.677-9.213-8.795
			c-2.07-2.071-3.256-2.002-5.072-2.002H28.624v38.882c0,0-0.067,6.516-2.777,6.516h31.556
			C57.403,61.109,61.999,61.462,61.999,56.986z M55.868,52.48H34.41v-3.05h21.458V52.48z M55.868,46.566H34.41v-3.053h21.458V46.566
			z M55.868,40.902H34.41v-3.05h21.458V40.902z M55.868,34.987H34.41v-3.052h21.458V34.987z M49.706,27.447v-9.454l9.775,9.454
			H49.706z"/>
		<path fill="#FFFFFF" d="M24.208,51.268c0,1.294-1.049,2.343-2.343,2.343l0,0c-1.293,0-2.343-1.049-2.343-2.343V18.289
			c0-1.294,1.05-2.343,2.343-2.343l0,0c1.294,0,2.343,1.049,2.343,2.343V51.268z"/>
		<path fill="#FFFFFF" d="M19.529,54.842c0,0,0.854,1.25,2.204,1.25c1.962,0,2.499-1.337,2.499-1.337v3.104
			c0,0-1.141,3.082-2.28,3.082s-2.414-3.062-2.414-3.062L19.529,54.842z"/>
	</g>
</g>
</svg>
