<?xml version="1.0" encoding="utf-8"?>
<!-- Generator: Adobe Illustrator 16.0.0, SVG Export Plug-In . SVG Version: 6.00 Build 0)  -->
<!DOCTYPE svg PUBLIC "-//W3C//DTD SVG 1.1//EN" "http://www.w3.org/Graphics/SVG/1.1/DTD/svg11.dtd">
<svg version="1.1" id="Capa_1" xmlns="http://www.w3.org/2000/svg" xmlns:xlink="http://www.w3.org/1999/xlink" x="0px" y="0px"
	 width="61.877px" height="50.285px" viewBox="0 0 61.877 50.285" enable-background="new 0 0 61.877 50.285" xml:space="preserve">
<path fill="#FFFFFF" d="M61.877,5.953c-2.276,1.01-4.725,1.691-7.29,1.999c2.619-1.571,4.637-4.058,5.58-7.023
	C57.719,2.385,55.002,3.44,52.11,4.01C49.79,1.541,46.491,0,42.841,0c-7.012,0-12.697,5.687-12.697,12.694
	c0,0.997,0.113,1.964,0.331,2.892C19.923,15.061,10.569,10.008,4.31,2.323C3.217,4.202,2.589,6.381,2.589,8.709
	c0,4.401,2.243,8.29,5.645,10.563c-2.078-0.063-4.035-0.638-5.747-1.589v0.161c0,6.149,4.376,11.282,10.183,12.448
	c-1.064,0.292-2.189,0.448-3.346,0.448c-0.815,0-1.612-0.082-2.389-0.23c1.617,5.045,6.303,8.714,11.858,8.821
	c-4.343,3.401-9.815,5.432-15.766,5.432c-1.025,0-2.035-0.064-3.027-0.18c5.616,3.6,12.292,5.701,19.464,5.701
	c23.349,0,36.117-19.341,36.117-36.119c0-0.549-0.016-1.097-0.036-1.643C58.021,10.736,60.173,8.501,61.877,5.953z"/>
</svg>
