<?xml version="1.0" encoding="utf-8"?>
<!-- Generator: Adobe Illustrator 16.0.0, SVG Export Plug-In . SVG Version: 6.00 Build 0)  -->
<!DOCTYPE svg PUBLIC "-//W3C//DTD SVG 1.1//EN" "http://www.w3.org/Graphics/SVG/1.1/DTD/svg11.dtd">
<svg version="1.1" id="Capa_1" xmlns="http://www.w3.org/2000/svg" xmlns:xlink="http://www.w3.org/1999/xlink" x="0px" y="0px"
	 width="205.227px" height="220.14px" viewBox="0 0 205.227 220.14" enable-background="new 0 0 205.227 220.14"
	 xml:space="preserve">
<g>
	<g>
		<path fill="#8C6137" d="M205.227,117.526c0,56.671-45.942,102.613-102.614,102.613C45.942,220.14,0,174.197,0,117.526
			C0,60.857,45.942,14.914,102.612,14.914C159.284,14.914,205.227,60.857,205.227,117.526z"/>
	</g>
	<g>
		<circle fill="#3E270D" cx="102.613" cy="117.526" r="89.087"/>
	</g>
	<g>
		<polygon fill="#F0E3B5" points="148.539,92.086 165.446,80.393 169.954,51.618 146.601,27.577 131.031,32.957 139.557,35.338 
			147.419,53.322 144.142,67.898 132.498,76.84 		"/>
		<polygon opacity="0.5" fill="#C69D6A" points="148.079,92.365 165.446,80.393 167.244,68.919 162.197,79.062 146.282,89.569 		"/>
		<g>
			<path fill="#FFFCF7" d="M165.119,54.877c-0.06-0.074-0.114-0.233,0.086-0.346c0.095-0.053,0.228-0.02,0.27-0.021
				c0.158,0.151,0.132,0.258-0.036,0.396C165.243,55.066,165.151,54.918,165.119,54.877z"/>
			<path fill="#FFFCF7" d="M166.839,52.525c0.074,0.091-0.017,0.295-0.192,0.432c-0.159,0.135-0.284,0.157-0.386,0.047
				c-0.115-0.126,0.026-0.275,0.131-0.4C166.49,52.484,166.777,52.449,166.839,52.525z"/>
			<path fill="#FFFCF7" d="M165.789,51.553c0.057,0.247,0.059,0.521,0.061,0.789c0.001,0.045-0.127,0.172-0.179,0.18
				c-0.089,0.014-0.231-0.014-0.232-0.062c-0.007-0.254-0.133-0.389-0.403-0.435c-0.161-0.028-0.137-0.216,0.015-0.334
				C165.298,51.498,165.754,51.4,165.789,51.553z"/>
			<path fill="#FFFCF7" d="M166.168,53.22c0.046-0.013,0.087,0.059,0.097,0.065c0.05,0.054,0.095,0.072,0.09,0.102
				c-0.023,0.133,0.197,0.188,0.002,0.375c-0.196,0.188-0.342,0.197-0.508,0.102c-0.107-0.062-0.278-0.056-0.424-0.073
				c-0.236-0.027-0.403-0.12-0.41-0.346c-0.003-0.069,0.034-0.184,0.096-0.232c0.081-0.065,0.239-0.138,0.303-0.118
				C165.649,53.164,165.836,53.308,166.168,53.22z"/>
			<path fill="#FFFCF7" d="M169.253,56.091c-0.016-0.004-0.033-0.008-0.049-0.011c-0.057-0.013-0.102-0.047-0.141-0.082
				c-0.064-0.057-0.111-0.13-0.181-0.182c-0.096-0.071-0.387-0.001-0.429,0.104c-0.057,0.142-0.125,0.265-0.301,0.261
				c-0.164-0.004-0.193-0.112-0.168-0.268c0.019-0.109-0.018-0.218-0.066-0.302c-0.082-0.14-0.209-0.221-0.452-0.193
				c-0.097,0.011-0.15-0.144-0.223-0.223c0.13-0.063,0.279-0.177,0.386-0.179c0.272-0.005,0.531,0.027,0.701,0.191
				c0.062,0.06,0.185,0.128,0.273,0.097c0.354-0.125,0.543-0.002,0.756,0.104L169.253,56.091z"/>
			<path fill="#FFFCF7" d="M168.908,57.205c-0.079-0.121-0.15-0.25-0.192-0.393c-0.059-0.195,0.098-0.375,0.364-0.454
				c0.05-0.015,0.094-0.021,0.135-0.023l-0.147,0.944C169.003,57.288,168.948,57.267,168.908,57.205z"/>
			<path fill="#FFFCF7" d="M167.304,53.031c0.207,0.188,0.365,0.419,0.582,0.597c0.234,0.193,0.489,0.366,0.905,0.349
				c0.13-0.006,0.267,0.094,0.304,0.195c0.053,0.142,0.014,0.332,0.016,0.501c0.003,0.214-0.154,0.359-0.373,0.315
				c-0.114-0.023-0.254-0.133-0.231-0.223c0.062-0.249-0.11-0.272-0.289-0.272c-0.227,0-0.396-0.053-0.493-0.201
				c-0.085-0.132-0.211-0.158-0.429-0.052c-0.223,0.109-0.368,0.012-0.318-0.135c0.101-0.29-0.073-0.398-0.198-0.551
				c-0.117-0.143-0.038-0.357,0.26-0.576C167.103,52.989,167.243,52.977,167.304,53.031z"/>
			<path fill="#FFFCF7" d="M164.905,52.791c0.105,0.105-0.025,0.229-0.116,0.326c-0.119,0.128-0.364,0.138-0.455,0.016
				c-0.04-0.054-0.014-0.154-0.017-0.202C164.589,52.711,164.795,52.682,164.905,52.791z"/>
			<path fill="#FFFCF7" d="M145.823,30.958c-0.044,0.033-0.113,0.067-0.154,0.065c-0.146-0.008-0.391-0.392-0.357-0.542
				c0.059-0.266,0.313-0.497,0.74-0.673c0.035,0.037,0.07,0.074,0.104,0.112C146.442,30.256,146.342,30.574,145.823,30.958z"/>
			<path fill="#FFFCF7" d="M148.681,33.186c-0.015-0.061-0.058-0.107-0.085-0.156c0.19-0.115,0.359-0.218,0.551-0.334
				c0.054,0.341,0.089,0.665-0.228,1.058c-0.114,0.142-0.043,0.256,0.083,0.279c0.185,0.033,0.336,0.162,0.602,0.015
				c0.024-0.013,0.06-0.016,0.083-0.012c0.174,0.033,0.369,0.045,0.503,0.122c0.032,0.018-0.144,0.258-0.257,0.455
				c-0.097-0.317-0.312-0.417-0.68-0.327c-0.286,0.07-0.497,0.316-0.359,0.469c0.229,0.25,0.1,0.535-0.117,0.869
				c-0.213,0.326-0.13,0.555,0.18,0.58c0.184,0.015,0.302-0.062,0.35-0.243c0.049-0.18,0.088-0.358,0.148-0.538
				c0.055-0.165,0.121-0.332,0.202-0.496c0.079-0.158,0.183-0.23,0.306-0.112c0.044,0.042,0.128,0.048,0.191,0.073
				c0.141,0.055,0.258-0.048,0.389-0.146c0.155-0.116,0.067-0.176,0.046-0.252c-0.023-0.081-0.048-0.159-0.03-0.271
				c0.062,0.065,0.123,0.131,0.184,0.197c0.064,0.069,0.146,0.121-0.008,0.271c-0.049,0.049,0.027,0.164,0.003,0.254
				c-0.03,0.111-0.106,0.229-0.163,0.344c-0.078-0.009-0.161-0.01-0.235-0.025c-0.181-0.039-0.399,0.063-0.499,0.238
				c-0.099,0.174-0.048,0.323,0.128,0.354c0.048,0.009,0.114-0.012,0.161-0.003c0.133,0.023,0.243,0.038,0.122,0.245
				c-0.166,0.284-0.009,0.469,0.1,0.661c0.06,0.105,0.088,0.23,0.125,0.35c0.044,0.139,0.055,0.304,0.256,0.322
				c0.08,0.007,0.194,0.017,0.257-0.027c0.066-0.046,0.137-0.176,0.122-0.23c-0.091-0.353-0.201-0.695-0.312-1.038
				c-0.026-0.08-0.049-0.183-0.123-0.213c-0.228-0.095-0.102-0.154,0.097-0.255c0.109-0.055,0.204-0.157,0.313-0.244
				c0.06,0.256,0.11,0.539,0.189,0.807c0.055,0.183,0.146,0.347,0.228,0.516c0.027,0.057,0.108,0.097,0.101,0.158
				c-0.04,0.312,0.162,0.312,0.47,0.238c0.368-0.089,0.431-0.145,0.388-0.428c-0.016-0.097-0.012-0.2-0.033-0.293
				c-0.012-0.05-0.045-0.119-0.091-0.117c-0.427,0.014-0.441-0.241-0.362-0.562c0.014-0.056,0.016-0.109,0.094-0.2
				c0.217,0.328,0.432,0.657,0.651,0.982c0.065,0.099,0.058,0.237,0.228,0.279c0.125,0.03,0.178,0.17,0.215,0.306
				c-0.035-0.02-0.063-0.049-0.104-0.059c-0.352-0.089-0.569,0.04-0.547,0.363c0.023,0.322,0.063,0.662,0.507,0.725
				c0.165,0.022,0.286-0.045,0.435-0.109c0.289-0.124,0.353-0.114,0.311,0.116c-0.037,0.205,0.055,0.324,0.203,0.369
				c0.173,0.054,0.196,0.175,0.239,0.31c0.073,0.232,0.171,0.452,0.263,0.675c0.011,0.026,0.047,0.052,0.081,0.052
				c0.341,0.002,0.513,0.274,0.917,0.185c0.061-0.014,0.135,0.086,0.154,0.156c0.052,0.196,0.089,0.399,0.11,0.607
				c0.02,0.195,0.162,0.288,0.364,0.278c0.192-0.01,0.256,0.056,0.24,0.196c-0.01,0.101,0.008,0.185,0.039,0.26
				c-0.122,0.087-0.215,0.196-0.205,0.325c0.006,0.085,0.061,0.152,0.07,0.173c0.182,0.19,0.373,0.235,0.518,0.164
				c0.004,0.116-0.008,0.239-0.031,0.368c-0.011,0.061-0.03,0.124-0.052,0.187c-0.001,0.004-0.001,0.007-0.001,0.007
				c-0.228-0.146-0.485-0.267-0.691-0.435c0.009-0.01,0.019-0.013,0.027-0.023c0.094-0.128,0.045-0.303,0.062-0.476
				c-0.45-0.015-0.602-0.409-1.146-0.218c-0.089,0.032-0.212-0.036-0.274-0.097c-0.169-0.164-0.428-0.195-0.701-0.191
				c-0.106,0.002-0.256,0.116-0.386,0.18c0.073,0.078,0.126,0.232,0.224,0.222c0.243-0.027,0.369,0.055,0.451,0.193
				c0.05,0.085,0.086,0.193,0.067,0.303c-0.025,0.155,0.003,0.263,0.168,0.267c0.176,0.004,0.244-0.118,0.301-0.26
				c0.041-0.105,0.333-0.176,0.429-0.104c0.059,0.043,0.102,0.102,0.151,0.153l-0.489,0.39c0.075,0.089,0.154,0.154,0.312,0.114
				c-0.118,0.091-0.18,0.21-0.142,0.339c0.043,0.142,0.113,0.271,0.192,0.393c0.083,0.126,0.227,0.087,0.386-0.049
				c0.1-0.078,0.176-0.208,0.215-0.342c0.056,0.006,0.123,0.001,0.224-0.032c0.199-0.066,0.329,0.139,0.305,0.339
				c-0.128-0.003-0.269,0.021-0.394,0.017c-0.179-0.006-0.324,0.121-0.295,0.275c0.029,0.146,0.098,0.29,0.209,0.379
				c0.091,0.073,0.115,0.16,0.114,0.254c-0.007-0.006-0.008-0.016-0.008-0.016c-0.065-0.047-0.169-0.089-0.242-0.06
				c-0.133,0.054-0.218,0.167-0.167,0.279c0.031,0.066,0.062,0.132,0.066,0.143c0.195,0.214,0.277,0.211,0.447,0.017
				c0.041-0.048,0.049-0.135,0.032-0.182c-0.015-0.04-0.05-0.068-0.075-0.104l0.299-0.237c0.018,0.045,0.044,0.094,0.08,0.09
				c0.282-0.027,0.328,0.152,0.406,0.309c0.023,0.047,0.062,0.105,0.115,0.108c0.081,0.003,0.196-0.017,0.269-0.067
				c0.056-0.038,0.094-0.148,0.093-0.211c-0.001-0.225-0.211-0.292-0.344-0.423c-0.116-0.114-0.059-0.368-0.16-0.5
				c-0.065-0.086-0.126-0.106-0.008-0.245c0.066-0.078,0.092-0.14,0.1-0.196c0.054-0.013,0.105-0.041,0.158-0.083
				c0.076,0.086,0.18,0.151,0.291,0.209c0.196,0.102,0.458-0.002,0.711-0.109c0.066-0.027,0.135-0.05,0.205-0.076
				c0.061,0.24-0.178,0.375-0.359,0.527c-0.273,0.228-0.329,0.41-0.148,0.532c0.065,0.044,0.189,0.074,0.279,0.041
				c0.317-0.116,0.502-0.046,0.64,0.122c0.025,0.031,0.07,0.052,0.114,0.066c0.16,0.051,0.352-0.037,0.398-0.207
				c0.04-0.139,0.044-0.295-0.009-0.4c-0.135-0.271-0.311-0.518-0.47-0.773c0.399-0.278,0.4-0.278,0.596-0.072
				c0.104,0.109,0.232,0.202,0.298,0.334c0.061,0.123,0.222,0.253-0.077,0.467c-0.043,0.031-0.068,0.162-0.04,0.204
				c0.069,0.105,0.175,0.187,0.266,0.277l-0.018,0.001c0.001,0.002,0.003,0.004,0.003,0.004c0.005,0,0.008-0.002,0.012-0.003
				c0.359-0.02,0.635,0.31,0.521,0.61c-0.042,0.111-0.029,0.221-0.056,0.332c-0.017,0.069-0.041,0.148-0.09,0.212
				c-0.233,0.304-0.23,0.678,0.024,0.794c0.047,0.021,0.122,0.027,0.187,0.01c0.586-0.153,1.094-0.115,1.563,0.008
				c0.314,0.083,0.31,0.09,0.516,0.446c-0.233-0.06-0.402-0.1-0.565-0.146c-0.112-0.032-0.222-0.071-0.325-0.116
				c-0.156-0.07-0.308-0.002-0.455,0.146c-0.156,0.153-0.104,0.274-0.016,0.344c0.132,0.103,0.304,0.171,0.466,0.245
				c0.219,0.1,0.444,0.191,0.74,0.317c-0.333,0.057-0.593,0.153-0.771,0.116c-0.159-0.033-0.287-0.186-0.322-0.334
				c-0.04-0.166-0.191-0.222-0.318-0.18c-0.4,0.131-0.369-0.131-0.404-0.299c-0.074-0.358-0.057-0.369-0.451-0.09
				c-0.137,0.096-0.216,0.166-0.248-0.009c-0.018-0.09-0.174-0.115-0.248-0.186c-0.1-0.095-0.319-0.142-0.045-0.403
				c0.05-0.048-0.02-0.254-0.107-0.314c-0.107-0.076-0.283-0.13-0.444-0.098c-0.298,0.058-0.461-0.008-0.602-0.171
				c-0.149-0.172-0.562-0.035-0.684,0.212c-0.042,0.084-0.052,0.199-0.012,0.255c0.134,0.191,0.36,0.248,0.69,0.165
				c0.132-0.032,0.273,0,0.381,0.04c0.277,0.104,0.32,0.356,0.303,0.639c-0.003,0.06-0.027,0.124-0.026,0.182
				c0.005,0.312,0.147,0.355,0.54,0.174c0.192-0.09,0.372-0.215,0.441,0.033c0.028,0.105,0.267,0.146,0.437,0.137
				c0.127-0.006,0.178,0,0.214,0.093c0.062,0.168,0.143,0.328,0.24,0.476c0.082,0.122,0.168,0.236,0.451,0.063
				c0.238-0.146,0.282,0.062,0.381,0.148c0.125,0.106,0.275,0.105,0.477-0.029c0.197-0.133,0.274-0.282,0.236-0.44
				c-0.016-0.06-0.059-0.106-0.086-0.155c0.191-0.115,0.359-0.218,0.551-0.334c0.055,0.341,0.089,0.664-0.228,1.057
				c-0.114,0.142-0.043,0.257,0.083,0.279c0.185,0.033,0.336,0.162,0.602,0.016c0.024-0.014,0.06-0.016,0.083-0.012
				c0.174,0.033,0.369,0.045,0.503,0.121c0.031,0.019-0.143,0.258-0.257,0.455c-0.097-0.316-0.312-0.417-0.68-0.327
				c-0.286,0.07-0.497,0.317-0.358,0.469c0.229,0.25,0.099,0.536-0.118,0.869c-0.213,0.327-0.13,0.556,0.181,0.58
				c0.183,0.015,0.301-0.062,0.35-0.243c0.048-0.179,0.088-0.357,0.148-0.538c0.055-0.165,0.12-0.332,0.202-0.496
				c0.078-0.158,0.183-0.23,0.306-0.111c0.043,0.041,0.127,0.048,0.19,0.072c0.142,0.056,0.259-0.048,0.389-0.146
				c0.155-0.115,0.067-0.175,0.046-0.252c-0.023-0.08-0.048-0.159-0.03-0.271c0.062,0.065,0.123,0.132,0.185,0.198
				c0.063,0.068,0.146,0.12-0.008,0.271c-0.049,0.049,0.027,0.165,0.002,0.254c-0.03,0.112-0.106,0.229-0.162,0.344
				c-0.079-0.008-0.162-0.01-0.236-0.025c-0.181-0.038-0.399,0.063-0.499,0.239c-0.099,0.174-0.048,0.322,0.129,0.354
				c0.048,0.008,0.113-0.013,0.161-0.004c0.133,0.023,0.242,0.038,0.121,0.246c-0.166,0.284-0.009,0.468,0.1,0.661
				c0.06,0.105,0.088,0.229,0.125,0.349c0.044,0.14,0.055,0.304,0.256,0.322c0.081,0.008,0.195,0.017,0.258-0.027
				c0.065-0.046,0.136-0.176,0.122-0.23c-0.091-0.353-0.202-0.695-0.312-1.038c-0.026-0.08-0.049-0.182-0.123-0.213
				c-0.228-0.095-0.101-0.154,0.097-0.254c0.11-0.056,0.205-0.157,0.314-0.245c0.059,0.257,0.109,0.539,0.189,0.807
				c0.054,0.183,0.146,0.347,0.227,0.516c0.027,0.058,0.108,0.097,0.101,0.159c-0.04,0.312,0.163,0.312,0.47,0.238
				c0.368-0.089,0.431-0.146,0.388-0.429c-0.015-0.097-0.012-0.2-0.033-0.293c-0.012-0.05-0.045-0.118-0.091-0.117
				c-0.427,0.014-0.441-0.241-0.362-0.562c0.013-0.056,0.016-0.109,0.095-0.199c0.217,0.327,0.432,0.656,0.65,0.982
				c0.066,0.098,0.059,0.237,0.229,0.278c0.124,0.031,0.178,0.17,0.214,0.306c-0.034-0.02-0.062-0.048-0.103-0.059
				c-0.353-0.089-0.57,0.04-0.547,0.364c0.022,0.322,0.063,0.661,0.506,0.724c0.166,0.023,0.286-0.045,0.436-0.108
				c0.288-0.125,0.352-0.114,0.311,0.115c-0.038,0.205,0.054,0.324,0.202,0.369c0.173,0.054,0.196,0.176,0.239,0.31
				c0.073,0.232,0.171,0.452,0.263,0.675c0.011,0.027,0.047,0.052,0.081,0.052c0.342,0.002,0.514,0.274,0.918,0.185
				c0.061-0.014,0.134,0.086,0.152,0.156c0.053,0.196,0.09,0.399,0.111,0.608c0.006,0.06,0.043,0.093,0.07,0.133l0.473-3.014
				l-23.354-24.042l-1.728,0.598c0.003,0.043-0.027,0.098-0.069,0.15c-0.084,0.104-0.176,0.114-0.233,0.035
				c-0.023-0.031-0.06-0.037-0.091-0.05l-1.083,0.374c0.073,0.074,0.165,0.135,0.265,0.186c0.197,0.102,0.459-0.002,0.712-0.108
				c0.066-0.028,0.134-0.05,0.205-0.076c0.061,0.24-0.178,0.374-0.36,0.526c-0.272,0.229-0.329,0.41-0.147,0.533
				c0.065,0.044,0.188,0.074,0.279,0.041c0.317-0.116,0.502-0.047,0.64,0.122c0.025,0.031,0.069,0.052,0.113,0.065
				c0.16,0.051,0.353-0.036,0.399-0.206c0.039-0.14,0.044-0.296-0.009-0.401c-0.136-0.271-0.312-0.518-0.47-0.772
				c0.399-0.278,0.399-0.279,0.595-0.072c0.104,0.108,0.234,0.202,0.298,0.334c0.061,0.123,0.222,0.253-0.076,0.466
				c-0.044,0.031-0.069,0.162-0.041,0.205c0.069,0.105,0.175,0.187,0.267,0.277l-0.018,0.001c0,0,0.002,0.003,0.004,0.005
				c0.004-0.002,0.007-0.003,0.007-0.003c0.362-0.021,0.638,0.309,0.524,0.608c-0.041,0.111-0.029,0.221-0.055,0.333
				c-0.017,0.069-0.041,0.147-0.09,0.212c-0.233,0.304-0.23,0.677,0.023,0.793c0.048,0.021,0.123,0.027,0.188,0.011
				c0.586-0.153,1.093-0.116,1.563,0.008c0.313,0.083,0.31,0.089,0.515,0.446c-0.233-0.061-0.402-0.1-0.564-0.147
				c-0.113-0.032-0.223-0.07-0.325-0.116c-0.157-0.069-0.308-0.001-0.456,0.146c-0.155,0.154-0.103,0.275-0.015,0.344
				c0.132,0.104,0.304,0.172,0.465,0.246c0.22,0.1,0.445,0.191,0.741,0.317c-0.333,0.057-0.593,0.152-0.771,0.115
				c-0.159-0.033-0.288-0.186-0.323-0.334c-0.039-0.166-0.19-0.222-0.317-0.18c-0.401,0.131-0.37-0.131-0.404-0.298
				c-0.075-0.358-0.058-0.37-0.452-0.09c-0.136,0.096-0.215,0.166-0.248-0.009c-0.017-0.09-0.174-0.115-0.248-0.186
				c-0.1-0.096-0.318-0.142-0.044-0.404c0.05-0.048-0.02-0.253-0.107-0.314c-0.108-0.075-0.283-0.129-0.445-0.098
				c-0.297,0.059-0.46-0.007-0.602-0.17c-0.148-0.173-0.56-0.035-0.683,0.212c-0.042,0.083-0.052,0.198-0.012,0.255
				c0.134,0.191,0.36,0.247,0.689,0.165c0.133-0.032,0.274-0.001,0.382,0.04c0.276,0.104,0.319,0.356,0.303,0.639
				c-0.003,0.059-0.028,0.124-0.027,0.182c0.006,0.312,0.148,0.355,0.54,0.174c0.193-0.09,0.373-0.215,0.441,0.033
				c0.029,0.105,0.268,0.145,0.438,0.137c0.127-0.006,0.178-0.001,0.213,0.093c0.063,0.167,0.144,0.328,0.241,0.475
				c0.083,0.123,0.167,0.237,0.451,0.063c0.238-0.145,0.282,0.063,0.381,0.148c0.124,0.107,0.275,0.106,0.476-0.029
				C148.642,33.492,148.72,33.344,148.681,33.186z M147.677,30.977c-0.52,0.242-0.748,0.07-0.977-0.102
				c0.288-0.274,0.283-0.27,0.494-0.125c0.058,0.04,0.154,0.041,0.223,0.072C147.5,30.861,147.571,30.912,147.677,30.977z
				 M160.381,44.878c0.288-0.273,0.284-0.27,0.494-0.124c0.058,0.04,0.155,0.04,0.224,0.072c0.082,0.038,0.153,0.09,0.259,0.154
				C160.839,45.223,160.609,45.051,160.381,44.878z M158.248,42.361c0.083-0.065,0.166-0.132,0.249-0.197
				c0.012-0.01,0.024-0.02,0.037-0.03c0.051,0.041,0.009,0.12-0.05,0.193c-0.084,0.104-0.176,0.114-0.233,0.036L158.248,42.361z
				 M157.363,42.021c0.001-0.004,0.002-0.008,0.002-0.008c0.155-0.014,0.253,0.028,0.294,0.151c0.01,0.029,0.027,0.053,0.043,0.077
				c-0.078-0.042-0.15-0.104-0.22-0.153C157.44,42.059,157.401,42.037,157.363,42.021z"/>
			<path fill="#FFFCF7" d="M163.47,51.541c-0.085-0.075-0.206-0.119-0.254-0.145c-0.197-0.209-0.199-0.361-0.022-0.512
				c0.057-0.048,0.233-0.075,0.233-0.075c0.017,0.243,0.306,0.26,0.396,0.429c0.028,0.055-0.023,0.183-0.083,0.26
				C163.65,51.61,163.556,51.616,163.47,51.541z"/>
			<path fill="#FFFCF7" d="M159.505,44.961c-0.045,0.033-0.113,0.067-0.155,0.065c-0.146-0.007-0.391-0.392-0.357-0.541
				c0.06-0.267,0.314-0.497,0.741-0.674c0.034,0.038,0.07,0.074,0.104,0.113C160.123,44.26,160.022,44.578,159.505,44.961z"/>
			<path fill="#FFFCF7" d="M164.581,52.055c0.066,0.031,0.118,0.155,0.08,0.219c-0.053,0.087-0.219,0.221-0.297,0.224
				c-0.228,0.01-0.436-0.036-0.627-0.058c-0.039-0.133-0.073-0.211-0.083-0.297c-0.006-0.055,0.001-0.149,0.042-0.182
				c0.075-0.058,0.208-0.127,0.267-0.114C164.182,51.896,164.392,51.965,164.581,52.055z"/>
			<path fill="#FFFCF7" d="M153.158,38.521c0.074,0.092-0.017,0.296-0.193,0.432c-0.158,0.135-0.283,0.158-0.385,0.047
				c-0.115-0.125,0.026-0.274,0.13-0.4C152.81,38.48,153.096,38.446,153.158,38.521z"/>
			<path fill="#FFFCF7" d="M146.281,34.082c-0.122-0.042-0.263-0.061-0.395-0.093c-0.126-0.03-0.136-0.099,0.089-0.277
				c0.079-0.063,0.628-0.084,0.663,0.056c0.019,0.077-0.021,0.207-0.088,0.293C146.442,34.201,146.368,34.112,146.281,34.082z"/>
			<path fill="#FFFCF7" d="M151.793,40.506c0.159,0.152,0.132,0.258-0.035,0.396c-0.196,0.161-0.287,0.012-0.319-0.028
				c-0.061-0.075-0.114-0.233,0.085-0.346C151.619,40.475,151.752,40.508,151.793,40.506z"/>
			<path fill="#FFFCF7" d="M152.487,39.217c0.046-0.013,0.087,0.058,0.096,0.064c0.051,0.055,0.095,0.073,0.09,0.102
				c-0.022,0.133,0.197,0.188,0.003,0.375c-0.196,0.189-0.342,0.197-0.509,0.102c-0.106-0.062-0.277-0.056-0.424-0.072
				c-0.236-0.027-0.402-0.121-0.41-0.346c-0.002-0.068,0.034-0.184,0.096-0.232c0.082-0.066,0.24-0.138,0.304-0.118
				C151.969,39.161,152.155,39.305,152.487,39.217z"/>
			<path fill="#FFFCF7" d="M142.185,30.919c0.031-0.073,0.075-0.146,0.142-0.272c0.129,0.1,0.252,0.169,0.333,0.27
				c0.032,0.041-0.005,0.162-0.057,0.227c-0.035,0.043-0.162,0.072-0.231,0.071C142.177,31.211,142.104,31.11,142.185,30.919z"/>
			<path fill="#FFFCF7" d="M161.23,48.589c0.161-0.136,0.274-0.183,0.441-0.107c0.343,0.155,0.363,0.517,0.522,0.786
				c0.02,0.031-0.085,0.164-0.157,0.225c-0.04,0.033-0.146,0.03-0.201,0.014c-0.1-0.028-0.185-0.078-0.274-0.12
				c0.011-0.011,0.021-0.021,0.032-0.031c-0.116-0.16-0.236-0.317-0.347-0.481C161.196,48.798,161.024,48.761,161.23,48.589z"/>
			<path fill="#FFFCF7" d="M148.155,35.503c-0.1-0.028-0.185-0.079-0.275-0.12c0.011-0.011,0.021-0.021,0.033-0.031
				c-0.116-0.16-0.236-0.317-0.347-0.481c-0.051-0.075-0.223-0.112-0.017-0.284c0.161-0.136,0.274-0.184,0.441-0.107
				c0.342,0.154,0.363,0.516,0.522,0.785c0.019,0.031-0.085,0.164-0.157,0.225C148.315,35.521,148.21,35.519,148.155,35.503z"/>
			<path fill="#FFFCF7" d="M143.212,28.748c-0.008,0.056-0.034,0.116-0.099,0.192c-0.118,0.139-0.058,0.159,0.007,0.244
				c0.102,0.133,0.045,0.387,0.16,0.501c0.133,0.131,0.344,0.198,0.345,0.422c0.001,0.063-0.037,0.173-0.093,0.212
				c-0.072,0.05-0.188,0.07-0.269,0.067c-0.055-0.003-0.093-0.062-0.116-0.108c-0.078-0.157-0.123-0.337-0.405-0.309
				c-0.045,0.005-0.079-0.07-0.094-0.12c-0.033-0.11-0.065-0.223-0.07-0.344c-0.003-0.082,0.024-0.182,0.07-0.271
				c0.049-0.095,0.042-0.203,0.007-0.295L143.212,28.748z"/>
			<path fill="#FFFCF7" d="M142.059,29.965c0.073-0.029,0.178,0.013,0.235,0.054c0.068,0.05,0.115,0.125,0.145,0.203
				c0.017,0.047,0.009,0.134-0.032,0.181c-0.17,0.195-0.252,0.197-0.447-0.017c-0.005-0.011-0.036-0.076-0.066-0.142
				C141.841,30.131,141.927,30.018,142.059,29.965z"/>
			<path fill="#FFFCF7" d="M155.866,44.922c0.03-0.072,0.075-0.146,0.142-0.271c0.128,0.099,0.251,0.168,0.332,0.27
				c0.032,0.041-0.005,0.161-0.057,0.226c-0.035,0.043-0.161,0.073-0.231,0.071C155.858,45.214,155.786,45.113,155.866,44.922z"/>
			<path fill="#FFFCF7" d="M159.963,48.086c-0.123-0.042-0.264-0.061-0.396-0.093c-0.126-0.031-0.136-0.1,0.09-0.278
				c0.078-0.062,0.627-0.084,0.662,0.057c0.02,0.077-0.021,0.207-0.088,0.293C160.124,48.205,160.049,48.115,159.963,48.086z"/>
			<path fill="#FFFCF7" d="M154.536,40.49c-0.227,0-0.396-0.053-0.493-0.202c-0.085-0.131-0.212-0.158-0.429-0.052
				c-0.223,0.109-0.369,0.012-0.318-0.135c0.1-0.29-0.074-0.398-0.199-0.551c-0.116-0.143-0.037-0.356,0.261-0.576
				c0.063,0.012,0.204-0.002,0.266,0.054c0.207,0.188,0.364,0.419,0.581,0.597c0.234,0.192,0.49,0.366,0.906,0.348
				c0.13-0.006,0.266,0.094,0.304,0.196c0.052,0.142,0.013,0.332,0.015,0.501c0.004,0.214-0.153,0.359-0.373,0.314
				c-0.113-0.023-0.253-0.133-0.23-0.223C154.886,40.514,154.714,40.49,154.536,40.49z"/>
			<path fill="#FFFCF7" d="M152.108,37.549c0.057,0.248,0.059,0.521,0.061,0.79c0,0.044-0.128,0.172-0.179,0.18
				c-0.089,0.014-0.231-0.015-0.233-0.063c-0.007-0.254-0.133-0.388-0.403-0.434c-0.161-0.028-0.136-0.217,0.016-0.334
				C151.617,37.494,152.073,37.396,152.108,37.549z"/>
			<path fill="#FFFCF7" d="M151.224,38.788c0.105,0.105-0.024,0.228-0.115,0.326c-0.119,0.128-0.364,0.138-0.455,0.016
				c-0.04-0.054-0.014-0.155-0.017-0.202C150.908,38.708,151.114,38.679,151.224,38.788z"/>
			<path fill="#FFFCF7" d="M150.9,38.051c0.066,0.032,0.118,0.155,0.08,0.219c-0.053,0.088-0.219,0.221-0.298,0.225
				c-0.227,0.009-0.436-0.036-0.627-0.058c-0.039-0.134-0.072-0.211-0.082-0.297c-0.006-0.056,0.001-0.149,0.042-0.182
				c0.075-0.059,0.208-0.128,0.267-0.114C150.501,37.894,150.711,37.962,150.9,38.051z"/>
			<path fill="#FFFCF7" d="M149.789,37.537c-0.085-0.074-0.207-0.118-0.253-0.144c-0.199-0.21-0.201-0.362-0.023-0.512
				c0.057-0.048,0.233-0.076,0.233-0.069c0.017,0.236,0.306,0.254,0.395,0.423c0.028,0.054-0.022,0.183-0.083,0.259
				C149.97,37.607,149.874,37.612,149.789,37.537z"/>
		</g>
		<polygon fill="#F0E3B5" points="51.276,96.662 25.94,79.139 19.188,36.023 54.181,0 77.51,8.061 64.735,11.63 52.953,38.576 
			57.864,60.418 75.312,73.817 		"/>
		<polygon fill="#3E270D" points="58.829,107.152 48.655,99.562 61.973,78.854 69.003,83.135 		"/>
		<polygon fill="#8C6137" points="61.973,78.854 81.976,70.686 86.779,77.166 69.003,83.135 		"/>
		<polygon opacity="0.5" fill="#C69D6A" points="50.753,96.301 25.94,79.139 21.217,48.981 31.603,74.483 54.052,91.17 		"/>
		<polygon fill="#8C6137" points="131.507,75.926 128.023,78.854 140.689,83.062 143.716,80.651 		"/>
		<polygon fill="#3E270D" points="146.702,97.125 151.408,91.716 143.716,80.651 140.689,83.062 		"/>
		<polygon fill="#C69D6A" points="104.89,144.654 50.687,126.375 69.003,83.135 104.89,71.085 120.373,108.895 		"/>
		<polygon fill="#AE804D" points="104.89,144.654 159.093,126.375 140.776,83.135 104.89,71.085 		"/>
		<g>
			<path fill="#FFFCF7" d="M26.432,40.907c0.09-0.111,0.172-0.35-0.128-0.518c-0.144-0.081-0.342-0.03-0.404-0.033
				c-0.238,0.228-0.197,0.387,0.053,0.593C26.247,41.191,26.384,40.968,26.432,40.907z"/>
			<path fill="#FFFCF7" d="M23.854,37.383c-0.111,0.137,0.025,0.443,0.289,0.646c0.238,0.202,0.426,0.236,0.577,0.071
				c0.173-0.188-0.039-0.413-0.195-0.601C24.377,37.322,23.947,37.27,23.854,37.383z"/>
			<path fill="#FFFCF7" d="M25.428,35.926c-0.085,0.37-0.088,0.779-0.091,1.184c0,0.066,0.191,0.257,0.269,0.269
				c0.133,0.021,0.347-0.021,0.349-0.095c0.01-0.381,0.198-0.582,0.604-0.65c0.241-0.042,0.203-0.324-0.023-0.5
				C26.163,35.844,25.48,35.697,25.428,35.926z"/>
			<path fill="#FFFCF7" d="M24.86,38.424c-0.069-0.019-0.131,0.087-0.145,0.098c-0.075,0.08-0.142,0.109-0.135,0.151
				c0.034,0.2-0.296,0.281-0.004,0.562c0.295,0.284,0.513,0.297,0.762,0.153c0.16-0.093,0.416-0.083,0.635-0.108
				c0.355-0.042,0.604-0.182,0.615-0.519c0.004-0.104-0.051-0.275-0.143-0.349c-0.123-0.098-0.36-0.206-0.455-0.178
				C25.638,38.34,25.358,38.556,24.86,38.424z"/>
			<path fill="#FFFCF7" d="M20.237,42.726c0.024-0.006,0.051-0.012,0.073-0.017c0.085-0.019,0.153-0.07,0.212-0.121
				c0.097-0.086,0.166-0.195,0.27-0.273c0.145-0.105,0.58-0.001,0.643,0.156c0.084,0.213,0.188,0.396,0.45,0.391
				c0.247-0.006,0.29-0.168,0.251-0.4c-0.026-0.163,0.027-0.326,0.102-0.453c0.123-0.208,0.312-0.33,0.677-0.289
				c0.146,0.016,0.225-0.215,0.334-0.333c-0.194-0.095-0.418-0.267-0.577-0.269c-0.409-0.007-0.798,0.041-1.051,0.287
				c-0.094,0.09-0.277,0.191-0.41,0.145c-0.532-0.188-0.814-0.003-1.133,0.155L20.237,42.726z"/>
			<path fill="#FFFCF7" d="M20.755,44.396c0.118-0.182,0.225-0.377,0.288-0.589c0.087-0.293-0.147-0.563-0.546-0.681
				c-0.074-0.021-0.141-0.031-0.203-0.035l0.223,1.414C20.612,44.52,20.694,44.488,20.755,44.396z"/>
			<path fill="#FFFCF7" d="M23.158,38.142c-0.31,0.28-0.546,0.627-0.871,0.894c-0.351,0.289-0.733,0.55-1.357,0.521
				c-0.194-0.008-0.399,0.141-0.456,0.294c-0.078,0.212-0.019,0.498-0.021,0.751c-0.005,0.32,0.229,0.538,0.559,0.472
				c0.17-0.035,0.379-0.199,0.347-0.334c-0.093-0.372,0.166-0.407,0.433-0.407c0.34,0,0.594-0.079,0.738-0.302
				c0.129-0.197,0.317-0.237,0.644-0.077c0.333,0.163,0.552,0.017,0.477-0.203c-0.15-0.434,0.11-0.597,0.297-0.824
				c0.175-0.215,0.058-0.535-0.39-0.863C23.46,38.078,23.25,38.059,23.158,38.142z"/>
			<path fill="#FFFCF7" d="M26.753,37.782c-0.158,0.158,0.037,0.341,0.174,0.488c0.179,0.192,0.546,0.206,0.681,0.023
				c0.061-0.081,0.021-0.232,0.024-0.303C27.227,37.661,26.917,37.618,26.753,37.782z"/>
			<path fill="#FFFCF7" d="M55.345,5.066c0.066,0.05,0.17,0.102,0.231,0.098c0.22-0.011,0.586-0.586,0.536-0.812
				c-0.088-0.398-0.471-0.745-1.109-1.009C54.95,3.4,54.896,3.455,54.848,3.513C54.418,4.015,54.569,4.491,55.345,5.066z"/>
			<path fill="#FFFCF7" d="M51.417,9.062c0.301,0.203,0.527,0.204,0.713,0.044c0.149-0.128,0.215-0.438,0.571-0.222
				c0.425,0.259,0.553,0.089,0.676-0.096c0.146-0.219,0.267-0.461,0.361-0.712c0.053-0.14,0.13-0.147,0.319-0.139
				c0.256,0.013,0.611-0.047,0.655-0.205c0.103-0.371,0.372-0.184,0.661-0.05c0.588,0.272,0.801,0.206,0.809-0.26
				c0.002-0.086-0.035-0.184-0.04-0.273c-0.025-0.422,0.039-0.801,0.453-0.956c0.162-0.062,0.374-0.108,0.573-0.06
				c0.492,0.123,0.832,0.038,1.033-0.248c0.059-0.084,0.044-0.257-0.018-0.382c-0.184-0.37-0.802-0.575-1.023-0.317
				c-0.212,0.245-0.456,0.343-0.902,0.256c-0.242-0.048-0.505,0.033-0.666,0.146c-0.132,0.092-0.236,0.399-0.161,0.472
				c0.411,0.393,0.083,0.462-0.066,0.604c-0.111,0.106-0.347,0.144-0.372,0.278c-0.049,0.263-0.168,0.157-0.371,0.013
				c-0.592-0.419-0.564-0.402-0.677,0.136c-0.053,0.251-0.006,0.643-0.605,0.446c-0.19-0.062-0.417,0.021-0.477,0.269
				c-0.054,0.223-0.245,0.451-0.484,0.502c-0.266,0.055-0.655-0.089-1.153-0.174c0.442-0.189,0.781-0.326,1.109-0.476
				c0.242-0.111,0.5-0.213,0.697-0.368c0.131-0.104,0.21-0.284-0.022-0.516c-0.222-0.22-0.448-0.322-0.684-0.218
				c-0.153,0.068-0.317,0.125-0.486,0.175c-0.244,0.07-0.497,0.13-0.847,0.22c0.309-0.534,0.301-0.545,0.771-0.669
				c0.705-0.186,1.465-0.241,2.343-0.012c0.097,0.025,0.209,0.018,0.28-0.015c0.381-0.175,0.386-0.734,0.037-1.189
				c-0.074-0.096-0.111-0.214-0.135-0.317c-0.04-0.168-0.021-0.332-0.084-0.498c-0.17-0.45,0.243-0.943,0.782-0.914l0.009,0.004
				c0,0,0.01-0.003,0.012-0.005l-0.026-0.002c0.137-0.136,0.295-0.257,0.398-0.415c0.043-0.064,0.005-0.26-0.061-0.307
				c-0.447-0.32-0.205-0.515-0.114-0.699c0.096-0.197,0.291-0.338,0.445-0.5c0.294-0.31,0.294-0.309,0.893,0.107
				c-0.238,0.383-0.501,0.753-0.704,1.158c-0.079,0.158-0.071,0.393-0.014,0.602c0.071,0.254,0.358,0.386,0.599,0.309
				c0.065-0.021,0.133-0.052,0.171-0.099c0.206-0.252,0.482-0.356,0.958-0.183c0.136,0.049,0.32,0.004,0.418-0.062
				c0.272-0.184,0.188-0.456-0.222-0.798c-0.273-0.229-0.629-0.43-0.539-0.79c0.106,0.039,0.208,0.072,0.308,0.114
				c0.379,0.16,0.771,0.315,1.065,0.164c0.15-0.078,0.287-0.168,0.397-0.279l-1.623-0.561c-0.047,0.02-0.101,0.028-0.135,0.075
				c-0.088,0.118-0.225,0.104-0.351-0.054c-0.062-0.078-0.108-0.161-0.104-0.225L54.181,0L19.188,36.023l0.708,4.517
				c0.041-0.062,0.096-0.109,0.104-0.199c0.032-0.313,0.089-0.618,0.167-0.911c0.028-0.105,0.139-0.255,0.229-0.234
				c0.605,0.135,0.863-0.274,1.374-0.277c0.052,0,0.105-0.037,0.122-0.076c0.138-0.334,0.283-0.664,0.394-1.012
				c0.063-0.201,0.1-0.384,0.359-0.463c0.222-0.069,0.359-0.246,0.303-0.554c-0.062-0.345,0.033-0.36,0.465-0.174
				c0.225,0.096,0.404,0.197,0.652,0.163c0.664-0.094,0.725-0.603,0.759-1.085c0.034-0.485-0.292-0.678-0.819-0.546
				c-0.061,0.016-0.104,0.059-0.154,0.089c0.055-0.204,0.135-0.413,0.321-0.458c0.255-0.062,0.242-0.271,0.341-0.418
				c0.329-0.488,0.65-0.981,0.976-1.473c0.118,0.135,0.122,0.216,0.142,0.299c0.118,0.482,0.098,0.864-0.543,0.844
				c-0.068-0.003-0.119,0.102-0.136,0.175c-0.032,0.14-0.027,0.296-0.05,0.439c-0.064,0.424,0.029,0.509,0.58,0.642
				c0.461,0.111,0.764,0.11,0.705-0.357c-0.013-0.092,0.109-0.151,0.15-0.237c0.121-0.253,0.259-0.499,0.34-0.772
				c0.119-0.401,0.195-0.824,0.283-1.209c0.164,0.131,0.307,0.284,0.471,0.367c0.297,0.15,0.486,0.239,0.146,0.381
				c-0.111,0.046-0.146,0.199-0.185,0.318c-0.166,0.514-0.332,1.028-0.468,1.556c-0.021,0.083,0.085,0.277,0.184,0.347
				c0.094,0.064,0.265,0.051,0.385,0.04c0.302-0.027,0.318-0.274,0.384-0.483c0.055-0.178,0.098-0.365,0.187-0.522
				c0.163-0.289,0.398-0.565,0.149-0.991c-0.181-0.311-0.016-0.332,0.183-0.368c0.071-0.013,0.169,0.019,0.241,0.006
				c0.264-0.048,0.341-0.271,0.193-0.531c-0.149-0.263-0.478-0.415-0.749-0.357c-0.11,0.023-0.234,0.025-0.353,0.037
				c-0.084-0.172-0.198-0.347-0.244-0.515c-0.037-0.134,0.077-0.308,0.004-0.38c-0.23-0.227-0.107-0.303-0.012-0.407
				c0.092-0.1,0.185-0.197,0.276-0.295c0.026,0.165-0.011,0.284-0.046,0.404c-0.032,0.115-0.164,0.204,0.069,0.379
				c0.194,0.145,0.371,0.299,0.582,0.217c0.095-0.037,0.222-0.047,0.286-0.109c0.184-0.178,0.34-0.069,0.458,0.168
				c0.122,0.246,0.221,0.496,0.303,0.743c0.091,0.27,0.151,0.538,0.223,0.807c0.072,0.271,0.249,0.386,0.523,0.364
				c0.464-0.037,0.59-0.379,0.271-0.869c-0.325-0.499-0.519-0.928-0.177-1.303c0.207-0.228-0.108-0.598-0.537-0.702
				c-0.552-0.135-0.874,0.016-1.019,0.491c-0.172-0.297-0.433-0.656-0.386-0.684c0.201-0.114,0.493-0.132,0.755-0.181
				c0.034-0.007,0.088-0.003,0.123,0.017c0.398,0.221,0.626,0.027,0.901-0.022c0.189-0.034,0.296-0.206,0.125-0.419
				c-0.474-0.588-0.423-1.072-0.341-1.584c0.287,0.175,0.539,0.328,0.824,0.501c-0.041,0.072-0.105,0.144-0.127,0.233
				c-0.059,0.236,0.059,0.46,0.354,0.659c0.301,0.202,0.527,0.204,0.713,0.044c0.149-0.129,0.215-0.439,0.571-0.223
				c0.425,0.26,0.553,0.089,0.676-0.095c0.146-0.22,0.267-0.461,0.361-0.712c0.054-0.141,0.13-0.148,0.319-0.139
				c0.255,0.012,0.611-0.048,0.655-0.206c0.103-0.371,0.372-0.184,0.661-0.05c0.588,0.272,0.801,0.207,0.809-0.26
				c0.002-0.086-0.035-0.184-0.04-0.272c-0.025-0.423,0.039-0.801,0.453-0.957c0.162-0.061,0.374-0.108,0.573-0.06
				c0.493,0.123,0.832,0.039,1.033-0.248c0.059-0.084,0.045-0.256-0.018-0.381c-0.184-0.371-0.802-0.576-1.023-0.318
				c-0.213,0.245-0.456,0.343-0.902,0.256c-0.242-0.048-0.505,0.033-0.666,0.146c-0.131,0.092-0.236,0.399-0.161,0.471
				c0.411,0.394,0.083,0.463-0.066,0.605c-0.111,0.105-0.347,0.143-0.371,0.277c-0.05,0.263-0.169,0.157-0.372,0.014
				c-0.592-0.42-0.564-0.402-0.677,0.135c-0.052,0.251-0.006,0.643-0.605,0.446c-0.19-0.062-0.417,0.021-0.477,0.27
				c-0.053,0.223-0.245,0.451-0.484,0.501c-0.266,0.056-0.655-0.089-1.153-0.174c0.442-0.188,0.781-0.326,1.109-0.476
				c0.242-0.11,0.5-0.213,0.697-0.368c0.131-0.103,0.21-0.284-0.022-0.515c-0.222-0.22-0.448-0.323-0.684-0.218
				c-0.153,0.068-0.317,0.125-0.486,0.174c-0.244,0.071-0.497,0.13-0.847,0.221c0.309-0.535,0.301-0.545,0.771-0.669
				c0.705-0.186,1.465-0.241,2.343-0.013c0.097,0.025,0.209,0.018,0.28-0.015c0.381-0.174,0.386-0.734,0.037-1.189
				c-0.074-0.096-0.111-0.214-0.135-0.316c-0.039-0.169-0.021-0.332-0.084-0.499c-0.17-0.449,0.243-0.943,0.782-0.914l0.015,0.006
				l0.006-0.007l-0.026-0.001c0.137-0.137,0.295-0.258,0.399-0.416c0.042-0.064,0.005-0.26-0.062-0.307
				c-0.446-0.32-0.205-0.514-0.114-0.698c0.096-0.198,0.291-0.338,0.445-0.501c0.293-0.31,0.294-0.309,0.893,0.108
				c-0.238,0.383-0.501,0.753-0.704,1.158c-0.079,0.158-0.071,0.393-0.014,0.601c0.071,0.254,0.358,0.386,0.599,0.309
				c0.066-0.021,0.133-0.051,0.171-0.098c0.206-0.253,0.482-0.357,0.958-0.184c0.136,0.05,0.32,0.005,0.418-0.061
				c0.272-0.185,0.188-0.457-0.222-0.799c-0.273-0.229-0.629-0.43-0.539-0.789c0.106,0.039,0.208,0.072,0.308,0.114
				c0.379,0.16,0.771,0.314,1.066,0.163c0.166-0.086,0.322-0.185,0.436-0.312c0.078,0.062,0.157,0.105,0.236,0.124
				c0.012,0.085,0.051,0.178,0.149,0.294c0.178,0.209,0.087,0.238-0.011,0.367c-0.152,0.198-0.066,0.578-0.24,0.75
				c-0.199,0.195-0.514,0.297-0.517,0.633c0,0.095,0.057,0.259,0.14,0.316c0.109,0.076,0.282,0.106,0.402,0.101
				c0.081-0.004,0.139-0.092,0.174-0.161c0.117-0.235,0.186-0.506,0.607-0.463c0.055,0.006,0.094-0.068,0.121-0.136l0.446,0.356
				c-0.037,0.054-0.089,0.097-0.111,0.157c-0.026,0.069-0.014,0.2,0.048,0.271c0.254,0.292,0.377,0.295,0.67-0.024
				c0.008-0.016,0.055-0.114,0.1-0.214c0.077-0.169-0.051-0.338-0.25-0.418c-0.109-0.044-0.266,0.02-0.353,0.082
				c-0.01,0.007-0.012,0.022-0.022,0.031c-0.002-0.142,0.035-0.271,0.171-0.381c0.168-0.134,0.271-0.35,0.313-0.568
				c0.045-0.23-0.173-0.421-0.442-0.412c-0.187,0.006-0.396-0.03-0.589-0.025c-0.036-0.299,0.158-0.606,0.457-0.508
				c0.15,0.05,0.252,0.058,0.336,0.049c0.058,0.2,0.172,0.396,0.321,0.512c0.237,0.204,0.453,0.263,0.577,0.073
				c0.118-0.182,0.225-0.376,0.288-0.588c0.058-0.193-0.035-0.372-0.212-0.509c0.236,0.061,0.354-0.037,0.467-0.17l-0.732-0.585
				c0.075-0.077,0.14-0.164,0.227-0.229c0.145-0.106,0.58-0.002,0.643,0.156c0.084,0.213,0.187,0.396,0.45,0.391
				c0.247-0.006,0.29-0.168,0.251-0.4c-0.026-0.164,0.027-0.326,0.102-0.453c0.122-0.209,0.312-0.33,0.677-0.289
				c0.146,0.016,0.225-0.215,0.334-0.334c-0.194-0.095-0.418-0.266-0.577-0.268c-0.409-0.008-0.798,0.04-1.052,0.287
				c-0.093,0.09-0.276,0.191-0.409,0.145c-0.817-0.288-1.044,0.303-1.719,0.325c0.025,0.259-0.049,0.522,0.092,0.713
				c0.013,0.017,0.027,0.021,0.041,0.034c-0.309,0.254-0.695,0.434-1.034,0.657l-0.003-0.016c-0.033-0.094-0.062-0.188-0.078-0.28
				c-0.035-0.191-0.053-0.376-0.047-0.551c0.217,0.107,0.503,0.039,0.776-0.246c0.013-0.03,0.097-0.131,0.105-0.258
				c0.014-0.193-0.125-0.357-0.308-0.488c0.047-0.113,0.072-0.238,0.057-0.389c-0.021-0.211,0.073-0.31,0.361-0.295
				c0.304,0.016,0.516-0.123,0.546-0.416c0.032-0.312,0.089-0.617,0.166-0.91c0.028-0.106,0.14-0.256,0.23-0.235
				c0.605,0.136,0.863-0.273,1.374-0.276c0.052,0,0.105-0.037,0.122-0.077c0.138-0.333,0.283-0.663,0.394-1.011
				c0.063-0.201,0.1-0.384,0.359-0.464c0.222-0.068,0.359-0.246,0.303-0.554c-0.062-0.345,0.033-0.359,0.465-0.174
				c0.225,0.097,0.404,0.198,0.652,0.163c0.664-0.094,0.725-0.603,0.759-1.085c0.034-0.484-0.292-0.678-0.819-0.545
				c-0.061,0.016-0.104,0.059-0.154,0.088c0.055-0.203,0.135-0.412,0.321-0.457c0.255-0.062,0.242-0.271,0.341-0.419
				c0.329-0.488,0.65-0.98,0.976-1.472c0.118,0.135,0.122,0.216,0.142,0.299c0.118,0.482,0.097,0.863-0.543,0.844
				c-0.068-0.003-0.119,0.101-0.136,0.175c-0.032,0.14-0.028,0.295-0.05,0.439c-0.065,0.424,0.029,0.509,0.58,0.642
				c0.461,0.111,0.764,0.109,0.705-0.357c-0.013-0.093,0.109-0.151,0.15-0.237c0.12-0.254,0.259-0.499,0.34-0.772
				c0.119-0.402,0.195-0.825,0.283-1.209c0.164,0.131,0.307,0.283,0.471,0.367c0.297,0.149,0.486,0.238,0.145,0.38
				c-0.11,0.046-0.145,0.2-0.184,0.319c-0.166,0.514-0.332,1.027-0.468,1.556c-0.021,0.082,0.085,0.277,0.183,0.346
				c0.095,0.065,0.266,0.052,0.386,0.041c0.302-0.028,0.318-0.274,0.384-0.483c0.055-0.178,0.098-0.365,0.187-0.523
				c0.163-0.289,0.397-0.564,0.149-0.99c-0.182-0.311-0.016-0.333,0.183-0.368c0.071-0.013,0.169,0.019,0.241,0.005
				c0.264-0.047,0.341-0.271,0.193-0.53c-0.149-0.263-0.478-0.416-0.749-0.358c-0.11,0.023-0.234,0.025-0.353,0.037
				c-0.084-0.171-0.198-0.346-0.244-0.514c-0.037-0.135,0.077-0.309,0.004-0.381c-0.23-0.226-0.107-0.303-0.012-0.406
				c0.092-0.1,0.184-0.197,0.275-0.296c0.027,0.166-0.01,0.285-0.045,0.405c-0.032,0.115-0.164,0.204,0.069,0.378
				c0.194,0.146,0.37,0.3,0.582,0.218c0.095-0.037,0.222-0.047,0.286-0.109c0.184-0.178,0.34-0.07,0.457,0.168
				c0.123,0.246,0.222,0.496,0.304,0.742c0.09,0.271,0.151,0.539,0.223,0.808c0.072,0.27,0.249,0.386,0.523,0.363
				c0.465-0.036,0.59-0.379,0.271-0.869c-0.325-0.499-0.519-0.927-0.178-1.302c0.208-0.229-0.108-0.598-0.536-0.703
				c-0.552-0.135-0.874,0.016-1.019,0.492c-0.172-0.297-0.434-0.656-0.386-0.684c0.201-0.114,0.493-0.132,0.755-0.182
				c0.034-0.006,0.088-0.002,0.123,0.018c0.397,0.221,0.625,0.027,0.901-0.023c0.189-0.033,0.296-0.205,0.125-0.418
				c-0.474-0.588-0.423-1.073-0.341-1.584c0.287,0.174,0.539,0.327,0.824,0.501c-0.041,0.072-0.105,0.143-0.127,0.233
				C51.005,8.641,51.122,8.864,51.417,9.062z M52.956,4.863c0.103-0.047,0.248-0.048,0.335-0.108
				c0.315-0.218,0.31-0.224,0.741,0.187c-0.344,0.259-0.687,0.516-1.465,0.152C52.726,4.998,52.833,4.921,52.956,4.863z
				 M32.068,26.077c0.158-0.096,0.265-0.174,0.388-0.231c0.103-0.047,0.248-0.048,0.335-0.107c0.315-0.218,0.31-0.225,0.741,0.186
				C33.188,26.184,32.846,26.44,32.068,26.077z M36.724,22.156c-0.087,0.117-0.225,0.104-0.351-0.054
				c-0.087-0.109-0.151-0.229-0.073-0.29c0.019,0.016,0.037,0.03,0.056,0.045c0.124,0.099,0.248,0.197,0.372,0.297L36.724,22.156z
				 M37.874,21.745c-0.104,0.074-0.212,0.167-0.329,0.23c0.024-0.037,0.051-0.073,0.065-0.116c0.061-0.185,0.209-0.248,0.438-0.232
				c0.002,0.006,0.004,0.012,0.004,0.012C37.996,21.668,37.938,21.7,37.874,21.745z"/>
			<path fill="#FFFCF7" d="M28.903,35.908c0.127-0.113,0.309-0.178,0.379-0.216c0.298-0.314,0.301-0.543,0.035-0.767
				c-0.085-0.072-0.35-0.114-0.351-0.105c-0.024,0.356-0.456,0.382-0.591,0.635c-0.043,0.08,0.034,0.273,0.124,0.388
				C28.633,36.012,28.774,36.021,28.903,35.908z"/>
			<path fill="#FFFCF7" d="M34.845,26.05c0.066,0.049,0.17,0.101,0.232,0.097c0.22-0.011,0.585-0.586,0.535-0.811
				c-0.088-0.399-0.471-0.745-1.109-1.01c-0.053,0.057-0.105,0.111-0.155,0.169C33.918,24.998,34.069,25.475,34.845,26.05z"/>
			<path fill="#FFFCF7" d="M27.238,36.678c-0.101,0.048-0.178,0.232-0.12,0.327c0.079,0.132,0.327,0.331,0.445,0.336
				c0.341,0.015,0.652-0.054,0.939-0.086c0.059-0.2,0.109-0.315,0.123-0.445c0.01-0.083-0.001-0.224-0.062-0.271
				c-0.111-0.087-0.311-0.191-0.398-0.172C27.837,36.441,27.521,36.543,27.238,36.678z"/>
			<path fill="#FFFCF7" d="M44.354,16.399c-0.111,0.138,0.025,0.443,0.289,0.647c0.238,0.202,0.426,0.236,0.577,0.07
				c0.173-0.188-0.039-0.412-0.195-0.6C44.877,16.339,44.447,16.286,44.354,16.399z"/>
			<path fill="#FFFCF7" d="M54.658,9.748c0.185-0.063,0.396-0.092,0.591-0.139c0.19-0.047,0.205-0.149-0.133-0.417
				c-0.118-0.094-0.94-0.126-0.992,0.085c-0.029,0.115,0.031,0.31,0.131,0.438C54.417,9.926,54.528,9.793,54.658,9.748z"/>
			<path fill="#FFFCF7" d="M46.399,19.373c-0.238,0.228-0.197,0.387,0.053,0.594c0.294,0.242,0.431,0.018,0.479-0.042
				c0.09-0.112,0.172-0.351-0.128-0.519C46.66,19.326,46.462,19.377,46.399,19.373z"/>
			<path fill="#FFFCF7" d="M45.36,17.44c-0.069-0.019-0.131,0.088-0.145,0.099c-0.075,0.08-0.142,0.109-0.135,0.151
				c0.034,0.199-0.296,0.281-0.004,0.562c0.295,0.283,0.513,0.296,0.762,0.152c0.16-0.092,0.416-0.083,0.635-0.108
				c0.355-0.041,0.604-0.181,0.615-0.519c0.004-0.104-0.052-0.275-0.143-0.349c-0.123-0.098-0.36-0.205-0.455-0.177
				C46.137,17.357,45.857,17.572,45.36,17.44z"/>
			<path fill="#FFFCF7" d="M60.797,5.008C60.751,4.898,60.685,4.79,60.585,4.6c-0.192,0.148-0.377,0.253-0.498,0.404
				c-0.049,0.062,0.006,0.242,0.085,0.338c0.052,0.065,0.241,0.11,0.347,0.108C60.809,5.444,60.917,5.295,60.797,5.008z"/>
			<path fill="#FFFCF7" d="M32.259,31.484c-0.242-0.202-0.412-0.273-0.662-0.16c-0.514,0.232-0.543,0.772-0.783,1.178
				c-0.027,0.047,0.128,0.245,0.237,0.336c0.06,0.05,0.218,0.045,0.3,0.021c0.15-0.043,0.277-0.118,0.413-0.18
				c-0.017-0.016-0.033-0.032-0.05-0.048c0.175-0.239,0.355-0.475,0.52-0.721C32.31,31.798,32.566,31.742,32.259,31.484z"/>
			<path fill="#FFFCF7" d="M51.851,11.877c0.15-0.043,0.276-0.119,0.413-0.181c-0.017-0.016-0.033-0.031-0.05-0.047
				c0.174-0.239,0.354-0.476,0.52-0.721c0.076-0.113,0.333-0.169,0.025-0.427c-0.242-0.203-0.412-0.274-0.662-0.161
				c-0.514,0.232-0.543,0.772-0.783,1.178c-0.027,0.047,0.128,0.246,0.236,0.337C51.61,11.904,51.769,11.9,51.851,11.877z"/>
			<path fill="#FFFCF7" d="M59.259,1.754c0.012,0.084,0.051,0.175,0.147,0.289c0.177,0.208,0.087,0.238-0.011,0.366
				c-0.152,0.199-0.066,0.579-0.24,0.75c-0.199,0.196-0.515,0.298-0.517,0.633c-0.001,0.095,0.057,0.259,0.14,0.317
				c0.108,0.075,0.281,0.105,0.402,0.1c0.081-0.003,0.139-0.091,0.174-0.161c0.117-0.235,0.185-0.505,0.607-0.462
				c0.067,0.007,0.118-0.105,0.141-0.182C60.151,3.24,60.2,3.071,60.207,2.89c0.005-0.122-0.036-0.272-0.104-0.405
				c-0.073-0.143-0.062-0.305-0.01-0.441L59.259,1.754z"/>
			<path fill="#FFFCF7" d="M60.985,3.578c-0.109-0.045-0.266,0.019-0.353,0.081c-0.102,0.073-0.171,0.187-0.215,0.304
				c-0.026,0.07-0.014,0.2,0.048,0.271c0.254,0.292,0.377,0.295,0.67-0.025c0.008-0.016,0.054-0.113,0.1-0.213
				C61.312,3.827,61.185,3.658,60.985,3.578z"/>
			<path fill="#FFFCF7" d="M40.297,25.991c-0.046-0.109-0.112-0.219-0.212-0.409c-0.192,0.149-0.377,0.254-0.498,0.405
				c-0.049,0.061,0.007,0.241,0.085,0.338c0.052,0.064,0.241,0.109,0.347,0.107C40.309,26.428,40.417,26.277,40.297,25.991z"/>
			<path fill="#FFFCF7" d="M34.158,30.73c0.185-0.062,0.396-0.091,0.592-0.139c0.189-0.046,0.204-0.148-0.134-0.416
				c-0.117-0.095-0.94-0.126-0.992,0.084c-0.029,0.115,0.031,0.31,0.131,0.439C33.917,30.908,34.029,30.775,34.158,30.73z"/>
			<path fill="#FFFCF7" d="M42.29,19.35c0.34-0.001,0.594-0.079,0.738-0.303c0.128-0.197,0.317-0.236,0.644-0.077
				c0.333,0.163,0.552,0.017,0.477-0.202c-0.15-0.435,0.11-0.597,0.297-0.825c0.175-0.214,0.058-0.534-0.39-0.862
				c-0.096,0.016-0.307-0.004-0.397,0.078c-0.311,0.281-0.546,0.628-0.871,0.895c-0.351,0.289-0.734,0.549-1.357,0.521
				c-0.194-0.009-0.399,0.141-0.456,0.294c-0.078,0.212-0.019,0.497-0.021,0.751c-0.005,0.32,0.229,0.538,0.559,0.471
				c0.17-0.034,0.379-0.198,0.346-0.333C41.765,19.385,42.023,19.35,42.29,19.35z"/>
			<path fill="#FFFCF7" d="M45.928,14.943c-0.085,0.37-0.088,0.779-0.091,1.184c0,0.065,0.191,0.256,0.269,0.268
				c0.133,0.021,0.347-0.021,0.349-0.094c0.01-0.381,0.198-0.582,0.604-0.651c0.241-0.041,0.203-0.323-0.024-0.5
				C46.663,14.861,45.98,14.714,45.928,14.943z"/>
			<path fill="#FFFCF7" d="M47.253,16.799c-0.158,0.158,0.037,0.342,0.174,0.488c0.179,0.192,0.545,0.207,0.681,0.023
				c0.06-0.08,0.021-0.232,0.024-0.302C47.727,16.679,47.417,16.636,47.253,16.799z"/>
			<path fill="#FFFCF7" d="M47.738,15.695c-0.101,0.048-0.178,0.232-0.121,0.327c0.079,0.131,0.328,0.331,0.446,0.336
				c0.341,0.015,0.652-0.055,0.939-0.086c0.059-0.2,0.109-0.315,0.123-0.445c0.01-0.083-0.001-0.224-0.062-0.271
				c-0.112-0.088-0.311-0.192-0.399-0.172C48.337,15.459,48.021,15.561,47.738,15.695z"/>
			<path fill="#FFFCF7" d="M49.403,14.925c0.127-0.112,0.309-0.177,0.38-0.216c0.297-0.313,0.299-0.542,0.034-0.766
				c-0.085-0.072-0.35-0.114-0.35-0.114c-0.025,0.364-0.457,0.39-0.592,0.644c-0.043,0.08,0.034,0.272,0.124,0.387
				C49.132,15.029,49.274,15.037,49.403,14.925z"/>
		</g>
		<g opacity="0.5">
			<path fill="#C69D6A" d="M154.347,77.989c-0.176-0.126-0.203-0.449-0.26-0.587c0.578-0.895,1.162-1.164,1.602-0.936
				c0.424,0.221,0.164,0.699-0.006,1.072C155.462,78.025,154.742,78.272,154.347,77.989z"/>
			<path fill="#C69D6A" d="M159.901,61.531c0.214-0.094,0.56,0.038,0.728,0.056c0.64,0.938,0.635,1.579,0.188,1.854
				c-0.432,0.266-0.797-0.193-1.1-0.522C159.326,62.49,159.42,61.741,159.901,61.531z"/>
			<path fill="#C69D6A" d="M154.503,47.553c0.144,0.073,0.203,0.309,0.262,0.404c-0.316,0.717-0.713,0.976-1.062,0.854
				c-0.339-0.118-0.206-0.496-0.127-0.789C153.679,47.641,154.177,47.386,154.503,47.553z"/>
		</g>
		<g opacity="0.5">
			<path fill="#C69D6A" d="M46.052,48.303c0.342,0.094,0.494-0.293,0.327-0.659c-0.273-0.6-1.05-1.206-1.281-0.942
				c-0.374,0.426-0.671,0.953-0.962,1.473c-0.049,0.085,0.062,0.447,0.153,0.51c0.156,0.108,0.462,0.186,0.518,0.092
				C45.092,48.289,45.479,48.145,46.052,48.303z"/>
			<path fill="#C69D6A" d="M47.929,73.42c-0.244,0.164-0.271,0.854-0.115,1.274c0.104,0.282,0.713,0.638,1.082,0.739
				c1.026,0.284,1.591-0.127,1.52-1.257c-0.027-0.433-0.128-0.884-0.245-1.653C49.314,72.844,48.538,73.016,47.929,73.42z"/>
			<path fill="#C69D6A" d="M35.927,56.307c-0.32,0.064-0.764,0.338-0.695,0.506c0.352,0.869,0.123,1.481-0.727,1.979
				C34,59.087,34.363,59.693,35.049,59.9c1.124,0.341,2.812,0.1,2.705-0.462c-0.172-0.907-0.567-1.835-0.958-2.75
				C36.732,56.539,36.112,56.269,35.927,56.307z"/>
			<path fill="#C69D6A" d="M36.958,36.613c-0.438,0.225-0.621,0.939-0.797,1.229c0.96,2.183,2.166,2.97,3.232,2.599
				c1.03-0.359,0.627-1.512,0.386-2.401C39.464,36.883,37.948,36.104,36.958,36.613z"/>
			<path fill="#C69D6A" d="M52.462,24.813c0.534-0.848,1.632-0.418,2.301-0.889c0.212-0.149,0.279-0.71,0.211-1.095
				c-0.101-0.568-0.439-0.75-0.905-0.619c-0.464,0.132-0.998,0.084-1.223,0.098c-1.149,0.436-1.461,0.995-1.107,1.848
				C51.851,24.431,52.448,24.835,52.462,24.813z"/>
		</g>
		<polygon opacity="0.5" fill="#C69D6A" points="77.51,8.061 66.091,9.12 64.735,11.63 		"/>
		<polygon fill="#FFFFFF" points="77.51,8.061 54.982,3.335 43.407,11.091 54.181,0 		"/>
		<polygon fill="#FFFFFF" points="131.031,32.957 146.065,29.803 153.481,34.661 146.601,27.576 		"/>
		<polygon opacity="0.5" fill="#C69D6A" points="139.557,35.338 138.466,33.663 131.031,32.957 		"/>
	</g>
</g>
</svg>
