<?xml version="1.0" encoding="utf-8"?>
<!-- Generator: Adobe Illustrator 16.0.0, SVG Export Plug-In . SVG Version: 6.00 Build 0)  -->
<!DOCTYPE svg PUBLIC "-//W3C//DTD SVG 1.1//EN" "http://www.w3.org/Graphics/SVG/1.1/DTD/svg11.dtd">
<svg version="1.1" id="Capa_1" xmlns="http://www.w3.org/2000/svg" xmlns:xlink="http://www.w3.org/1999/xlink" x="0px" y="0px"
	 width="200px" height="107.562px" viewBox="0 0 200 107.562" enable-background="new 0 0 200 107.562" xml:space="preserve">
<path fill="#49809B" d="M99.045,75.143c-0.551-0.348-1.269-0.514-2.171-0.514c-0.305,0-0.729,0.01-1.279,0.029
	c-0.54,0.025-0.967,0.032-1.284,0.032c-0.415,0-0.889-0.017-1.423-0.044v0.516c0.383,0.001,0.635,0.044,0.758,0.122
	c0.052,0.03,0.086,0.08,0.115,0.151c0.032,0.113,0.062,0.396,0.073,0.844c0.025,0.726,0.041,1.354,0.041,1.893v3.349
	c0,0.439-0.012,1.215-0.042,2.351c-0.012,0.659-0.03,1.175-0.049,1.543c-0.145,0.152-0.326,0.312-0.541,0.494l-0.024,0.652
	c0.565-0.042,0.955-0.063,1.176-0.07c0.152,0.003,0.478,0.01,0.984,0.035c0.379,0.022,0.685,0.026,0.906,0.026
	c0.678,0,1.209-0.072,1.597-0.231c0.388-0.163,0.758-0.406,1.114-0.717c0.349-0.318,0.683-0.748,0.988-1.295
	c0.312-0.542,0.579-1.438,0.759-2.166c0.182-0.729,0.271-1.512,0.271-2.339c0-1.16-0.193-2.141-0.577-2.948
	C100.058,76.055,99.597,75.481,99.045,75.143z M99.636,82.269c-0.123,0.667-0.304,1.211-0.542,1.633
	c-0.229,0.431-0.473,0.755-0.725,0.973c-0.253,0.214-0.557,0.385-0.917,0.505c-0.35,0.121-0.756,0.188-1.219,0.188
	c-0.452,0-0.876-0.058-1.278-0.158c-0.021-0.61-0.031-1.105-0.037-1.494l-0.015-2.541v-3.275l0.021-1.188
	c0.006-0.687,0.019-1.161,0.031-1.426c0.463-0.105,0.919-0.16,1.376-0.16c0.855,0,1.533,0.202,2.026,0.588
	c0.494,0.385,0.858,0.943,1.105,1.681c0.243,0.728,0.369,1.6,0.369,2.609C99.833,80.917,99.764,81.611,99.636,82.269z"/>
<path fill="#49809B" d="M30.82,74.648v0.527c0.434,0.005,0.699,0.038,0.794,0.09c0.097,0.046,0.163,0.111,0.206,0.214
	c0.047,0.091,0.07,0.397,0.078,0.915c0.015,0.71,0.019,1.44,0.019,2.186v2.528c0,0.712-0.019,1.306-0.05,1.772
	c-0.034,0.467-0.095,0.833-0.174,1.104c-0.078,0.271-0.2,0.511-0.357,0.727c-0.159,0.213-0.396,0.398-0.718,0.553
	c-0.318,0.146-0.685,0.219-1.096,0.219c-0.354,0-0.675-0.056-0.959-0.165c-0.283-0.112-0.513-0.264-0.68-0.449
	c-0.231-0.245-0.39-0.559-0.49-0.932c-0.102-0.374-0.151-1.153-0.151-2.326v-3.03c0.01-1.447,0.021-2.228,0.03-2.341
	c0.003-0.417,0.034-0.681,0.083-0.786c0.034-0.087,0.093-0.146,0.192-0.19c0.098-0.047,0.357-0.081,0.792-0.089v-0.527
	c-0.514,0.041-2.622,0.041-3.221,0v0.527c0.434,0.008,0.699,0.038,0.788,0.093c0.091,0.048,0.162,0.115,0.204,0.215
	c0.042,0.091,0.071,0.396,0.079,0.915c0.014,0.71,0.018,1.444,0.018,2.188v3.622c0,1.052,0.057,1.807,0.151,2.255
	c0.088,0.341,0.24,0.67,0.452,0.998c0.22,0.326,0.534,0.582,0.953,0.786c0.409,0.199,0.903,0.289,1.472,0.289
	c0.481,0,0.923-0.082,1.324-0.249c0.395-0.17,0.721-0.407,0.977-0.714c0.337-0.404,0.57-0.884,0.697-1.42
	c0.125-0.538,0.194-1.479,0.194-2.826v-2.749c0.012-1.443,0.012-2.224,0.02-2.333c0.008-0.421,0.042-0.685,0.083-0.79
	c0.038-0.087,0.099-0.144,0.192-0.188c0.094-0.053,0.363-0.086,0.796-0.091v-0.527C32.862,74.692,31.427,74.692,30.82,74.648z"/>
<path fill="#49809B" d="M40.011,74.652v0.516c0.383,0.002,0.639,0.048,0.756,0.122c0.051,0.032,0.093,0.085,0.117,0.154
	c0.034,0.11,0.055,0.396,0.072,0.842c0.027,0.729,0.036,1.356,0.036,1.894v5.993c-0.136-0.214-0.312-0.49-0.512-0.854
	c-0.322-0.544-0.75-1.292-1.286-2.244l-1.665-2.988l-1.142-2.093c-0.148-0.291-0.377-0.738-0.688-1.346
	c-0.267,0.021-1.342,0.021-1.959,0v0.519c0.3,0.001,0.49,0.021,0.576,0.048c0.093,0.021,0.169,0.069,0.232,0.163
	c0.103,0.138,0.171,0.252,0.197,0.356c0.02,0.055,0.023,0.169,0.023,0.348v6.687c0,0.523-0.01,1.148-0.03,1.865
	c-0.019,0.471-0.045,0.752-0.079,0.862c-0.025,0.073-0.063,0.126-0.113,0.157c-0.121,0.085-0.373,0.123-0.758,0.127v0.795
	c0.498-0.042,2.133-0.042,2.454,0.004v-0.794c-0.384-0.005-0.634-0.043-0.752-0.119c-0.057-0.037-0.094-0.091-0.119-0.17
	c-0.034-0.104-0.06-0.378-0.068-0.834c-0.034-0.724-0.045-1.354-0.045-1.893V76.48l3.909,6.939l0.712,1.334
	c0.144,0.271,0.367,0.654,0.672,1.167c0.109,0.198,0.184,0.305,0.208,0.327c0.017,0.025,0.038,0.041,0.059,0.056l0.134,0.036
	l0.572,0.248c-0.022-2.187-0.026-3.671-0.026-4.469v-3.945c0-0.52,0.01-1.141,0.034-1.859c0.014-0.475,0.04-0.766,0.078-0.859
	c0.021-0.082,0.053-0.135,0.108-0.167c0.123-0.074,0.375-0.121,0.757-0.125v-0.516C42.126,74.674,40.45,74.674,40.011,74.652z"/>
<path fill="#49809B" d="M73.575,74.646v0.526c0.438,0.009,0.704,0.038,0.792,0.091c0.097,0.043,0.162,0.114,0.203,0.213
	c0.048,0.092,0.076,0.397,0.084,0.911c0.011,0.713,0.016,1.448,0.016,2.188v3.798c-0.008,1.437-0.016,2.214-0.018,2.33
	c-0.017,0.415-0.042,0.679-0.083,0.789c-0.039,0.089-0.104,0.154-0.202,0.204c-0.092,0.042-0.363,0.064-0.792,0.076v0.803
	c0,0,2.465-0.042,3.247,0v-0.803c-0.438-0.012-0.703-0.037-0.801-0.076c-0.088-0.05-0.163-0.126-0.205-0.224
	c-0.037-0.102-0.067-0.407-0.076-0.93c-0.01-0.704-0.017-1.434-0.017-2.172v-3.798c0.013-1.443,0.017-2.224,0.021-2.335
	c0.007-0.419,0.037-0.683,0.083-0.793c0.034-0.082,0.105-0.142,0.193-0.187c0.098-0.052,0.363-0.082,0.801-0.09v-0.526
	C76.108,74.686,74.276,74.686,73.575,74.646z"/>
<path fill="#49809B" d="M85.149,82.138c0.183-0.729,0.269-1.512,0.269-2.34c0-1.157-0.187-2.138-0.573-2.946
	c-0.383-0.794-0.843-1.367-1.393-1.707c-0.545-0.35-1.274-0.516-2.174-0.516c-0.301,0-0.728,0.01-1.276,0.03
	c-0.54,0.028-0.967,0.035-1.284,0.035c-0.413,0-0.889-0.018-1.423-0.046v0.515c0.383,0.003,0.632,0.047,0.755,0.125
	c0.052,0.028,0.092,0.081,0.118,0.151c0.037,0.111,0.061,0.396,0.076,0.845c0.02,0.726,0.033,1.354,0.033,1.893v3.345
	c0,0.44-0.013,1.217-0.038,2.35c-0.021,0.659-0.034,1.175-0.054,1.544c-0.143,0.153-0.325,0.312-0.536,0.494L77.6,86.537
	c0.566-0.04,0.963-0.063,1.185-0.073c0.149,0.005,0.48,0.016,0.979,0.039c0.384,0.021,0.685,0.031,0.909,0.031
	c0.679,0,1.207-0.082,1.593-0.236c0.385-0.16,0.762-0.4,1.113-0.724c0.354-0.316,0.685-0.742,0.993-1.285
	C84.686,83.738,84.968,82.867,85.149,82.138z M84.045,82.269c-0.125,0.667-0.305,1.211-0.54,1.633
	c-0.237,0.431-0.485,0.755-0.736,0.973c-0.252,0.214-0.552,0.385-0.91,0.505c-0.348,0.121-0.754,0.188-1.221,0.188
	c-0.451,0-0.873-0.058-1.283-0.158c-0.016-0.61-0.025-1.105-0.03-1.494l-0.02-2.541v-3.275l0.023-1.188
	c0.007-0.687,0.019-1.161,0.024-1.426c0.468-0.105,0.931-0.16,1.383-0.16c0.857,0,1.532,0.202,2.027,0.588
	c0.494,0.385,0.862,0.943,1.1,1.681c0.253,0.728,0.37,1.6,0.37,2.609C84.232,80.917,84.171,81.611,84.045,82.269z"/>
<path fill="#49809B" d="M91.987,85.647c-0.079-0.063-0.158-0.188-0.228-0.381c-0.123-0.334-0.379-1.171-0.761-2.507l-2.355-8.228
	h-0.358c-0.49,1.752-0.816,2.878-0.959,3.392l-1.385,4.628c-0.411,1.333-0.648,2.104-0.715,2.302
	c-0.109,0.36-0.204,0.577-0.264,0.668c-0.061,0.085-0.127,0.141-0.2,0.176c-0.071,0.021-0.248,0.039-0.54,0.042l0.012,0.835
	c0.418-0.053,1.941-0.053,2.566,0.002l-0.008-0.834c-0.346-0.001-0.584-0.034-0.718-0.075c-0.084-0.023-0.151-0.067-0.193-0.142
	c-0.025-0.051-0.038-0.117-0.038-0.191c0-0.175,0.055-0.455,0.156-0.831l0.601-2.106h3.191l0.678,2.515
	c0.055,0.191,0.079,0.342,0.079,0.462c0,0.073-0.012,0.146-0.048,0.197c-0.031,0.051-0.091,0.095-0.18,0.114
	c-0.089,0.028-0.336,0.049-0.746,0.059l0.009,0.835c0,0,2.404-0.055,2.979,0l-0.015-0.835
	C92.254,85.739,92.071,85.704,91.987,85.647z M86.788,81.7l1.402-4.945l1.377,4.945H86.788z"/>
<path fill="#49809B" d="M73.461,81.278c-0.103-0.34-0.245-0.616-0.412-0.827c-0.162-0.208-0.416-0.394-0.762-0.545
	c-0.37-0.109-0.785-0.202-1.241-0.289c-0.458-0.091-0.792-0.188-0.992-0.297c-0.294-0.151-0.498-0.356-0.611-0.604
	c-0.115-0.255-0.17-0.621-0.17-1.085c0-0.771,0.158-1.396,0.472-1.874c0.328-0.486,0.75-0.734,1.282-0.734
	c0.415,0,0.806,0.158,1.183,0.479c0.16,0.157,0.285,0.337,0.379,0.532c0.021,0.074,0.037,0.54,0.052,1.377h0.373
	c0.007-0.579,0.033-1.019,0.047-1.311c0.023-0.298,0.065-0.618,0.116-0.964c-0.32-0.233-0.671-0.421-1.035-0.538
	c-0.373-0.126-0.711-0.188-1.026-0.188c-0.518,0-1,0.159-1.447,0.472c-0.436,0.323-0.773,0.769-1,1.342
	c-0.228,0.566-0.341,1.176-0.341,1.824c0,0.438,0.061,0.854,0.168,1.233c0.109,0.384,0.259,0.694,0.44,0.923
	c0.179,0.238,0.46,0.442,0.843,0.621c0.288,0.092,0.635,0.174,1.04,0.252c0.409,0.076,0.679,0.127,0.82,0.166
	c0.212,0.062,0.397,0.178,0.543,0.341c0.145,0.154,0.252,0.367,0.321,0.632c0.076,0.266,0.11,0.572,0.11,0.938
	c0,0.469-0.066,0.911-0.217,1.33c-0.139,0.411-0.367,0.74-0.678,0.996c-0.314,0.253-0.659,0.379-1.024,0.379
	c-0.253,0-0.516-0.065-0.786-0.192c-0.278-0.129-0.494-0.277-0.651-0.438c-0.17-0.173-0.268-0.317-0.314-0.459
	c-0.036-0.146-0.068-0.62-0.082-1.421h-0.379c-0.014,1.179-0.048,2.023-0.109,2.554c0.591,0.424,1.253,0.631,1.988,0.635
	c0.954,0,1.742-0.403,2.35-1.21c0.603-0.81,0.913-1.76,0.913-2.849C73.624,82.024,73.569,81.621,73.461,81.278z"/>
<path fill="#49809B" d="M67.585,85.65c-0.068-0.084-0.3-0.509-0.695-1.271l-1.388-2.721c-0.348-0.663-0.56-1.085-0.653-1.283
	c0.505-0.163,0.914-0.392,1.225-0.695c0.318-0.301,0.557-0.678,0.723-1.131c0.165-0.451,0.248-0.908,0.248-1.369
	c0-0.488-0.089-0.946-0.26-1.36c-0.183-0.42-0.43-0.728-0.757-0.914c-0.316-0.183-0.831-0.276-1.534-0.276
	c-0.087,0-3.028,0.039-3.028,0.039l-0.653-0.021v0.527c0.435,0.008,0.695,0.038,0.78,0.081c0.099,0.042,0.168,0.116,0.207,0.217
	c0.045,0.091,0.076,0.394,0.083,0.909c0.016,0.712,0.02,1.445,0.02,2.189v3.799c-0.014,1.433-0.02,2.211-0.02,2.331
	c-0.011,0.415-0.041,0.679-0.087,0.787c-0.038,0.087-0.104,0.153-0.201,0.205c-0.091,0.04-0.351,0.062-0.785,0.077v0.8
	c0.829-0.044,2.694-0.044,3.216,0v-0.8c-0.435-0.015-0.695-0.038-0.793-0.077c-0.096-0.051-0.167-0.127-0.209-0.226
	c-0.041-0.098-0.067-0.406-0.075-0.928c-0.015-0.705-0.019-1.435-0.019-2.172v-3.646c0.019-1.512,0.036-2.312,0.036-2.392
	c0.012-0.249,0.021-0.532,0.036-0.824c0.365-0.164,0.736-0.253,1.113-0.253c0.607,0,1.053,0.202,1.352,0.603
	c0.295,0.396,0.448,0.926,0.448,1.602c0,0.771-0.172,1.393-0.516,1.859c-0.345,0.472-0.855,0.708-1.53,0.708
	c-0.096,0-0.238-0.015-0.428-0.025l-0.057,0.244c0.349,0.596,0.72,1.263,1.104,1.992c0.24,0.448,0.514,0.992,0.822,1.659
	c0.563,1.191,0.964,2.266,1.207,2.68c0.313-0.037,1.253-0.037,1.527,0v-0.801c-0.184,0-0.307-0.014-0.357-0.041
	C67.657,85.719,67.619,85.692,67.585,85.65z"/>
<path fill="#49809B" d="M51.672,74.646v0.527c0.494,0.054,0.774,0.098,0.85,0.139c0.097,0.044,0.143,0.13,0.143,0.262
	c0,0.091-0.038,0.334-0.121,0.721c-0.188,0.906-0.395,1.752-0.599,2.515l-1.437,5.375l-1.725-6.478
	c-0.121-0.446-0.261-1.032-0.418-1.758c-0.049-0.225-0.076-0.362-0.076-0.426c0-0.061,0.015-0.115,0.038-0.156
	c0.032-0.05,0.085-0.08,0.149-0.102c0.075-0.015,0.338-0.028,0.777-0.041v-0.579c-0.708,0.041-2.312,0.041-2.986,0v0.527
	c0.328,0.034,0.532,0.065,0.611,0.13c0.062,0.028,0.105,0.075,0.139,0.153c0.045,0.113,0.176,0.538,0.373,1.271l1.866,6.903
	c0.355,1.362,0.582,2.469,0.7,2.943v0.002h0.55c0.065-0.31,0.129-0.783,0.178-1.01c0.061-0.237,0.131-0.525,0.214-0.848l0.424-1.609
	l1.726-6.303c0.236-0.802,0.373-1.246,0.411-1.327c0.048-0.116,0.098-0.189,0.153-0.23c0.057-0.037,0.22-0.066,0.5-0.078v-0.526
	C53.605,74.677,52.227,74.677,51.672,74.646z"/>
<path fill="#49809B" d="M60.015,84.541c-0.047,0.291-0.095,0.518-0.138,0.688c-0.167,0.103-0.347,0.176-0.547,0.219
	c-0.197,0.046-0.532,0.066-0.998,0.066c-0.651,0-1.249-0.03-1.778-0.093c-0.02-0.521-0.028-1.288-0.028-2.302
	c0-1.081,0.009-1.891,0.028-2.438c0.453-0.031,0.801-0.042,1.047-0.042c0.598,0,1.008,0.035,1.219,0.101
	c0.115,0.041,0.198,0.11,0.236,0.205c0.042,0.101,0.071,0.355,0.08,0.758l0.014,0.559h0.386l-0.027-1.912l0.027-1.707v-0.154h-0.331
	l-0.034,0.578c-0.027,0.379-0.053,0.604-0.087,0.672c-0.034,0.062-0.112,0.104-0.229,0.126c-0.306,0.062-0.682,0.095-1.118,0.095
	c-0.359,0-0.756-0.019-1.185-0.046l0.018-2.771c0.011-0.531,0.022-1.1,0.038-1.705c0.129-0.021,0.352-0.035,0.653-0.058
	c0.308-0.024,0.502-0.038,0.594-0.038c0.41,0,0.821,0.038,1.233,0.12c0.242,0.043,0.465,0.128,0.665,0.255
	c0.054,0.459,0.08,0.969,0.076,1.527h0.346c0.059-1.088,0.093-1.657,0.097-1.704c0.03-0.229,0.065-0.5,0.121-0.816
	c-0.316-0.055-5.998-0.068-5.998-0.068v0.53c0.432,0.004,0.699,0.041,0.786,0.089c0.097,0.042,0.168,0.114,0.21,0.211
	c0.042,0.091,0.063,0.4,0.083,0.915c0.009,0.711,0.015,1.442,0.015,2.188v4.188c0,0.521-0.015,1.146-0.035,1.866
	c-0.014,0.469-0.042,0.757-0.074,0.859c-0.03,0.075-0.062,0.128-0.117,0.156c-0.121,0.088-0.373,0.126-0.76,0.13v0.795
	c0.918-0.043,4.736,0,4.736-0.006c0.452,0,0.839-0.037,1.151-0.108c0-0.725,0.049-1.92,0.144-3.021h-0.362
	C60.149,83.688,60.094,84.052,60.015,84.541z"/>
<path fill="#49809B" d="M42.744,74.646v0.526c0.442,0.009,0.708,0.038,0.801,0.091c0.092,0.043,0.163,0.114,0.201,0.213
	c0.045,0.092,0.076,0.397,0.083,0.911c0.008,0.713,0.02,1.448,0.02,2.188v3.798c-0.017,1.437-0.024,2.214-0.024,2.33
	c-0.008,0.415-0.042,0.679-0.079,0.789c-0.038,0.089-0.105,0.154-0.201,0.204c-0.097,0.042-0.362,0.064-0.801,0.076v0.803
	c0,0,2.471-0.042,3.252,0v-0.803c-0.437-0.012-0.703-0.037-0.8-0.076c-0.089-0.05-0.158-0.126-0.198-0.224
	c-0.042-0.102-0.071-0.407-0.079-0.93c-0.009-0.704-0.021-1.434-0.021-2.172v-3.798c0.015-1.443,0.021-2.224,0.024-2.335
	c0.012-0.419,0.038-0.683,0.083-0.793c0.036-0.082,0.101-0.142,0.188-0.187c0.099-0.052,0.365-0.082,0.802-0.09v-0.526
	C45.286,74.686,43.452,74.686,42.744,74.646z"/>
<path fill="#49809B" d="M150.039,75.175c-0.553-0.341-1.271-0.517-2.174-0.517c-0.305,0-0.73,0.013-1.273,0.034
	c-0.541,0.022-0.977,0.037-1.293,0.037c-0.41,0-0.885-0.02-1.424-0.046v0.518c0.391,0.004,0.635,0.042,0.758,0.121
	c0.055,0.033,0.09,0.084,0.121,0.156c0.031,0.109,0.057,0.39,0.068,0.844c0.033,0.721,0.041,1.352,0.041,1.886v3.351
	c0,0.434-0.012,1.222-0.041,2.342c-0.008,0.663-0.033,1.18-0.047,1.55c-0.146,0.151-0.324,0.312-0.539,0.492l-0.039,0.62
	c0.562-0.042,0.951-0.063,1.174-0.07c0.154,0.003,0.48,0.01,0.984,0.035c0.373,0.023,0.678,0.027,0.905,0.027
	c0.679,0,1.21-0.073,1.599-0.232c0.391-0.163,0.76-0.406,1.111-0.717c0.35-0.318,0.684-0.748,0.986-1.295
	c0.314-0.541,0.6-1.407,0.777-2.128c0.188-0.729,0.275-1.514,0.275-2.342c0-1.154-0.201-2.146-0.576-2.941
	C151.053,76.089,150.59,75.514,150.039,75.175z M150.623,82.31c-0.119,0.662-0.303,1.206-0.539,1.627
	c-0.229,0.431-0.477,0.752-0.721,0.973c-0.26,0.213-0.551,0.384-0.918,0.502c-0.35,0.13-0.769,0.188-1.217,0.188
	c-0.451,0-0.877-0.057-1.283-0.151c-0.021-0.615-0.027-1.115-0.035-1.5l-0.02-2.538v-3.277l0.021-1.188
	c0-0.687,0.018-1.158,0.023-1.431c0.463-0.106,0.926-0.154,1.377-0.154c0.865,0.007,1.539,0.199,2.031,0.585
	c0.488,0.388,0.855,0.952,1.105,1.687c0.242,0.728,0.367,1.597,0.367,2.609C150.82,80.951,150.754,81.643,150.623,82.31z"/>
<path fill="#49809B" d="M160.576,77.205c-0.178-0.497-0.434-0.956-0.756-1.371c-0.318-0.422-0.725-0.758-1.221-1.006
	c-0.498-0.262-1.048-0.387-1.652-0.387c-0.662,0-1.242,0.146-1.756,0.451c-0.502,0.297-0.965,0.736-1.371,1.323
	c-0.398,0.582-0.693,1.242-0.873,1.974c-0.166,0.73-0.258,1.529-0.258,2.395c0,0.771,0.092,1.543,0.27,2.331
	c0.18,0.779,0.443,1.448,0.789,1.996c0.346,0.541,0.766,0.96,1.27,1.245c0.5,0.276,1.035,0.418,1.619,0.418
	c1.258-0.006,2.312-0.618,3.145-1.842c0.838-1.229,1.256-2.757,1.256-4.604c0-0.571-0.051-1.104-0.131-1.608
	C160.828,78.015,160.715,77.576,160.576,77.205z M159.543,83.37c-0.215,0.781-0.541,1.384-0.979,1.818
	c-0.438,0.427-0.947,0.638-1.543,0.638c-0.422,0-0.812-0.103-1.172-0.308c-0.346-0.22-0.664-0.547-0.947-0.988
	c-0.291-0.446-0.523-1-0.695-1.655c-0.1-0.388-0.193-0.849-0.264-1.388c-0.072-0.536-0.104-1.062-0.104-1.586
	c0-0.924,0.106-1.758,0.324-2.491c0.231-0.736,0.56-1.299,1-1.688c0.442-0.387,0.963-0.579,1.541-0.579
	c0.405,0,0.789,0.091,1.131,0.277c0.349,0.188,0.633,0.416,0.849,0.688c0.228,0.271,0.412,0.589,0.569,0.953
	c0.149,0.359,0.281,0.762,0.377,1.214c0.154,0.73,0.236,1.529,0.236,2.409C159.869,81.69,159.754,82.59,159.543,83.37z"/>
<path fill="#49809B" d="M143.25,85.692c-0.061-0.086-0.293-0.52-0.693-1.271l-1.383-2.728c-0.342-0.662-0.562-1.088-0.656-1.279
	c0.506-0.163,0.912-0.397,1.229-0.699c0.313-0.298,0.556-0.679,0.721-1.131c0.164-0.455,0.242-0.904,0.242-1.365
	c0-0.493-0.086-0.951-0.26-1.361c-0.177-0.418-0.433-0.727-0.744-0.907c-0.322-0.199-0.83-0.288-1.539-0.288
	c-0.094,0-0.426,0.019-0.996,0.048c-0.442,0.029-2.034-0.003-2.034-0.003l-0.656-0.027v0.527c0.438,0.003,0.703,0.034,0.799,0.092
	c0.089,0.037,0.156,0.109,0.197,0.21c0.045,0.091,0.076,0.396,0.086,0.915c0.006,0.714,0.021,1.441,0.021,2.185v3.801
	c-0.015,1.439-0.021,2.214-0.028,2.332c-0.013,0.42-0.041,0.684-0.082,0.793c-0.035,0.08-0.104,0.146-0.191,0.196
	c-0.104,0.043-0.362,0.064-0.799,0.082l-0.026,0.768c0.832-0.042,2.694-0.042,3.221,0l0.019-0.768
	c-0.424-0.018-0.69-0.039-0.786-0.082c-0.099-0.048-0.162-0.123-0.207-0.224c-0.041-0.097-0.062-0.402-0.074-0.927
	c-0.008-0.704-0.021-1.432-0.021-2.173v-3.643c0.021-1.518,0.037-2.308,0.037-2.39c0.017-0.26,0.026-0.529,0.035-0.83
	c0.366-0.166,0.735-0.248,1.112-0.248c0.606,0,1.058,0.197,1.358,0.6c0.295,0.396,0.438,0.928,0.438,1.598
	c0,0.771-0.17,1.396-0.521,1.864c-0.34,0.476-0.851,0.712-1.521,0.712c-0.094,0-0.239-0.018-0.437-0.032l-0.057,0.248
	c0.356,0.593,0.725,1.256,1.108,1.991c0.235,0.444,0.512,0.994,0.83,1.654c0.557,1.19,0.932,2.229,1.172,2.646
	c0.312-0.039,1.254-0.039,1.532,0l0.021-0.768c-0.182,0-0.305-0.018-0.358-0.045C143.32,85.758,143.289,85.729,143.25,85.692z"/>
<path fill="#49809B" d="M166.836,81.385c-0.094-0.333-0.227-0.612-0.412-0.841c-0.174-0.234-0.391-0.415-0.658-0.526
	c-0.266-0.116-0.607-0.211-1.041-0.269c0.328-0.12,0.584-0.256,0.785-0.397c0.201-0.146,0.383-0.334,0.547-0.562
	c0.166-0.233,0.289-0.512,0.387-0.827c0.105-0.316,0.15-0.655,0.15-1.021c0-0.452-0.08-0.865-0.248-1.228
	c-0.162-0.376-0.391-0.642-0.68-0.81c-0.289-0.161-0.703-0.245-1.242-0.245l-3.17,0.035c-0.189,0-0.338-0.004-0.461-0.016V75.2
	c0.385,0.004,0.633,0.042,0.756,0.123c0.053,0.035,0.088,0.083,0.123,0.155c0.027,0.114,0.055,0.389,0.066,0.846
	c0.031,0.723,0.039,1.354,0.039,1.887v4.941c0,0.275-0.004,0.69-0.027,1.218c-0.02,0.533-0.035,0.88-0.059,1.04
	c-0.012,0.11-0.029,0.187-0.051,0.229c-0.029,0.038-0.154,0.14-0.385,0.311l-0.021,0.603c0.482-0.047,0.816-0.069,0.988-0.069
	l1.6,0.069c0.52,0,0.986-0.112,1.365-0.334c0.521-0.293,0.948-0.743,1.271-1.356c0.326-0.617,0.521-1.545,0.521-2.357
	C166.975,82.094,166.924,81.728,166.836,81.385z M162.816,79.518v-1.953c0-0.949,0.021-1.652,0.057-2.104
	c0.279-0.081,0.566-0.126,0.883-0.126c0.568,0,0.992,0.15,1.281,0.463c0.295,0.301,0.443,0.786,0.443,1.471
	c0,0.394-0.041,0.734-0.141,1.023c-0.086,0.289-0.197,0.518-0.334,0.688c-0.139,0.176-0.326,0.307-0.582,0.413
	c-0.248,0.104-0.594,0.153-1.047,0.153c-0.16,0-0.342-0.01-0.559-0.026L162.816,79.518L162.816,79.518z M165.574,84.302
	c-0.16,0.449-0.391,0.785-0.682,1.009c-0.307,0.217-0.693,0.329-1.184,0.329c-0.303,0-0.59-0.05-0.869-0.147
	c-0.012-1.158-0.023-1.887-0.021-2.192v-3.106c0.252-0.021,0.453-0.036,0.611-0.036c0.688,0,1.185,0.101,1.478,0.291
	c0.299,0.188,0.534,0.473,0.686,0.872c0.146,0.388,0.218,0.871,0.218,1.444C165.814,83.336,165.736,83.854,165.574,84.302z"/>
<path fill="#49809B" d="M136.547,78.515c-0.084-0.5-0.195-0.94-0.33-1.312c-0.186-0.497-0.443-0.956-0.762-1.371
	c-0.311-0.422-0.723-0.758-1.213-1.006c-0.064-0.034-0.143-0.047-0.207-0.076l-0.062,0.06l-0.117-0.124
	c-0.396-0.147-0.809-0.244-1.27-0.244c-0.658,0-1.244,0.146-1.748,0.451c-0.518,0.297-0.967,0.736-1.373,1.324
	c-0.406,0.581-0.695,1.241-0.871,1.973c-0.172,0.73-0.262,1.529-0.262,2.395c0,0.771,0.09,1.543,0.271,2.331
	c0.182,0.779,0.441,1.448,0.787,1.996c0.35,0.541,0.771,0.96,1.271,1.245c0.496,0.276,1.031,0.418,1.607,0.418
	c1.27-0.006,2.318-0.618,3.148-1.842c0.836-1.229,1.252-2.757,1.252-4.604C136.67,79.552,136.633,79.022,136.547,78.515z
	 M135.182,83.37c-0.213,0.781-0.537,1.384-0.973,1.818c-0.441,0.427-0.955,0.638-1.545,0.638c-0.432,0-0.818-0.103-1.17-0.308
	c-0.352-0.22-0.666-0.547-0.951-0.988c-0.289-0.446-0.516-1-0.697-1.655c-0.104-0.388-0.188-0.849-0.26-1.388
	c-0.068-0.536-0.102-1.062-0.102-1.586c0-0.924,0.104-1.758,0.326-2.491c0.223-0.736,0.553-1.299,0.994-1.688
	c0.447-0.387,0.953-0.579,1.537-0.579c0.41,0,0.783,0.091,1.131,0.277c0.348,0.188,0.635,0.416,0.852,0.688
	c0.223,0.271,0.412,0.589,0.566,0.953c0.161,0.359,0.281,0.762,0.383,1.214c0.156,0.73,0.229,1.529,0.229,2.409
	C135.504,81.69,135.396,82.59,135.182,83.37z"/>
<path fill="#49809B" d="M174.318,85.682c-0.08-0.062-0.154-0.188-0.224-0.377c-0.125-0.343-0.378-1.176-0.767-2.513l-2.354-8.225
	h-0.354c-0.5,1.753-0.816,2.884-0.965,3.395l-1.387,4.63c-0.412,1.327-0.648,2.097-0.713,2.303
	c-0.117,0.354-0.205,0.577-0.268,0.657c-0.057,0.086-0.119,0.146-0.193,0.178c-0.07,0.026-0.256,0.044-0.539,0.048l-0.049,0.797
	c0.419-0.053,1.945-0.053,2.568,0l0.041-0.792c-0.342-0.009-0.58-0.035-0.721-0.078c-0.084-0.023-0.143-0.073-0.184-0.149
	c-0.037-0.049-0.045-0.104-0.045-0.188c0-0.17,0.053-0.452,0.164-0.826l0.6-2.106h3.188l0.686,2.513
	c0.047,0.188,0.079,0.34,0.079,0.464c0,0.08-0.021,0.146-0.054,0.197c-0.031,0.053-0.088,0.094-0.182,0.119
	c-0.084,0.024-0.338,0.044-0.752,0.057l-0.037,0.796c0,0,2.4-0.057,2.973,0l0.043-0.796C174.596,85.777,174.4,85.742,174.318,85.682
	z M169.123,81.735l1.406-4.949l1.371,4.949H169.123z"/>
<path fill="#49809B" d="M127.934,77.646c0.021-0.613,0.061-1.151,0.119-1.613c0.037-0.29,0.102-0.585,0.184-0.883
	c-0.098-0.035-0.35-0.124-0.756-0.287c-0.412-0.155-0.754-0.269-1.035-0.325c-0.291-0.054-0.598-0.085-0.934-0.085
	c-1.416,0-2.529,0.569-3.35,1.717c-0.818,1.146-1.225,2.585-1.225,4.329c0,0.695,0.059,1.326,0.18,1.911
	c0.125,0.566,0.303,1.105,0.533,1.596c0.229,0.494,0.523,0.939,0.889,1.338c0.369,0.395,0.801,0.697,1.285,0.907
	c0.494,0.215,1.016,0.327,1.59,0.327c0.484,0,0.93-0.079,1.342-0.227c0.418-0.143,0.836-0.374,1.271-0.7l0.209-0.762l-0.098-0.176
	c-0.289,0.308-0.58,0.535-0.867,0.679c-0.443,0.211-0.9,0.308-1.404,0.308c-1.115,0-2.02-0.503-2.697-1.508
	c-0.682-1.01-1.023-2.347-1.023-4.008c0.008-0.941,0.096-1.729,0.271-2.354c0.174-0.627,0.406-1.143,0.686-1.546
	c0.271-0.411,0.6-0.706,0.961-0.892c0.369-0.193,0.8-0.29,1.326-0.307c0.701,0,1.227,0.132,1.594,0.394
	c0.363,0.26,0.561,0.661,0.602,1.198v0.965h0.352v0.003L127.934,77.646L127.934,77.646z"/>
<path fill="#49809B" d="M134.031,74.752c-0.057-0.023-0.119-0.044-0.18-0.064l0.119,0.124L134.031,74.752z"/>
<path fill="#49809B" d="M112.908,75.175c-0.547-0.343-1.273-0.515-2.172-0.515c-0.305,0-0.729,0.011-1.271,0.032
	c-0.543,0.02-0.973,0.034-1.291,0.034c-0.41,0-0.883-0.017-1.418-0.047v0.517c0.371,0.009,0.629,0.047,0.748,0.122
	c0.059,0.037,0.092,0.088,0.117,0.16c0.037,0.111,0.066,0.385,0.08,0.84c0.02,0.721,0.031,1.354,0.031,1.887v3.35
	c0,0.435-0.018,1.216-0.039,2.342c-0.01,0.662-0.035,1.182-0.053,1.55c-0.143,0.149-0.322,0.312-0.531,0.492l-0.066,0.598
	c0.562-0.04,0.957-0.063,1.186-0.074c0.15,0.006,0.479,0.017,0.979,0.04c0.381,0.021,0.686,0.034,0.91,0.034
	c0.676,0,1.211-0.082,1.59-0.236c0.396-0.161,0.768-0.402,1.116-0.724c0.354-0.317,0.679-0.744,0.991-1.289
	c0.307-0.537,0.615-1.384,0.789-2.104c0.188-0.73,0.277-1.512,0.277-2.34c0-1.158-0.195-2.145-0.578-2.942
	C113.924,76.092,113.453,75.519,112.908,75.175z M113.5,82.302c-0.127,0.672-0.307,1.211-0.537,1.636
	c-0.236,0.432-0.484,0.747-0.736,0.973c-0.248,0.214-0.555,0.381-0.906,0.501c-0.357,0.128-0.762,0.188-1.221,0.188
	c-0.457,0.004-0.879-0.057-1.281-0.155c-0.02-0.607-0.033-1.107-0.033-1.492l-0.021-2.547v-0.54
	c0.418-0.025,0.744-0.036,0.969-0.036c0.605,0,1.018,0.034,1.223,0.096c0.121,0.043,0.203,0.11,0.238,0.207
	c0.039,0.102,0.066,0.355,0.07,0.76l0.021,0.553h0.383l-0.029-1.906l0.029-1.707v-0.149h-0.324l-0.029,0.567
	c-0.031,0.382-0.062,0.608-0.096,0.674c-0.027,0.066-0.109,0.109-0.225,0.126c-0.312,0.062-0.684,0.092-1.119,0.092
	c-0.342,0-0.707-0.014-1.111-0.04v-1.96l0.02-1.188c0.008-0.682,0.016-1.154,0.031-1.426c0.465-0.111,0.922-0.155,1.379-0.155
	c0.855,0,1.535,0.19,2.021,0.581c0.496,0.387,0.869,0.95,1.108,1.679c0.243,0.729,0.37,1.604,0.37,2.62
	C113.693,80.948,113.629,81.635,113.5,82.302z"/>
<path fill="#49809B" d="M124.324,13.465L98.984,0L73.646,13.465v40.688l21.873,11.371c0.119,1.778,1.657,3.252,3.466,3.252
	c1.794,0,3.324-1.441,3.463-3.205l21.877-11.124L124.324,13.465L124.324,13.465z M120.984,27.51
	c0.004,0.097,0.004,0.193,0.004,0.295l-4.504,2.53c-0.139-1.03-0.365-2.04-0.666-3.004l4.666-4.529
	C120.814,24.319,120.984,25.896,120.984,27.51z M120.977,27.938c-0.008,0.693-0.055,1.381-0.127,2.059
	C120.922,29.319,120.969,28.634,120.977,27.938z M116.217,36.577c0.213-0.952,0.354-1.932,0.402-2.935l3.854-1.415
	c-0.289,1.297-0.695,2.554-1.201,3.761L116.217,36.577z M117.896,38.714c-0.447,0.736-0.93,1.453-1.457,2.139l-1.855,0.124
	c0.326-0.619,0.619-1.257,0.871-1.915L117.896,38.714z M118.924,18.157l-4.463,5.991c-0.646-1.173-1.426-2.272-2.303-3.268
	l3.996-7.194C117.244,15.056,118.176,16.554,118.924,18.157z M108.586,31.931c-0.398-0.606-0.85-1.176-1.346-1.694l2.602-5.914
	l0.078-0.112c0.723,0.742,1.379,1.562,1.941,2.445L108.586,31.931z M109.102,41.059c0,0.021,0,0.044-0.006,0.068
	C109.102,41.103,109.102,41.08,109.102,41.059z M109.086,41.288c-0.012,0.135-0.02,0.26-0.039,0.392
	C109.066,41.548,109.074,41.423,109.086,41.288z M109.023,41.88c-0.023,0.148-0.051,0.298-0.078,0.442
	C108.973,42.177,109,42.028,109.023,41.88z M109.016,39.12c0,0.009,0,0.02,0.004,0.026C109.016,39.138,109.016,39.129,109.016,39.12
	z M108.938,38.646c0,0.006,0,0.01,0,0.016C108.938,38.656,108.938,38.652,108.938,38.646z M108.879,42.629
	c-0.002,0.032-0.016,0.062-0.016,0.088C108.863,42.688,108.877,42.661,108.879,42.629z M113.17,29.249l0.031-0.017
	c0.352,0.86,0.619,1.761,0.814,2.689l-0.117,0.073l-3.84,3.138c-0.164-0.553-0.371-1.085-0.604-1.603L113.17,29.249z
	 M110.445,40.393l3.146-0.72c-0.206,0.648-0.451,1.281-0.744,1.895l-2.854,0.812C110.197,41.74,110.354,41.077,110.445,40.393z
	 M110.566,38.808c0-0.048,0-0.098,0-0.146c0-0.598-0.047-1.18-0.121-1.752l3.736-2.017l0.146-0.069c0,0.069,0,0.145,0,0.216
	c0,0.771-0.061,1.528-0.178,2.272l-0.117,0.049L110.566,38.808z M107.596,7.13c1.68,0.726,3.258,1.653,4.695,2.759l-3.148,8.288
	c-1.115-0.798-2.324-1.466-3.604-1.983L107.596,7.13z M104.338,20.56l0.012-0.023c1.104,0.413,2.135,0.954,3.104,1.607l-0.072,0.152
	l-1.977,6.359c-0.732-0.504-1.516-0.925-2.346-1.245L104.338,20.56z M106.102,33.419c-0.004-0.001-0.008-0.009-0.016-0.009
	C106.094,33.41,106.098,33.418,106.102,33.419z M103.02,31.372l-0.008-0.004L103.02,31.372z M102.527,31.175
	c0-0.001-0.004-0.008-0.017-0.008C102.523,31.167,102.527,31.174,102.527,31.175z M98.984,5.358c0.979,0,1.934,0.065,2.874,0.192
	l-0.547,9.521c-0.762-0.101-1.536-0.161-2.321-0.161c-0.938,0-1.862,0.075-2.756,0.216L95.809,5.59
	C96.845,5.439,97.907,5.358,98.984,5.358z M95.567,31.128h-0.003H95.567z M93.192,20.706l1.3,6.805l0.018,0.064
	c-0.809,0.347-1.579,0.802-2.291,1.33l-0.038-0.089l-2.14-6.414c0.969-0.688,2.024-1.271,3.146-1.723L93.192,20.706z M90.977,34.405
	h-0.003H90.977z M90.001,45.088c-0.021-0.043-0.04-0.087-0.067-0.135C89.961,45.001,89.979,45.045,90.001,45.088z M89.923,36.052
	c0.024-0.039,0.04-0.083,0.062-0.129C89.963,35.969,89.947,36.01,89.923,36.052z M89.234,32.167l-0.241-0.312l-3.332-4.723
	c0.559-0.922,1.196-1.786,1.925-2.578l2.851,5.708l0.117,0.16C90.061,30.963,89.626,31.545,89.234,32.167z M89.801,44.698
	c-0.067-0.14-0.133-0.284-0.188-0.422C89.668,44.414,89.734,44.559,89.801,44.698z M89.502,44.008
	c-0.03-0.076-0.057-0.147-0.083-0.229C89.446,43.858,89.472,43.93,89.502,44.008z M89.321,43.495
	c-0.026-0.078-0.048-0.154-0.072-0.236C89.273,43.341,89.295,43.417,89.321,43.495z M89.062,38.496
	c0.028-0.146,0.06-0.297,0.1-0.437C89.122,38.199,89.09,38.35,89.062,38.496z M89.122,42.809c-0.021-0.1-0.042-0.188-0.06-0.282
	C89.08,42.623,89.102,42.711,89.122,42.809z M89.003,42.237c-0.016-0.079-0.031-0.165-0.038-0.245
	C88.972,42.072,88.988,42.158,89.003,42.237z M88.977,38.937c0.008-0.028,0.011-0.05,0.016-0.074
	C88.988,38.887,88.985,38.908,88.977,38.937z M82.476,39.096l0.05,0.013c0.518,1.312,1.185,2.553,1.986,3.688l-2.115-0.877
	c-0.824-0.945-1.576-1.968-2.233-3.044L82.476,39.096z M78.748,36.108c-0.517-1.199-0.933-2.456-1.227-3.757l3.656,1.386l0.18,0.101
	c0.066,1.067,0.229,2.104,0.481,3.109l-0.084-0.027L78.748,36.108z M87.105,36.777l0.405,0.248c-0.07,0.54-0.112,1.082-0.112,1.64
	c0,0.104,0.009,0.206,0.009,0.312l-0.302-0.167l-3.397-1.229c-0.141-0.827-0.218-1.675-0.218-2.542v-0.006L87.105,36.777z
	 M83.735,32.326c0.17-0.96,0.427-1.892,0.765-2.774l3.626,4.04l0.262,0.213c-0.217,0.51-0.403,1.044-0.55,1.584l-0.293-0.205
	L83.735,32.326z M84.202,39.613l3.053,0.93l0.325,0.216c0.237,1.396,0.703,2.706,1.366,3.891l-2.908-1.21
	C85.26,42.265,84.641,40.975,84.202,39.613z M88.923,41.697c-0.004-0.021-0.004-0.032-0.01-0.044v-0.007
	C88.914,41.667,88.919,41.677,88.923,41.697z M88.919,39.365v-0.006V39.365z M90.101,7.251l1.93,9.105
	c-1.343,0.583-2.602,1.331-3.748,2.211l-0.014-0.034l-2.931-8.378C86.788,8.998,88.387,8.017,90.101,7.251z M81.539,14.034
	l3.833,7.251l0.037,0.06c-0.797,0.965-1.492,2.018-2.07,3.135l-0.138-0.153l-4.281-5.884C79.624,16.868,80.503,15.387,81.539,14.034
	z M77.424,23.039l4.476,4.469l0.157,0.125c-0.305,1.034-0.526,2.109-0.637,3.217l-0.242-0.15l-4.189-2.705
	c-0.004-0.16-0.01-0.319-0.01-0.484C76.978,25.984,77.13,24.489,77.424,23.039z M98.695,65.012l-24.762-13.03v-11.15l3.044,1.448
	l2.749,1.449l4.778,2.604l4.052,2.169l1.739,1.015l1.734,0.873l2.315,1.155l1.017,0.579l1.451,1.157l0.432,0.437l0.436,0.579
	l0.29,0.577l0.436,1.015l0.141,0.438l0.149,0.578L98.695,65.012L98.695,65.012z M98.261,30.582c0.025-0.006,0.046-0.006,0.077-0.006
	C98.307,30.576,98.287,30.576,98.261,30.582z M97.246,26.778l-0.433-7.075c0.706-0.102,1.432-0.157,2.171-0.157
	c0.589,0,1.17,0.039,1.743,0.11l-0.01,0.033l-0.278,7.047c-0.476-0.059-0.965-0.096-1.455-0.096
	C98.391,26.64,97.813,26.682,97.246,26.778z M100.052,30.605h-0.006H100.052z M99.271,65.012v-8.108l0.146-0.578l0.142-0.438
	L100,54.876l0.284-0.58l0.434-0.579l0.441-0.437l0.721-0.58l0.722-0.576l1.017-0.58l2.174-1.154l1.877-0.872l1.742-1.016
	l4.051-2.168l4.783-2.604l2.739-1.451l2.902-1.446l0.143,11.149L99.271,65.012z"/>
<path fill="#49809B" d="M88.914,41.653c0.006,0.012,0.006,0.023,0.01,0.044c-0.004-0.021-0.01-0.03-0.01-0.051V41.653z"/>
<path fill="#49809B" d="M135.043,73.802l-0.451-0.483l-1.076,1.005l0.336,0.363c0.062,0.021,0.123,0.042,0.181,0.064L135.043,73.802
	z"/>
<g>
	<path fill="#49809B" d="M71.567,100.439c-0.042-0.255-0.172-1.27-1.579-1.27c-1.763,0-2.074,1.801-2.074,3.021
		c0,1.373,0.395,2.866,2.066,2.866c0.445,0,0.869-0.115,1.182-0.44c0.265-0.283,0.326-0.599,0.355-0.77h1.113
		c-0.152,1.44-1.479,2.029-2.732,2.029c-2.571,0-3.068-2.268-3.068-3.683c0-1.535,0.597-3.837,3.2-3.837
		c1.033,0,2.488,0.411,2.623,2.074h-1.086V100.439z"/>
	<path fill="#49809B" d="M75.86,100.564c2.034,0,2.49,1.596,2.49,2.662c0,1.482-0.839,2.721-2.569,2.721
		c-1.684,0-2.503-1.162-2.503-2.655C73.278,102.039,73.867,100.564,75.86,100.564z M75.801,105.235c0.717,0,1.538-0.517,1.538-2.041
		c0-1.268-0.589-1.938-1.481-1.938c-0.605,0-1.589,0.384-1.589,1.974C74.271,104.275,74.719,105.235,75.801,105.235z"/>
	<path fill="#49809B" d="M79.607,101.279l-0.008-0.588h0.952l0.008,0.815c0.11-0.208,0.476-0.922,1.628-0.922
		c0.457,0,1.844,0.175,1.844,1.733v3.45H83.06v-3.23c0-0.33-0.04-0.632-0.273-0.867c-0.245-0.231-0.578-0.341-0.902-0.341
		c-0.69,0-1.325,0.495-1.325,1.517v2.93h-0.952L79.607,101.279L79.607,101.279z"/>
	<path fill="#49809B" d="M86.045,104.268c-0.007,0.381,0.193,0.921,1.114,0.921c0.397,0,0.688-0.07,0.894-0.326
		c0.098-0.127,0.161-0.303,0.161-0.478c0-0.491-0.356-0.585-1.114-0.758c-1.063-0.242-1.952-0.452-1.952-1.519
		c0-0.937,0.81-1.539,1.985-1.539c0.637,0,1.527,0.183,1.831,0.792c0.133,0.281,0.133,0.521,0.133,0.73h-0.971
		c0.03-0.764-0.638-0.824-0.983-0.824c-0.14,0-1.031,0-1.031,0.725c0,0.465,0.456,0.577,0.717,0.647
		c1.408,0.337,1.711,0.418,2.017,0.699c0.285,0.266,0.385,0.62,0.385,0.94c0,0.568-0.315,1.053-0.691,1.286
		c-0.446,0.271-0.982,0.343-1.508,0.343c-1.034,0-1.994-0.424-1.984-1.646h1v0.004L86.045,104.268L86.045,104.268z"/>
	<path fill="#49809B" d="M90.876,103.405c-0.021,1.054,0.416,1.83,1.458,1.83c0.616,0,1.113-0.32,1.194-1.05h0.951
		c-0.028,0.252-0.069,0.667-0.435,1.062c-0.222,0.252-0.729,0.678-1.752,0.678c-1.602,0-2.357-0.992-2.357-2.604
		c0-1.003,0.203-1.829,1.003-2.387c0.484-0.348,1.093-0.375,1.385-0.375c2.276,0,2.227,2.014,2.207,2.847h-3.655L90.876,103.405
		L90.876,103.405z M93.556,102.734c0.013-0.484-0.08-1.496-1.253-1.496c-0.62,0-1.366,0.374-1.387,1.496H93.556z"/>
	<path fill="#49809B" d="M94.762,107.048c0.751,0.031,0.935-0.101,0.935-0.908v-5.446h0.952v5.558c0,0.487-0.024,1.521-1.295,1.521
		c-0.124,0-0.324-0.013-0.592-0.039V107.048L94.762,107.048z M95.603,98.485h1.155v1.054h-1.155V98.485z"/>
	<path fill="#49809B" d="M100.421,100.564c2.036,0,2.489,1.596,2.489,2.662c0,1.482-0.838,2.721-2.568,2.721
		c-1.683,0-2.503-1.162-2.503-2.655C97.842,102.039,98.428,100.564,100.421,100.564z M100.363,105.235
		c0.719,0,1.538-0.517,1.538-2.041c0-1.268-0.586-1.938-1.479-1.938c-0.608,0-1.589,0.384-1.589,1.974
		C98.833,104.275,99.281,105.235,100.363,105.235z"/>
	<path fill="#49809B" d="M107.42,103.638c0.018,0.507,0.08,1.447,1.762,1.447c1.517,0,1.711-0.943,1.711-1.307
		c0-0.817-0.66-0.979-1.68-1.236c-1.117-0.271-1.611-0.391-1.988-0.646c-0.6-0.403-0.758-0.949-0.758-1.438
		c0-1.483,1.406-2.136,2.781-2.136c0.48,0,1.465,0.08,2.051,0.72c0.406,0.447,0.43,0.943,0.449,1.246h-1.051
		c-0.047-0.91-0.818-1.117-1.539-1.117c-1.012,0-1.615,0.456-1.615,1.188c0,0.646,0.422,0.871,1.314,1.082
		c1.74,0.45,1.934,0.488,2.357,0.771c0.678,0.444,0.727,1.15,0.727,1.454c0,1.293-1.018,2.273-2.883,2.273
		c-0.557,0-1.693-0.089-2.271-0.825c-0.414-0.537-0.422-1.122-0.422-1.479L107.42,103.638L107.42,103.638z"/>
	<path fill="#49809B" d="M115.182,100.564c2.031,0,2.492,1.596,2.492,2.662c0,1.482-0.84,2.721-2.57,2.721
		c-1.68,0-2.504-1.162-2.504-2.655C112.6,102.039,113.189,100.564,115.182,100.564z M115.125,105.235
		c0.715,0,1.537-0.517,1.537-2.041c0-1.268-0.59-1.938-1.48-1.938c-0.604,0-1.588,0.384-1.588,1.974
		C113.594,104.275,114.043,105.235,115.125,105.235z"/>
	<path fill="#49809B" d="M121.793,102.32c-0.018-0.233-0.088-1.062-1.01-1.062c-1.314,0-1.314,1.531-1.314,1.917
		c0,1.04,0.252,2.017,1.264,2.017c0.812,0,1.086-0.608,1.105-1.104h0.959c-0.061,0.993-0.797,1.824-2.053,1.824
		c-0.342,0-1.137-0.072-1.672-0.659c-0.301-0.354-0.607-0.892-0.607-1.94c0-2.113,1.295-2.746,2.307-2.746
		c0.336,0,1.1,0.068,1.559,0.629c0.373,0.434,0.402,0.85,0.424,1.13h-0.96L121.793,102.32L121.793,102.32z"/>
	<path fill="#49809B" d="M123.607,98.485h1.145v1.039h-1.145V98.485z M123.709,100.691h0.953v5.083h-0.953V100.691z"/>
	<path fill="#49809B" d="M129.348,105.776c-0.067-0.255-0.088-0.496-0.088-0.761c-0.459,0.843-1.148,0.925-1.57,0.925
		c-1.166,0-1.795-0.66-1.795-1.503c0-0.404,0.146-1.053,0.893-1.485c0.547-0.303,1.355-0.336,1.764-0.336
		c0.246,0,0.396,0.01,0.688,0.033c0-0.628,0-0.902-0.185-1.122c-0.188-0.254-0.606-0.333-0.88-0.333
		c-0.956,0-1.012,0.654-1.022,0.858h-0.948c0.03-0.266,0.06-0.616,0.354-0.959c0.383-0.427,1.104-0.547,1.639-0.547
		c0.74,0,1.531,0.232,1.804,0.749c0.162,0.307,0.17,0.545,0.17,0.782l-0.039,2.431c0,0.08,0.013,0.761,0.082,1.278h-0.862v-0.013
		L129.348,105.776L129.348,105.776z M128.689,103.275c-0.383,0-1.834,0-1.834,1.032c0,0.319,0.205,0.881,1.055,0.881
		c0.484,0,0.854-0.194,1.082-0.547c0.213-0.343,0.225-0.624,0.244-1.334C129.064,103.283,128.922,103.275,128.689,103.275z"/>
	<path fill="#49809B" d="M131.635,98.477h0.949v7.3h-0.949V98.477z"/>
</g>
</svg>
