<?xml version="1.0" encoding="utf-8"?>
<!-- Generator: Adobe Illustrator 16.0.0, SVG Export Plug-In . SVG Version: 6.00 Build 0)  -->
<!DOCTYPE svg PUBLIC "-//W3C//DTD SVG 1.1//EN" "http://www.w3.org/Graphics/SVG/1.1/DTD/svg11.dtd">
<svg version="1.1" id="Capa_1" xmlns="http://www.w3.org/2000/svg" xmlns:xlink="http://www.w3.org/1999/xlink" x="0px" y="0px"
	 width="228.711px" height="63.97px" viewBox="0 0 228.711 63.97" enable-background="new 0 0 228.711 63.97" xml:space="preserve">
<g>
	<g>
		<path fill="#B1804A" d="M57.448,17.672c-1.262-3.087-3.038-5.755-5.327-7.999c-2.291-2.244-5.05-4.002-8.276-5.274
			c-3.229-1.272-6.81-1.908-10.743-1.908H13.461L0,0l1.66,4.149l11.801,9.023v30.859L0,50.563l1.66,2.49h11.801h19.641
			c3.934,0,7.515-0.63,10.743-1.892c3.227-1.261,5.985-3.019,8.276-5.274c2.289-2.256,4.065-4.928,5.327-8.018
			c1.259-3.088,1.892-6.459,1.892-10.115C59.34,24.123,58.707,20.763,57.448,17.672z M46.36,34.556
			c-0.649,2.014-1.579,3.72-2.793,5.119c-1.216,1.401-2.704,2.477-4.46,3.227c-1.759,0.754-3.762,1.131-6.006,1.131H25.26v-32.52
			h7.842c2.244,0,4.247,0.377,6.006,1.128c1.756,0.752,3.244,1.827,4.46,3.228c1.214,1.399,2.144,3.105,2.793,5.119
			c0.646,2.014,0.971,4.27,0.971,6.768C47.331,30.276,47.007,32.544,46.36,34.556z"/>
		<path fill="#B1804A" d="M72.861,2.49c1.458,0,2.792,0.226,4.001,0.679c1.211,0.453,2.252,1.111,3.122,1.975
			s1.549,1.924,2.04,3.175c0.488,1.252,0.732,2.671,0.732,4.257c0,0.496-0.022,0.898-0.065,1.211
			c-0.041,0.312-0.12,0.561-0.233,0.742c-0.113,0.186-0.266,0.312-0.455,0.383c-0.191,0.07-0.437,0.105-0.732,0.105H68.572
			c0.212,1.842,0.771,3.174,1.678,4.004c0.904,0.826,2.073,1.242,3.503,1.242c0.764,0,1.424-0.093,1.974-0.277
			c0.554-0.184,1.045-0.388,1.477-0.615c0.433-0.226,0.828-0.432,1.189-0.615s0.74-0.275,1.135-0.275
			c0.525,0,1.172,0.059,1.441,0.439l1.659,2.49c-0.679,0.778-1.411,1.412-2.198,1.9c-0.784,0.488-1.592,0.871-2.419,1.146
			c-0.829,0.275-1.657,0.467-2.484,0.573c-0.828,0.105-1.618,0.159-2.368,0.159c-1.544,0-2.991-0.25-4.344-0.754
			c-1.352-0.502-2.533-1.249-3.545-2.239c-1.013-0.991-1.812-2.224-2.398-3.696c-0.588-1.471-0.883-3.186-0.883-5.137
			c0-1.473,0.252-2.867,0.754-4.185c0.503-1.315,1.225-2.468,2.166-3.46c0.941-0.991,2.082-1.777,3.42-2.357
			C69.665,2.779,71.178,2.49,72.861,2.49z M72.988,7.032c-1.26,0-2.243,0.359-2.952,1.074c-0.707,0.713-1.174,1.744-1.401,3.089
			h8.218c0-0.523-0.068-1.032-0.201-1.528c-0.134-0.495-0.354-0.938-0.659-1.328c-0.304-0.389-0.703-0.703-1.198-0.945
			C74.298,7.154,73.695,7.032,72.988,7.032z"/>
		<path fill="#B1804A" d="M97.875,24.849h-5.988l-1.66-2.49L83.351,2.829h5.478c0.467,0,0.859,0.109,1.18,0.328
			c0.316,0.221,0.533,0.493,0.646,0.818l3.057,9.875c0.242,0.806,0.473,1.592,0.691,2.355c0.219,0.766,0.406,1.529,0.562,2.293
			c0.154-0.764,0.348-1.527,0.574-2.293c0.225-0.764,0.467-1.55,0.721-2.355l3.186-9.875c0.113-0.325,0.326-0.598,0.637-0.818
			c0.312-0.219,0.68-0.328,1.103-0.328h5.225L97.875,24.849z"/>
		<path fill="#B1804A" d="M69.59,30.603v13.971c0,1.092,0.248,1.933,0.744,2.529c0.495,0.592,1.224,0.89,2.187,0.89
			c0.722,0,1.397-0.149,2.028-0.446s1.242-0.715,1.837-1.252V30.603l4.922-2.49l1.66,2.49V52.62h-4.076
			c-0.821,0-1.359-0.367-1.614-1.104l-0.403-1.273c-0.425,0.41-0.864,0.781-1.317,1.114c-0.451,0.333-0.937,0.616-1.453,0.85
			c-0.518,0.232-1.073,0.417-1.667,0.552c-0.595,0.135-1.247,0.202-1.953,0.202c-1.204,0-2.27-0.21-3.197-0.627
			c-0.927-0.417-1.708-1.001-2.346-1.751c-0.637-0.75-1.118-1.635-1.444-2.654s-0.488-2.137-0.488-3.355V30.603l4.922-2.49
			L69.59,30.603z"/>
		<path fill="#B1804A" d="M147.104,30.261c1.457,0,2.791,0.228,4.002,0.68c1.211,0.454,2.25,1.111,3.123,1.977
			c0.869,0.863,1.549,1.92,2.037,3.172c0.488,1.256,0.732,2.674,0.732,4.26c0,0.495-0.021,0.898-0.064,1.211
			c-0.041,0.311-0.121,0.559-0.234,0.742c-0.111,0.184-0.264,0.312-0.455,0.383c-0.191,0.068-0.436,0.105-0.732,0.105h-12.699
			c0.213,1.84,0.773,3.174,1.68,4.002s2.072,1.243,3.502,1.243c0.766,0,1.424-0.092,1.975-0.276
			c0.553-0.185,1.045-0.391,1.475-0.617c0.434-0.225,0.83-0.432,1.193-0.615c0.359-0.183,0.736-0.275,1.133-0.275
			c0.523,0,1.172,0.059,1.439,0.439l1.66,2.492c-0.678,0.777-1.41,1.41-2.197,1.898c-0.785,0.488-1.592,0.871-2.418,1.146
			c-0.83,0.277-1.658,0.468-2.486,0.574c-0.83,0.104-1.617,0.159-2.369,0.159c-1.543,0-2.988-0.251-4.34-0.754
			c-1.352-0.502-2.535-1.249-3.547-2.24c-1.012-0.99-1.811-2.222-2.398-3.694s-0.881-3.186-0.881-5.139
			c0-1.473,0.25-2.867,0.752-4.183c0.502-1.317,1.225-2.471,2.168-3.462c0.939-0.991,2.08-1.777,3.418-2.357
			S145.42,30.261,147.104,30.261z M147.23,34.807c-1.26,0-2.244,0.357-2.949,1.07c-0.709,0.716-1.178,1.747-1.404,3.091h8.217
			c0-0.523-0.066-1.033-0.201-1.528s-0.354-0.938-0.658-1.327c-0.305-0.39-0.703-0.704-1.199-0.945
			C148.539,34.927,147.939,34.807,147.23,34.807z"/>
		<path fill="#B1804A" d="M170.588,30.261c1.668,0,3.191,0.264,4.564,0.786c1.373,0.523,2.551,1.274,3.535,2.251
			c0.982,0.977,1.748,2.164,2.293,3.557c0.545,1.395,0.818,2.963,0.818,4.705c0,1.754-0.273,3.335-0.818,4.744
			s-1.311,2.604-2.293,3.59c-0.984,0.982-2.162,1.741-3.535,2.27c-1.373,0.532-2.896,0.798-4.564,0.798
			c-1.686,0-3.217-0.266-4.6-0.798c-1.379-0.528-2.566-1.287-3.564-2.27c-0.998-0.985-1.771-2.181-2.316-3.59
			s-0.816-2.99-0.816-4.744c0-1.742,0.271-3.311,0.816-4.705c0.545-1.393,1.318-2.58,2.316-3.557s2.186-1.728,3.564-2.251
			C167.371,30.524,168.902,30.261,170.588,30.261z M170.588,48.076c1.514,0,2.629-0.534,3.344-1.603
			c0.713-1.068,1.072-2.693,1.072-4.873s-0.359-3.8-1.072-4.863c-0.715-1.061-1.83-1.592-3.344-1.592
			c-1.557,0-2.697,0.531-3.42,1.592c-0.721,1.063-1.082,2.684-1.082,4.863s0.361,3.805,1.082,4.873
			C167.891,47.542,169.031,48.076,170.588,48.076z"/>
		<path fill="#B1804A" d="M122.654,30.261c1.668,0,3.191,0.264,4.564,0.786c1.373,0.523,2.553,1.274,3.535,2.251
			c0.984,0.977,1.748,2.164,2.293,3.557c0.545,1.395,0.818,2.963,0.818,4.705c0,1.754-0.273,3.335-0.818,4.744
			s-1.309,2.604-2.293,3.59c-0.982,0.982-2.162,1.741-3.535,2.27c-1.373,0.532-2.896,0.798-4.564,0.798
			c-1.686,0-3.219-0.266-4.598-0.798c-1.379-0.528-2.57-1.287-3.566-2.27c-0.998-0.985-1.771-2.181-2.316-3.59
			s-0.816-2.99-0.816-4.744c0-1.742,0.271-3.311,0.816-4.705c0.545-1.393,1.318-2.58,2.316-3.557
			c0.996-0.977,2.188-1.728,3.566-2.251C119.436,30.524,120.969,30.261,122.654,30.261z M122.654,48.076
			c1.514,0,2.629-0.534,3.344-1.603s1.072-2.693,1.072-4.873s-0.357-3.8-1.072-4.863c-0.715-1.061-1.83-1.592-3.344-1.592
			c-1.559,0-2.697,0.531-3.42,1.592c-0.721,1.063-1.082,2.684-1.082,4.863s0.361,3.805,1.082,4.873
			C119.957,47.542,121.096,48.076,122.654,48.076z"/>
		<g>
			<g>
				<polygon fill="#B1804A" points="89.961,6.606 91.405,6.606 93.842,2.839 92.182,0.349 88.579,2.839 				"/>
			</g>
			<g>
				<polygon fill="#B1804A" points="103.475,6.606 104.916,6.606 108.045,2.839 106.385,0.349 103.475,2.839 				"/>
				<polygon fill="#B1804A" points="100.036,6.606 98.594,6.606 96.157,2.839 101.42,2.839 				"/>
			</g>
		</g>
		<g>
			<path fill="#B1804A" d="M88.065,52.62V30.603h4.076c0.41,0,0.754,0.092,1.029,0.275c0.275,0.186,0.471,0.46,0.584,0.828
				l0.383,1.273c0.424-0.395,0.863-0.763,1.316-1.104s0.936-0.627,1.453-0.859c0.518-0.234,1.076-0.419,1.68-0.552
				c0.6-0.136,1.256-0.204,1.963-0.204c1.203,0,2.267,0.209,3.195,0.627s1.709,0.998,2.346,1.742
				c0.639,0.742,1.119,1.627,1.445,2.654c0.326,1.025,0.488,2.141,0.488,3.343V52.62h-6.582V38.627c0-1.073-0.248-1.913-0.744-2.515
				c-0.496-0.604-1.225-0.902-2.188-0.902c-0.723,0-1.4,0.156-2.037,0.467s-1.248,0.729-1.828,1.253v15.69H88.065z"/>
			<g>
				<g>
					<polygon fill="#B1804A" points="89.495,48.854 83.266,50.13 84.926,52.62 89.495,52.62 					"/>
					<polygon fill="#B1804A" points="93.198,48.854 94.637,48.854 97.075,52.62 91.811,52.62 					"/>
				</g>
				<g>
					<polygon fill="#B1804A" points="106.561,48.854 109.475,50.13 111.135,52.62 106.561,52.62 					"/>
					<polygon fill="#B1804A" points="102.893,48.854 97.354,50.13 99.014,52.62 104.277,52.62 					"/>
				</g>
			</g>
		</g>
		<g>
			<path fill="#B1804A" d="M184.938,52.62V30.603h4.078c0.408,0,0.754,0.092,1.027,0.275c0.277,0.186,0.471,0.46,0.584,0.828
				l0.383,1.273c0.424-0.395,0.863-0.763,1.316-1.104s0.938-0.627,1.455-0.859c0.518-0.234,1.076-0.419,1.678-0.552
				c0.602-0.136,1.256-0.204,1.963-0.204c1.205,0,2.27,0.209,3.197,0.627c0.926,0.418,1.707,0.998,2.346,1.742
				c0.639,0.742,1.119,1.627,1.443,2.654c0.326,1.025,0.488,2.141,0.488,3.343V52.62h-6.582V38.627c0-1.073-0.248-1.913-0.744-2.515
				c-0.494-0.604-1.225-0.902-2.188-0.902c-0.721,0-1.402,0.156-2.037,0.467c-0.637,0.311-1.246,0.729-1.826,1.253v15.69H184.938z"
				/>
			<g>
				<g>
					<polygon fill="#B1804A" points="186.369,48.854 180.139,50.13 181.799,52.62 186.369,52.62 					"/>
					<polygon fill="#B1804A" points="190.068,48.854 191.51,48.854 193.947,52.62 188.684,52.62 					"/>
				</g>
				<g>
					<polygon fill="#B1804A" points="203.436,48.854 206.348,50.13 208.008,52.62 203.436,52.62 					"/>
					<polygon fill="#B1804A" points="199.766,48.854 194.229,50.13 195.887,52.62 201.152,52.62 					"/>
				</g>
			</g>
		</g>
		<g>
			<path fill="#B1804A" d="M122.633,7.65c-0.17,0.269-0.352,0.459-0.543,0.572c-0.189,0.114-0.436,0.169-0.732,0.169
				c-0.311,0-0.623-0.066-0.936-0.201c-0.311-0.135-0.645-0.279-1.008-0.436c-0.361-0.154-0.768-0.3-1.221-0.435
				c-0.453-0.134-0.969-0.202-1.549-0.202c-0.836,0-1.477,0.16-1.922,0.479c-0.445,0.319-0.67,0.762-0.67,1.326
				c0,0.412,0.146,0.751,0.436,1.02c0.291,0.269,0.676,0.507,1.158,0.713c0.48,0.204,1.025,0.399,1.635,0.582
				c0.607,0.184,1.23,0.39,1.867,0.617c0.637,0.227,1.26,0.491,1.869,0.795c0.609,0.306,1.154,0.681,1.635,1.125
				c0.48,0.447,0.867,0.987,1.158,1.625c0.289,0.637,0.436,1.4,0.436,2.293c0,1.091-0.201,2.096-0.596,3.017
				c-0.395,0.92-0.988,1.712-1.773,2.376c-0.785,0.666-1.754,1.184-2.908,1.551c-1.154,0.369-2.48,0.553-3.98,0.553
				c-0.75,0-1.5-0.072-2.252-0.214c-0.75-0.141-1.475-0.331-2.174-0.572c-0.701-0.241-1.35-0.528-1.945-0.86
				c-0.594-0.332-1.104-0.688-1.529-1.072l1.529-2.42c0.184-0.283,0.404-0.506,0.658-0.67c0.256-0.162,0.586-0.244,0.998-0.244
				c0.383,0,0.725,0.087,1.031,0.256c0.305,0.17,0.633,0.354,0.986,0.553c0.354,0.198,0.768,0.382,1.242,0.551
				c0.475,0.171,1.072,0.255,1.793,0.255c0.512,0,0.941-0.052,1.297-0.16c0.354-0.105,0.635-0.25,0.848-0.434
				c0.213-0.185,0.369-0.39,0.469-0.616s0.148-0.461,0.148-0.701c0-0.438-0.148-0.799-0.447-1.083
				c-0.297-0.282-0.686-0.526-1.166-0.731c-0.48-0.207-1.031-0.397-1.646-0.574c-0.615-0.176-1.242-0.379-1.879-0.604
				c-0.637-0.228-1.264-0.5-1.879-0.819c-0.617-0.319-1.164-0.722-1.645-1.21c-0.482-0.487-0.871-1.086-1.168-1.795
				c-0.299-0.707-0.447-1.562-0.447-2.568c0-0.934,0.182-1.822,0.541-2.664c0.361-0.843,0.902-1.582,1.625-2.219
				c0.723-0.639,1.627-1.144,2.717-1.52c1.09-0.375,2.365-0.562,3.822-0.562c0.793,0,1.561,0.07,2.305,0.211
				c0.742,0.142,1.439,0.341,2.09,0.594c0.652,0.257,1.248,0.557,1.785,0.903c0.537,0.348,1.012,0.727,1.422,1.137L122.633,7.65z"/>
			<g>
				<polygon fill="#B1804A" points="112.158,21.497 112.936,20.283 111.143,14.659 109.791,13.126 				"/>
				<polygon fill="#B1804A" points="111.143,23.095 110.365,24.308 105.879,24.33 104.219,21.839 108.717,19.896 				"/>
			</g>
			<g>
				<polygon fill="#B1804A" points="119.168,6.097 118.217,9.487 119.877,11.978 122.611,7.698 				"/>
				<polygon fill="#B1804A" points="120.188,4.499 123.791,0.774 125.451,3.266 122.611,7.698 				"/>
			</g>
		</g>
		<g>
			<path fill="#B1804A" d="M225.893,35.593c-0.17,0.268-0.35,0.459-0.541,0.572s-0.438,0.17-0.732,0.17
				c-0.312,0-0.623-0.067-0.934-0.202c-0.312-0.134-0.648-0.279-1.012-0.435c-0.359-0.156-0.766-0.301-1.221-0.436
				c-0.451-0.135-0.969-0.201-1.549-0.201c-0.836,0-1.475,0.159-1.92,0.477c-0.447,0.32-0.67,0.762-0.67,1.327
				c0,0.411,0.145,0.751,0.436,1.02c0.289,0.268,0.674,0.507,1.156,0.712c0.48,0.204,1.027,0.399,1.635,0.584
				c0.609,0.184,1.232,0.389,1.871,0.615c0.637,0.229,1.258,0.492,1.865,0.797c0.609,0.305,1.154,0.68,1.637,1.125
				c0.48,0.446,0.867,0.986,1.156,1.623c0.291,0.638,0.436,1.402,0.436,2.295c0,1.09-0.197,2.096-0.594,3.016
				c-0.396,0.919-0.988,1.713-1.773,2.377c-0.785,0.666-1.756,1.182-2.908,1.551c-1.156,0.367-2.482,0.552-3.98,0.552
				c-0.754,0-1.502-0.071-2.252-0.214c-0.752-0.141-1.477-0.331-2.178-0.572s-1.348-0.527-1.941-0.859
				c-0.596-0.332-1.105-0.689-1.529-1.072l1.529-2.421c0.184-0.284,0.402-0.507,0.658-0.67c0.254-0.161,0.586-0.243,0.996-0.243
				c0.385,0,0.727,0.086,1.031,0.254c0.303,0.17,0.633,0.355,0.988,0.554c0.352,0.197,0.766,0.382,1.242,0.55
				c0.471,0.171,1.07,0.256,1.793,0.256c0.51,0,0.941-0.053,1.295-0.16c0.354-0.105,0.639-0.25,0.85-0.434
				c0.213-0.184,0.369-0.391,0.467-0.616c0.1-0.226,0.148-0.46,0.148-0.7c0-0.438-0.148-0.8-0.443-1.085
				c-0.299-0.282-0.688-0.525-1.17-0.729c-0.482-0.208-1.029-0.398-1.646-0.576c-0.615-0.176-1.24-0.378-1.877-0.604
				c-0.639-0.227-1.264-0.499-1.879-0.818c-0.617-0.318-1.166-0.721-1.646-1.211c-0.48-0.486-0.871-1.084-1.168-1.793
				c-0.297-0.707-0.445-1.563-0.445-2.569c0-0.934,0.18-1.822,0.539-2.665c0.363-0.842,0.904-1.582,1.625-2.219
				c0.725-0.637,1.627-1.143,2.719-1.518c1.09-0.375,2.363-0.563,3.82-0.563c0.795,0,1.562,0.07,2.307,0.212
				c0.742,0.143,1.439,0.342,2.09,0.594c0.652,0.256,1.246,0.557,1.783,0.903c0.539,0.347,1.014,0.727,1.424,1.136L225.893,35.593z"
				/>
			<g>
				<polygon fill="#B1804A" points="215.42,49.438 216.197,48.226 214.711,43.558 213.053,41.068 				"/>
				<polygon fill="#B1804A" points="214.402,51.038 213.627,52.25 209.139,52.272 207.479,49.782 211.979,47.838 				"/>
			</g>
			<g>
				<polygon fill="#B1804A" points="222.428,34.039 221.477,37.431 223.137,39.921 225.871,35.64 				"/>
				<polygon fill="#B1804A" points="223.447,32.442 227.051,28.718 228.711,31.207 225.871,35.64 				"/>
			</g>
		</g>
		<path fill="#B1804A" d="M133.047,47.865c-0.545-1.395-1.309-2.581-2.293-3.558c-0.195-0.193-0.406-0.373-0.615-0.549l-3.281,6.297
			l0,0c0.139,0.744,0.213,1.592,0.213,2.555c0,2.18-0.357,3.805-1.072,4.873s-1.83,1.604-3.344,1.604
			c-1.559,0-2.697-0.535-3.42-1.604c-0.4-0.594-2.684-1.146-2.863-2.085l-4.139,2.046c0.541,1.35,1.293,2.505,2.258,3.457
			c0.996,0.984,2.188,1.742,3.566,2.271c1.379,0.531,2.912,0.797,4.598,0.797c1.668,0,3.191-0.266,4.564-0.797
			c1.373-0.529,2.553-1.287,3.535-2.271c0.984-0.984,1.748-2.18,2.293-3.588s0.818-2.99,0.818-4.746
			C133.865,50.827,133.592,49.259,133.047,47.865z"/>
		<rect x="127.062" y="41.56" fill="#B1804A" width="6.803" height="11.571"/>
		<g>
			<path fill="#B1804A" d="M39.246,35.616c-1.799,1.455-3.883,2.184-6.247,2.184c-2.366,0-4.31-0.604-5.829-1.814
				c-1.521-1.209-2.28-2.863-2.28-4.962c0-2.354,1.573-4.442,4.721-6.263c-0.706-0.855-1.22-1.61-1.542-2.264
				c-0.32-0.654-0.48-1.419-0.48-2.297c0-1.82,0.658-3.211,1.974-4.175c1.317-0.964,2.875-1.445,4.674-1.445
				c1.798,0,3.335,0.466,4.608,1.396c1.274,0.931,1.911,2.232,1.911,3.902c0,2.099-1.532,4.047-4.593,5.845
				c1.199,1.5,2.098,2.58,2.697,3.244c0.535-0.984,0.943-2.023,1.221-3.115l3.759,2.697c-0.493,1.35-1.094,2.602-1.8,3.759
				l3.18,3.147l-3.18,3.018L39.246,35.616z M30.606,33.046c0.621,0.494,1.423,0.74,2.408,0.74c0.984,0,2.045-0.472,3.179-1.414
				c-1.562-1.648-2.91-3.147-4.046-4.496c-1.649,1.027-2.474,2.131-2.474,3.309C29.674,31.935,29.985,32.555,30.606,33.046z
				 M34.235,18.369c-0.472,0-0.895,0.167-1.269,0.498c-0.375,0.333-0.562,0.782-0.562,1.349c0,0.568,0.428,1.387,1.284,2.457
				c1.605-0.855,2.409-1.658,2.409-2.408c0-0.621-0.193-1.092-0.579-1.413C35.135,18.53,34.705,18.369,34.235,18.369z"/>
		</g>
	</g>
	<g>
		<path fill="#F9B334" d="M55.788,15.183c-1.262-3.088-3.037-5.756-5.326-8c-2.292-2.244-5.051-4.001-8.277-5.275
			C38.956,0.636,35.375,0,31.442,0H11.801H0l11.801,9.023V41.54L0,50.563h11.801h19.642c3.933,0,7.514-0.63,10.742-1.891
			c3.227-1.262,5.985-3.02,8.277-5.275c2.289-2.256,4.064-4.928,5.326-8.018c1.259-3.088,1.892-6.459,1.892-10.115
			C57.68,21.632,57.047,18.272,55.788,15.183z M44.7,32.065c-0.649,2.014-1.579,3.72-2.793,5.119
			c-1.216,1.402-2.703,2.477-4.46,3.228c-1.759,0.751-3.762,1.128-6.005,1.128H23.6V9.023h7.843c2.243,0,4.246,0.376,6.005,1.128
			c1.757,0.751,3.244,1.827,4.46,3.227c1.214,1.399,2.144,3.105,2.793,5.119c0.646,2.014,0.972,4.268,0.972,6.768
			C45.672,27.786,45.347,30.055,44.7,32.065z"/>
		<path fill="#F9B334" d="M71.201,0c1.458,0,2.792,0.226,4.002,0.679s2.251,1.111,3.122,1.975c0.869,0.864,1.549,1.922,2.039,3.176
			c0.488,1.252,0.732,2.671,0.732,4.256c0,0.496-0.022,0.898-0.065,1.211c-0.041,0.312-0.12,0.561-0.233,0.743
			c-0.113,0.185-0.266,0.312-0.455,0.382c-0.19,0.071-0.437,0.106-0.732,0.106H66.912c0.212,1.841,0.771,3.173,1.678,4.003
			c0.905,0.828,2.073,1.242,3.503,1.242c0.764,0,1.424-0.093,1.975-0.277c0.553-0.184,1.044-0.388,1.476-0.615
			c0.433-0.226,0.828-0.432,1.19-0.615c0.36-0.184,0.739-0.275,1.134-0.275c0.525,0,0.921,0.19,1.19,0.572l1.911,2.357
			c-0.68,0.778-1.412,1.412-2.199,1.9c-0.784,0.489-1.592,0.869-2.419,1.146c-0.829,0.275-1.657,0.467-2.484,0.572
			c-0.828,0.107-1.618,0.159-2.368,0.159c-1.543,0-2.991-0.249-4.344-0.754c-1.351-0.501-2.533-1.248-3.545-2.238
			c-1.012-0.991-1.812-2.222-2.398-3.696c-0.587-1.471-0.883-3.186-0.883-5.139c0-1.471,0.252-2.865,0.754-4.183
			c0.504-1.314,1.225-2.468,2.167-3.46c0.94-0.99,2.081-1.776,3.419-2.357C68.005,0.29,69.518,0,71.201,0z M71.328,4.543
			c-1.26,0-2.243,0.358-2.951,1.073c-0.708,0.714-1.175,1.744-1.401,3.089h8.217c0-0.522-0.068-1.032-0.201-1.528
			c-0.134-0.496-0.354-0.938-0.658-1.328c-0.305-0.389-0.704-0.703-1.199-0.945C72.638,4.665,72.036,4.543,71.328,4.543z"/>
		<path fill="#F9B334" d="M96.215,22.358h-5.988L81.69,0.339h5.478c0.467,0,0.859,0.111,1.18,0.328
			c0.316,0.221,0.533,0.494,0.646,0.819l3.059,9.874c0.24,0.806,0.471,1.593,0.689,2.355c0.219,0.766,0.406,1.529,0.562,2.293
			c0.154-0.764,0.348-1.527,0.574-2.293c0.225-0.763,0.467-1.55,0.721-2.355l3.186-9.874c0.113-0.325,0.326-0.599,0.637-0.819
			c0.312-0.217,0.68-0.328,1.105-0.328h5.222L96.215,22.358z"/>
		<path fill="#F9B334" d="M67.93,28.112v13.971c0,1.092,0.248,1.934,0.744,2.529c0.495,0.592,1.225,0.89,2.187,0.89
			c0.723,0,1.397-0.148,2.028-0.446c0.631-0.297,1.242-0.715,1.837-1.252V28.112h6.582V50.13h-4.076
			c-0.821,0-1.36-0.367-1.614-1.104l-0.403-1.272c-0.425,0.409-0.864,0.78-1.317,1.114c-0.451,0.332-0.937,0.615-1.453,0.849
			c-0.518,0.233-1.073,0.417-1.667,0.554c-0.595,0.133-1.246,0.199-1.952,0.199c-1.205,0-2.271-0.209-3.197-0.625
			c-0.927-0.418-1.709-1.001-2.347-1.752c-0.637-0.75-1.118-1.635-1.444-2.654c-0.325-1.019-0.488-2.137-0.488-3.355V28.112H67.93z"
			/>
		<path fill="#F9B334" d="M145.443,27.771c1.457,0,2.791,0.228,4.002,0.681c1.211,0.451,2.25,1.109,3.123,1.975
			c0.871,0.863,1.549,1.92,2.037,3.173c0.488,1.255,0.732,2.673,0.732,4.259c0,0.495-0.021,0.898-0.064,1.211
			c-0.041,0.311-0.121,0.559-0.234,0.74c-0.111,0.186-0.264,0.314-0.455,0.385s-0.436,0.106-0.732,0.106h-12.697
			c0.211,1.839,0.771,3.173,1.678,4.001c0.906,0.829,2.072,1.244,3.502,1.244c0.766,0,1.424-0.093,1.975-0.276
			c0.553-0.185,1.045-0.391,1.475-0.618c0.434-0.225,0.83-0.432,1.193-0.615c0.359-0.184,0.738-0.275,1.133-0.275
			c0.523,0,0.92,0.191,1.189,0.573l1.91,2.356c-0.678,0.779-1.41,1.413-2.195,1.901c-0.787,0.488-1.594,0.87-2.42,1.146
			c-0.83,0.277-1.656,0.468-2.486,0.573c-0.83,0.106-1.617,0.159-2.367,0.159c-1.545,0-2.99-0.25-4.342-0.753
			c-1.352-0.501-2.533-1.249-3.547-2.24c-1.012-0.989-1.811-2.222-2.398-3.694c-0.588-1.472-0.881-3.186-0.881-5.139
			c0-1.473,0.252-2.866,0.752-4.182c0.502-1.316,1.225-2.471,2.168-3.463c0.939-0.99,2.08-1.776,3.418-2.357
			C142.248,28.062,143.76,27.771,145.443,27.771z M145.57,32.316c-1.26,0-2.244,0.358-2.949,1.071
			c-0.709,0.715-1.178,1.746-1.404,3.09h8.217c0-0.523-0.066-1.031-0.201-1.527c-0.135-0.497-0.352-0.938-0.658-1.328
			c-0.305-0.389-0.703-0.703-1.199-0.944S146.279,32.316,145.57,32.316z"/>
		<path fill="#F9B334" d="M168.928,27.771c1.668,0,3.191,0.263,4.564,0.786s2.551,1.273,3.535,2.251
			c0.982,0.977,1.748,2.163,2.293,3.556c0.545,1.395,0.818,2.963,0.818,4.705c0,1.755-0.273,3.336-0.818,4.744
			c-0.545,1.409-1.311,2.605-2.293,3.59c-0.984,0.982-2.162,1.741-3.535,2.271c-1.373,0.531-2.896,0.796-4.564,0.796
			c-1.686,0-3.217-0.265-4.6-0.796c-1.379-0.529-2.566-1.288-3.564-2.271c-0.998-0.984-1.771-2.181-2.316-3.59
			c-0.545-1.408-0.816-2.989-0.816-4.744c0-1.742,0.271-3.311,0.816-4.705c0.545-1.393,1.318-2.579,2.316-3.556
			c0.998-0.978,2.186-1.728,3.564-2.251C165.711,28.034,167.242,27.771,168.928,27.771z M168.928,45.587
			c1.514,0,2.629-0.534,3.344-1.604c0.713-1.068,1.072-2.692,1.072-4.873c0-2.18-0.359-3.8-1.072-4.862
			c-0.715-1.062-1.83-1.593-3.344-1.593c-1.557,0-2.697,0.531-3.42,1.593c-0.721,1.062-1.082,2.683-1.082,4.862
			c0,2.181,0.361,3.805,1.082,4.873C166.23,45.053,167.371,45.587,168.928,45.587z"/>
		<path fill="#F9B334" d="M120.994,27.771c1.668,0,3.191,0.263,4.564,0.786s2.553,1.273,3.535,2.251
			c0.984,0.977,1.748,2.163,2.293,3.556c0.545,1.395,0.818,2.963,0.818,4.705c0,1.755-0.273,3.336-0.818,4.744
			c-0.545,1.409-1.309,2.605-2.293,3.59c-0.982,0.982-2.162,1.741-3.535,2.271c-1.373,0.531-2.896,0.796-4.564,0.796
			c-1.686,0-3.219-0.265-4.598-0.796c-1.379-0.529-2.57-1.288-3.566-2.271c-0.998-0.984-1.771-2.181-2.316-3.59
			c-0.545-1.408-0.816-2.989-0.816-4.744c0-1.742,0.271-3.311,0.816-4.705c0.545-1.393,1.318-2.579,2.316-3.556
			c0.996-0.978,2.188-1.728,3.566-2.251S119.309,27.771,120.994,27.771z M120.994,45.587c1.514,0,2.629-0.534,3.344-1.604
			c0.715-1.068,1.072-2.692,1.072-4.873c0-2.18-0.357-3.8-1.072-4.862c-0.715-1.062-1.83-1.593-3.344-1.593
			c-1.559,0-2.697,0.531-3.42,1.593c-0.721,1.062-1.082,2.683-1.082,4.862c0,2.181,0.361,3.805,1.082,4.873
			C118.297,45.053,119.436,45.587,120.994,45.587z"/>
		<g>
			<g>
				<polygon fill="#F9B334" points="84.603,4.116 83.163,4.116 80.033,0.349 84.603,0.349 				"/>
				<polygon fill="#F9B334" points="88.301,4.116 89.745,4.116 92.182,0.349 86.918,0.349 				"/>
			</g>
			<g>
				<polygon fill="#F9B334" points="101.814,4.116 103.256,4.116 106.385,0.349 101.814,0.349 				"/>
				<polygon fill="#F9B334" points="98.375,4.116 96.934,4.116 94.497,0.349 99.76,0.349 				"/>
			</g>
		</g>
		<g>
			<path fill="#F9B334" d="M86.405,50.13V28.112h4.076c0.41,0,0.754,0.092,1.029,0.275c0.277,0.186,0.471,0.46,0.584,0.828
				l0.383,1.273c0.424-0.396,0.863-0.764,1.316-1.104s0.936-0.625,1.453-0.859s1.078-0.418,1.68-0.552
				c0.6-0.136,1.256-0.203,1.963-0.203c1.203,0,2.267,0.21,3.195,0.626c0.928,0.42,1.709,0.998,2.346,1.742
				c0.639,0.742,1.119,1.627,1.445,2.654c0.326,1.025,0.488,2.141,0.488,3.344V50.13h-6.582V36.138c0-1.076-0.248-1.914-0.744-2.516
				c-0.496-0.603-1.225-0.902-2.188-0.902c-0.721,0-1.4,0.155-2.037,0.467c-0.637,0.311-1.248,0.73-1.828,1.254V50.13H86.405z"/>
			<g>
				<g>
					<polygon fill="#F9B334" points="87.834,46.364 86.395,46.364 83.266,50.13 87.834,50.13 					"/>
					<polygon fill="#F9B334" points="91.538,46.364 92.977,46.364 95.415,50.13 90.151,50.13 					"/>
				</g>
				<g>
					<polygon fill="#F9B334" points="104.902,46.364 106.344,46.364 109.475,50.13 104.902,50.13 					"/>
					<polygon fill="#F9B334" points="101.232,46.364 99.793,46.364 97.354,50.13 102.617,50.13 					"/>
				</g>
			</g>
		</g>
		<g>
			<path fill="#F9B334" d="M183.277,50.13V28.112h4.078c0.41,0,0.754,0.092,1.027,0.275c0.277,0.186,0.471,0.46,0.584,0.828
				l0.383,1.273c0.426-0.396,0.865-0.764,1.316-1.104c0.453-0.34,0.938-0.625,1.455-0.859s1.076-0.418,1.678-0.552
				c0.602-0.136,1.256-0.203,1.965-0.203c1.203,0,2.268,0.21,3.195,0.626c0.926,0.42,1.707,0.998,2.344,1.742
				c0.641,0.742,1.121,1.627,1.445,2.654c0.326,1.025,0.488,2.141,0.488,3.344V50.13h-6.582V36.138c0-1.076-0.248-1.914-0.744-2.516
				c-0.494-0.603-1.225-0.902-2.188-0.902c-0.721,0-1.402,0.155-2.035,0.467c-0.639,0.311-1.248,0.73-1.828,1.254V50.13H183.277z"/>
			<g>
				<g>
					<polygon fill="#F9B334" points="184.709,46.364 183.27,46.364 180.139,50.13 184.709,50.13 					"/>
					<polygon fill="#F9B334" points="188.408,46.364 189.85,46.364 192.287,50.13 187.023,50.13 					"/>
				</g>
				<g>
					<polygon fill="#F9B334" points="201.775,46.364 203.217,46.364 206.348,50.13 201.775,50.13 					"/>
					<polygon fill="#F9B334" points="198.105,46.364 196.666,46.364 194.229,50.13 199.492,50.13 					"/>
				</g>
			</g>
		</g>
		<g>
			<path fill="#F9B334" d="M120.973,5.159c-0.17,0.27-0.352,0.46-0.543,0.574c-0.189,0.111-0.436,0.168-0.732,0.168
				c-0.311,0-0.623-0.066-0.934-0.2c-0.312-0.136-0.646-0.279-1.01-0.437c-0.361-0.154-0.768-0.301-1.221-0.435
				s-0.969-0.202-1.549-0.202c-0.836,0-1.477,0.16-1.922,0.479c-0.445,0.32-0.67,0.762-0.67,1.326c0,0.412,0.146,0.752,0.436,1.021
				c0.291,0.268,0.676,0.507,1.158,0.712c0.48,0.204,1.025,0.399,1.635,0.582c0.609,0.184,1.23,0.391,1.867,0.617
				c0.637,0.226,1.26,0.491,1.869,0.795c0.609,0.307,1.154,0.68,1.635,1.126s0.867,0.986,1.158,1.624
				c0.289,0.638,0.436,1.4,0.436,2.293c0,1.092-0.199,2.096-0.596,3.018c-0.395,0.919-0.986,1.711-1.773,2.377
				c-0.783,0.666-1.754,1.182-2.908,1.55c-1.154,0.366-2.48,0.551-3.98,0.551c-0.75,0-1.5-0.07-2.252-0.212
				c-0.75-0.141-1.475-0.331-2.174-0.572c-0.701-0.242-1.35-0.528-1.945-0.861c-0.594-0.332-1.104-0.689-1.529-1.072l1.529-2.419
				c0.186-0.284,0.404-0.507,0.658-0.67c0.256-0.161,0.588-0.243,1-0.243c0.381,0,0.723,0.084,1.029,0.254
				c0.305,0.17,0.633,0.355,0.986,0.553c0.354,0.198,0.77,0.383,1.242,0.551c0.475,0.171,1.072,0.255,1.793,0.255
				c0.512,0,0.941-0.052,1.297-0.159c0.354-0.106,0.635-0.25,0.848-0.434s0.369-0.391,0.469-0.617s0.148-0.459,0.148-0.699
				c0-0.441-0.148-0.8-0.447-1.085c-0.295-0.282-0.686-0.525-1.166-0.731s-1.031-0.396-1.646-0.574
				c-0.615-0.176-1.242-0.378-1.879-0.605c-0.637-0.226-1.264-0.498-1.879-0.816c-0.617-0.318-1.164-0.721-1.645-1.211
				c-0.482-0.488-0.871-1.086-1.168-1.794c-0.299-0.708-0.447-1.562-0.447-2.568c0-0.936,0.182-1.822,0.541-2.665
				c0.361-0.842,0.902-1.582,1.625-2.22c0.723-0.637,1.627-1.142,2.717-1.517C112.123,0.188,113.398,0,114.855,0
				c0.795,0,1.561,0.07,2.305,0.212c0.742,0.141,1.439,0.34,2.092,0.594c0.65,0.255,1.246,0.556,1.783,0.903
				c0.537,0.347,1.012,0.726,1.422,1.136L120.973,5.159z"/>
			<g>
				<polygon fill="#F9B334" points="110.5,19.007 111.275,17.794 109.791,13.126 107.057,17.406 				"/>
				<polygon fill="#F9B334" points="109.482,20.604 108.705,21.817 104.219,21.839 107.057,17.406 				"/>
			</g>
			<g>
				<polygon fill="#F9B334" points="117.508,3.607 116.732,4.819 118.217,9.487 120.951,5.208 				"/>
				<polygon fill="#F9B334" points="118.527,2.01 119.303,0.796 123.791,0.774 120.951,5.208 				"/>
			</g>
		</g>
		<g>
			<path fill="#F9B334" d="M224.232,33.103c-0.17,0.268-0.35,0.459-0.541,0.572s-0.438,0.17-0.732,0.17
				c-0.312,0-0.623-0.066-0.934-0.202c-0.311-0.134-0.648-0.279-1.012-0.437c-0.359-0.154-0.766-0.299-1.219-0.434
				s-0.971-0.201-1.551-0.201c-0.836,0-1.475,0.16-1.922,0.477c-0.443,0.32-0.668,0.762-0.668,1.327c0,0.411,0.145,0.751,0.436,1.02
				c0.289,0.269,0.676,0.508,1.156,0.712c0.48,0.205,1.027,0.4,1.635,0.584c0.609,0.184,1.232,0.389,1.871,0.615
				c0.637,0.227,1.258,0.492,1.865,0.797c0.609,0.305,1.156,0.68,1.637,1.125c0.482,0.446,0.867,0.986,1.156,1.624
				c0.291,0.637,0.436,1.401,0.436,2.294c0,1.091-0.197,2.096-0.594,3.016s-0.988,1.713-1.771,2.377
				c-0.787,0.666-1.758,1.182-2.91,1.551c-1.156,0.367-2.482,0.551-3.98,0.551c-0.752,0-1.502-0.07-2.252-0.212
				c-0.752-0.142-1.477-0.331-2.178-0.572c-0.699-0.241-1.348-0.528-1.941-0.86c-0.596-0.333-1.105-0.689-1.529-1.072l1.529-2.421
				c0.184-0.284,0.402-0.507,0.658-0.669c0.254-0.162,0.586-0.244,0.996-0.244c0.385,0,0.727,0.086,1.031,0.256
				c0.303,0.168,0.633,0.354,0.988,0.552c0.354,0.198,0.766,0.382,1.242,0.55c0.473,0.172,1.07,0.256,1.793,0.256
				c0.51,0,0.941-0.052,1.297-0.16c0.352-0.105,0.637-0.248,0.848-0.434c0.213-0.184,0.369-0.391,0.467-0.616
				c0.1-0.226,0.148-0.458,0.148-0.7c0-0.439-0.148-0.799-0.443-1.084c-0.299-0.283-0.689-0.526-1.17-0.73
				c-0.482-0.208-1.029-0.397-1.646-0.576c-0.615-0.176-1.24-0.377-1.877-0.604c-0.639-0.227-1.264-0.498-1.879-0.818
				c-0.617-0.317-1.166-0.721-1.646-1.209s-0.871-1.086-1.168-1.795c-0.297-0.708-0.445-1.562-0.445-2.568
				c0-0.936,0.18-1.823,0.539-2.666c0.363-0.842,0.904-1.58,1.625-2.219c0.725-0.637,1.627-1.143,2.719-1.518
				c1.09-0.375,2.363-0.562,3.82-0.562c0.795,0,1.562,0.07,2.307,0.211c0.742,0.142,1.439,0.342,2.09,0.596
				c0.652,0.254,1.246,0.555,1.785,0.901c0.537,0.348,1.012,0.727,1.424,1.137L224.232,33.103z"/>
			<g>
				<polygon fill="#F9B334" points="213.76,46.95 214.537,45.737 213.053,41.068 210.318,45.349 				"/>
				<polygon fill="#F9B334" points="212.742,48.546 211.967,49.761 207.479,49.782 210.318,45.349 				"/>
			</g>
			<g>
				<polygon fill="#F9B334" points="220.768,31.549 219.994,32.763 221.477,37.431 224.213,33.149 				"/>
				<polygon fill="#F9B334" points="221.787,29.952 222.564,28.739 227.051,28.718 224.213,33.149 				"/>
			</g>
		</g>
		<path fill="#F9B334" d="M131.387,45.374c-0.545-1.394-1.309-2.58-2.293-3.557c-0.195-0.193-0.404-0.372-0.615-0.549l-3.281,6.297
			v0.001c0.139,0.743,0.213,1.591,0.213,2.554c0,2.18-0.357,3.805-1.072,4.873s-1.83,1.604-3.344,1.604
			c-1.559,0-2.697-0.535-3.42-1.604c-0.4-0.594-0.688-1.365-0.865-2.304l-6.137,2.265c0.541,1.35,1.293,2.506,2.258,3.458
			c0.996,0.984,2.188,1.741,3.566,2.271c1.379,0.533,2.912,0.797,4.598,0.797c1.668,0,3.191-0.264,4.564-0.797
			c1.373-0.529,2.553-1.286,3.535-2.271c0.984-0.984,1.748-2.181,2.293-3.588c0.545-1.409,0.818-2.992,0.818-4.746
			C132.205,48.337,131.932,46.769,131.387,45.374z"/>
		<rect x="125.402" y="39.069" fill="#F9B334" width="6.803" height="11.57"/>
		<g>
			<path fill="#F9B334" d="M37.572,33.943c-1.799,1.456-3.881,2.184-6.246,2.184c-2.366,0-4.309-0.604-5.83-1.814
				c-1.52-1.21-2.28-2.863-2.28-4.962c0-2.354,1.575-4.443,4.723-6.263c-0.708-0.856-1.221-1.611-1.542-2.265
				c-0.321-0.652-0.481-1.418-0.481-2.295c0-1.82,0.657-3.213,1.975-4.177c1.317-0.962,2.874-1.444,4.672-1.444
				c1.799,0,3.335,0.466,4.608,1.396c1.274,0.932,1.912,2.232,1.912,3.902c0,2.099-1.531,4.046-4.593,5.846
				c1.199,1.498,2.098,2.58,2.698,3.244c0.535-0.986,0.941-2.023,1.221-3.115l3.757,2.697c-0.493,1.349-1.093,2.602-1.799,3.758
				l3.18,3.146l-3.18,3.02L37.572,33.943z M28.933,31.374c0.621,0.492,1.424,0.738,2.409,0.738c0.984,0,2.044-0.471,3.18-1.412
				c-1.563-1.649-2.912-3.148-4.047-4.497c-1.648,1.028-2.473,2.13-2.473,3.308C28.002,30.261,28.312,30.882,28.933,31.374z
				 M32.562,16.696c-0.472,0-0.894,0.166-1.269,0.498c-0.374,0.332-0.562,0.781-0.562,1.35c0,0.567,0.428,1.387,1.285,2.457
				c1.605-0.856,2.408-1.66,2.408-2.41c0-0.621-0.192-1.092-0.578-1.412C33.462,16.856,33.033,16.696,32.562,16.696z"/>
		</g>
	</g>
</g>
</svg>
