<?xml version="1.0" encoding="utf-8"?>
<!-- Generator: Adobe Illustrator 16.0.0, SVG Export Plug-In . SVG Version: 6.00 Build 0)  -->
<!DOCTYPE svg PUBLIC "-//W3C//DTD SVG 1.1//EN" "http://www.w3.org/Graphics/SVG/1.1/DTD/svg11.dtd">
<svg version="1.1" id="Capa_1" xmlns="http://www.w3.org/2000/svg" xmlns:xlink="http://www.w3.org/1999/xlink" x="0px" y="0px"
	 width="200px" height="107.562px" viewBox="0 0 200 107.562" enable-background="new 0 0 200 107.562" xml:space="preserve">
<g>
	<path fill="#49809B" d="M49.111,40.087c-1.11-2.721-2.672-5.067-4.689-7.044c-2.017-1.976-4.446-3.521-7.286-4.644
		c-2.843-1.119-5.994-1.681-9.457-1.681h-17.29H0l10.389,7.941v28.626L0,71.234h10.389h17.29c3.463,0,6.615-0.559,9.458-1.668
		c2.839-1.109,5.269-2.656,7.286-4.644c2.017-1.986,3.579-4.338,4.689-7.059c1.108-2.72,1.667-5.688,1.667-8.905
		C50.778,45.762,50.219,42.805,49.111,40.087z M39.35,54.949c-0.569,1.771-1.389,3.272-2.458,4.506
		c-1.071,1.233-2.38,2.179-3.925,2.841c-1.55,0.661-3.312,0.993-5.288,0.993h-6.902V34.661h6.902c1.976,0,3.738,0.334,5.288,0.994
		c1.545,0.662,2.854,1.608,3.925,2.84c1.069,1.232,1.889,2.734,2.458,4.508c0.569,1.771,0.856,3.757,0.856,5.956
		C40.206,51.18,39.919,53.177,39.35,54.949z"/>
	<path fill="#49809B" d="M62.68,26.719c1.284,0,2.458,0.199,3.522,0.599c1.068,0.398,1.983,0.979,2.749,1.739
		c0.768,0.761,1.364,1.691,1.795,2.796c0.431,1.102,0.647,2.35,0.647,3.745c0,0.438-0.021,0.792-0.059,1.066
		c-0.037,0.274-0.106,0.492-0.207,0.654c-0.1,0.162-0.232,0.272-0.399,0.336c-0.168,0.062-0.385,0.094-0.646,0.094H58.904
		c0.188,1.621,0.679,2.793,1.478,3.523c0.796,0.729,1.825,1.094,3.084,1.094c0.672,0,1.252-0.082,1.738-0.244
		c0.486-0.162,0.92-0.342,1.3-0.541c0.381-0.199,0.729-0.381,1.048-0.543c0.317-0.16,0.651-0.242,0.997-0.242
		c0.463,0,0.811,0.167,1.046,0.503l1.683,2.075c-0.596,0.687-1.243,1.244-1.935,1.673c-0.692,0.432-1.401,0.767-2.13,1.011
		c-0.729,0.242-1.46,0.41-2.187,0.504c-0.729,0.095-1.424,0.14-2.085,0.14c-1.358,0-2.632-0.219-3.824-0.664
		c-1.188-0.439-2.229-1.099-3.118-1.969c-0.894-0.873-1.596-1.957-2.114-3.255c-0.516-1.295-0.777-2.804-0.777-4.522
		c0-1.295,0.222-2.522,0.663-3.682c0.443-1.158,1.078-2.175,1.908-3.047c0.827-0.873,1.831-1.562,3.01-2.075
		C59.865,26.975,61.197,26.719,62.68,26.719z M62.792,30.719c-1.108,0-1.976,0.315-2.598,0.944c-0.623,0.629-1.034,1.537-1.234,2.72
		h7.236c0-0.461-0.062-0.908-0.177-1.345c-0.119-0.438-0.314-0.826-0.58-1.17c-0.27-0.34-0.621-0.617-1.057-0.832
		C63.944,30.825,63.416,30.719,62.792,30.719z"/>
	<path fill="#49809B" d="M84.699,46.403H79.43l-7.516-19.385h4.822c0.411,0,0.755,0.098,1.037,0.289
		c0.28,0.192,0.47,0.434,0.569,0.721l2.693,8.69c0.211,0.709,0.417,1.402,0.608,2.074c0.193,0.674,0.358,1.348,0.495,2.019
		c0.137-0.671,0.305-1.345,0.507-2.019c0.197-0.672,0.41-1.365,0.633-2.074l2.806-8.69c0.1-0.287,0.288-0.527,0.561-0.722
		c0.273-0.191,0.596-0.289,0.97-0.289h4.599L84.699,46.403z"/>
	<path fill="#49809B" d="M59.801,51.468v12.299c0,0.959,0.216,1.7,0.653,2.229c0.436,0.521,1.078,0.781,1.928,0.781
		c0.635,0,1.227-0.131,1.784-0.393c0.555-0.263,1.094-0.629,1.617-1.103V51.468h5.794v19.384h-3.588
		c-0.724,0-1.199-0.323-1.42-0.973l-0.356-1.121c-0.374,0.361-0.759,0.688-1.158,0.98c-0.399,0.293-0.826,0.541-1.28,0.75
		c-0.458,0.203-0.943,0.366-1.468,0.485c-0.523,0.118-1.096,0.175-1.719,0.175c-1.061,0-1.999-0.185-2.814-0.55
		c-0.817-0.366-1.504-0.88-2.066-1.541c-0.559-0.662-0.984-1.44-1.271-2.34c-0.288-0.895-0.429-1.88-0.429-2.952V51.468H59.801z"/>
	<path fill="#49809B" d="M128.037,51.167c1.281,0,2.458,0.199,3.521,0.601c1.066,0.396,1.979,0.977,2.75,1.738
		c0.768,0.761,1.363,1.689,1.795,2.792c0.426,1.104,0.644,2.354,0.644,3.749c0,0.437-0.019,0.791-0.058,1.066
		c-0.037,0.274-0.105,0.492-0.205,0.651c-0.099,0.162-0.232,0.273-0.399,0.339c-0.168,0.061-0.383,0.092-0.646,0.092h-11.179
		c0.187,1.621,0.679,2.793,1.476,3.523c0.799,0.729,1.826,1.095,3.084,1.095c0.675,0,1.255-0.081,1.738-0.243
		c0.484-0.16,0.92-0.342,1.299-0.543c0.381-0.197,0.729-0.38,1.05-0.543c0.317-0.16,0.649-0.24,0.997-0.24
		c0.463,0,0.811,0.168,1.05,0.502l1.681,2.078c-0.6,0.685-1.242,1.242-1.935,1.672c-0.688,0.429-1.402,0.767-2.13,1.009
		c-0.73,0.243-1.459,0.413-2.188,0.505c-0.729,0.093-1.424,0.139-2.086,0.139c-1.356,0-2.63-0.221-3.819-0.661
		c-1.19-0.441-2.229-1.103-3.121-1.974c-0.893-0.871-1.597-1.954-2.112-3.253c-0.519-1.294-0.773-2.802-0.773-4.521
		c0-1.293,0.222-2.522,0.659-3.682c0.444-1.158,1.08-2.176,1.91-3.049c0.827-0.873,1.83-1.563,3.008-2.073
		C125.225,51.425,126.555,51.167,128.037,51.167z M128.148,55.168c-1.107,0-1.979,0.316-2.6,0.943
		c-0.622,0.629-1.033,1.537-1.232,2.721h7.23c0-0.459-0.057-0.91-0.176-1.346c-0.119-0.438-0.312-0.826-0.58-1.168
		c-0.27-0.343-0.618-0.621-1.057-0.832C129.3,55.273,128.773,55.168,128.148,55.168z"/>
	<path fill="#49809B" d="M148.711,51.167c1.469,0,2.811,0.232,4.02,0.691c1.207,0.461,2.244,1.121,3.111,1.981
		c0.863,0.86,1.537,1.903,2.02,3.13c0.479,1.228,0.723,2.607,0.723,4.142c0,1.545-0.243,2.938-0.723,4.176
		c-0.48,1.242-1.154,2.293-2.02,3.16c-0.867,0.866-1.904,1.533-3.111,2c-1.209,0.47-2.551,0.699-4.02,0.699
		c-1.482,0-2.833-0.229-4.048-0.699c-1.214-0.467-2.263-1.134-3.14-2c-0.879-0.867-1.56-1.918-2.039-3.16
		c-0.479-1.239-0.719-2.631-0.719-4.176c0-1.533,0.237-2.914,0.719-4.141c0.48-1.228,1.16-2.271,2.039-3.131
		c0.877-0.86,1.926-1.521,3.14-1.981C145.878,51.399,147.229,51.167,148.711,51.167z M148.711,66.85c1.332,0,2.314-0.469,2.945-1.41
		c0.626-0.941,0.941-2.371,0.941-4.289c0-1.92-0.315-3.346-0.941-4.281c-0.631-0.936-1.613-1.401-2.945-1.401
		c-1.371,0-2.375,0.467-3.012,1.401c-0.633,0.938-0.952,2.361-0.952,4.281c0,1.918,0.319,3.348,0.952,4.289
		C146.336,66.382,147.34,66.85,148.711,66.85z"/>
	<path fill="#49809B" d="M106.516,51.167c1.469,0,2.81,0.232,4.018,0.691c1.21,0.461,2.246,1.121,3.111,1.981
		c0.867,0.86,1.539,1.903,2.02,3.13c0.48,1.228,0.72,2.607,0.72,4.142c0,1.545-0.239,2.938-0.72,4.176
		c-0.479,1.242-1.15,2.293-2.02,3.16c-0.865,0.866-1.901,1.533-3.111,2c-1.208,0.47-2.549,0.699-4.018,0.699
		c-1.483,0-2.834-0.229-4.048-0.699c-1.215-0.467-2.263-1.134-3.139-2c-0.88-0.867-1.561-1.918-2.04-3.16
		c-0.481-1.239-0.72-2.631-0.72-4.176c0-1.533,0.239-2.914,0.72-4.141c0.479-1.228,1.16-2.271,2.04-3.131
		c0.876-0.86,1.924-1.521,3.139-1.981C103.682,51.399,105.029,51.167,106.516,51.167z M106.516,66.85c1.33,0,2.313-0.469,2.941-1.41
		c0.629-0.941,0.945-2.371,0.945-4.289c0-1.92-0.316-3.346-0.945-4.281c-0.628-0.936-1.611-1.401-2.941-1.401
		c-1.373,0-2.375,0.467-3.011,1.401c-0.637,0.938-0.954,2.361-0.954,4.281c0,1.918,0.317,3.348,0.954,4.289
		C104.141,66.382,105.143,66.85,106.516,66.85z"/>
	<g>
		<g>
			<polygon fill="#49809B" points="74.479,30.343 73.209,30.343 70.455,27.027 74.479,27.027 			"/>
			<polygon fill="#49809B" points="77.735,30.343 79.004,30.343 81.148,27.027 76.516,27.027 			"/>
		</g>
		<g>
			<polygon fill="#49809B" points="89.631,30.343 90.897,30.343 93.653,27.027 89.631,27.027 			"/>
			<polygon fill="#49809B" points="86.602,30.343 85.332,30.343 83.187,27.027 87.82,27.027 			"/>
		</g>
	</g>
	<g>
		<path fill="#49809B" d="M76.064,70.851V51.468h3.588c0.36,0,0.663,0.081,0.906,0.243c0.245,0.163,0.415,0.403,0.514,0.729
			l0.337,1.122c0.375-0.349,0.761-0.673,1.158-0.973c0.399-0.299,0.825-0.551,1.282-0.756c0.454-0.206,0.947-0.368,1.477-0.485
			c0.529-0.12,1.105-0.18,1.728-0.18c1.059,0,1.997,0.187,2.813,0.552c0.817,0.368,1.505,0.879,2.066,1.533
			c0.562,0.654,0.984,1.433,1.27,2.336c0.288,0.903,0.431,1.886,0.431,2.944V70.85H87.84V58.531c0-0.946-0.22-1.685-0.656-2.213
			c-0.435-0.531-1.076-0.796-1.926-0.796c-0.635,0-1.231,0.138-1.793,0.412c-0.559,0.274-1.098,0.644-1.609,1.103V70.85
			L76.064,70.851L76.064,70.851z"/>
		<g>
			<g>
				<polygon fill="#49809B" points="77.323,67.533 76.055,67.533 73.299,70.851 77.323,70.851 				"/>
				<polygon fill="#49809B" points="80.581,67.533 81.849,67.533 83.995,70.851 79.361,70.851 				"/>
			</g>
			<g>
				<polygon fill="#49809B" points="92.348,67.533 93.618,67.533 96.372,70.851 92.348,70.851 				"/>
				<polygon fill="#49809B" points="89.117,67.533 87.851,67.533 85.703,70.851 90.337,70.851 				"/>
			</g>
		</g>
	</g>
	<g>
		<path fill="#49809B" d="M161.343,70.851V51.468h3.591c0.359,0,0.662,0.081,0.905,0.243c0.243,0.163,0.413,0.403,0.513,0.729
			l0.338,1.122c0.373-0.349,0.762-0.673,1.158-0.973c0.397-0.299,0.825-0.551,1.279-0.756c0.456-0.206,0.947-0.368,1.479-0.485
			c0.529-0.12,1.105-0.18,1.729-0.18c1.06,0,1.997,0.187,2.812,0.552c0.816,0.368,1.504,0.879,2.064,1.533
			c0.562,0.654,0.984,1.433,1.271,2.336s0.43,1.886,0.43,2.944V70.85h-5.794V58.531c0-0.946-0.22-1.685-0.654-2.213
			c-0.435-0.531-1.079-0.796-1.925-0.796c-0.637,0-1.236,0.138-1.793,0.412c-0.562,0.274-1.098,0.644-1.61,1.103V70.85
			L161.343,70.851L161.343,70.851z"/>
		<g>
			<g>
				<polygon fill="#49809B" points="162.604,67.533 161.336,67.533 158.582,70.851 162.604,70.851 				"/>
				<polygon fill="#49809B" points="165.857,67.533 167.128,67.533 169.275,70.851 164.641,70.851 				"/>
			</g>
			<g>
				<polygon fill="#49809B" points="177.627,67.533 178.896,67.533 181.65,70.851 177.627,70.851 				"/>
				<polygon fill="#49809B" points="174.396,67.533 173.131,67.533 170.98,70.851 175.617,70.851 				"/>
			</g>
		</g>
	</g>
	<g>
		<path fill="#49809B" d="M106.495,31.262c-0.149,0.236-0.31,0.402-0.479,0.504c-0.164,0.101-0.384,0.148-0.645,0.148
			c-0.271,0-0.551-0.06-0.822-0.176c-0.275-0.119-0.568-0.248-0.887-0.386c-0.319-0.137-0.678-0.266-1.075-0.382
			c-0.399-0.118-0.854-0.179-1.364-0.179c-0.737,0-1.299,0.143-1.692,0.422c-0.392,0.281-0.589,0.67-0.589,1.168
			c0,0.361,0.131,0.661,0.385,0.896c0.257,0.235,0.594,0.446,1.016,0.627c0.426,0.181,0.906,0.352,1.44,0.513
			s1.083,0.345,1.646,0.543s1.106,0.434,1.646,0.7c0.536,0.27,1.017,0.599,1.438,0.99c0.424,0.394,0.766,0.869,1.02,1.431
			c0.255,0.562,0.387,1.233,0.387,2.02c0,0.96-0.178,1.846-0.525,2.654c-0.347,0.81-0.869,1.508-1.561,2.094
			c-0.689,0.585-1.547,1.041-2.561,1.363c-1.019,0.323-2.188,0.485-3.505,0.485c-0.66,0-1.321-0.062-1.979-0.188
			c-0.664-0.123-1.302-0.292-1.917-0.503c-0.617-0.214-1.186-0.466-1.711-0.758c-0.523-0.292-0.972-0.606-1.346-0.943l1.346-2.131
			c0.164-0.249,0.355-0.443,0.579-0.59c0.227-0.142,0.518-0.213,0.881-0.213c0.335,0,0.637,0.073,0.904,0.225
			c0.27,0.147,0.559,0.312,0.871,0.485c0.309,0.175,0.674,0.337,1.093,0.484c0.418,0.148,0.943,0.225,1.578,0.225
			c0.451,0,0.83-0.047,1.143-0.141c0.312-0.093,0.56-0.22,0.746-0.381c0.187-0.162,0.325-0.345,0.412-0.544
			c0.088-0.198,0.129-0.403,0.129-0.616c0-0.388-0.129-0.703-0.394-0.955c-0.261-0.248-0.604-0.461-1.025-0.642
			c-0.424-0.184-0.908-0.352-1.449-0.507c-0.541-0.154-1.092-0.333-1.653-0.532c-0.562-0.198-1.114-0.438-1.655-0.72
			c-0.544-0.279-1.025-0.634-1.449-1.064c-0.426-0.431-0.768-0.955-1.027-1.58c-0.266-0.623-0.394-1.375-0.394-2.26
			c0-0.824,0.16-1.604,0.477-2.348c0.315-0.74,0.792-1.392,1.427-1.954c0.639-0.561,1.433-1.006,2.395-1.334
			c0.958-0.334,2.081-0.498,3.363-0.498c0.699,0,1.375,0.062,2.027,0.187c0.651,0.125,1.271,0.3,1.844,0.522
			c0.572,0.226,1.096,0.489,1.567,0.794c0.476,0.309,0.894,0.641,1.253,1.002L106.495,31.262z"/>
		<g>
			<polygon fill="#49809B" points="97.275,43.452 97.959,42.385 96.652,38.276 94.242,42.043 			"/>
			<polygon fill="#49809B" points="96.379,44.858 95.694,45.926 91.747,45.944 94.242,42.043 			"/>
		</g>
		<g>
			<polygon fill="#49809B" points="103.443,29.896 102.76,30.963 104.068,35.071 106.477,31.304 			"/>
			<polygon fill="#49809B" points="104.342,28.489 105.023,27.421 108.977,27.402 106.477,31.304 			"/>
		</g>
	</g>
	<g>
		<path fill="#49809B" d="M197.396,55.861c-0.149,0.233-0.312,0.404-0.479,0.504c-0.167,0.1-0.383,0.149-0.646,0.149
			c-0.271,0-0.547-0.062-0.818-0.179c-0.275-0.119-0.573-0.246-0.891-0.386c-0.317-0.135-0.674-0.263-1.074-0.381
			c-0.397-0.119-0.854-0.178-1.364-0.178c-0.735,0-1.3,0.141-1.69,0.42c-0.392,0.28-0.59,0.67-0.59,1.17
			c0,0.359,0.129,0.66,0.385,0.896c0.256,0.233,0.595,0.446,1.018,0.626c0.424,0.18,0.904,0.353,1.439,0.514
			c0.533,0.163,1.084,0.343,1.646,0.543c0.561,0.197,1.105,0.433,1.641,0.701c0.539,0.269,1.019,0.597,1.441,0.99
			c0.424,0.395,0.764,0.869,1.02,1.43c0.254,0.562,0.383,1.233,0.383,2.019c0,0.961-0.172,1.846-0.521,2.656
			c-0.351,0.81-0.871,1.508-1.562,2.094c-0.694,0.584-1.549,1.039-2.563,1.365c-1.017,0.323-2.183,0.481-3.501,0.481
			c-0.663,0-1.322-0.061-1.98-0.188c-0.664-0.121-1.299-0.291-1.918-0.502c-0.615-0.214-1.188-0.466-1.707-0.759
			c-0.525-0.293-0.976-0.606-1.35-0.942l1.35-2.133c0.158-0.248,0.354-0.445,0.578-0.587c0.221-0.145,0.514-0.215,0.877-0.215
			c0.34,0,0.64,0.074,0.905,0.224c0.267,0.148,0.558,0.312,0.869,0.486c0.312,0.174,0.676,0.337,1.095,0.481
			c0.418,0.152,0.94,0.228,1.576,0.228c0.45,0,0.83-0.047,1.145-0.141c0.312-0.095,0.562-0.218,0.748-0.384
			c0.188-0.16,0.324-0.342,0.41-0.541c0.088-0.199,0.131-0.403,0.131-0.616c0-0.388-0.131-0.704-0.393-0.956
			c-0.263-0.249-0.605-0.461-1.029-0.643c-0.425-0.184-0.904-0.35-1.447-0.506c-0.543-0.154-1.092-0.332-1.653-0.531
			c-0.562-0.201-1.112-0.438-1.653-0.719c-0.545-0.281-1.024-0.637-1.449-1.066c-0.422-0.432-0.768-0.956-1.026-1.58
			c-0.265-0.623-0.396-1.375-0.396-2.26c0-0.825,0.157-1.605,0.479-2.349c0.318-0.741,0.797-1.392,1.432-1.953
			c0.637-0.562,1.432-1.007,2.393-1.337c0.961-0.329,2.082-0.495,3.363-0.495c0.699,0,1.375,0.062,2.029,0.187
			c0.653,0.124,1.268,0.3,1.842,0.524c0.572,0.225,1.096,0.488,1.567,0.793c0.476,0.307,0.896,0.64,1.254,1L197.396,55.861z"/>
		<g>
			<polygon fill="#49809B" points="188.18,68.051 188.861,66.984 187.555,62.873 185.146,66.641 			"/>
			<polygon fill="#49809B" points="187.282,69.455 186.598,70.525 182.648,70.542 185.146,66.641 			"/>
		</g>
		<g>
			<polygon fill="#49809B" points="194.348,54.492 193.664,55.562 194.971,59.671 197.38,55.902 			"/>
			<polygon fill="#49809B" points="195.245,53.088 195.928,52.019 199.877,52 197.38,55.902 			"/>
		</g>
	</g>
	<path fill="#49809B" d="M115.662,66.664c-0.479-1.227-1.15-2.271-2.02-3.131c-0.172-0.172-0.354-0.33-0.541-0.483l-2.89,5.542
		v0.002c0.124,0.654,0.188,1.4,0.188,2.247c0,1.919-0.315,3.354-0.944,4.292c-0.628,0.939-1.612,1.412-2.942,1.412
		c-1.373,0-2.375-0.473-3.01-1.412c-0.354-0.522-0.607-1.201-0.766-2.028l-5.399,1.993c0.477,1.188,1.137,2.207,1.988,3.043
		c0.876,0.866,1.924,1.533,3.139,2c1.214,0.468,2.562,0.701,4.048,0.701c1.469,0,2.81-0.233,4.016-0.701
		c1.212-0.467,2.248-1.134,3.113-2c0.866-0.864,1.539-1.919,2.02-3.157c0.479-1.24,0.72-2.635,0.72-4.178
		C116.382,69.272,116.141,67.891,115.662,66.664z"/>
	<rect x="110.395" y="61.113" fill="#49809B" width="5.987" height="10.185"/>
	<g>
		<path fill="#49809B" d="M33.075,56.601c-1.583,1.281-3.416,1.922-5.498,1.922c-2.084,0-3.793-0.534-5.133-1.599
			c-1.337-1.064-2.007-2.521-2.007-4.367c0-2.073,1.387-3.912,4.157-5.514c-0.622-0.754-1.075-1.418-1.356-1.993
			c-0.284-0.575-0.424-1.249-0.424-2.021c0-1.604,0.578-2.83,1.738-3.677c1.16-0.849,2.531-1.271,4.113-1.271
			c1.583,0,2.935,0.41,4.056,1.229c1.123,0.82,1.685,1.965,1.685,3.436c0,1.849-1.348,3.562-4.043,5.146
			c1.055,1.318,1.846,2.271,2.376,2.854c0.47-0.866,0.828-1.78,1.075-2.742l3.306,2.375c-0.433,1.188-0.961,2.291-1.583,3.31
			l2.798,2.771l-2.798,2.658L33.075,56.601z M25.471,54.339c0.546,0.435,1.252,0.649,2.121,0.649c0.865,0,1.8-0.414,2.798-1.243
			c-1.376-1.451-2.564-2.771-3.563-3.959c-1.452,0.906-2.176,1.875-2.176,2.914C24.651,53.36,24.924,53.905,25.471,54.339z
			 M28.665,41.419c-0.413,0-0.786,0.146-1.116,0.438c-0.332,0.294-0.497,0.688-0.497,1.188s0.378,1.22,1.133,2.163
			c1.414-0.754,2.12-1.461,2.12-2.121c0-0.547-0.17-0.961-0.509-1.244C29.458,41.558,29.08,41.419,28.665,41.419z"/>
	</g>
</g>
</svg>
