<?xml version="1.0" encoding="utf-8"?>
<!-- Generator: Adobe Illustrator 16.0.0, SVG Export Plug-In . SVG Version: 6.00 Build 0)  -->
<!DOCTYPE svg PUBLIC "-//W3C//DTD SVG 1.1//EN" "http://www.w3.org/Graphics/SVG/1.1/DTD/svg11.dtd">
<svg version="1.1" id="Capa_1" xmlns="http://www.w3.org/2000/svg" xmlns:xlink="http://www.w3.org/1999/xlink" x="0px" y="0px"
	 width="176.545px" height="178.79px" viewBox="0 0 176.545 178.79" enable-background="new 0 0 176.545 178.79"
	 xml:space="preserve">
<g>
	<g>
		<g>
			<path fill="#4FC6C3" d="M44.889,116.713l4.024,0.023l0.117-20.025l-5.918,3.486l0.052-8.811l10.618-6.165l3.67,0.073
				l-0.186,31.49l4.05,0.021l-0.041,6.939l-16.43-0.098L44.889,116.713z"/>
		</g>
		<g>
			<path fill="#4FC6C3" d="M79.576,124.209c-2.701-0.016-4.992-0.525-6.877-1.535c-1.885-1.006-3.417-2.385-4.596-4.141
				c-1.179-1.752-2.037-3.818-2.571-6.195c-0.535-2.371-0.793-4.926-0.776-7.658c0.014-2.699,0.292-5.242,0.829-7.631
				c0.538-2.383,1.402-4.471,2.595-6.262c1.191-1.789,2.742-3.2,4.658-4.239c1.911-1.031,4.253-1.541,7.021-1.527
				c2.733,0.021,5.048,0.547,6.94,1.588c1.892,1.041,3.423,2.449,4.595,4.229c1.17,1.777,2.019,3.857,2.532,6.23
				c0.519,2.371,0.769,4.902,0.755,7.582c-0.017,2.719-0.309,5.271-0.867,7.656c-0.563,2.385-1.445,4.461-2.646,6.225
				c-1.198,1.764-2.756,3.154-4.669,4.176C84.583,123.723,82.276,124.225,79.576,124.209z M79.622,116.438
				c1.501,0.008,2.698-0.283,3.586-0.877c0.891-0.596,1.574-1.418,2.053-2.471c0.479-1.049,0.79-2.303,0.933-3.754
				c0.143-1.447,0.221-3.027,0.23-4.732c0.011-1.67-0.049-3.229-0.176-4.67c-0.126-1.443-0.417-2.703-0.875-3.775
				c-0.458-1.076-1.129-1.92-2.011-2.535c-0.882-0.609-2.066-0.92-3.551-0.928c-1.503-0.01-2.704,0.285-3.6,0.887
				c-0.9,0.604-1.587,1.439-2.065,2.508c-0.479,1.068-0.795,2.324-0.945,3.768c-0.151,1.439-0.232,2.996-0.242,4.668
				c-0.011,1.703,0.051,3.283,0.185,4.734c0.135,1.453,0.433,2.707,0.891,3.768c0.457,1.055,1.128,1.887,2.011,2.492
				C76.926,116.122,78.12,116.428,79.622,116.438z"/>
		</g>
		<g>
			<path fill="#4FC6C3" d="M123.528,97.407c-0.684-1.203-1.707-2.252-3.068-3.145c-1.363-0.895-2.922-1.35-4.676-1.357
				c-0.827-0.006-1.624,0.102-2.393,0.326c-0.772,0.227-1.49,0.545-2.16,0.953c-0.668,0.406-1.301,0.895-1.895,1.467
				c-0.595,0.57-1.123,1.217-1.579,1.939l11.923,0.072l-3.764,7.166l-10.152-0.059c0,0.285,0,0.547-0.005,0.783
				c-0.004,0.234,0.015,0.496,0.046,0.785l12.478,0.074l-3.759,7.166l-5.724-0.035c0.872,1.021,1.886,1.807,3.035,2.361
				c1.153,0.555,2.423,0.836,3.808,0.844c0.994,0.006,1.936-0.154,2.824-0.475c0.889-0.326,1.699-0.752,2.424-1.279
				c0.73-0.527,1.362-1.143,1.897-1.85c0.539-0.707,0.961-1.438,1.267-2.195l8.141,2.328c-0.532,1.648-1.315,3.172-2.346,4.568
				c-1.029,1.396-2.252,2.605-3.666,3.637c-1.414,1.027-3.015,1.834-4.799,2.414c-1.785,0.578-3.715,0.863-5.791,0.854
				c-2.599-0.016-5.025-0.549-7.281-1.602c-2.254-1.051-4.207-2.48-5.858-4.285c-1.651-1.811-2.952-3.928-3.899-6.352
				c-0.947-2.43-1.414-5.027-1.396-7.797c0.018-2.73,0.512-5.303,1.486-7.709c0.979-2.41,2.299-4.508,3.976-6.295
				c1.675-1.79,3.646-3.194,5.911-4.219c2.269-1.023,4.701-1.53,7.301-1.516c0.996,0.01,2.012,0.106,3.049,0.297
				c1.036,0.194,2.032,0.465,2.982,0.817c0.951,0.351,1.863,0.765,2.738,1.24c0.877,0.481,1.658,0.991,2.346,1.536l4.455,0.027
				l-0.051,8.557L123.528,97.407z"/>
		</g>
	</g>
	<g>
		<g>
			<path fill="#4FC6C3" d="M29.581,138.596l9.159,0.053l-0.024,3.928l-2.476-0.014l0.01-1.633l-2.953-0.02l-0.014,2.271l2.288,0.012
				l-0.015,2.205l-2.285-0.014l-0.015,2.664l2.952,0.018l0.014-2.043l2.476,0.014l-0.026,4.125l-9.158-0.053l0.013-2.082
				l1.206,0.008l0.041-7.139l-1.206-0.008L29.581,138.596z"/>
		</g>
		<g>
			<path fill="#4FC6C3" d="M49.04,148.141l1.146,0.01l-0.506-1.66l-3.54-0.021l-0.523,1.654l1.214,0.006l-0.012,2.084l-4.366-0.027
				l0.011-2.08l0.859,0.004l3.192-9.414l3.044,0.016l3.015,9.453l0.834,0.004l-0.014,2.082l-4.366-0.023L49.04,148.141z
				 M46.75,144.53l2.325,0.016l-1.148-3.756L46.75,144.53z"/>
		</g>
		<g>
			<path fill="#4FC6C3" d="M57.605,138.762l6.09,0.031c0.59,0.006,1.122,0.1,1.586,0.277c0.464,0.182,0.854,0.42,1.173,0.717
				c0.316,0.297,0.558,0.645,0.729,1.037c0.167,0.395,0.248,0.805,0.244,1.229c-0.001,0.391-0.044,0.73-0.13,1.023
				c-0.085,0.293-0.206,0.553-0.369,0.779c-0.161,0.227-0.359,0.428-0.59,0.602c-0.236,0.172-0.502,0.33-0.8,0.471
				c0.256,0.133,0.482,0.336,0.678,0.605c0.197,0.271,0.343,0.625,0.44,1.057l0.38,1.498l0.948,0.002l0.003,2.246l-3.341-0.021
				l-0.439-2.736c-0.044-0.326-0.111-0.605-0.203-0.84c-0.093-0.236-0.219-0.43-0.374-0.582c-0.156-0.148-0.345-0.262-0.571-0.332
				c-0.224-0.072-0.493-0.109-0.8-0.113l-0.98-0.004l-0.016,2.506l1.057,0.008l-0.012,2.078l-4.77-0.025l0.015-2.082l1.191,0.006
				l0.043-7.342l-1.192-0.008L57.605,138.762z M61.305,140.87l-0.014,2.787l1.511,0.01c0.289,0.004,0.549-0.023,0.778-0.076
				c0.232-0.049,0.43-0.131,0.594-0.246c0.167-0.113,0.294-0.256,0.384-0.426c0.09-0.17,0.135-0.377,0.136-0.613
				c0.003-0.445-0.154-0.793-0.474-1.045c-0.316-0.248-0.785-0.373-1.401-0.379L61.305,140.87z"/>
		</g>
		<g>
			<path fill="#4FC6C3" d="M72.337,138.848l4.927,0.027l-0.011,2.088l-1.217-0.008l-0.044,7.346l2.508,0.014
				c0.066,0.004,0.13-0.018,0.192-0.057c0.063-0.035,0.119-0.084,0.168-0.146c0.049-0.059,0.087-0.125,0.119-0.195
				c0.032-0.068,0.047-0.139,0.047-0.203l0.011-1.543l2.459,0.016l-0.026,4.23l-9.204-0.055l0.015-2.082l1.192,0.008l0.042-7.344
				l-1.192-0.008L72.337,138.848z"/>
		</g>
		<g>
			<path fill="#4FC6C3" d="M84.065,138.915l4.929,0.027l-0.011,2.092l-0.966-0.008l1.528,2.65l1.647-2.631l-1.103-0.008l0.011-2.086
				l4.933,0.025l-0.015,2.092l-0.851-0.006l-3.45,4.627l-0.018,2.693l1.396,0.01l-0.011,2.084l-5.134-0.031l0.011-2.082l1.277,0.008
				l0.016-2.723l-3.192-4.641l-1.011-0.004L84.065,138.915z"/>
		</g>
		<g>
			<path fill="#4FC6C3" d="M99.29,148.438l1.174,0.01l0.041-7.346l-1.174-0.006l0.014-2.105l5.609,0.051
				c0.521,0,0.999,0.098,1.432,0.283c0.434,0.189,0.803,0.441,1.115,0.758c0.312,0.32,0.557,0.689,0.729,1.113
				c0.172,0.422,0.254,0.875,0.254,1.35c-0.008,0.559-0.106,1.02-0.303,1.381c-0.195,0.363-0.477,0.654-0.838,0.877
				c0.379,0.242,0.678,0.547,0.896,0.904c0.22,0.359,0.326,0.793,0.322,1.307c-0.004,0.52-0.097,0.998-0.277,1.434
				c-0.184,0.436-0.434,0.809-0.742,1.123c-0.314,0.312-0.688,0.557-1.111,0.729c-0.426,0.176-0.887,0.26-1.377,0.256l-5.781-0.033
				L99.29,148.438z M103.028,141.116l-0.019,2.584l1.81,0.01c0.142,0,0.274-0.035,0.406-0.104c0.127-0.07,0.235-0.166,0.328-0.281
				c0.098-0.121,0.172-0.256,0.229-0.404c0.056-0.146,0.083-0.303,0.083-0.465c0-0.156-0.024-0.314-0.079-0.473
				c-0.056-0.156-0.131-0.299-0.224-0.426c-0.09-0.127-0.203-0.23-0.326-0.312c-0.131-0.078-0.262-0.117-0.401-0.117
				L103.028,141.116z M103.001,145.778l-0.014,2.68l1.912,0.014c0.146,0,0.287-0.035,0.414-0.111s0.24-0.174,0.334-0.297
				c0.096-0.123,0.172-0.27,0.229-0.432c0.056-0.166,0.085-0.336,0.085-0.516c0-0.186-0.027-0.359-0.079-0.518
				c-0.055-0.162-0.13-0.301-0.227-0.422c-0.097-0.117-0.205-0.215-0.337-0.281c-0.127-0.07-0.264-0.104-0.404-0.104
				L103.001,145.778z"/>
		</g>
		<g>
			<path fill="#4FC6C3" d="M112.979,139.084l4.93,0.031l-0.014,2.08l-1.213-0.008l-0.045,7.35l1.217,0.01l-0.015,2.08l-4.93-0.027
				l0.014-2.08l1.194,0.004l0.041-7.354l-1.194-0.004L112.979,139.084z"/>
		</g>
		<g>
			<path fill="#4FC6C3" d="M122.729,139.143l6.09,0.035c0.59,0.002,1.119,0.098,1.586,0.275c0.463,0.182,0.854,0.42,1.174,0.719
				c0.314,0.297,0.556,0.645,0.725,1.035c0.168,0.395,0.25,0.803,0.247,1.23c0,0.387-0.045,0.729-0.131,1.021
				s-0.209,0.553-0.371,0.779c-0.161,0.227-0.356,0.43-0.59,0.6c-0.233,0.176-0.501,0.332-0.8,0.471
				c0.258,0.133,0.482,0.336,0.68,0.605c0.195,0.273,0.344,0.625,0.442,1.057l0.378,1.5l0.947,0.004l0.004,2.24l-3.342-0.02
				l-0.438-2.738c-0.045-0.322-0.113-0.602-0.203-0.84c-0.093-0.236-0.22-0.43-0.374-0.578c-0.153-0.148-0.347-0.262-0.573-0.332
				c-0.224-0.072-0.49-0.111-0.8-0.111l-0.981-0.006l-0.014,2.508l1.057,0.004l-0.014,2.082l-4.768-0.029l0.014-2.08l1.19,0.006
				l0.045-7.344l-1.194-0.006L122.729,139.143z M126.429,141.252l-0.017,2.787l1.51,0.012c0.289,0.002,0.55-0.023,0.779-0.074
				c0.233-0.053,0.43-0.137,0.595-0.25c0.168-0.113,0.295-0.254,0.385-0.426c0.088-0.17,0.137-0.373,0.137-0.613
				c0-0.447-0.157-0.793-0.474-1.043c-0.315-0.25-0.786-0.377-1.403-0.381L126.429,141.252z"/>
		</g>
		<g>
			<path fill="#4FC6C3" d="M137.222,139.229l4.422,0.025c0.524,0,1.032,0.074,1.514,0.217c0.48,0.139,0.931,0.33,1.35,0.584
				c0.415,0.25,0.793,0.549,1.133,0.898c0.34,0.346,0.633,0.736,0.873,1.162c0.239,0.428,0.426,0.887,0.553,1.377
				c0.127,0.492,0.19,1.006,0.188,1.537c-0.004,0.533-0.072,1.041-0.206,1.529c-0.134,0.492-0.325,0.953-0.573,1.377
				c-0.244,0.428-0.535,0.814-0.882,1.168c-0.344,0.348-0.725,0.646-1.144,0.895c-0.42,0.248-0.872,0.439-1.355,0.57
				c-0.484,0.139-0.988,0.201-1.518,0.199l-4.418-0.025l0.011-2.082l0.92,0.006l0.041-7.346l-0.917-0.004L137.222,139.229z
				 M140.649,141.338l-0.041,7.344l0.961,0.006c0.412,0.002,0.801-0.09,1.164-0.279c0.367-0.191,0.684-0.453,0.955-0.779
				c0.271-0.332,0.486-0.723,0.646-1.168c0.161-0.445,0.24-0.928,0.244-1.443c0.003-0.514-0.072-0.992-0.228-1.438
				c-0.154-0.449-0.363-0.838-0.632-1.168c-0.265-0.332-0.579-0.59-0.944-0.779c-0.362-0.188-0.752-0.285-1.159-0.285
				L140.649,141.338z"/>
		</g>
	</g>
	<g>
		<g>
			<polygon fill="#EDE3B7" points="67.98,18.317 53.896,3.819 22.537,0.006 1.123,20.709 7.103,34.93 10.099,24.499 26.37,14.253 
				42.344,18.583 53,29.969 			"/>
			<g opacity="0.5">
				<path fill="#BB9D6C" d="M51.092,14.671c-0.123,0.127-0.477,0.176-0.625,0.227c-1.042-0.296-1.392-0.654-1.18-0.965
					c0.205-0.299,0.758-0.174,1.186-0.097C51.033,13.936,51.37,14.385,51.092,14.671z"/>
				<path fill="#BB9D6C" d="M41.394,5.489c-0.08-0.101-0.064-0.372-0.08-0.485c0.392-0.776,0.725-1.024,0.933-0.848
					c0.203,0.171,0.02,0.584-0.107,0.904C41.977,5.481,41.575,5.713,41.394,5.489z"/>
				<path fill="#BB9D6C" d="M29.048,6.119c0.125,0.031,0.275,0.261,0.356,0.342c0.153,0.859,0.035,1.262-0.24,1.244
					c-0.266-0.015-0.366-0.458-0.459-0.793C28.585,6.478,28.768,6.047,29.048,6.119z"/>
			</g>
			<polygon opacity="0.5" fill="#BB9D6C" enable-background="new    " points="7.103,34.93 8.351,22.1 24.865,10.949 44.283,14.443 
				54.858,25.835 52.786,29.835 42.344,18.583 26.37,14.253 10.099,24.499 			"/>
			<g>
				<path fill="#FFFDF8" d="M10.675,14.695c-0.27-0.185-0.321-0.341-0.209-0.436c0.107-0.094,0.256-0.007,0.373,0.052
					c0.153,0.078,0.186,0.266,0.059,0.349C10.841,14.696,10.726,14.689,10.675,14.695z"/>
				<path fill="#FFFDF8" d="M15.267,7.156c0.038-0.031,0.075-0.062,0.115-0.093c0.346-0.258,0.709-0.215,1.183,0.142
					c0.04,0.03,0.084,0.079,0.086,0.111c0.005,0.115-0.4,0.344-0.569,0.335C15.782,7.636,15.502,7.465,15.267,7.156z"/>
				<path fill="#FFFDF8" d="M17.064,9.664c0.052,0.021,0.097,0.115,0.102,0.169c0.014,0.151-0.091,0.216-0.311,0.177
					c-0.083-0.017-0.168-0.042-0.315-0.08c0.098-0.108,0.164-0.212,0.27-0.284C16.852,9.615,16.988,9.631,17.064,9.664z"/>
				<path fill="#FFFDF8" d="M27.069,1.54c0.197,0.133,0.041,0.22-0.002,0.248c-0.077,0.056-0.249,0.115-0.392-0.026
					c-0.068-0.068-0.042-0.173-0.049-0.206C26.779,1.417,26.9,1.426,27.069,1.54z"/>
				<path fill="#FFFDF8" d="M12.763,13.864c-0.078,0.055-0.249,0.113-0.393-0.027c-0.067-0.068-0.042-0.175-0.049-0.205
					c0.154-0.14,0.275-0.131,0.443-0.019C12.962,13.747,12.805,13.834,12.763,13.864z"/>
				<path fill="#FFFDF8" d="M8.817,13.42c-0.061,0.009-0.107,0.005-0.157,0.002l0.783-0.756c0.074,0.09,0.142,0.17,0.132,0.284
					C9.546,13.298,9.172,13.368,8.817,13.42z"/>
				<path fill="#FFFDF8" d="M11.528,13.748c-0.009,0.186-0.098,0.324-0.347,0.354c-0.076,0.01-0.207-0.007-0.268-0.048
					c-0.08-0.056-0.175-0.17-0.159-0.221c0.057-0.189,0.199-0.35,0.07-0.595c-0.018-0.034,0.058-0.074,0.065-0.081
					c0.055-0.044,0.072-0.081,0.104-0.08c0.15,0.002,0.19-0.173,0.416-0.043c0.228,0.13,0.25,0.24,0.16,0.381
					C11.511,13.503,11.533,13.634,11.528,13.748z"/>
				<path fill="#FFFDF8" d="M15.259,7.146c-0.093,0.08-0.173,0.171-0.284,0.236c-0.015,0.008-0.049,0.009-0.08,0.012l0.384-0.371
					c-0.01,0.042-0.027,0.082-0.018,0.126l0.006,0.008c0,0-0.004,0.002-0.005,0.004L15.259,7.146z"/>
				<path fill="#FFFDF8" d="M10.954,11.685c-0.238,0.096-0.475,0.193-0.726,0.277c-0.034,0.01-0.062,0.023-0.094,0.034l1.013-0.979
					c0.019,0.223-0.167,0.377-0.143,0.599C11.006,11.643,10.982,11.673,10.954,11.685z"/>
				<path fill="#FFFDF8" d="M2.761,21.738c0.051,0.021,0.096,0.116,0.101,0.17c0.013,0.149-0.091,0.217-0.311,0.176
					c-0.083-0.016-0.168-0.041-0.315-0.079c0.098-0.11,0.164-0.213,0.269-0.286C2.548,21.689,2.684,21.705,2.761,21.738z"/>
				<path fill="#FFFDF8" d="M4.987,16.973c0.163,0.138,0.178,0.251,0.072,0.358c-0.085,0.086-0.312,0.142-0.129,0.309
					c0.218,0.2,0.101,0.277-0.029,0.354c-0.154,0.092-0.326,0.17-0.506,0.238c-0.101,0.038-0.102,0.077-0.083,0.175
					c0.025,0.13,0.003,0.317-0.112,0.352c-0.269,0.079-0.114,0.203,0.004,0.343c0.238,0.281,0.202,0.396-0.143,0.435
					c-0.064,0.007-0.139-0.005-0.205-0.001c-0.314,0.018-0.592,0.079-0.682,0.304c-0.036,0.087-0.057,0.2-0.009,0.299
					c0.122,0.244,0.08,0.425-0.121,0.548c-0.058,0.037-0.188,0.043-0.284,0.02c-0.285-0.067-0.476-0.369-0.298-0.503
					c0.169-0.127,0.227-0.259,0.134-0.481c-0.05-0.121-0.006-0.262,0.067-0.354c0.061-0.073,0.283-0.149,0.34-0.117
					c0.316,0.183,0.348,0.009,0.444-0.078c0.072-0.064,0.085-0.188,0.184-0.211c0.192-0.045,0.105-0.099-0.013-0.191
					c-0.167-0.131-0.245-0.195-0.243-0.238l0.031-0.032c0.039-0.027,0.117-0.05,0.27-0.087c0.184-0.046,0.478-0.052,0.294-0.345
					c-0.021-0.034-0.011-0.073-0.002-0.109L4.1,17.832c0.018-0.006,0.02-0.021,0.041-0.026c0.162-0.044,0.319-0.158,0.342-0.285
					c0.002-0.014-0.01-0.033-0.01-0.048L4.987,16.973z"/>
				<path fill="#FFFDF8" d="M25.445,0.658c-0.148,0.105-0.393,0.069-0.664-0.137c0.007-0.05-0.021-0.157,0.035-0.211
					c0.008-0.007,0.019-0.014,0.028-0.021L26.09,0.44c-0.017,0.001-0.032,0.007-0.051,0.005C25.708,0.399,25.603,0.546,25.445,0.658
					z"/>
				<path fill="#FFFDF8" d="M11.735,12.52c-0.332-0.045-0.436,0.101-0.594,0.213c-0.147,0.105-0.393,0.068-0.664-0.137
					c0.007-0.05-0.021-0.156,0.035-0.21c0.189-0.18,0.432-0.327,0.609-0.514c0.192-0.201,0.363-0.416,0.304-0.735
					c-0.018-0.099,0.08-0.215,0.189-0.255c0.153-0.056,0.368-0.046,0.555-0.067c0.237-0.025,0.413,0.079,0.384,0.253
					c-0.016,0.09-0.125,0.209-0.227,0.202c-0.281-0.02-0.291,0.115-0.275,0.252c0.02,0.175-0.022,0.311-0.18,0.402
					c-0.137,0.079-0.156,0.18-0.017,0.336C11.998,12.419,11.902,12.542,11.735,12.52z"/>
				<path fill="#FFFDF8" d="M5.642,18.377c0.166,0.067,0.074,0.136,0.049,0.205c-0.036,0.099-0.043,0.209-0.066,0.314
					c-0.023,0.1-0.098,0.115-0.317-0.039c-0.078-0.053-0.152-0.473,0.001-0.516C5.392,18.318,5.54,18.335,5.642,18.377z"/>
				<path fill="#FFFDF8" d="M13.462,10.864c0.042-0.051,0.103-0.091,0.156-0.134l0.478,0.332c0.092-0.066,0.157-0.134,0.098-0.252
					c0.112,0.082,0.249,0.115,0.39,0.072c0.153-0.049,0.291-0.118,0.418-0.191c0.133-0.078,0.077-0.185-0.089-0.291
					c-0.097-0.068-0.247-0.113-0.4-0.127c0.002-0.045-0.01-0.096-0.056-0.17c-0.092-0.146,0.125-0.269,0.349-0.272
					c0.008,0.1,0.047,0.205,0.054,0.302c0.011,0.139,0.165,0.235,0.334,0.196c0.159-0.038,0.313-0.107,0.402-0.203
					c0.072-0.077,0.167-0.105,0.271-0.115c-0.005,0.006-0.017,0.008-0.017,0.008c-0.045,0.055-0.083,0.14-0.044,0.193
					c0.072,0.096,0.205,0.149,0.326,0.097c0.07-0.03,0.141-0.062,0.152-0.066c0.219-0.174,0.209-0.237-0.023-0.346
					c-0.056-0.027-0.153-0.023-0.203-0.005c-0.044,0.017-0.073,0.046-0.11,0.068l-0.292-0.203c0.049-0.019,0.101-0.045,0.093-0.072
					c-0.057-0.214,0.139-0.269,0.306-0.346c0.05-0.023,0.112-0.059,0.109-0.102c-0.003-0.062-0.036-0.149-0.1-0.2
					C16.017,9,15.891,8.982,15.821,8.99c-0.249,0.026-0.305,0.195-0.438,0.312c-0.116,0.102-0.404,0.085-0.542,0.179
					c-0.089,0.06-0.106,0.108-0.271,0.032c-0.093-0.043-0.164-0.055-0.228-0.055c-0.019-0.039-0.056-0.077-0.107-0.112
					c0.089-0.067,0.152-0.155,0.206-0.248c0.094-0.162-0.044-0.352-0.187-0.535c-0.037-0.048-0.067-0.098-0.103-0.15
					c0.261-0.071,0.432,0.096,0.619,0.221c0.279,0.185,0.485,0.207,0.605,0.055c0.042-0.056,0.065-0.153,0.02-0.22
					c-0.158-0.23-0.098-0.382,0.078-0.505c0.032-0.023,0.051-0.061,0.062-0.096c0.042-0.128-0.073-0.267-0.266-0.284
					c-0.159-0.015-0.333-0.001-0.444,0.051c-0.148,0.068-0.279,0.15-0.417,0.229l-2.948,2.85c0.161-0.042,0.32-0.083,0.489-0.112
					c0.215-0.036,0.306-0.157,0.275-0.312c-0.029-0.146,0.039-0.203,0.195-0.206c0.113-0.003,0.204-0.026,0.286-0.059
					c0.108,0.084,0.238,0.144,0.38,0.121c0.093-0.013,0.163-0.062,0.185-0.072c0.195-0.161,0.227-0.312,0.135-0.417
					c0.129-0.017,0.267-0.021,0.411-0.018c0.069,0.002,0.141,0.011,0.212,0.021c0.004,0,0.007,0,0.012,0
					c-0.145,0.191-0.255,0.403-0.424,0.579c-0.011-0.005-0.015-0.013-0.028-0.018c-0.151-0.06-0.341-0.002-0.534,0.005
					c0.024,0.348-0.4,0.508-0.137,0.906c0.043,0.065-0.021,0.166-0.082,0.221c-0.168,0.149-0.179,0.353-0.149,0.562
					c0.012,0.081,0.152,0.184,0.234,0.276c0.082-0.065,0.248-0.123,0.227-0.196c-0.053-0.184,0.027-0.291,0.174-0.369
					c0.089-0.048,0.207-0.086,0.331-0.085c0.174,0.002,0.292-0.031,0.28-0.159c-0.011-0.135-0.153-0.175-0.317-0.202
					C13.496,11.161,13.391,10.945,13.462,10.864z M13.709,8.892c-0.041,0.064-0.101,0.127-0.15,0.186
					c-0.03,0.036-0.051,0.069-0.064,0.101c-0.004,0-0.009-0.001-0.014-0.002c-0.024-0.116,0.013-0.197,0.146-0.242
					C13.659,8.923,13.684,8.906,13.709,8.892z"/>
				<path fill="#FFFDF8" d="M6.317,15.893c0.191,0.044,0.382,0.076,0.57,0.101c0.206,0.025,0.408,0.038,0.612,0.055
					c0.205,0.017,0.301,0.099,0.302,0.241c0,0.24-0.246,0.332-0.628,0.203c-0.39-0.131-0.72-0.198-0.977,0.005
					C6.05,16.613,5.791,16.5,5.671,16.312l0.496-0.479C6.204,15.855,6.251,15.876,6.317,15.893z"/>
				<path fill="#FFFDF8" d="M19.946,6.302c0.165,0.068,0.073,0.136,0.048,0.205c-0.036,0.101-0.043,0.21-0.066,0.314
					c-0.023,0.101-0.098,0.115-0.317-0.038c-0.078-0.054-0.152-0.475,0.001-0.516C19.695,6.244,19.844,6.261,19.946,6.302z"/>
				<path fill="#FFFDF8" d="M9.654,15.281c-0.072-0.052-0.162-0.146-0.152-0.193c0.036-0.174,0.091-0.343,0.175-0.499
					c0.029-0.054,0.161-0.107,0.235-0.085c0.103,0.03,0.266,0.143,0.277,0.203c0.031,0.175,0,0.34-0.007,0.489
					c-0.145,0.045-0.227,0.079-0.322,0.096C9.798,15.303,9.693,15.309,9.654,15.281z"/>
				<path fill="#FFFDF8" d="M23.375,3.637c-0.214,0.177-0.384,0.195-0.566,0.075c-0.058-0.038-0.105-0.171-0.105-0.171
					c0.268-0.041,0.261-0.264,0.441-0.353c0.056-0.026,0.204-0.002,0.295,0.036c0.133,0.055,0.148,0.128,0.072,0.202
					C23.436,3.5,23.398,3.598,23.375,3.637z"/>
				<path fill="#FFFDF8" d="M23.533,2.193c-0.237-0.17-0.387-0.509-0.221-0.553c0.269-0.07,0.573-0.103,0.872-0.134
					C24.233,1.5,24.386,1.585,24.4,1.624c0.023,0.066,0.006,0.179-0.049,0.186c-0.281,0.033-0.418,0.146-0.445,0.358
					C23.89,2.296,23.677,2.298,23.533,2.193z"/>
				<path fill="#FFFDF8" d="M24.296,0.726c0.094-0.067,0.331-0.021,0.497,0.101c0.164,0.107,0.201,0.201,0.088,0.291
					c-0.129,0.103-0.309,0.011-0.458-0.056C24.282,0.998,24.218,0.781,24.296,0.726z"/>
				<path fill="#FFFDF8" d="M24.163,3.218c-0.061,0.012-0.166,0.016-0.205-0.013c-0.072-0.05-0.162-0.145-0.152-0.191
					c0.036-0.175,0.093-0.344,0.175-0.499c0.03-0.055,0.162-0.108,0.235-0.086c0.103,0.03,0.265,0.145,0.277,0.204
					c0.03,0.175-0.001,0.339-0.007,0.489C24.341,3.166,24.258,3.201,24.163,3.218z"/>
				<path fill="#FFFDF8" d="M1.518,21.065c0.071-0.007,0.195,0.009,0.243,0.049c0.063,0.049,0.096,0.136,0.1,0.198
					c0.002,0.042-0.06,0.078-0.109,0.101c-0.103,0.049-0.208,0.091-0.268,0.163l-0.175-0.414
					C1.364,21.118,1.418,21.075,1.518,21.065z"/>
				<path fill="#FFFDF8" d="M6.988,17.208c-0.012-0.006-0.025-0.014-0.038-0.022c-0.167,0.107-0.331,0.217-0.503,0.32
					c-0.079,0.048-0.104,0.185-0.314,0.045c-0.164-0.11-0.228-0.191-0.16-0.328c0.141-0.28,0.54-0.336,0.825-0.489
					c0.033-0.019,0.189,0.048,0.264,0.097c0.041,0.027,0.047,0.108,0.034,0.152C7.074,17.064,7.026,17.134,6.988,17.208z"/>
				<path fill="#FFFDF8" d="M9.992,12.8c0.095-0.068,0.331-0.021,0.498,0.101c0.164,0.107,0.201,0.201,0.087,0.291
					c-0.129,0.103-0.307,0.01-0.456-0.056C9.979,13.072,9.913,12.856,9.992,12.8z"/>
				<path fill="#FFFDF8" d="M1.753,21.966c0.051-0.018,0.147-0.021,0.203,0.004c0.233,0.11,0.242,0.174,0.023,0.347
					c-0.011,0.006-0.081,0.037-0.151,0.066l-0.005,0.001l-0.154-0.366C1.699,22.002,1.72,21.979,1.753,21.966z"/>
				<path fill="#FFFDF8" d="M7.563,15.306c-0.241-0.07-0.249,0.016-0.263,0.121c-0.005,0.037,0.024,0.086,0.019,0.123
					c-0.019,0.14-0.18,0.195-0.381,0.138c-0.183-0.051-0.292-0.183-0.297-0.312l0.416-0.402C7.175,15.102,7.25,15.175,7.33,15
					c0.027-0.061,0.138-0.09,0.225-0.119c0.37-0.123,0.741-0.245,1.125-0.354c0.059-0.017,0.211,0.023,0.267,0.069
					C9,14.637,9,14.727,8.999,14.789c-0.002,0.156-0.184,0.184-0.334,0.231c-0.129,0.044-0.265,0.079-0.377,0.136
					C8.083,15.262,7.893,15.402,7.563,15.306z"/>
				<path fill="#FFFDF8" d="M9.071,15.712c-0.214,0.176-0.384,0.194-0.566,0.075c-0.059-0.039-0.107-0.173-0.107-0.173
					c0.27-0.039,0.262-0.263,0.441-0.351c0.057-0.028,0.204-0.003,0.295,0.035c0.134,0.056,0.148,0.127,0.073,0.202
					C9.131,15.574,9.095,15.674,9.071,15.712z"/>
				<path fill="#FFFDF8" d="M9.601,14.243c-0.016,0.128-0.228,0.129-0.372,0.025c-0.237-0.169-0.389-0.51-0.222-0.553
					c0.27-0.071,0.573-0.103,0.872-0.135c0.05-0.005,0.203,0.079,0.216,0.118c0.023,0.066,0.005,0.18-0.049,0.186
					C9.765,13.918,9.627,14.029,9.601,14.243z"/>
				<path fill="#FFFDF8" d="M8.555,13.787c0.111,0.229,0.128,0.385-0.222,0.389c-0.069,0.001-0.106,0.067-0.167,0.095
					c-0.181,0.081-0.355,0.17-0.552,0.232c-0.033,0.011-0.066,0.016-0.099,0.027l0.941-0.912C8.489,13.66,8.52,13.716,8.555,13.787z
					"/>
				<path fill="#FFFDF8" d="M23.818,0.302c-0.261-0.007-0.265,0.043-0.101,0.251c0.085,0.109,0.172,0.193,0.162,0.323
					c-0.03,0.349-0.402,0.416-0.758,0.47c-0.358,0.054-0.52-0.101-0.455-0.381c0.007-0.032,0.037-0.057,0.056-0.086
					c-0.147,0.044-0.297,0.1-0.32,0.199c-0.031,0.135-0.186,0.145-0.289,0.205c-0.342,0.205-0.688,0.407-1.032,0.61
					c0.107,0.051,0.167,0.046,0.23,0.051c0.365,0.025,0.646-0.015,0.592-0.342c-0.006-0.035,0.068-0.068,0.121-0.081
					c0.102-0.028,0.217-0.037,0.323-0.06c0.31-0.064,0.378-0.021,0.512,0.251c0.11,0.229,0.128,0.384-0.223,0.388
					c-0.069,0.001-0.105,0.068-0.167,0.096c-0.181,0.079-0.354,0.17-0.552,0.231c-0.29,0.091-0.599,0.161-0.878,0.234
					c0.107,0.075,0.229,0.137,0.3,0.215c0.13,0.141,0.207,0.232,0.292,0.046c0.027-0.059,0.139-0.089,0.226-0.117
					c0.37-0.123,0.741-0.246,1.124-0.354c0.06-0.018,0.211,0.021,0.268,0.067c0.054,0.044,0.055,0.132,0.054,0.196
					c-0.002,0.156-0.185,0.183-0.335,0.231c-0.128,0.042-0.265,0.078-0.376,0.135c-0.205,0.104-0.395,0.246-0.726,0.15
					c-0.24-0.07-0.248,0.016-0.262,0.12c-0.005,0.039,0.024,0.086,0.019,0.124c-0.019,0.14-0.18,0.195-0.381,0.138
					c-0.204-0.058-0.337-0.213-0.312-0.358c0.011-0.058,0.005-0.121,0.007-0.183c-0.132-0.03-0.27-0.077-0.396-0.088
					c-0.102-0.009-0.224,0.062-0.282,0.03c-0.182-0.103-0.231-0.033-0.302,0.023c-0.068,0.055-0.136,0.109-0.203,0.164
					c0.125,0.001,0.211-0.026,0.298-0.054c0.083-0.025,0.141-0.1,0.285,0.008c0.12,0.09,0.245,0.168,0.196,0.282
					c-0.021,0.053-0.021,0.117-0.063,0.155c-0.12,0.107-0.031,0.181,0.152,0.223c0.189,0.045,0.381,0.077,0.569,0.101
					c0.206,0.027,0.409,0.039,0.612,0.056c0.205,0.018,0.301,0.1,0.302,0.242c0,0.242-0.245,0.33-0.629,0.203
					c-0.389-0.13-0.718-0.198-0.976,0.005c-0.156,0.123-0.45-0.012-0.553-0.225c-0.134-0.272-0.042-0.45,0.301-0.56
					c-0.229-0.066-0.512-0.174-0.529-0.147c-0.073,0.112-0.068,0.264-0.089,0.401c-0.002,0.019,0.003,0.045,0.02,0.062
					c0.188,0.188,0.059,0.319,0.039,0.465c-0.014,0.1-0.135,0.167-0.303,0.095c-0.465-0.201-0.822-0.139-1.196-0.059
					c0.148,0.135,0.276,0.252,0.422,0.387c0.051-0.026,0.101-0.064,0.165-0.083c0.172-0.047,0.345-0.004,0.51,0.133
					c0.169,0.14,0.184,0.256,0.077,0.364c-0.086,0.085-0.313,0.142-0.13,0.31c0.218,0.198,0.1,0.276-0.029,0.354
					c-0.154,0.092-0.326,0.171-0.506,0.238c-0.101,0.037-0.102,0.077-0.084,0.174c0.025,0.131,0.002,0.317-0.112,0.352
					c-0.268,0.08-0.112,0.205,0.004,0.345c0.237,0.281,0.201,0.396-0.144,0.433c-0.063,0.009-0.138-0.004-0.204,0
					c-0.315,0.019-0.591,0.079-0.682,0.304c-0.035,0.088-0.057,0.2-0.008,0.298c0.121,0.244,0.079,0.425-0.121,0.55
					c-0.059,0.036-0.188,0.041-0.285,0.019c-0.285-0.067-0.476-0.369-0.298-0.503c0.168-0.127,0.227-0.26,0.134-0.48
					c-0.05-0.121-0.006-0.263,0.067-0.354c0.061-0.075,0.282-0.151,0.34-0.117c0.316,0.182,0.348,0.008,0.444-0.079
					c0.071-0.065,0.085-0.188,0.183-0.211c0.192-0.045,0.107-0.099-0.012-0.192c-0.348-0.272-0.333-0.26,0.059-0.357
					c0.183-0.046,0.476-0.05,0.293-0.344c-0.058-0.093-0.01-0.216,0.171-0.265c0.162-0.043,0.319-0.159,0.342-0.285
					c0.025-0.14-0.106-0.33-0.2-0.58c-0.113,0.241-0.193,0.425-0.285,0.605c-0.067,0.132-0.127,0.271-0.23,0.385
					c-0.068,0.075-0.198,0.128-0.382,0.026c-0.177-0.098-0.268-0.206-0.205-0.335c0.042-0.084,0.074-0.172,0.1-0.262
					c0.038-0.131,0.066-0.266,0.111-0.451c-0.377,0.197-0.386,0.194-0.448,0.444c-0.094,0.375-0.089,0.771,0.134,1.204
					c0.025,0.049,0.026,0.106,0.006,0.146c-0.105,0.207-0.521,0.251-0.879,0.105c-0.075-0.03-0.165-0.041-0.243-0.046
					C16.138,6.677,16.017,6.7,15.89,6.679c-0.101-0.016-0.197,0-0.287,0.029L16.232,6.1c-0.006,0.025-0.009,0.053-0.024,0.072
					c-0.142,0.178-0.147,0.176,0.183,0.367c0.156-0.178,0.291-0.361,0.081-0.672l6.062-5.861L24.128,0.2
					C24.063,0.262,23.972,0.306,23.818,0.302z"/>
				<path fill="#FFFDF8" d="M25.193,1.084c0.055-0.045,0.072-0.082,0.104-0.081c0.15,0.004,0.191-0.172,0.417-0.043
					c0.228,0.131,0.25,0.241,0.16,0.38c-0.059,0.09-0.037,0.221-0.042,0.335c-0.009,0.185-0.097,0.322-0.346,0.354
					c-0.077,0.009-0.208-0.007-0.268-0.049c-0.08-0.056-0.174-0.169-0.159-0.22c0.056-0.189,0.2-0.349,0.071-0.595
					C25.112,1.131,25.186,1.092,25.193,1.084z"/>
				<path fill="#FFFDF8" d="M21.102,4.658c0.033-0.018,0.19,0.048,0.264,0.098c0.042,0.026,0.047,0.107,0.035,0.152
					c-0.022,0.079-0.071,0.151-0.108,0.226c-0.013-0.008-0.025-0.016-0.038-0.022c-0.167,0.107-0.331,0.218-0.503,0.32
					c-0.079,0.047-0.105,0.184-0.315,0.044c-0.165-0.109-0.228-0.19-0.16-0.327C20.418,4.867,20.817,4.812,21.102,4.658z"/>
				<path fill="#FFFDF8" d="M24.978,2.62c-0.269-0.185-0.32-0.339-0.209-0.436c0.107-0.094,0.255-0.007,0.373,0.053
					c0.154,0.077,0.187,0.265,0.06,0.347C25.145,2.622,25.03,2.613,24.978,2.62z"/>
			</g>
			<polygon fill="#3B2B16" points="52.102,30.686 55.158,33.999 58.966,24.162 56.988,21.981 			"/>
			<polygon fill="#81613C" points="71.962,19.588 67.326,16.517 56.988,21.981 58.966,24.162 			"/>
			<polygon fill="#EDE3B7" points="108.565,18.317 122.647,3.819 154.009,0.006 175.423,20.709 169.442,34.93 166.446,24.499 
				150.175,14.253 134.202,18.583 123.546,29.969 			"/>
			<g opacity="0.5">
				<path fill="#BB9D6C" d="M119.278,13.494c-0.09,0.159-0.031,0.524-0.035,0.687c0.604,0.942,1.064,1.183,1.309,0.878
					c0.234-0.293-0.057-0.803-0.26-1.203C120.024,13.333,119.478,13.133,119.278,13.494z"/>
				<path fill="#BB9D6C" d="M139.093,7.398c-0.125,0.011-0.309,0.209-0.402,0.276c-0.284,0.811-0.233,1.221,0.035,1.249
					c0.262,0.027,0.433-0.388,0.574-0.698C139.485,7.822,139.378,7.373,139.093,7.398z"/>
				<path fill="#BB9D6C" d="M157.757,10.536c-0.07-0.105-0.334-0.168-0.438-0.218c-0.853,0.145-1.187,0.389-1.08,0.641
					c0.104,0.24,0.551,0.188,0.893,0.162C157.579,11.089,157.919,10.773,157.757,10.536z"/>
			</g>
			<polygon opacity="0.5" fill="#BB9D6C" enable-background="new    " points="169.442,34.93 168.194,22.1 151.681,10.949 
				132.263,14.443 121.687,25.835 123.759,29.835 134.202,18.583 150.175,14.253 166.446,24.499 			"/>
			<g>
				<path fill="#FFFDF8" d="M149.687,2.676c-0.19,0.129-0.039,0.213,0.002,0.241c0.074,0.052,0.24,0.11,0.379-0.026
					c0.066-0.066,0.041-0.168,0.05-0.199C149.966,2.557,149.849,2.566,149.687,2.676z"/>
				<path fill="#FFFDF8" d="M163.538,14.37c-0.189,0.128-0.037,0.212,0.002,0.241c0.076,0.053,0.242,0.109,0.381-0.027
					c0.066-0.065,0.041-0.167,0.047-0.198C163.819,14.251,163.702,14.26,163.538,14.37z"/>
				<path fill="#FFFDF8" d="M148.825,0.67c0.121-0.002,0.234,0.036,0.32,0.081c0.143,0.077,0.219,0.18,0.168,0.358
					c-0.021,0.071,0.141,0.127,0.219,0.19c0.08-0.091,0.217-0.189,0.227-0.269c0.027-0.183,0.006-0.356-0.115-0.496l-0.947,0.116
					C148.737,0.659,148.772,0.671,148.825,0.67z"/>
				<path fill="#FFFDF8" d="M164.536,13.309c0.32-0.043,0.422,0.098,0.574,0.207c0.145,0.103,0.381,0.066,0.643-0.132
					c-0.006-0.049,0.021-0.152-0.031-0.203c-0.184-0.175-0.418-0.317-0.592-0.497c-0.188-0.195-0.352-0.405-0.293-0.713
					c0.018-0.096-0.078-0.208-0.186-0.247c-0.146-0.055-0.355-0.046-0.537-0.065c-0.23-0.024-0.4,0.076-0.371,0.245
					c0.016,0.087,0.119,0.202,0.219,0.195c0.273-0.019,0.281,0.112,0.268,0.246c-0.02,0.168,0.021,0.3,0.172,0.388
					c0.136,0.078,0.152,0.175,0.019,0.325C164.282,13.212,164.374,13.332,164.536,13.309z"/>
				<path fill="#FFFDF8" d="M164.737,14.499c0.008,0.181,0.094,0.313,0.334,0.343c0.076,0.01,0.201-0.005,0.26-0.046
					c0.078-0.055,0.17-0.164,0.154-0.214c-0.055-0.183-0.193-0.338-0.068-0.575c0.018-0.033-0.055-0.071-0.062-0.079
					c-0.053-0.043-0.067-0.079-0.1-0.078c-0.146,0.003-0.186-0.167-0.404-0.042c-0.221,0.126-0.242,0.234-0.154,0.368
					C164.753,14.262,164.731,14.389,164.737,14.499z"/>
				<path fill="#FFFDF8" d="M166.226,13.581c-0.094-0.066-0.322-0.02-0.483,0.098c-0.158,0.103-0.193,0.195-0.084,0.281
					c0.125,0.101,0.299,0.01,0.44-0.054C166.237,13.845,166.3,13.635,166.226,13.581z"/>
				<path fill="#FFFDF8" d="M165.563,15.416c0.262-0.179,0.311-0.329,0.201-0.423c-0.104-0.089-0.246-0.005-0.359,0.052
					c-0.148,0.076-0.182,0.257-0.057,0.338C165.401,15.418,165.513,15.409,165.563,15.416z"/>
				<path fill="#FFFDF8" d="M169.114,14.761c-0.354,0.024-0.625-0.013-0.574-0.33c0.008-0.033-0.064-0.066-0.117-0.079
					c-0.098-0.026-0.211-0.035-0.312-0.057c-0.301-0.062-0.366-0.021-0.493,0.243c-0.107,0.221-0.125,0.371,0.215,0.376
					c0.065,0.001,0.103,0.065,0.16,0.091c0.176,0.079,0.344,0.165,0.534,0.225c0.281,0.089,0.58,0.156,0.853,0.228
					c-0.104,0.072-0.223,0.133-0.291,0.208c-0.125,0.137-0.2,0.225-0.282,0.045c-0.025-0.059-0.136-0.086-0.218-0.115
					c-0.358-0.118-0.719-0.237-1.09-0.343c-0.058-0.017-0.203,0.021-0.261,0.066c-0.053,0.042-0.053,0.128-0.051,0.189
					c0.002,0.15,0.179,0.177,0.324,0.225c0.125,0.04,0.256,0.075,0.363,0.13c0.199,0.102,0.383,0.238,0.703,0.146
					c0.234-0.068,0.24,0.015,0.254,0.116c0.004,0.037-0.023,0.084-0.02,0.119c0.02,0.136,0.176,0.189,0.371,0.135
					c0.196-0.056,0.325-0.208,0.301-0.347c-0.01-0.057-0.004-0.119-0.006-0.178c0.129-0.03,0.26-0.074,0.383-0.085
					c0.1-0.009,0.217,0.06,0.272,0.028c0.078-0.044,0.127-0.047,0.166-0.041l-1.051-1.017
					C169.198,14.754,169.153,14.759,169.114,14.761z"/>
				<path fill="#FFFDF8" d="M172.919,19.155c-0.023,0.046-0.025,0.103-0.004,0.141c0.1,0.201,0.502,0.243,0.85,0.102
					c0.074-0.029,0.16-0.04,0.236-0.045c0,0,0.014,0,0.02,0l-0.922-0.891C173.093,18.684,173.044,18.912,172.919,19.155z"/>
				<path fill="#FFFDF8" d="M173.228,22.236c-0.051,0.023-0.094,0.113-0.098,0.165c-0.014,0.146,0.088,0.21,0.301,0.171
					c0.08-0.015,0.162-0.041,0.305-0.077c-0.094-0.104-0.157-0.205-0.26-0.276C173.435,22.19,173.302,22.204,173.228,22.236z"/>
				<path fill="#FFFDF8" d="M174.726,20.035l-0.465-0.449c-0.168,0.034-0.348,0.117-0.549,0.271
					c-0.041,0.029-0.082,0.077-0.084,0.107c-0.006,0.11,0.385,0.333,0.551,0.325C174.374,20.278,174.556,20.176,174.726,20.035z"/>
				<path fill="#FFFDF8" d="M173.983,22.798c0.012,0.005,0.08,0.034,0.147,0.063c0.115,0.051,0.246-0.001,0.313-0.094
					c0.037-0.051,0.002-0.134-0.036-0.18c-0.048-0.057-0.125-0.1-0.205-0.13c-0.05-0.019-0.146-0.021-0.199,0.005
					C173.78,22.567,173.771,22.63,173.983,22.798z"/>
				<path fill="#FFFDF8" d="M171.728,17.568c-0.049-0.025-0.096-0.063-0.16-0.08c-0.166-0.046-0.334-0.004-0.493,0.129
					c-0.162,0.135-0.177,0.247-0.072,0.351c0.082,0.084,0.304,0.139,0.125,0.301c-0.211,0.192-0.096,0.269,0.029,0.343
					c0.147,0.089,0.313,0.165,0.489,0.23c0.097,0.036,0.099,0.074,0.08,0.169c-0.024,0.126-0.002,0.308,0.107,0.34
					c0.262,0.078,0.111,0.198-0.002,0.333c-0.23,0.273-0.195,0.384,0.139,0.421c0.062,0.008,0.133-0.004,0.197-0.002
					c0.307,0.019,0.574,0.077,0.66,0.295c0.035,0.086,0.057,0.193,0.01,0.289c-0.117,0.236-0.078,0.411,0.117,0.532
					c0.057,0.035,0.182,0.04,0.273,0.019c0.276-0.065,0.463-0.357,0.291-0.487c-0.164-0.122-0.222-0.251-0.131-0.466
					c0.049-0.117,0.006-0.255-0.066-0.343c-0.059-0.072-0.273-0.146-0.33-0.113c-0.305,0.177-0.336,0.008-0.43-0.076
					c-0.068-0.063-0.082-0.184-0.179-0.205c-0.186-0.043-0.102-0.095,0.015-0.186c0.336-0.265,0.322-0.253-0.058-0.347
					c-0.178-0.044-0.463-0.048-0.284-0.333c0.057-0.091,0.01-0.209-0.164-0.257c-0.156-0.041-0.312-0.153-0.332-0.276
					c-0.023-0.137,0.104-0.319,0.192-0.562c0.108,0.234,0.188,0.413,0.274,0.586c0.066,0.13,0.123,0.264,0.224,0.373
					c0.065,0.073,0.19,0.126,0.371,0.026c0.172-0.095,0.26-0.2,0.196-0.325c-0.014-0.028-0.021-0.06-0.032-0.089l-0.828-0.801
					C171.882,17.427,171.808,17.495,171.728,17.568z"/>
				<path fill="#FFFDF8" d="M170.335,15.929c-0.08-0.025-0.137-0.097-0.275,0.006c-0.115,0.087-0.235,0.163-0.19,0.274
					c0.021,0.05,0.021,0.113,0.062,0.149c0.115,0.104,0.031,0.175-0.146,0.217c-0.187,0.043-0.371,0.074-0.554,0.097
					c-0.198,0.026-0.395,0.037-0.592,0.054c-0.199,0.017-0.291,0.097-0.293,0.235c-0.002,0.233,0.236,0.319,0.607,0.195
					c0.379-0.126,0.697-0.191,0.947,0.006c0.149,0.119,0.434-0.012,0.535-0.218c0.129-0.265,0.041-0.435-0.293-0.541
					c0.225-0.064,0.496-0.169,0.514-0.144c0.07,0.109,0.066,0.256,0.086,0.39c0.002,0.017-0.002,0.043-0.02,0.06
					c-0.183,0.182-0.058,0.309-0.037,0.449c0.014,0.097,0.131,0.163,0.293,0.093c0.278-0.12,0.516-0.139,0.744-0.12l-1.213-1.172
					C170.45,15.948,170.386,15.942,170.335,15.929z"/>
				<path fill="#FFFDF8" d="M174.935,20.236c-0.162,0.031-0.266,0.146-0.227,0.261c0.012,0.035,0.027,0.07,0.061,0.093
					c0.168,0.12,0.228,0.266,0.074,0.489c-0.043,0.064-0.021,0.158,0.02,0.213c0.066,0.085,0.166,0.1,0.283,0.076l0.277-0.66
					L174.935,20.236z"/>
				<path fill="#FFFDF8" d="M170.437,18.982c-0.16,0.065-0.069,0.131-0.047,0.198c0.035,0.097,0.043,0.202,0.064,0.305
					c0.023,0.097,0.096,0.11,0.309-0.037c0.074-0.052,0.146-0.46-0.002-0.5C170.679,18.926,170.536,18.941,170.437,18.982z"/>
				<path fill="#FFFDF8" d="M151.71,3.723c0.262-0.179,0.311-0.33,0.203-0.423c-0.105-0.09-0.248-0.006-0.361,0.052
					c-0.148,0.075-0.182,0.256-0.057,0.337C151.548,3.724,151.661,3.716,151.71,3.723z"/>
				<path fill="#FFFDF8" d="M166.603,14.98c0.017,0.122,0.222,0.124,0.359,0.023c0.23-0.164,0.377-0.493,0.215-0.536
					c-0.262-0.067-0.555-0.1-0.844-0.13c-0.049-0.005-0.195,0.077-0.209,0.114c-0.023,0.064-0.006,0.175,0.047,0.181
					C166.444,14.664,166.577,14.772,166.603,14.98z"/>
				<path fill="#FFFDF8" d="M153.11,3.309c0.229-0.163,0.375-0.493,0.213-0.536c-0.26-0.068-0.553-0.099-0.844-0.129
					c-0.047-0.005-0.195,0.077-0.209,0.114c-0.023,0.064-0.006,0.174,0.047,0.181c0.272,0.031,0.406,0.14,0.432,0.347
					C152.765,3.408,152.97,3.409,153.11,3.309z"/>
				<path fill="#FFFDF8" d="M153.263,4.707c0.209,0.171,0.373,0.188,0.549,0.072c0.06-0.038,0.104-0.166,0.104-0.166
					c-0.263-0.039-0.254-0.255-0.429-0.341c-0.055-0.026-0.196-0.002-0.284,0.035c-0.129,0.054-0.146,0.124-0.07,0.195
					C153.204,4.574,153.239,4.67,153.263,4.707z"/>
				<path fill="#FFFDF8" d="M152.372,1.887c-0.092-0.065-0.322-0.021-0.482,0.098c-0.16,0.104-0.195,0.194-0.086,0.281
					c0.125,0.101,0.299,0.011,0.443-0.054C152.384,2.151,152.446,1.94,152.372,1.887z"/>
				<path fill="#FFFDF8" d="M152.499,4.301c0.061,0.011,0.162,0.016,0.199-0.012c0.07-0.05,0.156-0.142,0.148-0.187
					c-0.035-0.167-0.091-0.332-0.171-0.482c-0.026-0.054-0.155-0.104-0.229-0.084c-0.098,0.031-0.256,0.14-0.266,0.198
					c-0.031,0.169,0,0.329,0.006,0.473C152.327,4.252,152.407,4.284,152.499,4.301z"/>
				<path fill="#FFFDF8" d="M166.552,15.983c0.068-0.05,0.156-0.141,0.146-0.187c-0.033-0.168-0.088-0.333-0.168-0.483
					c-0.029-0.053-0.156-0.104-0.229-0.083c-0.098,0.03-0.258,0.14-0.268,0.198c-0.031,0.168,0,0.328,0.006,0.474
					c0.142,0.043,0.221,0.076,0.312,0.093C166.411,16.005,166.513,16.01,166.552,15.983z"/>
				<path fill="#FFFDF8" d="M174.854,21.887c-0.129-0.113-0.183-0.276-0.424-0.303c-0.068-0.006-0.189,0.011-0.234,0.047
					c-0.062,0.05-0.094,0.133-0.098,0.194c-0.002,0.04,0.059,0.076,0.104,0.097c0.162,0.075,0.353,0.129,0.297,0.336
					c-0.01,0.032,0.067,0.066,0.121,0.082c0.032,0.011,0.069,0.017,0.104,0.025l0.19-0.455
					C174.899,21.9,174.868,21.899,174.854,21.887z"/>
				<path fill="#FFFDF8" d="M169.962,18.182c0.16-0.105,0.221-0.186,0.154-0.318c-0.137-0.271-0.523-0.324-0.799-0.473
					c-0.033-0.018-0.187,0.046-0.256,0.094c-0.039,0.026-0.045,0.104-0.033,0.147c0.021,0.078,0.068,0.146,0.104,0.219
					c0.014-0.008,0.025-0.016,0.037-0.021c0.162,0.104,0.32,0.21,0.488,0.31C169.733,18.185,169.759,18.317,169.962,18.182z"/>
				<path fill="#FFFDF8" d="M150.376,0.649c-0.02,0.169,0.02,0.302,0.174,0.388c0.133,0.079,0.15,0.176,0.018,0.326
					c-0.139,0.154-0.045,0.273,0.115,0.251c0.322-0.043,0.424,0.099,0.574,0.208c0.145,0.102,0.381,0.066,0.645-0.133
					c-0.006-0.048,0.021-0.152-0.032-0.203c-0.185-0.175-0.418-0.316-0.593-0.496c-0.166-0.175-0.305-0.363-0.295-0.617l-0.657,0.08
					C150.378,0.5,150.384,0.572,150.376,0.649z"/>
				<path fill="#FFFDF8" d="M159.858,8.162c-0.039,0.03-0.082,0.077-0.084,0.108c-0.006,0.109,0.387,0.333,0.551,0.325
					c0.291-0.018,0.564-0.183,0.791-0.48c-0.039-0.03-0.074-0.062-0.113-0.091C160.669,7.776,160.317,7.817,159.858,8.162z"/>
				<path fill="#FFFDF8" d="M151.503,2.233c-0.055-0.043-0.07-0.078-0.102-0.077c-0.146,0.002-0.187-0.167-0.404-0.042
					c-0.221,0.126-0.242,0.233-0.152,0.367c0.055,0.087,0.033,0.213,0.039,0.324c0.008,0.18,0.094,0.312,0.336,0.342
					c0.074,0.01,0.201-0.006,0.258-0.046c0.08-0.054,0.17-0.163,0.156-0.213c-0.055-0.184-0.193-0.339-0.07-0.576
					C151.581,2.279,151.509,2.241,151.503,2.233z"/>
				<path fill="#FFFDF8" d="M167.116,16.401c0.209,0.17,0.373,0.188,0.549,0.072c0.057-0.038,0.104-0.166,0.096-0.167
					c-0.254-0.038-0.246-0.255-0.42-0.34c-0.055-0.027-0.197-0.003-0.285,0.034c-0.131,0.055-0.145,0.124-0.072,0.196
					C167.058,16.269,167.093,16.364,167.116,16.401z"/>
				<path fill="#FFFDF8" d="M151.272,0.338c0.051,0.132,0.137,0.251,0.119,0.402c-0.002,0.025,0.021,0.055,0.049,0.066
					c0.229,0.093,0.459,0.188,0.703,0.268c0.141,0.047,0.268,0.077,0.311,0.212c0.037,0.116,0.154,0.196,0.379,0.191
					c0.252-0.008,0.258,0.042,0.1,0.243c-0.084,0.104-0.168,0.188-0.156,0.312c0.027,0.337,0.39,0.403,0.732,0.455
					c0.348,0.051,0.506-0.097,0.441-0.369c-0.008-0.03-0.037-0.056-0.055-0.083c0.143,0.042,0.287,0.097,0.309,0.192
					c0.031,0.131,0.182,0.141,0.281,0.199c0.33,0.199,0.666,0.394,0.998,0.59c-0.104,0.05-0.162,0.046-0.221,0.05
					c-0.355,0.024-0.628-0.014-0.574-0.33c0.006-0.034-0.066-0.066-0.119-0.079c-0.098-0.027-0.209-0.036-0.312-0.057
					c-0.299-0.062-0.367-0.021-0.494,0.243c-0.106,0.221-0.125,0.371,0.215,0.376c0.066,0.001,0.104,0.064,0.16,0.091
					c0.176,0.079,0.344,0.165,0.535,0.225c0.281,0.089,0.58,0.155,0.852,0.228c-0.104,0.072-0.221,0.132-0.291,0.208
					c-0.125,0.137-0.2,0.225-0.28,0.045c-0.027-0.058-0.136-0.087-0.22-0.115c-0.358-0.118-0.719-0.238-1.09-0.343
					c-0.057-0.018-0.203,0.021-0.26,0.066c-0.051,0.042-0.053,0.127-0.051,0.188c0.002,0.151,0.178,0.178,0.324,0.225
					c0.125,0.04,0.256,0.075,0.365,0.131c0.197,0.102,0.381,0.237,0.701,0.144c0.233-0.067,0.239,0.017,0.254,0.118
					c0.006,0.036-0.023,0.083-0.019,0.119c0.019,0.136,0.174,0.189,0.369,0.134c0.196-0.055,0.326-0.207,0.301-0.346
					c-0.01-0.057-0.004-0.12-0.006-0.178c0.129-0.03,0.263-0.075,0.383-0.086c0.101-0.008,0.22,0.061,0.273,0.029
					c0.176-0.099,0.225-0.031,0.293,0.022c0.065,0.053,0.131,0.106,0.194,0.158c-0.119,0.002-0.203-0.024-0.287-0.051
					c-0.08-0.024-0.137-0.096-0.274,0.008c-0.115,0.087-0.235,0.163-0.19,0.273c0.021,0.05,0.021,0.114,0.062,0.15
					c0.116,0.104,0.028,0.174-0.147,0.216c-0.185,0.043-0.369,0.074-0.552,0.098c-0.198,0.025-0.396,0.036-0.592,0.054
					c-0.199,0.017-0.293,0.096-0.293,0.234c0,0.233,0.235,0.32,0.606,0.197c0.379-0.127,0.697-0.193,0.947,0.004
					c0.15,0.119,0.434-0.013,0.535-0.217c0.129-0.265,0.041-0.436-0.291-0.541c0.223-0.064,0.494-0.169,0.512-0.144
					c0.07,0.109,0.066,0.255,0.086,0.389c0.004,0.018-0.004,0.043-0.02,0.06c-0.182,0.183-0.057,0.309-0.037,0.449
					c0.014,0.098,0.131,0.163,0.293,0.094c0.451-0.195,0.795-0.135,1.158-0.058c-0.143,0.131-0.268,0.245-0.408,0.375
					c-0.051-0.026-0.098-0.063-0.16-0.08c-0.166-0.047-0.334-0.004-0.494,0.128c-0.164,0.136-0.178,0.248-0.074,0.353
					c0.084,0.082,0.304,0.137,0.127,0.3c-0.213,0.192-0.098,0.268,0.027,0.342c0.148,0.09,0.314,0.167,0.49,0.232
					c0.098,0.035,0.098,0.074,0.08,0.168c-0.023,0.125-0.002,0.308,0.109,0.341c0.26,0.077,0.108,0.197-0.004,0.332
					c-0.23,0.272-0.195,0.384,0.139,0.421c0.062,0.007,0.135-0.004,0.199-0.001c0.305,0.018,0.572,0.077,0.66,0.295
					c0.032,0.084,0.055,0.192,0.008,0.288c-0.117,0.237-0.078,0.411,0.117,0.531c0.057,0.037,0.182,0.041,0.274,0.019
					c0.274-0.065,0.461-0.356,0.289-0.487c-0.164-0.122-0.222-0.251-0.131-0.466c0.049-0.116,0.006-0.254-0.064-0.342
					c-0.059-0.072-0.272-0.146-0.329-0.113c-0.308,0.176-0.336,0.008-0.431-0.076c-0.069-0.063-0.084-0.184-0.178-0.205
					c-0.187-0.044-0.104-0.095,0.012-0.186c0.336-0.265,0.322-0.253-0.058-0.347c-0.178-0.044-0.461-0.048-0.284-0.333
					c0.057-0.091,0.01-0.21-0.164-0.257c-0.156-0.041-0.31-0.153-0.332-0.276c-0.022-0.136,0.104-0.318,0.194-0.562
					c0.107,0.234,0.187,0.413,0.273,0.585c0.066,0.13,0.123,0.265,0.225,0.373c0.064,0.074,0.191,0.126,0.371,0.026
					c0.17-0.095,0.258-0.199,0.195-0.324c-0.039-0.081-0.07-0.167-0.096-0.255c-0.035-0.126-0.064-0.256-0.107-0.437
					c0.365,0.192,0.373,0.189,0.434,0.432c0.093,0.364,0.089,0.745-0.129,1.167c-0.024,0.046-0.024,0.103-0.006,0.14
					c0.103,0.202,0.504,0.245,0.853,0.104c0.071-0.03,0.16-0.04,0.233-0.045c0.125-0.008,0.24,0.014,0.363-0.006
					c0.334-0.052,0.664,0.188,0.611,0.455c0,0-0.004,0.004-0.006,0.007l0.004,0.003l0.004-0.014c0.09,0.079,0.166,0.166,0.273,0.229
					c0.043,0.025,0.188,0.021,0.225-0.009c0.256-0.199,0.381-0.065,0.51-0.007c0.135,0.062,0.225,0.169,0.332,0.259
					c0.205,0.167,0.205,0.167-0.131,0.435c-0.262-0.146-0.51-0.302-0.789-0.433c-0.109-0.05-0.277-0.062-0.432-0.049
					c-0.187,0.018-0.299,0.15-0.258,0.274c0.012,0.035,0.028,0.07,0.062,0.093c0.168,0.121,0.228,0.265,0.074,0.489
					c-0.046,0.064-0.023,0.16,0.02,0.213c0.115,0.149,0.314,0.125,0.587-0.053c0.18-0.12,0.346-0.284,0.598-0.212
					c-0.033,0.05-0.062,0.097-0.101,0.144c-0.139,0.178-0.272,0.361-0.182,0.519c0.053,0.091,0.112,0.175,0.198,0.24
					c-0.049,0.034-0.084,0.069-0.104,0.108c-0.061-0.001-0.131,0.013-0.219,0.053c-0.16,0.074-0.176,0.027-0.264-0.031
					c-0.133-0.09-0.41-0.073-0.523-0.174c-0.129-0.112-0.184-0.275-0.424-0.301c-0.068-0.007-0.189,0.009-0.236,0.047
					c-0.061,0.048-0.092,0.132-0.096,0.193c-0.002,0.04,0.059,0.075,0.105,0.097c0.162,0.076,0.352,0.129,0.297,0.336
					c-0.008,0.026,0.043,0.051,0.09,0.069l-0.283,0.197c-0.035-0.022-0.062-0.051-0.105-0.067c-0.049-0.018-0.143-0.021-0.197,0.006
					c-0.225,0.105-0.233,0.165-0.022,0.334c0.013,0.005,0.08,0.034,0.147,0.064c0.117,0.051,0.246-0.001,0.316-0.094
					c0.037-0.052,0-0.134-0.039-0.181c-0.004-0.007-0.016-0.008-0.02-0.014c0.102,0.009,0.191,0.036,0.262,0.112
					c0.086,0.092,0.236,0.159,0.389,0.196c0.164,0.039,0.314-0.056,0.324-0.191c0.006-0.093,0.045-0.194,0.051-0.291
					c0.219,0.003,0.428,0.122,0.34,0.264c-0.045,0.071-0.057,0.121-0.055,0.164c-0.148,0.015-0.295,0.058-0.389,0.123
					c-0.16,0.104-0.215,0.207-0.086,0.283c0.123,0.07,0.258,0.138,0.406,0.185c0.135,0.042,0.27,0.009,0.377-0.069
					c-0.057,0.113,0.006,0.179,0.094,0.244l0.465-0.321c0.051,0.042,0.109,0.08,0.15,0.129c0.068,0.078-0.033,0.287-0.15,0.309
					c-0.158,0.026-0.295,0.064-0.305,0.195c-0.012,0.123,0.102,0.155,0.271,0.153c0.117-0.001,0.232,0.036,0.318,0.083
					c0.144,0.075,0.219,0.18,0.168,0.357c-0.021,0.071,0.142,0.127,0.221,0.189c0.078-0.091,0.216-0.188,0.228-0.268
					c0.027-0.203,0.018-0.399-0.146-0.544c-0.059-0.052-0.121-0.151-0.08-0.214c0.257-0.387-0.155-0.541-0.131-0.878
					c-0.188-0.006-0.373-0.062-0.519-0.005c-0.014,0.005-0.018,0.012-0.026,0.017c-0.164-0.171-0.271-0.376-0.41-0.561l0.011-0.001
					c0.069-0.009,0.141-0.017,0.207-0.019c0.141-0.004,0.272,0.001,0.397,0.017c-0.09,0.101-0.06,0.248,0.131,0.403
					c0.021,0.009,0.088,0.058,0.181,0.072c0.139,0.02,0.262-0.037,0.368-0.119c0.078,0.031,0.164,0.054,0.273,0.056
					c0.153,0.005,0.219,0.059,0.188,0.201c-0.027,0.149,0.06,0.266,0.269,0.301c0.223,0.039,0.438,0.088,0.645,0.148
					c0.074,0.021,0.177,0.088,0.154,0.131c-0.133,0.291,0.146,0.449,0.117,0.703c-0.003,0.025,0.021,0.056,0.049,0.066
					c0.229,0.093,0.459,0.188,0.703,0.268c0.141,0.047,0.271,0.077,0.312,0.212c0.036,0.116,0.155,0.196,0.381,0.19
					c0.25-0.007,0.256,0.042,0.096,0.244c-0.082,0.104-0.166,0.187-0.156,0.312c0.029,0.337,0.391,0.403,0.736,0.456
					c0.346,0.051,0.502-0.098,0.438-0.369c-0.008-0.031-0.034-0.056-0.055-0.083c0.144,0.041,0.287,0.097,0.309,0.192
					c0.029,0.131,0.183,0.14,0.281,0.199c0.229,0.139,0.465,0.275,0.699,0.413L154.002,0L151.272,0.338z M162.845,10.07
					c0,0-0.008,0.001-0.014,0.002c-0.014-0.03-0.033-0.062-0.062-0.097c-0.047-0.057-0.104-0.117-0.145-0.18
					c0.025,0.015,0.049,0.029,0.08,0.04C162.831,9.88,162.868,9.958,162.845,10.07z M162.813,9.187
					c-0.013,0.01-0.023,0.018-0.035,0.025c-0.078,0.055-0.156,0.109-0.234,0.164l-0.002-0.002c-0.078-0.052-0.061-0.119,0.061-0.17
					C162.685,9.168,162.776,9.146,162.813,9.187z M160.003,6.779c0.059,0.086,0.109,0.144,0.143,0.209
					c0.029,0.054,0.021,0.127,0.06,0.175c0.137,0.173,0.142,0.17-0.179,0.354C159.86,7.328,159.696,7.141,160.003,6.779z"/>
				<path fill="#FFFDF8" d="M155.464,5.697c-0.033-0.018-0.184,0.045-0.254,0.093c-0.041,0.027-0.047,0.104-0.035,0.148
					c0.021,0.078,0.068,0.146,0.105,0.219c0.012-0.008,0.022-0.016,0.037-0.022c0.16,0.104,0.32,0.211,0.485,0.31
					c0.076,0.046,0.103,0.178,0.306,0.043c0.16-0.105,0.221-0.186,0.154-0.318C156.128,5.897,155.741,5.844,155.464,5.697z"/>
				<path fill="#FFFDF8" d="M159.374,10.543c-0.049,0.021-0.092,0.113-0.098,0.164c-0.015,0.146,0.088,0.211,0.301,0.171
					c0.082-0.016,0.164-0.041,0.307-0.077c-0.096-0.105-0.16-0.205-0.262-0.276C159.581,10.497,159.448,10.511,159.374,10.543z"/>
				<path fill="#FFFDF8" d="M156.585,7.289c-0.162,0.065-0.072,0.13-0.047,0.197c0.033,0.097,0.041,0.203,0.064,0.304
					c0.021,0.099,0.094,0.112,0.307-0.036c0.074-0.052,0.146-0.458-0.002-0.499C156.825,7.231,156.683,7.247,156.585,7.289z"/>
			</g>
			<polygon fill="#3B2B16" points="124.442,30.686 121.388,33.999 117.579,24.162 119.558,21.981 			"/>
			<polygon fill="#81613C" points="104.583,19.588 109.22,16.517 119.558,21.981 117.579,24.162 			"/>
			<polygon fill="#A28051" points="88.272,72.379 132.761,60.76 117.728,24.098 88.272,13.88 75.564,45.939 			"/>
			<polygon fill="#BB9D6C" points="88.272,72.379 43.784,60.76 58.817,24.098 88.272,13.88 			"/>
		</g>
		<polygon fill="#A28051" points="108.534,32.388 91.53,32.388 85.424,38.493 77.682,30.751 72.044,36.39 77.625,36.39 
			77.625,44.95 90.89,58.215 90.89,46.82 		"/>
		<polygon fill="#81613C" points="88.272,35.645 88.272,55.599 90.89,58.215 90.89,46.82 108.534,32.388 91.53,32.388 		"/>
	</g>
</g>
</svg>
