<?xml version="1.0" encoding="utf-8"?>
<!-- Generator: Adobe Illustrator 16.0.0, SVG Export Plug-In . SVG Version: 6.00 Build 0)  -->
<!DOCTYPE svg PUBLIC "-//W3C//DTD SVG 1.1//EN" "http://www.w3.org/Graphics/SVG/1.1/DTD/svg11.dtd">
<svg version="1.1" id="Capa_1" xmlns="http://www.w3.org/2000/svg" xmlns:xlink="http://www.w3.org/1999/xlink" x="0px" y="0px"
	 width="200px" height="107.562px" viewBox="0 0 200 107.562" enable-background="new 0 0 200 107.562" xml:space="preserve">
<g>
	<path fill="#49809B" d="M96.97,50.953c-1.112,0.994-0.972,0.951-0.589,1.185c0.384,0.236,1.81,0.318,2.614-1.141
		C99.8,49.539,98.08,49.961,96.97,50.953z"/>
	<path fill="#49809B" d="M87.685,47.685c1.21-1.068-4.06-1.49-4.06-1.49s0.202-0.523,0.977-1.213
		c-0.858,0.486-1.677,1.032-2.475,1.604c1.005,0.514,1.986,1.106,2.944,1.774C86.39,48.111,87.338,47.992,87.685,47.685z"/>
	<path fill="#49809B" d="M130.764,70.198c-2.31-0.361-4.555-0.199-4.633-0.192c0.182,0.69-0.23,4.25-0.314,4.746
		c0.02,0.009,2.264-0.363,4.947,0.299c8.957,2.575,8.286,13.446-1.834,13.446c-23.777,0-33.067-41.479-55.227-41.479
		c-9.425,0-16.958,6.544-16.958,13.643c0,6.328,4.081,13.534,13.197,15.027l1.078,0.17l-0.032-0.271
		c0.372,1.678,0.885,3.296,1.54,4.846c-0.469-4.28,1.27-6.105,0.899-9.583c-0.28-2.639-2.252-3.601-2.517-7.145
		c-0.389,1.861-0.594,3.791-0.594,5.771c0,0.527,0.018,1.05,0.046,1.57l-0.418-0.062C56.115,68.231,60.5,51.36,73.381,51.36
		c19.497,0,28.87,41.514,55.814,41.514c5.461,0,12.502-3.171,12.502-10.534C141.693,76.081,137.059,71.337,130.764,70.198z"/>
	<path fill="#49809B" d="M115.918,90.623c-2.051,1.722-4.318,3.12-6.732,4.177c-0.328,0.143-0.656,0.277-0.988,0.408
		c-0.418-0.104-0.82-0.253-1.207-0.449c-5.59-2.865-1.535-6.984,0.035-8.517c0.24-0.235,0.553-0.55,0.895-0.928
		c-6.516-6.322-11.954-14.498-17.509-20.949c-1.637,1.488-3.554,2.933-5.536,4.618c-4.87,4.137-10.514,13.468-4.103,19.495
		c-1.228,0.131-2.4-0.018-3.458-0.438c5.158,5.871,12.717,9.582,21.146,9.582c2.755,0,5.414-0.402,7.931-1.142
		c0.077-0.022,0.156-0.045,0.235-0.068c0.19-0.056,0.379-0.117,0.567-0.18c0.218-0.07,0.435-0.145,0.649-0.22
		c0.188-0.066,0.374-0.135,0.56-0.202c0.082-0.032,0.16-0.066,0.24-0.099c0.271-0.104,0.541-0.205,0.808-0.317
		c-0.009-0.001-0.017-0.002-0.024-0.002c2.576-1.126,4.996-2.636,7.166-4.502C116.593,90.891,115.977,90.574,115.918,90.623z"/>
	<path fill="#49809B" d="M121.902,84.63c1.496-2.493,2.58-5.231,3.334-8.071l-0.312-0.082c-0.739,2.783-1.918,5.439-3.475,7.863
		C121.42,84.327,121.902,84.635,121.902,84.63z"/>
	<path fill="#49809B" d="M107.057,44.779c-0.302,1.237-0.65,1.847-1.869,1.719s-2.461-0.609-3.226,0.377
		c-0.762,0.984-1.495,0.87-2.255,0.553c-0.761-0.316-1.276-0.065-1.749,0.63c-0.473,0.694-1.479,2.624-2.221,1.897
		c-0.741-0.726-0.607-0.394-0.372-1.118c0.235-0.721,1.22-1.49,0.772-1.554c-0.447-0.063-5.161-0.149-8.39,3.161
		c0.039,0.034,0.078,0.068,0.118,0.102c3.52,0.034,7.893,0.773,7.155,6.134c-0.051,0.384-0.128,0.751-0.217,1.106
		c4.271,5.102,8.368,10.887,12.781,15.886c-1.907-3.092-1.936-6.336-0.368-9.391c1.979-3.856,5.877-3.021,8.069-1.262
		c2.189,1.757,5.382,4.79,7.009,3.818c2.539-1.533-0.071-4.745-0.071-4.745s-0.092,3.247-0.814,3.247s-0.865-3.448-1.35-3.769
		c-1.377-0.511-0.512,2.539-3.029,1.166c-2.514-1.375-1.607-4.649-0.463-6.069c1.142-1.417,3.058,0.704,3.572,1.154
		c0.512,0.447,1.514,0.974,2.646,0.974c0.799,0,2.536,3.991,3.487,6.341c-2.086-13.484-13.744-23.806-27.812-23.806
		c-2.413,0-4.755,0.303-6.99,0.873c0.925-0.163,1.954-0.295,3.104-0.388C104.145,41.047,107.355,43.54,107.057,44.779z
		 M98.996,50.997c-0.806,1.46-2.232,1.376-2.615,1.141c-0.383-0.233-0.523-0.19,0.589-1.185C98.08,49.961,99.8,49.539,98.996,50.997
		z"/>
</g>
<g>
	<path fill="#49809B" d="M29.121,60.834c-3.22-1.598-4.447-5.039-2.82-8.323c0.881-1.777,1.997-2.821,3.468-3.21l0.751,2.27
		c-0.831,0.267-1.573,0.678-2.2,1.943c-0.977,1.97-0.091,4.005,1.944,5.014c2.035,1.01,4.24,0.466,5.375-1.825
		c0.351-0.704,0.652-1.635,0.657-2.329l-1.603-0.794l-1.302,2.627l-1.97-0.977l2.319-4.68l4.709,2.336
		c0.203,0.879,0.178,2.822-0.807,4.808C35.88,61.25,32.34,62.429,29.121,60.834z"/>
	<path fill="#49809B" d="M30.851,44.75l1.478-2.021l8.041,5.877l3.25-4.447l1.774,1.298l-4.726,6.468L30.851,44.75z"/>
	<path fill="#49809B" d="M41.793,40.111c-2.48-2.602-2.287-6.44,0.249-8.858c2.536-2.417,6.38-2.426,8.859,0.174
		c2.479,2.602,2.286,6.438-0.25,8.857C48.116,42.702,44.272,42.711,41.793,40.111z M49.038,33.203
		c-1.566-1.643-3.851-1.861-5.454-0.333c-1.604,1.53-1.495,3.821,0.071,5.464c1.567,1.645,3.851,1.863,5.455,0.333
		C50.714,37.137,50.605,34.846,49.038,33.203z"/>
	<path fill="#49809B" d="M49.835,24.797l3.94-2.564c1.903-1.238,3.748-0.734,4.684,0.706c0.614,0.942,0.479,1.949-0.219,2.809
		c1.608-0.577,2.887-0.087,3.715,1.186c1.181,1.812,0.761,3.984-1.368,5.369l-4.119,2.683L49.835,24.797z M56,26.139
		c0.675-0.439,0.879-1.106,0.499-1.69s-0.999-0.714-1.643-0.295l-1.722,1.122l1.248,1.917L56,26.139z M59.299,30.518
		c0.854-0.557,1.022-1.478,0.476-2.315c-0.536-0.825-1.461-1.033-2.419-0.408l-1.813,1.181l1.824,2.801L59.299,30.518z"/>
	<path fill="#49809B" d="M64.488,16.385l0.196-0.085l9.978,9.042l-2.411,1.046l-1.074-1.036l-4.526,1.962l0.022,1.491l-2.215,0.96
		L64.488,16.385z M69.526,23.79l-1.643-1.588c-0.669-0.646-1.54-1.709-1.54-1.709s0.198,1.356,0.211,2.285l0.036,2.284L69.526,23.79
		z"/>
	<path fill="#49809B" d="M72.849,13.32l2.427-0.611l2.431,9.655l5.34-1.344l0.537,2.132l-7.766,1.954L72.849,13.32z"/>
	<path fill="#49809B" d="M88.318,16.268c-0.062-3.592,2.428-6.264,6.091-6.329c1.984-0.035,3.423,0.476,4.444,1.601l-1.668,1.71
		c-0.618-0.615-1.325-1.086-2.735-1.06c-2.198,0.038-3.598,1.762-3.559,4.032c0.041,2.268,1.537,3.977,4.093,3.931
		c0.787-0.013,1.749-0.173,2.369-0.488l-0.033-1.788l-2.931,0.051l-0.039-2.196l5.219-0.094l0.093,5.255
		c-0.687,0.584-2.424,1.456-4.64,1.495C91.057,22.46,88.383,19.862,88.318,16.268z"/>
	<path fill="#49809B" d="M107.932,10.988l0.213,0.034l3.469,13.014l-2.596-0.433l-0.336-1.451l-4.867-0.813l-0.793,1.265
		l-2.379-0.396L107.932,10.988z M108.141,19.941l-0.516-2.226c-0.212-0.904-0.365-2.271-0.365-2.271s-0.568,1.247-1.062,2.035
		l-1.211,1.937L108.141,19.941z"/>
	<path fill="#49809B" d="M117.029,12.78l0.185,0.07l3.265,8.277l7.851-4.055l0.2,0.075l-4.359,11.482l-2.256-0.856l1.618-4.261
		c0.292-0.771,0.84-1.958,0.84-1.958s-1.067,0.743-1.831,1.142l-3.215,1.667l-0.219-0.083l-1.297-3.379
		c-0.307-0.806-0.609-2.069-0.609-2.069s-0.381,1.253-0.674,2.022l-1.618,4.262l-2.24-0.851L117.029,12.78z"/>
	<path fill="#49809B" d="M132.238,19.335l6.854,4.213l-1.149,1.874l-4.726-2.902l-2.021,3.291l4.158,2.557l-1.125,1.828
		l-4.156-2.557l-0.919,1.492l4.936,3.034l-1.151,1.874l-7.067-4.345L132.238,19.335z"/>
	<path fill="#49809B" d="M138.089,35.309l2.332,0.49c-0.19,0.777-0.331,1.454,0.294,2.039c0.602,0.562,1.199,0.682,2.055-0.232
		l5.812-6.214l1.828,1.709l-5.837,6.24c-1.771,1.895-3.687,1.719-5.305,0.203C137.807,38.177,137.664,36.626,138.089,35.309z"/>
	<path fill="#49809B" d="M155.914,39.281l0.134,0.169l-6.194,11.954l-1.627-2.065l0.729-1.3l-3.054-3.877l-1.436,0.403l-1.492-1.896
		L155.914,39.281z M150.045,46.041l1.116-1.992c0.452-0.812,1.26-1.925,1.26-1.925s-1.261,0.538-2.155,0.788l-2.199,0.616
		L150.045,46.041z"/>
	<path fill="#49809B" d="M161.436,46.716l0.088,0.176l-3.146,8.323l8.54,2.271l0.098,0.19l-10.945,5.572l-1.096-2.151l4.062-2.066
		c0.732-0.373,1.936-0.886,1.936-0.886s-1.287-0.167-2.121-0.385l-3.5-0.928l-0.105-0.206l1.312-3.375
		c0.312-0.802,0.937-1.941,0.937-1.941s-1.124,0.672-1.854,1.044l-4.063,2.068l-1.087-2.136L161.436,46.716z"/>
</g>
<g>
	<path fill="#49809B" d="M171.898,66.316l-0.322-1.215l0.77-0.205l0.879,3.306l-0.769,0.205l-0.322-1.215l-3.487,0.929l-0.235-0.876
		L171.898,66.316z"/>
	<path fill="#49809B" d="M173.538,69.269l0.017,0.069l-1.912,2.599l2.758,1.628l0.017,0.076l-4.365,0.875l-0.171-0.857l1.619-0.324
		c0.292-0.059,0.764-0.12,0.764-0.12s-0.436-0.186-0.703-0.341l-1.134-0.665l-0.017-0.083l0.787-1.051
		c0.188-0.249,0.517-0.586,0.517-0.586s-0.456,0.125-0.75,0.183l-1.618,0.325l-0.171-0.852L173.538,69.269z"/>
</g>
</svg>
