<?xml version="1.0" encoding="utf-8"?>
<!-- Generator: Adobe Illustrator 16.0.0, SVG Export Plug-In . SVG Version: 6.00 Build 0)  -->
<!DOCTYPE svg PUBLIC "-//W3C//DTD SVG 1.1//EN" "http://www.w3.org/Graphics/SVG/1.1/DTD/svg11.dtd">
<svg version="1.1" id="Capa_1" xmlns="http://www.w3.org/2000/svg" xmlns:xlink="http://www.w3.org/1999/xlink" x="0px" y="0px"
	 width="433.686px" height="37.5px" viewBox="0 0 433.686 37.5" enable-background="new 0 0 433.686 37.5" xml:space="preserve">
<g>
	<path fill="#FFFFFF" d="M26.716,19.925h5.96v12.07c-3.334,3.669-8.097,5.505-14.292,5.505c-5.221,0-9.588-1.717-13.107-5.15
		C1.759,28.915,0,24.57,0,19.318c0-5.252,1.793-9.627,5.378-13.129C8.965,2.687,13.3,0.936,18.384,0.936
		c5.082,0,9.308,1.481,12.675,4.444l-3.181,4.544c-1.38-1.178-2.771-1.994-4.167-2.448c-1.397-0.456-3.021-0.683-4.875-0.683
		c-3.566,0-6.564,1.154-8.988,3.459c-2.424,2.307-3.636,5.337-3.636,9.091c0,3.757,1.178,6.769,3.535,9.04
		c2.356,2.272,5.209,3.409,8.561,3.409c3.35,0,6.152-0.724,8.408-2.172V19.925z"/>
	<path fill="#FFFFFF" d="M51.653,29.066l-3.536,8.029h-6.361L57.31,1.794h6.364L79.23,37.096h-6.365l-3.535-8.029H51.653z
		 M66.908,23.561L60.493,9.016l-6.416,14.544H66.908z"/>
	<path fill="#FFFFFF" d="M96.589,37.096h-5.957V1.794h9.291l10.655,22.171l10.657-22.171h9.242v35.302h-5.961V9.521l-12.322,24.495
		h-3.331L96.589,9.521V37.096z"/>
	<path fill="#FFFFFF" d="M171.577,1.794V7.4h-18.838v9.343h16.917v5.304h-16.917v9.443h19.444v5.604h-25.404V1.794H171.577z"/>
</g>
<g>
	<g>
		<path fill="#4FC6C3" d="M193.383,8.33V1.794h17.757v22.245c0,4.064-1.05,7.105-3.146,9.122c-2.099,2.019-4.791,3.022-8.075,3.022
			c-4.096,0-7.676-1.576-10.73-4.729l3.949-5.464c2.051,2.212,4.197,3.316,6.44,3.316c1.073,0,1.992-0.414,2.755-1.244
			c0.766-0.83,1.148-2.072,1.148-3.731v-16L193.383,8.33L193.383,8.33z"/>
		<path fill="#4FC6C3" d="M247.923,35.893l-3.172-7.365h-14.293l-3.172,7.365h-8.098l14.733-34.099h7.366l14.729,34.099H247.923z
			 M237.629,11.94l-4.293,9.903h8.535L237.629,11.94z"/>
		<path fill="#4FC6C3" d="M295.388,14.428l-9.219,18.635h-4.539l-9.172-18.635v21.465h-7.609V1.794h10.293l8.782,18.731
			l8.829-18.731h10.244v34.099h-7.609V14.428L295.388,14.428z"/>
	</g>
</g>
<path fill="#FFFFFF" d="M424.773,17.824c4.924,0,8.911-3.991,8.911-8.912c0-4.922-3.987-8.912-8.911-8.912h-17.821v35.646h17.821
	c4.924,0,8.911-3.99,8.911-8.912C433.686,21.812,429.697,17.824,424.773,17.824z"/>
<path fill="#FFFFFF" d="M380.881,0h-17.825v35.646h17.825c9.843,0,17.821-7.98,17.821-17.822C398.702,7.979,390.724,0,380.881,0z"/>
<g>
	<path fill="#FFFFFF" d="M337.706,0c-11.539,0-17.823,7.979-17.823,17.824c0,1.6,0.218,3.15,0.611,4.626
		c0,0,0.313,1.073,1.387,1.219c0.949,0.129,1.878-0.237,2.077-0.321c0.016-0.009,0.027-0.017,0.046-0.024l0.009-0.013
		c0,0.004,0,0.006,0,0.008c2.129-1.064,7.057-3.099,13.693-3.099c6.421,0,11.382,1.898,13.697,2.985c0-0.005,0-0.01,0-0.014
		l0.01,0.015c0,0,0.018,0.01,0.037,0.021c0.109,0.053,0.209,0.1,0.306,0.147c0.39,0.168,1.065,0.39,1.761,0.295
		c1.07-0.146,1.385-1.219,1.385-1.219h0.019c0.396-1.476,0.61-3.026,0.61-4.626C355.53,7.979,349.687,0,337.706,0z M322.315,17.747
		c0.018-4.299,1.322-7.884,3.635-10.508c1.061,1.125,1.723,2.633,1.723,4.303C327.673,14.695,325.347,17.299,322.315,17.747z
		 M337.753,16.654c-3.471,0-6.281-2.812-6.281-6.281c0-3.47,2.812-6.282,6.281-6.282c3.471,0,6.281,2.812,6.281,6.282
		C344.034,13.841,341.224,16.654,337.753,16.654z M353.092,17.824c-3.469,0-6.28-2.814-6.28-6.282c0-1.974,0.914-3.732,2.34-4.882
		c2.554,2.638,3.949,6.429,3.949,11.165L353.092,17.824L353.092,17.824z"/>
	<ellipse fill="#FFFFFF" cx="334.056" cy="26.98" rx="0.51" ry="1.022"/>
	<path fill="#FFFFFF" d="M337.706,21.84c-7.091,0-12.211,2.504-13.596,3.26c0.789,9.428,6.016,10.547,13.596,10.547
		c7.607,0,12.845-1.295,13.605-10.682C349.528,24.072,344.399,21.84,337.706,21.84z M333.763,32.341
		c-0.769,0-1.389-1.569-1.389-3.507c0-1.936,0.62-3.506,1.389-3.506c0.768,0,1.389,1.57,1.389,3.506
		C335.149,30.771,334.528,32.341,333.763,32.341z M341.651,32.341c-0.769,0-1.389-1.569-1.389-3.507c0-1.936,0.62-3.506,1.389-3.506
		c0.767,0,1.389,1.57,1.389,3.506C343.04,30.771,342.418,32.341,341.651,32.341z"/>
	<ellipse fill="#FFFFFF" cx="341.896" cy="26.98" rx="0.512" ry="1.022"/>
</g>
</svg>
