<?xml version="1.0" encoding="utf-8"?>
<!-- Generator: Adobe Illustrator 16.0.0, SVG Export Plug-In . SVG Version: 6.00 Build 0)  -->
<!DOCTYPE svg PUBLIC "-//W3C//DTD SVG 1.1//EN" "http://www.w3.org/Graphics/SVG/1.1/DTD/svg11.dtd">
<svg version="1.1" id="Capa_1" xmlns="http://www.w3.org/2000/svg" xmlns:xlink="http://www.w3.org/1999/xlink" x="0px" y="0px"
	 width="200px" height="107.562px" viewBox="0 0 200 107.562" enable-background="new 0 0 200 107.562" xml:space="preserve">
<g>
	<path fill="#49809B" d="M107.85,66.927h1.689c0.258,0,0.512,0.025,0.748,0.074c0.242,0.054,0.449,0.14,0.637,0.26
		c0.184,0.121,0.332,0.275,0.439,0.479c0.109,0.199,0.164,0.449,0.164,0.742c0,0.311-0.057,0.569-0.178,0.774
		c-0.117,0.203-0.271,0.357-0.453,0.478c-0.183,0.121-0.388,0.205-0.605,0.25c-0.219,0.053-0.428,0.074-0.625,0.074h-1.143v2.553
		h-0.674V66.927L107.85,66.927z M108.523,69.429h1.143c0.334,0,0.613-0.074,0.824-0.229c0.213-0.152,0.314-0.385,0.314-0.709
		c0-0.318-0.103-0.561-0.314-0.715c-0.211-0.148-0.49-0.229-0.824-0.229h-1.143V69.429z"/>
	<path fill="#49809B" d="M113.863,66.927h0.639l2.416,5.685h-0.791l-0.574-1.398h-2.844l-0.582,1.398h-0.764L113.863,66.927z
		 M114.17,67.789h-0.016l-1.18,2.799h2.319L114.17,67.789z"/>
	<path fill="#49809B" d="M117.67,66.927h1.451c0.275,0,0.547,0.017,0.816,0.05c0.27,0.03,0.514,0.102,0.725,0.207
		c0.215,0.108,0.389,0.266,0.525,0.473c0.133,0.201,0.198,0.484,0.198,0.836c0,0.42-0.122,0.756-0.377,1.012
		c-0.252,0.256-0.6,0.418-1.043,0.488l1.611,2.619h-0.824l-1.545-2.551h-0.867v2.551h-0.672L117.67,66.927L117.67,66.927z
		 M118.342,69.429h0.604c0.189,0,0.386-0.003,0.582-0.017c0.197-0.01,0.386-0.045,0.556-0.104c0.168-0.058,0.308-0.148,0.418-0.273
		c0.106-0.123,0.162-0.307,0.162-0.543c0-0.205-0.037-0.367-0.121-0.49c-0.078-0.123-0.183-0.217-0.312-0.285
		c-0.133-0.063-0.279-0.108-0.443-0.133c-0.16-0.021-0.328-0.035-0.492-0.035h-0.951v1.881H118.342z"/>
	<path fill="#49809B" d="M128.467,72.611h-3.299c-0.418,0-0.803-0.072-1.156-0.23c-0.359-0.143-0.668-0.346-0.93-0.606
		c-0.258-0.265-0.463-0.568-0.609-0.924c-0.149-0.354-0.225-0.74-0.225-1.154c0-0.412,0.074-0.793,0.225-1.152
		c0.146-0.354,0.353-0.664,0.609-0.924c0.262-0.258,0.57-0.461,0.93-0.613c0.354-0.149,0.738-0.223,1.156-0.223
		s0.805,0.072,1.158,0.223c0.357,0.152,0.666,0.354,0.924,0.613c0.26,0.26,0.465,0.57,0.617,0.924
		c0.148,0.359,0.225,0.74,0.225,1.152c0,0.244-0.035,0.479-0.094,0.721c-0.068,0.24-0.16,0.459-0.279,0.666
		c-0.121,0.207-0.268,0.392-0.438,0.556c-0.168,0.161-0.355,0.291-0.57,0.379v0.02h1.756V72.611L128.467,72.611z M122.969,69.695
		c0,0.322,0.055,0.621,0.166,0.897c0.113,0.281,0.266,0.521,0.465,0.728c0.197,0.207,0.428,0.371,0.691,0.49
		c0.271,0.116,0.562,0.176,0.879,0.176c0.309,0,0.602-0.06,0.869-0.176c0.273-0.119,0.502-0.281,0.699-0.49
		c0.191-0.205,0.352-0.445,0.461-0.728c0.113-0.276,0.168-0.575,0.168-0.897c0-0.314-0.055-0.615-0.16-0.889
		c-0.115-0.279-0.268-0.521-0.461-0.73c-0.193-0.207-0.424-0.367-0.693-0.488c-0.266-0.119-0.561-0.184-0.885-0.184
		c-0.32,0-0.617,0.063-0.885,0.184c-0.268,0.121-0.498,0.281-0.693,0.488c-0.193,0.209-0.35,0.451-0.457,0.73
		C123.023,69.08,122.969,69.381,122.969,69.695z"/>
	<path fill="#49809B" d="M133.531,70.443c0,0.311-0.039,0.604-0.113,0.885c-0.076,0.273-0.197,0.523-0.369,0.73
		c-0.168,0.215-0.391,0.383-0.66,0.508c-0.279,0.127-0.606,0.188-1.002,0.188c-0.389,0-0.715-0.061-0.992-0.188
		c-0.272-0.125-0.49-0.293-0.662-0.508c-0.17-0.207-0.293-0.457-0.373-0.73c-0.071-0.279-0.112-0.574-0.112-0.885v-3.517h0.674
		v3.418c0,0.232,0.024,0.455,0.076,0.673c0.045,0.207,0.125,0.397,0.235,0.565c0.115,0.162,0.265,0.297,0.451,0.396
		c0.188,0.102,0.422,0.149,0.703,0.149c0.287,0,0.521-0.049,0.707-0.149c0.188-0.101,0.342-0.232,0.453-0.396
		c0.111-0.168,0.189-0.356,0.24-0.565c0.045-0.218,0.07-0.439,0.07-0.673v-3.418h0.672v3.517H133.531z"/>
	<path fill="#49809B" d="M134.924,66.927h3.568v0.621h-2.895v1.785h2.704v0.627h-2.704v2.023h3.041v0.627h-3.716L134.924,66.927
		L134.924,66.927z"/>
	<path fill="#49809B" d="M145.898,68.097c-0.172-0.229-0.385-0.402-0.633-0.517c-0.252-0.117-0.517-0.178-0.793-0.178
		c-0.314,0-0.604,0.068-0.867,0.195c-0.267,0.131-0.494,0.305-0.688,0.52c-0.194,0.217-0.344,0.469-0.447,0.758
		c-0.108,0.283-0.161,0.584-0.161,0.896c0,0.328,0.055,0.639,0.161,0.926c0.104,0.283,0.253,0.535,0.441,0.742
		c0.192,0.215,0.42,0.383,0.684,0.5c0.267,0.127,0.562,0.188,0.88,0.188c0.352,0,0.661-0.071,0.934-0.201
		c0.275-0.139,0.51-0.336,0.711-0.596l0.51,0.428c-0.256,0.339-0.564,0.593-0.928,0.752c-0.364,0.16-0.768,0.242-1.227,0.242
		c-0.406,0-0.783-0.073-1.138-0.227c-0.354-0.148-0.657-0.354-0.92-0.619c-0.26-0.266-0.463-0.578-0.61-0.943
		c-0.146-0.36-0.222-0.762-0.222-1.192c0-0.42,0.07-0.812,0.211-1.172c0.146-0.369,0.345-0.683,0.603-0.955
		c0.256-0.263,0.562-0.476,0.912-0.634c0.358-0.151,0.739-0.229,1.164-0.229c0.391,0,0.758,0.068,1.112,0.207
		c0.354,0.141,0.649,0.367,0.897,0.682L145.898,68.097z"/>
	<path fill="#49809B" d="M147.564,66.927h0.682v5.685h-0.682V66.927z"/>
	<path fill="#49809B" d="M149.656,66.927h3.57v0.621h-2.898v1.785h2.707v0.627h-2.707v2.023h3.041v0.627h-3.713V66.927z"/>
	<path fill="#49809B" d="M154.416,66.927h0.85l3.289,4.724h0.021v-4.724h0.674v5.685H158.4l-3.297-4.719h-0.015v4.719h-0.674
		L154.416,66.927L154.416,66.927z"/>
	<path fill="#49809B" d="M164.473,67.549h-1.879v5.062h-0.674v-5.062h-1.877v-0.621h4.43V67.549L164.473,67.549z"/>
	<path fill="#49809B" d="M165.887,65.371h0.885l-1.151,1.154h-0.568L165.887,65.371z M165.27,66.927h0.674v5.685h-0.674V66.927z"/>
	<path fill="#49809B" d="M167.354,66.927h3.527v0.621h-2.848v1.882h2.65v0.631h-2.65v2.551h-0.68V66.927L167.354,66.927z"/>
	<path fill="#49809B" d="M171.822,66.927h0.674v5.685h-0.674V66.927z"/>
	<path fill="#49809B" d="M177.891,68.097c-0.176-0.229-0.383-0.402-0.637-0.517c-0.25-0.117-0.514-0.178-0.789-0.178
		c-0.312,0-0.602,0.068-0.867,0.195c-0.264,0.131-0.492,0.305-0.688,0.52c-0.193,0.217-0.342,0.469-0.449,0.758
		c-0.104,0.283-0.156,0.584-0.156,0.896c0,0.328,0.053,0.639,0.156,0.926c0.109,0.283,0.256,0.535,0.445,0.742
		c0.193,0.215,0.418,0.383,0.686,0.5c0.264,0.127,0.555,0.188,0.875,0.188c0.348,0,0.656-0.071,0.938-0.201
		c0.268-0.139,0.506-0.336,0.711-0.596l0.506,0.428c-0.261,0.339-0.563,0.593-0.931,0.752c-0.358,0.16-0.77,0.242-1.227,0.242
		c-0.404,0-0.783-0.073-1.137-0.227c-0.352-0.148-0.662-0.354-0.918-0.619c-0.262-0.266-0.465-0.578-0.613-0.943
		c-0.145-0.36-0.219-0.762-0.219-1.192c0-0.42,0.068-0.812,0.213-1.172c0.141-0.369,0.342-0.683,0.596-0.955
		c0.256-0.263,0.564-0.476,0.918-0.634c0.355-0.151,0.74-0.229,1.16-0.229c0.391,0,0.76,0.068,1.113,0.207
		c0.357,0.141,0.654,0.367,0.898,0.682L177.891,68.097z"/>
	<path fill="#49809B" d="M182.205,72.754c-0.438,0-0.834-0.071-1.199-0.225c-0.357-0.15-0.674-0.354-0.938-0.619
		c-0.267-0.268-0.467-0.582-0.615-0.949c-0.154-0.367-0.223-0.766-0.223-1.188c0-0.433,0.067-0.83,0.223-1.191
		c0.148-0.371,0.35-0.686,0.615-0.949c0.264-0.264,0.58-0.473,0.938-0.623c0.365-0.151,0.762-0.225,1.199-0.225
		c0.428,0,0.824,0.072,1.189,0.225c0.356,0.152,0.676,0.359,0.936,0.623c0.264,0.265,0.471,0.578,0.617,0.949
		c0.152,0.361,0.223,0.76,0.223,1.191c0,0.424-0.07,0.821-0.223,1.188c-0.148,0.367-0.354,0.683-0.617,0.949
		c-0.26,0.266-0.578,0.469-0.936,0.619C183.029,72.681,182.633,72.754,182.205,72.754z M182.205,72.129
		c0.328,0,0.631-0.061,0.906-0.188c0.274-0.117,0.51-0.285,0.709-0.502c0.199-0.215,0.354-0.465,0.465-0.75
		c0.107-0.283,0.164-0.59,0.164-0.916c0-0.328-0.057-0.633-0.164-0.924c-0.111-0.283-0.266-0.535-0.465-0.75
		c-0.199-0.216-0.435-0.38-0.709-0.502c-0.275-0.128-0.578-0.191-0.906-0.191c-0.336,0-0.641,0.063-0.914,0.191
		c-0.275,0.122-0.516,0.286-0.709,0.502c-0.201,0.215-0.359,0.467-0.465,0.75c-0.111,0.291-0.164,0.596-0.164,0.924
		c0,0.326,0.053,0.633,0.164,0.916c0.105,0.285,0.264,0.535,0.465,0.75c0.193,0.217,0.434,0.385,0.709,0.502
		C181.564,72.068,181.869,72.129,182.205,72.129z"/>
	<path fill="#49809B" d="M111.664,75.779h-1.879v5.055h-0.674v-5.055h-1.879V75.15h4.432V75.779L111.664,75.779z"/>
	<path fill="#49809B" d="M112.461,75.15h3.572v0.629h-2.9v1.777h2.709v0.627h-2.709v2.026h3.045v0.623h-3.717V75.15z"/>
	<path fill="#49809B" d="M121.203,76.32c-0.174-0.229-0.383-0.4-0.637-0.514c-0.25-0.119-0.512-0.173-0.787-0.173
		c-0.312,0-0.604,0.062-0.867,0.189c-0.264,0.127-0.498,0.303-0.689,0.52c-0.193,0.22-0.34,0.472-0.449,0.757
		c-0.106,0.284-0.159,0.584-0.159,0.895c0,0.328,0.053,0.639,0.159,0.922c0.109,0.289,0.254,0.543,0.447,0.748
		c0.189,0.215,0.418,0.379,0.684,0.506c0.265,0.123,0.56,0.183,0.875,0.183c0.349,0,0.658-0.068,0.935-0.205
		c0.271-0.133,0.513-0.334,0.713-0.59l0.509,0.428c-0.256,0.346-0.57,0.596-0.929,0.756c-0.358,0.158-0.771,0.238-1.225,0.238
		c-0.404,0-0.787-0.072-1.142-0.228c-0.352-0.149-0.66-0.356-0.92-0.621c-0.256-0.264-0.461-0.578-0.609-0.94
		c-0.145-0.367-0.219-0.765-0.219-1.197c0-0.418,0.07-0.809,0.211-1.174c0.146-0.363,0.342-0.683,0.599-0.945
		c0.26-0.27,0.562-0.479,0.918-0.633c0.353-0.156,0.739-0.236,1.159-0.236c0.386,0,0.761,0.07,1.113,0.213
		c0.357,0.136,0.654,0.363,0.896,0.683L121.203,76.32z"/>
	<path fill="#49809B" d="M122.875,75.15h0.85l3.289,4.723h0.019V75.15h0.676v5.684h-0.851l-3.295-4.719h-0.014v4.719h-0.674V75.15
		L122.875,75.15z"/>
	<path fill="#49809B" d="M131.76,80.978c-0.432,0-0.832-0.07-1.191-0.226c-0.364-0.149-0.676-0.356-0.938-0.623
		c-0.271-0.262-0.473-0.578-0.621-0.946c-0.143-0.365-0.217-0.761-0.217-1.189c0-0.426,0.074-0.83,0.217-1.193
		c0.148-0.368,0.353-0.682,0.621-0.946c0.265-0.269,0.574-0.474,0.938-0.621c0.359-0.156,0.761-0.229,1.191-0.229
		c0.436,0,0.828,0.072,1.193,0.229c0.359,0.147,0.672,0.354,0.939,0.621c0.264,0.266,0.471,0.578,0.616,0.946
		c0.148,0.363,0.216,0.767,0.216,1.193c0,0.43-0.066,0.824-0.216,1.189c-0.146,0.368-0.354,0.686-0.616,0.946
		c-0.269,0.267-0.58,0.474-0.939,0.623C132.588,80.908,132.195,80.978,131.76,80.978z M131.76,80.351c0.332,0,0.633-0.06,0.91-0.183
		c0.273-0.127,0.514-0.295,0.713-0.506c0.197-0.215,0.352-0.469,0.457-0.754c0.107-0.283,0.17-0.59,0.17-0.916
		c0-0.328-0.062-0.637-0.17-0.92c-0.105-0.285-0.26-0.539-0.457-0.754c-0.199-0.211-0.439-0.381-0.713-0.504
		c-0.277-0.125-0.578-0.183-0.91-0.183c-0.328,0-0.637,0.058-0.914,0.183c-0.271,0.123-0.512,0.293-0.707,0.504
		c-0.201,0.215-0.354,0.469-0.463,0.754c-0.109,0.283-0.168,0.592-0.168,0.92c0,0.326,0.059,0.633,0.168,0.916
		c0.109,0.285,0.262,0.539,0.463,0.754c0.195,0.211,0.437,0.379,0.707,0.506C131.123,80.293,131.432,80.351,131.76,80.351z"/>
	<path fill="#49809B" d="M135.812,75.15h0.672v5.061h2.604v0.623h-3.276V75.15z"/>
	<path fill="#49809B" d="M142.469,80.978c-0.434,0-0.832-0.07-1.189-0.226c-0.364-0.149-0.676-0.356-0.938-0.623
		c-0.27-0.262-0.477-0.578-0.625-0.946c-0.145-0.365-0.217-0.761-0.217-1.189c0-0.426,0.072-0.83,0.217-1.193
		c0.148-0.368,0.355-0.682,0.625-0.946c0.262-0.269,0.572-0.474,0.938-0.621c0.357-0.156,0.757-0.229,1.189-0.229
		c0.436,0,0.828,0.072,1.189,0.229c0.363,0.147,0.678,0.354,0.943,0.621c0.266,0.266,0.469,0.578,0.616,0.946
		c0.146,0.363,0.22,0.767,0.22,1.193c0,0.43-0.074,0.824-0.22,1.189c-0.147,0.368-0.352,0.686-0.616,0.946
		c-0.267,0.267-0.58,0.474-0.943,0.623C143.297,80.908,142.904,80.978,142.469,80.978z M142.469,80.351
		c0.332,0,0.637-0.06,0.912-0.183c0.273-0.127,0.51-0.295,0.707-0.506c0.199-0.215,0.352-0.469,0.465-0.754
		c0.107-0.283,0.164-0.59,0.164-0.916c0-0.328-0.057-0.637-0.164-0.92c-0.113-0.285-0.266-0.539-0.465-0.754
		c-0.197-0.211-0.434-0.381-0.707-0.504c-0.277-0.125-0.58-0.183-0.912-0.183c-0.334,0-0.637,0.058-0.914,0.183
		c-0.271,0.123-0.512,0.293-0.705,0.504c-0.199,0.215-0.352,0.469-0.465,0.754c-0.107,0.283-0.166,0.592-0.166,0.92
		c0,0.326,0.059,0.633,0.166,0.916c0.111,0.285,0.266,0.539,0.465,0.754c0.193,0.211,0.435,0.379,0.705,0.506
		C141.832,80.293,142.135,80.351,142.469,80.351z M142.748,73.594h0.885l-1.152,1.156h-0.563L142.748,73.594z"/>
	<path fill="#49809B" d="M151.355,80.451c-0.328,0.182-0.67,0.314-1.031,0.396c-0.363,0.09-0.727,0.133-1.096,0.133
		c-0.445,0-0.853-0.072-1.222-0.22c-0.366-0.145-0.688-0.348-0.961-0.61c-0.271-0.262-0.479-0.578-0.629-0.941
		c-0.147-0.367-0.226-0.77-0.226-1.215c0-0.449,0.08-0.854,0.238-1.227c0.154-0.363,0.377-0.677,0.65-0.938
		c0.279-0.262,0.605-0.461,0.975-0.604c0.367-0.146,0.769-0.22,1.197-0.22c0.371,0,0.73,0.06,1.08,0.17
		c0.342,0.113,0.652,0.306,0.928,0.574l-0.51,0.533c-0.191-0.211-0.424-0.367-0.701-0.484c-0.275-0.108-0.559-0.164-0.85-0.164
		c-0.324,0-0.629,0.06-0.902,0.175c-0.279,0.121-0.523,0.282-0.725,0.489c-0.213,0.209-0.371,0.457-0.484,0.746
		c-0.117,0.293-0.174,0.605-0.174,0.949c0,0.336,0.057,0.648,0.174,0.936c0.113,0.291,0.271,0.544,0.484,0.757
		c0.201,0.207,0.449,0.371,0.738,0.491c0.293,0.117,0.608,0.175,0.957,0.175c0.229,0,0.469-0.021,0.721-0.082
		c0.254-0.06,0.484-0.136,0.688-0.244v-1.742h-1.305V77.66h1.981v2.791H151.355z"/>
	<path fill="#49809B" d="M152.77,75.15h0.67v5.684h-0.67V75.15z"/>
	<path fill="#49809B" d="M158.838,76.32c-0.168-0.229-0.381-0.4-0.635-0.514c-0.252-0.119-0.51-0.173-0.787-0.173
		c-0.314,0-0.607,0.062-0.873,0.189c-0.26,0.127-0.488,0.303-0.686,0.52c-0.191,0.22-0.34,0.472-0.447,0.757
		c-0.107,0.284-0.16,0.584-0.16,0.895c0,0.328,0.055,0.639,0.16,0.922c0.107,0.289,0.256,0.543,0.443,0.748
		c0.188,0.215,0.418,0.379,0.684,0.506c0.266,0.123,0.555,0.183,0.879,0.183c0.35,0,0.66-0.068,0.932-0.205
		c0.273-0.133,0.514-0.334,0.717-0.59l0.506,0.428c-0.256,0.346-0.567,0.596-0.926,0.756c-0.365,0.158-0.772,0.238-1.229,0.238
		c-0.406,0-0.783-0.072-1.143-0.228c-0.353-0.149-0.656-0.356-0.916-0.621c-0.263-0.264-0.463-0.578-0.611-0.94
		c-0.148-0.367-0.221-0.765-0.221-1.197c0-0.418,0.072-0.809,0.217-1.174c0.139-0.363,0.336-0.683,0.594-0.945
		c0.256-0.27,0.564-0.479,0.918-0.633c0.354-0.156,0.74-0.236,1.162-0.236c0.387,0,0.76,0.07,1.109,0.213
		c0.36,0.136,0.658,0.363,0.897,0.683L158.838,76.32z"/>
	<path fill="#49809B" d="M163.15,80.978c-0.437,0-0.832-0.07-1.191-0.226c-0.359-0.149-0.678-0.356-0.939-0.623
		c-0.264-0.262-0.473-0.578-0.623-0.946c-0.143-0.365-0.219-0.761-0.219-1.189c0-0.426,0.076-0.83,0.219-1.193
		c0.152-0.368,0.359-0.682,0.623-0.946c0.263-0.269,0.58-0.474,0.939-0.621c0.359-0.156,0.756-0.229,1.191-0.229
		c0.435,0,0.832,0.072,1.188,0.229c0.361,0.147,0.675,0.354,0.938,0.621c0.269,0.266,0.478,0.578,0.621,0.946
		c0.148,0.363,0.222,0.767,0.222,1.193c0,0.43-0.072,0.824-0.222,1.189c-0.145,0.368-0.354,0.686-0.621,0.946
		c-0.266,0.267-0.577,0.474-0.938,0.623C163.982,80.908,163.586,80.978,163.15,80.978z M163.15,80.351
		c0.33,0,0.637-0.06,0.908-0.183c0.278-0.127,0.514-0.295,0.717-0.506c0.195-0.215,0.352-0.469,0.461-0.754
		c0.106-0.283,0.16-0.59,0.16-0.916c0-0.328-0.056-0.637-0.16-0.92c-0.109-0.285-0.267-0.539-0.461-0.754
		c-0.203-0.211-0.438-0.381-0.717-0.504c-0.271-0.125-0.578-0.183-0.908-0.183s-0.64,0.058-0.91,0.183
		c-0.277,0.123-0.512,0.293-0.713,0.504c-0.199,0.215-0.354,0.469-0.463,0.754c-0.109,0.283-0.162,0.592-0.162,0.92
		c0,0.326,0.055,0.633,0.162,0.916c0.108,0.285,0.264,0.539,0.463,0.754c0.201,0.211,0.436,0.379,0.713,0.506
		C162.512,80.293,162.818,80.351,163.15,80.351z"/>
	<path fill="#49809B" d="M107.746,83.377h2.184c0.188,0,0.387,0.021,0.594,0.064c0.211,0.035,0.42,0.108,0.627,0.205
		c0.205,0.092,0.4,0.215,0.591,0.362c0.19,0.148,0.358,0.332,0.508,0.543c0.137,0.209,0.254,0.453,0.34,0.729
		c0.084,0.275,0.129,0.592,0.129,0.938c0,0.343-0.045,0.658-0.129,0.933c-0.086,0.276-0.203,0.521-0.34,0.733
		c-0.147,0.212-0.317,0.394-0.508,0.541c-0.189,0.146-0.386,0.271-0.591,0.363c-0.207,0.094-0.416,0.162-0.627,0.207
		c-0.207,0.041-0.405,0.062-0.594,0.062h-2.184V83.377z M108.422,88.435h1.287c0.324,0,0.627-0.043,0.904-0.131
		c0.279-0.085,0.521-0.22,0.725-0.398c0.201-0.182,0.361-0.41,0.48-0.688c0.117-0.274,0.176-0.608,0.176-1.002
		c0-0.393-0.059-0.729-0.176-1.004c-0.119-0.276-0.279-0.51-0.48-0.686c-0.205-0.18-0.445-0.312-0.725-0.4
		c-0.277-0.086-0.58-0.127-0.904-0.127h-1.287V88.435z"/>
	<path fill="#49809B" d="M113.803,83.377h3.57v0.625h-2.896v1.781h2.699v0.625h-2.699v2.027h3.041v0.621h-3.715V83.377z"/>
	<path fill="#49809B" d="M124.775,84.547c-0.168-0.229-0.385-0.399-0.633-0.518c-0.252-0.115-0.515-0.172-0.793-0.172
		c-0.312,0-0.604,0.059-0.863,0.192c-0.269,0.132-0.496,0.298-0.688,0.519c-0.196,0.215-0.348,0.465-0.455,0.754
		c-0.102,0.285-0.155,0.582-0.155,0.896c0,0.332,0.055,0.64,0.155,0.929c0.109,0.28,0.259,0.53,0.447,0.744
		c0.188,0.211,0.418,0.377,0.685,0.502c0.266,0.125,0.559,0.184,0.875,0.184c0.354,0,0.661-0.072,0.938-0.205
		c0.27-0.139,0.51-0.332,0.713-0.588l0.504,0.424c-0.254,0.34-0.564,0.594-0.926,0.754c-0.361,0.162-0.771,0.24-1.229,0.24
		c-0.404,0-0.779-0.074-1.136-0.221c-0.354-0.154-0.664-0.359-0.92-0.627c-0.26-0.265-0.459-0.576-0.608-0.941
		c-0.146-0.365-0.224-0.762-0.224-1.195c0-0.418,0.07-0.811,0.211-1.174c0.146-0.36,0.347-0.678,0.604-0.944
		c0.256-0.273,0.562-0.479,0.912-0.638c0.354-0.153,0.74-0.229,1.16-0.229c0.391,0,0.762,0.069,1.112,0.211
		c0.356,0.137,0.654,0.365,0.897,0.678L124.775,84.547z"/>
	<path fill="#49809B" d="M129.088,89.203c-0.432,0-0.832-0.076-1.191-0.221c-0.364-0.156-0.676-0.359-0.938-0.627
		c-0.271-0.267-0.474-0.578-0.621-0.951c-0.146-0.361-0.219-0.756-0.219-1.187c0-0.432,0.073-0.827,0.219-1.19
		c0.147-0.367,0.353-0.687,0.621-0.953c0.265-0.264,0.574-0.469,0.938-0.619c0.359-0.147,0.761-0.225,1.191-0.225
		c0.434,0,0.83,0.076,1.191,0.225c0.361,0.152,0.674,0.355,0.94,0.619c0.263,0.268,0.472,0.586,0.615,0.953
		c0.147,0.363,0.22,0.76,0.22,1.19s-0.07,0.824-0.22,1.187c-0.146,0.373-0.353,0.686-0.615,0.951
		c-0.268,0.268-0.579,0.471-0.94,0.627C129.916,89.127,129.521,89.203,129.088,89.203z M129.088,88.576
		c0.332,0,0.633-0.059,0.91-0.184c0.271-0.125,0.512-0.289,0.713-0.504c0.193-0.218,0.352-0.466,0.459-0.75
		c0.107-0.289,0.162-0.595,0.162-0.921c0-0.325-0.057-0.639-0.162-0.922c-0.109-0.282-0.266-0.535-0.459-0.75
		c-0.201-0.213-0.441-0.379-0.713-0.504c-0.277-0.125-0.578-0.186-0.91-0.186s-0.641,0.061-0.914,0.186s-0.514,0.291-0.709,0.504
		c-0.199,0.215-0.352,0.468-0.463,0.75c-0.105,0.283-0.164,0.597-0.164,0.922c0,0.326,0.059,0.632,0.164,0.921
		c0.111,0.284,0.264,0.532,0.463,0.75c0.195,0.215,0.436,0.379,0.709,0.504S128.754,88.576,129.088,88.576z M129.365,81.814h0.887
		l-1.152,1.162h-0.563L129.365,81.814z"/>
	<path fill="#49809B" d="M133.141,83.377h1.451c0.279,0,0.547,0.017,0.814,0.043c0.273,0.035,0.514,0.107,0.729,0.215
		c0.215,0.104,0.389,0.257,0.521,0.468c0.133,0.205,0.203,0.487,0.203,0.84c0,0.416-0.127,0.75-0.381,1.012
		c-0.25,0.256-0.599,0.418-1.043,0.488l1.614,2.615h-0.825l-1.541-2.554h-0.871v2.554h-0.672V83.377L133.141,83.377z
		 M133.812,85.881h0.604c0.188,0,0.383-0.006,0.586-0.016c0.199-0.008,0.379-0.045,0.549-0.104c0.168-0.062,0.311-0.153,0.42-0.278
		s0.164-0.308,0.164-0.541c0-0.205-0.041-0.369-0.121-0.49c-0.078-0.125-0.188-0.219-0.318-0.285
		c-0.131-0.063-0.276-0.11-0.436-0.131c-0.166-0.022-0.332-0.035-0.498-0.035h-0.949V85.881L133.812,85.881z"/>
	<path fill="#49809B" d="M137.941,83.377h2.18c0.193,0,0.387,0.021,0.6,0.064c0.205,0.035,0.414,0.108,0.619,0.205
		c0.209,0.092,0.404,0.215,0.59,0.362c0.199,0.148,0.363,0.332,0.51,0.543c0.144,0.209,0.254,0.453,0.345,0.729
		c0.084,0.275,0.125,0.592,0.125,0.938c0,0.343-0.041,0.658-0.125,0.933c-0.091,0.276-0.201,0.521-0.345,0.733
		c-0.146,0.212-0.311,0.394-0.51,0.541c-0.184,0.146-0.381,0.271-0.59,0.363c-0.205,0.094-0.414,0.162-0.619,0.207
		c-0.213,0.041-0.406,0.062-0.6,0.062h-2.18V83.377z M138.615,88.435h1.287c0.322,0,0.629-0.043,0.904-0.131
		c0.276-0.085,0.52-0.22,0.723-0.398c0.205-0.182,0.361-0.41,0.479-0.688c0.121-0.274,0.181-0.608,0.181-1.002
		c0-0.393-0.06-0.729-0.181-1.004c-0.118-0.276-0.274-0.51-0.479-0.686c-0.205-0.18-0.445-0.312-0.723-0.4
		c-0.275-0.086-0.582-0.127-0.904-0.127h-1.287V88.435z"/>
	<path fill="#49809B" d="M146.637,89.203c-0.432,0-0.828-0.076-1.191-0.221c-0.362-0.156-0.676-0.359-0.938-0.627
		c-0.268-0.267-0.471-0.578-0.618-0.951c-0.146-0.361-0.218-0.756-0.218-1.187c0-0.432,0.072-0.827,0.218-1.19
		c0.147-0.367,0.354-0.687,0.618-0.953c0.265-0.264,0.576-0.469,0.938-0.619c0.363-0.147,0.761-0.225,1.191-0.225
		c0.43,0,0.83,0.076,1.193,0.225c0.361,0.152,0.67,0.355,0.934,0.619c0.271,0.268,0.476,0.586,0.623,0.953
		c0.146,0.363,0.219,0.76,0.219,1.19s-0.073,0.824-0.219,1.187c-0.147,0.373-0.352,0.686-0.623,0.951
		c-0.264,0.268-0.57,0.471-0.934,0.627C147.467,89.127,147.066,89.203,146.637,89.203z M146.637,88.576
		c0.332,0,0.635-0.059,0.912-0.184c0.271-0.125,0.512-0.289,0.709-0.504c0.193-0.218,0.35-0.466,0.461-0.75
		c0.107-0.289,0.162-0.595,0.162-0.921c0-0.325-0.055-0.639-0.162-0.922c-0.111-0.282-0.268-0.535-0.461-0.75
		c-0.197-0.213-0.438-0.379-0.709-0.504c-0.277-0.125-0.58-0.186-0.912-0.186c-0.334,0-0.639,0.061-0.912,0.186
		c-0.274,0.125-0.512,0.291-0.709,0.504c-0.199,0.215-0.352,0.468-0.463,0.75c-0.109,0.283-0.168,0.597-0.168,0.922
		c0,0.326,0.059,0.632,0.168,0.921c0.111,0.284,0.264,0.532,0.463,0.75c0.197,0.215,0.435,0.379,0.709,0.504
		C145.998,88.517,146.303,88.576,146.637,88.576z"/>
	<path fill="#49809B" d="M150.688,83.377h1.736c0.238,0,0.469,0.021,0.689,0.07c0.229,0.051,0.426,0.125,0.604,0.238
		c0.175,0.106,0.32,0.248,0.429,0.428c0.108,0.178,0.164,0.396,0.164,0.658c0,0.332-0.088,0.606-0.271,0.821
		c-0.181,0.22-0.422,0.373-0.724,0.468v0.012c0.181,0.016,0.351,0.061,0.511,0.137c0.151,0.08,0.293,0.181,0.405,0.306
		c0.117,0.123,0.203,0.268,0.271,0.43c0.062,0.16,0.095,0.34,0.095,0.524c0,0.314-0.066,0.574-0.195,0.777
		c-0.131,0.207-0.305,0.367-0.519,0.486c-0.207,0.123-0.444,0.203-0.709,0.254c-0.264,0.045-0.528,0.07-0.797,0.07h-1.69V83.377
		L150.688,83.377z M151.365,85.783h0.932c0.16,0,0.316-0.01,0.473-0.031c0.148-0.021,0.285-0.065,0.408-0.133
		c0.125-0.066,0.223-0.16,0.297-0.281s0.117-0.28,0.117-0.479c0-0.174-0.039-0.318-0.111-0.426
		c-0.062-0.113-0.159-0.199-0.274-0.261c-0.113-0.065-0.244-0.108-0.396-0.135c-0.145-0.025-0.295-0.037-0.444-0.037h-1.002
		L151.365,85.783L151.365,85.783L151.365,85.783z M151.365,88.435h1.141c0.166,0,0.332-0.019,0.492-0.058
		c0.162-0.033,0.309-0.092,0.443-0.17c0.131-0.074,0.235-0.176,0.312-0.303c0.086-0.121,0.121-0.279,0.121-0.461
		c0-0.201-0.035-0.365-0.115-0.498c-0.077-0.133-0.176-0.238-0.305-0.322c-0.125-0.078-0.271-0.135-0.431-0.168
		c-0.166-0.031-0.334-0.049-0.5-0.049h-1.159L151.365,88.435L151.365,88.435z"/>
	<path fill="#49809B" d="M157.592,83.377h0.639l2.416,5.681h-0.789l-0.578-1.396h-2.844l-0.584,1.396h-0.762L157.592,83.377z
		 M157.896,84.238h-0.017l-1.178,2.795h2.317L157.896,84.238z"/>
</g>
<rect x="196.74" y="18.36" fill="#49809B" width="3.424" height="24.211"/>
<g>
	<path fill="#49809B" d="M183.924,21.835c5.607,0,6.535,5.712,2.752,8.422h0.037l-6.51,5.543l2.352,2.351
		c2.453-2.013,3.529-2.816,6.459-5.244c6.502-4.535,4.021-14.546-5.09-14.546c-5.018,0-7.771,3.508-8.387,7.809l3.473,0.272
		C179.42,23.76,180.963,21.835,183.924,21.835z"/>
	<polygon fill="#49809B" points="186.971,42.571 194.336,42.571 194.336,39.234 183.631,39.234 	"/>
</g>
<path fill="#49809B" d="M-0.165,36.148h11.209c3.621,0,6.128,0.943,7.723,2.57c1.388,1.352,2.097,3.185,2.097,5.521v0.066
	c0,3.625-1.929,6.027-4.873,7.284l5.654,8.262h-7.587l-4.777-7.18H9.216H6.404v7.18h-6.569V36.148z M10.737,47.527
	c2.236,0,3.523-1.084,3.523-2.812v-0.068c0-1.859-1.352-2.809-3.554-2.809H6.404v5.69L10.737,47.527L10.737,47.527z"/>
<path fill="#49809B" d="M42.254,36.148h12.157c2.986,0,5.083,0.744,6.467,2.134c0.949,0.948,1.525,2.199,1.525,3.826v0.066
	c0,2.743-1.555,4.369-3.653,5.282c2.875,0.951,4.702,2.578,4.702,5.791v0.066c0,4.064-3.316,6.538-8.975,6.538H42.254V36.148z
	 M52.787,45.594c1.998,0,3.114-0.676,3.114-2.064v-0.066c0-1.287-1.012-2.028-2.979-2.028h-4.267v4.162L52.787,45.594L52.787,45.594
	z M53.734,54.57c2,0,3.153-0.777,3.153-2.169v-0.066c0-1.287-1.018-2.135-3.219-2.135h-5.014v4.371L53.734,54.57L53.734,54.57z"/>
<path fill="#49809B" d="M84.758,36.148h6.129l9.753,12.525V36.148h6.506v23.703h-5.763L91.261,46.847v13.004h-6.503V36.148z"/>
<path fill="#49809B" d="M129.48,36.148h6.571v17.95h11.48v5.753H129.48V36.148z"/>
<path fill="#49809B" d="M145.523,36.148h19.067v5.584h-12.562v3.593h11.379v5.181h-11.379v3.757h12.731v5.589h-19.237V36.148
	L145.523,36.148z"/>
<polygon fill="#49809B" points="76.611,35.975 70.275,35.975 60.187,59.851 67.092,59.851 73.391,43.959 79.656,59.851 86.7,59.851 
	"/>
<polygon fill="#49809B" points="121.064,35.975 114.729,35.975 104.641,59.851 111.543,59.851 117.844,43.959 124.111,59.851 
	131.154,59.851 "/>
<polygon fill="#49809B" points="35.534,35.975 29.201,35.975 19.109,59.851 26.017,59.851 32.313,43.959 38.578,59.851 
	45.628,59.851 "/>
<path fill="#49809B" d="M175.215,45.086c-3.287-0.743-4.1-1.218-4.1-2.3v-0.069c0-0.848,0.777-1.524,2.371-1.524
	c1.555,0,3.254,0.449,4.912,1.292l-6.619-6.615c-4.572,0.623-7.301,3.564-7.301,7.458v0.069c0,4.875,3.896,6.297,8.938,7.447
	c3.223,0.747,4,1.288,4,2.271v0.066c0,1.016-0.949,1.625-2.709,1.625c-2.748,0-5.354-0.98-7.691-2.841l-3.656,4.367
	c2.914,2.609,6.91,3.928,11.109,3.928c5.756,0,9.586-2.881,9.586-7.72v-0.073C184.053,48.03,180.668,46.271,175.215,45.086z"/>
</svg>
