<?xml version="1.0" encoding="utf-8"?>
<!-- Generator: Adobe Illustrator 16.0.0, SVG Export Plug-In . SVG Version: 6.00 Build 0)  -->
<!DOCTYPE svg PUBLIC "-//W3C//DTD SVG 1.1//EN" "http://www.w3.org/Graphics/SVG/1.1/DTD/svg11.dtd">
<svg version="1.1" id="Capa_1" xmlns="http://www.w3.org/2000/svg" xmlns:xlink="http://www.w3.org/1999/xlink" x="0px" y="0px"
	 width="200px" height="107.562px" viewBox="0 0 200 107.562" enable-background="new 0 0 200 107.562" xml:space="preserve">
<g>
	<g>
		<path fill="#FFFFFF" d="M15.421,63.247c-2.45-2.842-3.934-6.559-3.934-10.621c0-8.959,7.208-16.217,16.11-16.217
			c4.401,0,8.395,1.777,11.326,4.666l-2.271,2.352c-2.35-2.299-5.546-3.781-9.063-3.781c-7.13,0-12.905,5.816-12.905,12.99
			c0,4.383,2.157,8.262,5.458,10.611H15.421z"/>
		<path fill="#FFFFFF" d="M13.927,63.247c-2.252-2.934-3.59-6.611-3.59-10.604c0-9.586,7.721-17.355,17.241-17.355
			c1.584,0,3.133,0.211,4.599,0.619l1.148-4.105c-1.823-0.514-3.756-0.785-5.748-0.785c-11.87,0-21.491,9.688-21.491,21.637
			c0,3.844,0.999,7.463,2.752,10.594H13.927z"/>
		<path fill="#FFFFFF" d="M6.862,63.247c-1.617-3.178-2.523-6.779-2.523-10.594c0-12.898,10.372-23.355,23.181-23.389v-4.171
			C12.411,25.123,0.176,37.452,0.176,52.657c0,3.75,0.751,7.334,2.097,10.59H6.862z"/>
		<g>
			<path fill="#FFFFFF" d="M19.776,44.712c1.996-2.012,4.763-3.248,7.821-3.248c1.375,0,2.697,0.254,3.915,0.715l-6.026,9.74
				L19.776,44.712z"/>
			<path fill="#FFFFFF" d="M17.692,57.558c-1.274-2.537-1.594-5.57-0.65-8.488c0.425-1.32,1.071-2.512,1.886-3.529l7.341,8.777
				L17.692,57.558z"/>
			<path fill="#FFFFFF" d="M29.195,63.517c-2.798,0.443-5.756-0.191-8.229-1.992c-1.113-0.822-2.038-1.809-2.752-2.898l10.568-4.322
				L29.195,63.517z"/>
			<path fill="#FFFFFF" d="M38.378,54.349c-0.449,2.816-1.96,5.453-4.429,7.26c-1.117,0.812-2.334,1.389-3.585,1.738l-0.816-11.449
				L38.378,54.349z"/>
			<path fill="#FFFFFF" d="M32.553,42.728c2.519,1.303,4.542,3.562,5.491,6.482c0.421,1.32,0.596,2.66,0.536,3.973l-11.073-2.754
				L32.553,42.728z"/>
		</g>
	</g>
	<path fill-rule="evenodd" clip-rule="evenodd" fill="#FFFFFF" d="M196.871,41.169c-0.526,1.207-0.916,2.514-1.205,3.721
		l-0.283,0.193c-0.628-0.631,0.142-2.51-1.347-2.854c-2.304-1.205-5.138-1.645-7.681-0.529c-1.35,0.873-2.504,1.982-2.404,3.725
		c0.093,1.156,0.765,2.41,1.971,2.998c3.649,1.689,8.114,1.643,11.241,4.543c1.196,1.447,1.291,3.529,0.811,5.266
		c-1.103,2.562-3.599,4.213-6.342,4.697c-3.457,0.623-6.961,0.09-9.802-1.309c-0.237,0-0.524-0.049-0.475-0.289
		c0.581-1.262,1.013-2.611,1.396-3.969c0.188-0.045,0.093-0.383,0.386-0.283c0.571,0.869-0.197,2.125,0.477,2.898
		c2.495,1.691,6.149,2.412,9.081,1.4c1.053-0.385,2.015-1.309,2.542-2.367c0.678-1.547,0.337-3.58-0.811-4.738
		c-2.744-2.221-6.297-2.178-9.37-3.578c-1.585-0.342-2.931-1.738-3.463-3.24c-0.572-2.227,0.294-4.158,1.878-5.516
		c0.816-0.623,1.681-1.398,2.735-1.592c2.926-1.164,6.488-0.73,9.46,0.289L196.871,41.169z M122.275,39.962
		c2.789,7.152,5.284,14.451,8.118,21.758c0.427,0.578,1.247,0.531,1.778,0.67c0.091,0.145,0.142,0.293,0.142,0.486
		c-0.38,0.195-0.861-0.141-1.341-0.047l-5.291,0.1l-0.191,0.191c0-0.102-0.239-0.244-0.143-0.531
		c0.674-0.482,1.874,0.094,2.212-0.92c-0.724-2.564-1.878-5.029-2.642-7.496c-0.335-0.771-1.104,0-1.681-0.238l-6.535-0.053
		l-0.436,0.531l-2.254,7.256c0.289,0.865,1.394,0.582,2.021,0.967c0.041,0.193,0,0.334-0.152,0.484l-0.521-0.244l-5.142,0.094
		l-0.147,0.193c-0.046,0.057-0.426-0.387-0.146-0.574c0.627-0.291,1.538-0.055,1.877-0.869c2.399-6.867,4.758-13.541,7.3-20.359
		l0.338-0.291c0.912-0.289,1.92-0.529,2.643-1.158L122.275,39.962z M107.771,41.507c-0.338,1.307-0.962,2.613-1.351,3.918
		l-0.239,0.047c-0.535-0.629,0.143-1.883-0.576-2.371c-2.065-1.643-5.519-2.219-8.074-1.111c-1.292,0.533-2.446,1.842-2.688,3.238
		c-0.092,1.504,0.623,2.855,1.973,3.533c4.279,2.324,11.959,1.445,12.394,7.928c0.091,2.562-2.02,4.643-3.938,5.803
		c-1.827,0.58-3.75,1.207-5.721,1.014c0.101,0.193-0.142,0.098-0.289,0.141l0.05-0.094c-2.496-0.047-4.808-0.816-7.062-1.592
		c0.289-1.502,1.2-2.756,1.442-4.303c0.097-0.148,0.238-0.193,0.385-0.193c0.426,0.822-0.385,2.514,0.718,3.092
		c2.882,1.695,7.301,2.564,10.181,0.342c1.062-0.828,1.494-2.375,1.443-3.869c-0.045-1.451-1.301-2.811-2.542-3.383
		c-4.086-2.373-12.732-1.311-11.339-8.658c1.25-3.434,4.95-5.025,8.5-5.025C103.54,40.106,105.605,40.685,107.771,41.507z
		 M64.632,41.315c0.095,0.869-0.385,1.742-0.536,2.654c-0.087,0.58,0.05,1.258-0.33,1.699c-1.059-0.244-0.334-1.939-1.059-2.568
		c-1.679-0.969-3.644-1.691-5.76-1.643c-0.384,0.195-0.957,0.195-1.488,0.242c-3.032,0.629-5.335,3.24-6.343,6.094
		c-1.246,4.109-0.288,8.846,2.739,11.695c2.596,2.426,6.484,3.529,9.795,1.742c1.351-0.578,2.931-1.498,3.892-2.709
		c0.284,0.104,0.436,0.387,0.335,0.682c-3.023,3.672-7.249,5.123-11.911,4.154c-3.747-1.014-7.108-4.543-7.877-8.506
		c-0.77-3.436-0.191-7.107,2.024-9.865c3.261-4.547,10.084-5.805,15.603-4.062C63.959,41.12,64.248,41.315,64.632,41.315z
		 M79.428,40.251c2.642,7.395,5.377,14.551,8.069,21.805c0.572,0.334,1.149,0.479,1.822,0.58v0.527
		c-2.161-0.287-4.318-0.145-6.479-0.092l-0.244,0.195c-0.191-0.104-0.339-0.438-0.1-0.631c0.628,0.047,1.254-0.246,1.928-0.385
		l0.142-0.775l-2.596-7.107l-0.334-0.385c-2.738,0.141-5.189,0.047-7.877,0.096l-0.476,0.627L71.02,61.72
		c-0.142,1.057,1.058,0.625,1.59,0.916c0.279-0.047,0.334,0,0.567,0.24c-0.141,0.143-0.044,0.438-0.288,0.391l-0.476-0.195
		c-1.731,0.287-3.988-0.389-5.427,0.338c-0.096-0.189-0.284-0.48-0.045-0.727c0.714-0.238,1.873,0,2.014-1.062l7.255-20.211
		c1.012-0.289,1.97-0.773,2.885-1.254L79.428,40.251z M152.293,42.522c0.961,1.352,1.347,3.236,0.578,4.781
		c-1.108,2.611-3.701,3.73-6.288,4.309c-0.196,0.385-0.39,0.775-0.055,1.16l8.403,9.424c0.439,0.393,1.544-0.385,1.306,0.633
		c-1.206-0.094-2.744,0.141-3.944,0.438v0.143h-0.238c-3.071-3.82-5.951-7.877-9.127-11.506c-0.814,0.148-1.537,0.191-2.307,0.191
		l-0.284,0.438c0.091,2.754-0.097,6.479,0.39,9.383c0.572,0.236,1.199,0.43,1.813,0.475c0.104,0.145,0.055,0.293,0.104,0.439
		c-0.151,0.391-0.436,0-0.581,0h-6.48l-0.292,0.242c-0.193-0.102-0.336-0.482-0.097-0.682c0.77-0.238,2.016,0.145,2.257-0.969
		c0.239-6.475,0.239-13.822-0.241-19.816c-0.381-0.723-1.343-0.824-2.157-0.775c-0.098-0.145-0.293-0.438-0.052-0.578l0.724,0.189
		c3.023-0.049,6.201,0.055,9.27-0.285C147.731,40.155,150.612,40.251,152.293,42.522z M175.204,40.2
		c0.34,1.258,0.628,2.758,0.867,4.061c-0.147,0.098-0.34,0.436-0.578,0.242c-0.53-0.963-0.811-2.127-1.681-2.754
		c-3.173-0.096-6.149-0.48-9.224-0.34l-0.333,0.529l-0.242,7.404c0.146,0.232,0.191,0.572,0.53,0.572
		c2.495-0.045,4.758-0.141,7.254-0.285c0.526-0.484,0.477-1.5,1.158-1.836l0.234,0.289l-0.101,4.594
		c-0.239,0.189-0.134,0.338-0.426,0.096l-0.774-1.551c-2.542-0.137-5.084-0.334-7.634-0.334c-0.436,3.285,0,6.67,0.046,10.01
		c-0.046,0.287,0.242,0.385,0.39,0.578c3.548,0,7.39,0.096,10.711-0.535c0.521-0.822,1.053-1.736,1.392-2.607
		c0.288-0.146,0.527,0.049,0.577,0.293l-0.871,4.057c-3.888-0.148-7.921,0.053-11.861,0.094v-0.094
		c-0.337,0.053-1.198,0-1.635,0.094h-3.553l-0.188,0.152c-0.146,0-0.39-0.293-0.197-0.539c0.724-0.283,1.874-0.045,2.165-0.969
		c0.284-6.568,0.238-13.242-0.15-19.914c-0.38-0.967-1.579-0.531-2.207-0.967l0.102-0.385l0.669,0.145L175.204,40.2z
		 M145.622,41.458c1.771,0.096,3.169,0.771,4.131,2.271c0.81,1.498,0.525,3.725-0.39,5.031c-2.108,2.461-5.762,2.656-8.742,2.023
		l-0.381-0.625c0-2.855,0.041-5.945,0.188-8.359c1.393-0.293,2.593-0.293,3.99-0.439C144.806,41.554,145.232,41.409,145.622,41.458z
		 M124.244,52.19c0.096,0.246-0.193,0.486-0.243,0.727c-2.258-0.191-4.562,0.098-6.817-0.098l-0.144-0.484l3.267-9.861
		c0.38-0.195,0.479,0.244,0.571,0.484L124.244,52.19z M78.229,44.214c1.104,2.807,1.964,5.273,3.022,8.121
		c-0.05,0.391,0,0.725-0.572,0.68l-6.297,0.045l-0.293-0.527c1.063-3.336,2.172-6.863,3.326-10.01
		C78.031,42.813,77.936,43.632,78.229,44.214z"/>
	<polygon fill-rule="evenodd" clip-rule="evenodd" fill="#FFFFFF" points="51.645,29.612 51.645,28.7 47.798,28.7 47.798,36.69 
		48.792,36.69 48.792,32.771 51.548,32.771 51.548,31.858 48.792,31.858 48.792,29.612 	"/>
	<path fill-rule="evenodd" clip-rule="evenodd" fill="#FFFFFF" d="M62.534,28.528c-2.275,0-4.163,1.873-4.163,4.166
		c0,2.377,1.86,4.168,4.163,4.168c2.29,0,4.158-1.791,4.158-4.168C66.692,30.401,64.805,28.528,62.534,28.528z M62.534,35.931
		c-1.722,0-3.173-1.414-3.173-3.236c0-1.764,1.305-3.236,3.173-3.236c1.86,0,3.165,1.473,3.165,3.236
		C65.699,34.517,64.248,35.931,62.534,35.931z"/>
	<polygon fill-rule="evenodd" clip-rule="evenodd" fill="#FFFFFF" points="75.912,29.612 77.803,29.612 77.803,28.7 73.036,28.7 
		73.036,29.612 74.922,29.612 74.922,36.69 75.912,36.69 	"/>
	<path fill-rule="evenodd" clip-rule="evenodd" fill="#FFFFFF" d="M88.304,28.528c-2.267,0-4.168,1.873-4.168,4.166
		c0,2.377,1.875,4.162,4.168,4.162c2.294,0,4.158-1.785,4.158-4.162C92.462,30.401,90.579,28.528,88.304,28.528z M88.304,35.931
		c-1.717,0-3.174-1.414-3.174-3.236c0-1.764,1.31-3.236,3.174-3.236c1.869,0,3.169,1.473,3.169,3.236
		C91.473,34.517,90.021,35.931,88.304,35.931z"/>
	<path fill-rule="evenodd" clip-rule="evenodd" fill="#FFFFFF" d="M103.637,32.663v0.908h2.051
		c-0.041,1.309-1.364,2.373-2.597,2.373c-1.712,0-3.091-1.582-3.091-3.264c0-1.791,1.392-3.244,3.169-3.244
		c0.976,0,1.933,0.52,2.501,1.309l0.691-0.672c-0.773-0.986-1.992-1.545-3.229-1.545c-2.288,0-4.126,1.887-4.126,4.186
		c0,2.217,1.797,4.143,4.017,4.143c2.222,0,3.764-1.678,3.764-3.877v-0.316H103.637z"/>
	<path fill-rule="evenodd" clip-rule="evenodd" fill="#FFFFFF" d="M116.326,33.212c1.145-0.139,1.905-1.092,1.905-2.236
		c0-0.76-0.38-1.518-1.044-1.908c-0.628-0.357-1.392-0.367-2.098-0.367h-1.196v7.99h0.986v-3.379h0.417l2.33,3.379h1.204
		L116.326,33.212z M114.88,29.585h0.265c0.976,0,2.162,0.182,2.162,1.436c0,1.27-1.096,1.463-2.11,1.463h-0.316V29.585z"/>
	<path fill-rule="evenodd" clip-rule="evenodd" fill="#FFFFFF" d="M130.505,34.687l0.91,2.004h1.063l-3.793-8.332l-3.791,8.332
		h1.066l0.898-2.004H130.505z M130.097,33.774h-2.826l1.415-3.232L130.097,33.774z"/>
	<path fill-rule="evenodd" clip-rule="evenodd" fill="#FFFFFF" d="M140.171,29.585h0.28c0.924,0,1.682,0.191,1.682,1.32
		c0,1.143-0.77,1.332-1.705,1.332h-0.257V29.585z M140.171,33.028h0.615c0.883,0,2.023,0.234,2.023,1.357
		c0,1.137-0.961,1.418-1.877,1.418h-0.762V33.028z M139.187,36.69h1.852c1.396,0,2.756-0.639,2.756-2.24
		c0-0.928-0.651-1.85-1.585-2.027v-0.014c0.536-0.256,0.848-0.936,0.848-1.52c0-1.803-1.41-2.189-2.903-2.189h-0.967V36.69z"/>
	<path fill-rule="evenodd" clip-rule="evenodd" fill="#FFFFFF" d="M155.802,34.687l0.902,2.004h1.063l-3.793-8.332l-3.787,8.332
		h1.062l0.906-2.004H155.802z M155.391,33.774h-2.828l1.412-3.232L155.391,33.774z"/>
	<path fill-rule="evenodd" clip-rule="evenodd" fill="#FFFFFF" d="M164.471,36.69h1.616c2.501,0,4.484-1.312,4.484-4.037
		c0-2.664-2.025-3.953-4.457-3.953h-1.644V36.69z M165.46,29.612h0.353c2.018,0,3.765,0.748,3.765,3.082
		c0,2.322-1.747,3.086-3.765,3.086h-0.353V29.612z"/>
	<path fill-rule="evenodd" clip-rule="evenodd" fill="#FFFFFF" d="M181.291,28.528c-2.276,0-4.158,1.873-4.158,4.166
		c0,2.377,1.854,4.162,4.158,4.162c2.295,0,4.159-1.785,4.159-4.162C185.45,30.401,183.562,28.528,181.291,28.528z M181.291,35.931
		c-1.717,0-3.174-1.414-3.174-3.236c0-1.764,1.305-3.236,3.174-3.236c1.86,0,3.17,1.473,3.17,3.236
		C184.461,34.517,183.008,35.931,181.291,35.931z"/>
	<path fill-rule="evenodd" clip-rule="evenodd" fill="#FFFFFF" d="M196.848,29.735c-0.426-0.773-1.155-1.207-2.038-1.207
		c-1.204,0-2.34,0.773-2.34,2.062c0,1.117,0.824,1.639,1.726,2.031l0.546,0.23c0.691,0.287,1.373,0.656,1.373,1.518
		c0,0.836-0.613,1.561-1.461,1.561c-0.86,0-1.553-0.639-1.542-1.521l-1.003,0.217c0.178,1.281,1.171,2.23,2.459,2.23
		c1.419,0,2.537-1.035,2.537-2.486c0-1.342-0.848-1.961-1.97-2.408l-0.567-0.221c-0.499-0.193-1.108-0.521-1.108-1.15
		c0-0.693,0.695-1.133,1.327-1.133c0.601,0,0.981,0.254,1.279,0.758L196.848,29.735z"/>
	<line fill="#FFFFFF" stroke="#FFFFFF" stroke-width="0.4613" x1="0.863" y1="67.052" x2="199.76" y2="67.052"/>
	<g>
		<path fill="#FFFFFF" d="M5.603,74.606c-0.04-1.078-0.861-1.559-1.848-1.559c-0.767,0-1.674,0.303-1.674,1.227
			c0,0.77,0.88,1.049,1.468,1.201l1.151,0.26c0.985,0.15,2.016,0.734,2.016,1.973c0,1.545-1.523,2.139-2.839,2.139
			c-1.644,0-2.766-0.77-2.903-2.508h0.863c0.068,1.168,0.932,1.779,2.082,1.779c0.811,0,1.933-0.361,1.933-1.354
			c0-0.83-0.766-1.104-1.548-1.295l-1.109-0.252c-1.124-0.301-1.973-0.686-1.973-1.902c0-1.445,1.41-2,2.656-2
			c1.413,0,2.537,0.744,2.592,2.291H5.603z"/>
		<path fill="#FFFFFF" d="M8.473,76.317c0.014,1.268,0.669,2.801,2.329,2.801c1.262,0,1.943-0.748,2.219-1.822h0.865
			c-0.371,1.611-1.303,2.551-3.084,2.551c-2.247,0-3.193-1.738-3.193-3.766c0-1.875,0.947-3.766,3.193-3.766
			c2.274,0,3.178,2,3.111,4.002H8.473z M13.049,75.585c-0.041-1.311-0.85-2.537-2.247-2.537c-1.413,0-2.192,1.24-2.329,2.537H13.049
			z"/>
		<path fill="#FFFFFF" d="M15.082,72.522h0.795v1.67h0.027c0.438-1.145,1.399-1.822,2.672-1.766v0.869
			c-1.562-0.084-2.631,1.076-2.631,2.551v3.793h-0.863V72.522z"/>
		<path fill="#FFFFFF" d="M18.608,72.522h0.957l2.221,6.25h0.027l2.194-6.25h0.887l-2.642,7.117h-0.919L18.608,72.522z"/>
		<path fill="#FFFFFF" d="M25.764,69.794h0.863v1.391h-0.863V69.794z M25.764,72.522h0.863v7.117h-0.863V72.522z"/>
		<path fill="#FFFFFF" d="M33.277,74.759c-0.234-1.062-0.88-1.711-2.002-1.711c-1.658,0-2.482,1.516-2.482,3.033
			s0.825,3.037,2.482,3.037c1.067,0,1.946-0.842,2.057-2.029h0.86c-0.233,1.709-1.341,2.758-2.917,2.758
			c-2.166,0-3.343-1.723-3.343-3.766c0-2.041,1.177-3.766,3.343-3.766c1.506,0,2.67,0.812,2.862,2.443H33.277z"/>
		<path fill="#FFFFFF" d="M35.417,69.794h0.863v1.391h-0.863V69.794z M35.417,72.522h0.863v7.117h-0.863V72.522z"/>
		<path fill="#FFFFFF" d="M44.271,76.081c0,2.043-1.179,3.766-3.344,3.766c-2.165,0-3.342-1.723-3.342-3.766
			c0-2.041,1.177-3.766,3.342-3.766C43.092,72.315,44.271,74.04,44.271,76.081z M38.447,76.081c0,1.518,0.824,3.037,2.481,3.037
			c1.659,0,2.48-1.52,2.48-3.037s-0.822-3.033-2.48-3.033C39.271,73.048,38.447,74.563,38.447,76.081z"/>
		<path fill="#FFFFFF" d="M45.606,69.794h1.562v1.486h-1.562V69.794z M45.606,72.509h1.562v7.131h-1.562V72.509z"/>
		<path fill="#FFFFFF" d="M48.869,72.509h1.479v1.051l0.027,0.025c0.468-0.783,1.276-1.27,2.207-1.27
			c1.535,0,2.508,0.826,2.508,2.428v4.896h-1.564v-4.48c-0.025-1.119-0.463-1.6-1.384-1.6c-1.039,0-1.712,0.826-1.712,1.873v4.207
			h-1.562V72.509z"/>
		<path fill="#FFFFFF" d="M56.027,72.509h1.18v-2.141h1.563v2.141h1.411v1.174H58.77v3.805c0,0.65,0.053,0.979,0.751,0.979
			c0.221,0,0.439,0,0.66-0.055v1.215c-0.343,0.027-0.673,0.082-1.015,0.082c-1.631,0-1.933-0.631-1.959-1.82v-4.205h-1.18V72.509z"
			/>
		<path fill="#FFFFFF" d="M62.526,76.481c0,1.117,0.604,2.111,1.904,2.111c0.905,0,1.452-0.4,1.727-1.186h1.479
			c-0.344,1.559-1.658,2.428-3.207,2.428c-2.22,0-3.466-1.559-3.466-3.754c0-2.027,1.313-3.766,3.425-3.766
			c2.235,0,3.604,2.029,3.343,4.166H62.526z M66.17,75.448c-0.055-0.994-0.726-1.889-1.781-1.889c-1.081,0-1.823,0.826-1.863,1.889
			H66.17z"/>
		<path fill="#FFFFFF" d="M75.481,79.265c0,2.139-1.246,3.203-3.481,3.203c-1.424,0-3.027-0.553-3.165-2.221h1.562
			c0.192,0.896,0.904,1.049,1.699,1.049c1.259,0,1.823-0.648,1.823-1.824v-1.088h-0.028c-0.439,0.789-1.246,1.256-2.125,1.256
			c-2.246,0-3.178-1.711-3.178-3.754c0-1.914,1.19-3.57,3.205-3.57c0.894,0,1.7,0.373,2.098,1.174h0.028v-0.98h1.562V79.265z
			 M73.92,75.917c0-1.229-0.55-2.357-1.906-2.357c-1.383,0-1.864,1.295-1.864,2.479c0,1.174,0.563,2.359,1.864,2.359
			C73.397,78.397,73.92,77.132,73.92,75.917z"/>
		<path fill="#FFFFFF" d="M77.061,72.509h1.468v1.381h0.027c0.177-0.762,1.111-1.574,2.068-1.574c0.357,0,0.453,0.027,0.591,0.043
			v1.516c-0.22-0.027-0.454-0.066-0.673-0.066c-1.067,0-1.917,0.867-1.917,2.439v3.393h-1.564V72.509z"/>
		<path fill="#FFFFFF" d="M87.823,78.056c0,0.383,0.083,0.537,0.371,0.537c0.096,0,0.217,0,0.382-0.029v1.09
			c-0.234,0.082-0.727,0.182-0.987,0.182c-0.63,0-1.081-0.223-1.204-0.869c-0.618,0.605-1.617,0.869-2.456,0.869
			c-1.272,0-2.425-0.689-2.425-2.084c0-1.781,1.413-2.07,2.728-2.219c1.123-0.209,2.125-0.084,2.125-1.01
			c0-0.812-0.838-0.963-1.468-0.963c-0.877,0-1.493,0.357-1.562,1.129h-1.563c0.109-1.834,1.66-2.373,3.221-2.373
			c1.386,0,2.837,0.566,2.837,2.07V78.056z M86.261,76.065c-0.481,0.322-1.234,0.307-1.919,0.432
			c-0.673,0.105-1.276,0.357-1.276,1.184c0,0.703,0.891,0.912,1.441,0.912c0.685,0,1.754-0.357,1.754-1.352V76.065z"/>
		<path fill="#FFFFFF" d="M89.554,69.794h1.562v9.846h-1.562V69.794z"/>
		<path fill="#FFFFFF" d="M99.204,79.64H98.04v-0.969h-0.027c-0.385,0.791-1.29,1.133-2.263,1.133c-2.18,0-3.261-1.736-3.261-3.75
			s1.067-3.711,3.234-3.711c0.728,0,1.767,0.277,2.29,1.115h0.027v-3.664h1.164V79.64z M95.915,78.772
			c1.562,0,2.166-1.352,2.166-2.691c0-1.406-0.633-2.703-2.236-2.703c-1.589,0-2.124,1.365-2.124,2.76
			C93.721,77.472,94.408,78.772,95.915,78.772z"/>
		<path fill="#FFFFFF" d="M107.049,77.38c-0.316,1.57-1.438,2.424-3.032,2.424c-2.257,0-3.33-1.568-3.399-3.75
			c0-2.137,1.402-3.711,3.331-3.711c2.509,0,3.278,2.357,3.211,4.084h-5.305c-0.042,1.24,0.656,2.346,2.203,2.346
			c0.962,0,1.63-0.469,1.837-1.393H107.049z M105.921,75.392c-0.054-1.117-0.888-2.014-2.042-2.014c-1.218,0-1.94,0.924-2.024,2.014
			H105.921z"/>
		<path fill="#FFFFFF" d="M108.176,74.688c0.041-0.938,0.48-1.547,1.112-1.914c0.628-0.361,1.451-0.502,2.257-0.502
			c1.686,0,3.315,0.375,3.315,2.402v3.131c0,0.605,0,1.271,0.275,1.834h-2.34c-0.083-0.221-0.11-0.443-0.138-0.674
			c-0.604,0.633-1.493,0.881-2.345,0.881c-1.355,0-2.428-0.688-2.428-2.166c0-2.33,2.523-2.148,4.14-2.484
			c0.398-0.08,0.62-0.221,0.62-0.66c0-0.539-0.647-0.742-1.128-0.742c-0.641,0-1.054,0.287-1.163,0.895H108.176z M111.192,78.397
			c1.108,0,1.479-0.633,1.425-2.107c-0.329,0.207-0.934,0.248-1.438,0.385c-0.521,0.125-0.961,0.344-0.961,0.91
			C110.218,78.165,110.671,78.397,111.192,78.397z"/>
		<path fill="#FFFFFF" d="M116.487,72.481h2.262v1.256h0.027c0.338-0.908,1.136-1.395,2.134-1.395c0.179,0,0.37,0.016,0.549,0.057
			v2.137c-0.302-0.082-0.577-0.137-0.888-0.137c-1.154,0-1.754,0.797-1.754,1.695v3.545h-2.33V72.481z"/>
		<path fill="#FFFFFF" d="M126.535,73.997h-1.438v3.256c0,0.566,0.329,0.691,0.832,0.691c0.193,0,0.399-0.029,0.606-0.029v1.725
			c-0.428,0.014-0.854,0.068-1.274,0.068c-1.987,0-2.496-0.576-2.496-2.523v-3.188h-1.176v-1.516h1.176v-2.164h2.332v2.164h1.438
			V73.997z"/>
		<path fill="#FFFFFF" d="M129.565,76.634c0.041,0.979,0.605,1.629,1.59,1.629c0.562,0,1.112-0.264,1.327-0.791h2.181
			c-0.427,1.66-1.946,2.375-3.536,2.375c-2.316,0-3.893-1.408-3.893-3.809c0-2.191,1.74-3.766,3.838-3.766
			c2.552,0,3.823,1.934,3.714,4.361H129.565z M132.456,75.323c-0.042-0.801-0.601-1.461-1.384-1.461
			c-0.82,0-1.369,0.592-1.507,1.461H132.456z"/>
		<path fill="#FFFFFF" d="M137.767,77.28c0,0.359,0.152,0.623,0.38,0.801c0.221,0.166,0.537,0.248,0.867,0.248
			c0.453,0,1.093-0.191,1.093-0.758c0-0.553-0.723-0.662-1.136-0.76c-1.465-0.369-3.301-0.414-3.301-2.344
			c0-1.725,1.851-2.195,3.247-2.195c1.562,0,3.192,0.459,3.275,2.318h-2.154c0-0.303-0.109-0.494-0.298-0.619
			c-0.19-0.125-0.452-0.178-0.74-0.178c-0.386,0-0.999,0.041-0.999,0.535c0,0.676,1.562,0.799,2.629,1.035
			c1.438,0.291,1.809,1.338,1.809,1.932c0,1.914-1.809,2.551-3.411,2.551c-1.687,0-3.412-0.564-3.48-2.566H137.767z"/>
		<path fill="#FFFFFF" d="M150.787,78.716c0,1.42-0.367,3.42-3.7,3.42c-1.685,0-3.468-0.455-3.709-2.385h2.684
			c0.027,0.07,0.096,0.166,0.151,0.25c0.163,0.246,0.452,0.521,0.791,0.521c0.879,0,1.072-1.051,1.072-1.643v-0.66h-0.027
			c-0.439,0.635-1.095,0.99-1.905,0.99c-2.097,0-3.041-1.57-3.041-3.488c0-1.859,1.054-3.422,3.082-3.422
			c0.792,0,1.547,0.32,1.864,1.051h0.027v-0.869h2.711V78.716z M147.032,77.46c1.002,0,1.112-0.963,1.112-1.768
			c0-0.783-0.385-1.404-1.177-1.404c-0.77,0-1.155,0.662-1.155,1.42C145.812,76.524,146.062,77.46,147.032,77.46z"/>
		<path fill="#FFFFFF" d="M152.18,72.481h2.6v1.146h0.028c0.438-0.854,1.018-1.328,2.002-1.328c0.273,0,0.535,0.043,0.795,0.113
			v2.412c-0.273-0.094-0.521-0.178-1.07-0.178c-1.067,0-1.645,0.633-1.645,2.164v2.828h-2.71V72.481z"/>
		<path fill="#FFFFFF" d="M165.203,78.04c0,0.535,0.023,1.146,0.326,1.6h-2.769c-0.067-0.193-0.108-0.48-0.095-0.674h-0.027
			c-0.577,0.66-1.411,0.855-2.29,0.855c-1.369,0-2.505-0.662-2.505-2.166c0-2.264,2.63-2.18,4.012-2.443
			c0.371-0.068,0.742-0.18,0.742-0.633c0-0.482-0.453-0.662-0.893-0.662c-0.834,0-1,0.428-1.013,0.73h-2.52
			c0.078-2.016,1.97-2.348,3.655-2.348c3.398,0,3.375,1.424,3.375,2.803V78.04z M162.172,71.792h-1.864l1.36-2.057h2.861
			L162.172,71.792z M162.598,76.427c-0.329,0.164-0.7,0.26-1.067,0.346c-0.604,0.137-0.92,0.289-0.92,0.77
			c0,0.334,0.357,0.666,0.852,0.666c0.614,0,1.096-0.375,1.136-1.119V76.427z"/>
		<path fill="#FFFFFF" d="M167.1,74.163h-1.113v-1.682h1.113c-0.027-0.703,0.041-1.488,0.56-2.014
			c0.59-0.596,1.276-0.674,2.371-0.674c0.411,0,0.81,0.039,1.218,0.051v1.879c-0.219-0.027-0.435-0.098-0.654-0.098
			c-0.66,0-0.879,0.193-0.837,0.855h1.423v1.682h-1.37v5.477h-2.71V74.163z M174.742,71.71h-2.711v-1.916h2.711V71.71z
			 M172.031,72.481h2.711v7.158h-2.711V72.481z"/>
		<path fill="#FFFFFF" d="M180.889,75.196c-0.027-0.287-0.123-0.521-0.298-0.674c-0.165-0.15-0.4-0.234-0.688-0.234
			c-1.044,0-1.19,0.908-1.19,1.777s0.146,1.768,1.19,1.768c0.592,0,0.998-0.482,1.054-1.049h2.592
			c-0.261,1.945-1.781,3.037-3.699,3.037c-2.14,0-3.853-1.492-3.853-3.756c0-2.258,1.713-3.766,3.853-3.766
			c1.862,0,3.452,0.928,3.617,2.896H180.889z"/>
		<path fill="#FFFFFF" d="M191.612,78.04c0,0.535,0.023,1.146,0.326,1.6h-2.766c-0.068-0.193-0.111-0.48-0.096-0.674h-0.028
			c-0.578,0.66-1.411,0.855-2.291,0.855c-1.368,0-2.504-0.662-2.504-2.166c0-2.264,2.63-2.18,4.013-2.443
			c0.37-0.068,0.741-0.18,0.741-0.633c0-0.482-0.454-0.662-0.893-0.662c-0.834,0-1,0.428-1.013,0.73h-2.52
			c0.079-2.016,1.97-2.348,3.655-2.348c3.397,0,3.374,1.424,3.374,2.803V78.04z M189.008,76.427c-0.33,0.164-0.701,0.26-1.067,0.346
			c-0.604,0.137-0.92,0.289-0.92,0.77c0,0.334,0.356,0.666,0.853,0.666c0.612,0,1.094-0.375,1.135-1.119V76.427z"/>
		<path fill="#FFFFFF" d="M197.167,74.563c-0.012-0.234-0.137-0.412-0.314-0.537c-0.167-0.137-0.386-0.205-0.605-0.205
			c-0.384,0-0.819,0.08-0.819,0.551c0,0.207,0.165,0.303,0.312,0.371c0.454,0.193,1.484,0.25,2.385,0.553
			c0.909,0.289,1.7,0.826,1.7,2c0,1.986-1.892,2.525-3.618,2.525c-1.671,0-3.508-0.676-3.549-2.525h2.593
			c0.013,0.246,0.123,0.455,0.33,0.633c0.132,0.127,0.394,0.209,0.724,0.209c0.356,0,0.92-0.139,0.92-0.553s-0.235-0.537-1.499-0.76
			c-2.063-0.355-2.903-1.021-2.903-2.246c0-1.805,1.934-2.279,3.356-2.279c1.535,0,3.386,0.432,3.455,2.264H197.167z"/>
	</g>
</g>
</svg>
