<?xml version="1.0" encoding="utf-8"?>
<!-- Generator: Adobe Illustrator 16.0.0, SVG Export Plug-In . SVG Version: 6.00 Build 0)  -->
<!DOCTYPE svg PUBLIC "-//W3C//DTD SVG 1.1//EN" "http://www.w3.org/Graphics/SVG/1.1/DTD/svg11.dtd">
<svg version="1.1" id="Capa_1" xmlns="http://www.w3.org/2000/svg" xmlns:xlink="http://www.w3.org/1999/xlink" x="0px" y="0px"
	 width="200px" height="54.123px" viewBox="0 0 200 54.123" enable-background="new 0 0 200 54.123" xml:space="preserve">
<g>
	<g>
		<path fill="#FFFFFF" d="M133.518,43.628l0.023-0.402c0.145-0.002,0.236-0.01,0.271-0.025c0.039-0.016,0.072-0.045,0.1-0.088
			c0.029-0.042,0.074-0.153,0.133-0.333c0.033-0.103,0.152-0.49,0.359-1.16l0.699-2.332c0.074-0.258,0.236-0.827,0.488-1.711h0.176
			l1.186,4.144c0.195,0.674,0.322,1.095,0.385,1.266c0.035,0.096,0.072,0.16,0.113,0.19c0.041,0.031,0.139,0.048,0.283,0.051
			l-0.023,0.401c-0.287-0.029-1.496,0-1.496,0l0.018-0.401c0.209-0.007,0.336-0.016,0.379-0.03c0.045-0.012,0.074-0.032,0.09-0.058
			c0.016-0.027,0.027-0.06,0.027-0.1c0-0.062-0.016-0.138-0.041-0.234l-0.344-1.266h-1.605l-0.303,1.062
			c-0.055,0.19-0.082,0.331-0.082,0.417c0,0.04,0.006,0.07,0.023,0.094c0.02,0.038,0.049,0.064,0.092,0.075
			c0.07,0.023,0.191,0.036,0.363,0.039l-0.02,0.401C134.498,43.601,133.729,43.601,133.518,43.628z M134.832,41.188h1.4
			l-0.691-2.493L134.832,41.188z M130.855,43.614l0.012-0.302c0.115-0.087,0.18-0.137,0.193-0.157
			c0.012-0.021,0.021-0.059,0.027-0.114c0.012-0.081,0.021-0.257,0.029-0.524c0.012-0.267,0.014-0.476,0.014-0.613v-2.492
			c0-0.271-0.004-0.587-0.018-0.951c-0.006-0.229-0.021-0.368-0.035-0.426c-0.016-0.036-0.035-0.062-0.061-0.078
			c-0.062-0.04-0.188-0.06-0.381-0.062v-0.261c0.062,0.005,0.137,0.007,0.232,0.007l1.598-0.017c0.271,0,0.48,0.042,0.625,0.123
			c0.146,0.085,0.262,0.219,0.344,0.408c0.084,0.183,0.125,0.391,0.125,0.618c0,0.183-0.025,0.354-0.076,0.514
			c-0.049,0.159-0.113,0.299-0.197,0.417c-0.082,0.116-0.174,0.21-0.275,0.284c-0.102,0.071-0.23,0.141-0.395,0.201
			c0.217,0.028,0.391,0.075,0.525,0.135c0.135,0.056,0.244,0.145,0.332,0.265c0.094,0.114,0.16,0.256,0.207,0.424
			c0.045,0.171,0.07,0.356,0.07,0.562c0,0.408-0.098,0.877-0.262,1.188c-0.162,0.308-0.377,0.536-0.641,0.684
			c-0.191,0.111-0.426,0.167-0.688,0.167l-0.805-0.035C131.268,43.579,131.1,43.592,130.855,43.614z M131.656,40.071
			c0.109,0.009,0.201,0.014,0.281,0.014c0.229,0,0.404-0.025,0.529-0.078c0.127-0.054,0.223-0.12,0.293-0.208
			c0.068-0.086,0.125-0.201,0.168-0.346c0.049-0.146,0.07-0.318,0.07-0.516c0-0.345-0.074-0.59-0.223-0.741
			c-0.145-0.158-0.359-0.233-0.645-0.233c-0.16,0-0.305,0.022-0.445,0.064c-0.018,0.227-0.029,0.582-0.029,1.06V40.071z
			 M131.668,43.081c0.141,0.05,0.285,0.074,0.438,0.074c0.246,0,0.441-0.057,0.594-0.165c0.148-0.113,0.264-0.282,0.344-0.509
			c0.082-0.225,0.121-0.486,0.121-0.777c0-0.289-0.037-0.531-0.111-0.727c-0.076-0.2-0.193-0.345-0.344-0.44
			c-0.15-0.095-0.4-0.145-0.744-0.145c-0.08,0-0.182,0.007-0.309,0.016v1.568C131.656,42.13,131.662,42.497,131.668,43.081z
			 M126.551,40.609c0-0.437,0.047-0.838,0.131-1.207c0.09-0.369,0.238-0.702,0.439-0.995c0.205-0.295,0.438-0.518,0.691-0.667
			c0.258-0.153,0.551-0.228,0.885-0.228c0.305,0,0.582,0.064,0.832,0.196c0.25,0.125,0.455,0.294,0.615,0.507
			c0.162,0.209,0.291,0.44,0.381,0.691c0.07,0.187,0.127,0.407,0.166,0.66c0.041,0.255,0.066,0.523,0.066,0.812
			c0,0.931-0.211,1.701-0.633,2.321c-0.418,0.617-0.949,0.924-1.584,0.927c-0.295,0-0.564-0.072-0.816-0.211
			c-0.254-0.142-0.465-0.353-0.639-0.627c-0.176-0.278-0.307-0.613-0.398-1.006C126.598,41.386,126.551,40.995,126.551,40.609z
			 M127.131,40.265c0,0.264,0.016,0.528,0.053,0.798c0.035,0.272,0.082,0.505,0.133,0.7c0.086,0.33,0.203,0.609,0.348,0.834
			c0.143,0.223,0.305,0.389,0.479,0.497c0.18,0.104,0.377,0.156,0.59,0.156c0.301,0,0.557-0.106,0.777-0.322
			c0.221-0.218,0.385-0.522,0.494-0.915c0.107-0.394,0.164-0.847,0.164-1.355c0-0.442-0.041-0.844-0.119-1.213
			c-0.049-0.228-0.115-0.431-0.191-0.612c-0.08-0.184-0.174-0.343-0.287-0.48c-0.107-0.136-0.252-0.252-0.428-0.346
			c-0.172-0.095-0.365-0.141-0.57-0.141c-0.291,0-0.553,0.098-0.775,0.292c-0.223,0.196-0.387,0.48-0.504,0.851
			C127.186,39.379,127.131,39.799,127.131,40.265z M122.27,43.619l0.021-0.312c0.107-0.09,0.197-0.172,0.27-0.248
			c0.01-0.187,0.021-0.446,0.025-0.78c0.016-0.565,0.021-0.962,0.021-1.181V39.41c0-0.271-0.004-0.586-0.02-0.95
			c-0.006-0.229-0.018-0.369-0.035-0.426c-0.016-0.036-0.033-0.062-0.061-0.078c-0.061-0.04-0.184-0.06-0.381-0.062v-0.26
			c0.271,0.015,0.51,0.023,0.717,0.023c0.16,0,0.379-0.006,0.652-0.017s0.488-0.018,0.641-0.018c0.455,0,0.818,0.089,1.096,0.261
			c0.277,0.171,0.51,0.46,0.701,0.865c0.191,0.402,0.291,0.902,0.291,1.484c0,0.417-0.045,0.81-0.137,1.178
			c-0.092,0.365-0.234,0.8-0.393,1.074c-0.154,0.275-0.322,0.491-0.498,0.652c-0.178,0.156-0.363,0.279-0.561,0.361
			c-0.195,0.08-0.463,0.118-0.805,0.118c-0.115,0-0.268-0.003-0.457-0.014c-0.254-0.012-0.418-0.016-0.496-0.017
			C122.75,43.587,122.553,43.599,122.27,43.619z M123.152,43.059c0.203,0.049,0.418,0.076,0.646,0.076s0.439-0.029,0.613-0.094
			c0.184-0.059,0.332-0.145,0.463-0.253c0.123-0.111,0.248-0.273,0.365-0.49c0.119-0.212,0.211-0.486,0.271-0.82
			c0.066-0.336,0.1-0.685,0.1-1.043c0-0.512-0.064-0.95-0.186-1.316c-0.125-0.369-0.311-0.653-0.557-0.849
			c-0.248-0.195-0.588-0.291-1.023-0.294c-0.229,0-0.461,0.024-0.693,0.078c-0.006,0.137-0.014,0.375-0.014,0.72l-0.012,0.598v1.653
			l0.01,1.279C123.139,42.498,123.143,42.75,123.152,43.059z M114.277,40.609c0-0.437,0.045-0.838,0.131-1.207
			c0.09-0.369,0.234-0.702,0.439-0.995c0.205-0.295,0.432-0.518,0.693-0.667c0.254-0.153,0.549-0.228,0.881-0.228
			c0.305,0,0.584,0.064,0.834,0.196c0.248,0.125,0.455,0.294,0.611,0.507c0.162,0.209,0.291,0.44,0.385,0.691
			c0.068,0.187,0.123,0.407,0.166,0.66c0.043,0.255,0.062,0.523,0.062,0.812c0,0.931-0.209,1.701-0.631,2.321
			c-0.418,0.617-0.947,0.924-1.586,0.927c-0.291,0-0.562-0.072-0.812-0.211c-0.252-0.142-0.465-0.353-0.641-0.627
			c-0.174-0.278-0.305-0.613-0.396-1.006C114.322,41.386,114.277,40.995,114.277,40.609z M114.857,40.265
			c0,0.264,0.016,0.528,0.051,0.798c0.037,0.272,0.078,0.505,0.131,0.7c0.092,0.33,0.205,0.609,0.35,0.834
			c0.145,0.223,0.305,0.389,0.48,0.497c0.178,0.104,0.373,0.156,0.59,0.156c0.297,0,0.557-0.106,0.779-0.322
			c0.219-0.218,0.383-0.522,0.49-0.915c0.109-0.394,0.162-0.847,0.162-1.355c0-0.442-0.037-0.844-0.115-1.213
			c-0.051-0.228-0.111-0.431-0.193-0.612c-0.078-0.184-0.174-0.343-0.285-0.48c-0.109-0.136-0.254-0.252-0.43-0.346
			c-0.174-0.095-0.361-0.141-0.568-0.141c-0.295,0-0.551,0.098-0.775,0.292c-0.223,0.196-0.389,0.48-0.502,0.851
			C114.91,39.379,114.857,39.799,114.857,40.265z M116.889,37.453l0.543-0.507l0.227,0.245l-0.541,0.507L116.889,37.453z
			 M103.549,43.606l0.033-0.301c0.105-0.089,0.197-0.172,0.268-0.247c0.01-0.187,0.021-0.448,0.027-0.781
			c0.012-0.568,0.02-0.961,0.02-1.18v-1.689c0-0.269-0.006-0.587-0.016-0.95c-0.008-0.229-0.021-0.366-0.041-0.424
			c-0.012-0.036-0.029-0.062-0.059-0.08c-0.061-0.038-0.188-0.058-0.377-0.062v-0.26c0.27,0.018,0.508,0.024,0.715,0.024
			c0.16,0,0.377-0.007,0.65-0.016c0.275-0.011,0.488-0.017,0.641-0.017c0.453,0,0.818,0.087,1.094,0.26
			c0.275,0.172,0.512,0.461,0.703,0.865c0.193,0.403,0.291,0.899,0.291,1.484c0,0.417-0.045,0.81-0.139,1.178
			c-0.088,0.365-0.244,0.79-0.398,1.062c-0.158,0.274-0.32,0.489-0.5,0.649c-0.178,0.161-0.363,0.282-0.562,0.364
			c-0.191,0.079-0.461,0.119-0.801,0.119c-0.115,0-0.268-0.006-0.459-0.015c-0.252-0.013-0.416-0.017-0.492-0.019
			C104.031,43.573,103.832,43.587,103.549,43.606z M104.441,43.055c-0.01-0.305-0.016-0.557-0.016-0.751l-0.01-1.283v-0.274
			c0.211-0.011,0.375-0.018,0.49-0.018c0.303,0,0.51,0.017,0.615,0.049c0.059,0.021,0.1,0.055,0.121,0.104
			c0.018,0.049,0.033,0.177,0.035,0.38l0.01,0.28h0.193l-0.016-0.961l0.016-0.861v-0.077h-0.164l-0.016,0.287
			c-0.016,0.194-0.031,0.307-0.047,0.341c-0.016,0.033-0.057,0.054-0.113,0.064c-0.156,0.031-0.344,0.045-0.564,0.045
			c-0.172,0-0.357-0.006-0.561-0.021v-0.988l0.01-0.598c0.004-0.345,0.008-0.583,0.016-0.72c0.234-0.054,0.465-0.078,0.695-0.078
			c0.432,0,0.773,0.096,1.02,0.294c0.25,0.195,0.436,0.478,0.557,0.846c0.123,0.367,0.188,0.807,0.188,1.319
			c0,0.358-0.033,0.704-0.098,1.04c-0.064,0.337-0.154,0.609-0.271,0.823c-0.119,0.217-0.244,0.377-0.371,0.49
			c-0.125,0.108-0.279,0.193-0.457,0.253c-0.18,0.064-0.383,0.094-0.615,0.094C104.859,43.135,104.645,43.107,104.441,43.055z
			 M96.583,43.619l0.012-0.329c0.108-0.091,0.2-0.172,0.272-0.249c0.01-0.187,0.019-0.446,0.025-0.779
			c0.015-0.569,0.021-0.96,0.021-1.183v-1.686c0-0.271-0.007-0.587-0.02-0.953c-0.006-0.225-0.021-0.369-0.037-0.425
			c-0.015-0.035-0.032-0.062-0.058-0.077c-0.062-0.038-0.189-0.061-0.382-0.062v-0.26c0.269,0.016,0.508,0.024,0.717,0.024
			c0.16,0,0.375-0.005,0.647-0.017c0.278-0.01,0.491-0.015,0.645-0.015c0.455,0,0.816,0.085,1.094,0.258
			c0.278,0.171,0.51,0.46,0.702,0.862c0.193,0.408,0.29,0.901,0.29,1.485c0,0.418-0.045,0.812-0.136,1.178
			c-0.092,0.368-0.226,0.818-0.383,1.093c-0.154,0.275-0.322,0.491-0.498,0.652c-0.179,0.156-0.366,0.279-0.561,0.361
			c-0.196,0.08-0.464,0.118-0.805,0.118c-0.112,0-0.266-0.003-0.457-0.014c-0.255-0.012-0.419-0.016-0.496-0.017
			C97.064,43.587,96.867,43.599,96.583,43.619z M97.458,43.039c0.202,0.052,0.416,0.08,0.644,0.08c0.233,0,0.438-0.033,0.614-0.094
			c0.182-0.06,0.335-0.146,0.462-0.254c0.127-0.111,0.249-0.274,0.365-0.49c0.12-0.213,0.212-0.488,0.273-0.824
			c0.065-0.331,0.099-0.68,0.099-1.041c0-0.51-0.063-0.949-0.186-1.315c-0.124-0.371-0.308-0.653-0.557-0.847
			c-0.248-0.195-0.59-0.296-1.021-0.296c-0.23,0-0.46,0.027-0.693,0.08c-0.007,0.134-0.013,0.373-0.016,0.719l-0.01,0.597v1.652
			l0.007,1.28C97.442,42.482,97.447,42.731,97.458,43.039z M92.055,43.628l-0.006-0.421c0.147-0.002,0.236-0.01,0.272-0.023
			c0.037-0.016,0.07-0.045,0.101-0.087c0.03-0.045,0.078-0.155,0.133-0.336c0.033-0.101,0.153-0.488,0.36-1.16l0.698-2.332
			c0.072-0.259,0.236-0.827,0.483-1.709h0.181l1.187,4.145c0.192,0.673,0.321,1.095,0.383,1.263c0.035,0.097,0.075,0.16,0.115,0.192
			c0.042,0.028,0.134,0.046,0.282,0.048l0.007,0.421c-0.289-0.029-1.501,0-1.501,0l-0.005-0.421
			c0.207-0.005,0.331-0.015,0.376-0.029c0.045-0.01,0.075-0.031,0.091-0.058c0.018-0.026,0.024-0.061,0.024-0.098
			c0-0.062-0.012-0.138-0.04-0.234l-0.341-1.266h-1.608l-0.303,1.061c-0.051,0.191-0.079,0.331-0.079,0.419
			c0,0.037,0.007,0.07,0.02,0.095c0.021,0.038,0.055,0.06,0.097,0.073c0.068,0.022,0.188,0.037,0.362,0.038l0.004,0.42
			C93.033,43.601,92.266,43.601,92.055,43.628z M93.342,41.171h1.4l-0.694-2.493L93.342,41.171z M88.712,43.606l0.025-0.316
			c0.106-0.091,0.198-0.172,0.27-0.249c0.01-0.187,0.017-0.446,0.027-0.779c0.013-0.569,0.019-0.96,0.019-1.183v-1.686
			c0-0.271-0.006-0.587-0.017-0.953c-0.007-0.225-0.019-0.369-0.038-0.425c-0.012-0.035-0.033-0.062-0.059-0.077
			c-0.062-0.038-0.188-0.061-0.381-0.062v-0.26c0.27,0.016,0.51,0.024,0.718,0.024c0.159,0,0.375-0.005,0.647-0.017
			c0.276-0.01,0.491-0.015,0.643-0.015c0.453,0,0.82,0.085,1.095,0.258c0.277,0.171,0.509,0.46,0.702,0.862
			c0.194,0.408,0.289,0.901,0.289,1.485c0,0.418-0.044,0.812-0.136,1.178c-0.091,0.368-0.234,0.808-0.392,1.081
			c-0.155,0.274-0.322,0.489-0.5,0.648c-0.177,0.162-0.367,0.283-0.561,0.365c-0.195,0.079-0.461,0.119-0.803,0.119
			c-0.113,0-0.265-0.006-0.458-0.015c-0.251-0.013-0.418-0.017-0.493-0.019C89.197,43.573,88.997,43.587,88.712,43.606z
			 M89.596,43.039c0.207,0.052,0.42,0.08,0.647,0.08c0.235,0,0.44-0.033,0.615-0.094c0.181-0.06,0.332-0.146,0.459-0.254
			c0.126-0.111,0.251-0.274,0.371-0.49c0.118-0.213,0.209-0.488,0.272-0.824c0.063-0.331,0.094-0.68,0.094-1.041
			c0-0.51-0.059-0.949-0.186-1.315c-0.12-0.371-0.305-0.653-0.554-0.847c-0.25-0.195-0.59-0.296-1.022-0.296
			c-0.228,0-0.461,0.027-0.697,0.08c-0.002,0.134-0.008,0.373-0.012,0.719l-0.011,0.597v1.652l0.009,1.28
			C89.584,42.482,89.589,42.731,89.596,43.039z M118.383,37.899v-0.266l0.33,0.014c0,0,0.803,0.016,1.025,0.002
			c0.287-0.016,0.455-0.025,0.502-0.025c0.357,0,0.613,0.045,0.775,0.145c0.16,0.092,0.287,0.245,0.375,0.457
			c0.088,0.206,0.131,0.437,0.131,0.686c0,0.231-0.039,0.46-0.121,0.688c-0.084,0.229-0.205,0.42-0.363,0.571
			c-0.16,0.151-0.365,0.269-0.619,0.351c0.047,0.097,0.158,0.312,0.33,0.645l0.697,1.375c0.201,0.38,0.318,0.598,0.35,0.64
			c0.02,0.019,0.035,0.034,0.053,0.038c0.027,0.016,0.09,0.022,0.182,0.022l-0.012,0.387c-0.141-0.019-0.615-0.019-0.773,0
			c-0.121-0.209-0.309-0.733-0.59-1.334c-0.16-0.332-0.299-0.61-0.418-0.833c-0.193-0.371-0.379-0.705-0.559-1.004l0.029-0.125
			c0.098,0.008,0.172,0.015,0.219,0.015c0.338,0,0.594-0.119,0.766-0.358c0.176-0.236,0.262-0.551,0.262-0.938
			c0-0.338-0.072-0.606-0.221-0.806c-0.152-0.202-0.379-0.3-0.684-0.3c-0.191,0-0.377,0.042-0.562,0.126
			c-0.004,0.149-0.01,0.286-0.018,0.418c0,0.04-0.008,0.438-0.018,1.202v1.837c0,0.372,0.006,0.739,0.01,1.093
			c0.006,0.263,0.018,0.418,0.037,0.467c0.023,0.051,0.057,0.088,0.105,0.112c0.049,0.023,0.184,0.035,0.398,0.041l-0.01,0.387
			c-0.264-0.022-1.203-0.022-1.623,0l0.014-0.387c0.219-0.006,0.35-0.018,0.402-0.041c0.045-0.024,0.08-0.057,0.098-0.099
			c0.021-0.055,0.035-0.188,0.041-0.4c0.004-0.059,0.006-0.45,0.014-1.173v-1.916c0-0.374-0.008-0.741-0.01-1.1
			c-0.004-0.263-0.02-0.416-0.043-0.461c-0.02-0.052-0.055-0.088-0.1-0.106C118.736,37.916,118.604,37.902,118.383,37.899z
			 M114.229,42.779l-0.107,0.382c-0.217,0.164-0.428,0.282-0.639,0.351c-0.207,0.076-0.432,0.116-0.676,0.116
			c-0.289,0-0.553-0.056-0.801-0.165c-0.244-0.106-0.463-0.259-0.648-0.457c-0.184-0.202-0.332-0.425-0.449-0.674
			c-0.115-0.247-0.205-0.518-0.268-0.804c-0.061-0.295-0.09-0.613-0.09-0.962c0-0.879,0.205-1.604,0.617-2.182
			c0.412-0.579,0.975-0.866,1.688-0.866c0.17,0,0.324,0.015,0.469,0.043c0.143,0.03,0.316,0.086,0.523,0.165
			c0.205,0.081,0.332,0.126,0.381,0.143c-0.041,0.151-0.074,0.299-0.092,0.446c-0.031,0.233-0.051,0.505-0.061,0.813h-0.178v-0.487
			c-0.02-0.271-0.119-0.473-0.303-0.604s-0.449-0.197-0.801-0.197c-0.264,0.006-0.484,0.056-0.668,0.153
			c-0.184,0.094-0.348,0.243-0.486,0.449c-0.139,0.203-0.256,0.464-0.344,0.78c-0.09,0.314-0.133,0.71-0.137,1.185
			c0,0.837,0.172,1.511,0.516,2.019c0.342,0.507,0.797,0.76,1.359,0.76c0.254,0,0.486-0.049,0.707-0.156
			c0.145-0.071,0.293-0.185,0.439-0.339L114.229,42.779z M62.265,37.883v-0.267c0.302,0.022,1.364,0.022,1.623,0v0.267
			c-0.219,0.002-0.35,0.02-0.399,0.044c-0.05,0.022-0.08,0.053-0.097,0.095c-0.025,0.055-0.04,0.188-0.042,0.398
			c-0.005,0.056-0.01,0.449-0.015,1.178v1.528c0,0.591,0.025,0.984,0.076,1.172c0.051,0.188,0.131,0.345,0.247,0.468
			c0.084,0.094,0.2,0.171,0.343,0.227c0.143,0.056,0.305,0.083,0.483,0.083c0.207,0,0.392-0.035,0.552-0.11
			c0.162-0.077,0.282-0.17,0.362-0.278c0.079-0.109,0.141-0.23,0.18-0.367c0.04-0.135,0.071-0.32,0.088-0.554
			c0.015-0.237,0.025-0.535,0.025-0.895v-1.273c0-0.375-0.002-0.745-0.01-1.102c-0.004-0.26-0.015-0.415-0.039-0.461
			c-0.022-0.05-0.055-0.085-0.104-0.108c-0.048-0.024-0.181-0.042-0.4-0.044v-0.267c0.306,0.022,1.029,0.022,1.36,0v0.267
			c-0.218,0.002-0.354,0.02-0.401,0.044c-0.047,0.023-0.078,0.053-0.097,0.096c-0.021,0.054-0.038,0.187-0.042,0.399
			c-0.004,0.054-0.004,0.448-0.01,1.176v1.384c0,0.679-0.035,1.153-0.098,1.424c-0.064,0.27-0.181,0.512-0.351,0.715
			c-0.129,0.156-0.293,0.276-0.492,0.361c-0.202,0.084-0.425,0.126-0.667,0.126c-0.287,0-0.536-0.048-0.742-0.147
			c-0.211-0.103-0.369-0.233-0.48-0.396c-0.107-0.166-0.183-0.333-0.228-0.505c-0.047-0.225-0.076-0.604-0.076-1.135v-1.826
			c0-0.375-0.002-0.744-0.009-1.102c-0.004-0.26-0.019-0.415-0.04-0.461c-0.021-0.05-0.057-0.084-0.103-0.108
			C62.617,37.902,62.484,37.885,62.265,37.883z M66.634,43.628v-0.4c0.194-0.002,0.321-0.023,0.382-0.066
			c0.025-0.015,0.044-0.042,0.057-0.079c0.017-0.055,0.03-0.198,0.04-0.433c0.01-0.363,0.015-0.679,0.015-0.942v-3.369
			c0-0.09-0.002-0.147-0.012-0.175c-0.013-0.051-0.047-0.111-0.099-0.178c-0.032-0.047-0.07-0.074-0.117-0.083
			c-0.043-0.016-0.139-0.024-0.29-0.025v-0.261c0.311,0.011,0.853,0.011,0.987,0c0.157,0.306,0.272,0.532,0.347,0.678l0.575,1.053
			l0.839,1.506c0.27,0.48,0.486,0.857,0.648,1.131c0.101,0.184,0.19,0.324,0.258,0.432v-3.021c0-0.271-0.004-0.587-0.018-0.953
			c-0.008-0.225-0.019-0.369-0.036-0.425c-0.012-0.035-0.033-0.062-0.059-0.077c-0.059-0.038-0.188-0.061-0.381-0.062v-0.26
			c0.221,0.011,1.066,0.011,1.241,0v0.26c-0.192,0.002-0.319,0.024-0.381,0.062c-0.028,0.016-0.044,0.043-0.055,0.083
			c-0.019,0.05-0.032,0.195-0.039,0.434c-0.012,0.363-0.017,0.676-0.017,0.938v1.988c0,0.402,0.002,1.15,0.013,2.251l-0.288-0.124
			l-0.067-0.019c-0.011-0.006-0.021-0.015-0.03-0.027c-0.012-0.013-0.05-0.066-0.105-0.165c-0.154-0.259-0.266-0.452-0.339-0.588
			l-0.359-0.673l-1.97-3.498v3.169c0,0.271,0.006,0.589,0.023,0.954c0.004,0.23,0.017,0.369,0.034,0.42
			c0.013,0.04,0.032,0.068,0.06,0.086c0.06,0.037,0.186,0.058,0.379,0.06v0.4C67.709,43.606,66.885,43.606,66.634,43.628z
			 M72.786,43.224v0.404c-0.394-0.022-1.639,0-1.639,0v-0.404c0.221-0.006,0.355-0.019,0.404-0.04
			c0.048-0.024,0.082-0.057,0.101-0.102c0.019-0.055,0.036-0.188,0.04-0.398c0-0.058,0.004-0.451,0.012-1.173v-1.914
			c0-0.374-0.006-0.745-0.01-1.104c-0.004-0.257-0.019-0.413-0.042-0.459c-0.019-0.049-0.055-0.085-0.101-0.108
			c-0.047-0.024-0.181-0.041-0.404-0.044v-0.266c0.357,0.019,1.281,0.019,1.639,0v0.266c-0.22,0.003-0.354,0.02-0.404,0.044
			c-0.044,0.023-0.077,0.053-0.095,0.095c-0.023,0.055-0.036,0.188-0.042,0.399c-0.002,0.056-0.005,0.449-0.012,1.177v1.914
			c0,0.372,0.006,0.738,0.01,1.094c0.004,0.261,0.019,0.417,0.04,0.467c0.02,0.048,0.055,0.087,0.1,0.112
			C72.432,43.205,72.566,43.218,72.786,43.224z M74.781,43.628c-0.06-0.24-0.174-0.798-0.353-1.484l-0.94-3.479
			c-0.1-0.368-0.165-0.582-0.188-0.639c-0.017-0.038-0.039-0.063-0.07-0.078c-0.04-0.032-0.143-0.049-0.308-0.065v-0.267
			c0.339,0.022,1.148,0.022,1.505,0v0.292c-0.222,0.006-0.354,0.014-0.392,0.021c-0.032,0.009-0.059,0.025-0.075,0.05
			c-0.012,0.022-0.019,0.049-0.019,0.079c0,0.033,0.013,0.101,0.038,0.215c0.079,0.365,0.15,0.66,0.211,0.885l0.869,3.263
			l0.724-2.708c0.103-0.384,0.207-0.809,0.302-1.267c0.042-0.194,0.061-0.317,0.061-0.363c0-0.067-0.023-0.11-0.072-0.132
			c-0.038-0.02-0.179-0.043-0.428-0.068v-0.267c0.28,0.016,0.974,0.016,1.229,0v0.267c-0.141,0.004-0.223,0.02-0.252,0.039
			c-0.028,0.021-0.053,0.058-0.077,0.116c-0.019,0.041-0.088,0.265-0.207,0.669l-0.87,3.176l-0.213,0.812
			c-0.042,0.162-0.078,0.305-0.108,0.425c-0.025,0.116-0.057,0.351-0.09,0.509H74.781L74.781,43.628z M77.073,43.629v-0.401
			c0.195-0.002,0.322-0.022,0.383-0.066c0.028-0.015,0.044-0.041,0.059-0.079c0.016-0.053,0.03-0.197,0.037-0.433
			c0.01-0.363,0.018-0.678,0.018-0.941v-2.11c0-0.375-0.003-0.745-0.008-1.103c-0.01-0.259-0.021-0.415-0.042-0.461
			c-0.021-0.049-0.057-0.085-0.106-0.107c-0.044-0.024-0.178-0.042-0.396-0.044v-0.267c0,0,2.863,0.008,3.022,0.035
			c-0.028,0.16-0.046,0.296-0.061,0.411c-0.002,0.025-0.019,0.312-0.049,0.86h-0.174c0.002-0.281-0.011-0.538-0.038-0.77
			c-0.101-0.062-0.213-0.106-0.335-0.127c-0.208-0.04-0.415-0.061-0.622-0.061c-0.046,0-0.144,0.006-0.299,0.02
			c-0.152,0.01-0.264,0.018-0.329,0.027c-0.008,0.307-0.014,0.592-0.019,0.86l-0.009,1.397c0.216,0.014,0.416,0.024,0.597,0.024
			c0.22,0,0.409-0.016,0.563-0.048c0.059-0.011,0.099-0.032,0.116-0.065s0.03-0.146,0.044-0.337l0.017-0.291h0.167v0.078
			l-0.014,0.86l0.014,0.963h-0.195l-0.007-0.28c-0.004-0.204-0.019-0.331-0.04-0.382c-0.019-0.048-0.061-0.083-0.119-0.103
			c-0.106-0.033-0.313-0.051-0.614-0.051c-0.124,0-0.3,0.007-0.528,0.021c-0.01,0.276-0.014,0.685-0.014,1.229
			c0,0.51,0.004,0.897,0.014,1.16c0.267,0.031,0.568,0.046,0.896,0.046c0.235,0,0.404-0.01,0.503-0.033
			c0.101-0.023,0.192-0.06,0.276-0.111c0.021-0.086,0.045-0.201,0.069-0.347c0.04-0.245,0.068-0.43,0.08-0.554h0.183
			c-0.048,0.556-0.073,1.158-0.073,1.523c-0.157,0.038-0.352,0.055-0.58,0.055C79.46,43.629,77.536,43.607,77.073,43.629z
			 M80.253,37.883v-0.267l0.329,0.011c0,0,1.482-0.018,1.526-0.018c0.354,0,0.613,0.046,0.773,0.138
			c0.165,0.095,0.289,0.249,0.381,0.46c0.086,0.209,0.131,0.438,0.131,0.685c0,0.233-0.042,0.463-0.125,0.692
			c-0.084,0.229-0.204,0.418-0.364,0.569c-0.157,0.153-0.363,0.269-0.618,0.351c0.047,0.098,0.154,0.312,0.329,0.646l0.7,1.371
			c0.199,0.384,0.316,0.598,0.35,0.64c0.017,0.022,0.036,0.035,0.052,0.041c0.025,0.015,0.087,0.021,0.18,0.021v0.404
			c-0.138-0.019-0.612-0.019-0.77,0c-0.122-0.209-0.324-0.749-0.608-1.351c-0.155-0.335-0.293-0.61-0.414-0.835
			c-0.194-0.368-0.381-0.703-0.556-1.005l0.028-0.122c0.096,0.006,0.167,0.012,0.216,0.012c0.34,0,0.597-0.119,0.771-0.356
			c0.173-0.237,0.26-0.549,0.26-0.938c0-0.34-0.077-0.606-0.226-0.807c-0.15-0.2-0.375-0.301-0.681-0.301
			c-0.19,0-0.377,0.044-0.561,0.128c-0.008,0.147-0.012,0.289-0.018,0.415c0,0.039-0.009,0.443-0.018,1.204v1.838
			c0,0.372,0.002,0.738,0.009,1.094c0.004,0.261,0.017,0.417,0.038,0.467c0.021,0.048,0.057,0.087,0.105,0.112
			c0.05,0.021,0.181,0.034,0.4,0.04v0.404c-0.263-0.023-1.203-0.023-1.621,0v-0.404c0.219-0.006,0.35-0.019,0.396-0.04
			c0.049-0.025,0.082-0.058,0.101-0.102c0.023-0.055,0.038-0.188,0.044-0.398c0-0.059,0.003-0.452,0.01-1.173v-1.914
			c0-0.376-0.002-0.745-0.01-1.104c-0.004-0.259-0.019-0.413-0.042-0.459c-0.019-0.051-0.054-0.085-0.104-0.108
			C80.603,37.902,80.472,37.885,80.253,37.883z M84.062,43.288c0.031-0.266,0.048-0.694,0.055-1.287h0.191
			c0.007,0.402,0.023,0.642,0.041,0.716c0.024,0.071,0.073,0.146,0.159,0.231c0.079,0.083,0.188,0.157,0.328,0.222
			c0.136,0.064,0.268,0.096,0.396,0.096c0.184,0,0.358-0.063,0.516-0.191c0.157-0.129,0.272-0.295,0.342-0.502
			c0.076-0.211,0.109-0.433,0.109-0.669c0-0.184-0.017-0.341-0.055-0.473c-0.035-0.134-0.089-0.24-0.162-0.319
			c-0.074-0.081-0.167-0.141-0.274-0.172c-0.071-0.018-0.207-0.044-0.413-0.083c-0.204-0.04-0.379-0.08-0.524-0.128
			c-0.193-0.089-0.335-0.192-0.425-0.312c-0.091-0.116-0.167-0.271-0.222-0.465c-0.054-0.192-0.085-0.402-0.085-0.622
			c0-0.327,0.057-0.634,0.172-0.92c0.114-0.289,0.284-0.513,0.504-0.674c0.225-0.159,0.468-0.239,0.729-0.239
			c0.158,0,0.329,0.032,0.517,0.095c0.183,0.059,0.36,0.152,0.521,0.27c-0.026,0.174-0.047,0.337-0.058,0.487
			c-0.008,0.147-0.02,0.368-0.024,0.66h-0.188c-0.007-0.423-0.015-0.656-0.026-0.694c-0.047-0.098-0.111-0.189-0.191-0.268
			c-0.19-0.161-0.387-0.241-0.596-0.241c-0.268,0-0.481,0.124-0.646,0.37c-0.158,0.241-0.238,0.555-0.238,0.945
			c0,0.233,0.028,0.418,0.086,0.547c0.057,0.124,0.16,0.228,0.308,0.304c0.101,0.055,0.269,0.103,0.5,0.149
			c0.23,0.044,0.439,0.091,0.625,0.145c0.175,0.077,0.303,0.17,0.385,0.275c0.084,0.106,0.155,0.246,0.207,0.417
			c0.054,0.173,0.082,0.376,0.082,0.605c0,0.55-0.156,1.027-0.46,1.435c-0.306,0.408-0.703,0.61-1.184,0.61
			C84.694,43.607,84.36,43.501,84.062,43.288z M88.32,43.224v0.404c-0.394-0.022-1.637,0-1.637,0v-0.404
			c0.217-0.006,0.353-0.019,0.4-0.04c0.049-0.024,0.082-0.057,0.101-0.102c0.021-0.055,0.034-0.188,0.042-0.398
			c0.001-0.058,0.005-0.451,0.009-1.173v-1.914c0-0.374-0.002-0.745-0.008-1.104c-0.004-0.257-0.018-0.413-0.042-0.459
			c-0.021-0.049-0.053-0.085-0.102-0.108c-0.045-0.024-0.179-0.041-0.4-0.044v-0.266c0.354,0.019,1.277,0.019,1.637,0v0.266
			c-0.221,0.003-0.354,0.02-0.404,0.044c-0.044,0.023-0.08,0.053-0.097,0.095c-0.023,0.055-0.038,0.188-0.042,0.399
			c-0.002,0.056-0.004,0.449-0.011,1.177v1.914c0,0.372,0.004,0.738,0.009,1.094c0.004,0.261,0.019,0.417,0.038,0.467
			c0.021,0.048,0.059,0.087,0.103,0.112C87.966,43.205,88.099,43.218,88.32,43.224z M99.488,0L86.719,6.785v20.503l11.022,5.731
			c0.06,0.897,0.835,1.638,1.747,1.638c0.904,0,1.674-0.727,1.745-1.615l11.025-5.606V6.785L99.488,0z M88.672,16.303l1.842,0.698
			l0.091,0.051c0.033,0.538,0.115,1.06,0.242,1.567l-0.042-0.014l-1.515-0.409C89.03,17.592,88.82,16.958,88.672,16.303z
			 M91.169,19.701l0.025,0.007c0.261,0.662,0.597,1.286,1.001,1.86l-1.066-0.443c-0.415-0.477-0.794-0.991-1.125-1.533
			L91.169,19.701z M94.416,19.837v-0.003V19.837z M94.445,19.621c0.004-0.014,0.005-0.025,0.008-0.037
			C94.45,19.596,94.449,19.606,94.445,19.621z M94.488,19.399c0.014-0.074,0.03-0.149,0.05-0.22l0,0
			C94.518,19.25,94.501,19.326,94.488,19.399z M94.413,20.99c0.003,0.006,0.003,0.013,0.005,0.022
			c-0.002-0.009-0.005-0.015-0.005-0.025V20.99z M94.458,21.284c-0.008-0.04-0.015-0.083-0.019-0.123
			C94.443,21.201,94.45,21.244,94.458,21.284z M94.518,21.572c-0.01-0.049-0.021-0.093-0.03-0.142
			C94.498,21.479,94.508,21.523,94.518,21.572z M94.71,22.177c-0.015-0.04-0.029-0.076-0.042-0.117
			C94.681,22.101,94.696,22.137,94.71,22.177z M94.618,21.918c-0.013-0.039-0.024-0.077-0.036-0.119
			C94.593,21.84,94.605,21.879,94.618,21.918z M94.86,22.525c-0.034-0.071-0.067-0.143-0.095-0.213
			C94.792,22.383,94.826,22.454,94.86,22.525z M95.451,17.338L95.451,17.338h0.002C95.453,17.338,95.453,17.338,95.451,17.338z
			 M96.078,14.566l-0.019-0.045l-1.078-3.232c0.488-0.346,1.02-0.64,1.585-0.868l0.003,0.013l0.655,3.429l0.009,0.033
			C96.825,14.071,96.437,14.3,96.078,14.566z M96.126,16.636L96.126,16.636L96.126,16.636L96.126,16.636z M95.608,17.15
			L95.608,17.15L95.608,17.15z M95.18,15.25l0.06,0.082c-0.249,0.271-0.468,0.564-0.666,0.878l-0.121-0.157l-1.679-2.379
			c0.281-0.465,0.603-0.901,0.97-1.3L95.18,15.25z M95.115,17.821L95.115,17.821L95.115,17.821L95.115,17.821z M94.953,18.102
			c-0.011,0.023-0.019,0.045-0.031,0.065C94.934,18.147,94.942,18.125,94.953,18.102z M94.016,16.928l0.132,0.106
			c-0.11,0.257-0.203,0.526-0.278,0.798l-0.147-0.103l-1.92-1.439c0.086-0.484,0.215-0.953,0.386-1.399L94.016,16.928z
			 M93.502,18.533l0.204,0.125c-0.035,0.272-0.056,0.545-0.056,0.826c0,0.052,0.004,0.104,0.004,0.157l-0.152-0.084l-1.712-0.618
			c-0.071-0.417-0.11-0.844-0.11-1.281v-0.003L93.502,18.533z M93.577,20.43l0.164,0.109c0.12,0.703,0.354,1.364,0.688,1.96
			l-1.465-0.61c-0.392-0.591-0.704-1.241-0.925-1.927L93.577,20.43z M94.961,22.721c-0.011-0.022-0.02-0.044-0.034-0.068
			C94.942,22.677,94.953,22.699,94.961,22.721L94.961,22.721z M99.124,15.411c0.012-0.003,0.023-0.003,0.038-0.003
			C99.147,15.408,99.136,15.408,99.124,15.411z M99.758,15.402L99.758,15.402L99.758,15.402z M105.324,19.556L105.324,19.556
			c0-0.024,0-0.048,0-0.073c0-0.302-0.023-0.595-0.061-0.883l1.883-1.016l0.074-0.035c0,0.035,0,0.072,0,0.108
			c0,0.388-0.029,0.771-0.086,1.145l-0.061,0.024L105.324,19.556z M106.85,19.993c-0.104,0.327-0.229,0.646-0.375,0.954
			l-1.438,0.409c0.102-0.322,0.18-0.656,0.227-1.001L106.85,19.993z M107.004,16.124l-1.936,1.581
			c-0.082-0.278-0.186-0.547-0.303-0.807l1.871-2.159l0.016-0.008c0.176,0.434,0.312,0.887,0.41,1.356L107.004,16.124z
			 M104.326,16.091c-0.201-0.306-0.428-0.592-0.678-0.854l1.311-2.98l0.039-0.057c0.365,0.374,0.695,0.787,0.979,1.232
			L104.326,16.091z M104.586,20.69c0,0.011,0,0.023-0.002,0.036C104.586,20.713,104.586,20.701,104.586,20.69L104.586,20.69z
			 M103.066,16.836c0.004,0,0.006,0.004,0.008,0.005C103.072,16.84,103.07,16.837,103.066,16.836z M104.57,19.96L104.57,19.96
			L104.57,19.96L104.57,19.96z M104.504,19.475c0,0.003,0,0.005,0,0.008C104.504,19.48,104.504,19.479,104.504,19.475z
			 M104.543,19.714c0,0.004,0,0.008,0.002,0.013C104.543,19.722,104.543,19.718,104.543,19.714z M104.119,18.301L104.119,18.301
			L104.119,18.301L104.119,18.301z M104.578,20.806c-0.006,0.068-0.01,0.131-0.02,0.197
			C104.568,20.937,104.572,20.874,104.578,20.806z M104.547,21.104c-0.012,0.075-0.025,0.15-0.039,0.223
			C104.521,21.254,104.535,21.179,104.547,21.104z M104.475,21.482c-0.002,0.016-0.008,0.03-0.008,0.044l0,0
			C104.467,21.512,104.473,21.499,104.475,21.482z M103.814,17.748L103.814,17.748L103.814,17.748L103.814,17.748z M103.719,11.237
			l-0.996,3.204c-0.369-0.254-0.764-0.466-1.182-0.627l0.645-3.453l0.006-0.012c0.553,0.208,1.076,0.481,1.562,0.81L103.719,11.237z
			 M102.74,16.542L102.74,16.542L102.74,16.542L102.74,16.542z M107.287,12.169c-0.326-0.591-0.719-1.145-1.16-1.646l2.014-3.626
			c0.549,0.69,1.018,1.445,1.395,2.253L107.287,12.169z M104.607,9.159c-0.561-0.401-1.172-0.738-1.816-1l1.037-4.566
			c0.846,0.365,1.641,0.833,2.365,1.389L104.607,9.159z M101.008,15.621L101.008,15.621L101.008,15.621L101.008,15.621z
			 M101.521,15.809l-0.004-0.002L101.521,15.809z M101.273,15.71c0-0.001-0.002-0.004-0.008-0.004
			C101.271,15.706,101.273,15.708,101.273,15.71z M100.023,15.423h0.003l0,0H100.023z M100.361,9.922l-0.14,3.551
			c-0.24-0.029-0.486-0.048-0.733-0.048c-0.299,0-0.59,0.021-0.876,0.069l-0.218-3.565c0.356-0.051,0.721-0.079,1.094-0.079
			c0.296,0,0.589,0.019,0.878,0.055L100.361,9.922z M98.814,15.441L98.814,15.441L98.814,15.441L98.814,15.441z M97.764,15.686
			h0.002l0,0C97.766,15.686,97.766,15.686,97.764,15.686z M95.984,8.242c-0.677,0.294-1.311,0.671-1.889,1.115L94.088,9.34
			l-1.477-4.222c0.731-0.584,1.537-1.078,2.4-1.464L95.984,8.242z M92.628,10.726l0.019,0.03c-0.402,0.485-0.752,1.016-1.043,1.579
			l-0.07-0.077l-2.157-2.965c0.355-0.793,0.798-1.539,1.32-2.221L92.628,10.726z M108.283,20.586l-0.934,0.062
			c0.164-0.312,0.311-0.633,0.438-0.965l1.23-0.174C108.793,19.88,108.551,20.241,108.283,20.586z M109.711,18.135l-1.539,0.297
			c0.107-0.48,0.178-0.973,0.203-1.479l1.941-0.713C110.172,16.894,109.967,17.527,109.711,18.135z M110.576,14.011l-2.27,1.276
			c-0.07-0.52-0.182-1.028-0.336-1.514l2.352-2.283c0.166,0.765,0.252,1.56,0.252,2.373
			C110.576,13.911,110.576,13.961,110.576,14.011z M110.57,14.079c-0.004,0.35-0.027,0.696-0.064,1.037L110.57,14.079z
			 M100.936,2.798l-0.277,4.798c-0.383-0.051-0.774-0.081-1.17-0.081c-0.472,0-0.938,0.038-1.389,0.109l-0.213-4.807
			C98.41,2.741,98.945,2.7,99.488,2.7C99.981,2.7,100.462,2.734,100.936,2.798z M88.623,11.61l2.256,2.252l0.079,0.063
			c-0.154,0.521-0.265,1.063-0.321,1.62l-0.122-0.076l-2.111-1.363c-0.002-0.081-0.005-0.161-0.005-0.244
			C88.398,13.094,88.475,12.341,88.623,11.61z M99.342,32.761l-12.478-6.566v-5.619l1.534,0.729l1.385,0.731l2.408,1.313
			l2.042,1.093l0.876,0.51l0.874,0.44l1.167,0.583l0.512,0.292l0.731,0.583l0.218,0.22l0.219,0.292l0.146,0.292l0.22,0.508
			l0.071,0.222l0.075,0.291V32.761L99.342,32.761z M99.633,32.761v-4.086l0.073-0.291l0.072-0.222L100,27.654l0.143-0.292
			l0.219-0.292l0.222-0.22l0.363-0.293l0.363-0.29l0.512-0.292l1.096-0.583l0.945-0.44l0.879-0.51l2.041-1.093l2.41-1.313
			l1.381-0.731l1.463-0.729l0.072,5.619L99.633,32.761z"/>
	</g>
	<g>
		<path fill="#FFFFFF" d="M85.672,50.614c-0.021-0.128-0.087-0.638-0.796-0.638c-0.888,0-1.045,0.907-1.045,1.52
			c0,0.693,0.199,1.444,1.041,1.444c0.224,0,0.438-0.056,0.596-0.22c0.133-0.143,0.164-0.302,0.179-0.388h0.561
			c-0.077,0.725-0.745,1.025-1.377,1.025c-1.296,0-1.546-1.143-1.546-1.857c0-0.775,0.301-1.933,1.613-1.933
			c0.52,0,1.254,0.208,1.321,1.046H85.672L85.672,50.614z"/>
		<path fill="#FFFFFF" d="M87.835,50.676c1.025,0,1.255,0.805,1.255,1.342c0,0.749-0.423,1.371-1.295,1.371
			c-0.848,0-1.261-0.586-1.261-1.337C86.534,51.42,86.831,50.676,87.835,50.676z M87.805,53.031c0.362,0,0.775-0.26,0.775-1.029
			c0-0.638-0.297-0.975-0.746-0.975c-0.305,0-0.801,0.193-0.801,0.994C87.034,52.547,87.26,53.031,87.805,53.031z"/>
		<path fill="#FFFFFF" d="M89.723,51.037l-0.004-0.296h0.48l0.004,0.413c0.056-0.106,0.24-0.465,0.821-0.465
			c0.23,0,0.929,0.087,0.929,0.873v1.74h-0.49v-1.628c0-0.167-0.02-0.32-0.138-0.438c-0.123-0.118-0.291-0.173-0.454-0.173
			c-0.348,0-0.668,0.25-0.668,0.764v1.476h-0.48V51.037L89.723,51.037z"/>
		<path fill="#FFFFFF" d="M92.968,52.543c-0.004,0.193,0.097,0.464,0.561,0.464c0.2,0,0.347-0.035,0.45-0.164
			c0.05-0.065,0.081-0.152,0.081-0.24c0-0.249-0.179-0.295-0.561-0.382c-0.536-0.122-0.984-0.229-0.984-0.765
			c0-0.471,0.408-0.776,1-0.776c0.321,0,0.77,0.093,0.923,0.399c0.067,0.142,0.067,0.264,0.067,0.37h-0.49
			c0.016-0.386-0.321-0.417-0.495-0.417c-0.071,0-0.52,0-0.52,0.366c0,0.235,0.23,0.291,0.362,0.326
			c0.709,0.169,0.862,0.21,1.016,0.354c0.144,0.133,0.194,0.312,0.194,0.474c0,0.286-0.159,0.53-0.348,0.648
			c-0.225,0.138-0.495,0.173-0.76,0.173c-0.521,0-1.005-0.214-1-0.83H92.968L92.968,52.543z"/>
		<path fill="#FFFFFF" d="M95.402,52.109c-0.011,0.53,0.21,0.922,0.735,0.922c0.311,0,0.561-0.162,0.602-0.529h0.479
			c-0.014,0.127-0.035,0.336-0.219,0.536c-0.112,0.127-0.367,0.341-0.883,0.341c-0.807,0-1.188-0.5-1.188-1.311
			c0-0.506,0.103-0.923,0.506-1.204c0.244-0.173,0.551-0.188,0.698-0.188c1.147,0,1.122,1.015,1.112,1.434H95.402L95.402,52.109z
			 M96.753,51.771c0.006-0.244-0.041-0.755-0.632-0.755c-0.312,0-0.688,0.188-0.699,0.755H96.753z"/>
		<path fill="#FFFFFF" d="M97.361,53.944c0.378,0.016,0.47-0.051,0.47-0.459v-2.744h0.48v2.801c0,0.245-0.012,0.766-0.653,0.766
			c-0.062,0-0.163-0.006-0.297-0.021V53.944L97.361,53.944z M97.784,49.629h0.582v0.531h-0.582V49.629z"/>
		<path fill="#FFFFFF" d="M100.212,50.676c1.026,0,1.254,0.805,1.254,1.342c0,0.749-0.422,1.371-1.294,1.371
			c-0.848,0-1.261-0.586-1.261-1.337C98.912,51.42,99.208,50.676,100.212,50.676z M100.182,53.031c0.363,0,0.775-0.26,0.775-1.029
			c0-0.638-0.295-0.975-0.745-0.975c-0.306,0-0.801,0.193-0.801,0.994C99.412,52.547,99.637,53.031,100.182,53.031z"/>
		<path fill="#FFFFFF" d="M103.738,52.226c0.01,0.255,0.041,0.73,0.889,0.73c0.764,0,0.861-0.476,0.861-0.658
			c0-0.413-0.332-0.495-0.846-0.623c-0.562-0.138-0.812-0.198-1.002-0.326c-0.301-0.203-0.381-0.479-0.381-0.725
			c0-0.749,0.709-1.076,1.402-1.076c0.244,0,0.74,0.04,1.035,0.362c0.205,0.225,0.215,0.475,0.225,0.628h-0.531
			c-0.023-0.459-0.412-0.562-0.775-0.562c-0.51,0-0.814,0.229-0.814,0.598c0,0.325,0.213,0.438,0.662,0.544
			c0.877,0.226,0.975,0.246,1.189,0.39c0.34,0.224,0.365,0.58,0.365,0.733c0,0.653-0.51,1.147-1.453,1.147
			c-0.279,0-0.852-0.045-1.143-0.417c-0.209-0.271-0.213-0.566-0.213-0.746H103.738L103.738,52.226z"/>
		<path fill="#FFFFFF" d="M107.65,50.676c1.025,0,1.256,0.805,1.256,1.342c0,0.749-0.424,1.371-1.295,1.371
			c-0.848,0-1.262-0.586-1.262-1.337C106.35,51.42,106.646,50.676,107.65,50.676z M107.621,53.031c0.361,0,0.775-0.26,0.775-1.029
			c0-0.638-0.297-0.975-0.746-0.975c-0.305,0-0.801,0.193-0.801,0.994C106.85,52.547,107.076,53.031,107.621,53.031z"/>
		<path fill="#FFFFFF" d="M110.982,51.562c-0.01-0.117-0.045-0.535-0.51-0.535c-0.662,0-0.662,0.77-0.662,0.964
			c0,0.525,0.127,1.016,0.637,1.016c0.408,0,0.547-0.307,0.557-0.557h0.484c-0.031,0.5-0.402,0.919-1.035,0.919
			c-0.172,0-0.572-0.036-0.842-0.332c-0.152-0.179-0.307-0.449-0.307-0.979c0-1.066,0.654-1.383,1.164-1.383
			c0.168,0,0.551,0.035,0.785,0.316c0.188,0.219,0.203,0.429,0.213,0.57H110.982z"/>
		<path fill="#FFFFFF" d="M111.896,49.629h0.576v0.525h-0.576V49.629z M111.947,50.741h0.48v2.562h-0.48V50.741z"/>
		<path fill="#FFFFFF" d="M114.789,53.303c-0.035-0.128-0.045-0.25-0.045-0.383c-0.23,0.424-0.578,0.465-0.791,0.465
			c-0.588,0-0.904-0.332-0.904-0.756c0-0.204,0.072-0.53,0.449-0.749c0.275-0.153,0.684-0.169,0.889-0.169
			c0.123,0,0.199,0.005,0.346,0.016c0-0.317,0-0.455-0.092-0.566c-0.096-0.128-0.307-0.168-0.443-0.168
			c-0.484,0-0.51,0.331-0.516,0.433h-0.479c0.016-0.133,0.029-0.311,0.178-0.484c0.193-0.215,0.557-0.275,0.826-0.275
			c0.373,0,0.771,0.117,0.908,0.378c0.082,0.153,0.086,0.275,0.086,0.393l-0.02,1.224c0,0.041,0.006,0.383,0.041,0.644H114.789
			L114.789,53.303z M114.457,52.043c-0.193,0-0.924,0-0.924,0.52c0,0.163,0.104,0.444,0.531,0.444c0.244,0,0.43-0.098,0.545-0.275
			c0.109-0.173,0.113-0.316,0.123-0.673C114.646,52.047,114.574,52.043,114.457,52.043z"/>
		<path fill="#FFFFFF" d="M115.941,49.625h0.48v3.678h-0.48V49.625z"/>
	</g>
</g>
</svg>
