<?xml version="1.0" encoding="utf-8"?>
<!-- Generator: Adobe Illustrator 16.0.0, SVG Export Plug-In . SVG Version: 6.00 Build 0)  -->
<!DOCTYPE svg PUBLIC "-//W3C//DTD SVG 1.1//EN" "http://www.w3.org/Graphics/SVG/1.1/DTD/svg11.dtd">
<svg version="1.1" id="Capa_1" xmlns="http://www.w3.org/2000/svg" xmlns:xlink="http://www.w3.org/1999/xlink" x="0px" y="0px"
	 width="200px" height="54.123px" viewBox="0 0 200 54.123" enable-background="new 0 0 200 54.123" xml:space="preserve">
<g>
	<path fill="none" d="M90.605,17.052l-0.091-0.051l-1.842-0.698c0.148,0.655,0.358,1.289,0.618,1.893l1.515,0.409l0.042,0.014
		C90.72,18.112,90.638,17.59,90.605,17.052z"/>
	<path fill="none" d="M92.195,21.568c-0.404-0.574-0.74-1.198-1.001-1.86l-0.025-0.007l-1.165-0.109
		c0.331,0.542,0.71,1.056,1.125,1.533L92.195,21.568z"/>
	<path fill="none" d="M95.18,15.25l-1.436-2.876c-0.367,0.399-0.689,0.835-0.97,1.3l1.679,2.379l0.121,0.157
		c0.198-0.314,0.417-0.607,0.666-0.878L95.18,15.25z"/>
	<path fill="none" d="M91.68,17.658c0,0.437,0.039,0.864,0.11,1.281l1.712,0.618l0.152,0.084c0-0.053-0.004-0.105-0.004-0.157
		c0-0.281,0.021-0.554,0.056-0.826l-0.204-0.125l-1.822-0.878V17.658z"/>
	<path fill="none" d="M91.604,12.335c0.291-0.563,0.641-1.094,1.043-1.579l-0.019-0.03l-1.931-3.654
		c-0.522,0.682-0.965,1.428-1.32,2.221l2.157,2.965L91.604,12.335z"/>
	<path fill="none" d="M96.059,14.521l0.019,0.045c0.359-0.266,0.747-0.495,1.155-0.67l-0.009-0.033l-0.655-3.429l-0.003-0.013
		c-0.565,0.228-1.097,0.522-1.585,0.868L96.059,14.521z"/>
	<path fill="none" d="M94.095,9.357c0.578-0.444,1.212-0.821,1.889-1.115l-0.973-4.588c-0.863,0.386-1.669,0.88-2.4,1.464
		l1.477,4.222L94.095,9.357z"/>
	<path fill="none" d="M93.87,17.832c0.075-0.272,0.168-0.541,0.278-0.798l-0.132-0.106l-1.827-2.037
		c-0.171,0.446-0.3,0.915-0.386,1.399l1.92,1.439L93.87,17.832z"/>
	<path fill="none" d="M94.429,22.499c-0.334-0.596-0.568-1.257-0.688-1.96l-0.164-0.109l-1.538-0.468
		c0.221,0.686,0.533,1.336,0.925,1.927L94.429,22.499z"/>
	<path fill="none" d="M99.172,38.254c-0.248-0.194-0.59-0.296-1.021-0.296c-0.23,0-0.46,0.027-0.693,0.08
		c-0.007,0.134-0.013,0.373-0.016,0.719l-0.01,0.598v1.651l0.007,1.28c0.003,0.195,0.008,0.445,0.019,0.753
		c0.202,0.052,0.416,0.08,0.644,0.08c0.233,0,0.438-0.033,0.614-0.095c0.182-0.06,0.335-0.146,0.462-0.254
		c0.127-0.11,0.249-0.273,0.365-0.49c0.12-0.213,0.212-0.487,0.273-0.823c0.065-0.331,0.099-0.681,0.099-1.041
		c0-0.511-0.063-0.949-0.186-1.315C99.605,38.729,99.421,38.448,99.172,38.254z"/>
	<path fill="none" d="M106.85,19.993l-1.586,0.362c-0.047,0.345-0.125,0.679-0.227,1.001l1.438-0.409
		C106.621,20.639,106.746,20.32,106.85,19.993z"/>
	<path fill="none" d="M107.35,20.648l0.934-0.062c0.268-0.345,0.51-0.706,0.734-1.077l-1.23,0.174
		C107.66,20.015,107.514,20.336,107.35,20.648z"/>
	<path fill="none" d="M107.287,12.169l2.249-3.019c-0.377-0.808-0.847-1.563-1.396-2.253l-2.014,3.626
		C106.568,11.024,106.961,11.578,107.287,12.169z"/>
	<path fill="none" d="M110.316,16.24l-1.941,0.713c-0.025,0.506-0.096,0.999-0.203,1.479l1.539-0.297
		C109.967,17.527,110.172,16.894,110.316,16.24z"/>
	<path fill="none" d="M107.004,16.124l0.059-0.037c-0.099-0.469-0.234-0.922-0.41-1.356l-0.016,0.008l-1.871,2.159
		c0.116,0.26,0.221,0.529,0.303,0.807L107.004,16.124z"/>
	<path fill="none" d="M108.307,15.287l2.27-1.276c0-0.05,0-0.1-0.002-0.148c0-0.813-0.086-1.608-0.252-2.373l-2.352,2.283
		C108.124,14.259,108.236,14.767,108.307,15.287z"/>
	<path fill="none" d="M103.719,11.237l0.035-0.078c-0.486-0.329-1.009-0.602-1.562-0.81l-0.006,0.012l-0.645,3.453
		c0.418,0.161,0.812,0.373,1.182,0.627L103.719,11.237z"/>
	<path fill="none" d="M99.489,7.515c0.396,0,0.787,0.03,1.17,0.081l0.276-4.798C100.462,2.734,99.981,2.7,99.488,2.7
		c-0.543,0-1.078,0.041-1.601,0.117L98.1,7.624C98.551,7.553,99.017,7.515,99.489,7.515z"/>
	<path fill="none" d="M106.193,4.982c-0.725-0.556-1.52-1.024-2.365-1.389l-1.037,4.566c0.645,0.262,1.255,0.599,1.816,1
		L106.193,4.982z"/>
	<path fill="none" d="M90.515,15.469l0.122,0.076c0.056-0.557,0.167-1.099,0.321-1.62l-0.079-0.063l-2.256-2.252
		c-0.148,0.731-0.225,1.484-0.224,2.252c0,0.083,0.003,0.163,0.005,0.244L90.515,15.469z"/>
	<path fill="none" d="M107.134,18.802c0.058-0.374,0.087-0.757,0.087-1.146c0-0.036,0-0.073,0-0.108l-0.074,0.035l-1.883,1.016
		c0.037,0.288,0.061,0.581,0.061,0.883c0,0.025,0,0.049,0,0.073l1.749-0.73L107.134,18.802z"/>
	<path fill="none" d="M104.998,12.2l-0.039,0.057l-1.311,2.98c0.25,0.262,0.477,0.548,0.678,0.854l1.65-2.659
		C105.693,12.987,105.363,12.574,104.998,12.2z"/>
	<path fill="none" d="M124.867,38.271c-0.248-0.195-0.588-0.291-1.023-0.295c-0.229,0-0.461,0.024-0.693,0.078
		c-0.006,0.137-0.014,0.375-0.014,0.721l-0.012,0.598v1.652l0.01,1.279c0.004,0.194,0.008,0.446,0.018,0.756
		c0.203,0.049,0.418,0.076,0.646,0.076s0.438-0.029,0.613-0.095c0.185-0.06,0.332-0.146,0.463-0.253
		c0.123-0.111,0.248-0.273,0.364-0.49c0.119-0.212,0.212-0.486,0.271-0.82c0.066-0.336,0.1-0.685,0.1-1.043
		c0-0.512-0.063-0.949-0.186-1.315C125.299,38.75,125.113,38.466,124.867,38.271z"/>
	<path fill="none" d="M117.582,38.833c-0.078-0.184-0.174-0.344-0.285-0.48c-0.109-0.136-0.254-0.252-0.43-0.346
		c-0.174-0.095-0.361-0.141-0.568-0.141c-0.295,0-0.551,0.098-0.775,0.292c-0.223,0.196-0.389,0.479-0.502,0.851
		c-0.111,0.37-0.164,0.79-0.164,1.256c0,0.264,0.016,0.528,0.051,0.799c0.037,0.271,0.078,0.504,0.131,0.699
		c0.092,0.33,0.205,0.609,0.35,0.834c0.146,0.223,0.305,0.389,0.48,0.498c0.178,0.104,0.373,0.155,0.59,0.155
		c0.297,0,0.557-0.106,0.779-0.321c0.219-0.219,0.383-0.523,0.49-0.916c0.108-0.394,0.162-0.847,0.162-1.354
		c0-0.442-0.037-0.845-0.115-1.214C117.725,39.217,117.664,39.015,117.582,38.833z"/>
	<polygon fill="none" points="134.832,41.188 136.232,41.188 135.541,38.694 	"/>
	<path fill="none" d="M129.859,38.833c-0.08-0.184-0.174-0.344-0.287-0.48c-0.107-0.136-0.252-0.252-0.428-0.346
		c-0.172-0.095-0.365-0.141-0.57-0.141c-0.291,0-0.553,0.098-0.775,0.292c-0.223,0.196-0.387,0.479-0.504,0.851
		c-0.109,0.37-0.164,0.79-0.164,1.256c0,0.264,0.016,0.528,0.053,0.799c0.035,0.271,0.082,0.504,0.133,0.699
		c0.086,0.33,0.203,0.609,0.349,0.834c0.144,0.223,0.306,0.389,0.479,0.498c0.18,0.104,0.377,0.155,0.59,0.155
		c0.301,0,0.557-0.106,0.777-0.321c0.221-0.219,0.385-0.523,0.493-0.916c0.106-0.394,0.164-0.847,0.164-1.354
		c0-0.442-0.041-0.845-0.119-1.214C130.001,39.217,129.936,39.015,129.859,38.833z"/>
	<path fill="none" d="M132.71,40.537c-0.149-0.095-0.399-0.146-0.744-0.146c-0.079,0-0.182,0.008-0.309,0.017v1.567
		c-0.001,0.154,0.005,0.521,0.011,1.105c0.141,0.05,0.285,0.074,0.438,0.074c0.246,0,0.441-0.057,0.595-0.166
		c0.147-0.112,0.264-0.281,0.344-0.508c0.082-0.226,0.121-0.486,0.121-0.777c0-0.289-0.037-0.531-0.11-0.727
		C132.979,40.776,132.861,40.632,132.71,40.537z"/>
	<polygon fill="none" points="99.196,28.162 98.976,27.653 98.83,27.362 98.611,27.07 98.393,26.85 97.662,26.267 97.15,25.975 
		95.983,25.392 95.109,24.952 94.233,24.442 92.191,23.349 89.783,22.036 88.398,21.305 86.864,20.576 86.864,26.195 99.342,32.761 
		99.342,28.675 99.267,28.384 	"/>
	<polygon fill="none" points="93.342,41.171 94.742,41.171 94.048,38.679 	"/>
	<path fill="none" d="M91.314,38.254c-0.25-0.194-0.59-0.296-1.022-0.296c-0.228,0-0.461,0.027-0.697,0.08
		c-0.002,0.134-0.008,0.373-0.012,0.719l-0.011,0.598v1.651l0.009,1.28c0.003,0.195,0.008,0.445,0.015,0.753
		c0.207,0.052,0.42,0.08,0.647,0.08c0.235,0,0.44-0.033,0.615-0.095c0.181-0.06,0.332-0.146,0.459-0.254
		c0.126-0.11,0.251-0.273,0.371-0.49c0.118-0.213,0.209-0.487,0.272-0.823c0.063-0.331,0.094-0.681,0.094-1.041
		c0-0.511-0.059-0.949-0.186-1.315C91.748,38.729,91.563,38.448,91.314,38.254z"/>
	<polygon fill="none" points="110.574,21.305 109.193,22.036 106.783,23.349 104.742,24.442 103.863,24.952 102.918,25.392 
		101.822,25.975 101.311,26.267 100.947,26.557 100.584,26.85 100.362,27.07 100.143,27.362 100,27.653 99.778,28.162 
		99.706,28.384 99.633,28.675 99.633,32.761 112.109,26.195 112.037,20.576 	"/>
	<path fill="none" d="M100.361,9.922l0.005-0.017c-0.289-0.036-0.582-0.055-0.878-0.055c-0.373,0-0.738,0.028-1.094,0.079
		l0.218,3.565c0.286-0.048,0.577-0.069,0.876-0.069c0.247,0,0.493,0.019,0.733,0.048L100.361,9.922z"/>
	<path fill="none" d="M132.466,40.007c0.128-0.054,0.224-0.119,0.293-0.208c0.068-0.086,0.125-0.2,0.169-0.346
		c0.049-0.146,0.069-0.317,0.069-0.517c0-0.345-0.074-0.59-0.224-0.74c-0.145-0.158-0.358-0.233-0.645-0.233
		c-0.16,0-0.305,0.022-0.445,0.063c-0.018,0.228-0.029,0.582-0.029,1.061v0.984h0.002c0.109,0.009,0.201,0.014,0.281,0.014
		C132.166,40.085,132.341,40.06,132.466,40.007z"/>
	<path fill="#FFFFFF" d="M99.519,37.866c-0.278-0.174-0.639-0.258-1.094-0.258c-0.154,0-0.367,0.004-0.645,0.015
		c-0.272,0.013-0.487,0.017-0.647,0.017c-0.209,0-0.448-0.008-0.717-0.023v0.26c0.193,0.001,0.32,0.023,0.382,0.062
		c0.026,0.015,0.043,0.041,0.058,0.076c0.016,0.057,0.031,0.2,0.037,0.426c0.013,0.365,0.02,0.682,0.02,0.953v1.686
		c0,0.223-0.006,0.613-0.021,1.184c-0.006,0.332-0.015,0.592-0.025,0.778c-0.072,0.077-0.164,0.157-0.272,0.249l-0.012,0.329
		c0.284-0.021,0.481-0.032,0.592-0.035c0.077,0.001,0.241,0.005,0.496,0.017c0.191,0.012,0.345,0.014,0.457,0.014
		c0.341,0,0.609-0.037,0.805-0.117c0.195-0.082,0.382-0.205,0.561-0.361c0.176-0.16,0.344-0.377,0.498-0.652
		c0.157-0.274,0.291-0.725,0.383-1.092c0.091-0.367,0.137-0.761,0.137-1.179c0-0.584-0.098-1.077-0.291-1.485
		C100.029,38.326,99.797,38.037,99.519,37.866z M99.816,41.457c-0.061,0.336-0.153,0.61-0.273,0.823
		c-0.116,0.217-0.238,0.38-0.365,0.49c-0.127,0.108-0.28,0.194-0.462,0.254c-0.176,0.062-0.381,0.095-0.614,0.095
		c-0.228,0-0.442-0.028-0.644-0.08c-0.011-0.308-0.016-0.558-0.019-0.753l-0.007-1.28v-1.651l0.01-0.598
		c0.003-0.346,0.009-0.585,0.016-0.719c0.233-0.053,0.463-0.08,0.693-0.08c0.431,0,0.773,0.102,1.021,0.296
		c0.249,0.194,0.433,0.476,0.557,0.847c0.123,0.366,0.186,0.805,0.186,1.315C99.915,40.776,99.881,41.126,99.816,41.457z"/>
	<path fill="#FFFFFF" d="M65.138,37.617v0.267c0.219,0.002,0.352,0.02,0.4,0.045c0.049,0.022,0.082,0.057,0.104,0.107
		c0.024,0.046,0.035,0.201,0.039,0.461c0.008,0.357,0.01,0.727,0.01,1.102v1.273c0,0.359-0.01,0.658-0.025,0.895
		c-0.017,0.234-0.048,0.42-0.088,0.555c-0.039,0.137-0.101,0.258-0.18,0.367c-0.08,0.107-0.2,0.201-0.362,0.277
		c-0.16,0.075-0.345,0.11-0.552,0.11c-0.178,0-0.34-0.027-0.483-0.083c-0.143-0.057-0.259-0.133-0.343-0.227
		c-0.116-0.123-0.196-0.281-0.247-0.469c-0.051-0.188-0.076-0.581-0.076-1.172v-1.527c0.005-0.729,0.01-1.123,0.015-1.179
		c0.002-0.21,0.017-0.343,0.042-0.397c0.017-0.043,0.047-0.074,0.097-0.096c0.049-0.023,0.18-0.041,0.399-0.044v-0.267
		c-0.259,0.021-1.321,0.021-1.623,0v0.267c0.219,0.003,0.352,0.019,0.397,0.046c0.046,0.024,0.082,0.059,0.103,0.108
		c0.021,0.046,0.036,0.2,0.04,0.461c0.007,0.358,0.009,0.728,0.009,1.103v1.826c0,0.53,0.029,0.909,0.076,1.135
		c0.045,0.172,0.121,0.338,0.228,0.504c0.111,0.164,0.269,0.293,0.48,0.396c0.206,0.1,0.455,0.146,0.742,0.146
		c0.242,0,0.465-0.041,0.667-0.125c0.199-0.086,0.363-0.205,0.492-0.361c0.17-0.203,0.287-0.445,0.351-0.715
		c0.063-0.271,0.098-0.745,0.098-1.424v-1.385c0.006-0.728,0.006-1.121,0.01-1.176c0.004-0.212,0.021-0.345,0.042-0.398
		c0.019-0.043,0.05-0.073,0.097-0.096c0.047-0.025,0.183-0.043,0.401-0.045v-0.267C66.167,37.64,65.444,37.64,65.138,37.617z"/>
	<path fill="#FFFFFF" d="M69.77,37.619v0.26c0.193,0.001,0.322,0.024,0.381,0.062c0.026,0.016,0.047,0.043,0.059,0.078
		c0.017,0.055,0.028,0.199,0.036,0.424c0.014,0.367,0.018,0.683,0.018,0.953v3.021c-0.068-0.107-0.157-0.248-0.258-0.432
		c-0.162-0.274-0.378-0.651-0.648-1.131l-0.839-1.506l-0.575-1.054c-0.075-0.146-0.19-0.372-0.347-0.678
		c-0.134,0.011-0.676,0.011-0.987,0v0.261c0.151,0.001,0.247,0.01,0.29,0.025c0.047,0.009,0.085,0.035,0.117,0.082
		c0.052,0.068,0.086,0.127,0.099,0.179c0.01,0.028,0.012,0.085,0.012,0.175v3.369c0,0.264-0.005,0.579-0.015,0.941
		c-0.01,0.236-0.023,0.379-0.04,0.434c-0.013,0.037-0.032,0.064-0.057,0.079c-0.061,0.043-0.188,0.063-0.382,0.065v0.4
		c0.251-0.021,1.075-0.021,1.236,0.002v-0.4c-0.193-0.002-0.319-0.022-0.379-0.06c-0.028-0.019-0.047-0.046-0.06-0.086
		c-0.017-0.052-0.03-0.19-0.034-0.42c-0.017-0.365-0.023-0.683-0.023-0.954v-3.169l1.97,3.498l0.359,0.673
		c0.073,0.137,0.185,0.329,0.339,0.588c0.055,0.1,0.093,0.152,0.105,0.165c0.009,0.013,0.019,0.021,0.03,0.027l0.067,0.019
		l0.288,0.125c-0.011-1.102-0.013-1.85-0.013-2.252v-1.988c0-0.262,0.005-0.574,0.017-0.938c0.007-0.238,0.02-0.385,0.039-0.434
		c0.011-0.041,0.027-0.067,0.055-0.084c0.062-0.037,0.189-0.06,0.381-0.062v-0.26C70.836,37.63,69.991,37.63,69.77,37.619z"/>
	<path fill="#FFFFFF" d="M86.683,37.616v0.266c0.221,0.004,0.355,0.02,0.4,0.045c0.049,0.021,0.081,0.059,0.102,0.107
		c0.024,0.046,0.038,0.201,0.042,0.459c0.006,0.359,0.008,0.73,0.008,1.104v1.914c-0.004,0.723-0.008,1.115-0.009,1.174
		c-0.008,0.209-0.021,0.342-0.042,0.397c-0.019,0.045-0.052,0.078-0.101,0.103c-0.047,0.021-0.183,0.033-0.4,0.039v0.404
		c0,0,1.243-0.021,1.637,0v-0.404c-0.221-0.006-0.354-0.019-0.404-0.039c-0.044-0.025-0.082-0.064-0.103-0.113
		c-0.019-0.049-0.034-0.205-0.038-0.467c-0.005-0.355-0.009-0.722-0.009-1.094v-1.914c0.007-0.728,0.009-1.121,0.011-1.177
		c0.004-0.211,0.019-0.344,0.042-0.399c0.017-0.041,0.053-0.072,0.097-0.094c0.05-0.025,0.183-0.041,0.404-0.045v-0.266
		C87.96,37.636,87.037,37.636,86.683,37.616z"/>
	<path fill="#FFFFFF" d="M92.516,41.392c0.092-0.367,0.136-0.761,0.136-1.179c0-0.584-0.095-1.077-0.289-1.485
		c-0.193-0.401-0.425-0.69-0.702-0.861c-0.275-0.174-0.642-0.258-1.095-0.258c-0.152,0-0.367,0.004-0.643,0.015
		c-0.272,0.013-0.488,0.017-0.647,0.017c-0.208,0-0.448-0.008-0.718-0.023v0.26c0.193,0.001,0.319,0.023,0.381,0.062
		c0.026,0.015,0.047,0.041,0.059,0.076c0.019,0.057,0.031,0.2,0.038,0.426c0.011,0.365,0.017,0.682,0.017,0.953v1.686
		c0,0.223-0.006,0.613-0.019,1.184c-0.01,0.332-0.017,0.592-0.027,0.778c-0.072,0.077-0.164,0.157-0.27,0.249l-0.025,0.316
		c0.285-0.02,0.485-0.033,0.597-0.037c0.075,0.002,0.242,0.007,0.493,0.02c0.193,0.01,0.345,0.016,0.458,0.016
		c0.342,0,0.608-0.041,0.803-0.119c0.194-0.082,0.384-0.203,0.561-0.365c0.178-0.159,0.345-0.374,0.5-0.648
		C92.282,42.198,92.425,41.759,92.516,41.392z M91.96,41.457c-0.063,0.336-0.154,0.61-0.272,0.823
		c-0.12,0.217-0.245,0.38-0.371,0.49c-0.127,0.108-0.278,0.194-0.459,0.254c-0.175,0.062-0.38,0.095-0.615,0.095
		c-0.227,0-0.44-0.028-0.647-0.08c-0.007-0.308-0.012-0.558-0.015-0.753l-0.009-1.28v-1.651l0.011-0.598
		c0.004-0.346,0.01-0.585,0.012-0.719c0.236-0.053,0.469-0.08,0.697-0.08c0.432,0,0.772,0.102,1.022,0.296
		c0.249,0.194,0.434,0.476,0.554,0.847c0.127,0.366,0.186,0.805,0.186,1.315C92.054,40.776,92.023,41.126,91.96,41.457z"/>
	<path fill="#FFFFFF" d="M95.962,43.16c-0.04-0.032-0.08-0.095-0.115-0.192c-0.062-0.168-0.191-0.59-0.383-1.263l-1.187-4.146
		h-0.181c-0.247,0.883-0.411,1.451-0.483,1.709l-0.698,2.332c-0.207,0.672-0.327,1.06-0.36,1.16
		c-0.055,0.182-0.103,0.291-0.133,0.336c-0.031,0.043-0.064,0.071-0.101,0.088c-0.036,0.012-0.125,0.021-0.272,0.022l0.006,0.421
		c0.211-0.027,0.978-0.027,1.293,0.001l-0.004-0.42c-0.174-0.001-0.294-0.017-0.362-0.038c-0.042-0.013-0.076-0.035-0.097-0.072
		c-0.013-0.025-0.02-0.059-0.02-0.096c0-0.088,0.028-0.229,0.079-0.419l0.303-1.062h1.608l0.341,1.267
		c0.028,0.097,0.04,0.172,0.04,0.233c0,0.037-0.006,0.072-0.024,0.099c-0.016,0.026-0.046,0.048-0.091,0.058
		c-0.045,0.014-0.169,0.024-0.376,0.029l0.005,0.421c0,0,1.212-0.028,1.501,0l-0.007-0.421
		C96.096,43.206,96.004,43.188,95.962,43.16z M93.342,41.171l0.706-2.492l0.694,2.492H93.342z"/>
	<path fill="#FFFFFF" d="M86.626,40.958c-0.052-0.171-0.123-0.311-0.207-0.417c-0.082-0.104-0.21-0.198-0.385-0.274
		c-0.186-0.055-0.395-0.102-0.625-0.146c-0.231-0.046-0.399-0.095-0.5-0.149c-0.148-0.076-0.251-0.18-0.308-0.304
		c-0.058-0.129-0.086-0.313-0.086-0.547c0-0.39,0.08-0.704,0.238-0.944c0.165-0.246,0.378-0.371,0.646-0.371
		c0.209,0,0.406,0.08,0.596,0.241c0.08,0.079,0.144,0.17,0.191,0.269c0.011,0.037,0.019,0.271,0.026,0.693H86.4
		c0.004-0.292,0.016-0.513,0.024-0.66c0.011-0.15,0.032-0.312,0.058-0.486c-0.161-0.118-0.338-0.211-0.521-0.271
		c-0.188-0.063-0.359-0.095-0.517-0.095c-0.261,0-0.504,0.08-0.729,0.238c-0.22,0.162-0.39,0.386-0.504,0.675
		c-0.115,0.286-0.172,0.593-0.172,0.92c0,0.22,0.031,0.431,0.085,0.622c0.055,0.193,0.131,0.35,0.222,0.465
		c0.09,0.12,0.232,0.223,0.425,0.312c0.145,0.047,0.32,0.088,0.524,0.127c0.206,0.039,0.342,0.065,0.413,0.084
		c0.107,0.031,0.2,0.09,0.274,0.172c0.073,0.078,0.127,0.185,0.162,0.318c0.038,0.133,0.055,0.289,0.055,0.473
		c0,0.236-0.033,0.459-0.109,0.67c-0.07,0.207-0.185,0.373-0.342,0.502c-0.158,0.128-0.332,0.191-0.516,0.191
		c-0.128,0-0.26-0.033-0.396-0.097c-0.14-0.065-0.249-0.14-0.328-0.222c-0.086-0.086-0.135-0.16-0.159-0.231
		c-0.018-0.073-0.034-0.313-0.041-0.716h-0.191c-0.007,0.594-0.024,1.021-0.055,1.287c0.298,0.213,0.632,0.318,1.002,0.32
		c0.481,0,0.878-0.203,1.184-0.61c0.304-0.408,0.46-0.886,0.46-1.435C86.708,41.334,86.68,41.131,86.626,40.958z"/>
	<path fill="#FFFFFF" d="M83.665,43.161c-0.034-0.042-0.151-0.256-0.35-0.641l-0.7-1.371c-0.175-0.334-0.282-0.547-0.329-0.646
		c0.255-0.082,0.461-0.198,0.618-0.351c0.16-0.151,0.28-0.34,0.364-0.569c0.083-0.229,0.125-0.459,0.125-0.692
		c0-0.246-0.045-0.476-0.131-0.685c-0.092-0.211-0.216-0.365-0.381-0.46c-0.16-0.092-0.419-0.139-0.773-0.139
		c-0.044,0-1.526,0.019-1.526,0.019l-0.329-0.011v0.267c0.219,0.003,0.35,0.019,0.393,0.041c0.05,0.022,0.085,0.058,0.104,0.108
		c0.023,0.046,0.038,0.199,0.042,0.459c0.008,0.359,0.01,0.729,0.01,1.104v1.914c-0.007,0.721-0.01,1.114-0.01,1.174
		c-0.006,0.209-0.021,0.342-0.044,0.397c-0.019,0.044-0.052,0.077-0.101,0.103c-0.046,0.021-0.177,0.033-0.396,0.039v0.404
		c0.418-0.023,1.358-0.023,1.621,0v-0.404c-0.219-0.006-0.35-0.019-0.4-0.039c-0.048-0.025-0.084-0.064-0.105-0.113
		s-0.034-0.205-0.038-0.467c-0.007-0.355-0.009-0.722-0.009-1.094v-1.838c0.009-0.761,0.018-1.165,0.018-1.204
		c0.006-0.126,0.01-0.269,0.018-0.415c0.184-0.084,0.371-0.128,0.561-0.128c0.306,0,0.531,0.101,0.681,0.302
		c0.149,0.201,0.226,0.467,0.226,0.807c0,0.389-0.087,0.701-0.26,0.938c-0.174,0.237-0.431,0.356-0.771,0.356
		c-0.049,0-0.12-0.007-0.216-0.013l-0.028,0.123c0.175,0.301,0.362,0.637,0.556,1.004c0.121,0.226,0.259,0.5,0.414,0.836
		c0.284,0.602,0.486,1.142,0.608,1.351c0.158-0.019,0.632-0.019,0.77,0v-0.403c-0.093,0-0.155-0.007-0.18-0.021
		C83.701,43.196,83.682,43.183,83.665,43.161z"/>
	<path fill="#FFFFFF" d="M75.646,37.616v0.267c0.249,0.025,0.39,0.048,0.428,0.068c0.049,0.022,0.072,0.065,0.072,0.132
		c0,0.046-0.019,0.169-0.061,0.363c-0.095,0.457-0.199,0.883-0.302,1.267l-0.724,2.708l-0.869-3.263
		c-0.061-0.226-0.132-0.521-0.211-0.886c-0.025-0.113-0.038-0.182-0.038-0.215c0-0.029,0.007-0.057,0.019-0.078
		c0.016-0.025,0.043-0.041,0.075-0.051c0.038-0.007,0.17-0.015,0.392-0.021v-0.292c-0.357,0.021-1.166,0.021-1.505,0v0.267
		c0.165,0.017,0.268,0.033,0.308,0.065c0.031,0.015,0.053,0.039,0.07,0.078c0.023,0.057,0.088,0.271,0.188,0.639l0.94,3.479
		c0.179,0.687,0.293,1.244,0.353,1.484v0.001h0.277c0.033-0.157,0.065-0.394,0.09-0.509c0.03-0.12,0.066-0.264,0.108-0.426
		l0.213-0.812l0.87-3.176c0.119-0.403,0.188-0.628,0.207-0.669c0.024-0.059,0.049-0.096,0.077-0.116
		c0.029-0.019,0.111-0.034,0.252-0.039v-0.267C76.62,37.632,75.926,37.632,75.646,37.616z"/>
	<path fill="#FFFFFF" d="M79.85,42.603c-0.024,0.146-0.048,0.26-0.069,0.346c-0.084,0.052-0.175,0.089-0.276,0.111
		c-0.099,0.023-0.268,0.033-0.503,0.033c-0.328,0-0.629-0.015-0.896-0.046c-0.01-0.263-0.014-0.649-0.014-1.159
		c0-0.545,0.004-0.953,0.014-1.229c0.228-0.015,0.404-0.021,0.528-0.021c0.301,0,0.508,0.018,0.614,0.051
		c0.058,0.02,0.1,0.055,0.119,0.103c0.021,0.051,0.036,0.179,0.04,0.382l0.007,0.28h0.195l-0.014-0.964l0.014-0.859v-0.078h-0.167
		l-0.017,0.291c-0.014,0.191-0.027,0.305-0.044,0.338c-0.017,0.032-0.057,0.053-0.116,0.064c-0.154,0.031-0.343,0.048-0.563,0.048
		c-0.181,0-0.381-0.01-0.597-0.024l0.009-1.396c0.005-0.268,0.011-0.553,0.019-0.859c0.065-0.01,0.177-0.018,0.329-0.027
		c0.155-0.014,0.253-0.021,0.299-0.021c0.207,0,0.414,0.021,0.622,0.062c0.122,0.021,0.234,0.064,0.335,0.127
		c0.027,0.232,0.04,0.488,0.038,0.77h0.174c0.03-0.548,0.047-0.835,0.049-0.859c0.015-0.115,0.033-0.252,0.061-0.412
		c-0.159-0.026-3.022-0.034-3.022-0.034v0.267c0.218,0.002,0.352,0.02,0.396,0.045c0.049,0.021,0.085,0.057,0.106,0.106
		c0.021,0.046,0.032,0.202,0.042,0.461c0.005,0.358,0.008,0.728,0.008,1.103v2.11c0,0.263-0.008,0.578-0.018,0.94
		c-0.007,0.236-0.021,0.381-0.037,0.434c-0.015,0.038-0.031,0.064-0.059,0.079c-0.061,0.044-0.188,0.063-0.383,0.065v0.401
		c0.463-0.022,2.387,0,2.387-0.003c0.228,0,0.423-0.018,0.58-0.055c0-0.365,0.025-0.967,0.073-1.523H79.93
		C79.918,42.172,79.89,42.356,79.85,42.603z"/>
	<path fill="#FFFFFF" d="M71.147,37.616v0.266c0.223,0.004,0.357,0.02,0.404,0.045c0.046,0.021,0.082,0.059,0.101,0.107
		c0.023,0.046,0.038,0.201,0.042,0.459c0.004,0.359,0.01,0.73,0.01,1.104v1.914c-0.008,0.723-0.012,1.115-0.012,1.174
		c-0.004,0.209-0.021,0.342-0.04,0.397c-0.019,0.045-0.053,0.078-0.101,0.103c-0.049,0.021-0.183,0.033-0.404,0.039v0.404
		c0,0,1.245-0.021,1.639,0v-0.404c-0.22-0.006-0.354-0.019-0.403-0.039c-0.045-0.025-0.08-0.064-0.1-0.113
		c-0.021-0.049-0.036-0.205-0.04-0.467c-0.004-0.355-0.01-0.722-0.01-1.094v-1.914c0.007-0.728,0.01-1.121,0.012-1.177
		c0.006-0.211,0.019-0.344,0.042-0.399c0.018-0.041,0.051-0.072,0.095-0.094c0.05-0.025,0.184-0.041,0.404-0.045v-0.266
		C72.428,37.636,71.504,37.636,71.147,37.616z"/>
	<path fill="#FFFFFF" d="M125.216,37.883c-0.278-0.172-0.641-0.261-1.096-0.261c-0.153,0-0.368,0.007-0.642,0.018
		c-0.272,0.012-0.492,0.018-0.651,0.018c-0.207,0-0.446-0.008-0.718-0.023v0.26c0.197,0.002,0.32,0.022,0.382,0.062
		c0.028,0.016,0.045,0.042,0.062,0.078c0.016,0.057,0.028,0.197,0.034,0.426c0.017,0.363,0.021,0.68,0.021,0.95v1.688
		c0,0.219-0.006,0.615-0.021,1.18c-0.004,0.334-0.016,0.594-0.025,0.781c-0.072,0.076-0.162,0.157-0.27,0.248l-0.021,0.312
		c0.283-0.021,0.48-0.032,0.592-0.035c0.078,0.001,0.242,0.005,0.496,0.017c0.188,0.012,0.342,0.014,0.457,0.014
		c0.342,0,0.609-0.037,0.805-0.117c0.197-0.082,0.383-0.205,0.561-0.361c0.176-0.16,0.344-0.377,0.498-0.652
		c0.159-0.273,0.301-0.709,0.393-1.073c0.093-0.368,0.138-0.761,0.138-1.179c0-0.582-0.101-1.082-0.291-1.483
		C125.727,38.343,125.493,38.054,125.216,37.883z M125.51,41.478c-0.06,0.334-0.152,0.608-0.271,0.82
		c-0.116,0.217-0.241,0.379-0.364,0.49c-0.131,0.107-0.278,0.193-0.463,0.253c-0.175,0.065-0.386,0.095-0.613,0.095
		s-0.442-0.027-0.646-0.076c-0.01-0.31-0.014-0.562-0.018-0.756l-0.01-1.279v-1.652l0.012-0.598c0-0.346,0.008-0.584,0.014-0.721
		c0.232-0.054,0.465-0.078,0.693-0.078c0.436,0.004,0.775,0.1,1.023,0.295c0.246,0.195,0.432,0.479,0.557,0.849
		c0.122,0.366,0.186,0.804,0.186,1.315C125.609,40.793,125.576,41.142,125.51,41.478z"/>
	<path fill="#FFFFFF" d="M130.525,38.905c-0.09-0.25-0.219-0.481-0.381-0.69c-0.16-0.213-0.365-0.382-0.615-0.507
		c-0.25-0.132-0.527-0.195-0.832-0.195c-0.334,0-0.627,0.074-0.885,0.227c-0.254,0.15-0.486,0.373-0.691,0.668
		c-0.201,0.293-0.35,0.626-0.439,0.994c-0.084,0.369-0.131,0.771-0.131,1.207c0,0.387,0.047,0.777,0.137,1.174
		c0.09,0.393,0.222,0.729,0.397,1.006c0.174,0.273,0.386,0.484,0.64,0.627c0.252,0.139,0.521,0.211,0.815,0.211
		c0.635-0.003,1.166-0.311,1.584-0.928c0.422-0.619,0.633-1.389,0.633-2.32c0-0.289-0.024-0.557-0.065-0.812
		C130.652,39.313,130.596,39.093,130.525,38.905z M130.005,42.013c-0.108,0.393-0.272,0.697-0.493,0.916
		c-0.221,0.215-0.477,0.321-0.777,0.321c-0.213,0-0.41-0.052-0.59-0.155c-0.174-0.109-0.336-0.275-0.479-0.498
		c-0.146-0.225-0.263-0.504-0.349-0.834c-0.051-0.195-0.098-0.428-0.133-0.699c-0.037-0.271-0.053-0.535-0.053-0.799
		c0-0.466,0.055-0.886,0.164-1.256c0.117-0.371,0.281-0.654,0.504-0.851c0.223-0.194,0.484-0.292,0.775-0.292
		c0.205,0,0.398,0.046,0.57,0.141c0.176,0.094,0.32,0.21,0.428,0.346c0.113,0.137,0.207,0.297,0.287,0.48
		c0.076,0.182,0.142,0.384,0.19,0.611c0.078,0.369,0.119,0.771,0.119,1.214C130.169,41.166,130.111,41.619,130.005,42.013z"/>
	<path fill="#FFFFFF" d="M121.795,43.183c-0.031-0.043-0.148-0.261-0.35-0.641l-0.697-1.375c-0.172-0.333-0.283-0.548-0.33-0.645
		c0.254-0.082,0.459-0.201,0.619-0.352c0.158-0.15,0.279-0.342,0.363-0.57c0.082-0.229,0.121-0.457,0.121-0.688
		c0-0.249-0.043-0.479-0.131-0.687c-0.088-0.211-0.216-0.365-0.375-0.457c-0.162-0.1-0.418-0.145-0.775-0.145
		c-0.047,0-0.215,0.009-0.502,0.025c-0.223,0.014-1.025-0.002-1.025-0.002l-0.33-0.015v0.267c0.221,0.002,0.354,0.017,0.401,0.047
		c0.045,0.018,0.08,0.054,0.1,0.105c0.023,0.045,0.039,0.198,0.044,0.461c0.002,0.359,0.01,0.727,0.01,1.1v1.916
		c-0.008,0.724-0.01,1.115-0.015,1.174c-0.006,0.212-0.021,0.345-0.041,0.4c-0.018,0.041-0.053,0.074-0.098,0.099
		c-0.052,0.022-0.183,0.034-0.402,0.041l-0.014,0.387c0.42-0.022,1.358-0.022,1.623,0l0.01-0.387
		c-0.214-0.007-0.349-0.019-0.397-0.041c-0.049-0.024-0.082-0.062-0.105-0.112c-0.02-0.049-0.031-0.203-0.037-0.467
		c-0.004-0.354-0.01-0.721-0.01-1.094v-1.836c0.01-0.764,0.018-1.162,0.018-1.203c0.008-0.131,0.014-0.268,0.018-0.418
		c0.186-0.084,0.371-0.125,0.562-0.125c0.305,0,0.532,0.098,0.684,0.3c0.149,0.2,0.222,0.468,0.222,0.806
		c0,0.387-0.086,0.702-0.263,0.938c-0.172,0.24-0.428,0.359-0.766,0.359c-0.047,0-0.121-0.008-0.219-0.016l-0.029,0.125
		c0.18,0.299,0.366,0.633,0.559,1.004c0.119,0.223,0.259,0.501,0.418,0.833c0.281,0.601,0.47,1.125,0.591,1.334
		c0.157-0.019,0.632-0.019,0.772,0l0.012-0.387c-0.092,0-0.154-0.007-0.182-0.022C121.83,43.216,121.814,43.201,121.795,43.183z"/>
	<path fill="#FFFFFF" d="M133.68,41.013c-0.047-0.168-0.113-0.31-0.207-0.424c-0.088-0.119-0.197-0.209-0.332-0.266
		c-0.134-0.059-0.308-0.106-0.525-0.135c0.166-0.06,0.294-0.129,0.396-0.201c0.101-0.073,0.193-0.168,0.275-0.283
		c0.084-0.118,0.147-0.258,0.196-0.417c0.052-0.16,0.076-0.331,0.076-0.515c0-0.227-0.041-0.435-0.125-0.617
		c-0.082-0.189-0.197-0.323-0.344-0.408c-0.145-0.081-0.354-0.123-0.625-0.123l-1.598,0.018c-0.096,0-0.17-0.002-0.232-0.008v0.262
		c0.193,0.002,0.319,0.021,0.381,0.062c0.026,0.017,0.045,0.042,0.062,0.078c0.014,0.058,0.028,0.196,0.034,0.426
		c0.015,0.364,0.019,0.681,0.019,0.951v2.491c0,0.138-0.002,0.347-0.014,0.613c-0.009,0.268-0.017,0.443-0.029,0.524
		c-0.006,0.056-0.015,0.093-0.026,0.114c-0.014,0.02-0.078,0.07-0.193,0.156l-0.012,0.303c0.244-0.022,0.412-0.035,0.498-0.035
		l0.806,0.035c0.262,0,0.497-0.057,0.688-0.168c0.264-0.147,0.479-0.375,0.641-0.684c0.164-0.311,0.262-0.779,0.262-1.188
		C133.75,41.369,133.725,41.185,133.68,41.013z M131.654,40.071v-0.984c0-0.479,0.012-0.833,0.029-1.061
		c0.141-0.041,0.285-0.063,0.445-0.063c0.286,0,0.5,0.075,0.645,0.233c0.149,0.15,0.224,0.396,0.224,0.74
		c0,0.199-0.021,0.371-0.069,0.517c-0.044,0.146-0.101,0.26-0.169,0.346c-0.069,0.089-0.165,0.154-0.293,0.208
		c-0.125,0.053-0.3,0.078-0.528,0.078c-0.08,0-0.172-0.005-0.281-0.014H131.654z M133.044,42.481
		c-0.08,0.227-0.196,0.396-0.344,0.508c-0.153,0.109-0.349,0.166-0.595,0.166c-0.152,0-0.297-0.024-0.438-0.074
		c-0.006-0.584-0.012-0.951-0.011-1.105v-1.567c0.127-0.009,0.229-0.017,0.309-0.017c0.345,0,0.595,0.051,0.744,0.146
		c0.151,0.095,0.269,0.239,0.345,0.44c0.073,0.195,0.11,0.438,0.11,0.727C133.165,41.995,133.126,42.256,133.044,42.481z"/>
	<path fill="#FFFFFF" d="M118.417,39.565c-0.043-0.252-0.099-0.473-0.166-0.66c-0.094-0.25-0.224-0.481-0.385-0.69
		c-0.156-0.213-0.363-0.382-0.611-0.507c-0.033-0.018-0.071-0.024-0.105-0.039l-0.031,0.029l-0.059-0.062
		c-0.199-0.074-0.408-0.123-0.639-0.123c-0.332,0-0.627,0.074-0.881,0.227c-0.261,0.15-0.487,0.373-0.692,0.668
		c-0.205,0.293-0.35,0.626-0.439,0.994c-0.086,0.369-0.131,0.771-0.131,1.207c0,0.387,0.045,0.777,0.136,1.174
		c0.091,0.393,0.222,0.729,0.396,1.006c0.176,0.273,0.39,0.484,0.642,0.627c0.25,0.139,0.521,0.211,0.812,0.211
		c0.639-0.003,1.168-0.311,1.586-0.928c0.422-0.619,0.631-1.389,0.631-2.32C118.479,40.089,118.46,39.821,118.417,39.565z
		 M117.729,42.013c-0.107,0.393-0.271,0.697-0.49,0.916c-0.223,0.215-0.482,0.321-0.779,0.321c-0.217,0-0.412-0.052-0.59-0.155
		c-0.176-0.109-0.335-0.275-0.48-0.498c-0.145-0.225-0.258-0.504-0.35-0.834c-0.053-0.195-0.094-0.428-0.131-0.699
		c-0.035-0.271-0.051-0.535-0.051-0.799c0-0.466,0.053-0.886,0.164-1.256c0.113-0.371,0.279-0.654,0.502-0.851
		c0.225-0.194,0.48-0.292,0.775-0.292c0.207,0,0.395,0.046,0.568,0.141c0.176,0.094,0.32,0.21,0.43,0.346
		c0.111,0.137,0.207,0.297,0.285,0.48c0.082,0.182,0.143,0.384,0.193,0.611c0.078,0.369,0.115,0.771,0.115,1.214
		C117.891,41.166,117.837,41.619,117.729,42.013z"/>
	<path fill="#FFFFFF" d="M137.451,43.177c-0.041-0.029-0.078-0.094-0.113-0.189c-0.062-0.172-0.189-0.592-0.385-1.266l-1.186-4.145
		h-0.177c-0.252,0.884-0.413,1.453-0.487,1.711l-0.699,2.332c-0.207,0.67-0.326,1.057-0.359,1.16
		c-0.059,0.18-0.104,0.291-0.133,0.332c-0.028,0.043-0.061,0.072-0.1,0.089c-0.035,0.015-0.127,0.022-0.271,0.024l-0.023,0.402
		c0.211-0.027,0.98-0.027,1.295,0l0.02-0.4c-0.172-0.004-0.293-0.017-0.363-0.039c-0.043-0.012-0.072-0.037-0.092-0.076
		c-0.018-0.023-0.023-0.053-0.023-0.094c0-0.086,0.027-0.227,0.082-0.416l0.303-1.062h1.605l0.344,1.266
		c0.025,0.096,0.041,0.172,0.041,0.234c0,0.04-0.01,0.072-0.026,0.1c-0.017,0.026-0.045,0.047-0.091,0.059
		c-0.043,0.014-0.17,0.023-0.379,0.029l-0.018,0.401c0,0,1.209-0.028,1.496,0l0.023-0.401
		C137.59,43.226,137.492,43.208,137.451,43.177z M134.832,41.188l0.709-2.494l0.691,2.494H134.832z"/>
	<path fill="#FFFFFF" d="M114.076,39.128c0.01-0.309,0.029-0.58,0.061-0.812c0.018-0.147,0.051-0.295,0.092-0.446
		c-0.049-0.017-0.176-0.062-0.381-0.144c-0.207-0.078-0.38-0.135-0.522-0.164c-0.146-0.028-0.3-0.043-0.47-0.043
		c-0.713,0-1.275,0.287-1.688,0.865s-0.617,1.303-0.617,2.182c0,0.35,0.029,0.668,0.09,0.963c0.063,0.285,0.153,0.557,0.269,0.804
		c0.116,0.249,0.265,0.472,0.448,0.674c0.186,0.198,0.404,0.351,0.648,0.457c0.248,0.108,0.512,0.165,0.801,0.165
		c0.244,0,0.469-0.04,0.676-0.115c0.211-0.07,0.422-0.188,0.64-0.352l0.106-0.383l-0.049-0.088c-0.146,0.154-0.293,0.269-0.438,0.34
		c-0.222,0.107-0.453,0.156-0.707,0.156c-0.562,0-1.017-0.254-1.359-0.76c-0.344-0.509-0.516-1.183-0.516-2.02
		c0.004-0.475,0.047-0.871,0.137-1.186c0.088-0.316,0.205-0.576,0.345-0.779c0.137-0.207,0.301-0.355,0.485-0.449
		c0.185-0.098,0.403-0.146,0.668-0.153c0.353,0,0.617,0.065,0.802,0.197c0.184,0.131,0.282,0.333,0.303,0.604v0.486H114.076z"/>
	<path fill="#FFFFFF" d="M117.149,37.669c-0.029-0.013-0.06-0.022-0.09-0.033l0.059,0.062L117.149,37.669z"/>
	<path fill="#FFFFFF" d="M106.504,37.883c-0.275-0.173-0.641-0.26-1.094-0.26c-0.153,0-0.366,0.006-0.641,0.017
		c-0.273,0.01-0.49,0.016-0.65,0.016c-0.207,0-0.445-0.006-0.715-0.023v0.26c0.188,0.004,0.316,0.024,0.377,0.062
		c0.029,0.018,0.047,0.044,0.059,0.08c0.02,0.058,0.033,0.195,0.041,0.424c0.01,0.363,0.016,0.682,0.016,0.95v1.688
		c0,0.219-0.008,0.612-0.02,1.18c-0.006,0.334-0.018,0.595-0.027,0.781c-0.07,0.075-0.162,0.158-0.268,0.248l-0.033,0.301
		c0.283-0.02,0.482-0.033,0.598-0.037c0.076,0.002,0.24,0.007,0.492,0.02c0.191,0.01,0.344,0.016,0.459,0.016
		c0.34,0,0.61-0.041,0.801-0.119c0.199-0.082,0.385-0.203,0.562-0.364c0.18-0.16,0.342-0.375,0.5-0.649
		c0.154-0.271,0.311-0.697,0.398-1.062c0.094-0.368,0.139-0.761,0.139-1.179c0-0.584-0.098-1.08-0.291-1.483
		C107.016,38.345,106.779,38.056,106.504,37.883z M106.803,41.474c-0.064,0.338-0.154,0.609-0.271,0.823
		c-0.119,0.218-0.244,0.377-0.371,0.49c-0.125,0.108-0.279,0.192-0.457,0.253c-0.18,0.064-0.383,0.094-0.615,0.094
		c-0.229,0.002-0.443-0.027-0.646-0.078c-0.01-0.306-0.017-0.558-0.017-0.752l-0.01-1.283v-0.273
		c0.211-0.012,0.375-0.018,0.489-0.018c0.304,0,0.511,0.017,0.615,0.049c0.06,0.021,0.101,0.055,0.121,0.104
		c0.019,0.049,0.033,0.178,0.035,0.381l0.01,0.279h0.193l-0.016-0.961l0.016-0.861v-0.076h-0.164l-0.016,0.287
		c-0.016,0.193-0.031,0.307-0.047,0.34s-0.057,0.055-0.113,0.064c-0.156,0.031-0.344,0.045-0.564,0.045
		c-0.172,0-0.356-0.006-0.561-0.021v-0.987l0.01-0.599c0.004-0.344,0.008-0.582,0.016-0.719c0.234-0.055,0.465-0.078,0.695-0.078
		c0.432,0,0.773,0.096,1.02,0.293c0.25,0.195,0.437,0.479,0.558,0.846c0.123,0.367,0.188,0.808,0.188,1.32
		C106.9,40.792,106.867,41.138,106.803,41.474z"/>
	<path fill="#FFFFFF" d="M112.258,6.785L99.488,0L86.719,6.785v20.503l11.022,5.73c0.06,0.897,0.835,1.639,1.747,1.639
		c0.904,0,1.674-0.727,1.745-1.615l11.025-5.606V6.785z M110.574,13.863c0.002,0.048,0.002,0.098,0.002,0.148l-2.27,1.276
		c-0.07-0.52-0.183-1.028-0.336-1.514l2.352-2.283C110.488,12.255,110.574,13.05,110.574,13.863z M110.57,14.079
		c-0.004,0.35-0.027,0.696-0.064,1.037C110.543,14.775,110.566,14.429,110.57,14.079z M108.172,18.432
		c0.107-0.48,0.178-0.973,0.203-1.479l1.941-0.713c-0.145,0.654-0.35,1.287-0.605,1.896L108.172,18.432z M109.018,19.509
		c-0.225,0.371-0.467,0.732-0.734,1.077l-0.934,0.062c0.164-0.312,0.311-0.633,0.438-0.965L109.018,19.509z M109.536,9.15
		l-2.249,3.019c-0.326-0.591-0.719-1.145-1.16-1.646l2.014-3.626C108.689,7.587,109.159,8.342,109.536,9.15z M104.326,16.091
		c-0.201-0.306-0.428-0.592-0.678-0.854l1.311-2.98l0.039-0.057c0.365,0.374,0.695,0.787,0.979,1.232L104.326,16.091z
		 M104.586,20.69c0,0.011,0,0.023-0.002,0.036C104.586,20.713,104.586,20.701,104.586,20.69z M104.578,20.806
		c-0.006,0.068-0.01,0.131-0.02,0.197C104.568,20.937,104.572,20.874,104.578,20.806z M104.547,21.104
		c-0.012,0.075-0.025,0.15-0.039,0.223C104.521,21.254,104.535,21.179,104.547,21.104z M104.543,19.714c0,0.004,0,0.008,0.002,0.013
		C104.543,19.722,104.543,19.718,104.543,19.714z M104.504,19.475c0,0.003,0,0.005,0,0.008
		C104.504,19.48,104.504,19.478,104.504,19.475z M104.475,21.482c-0.002,0.016-0.008,0.03-0.008,0.044
		C104.467,21.512,104.473,21.498,104.475,21.482z M106.637,14.739l0.016-0.008c0.176,0.434,0.312,0.887,0.41,1.356l-0.059,0.037
		l-1.936,1.581c-0.082-0.278-0.187-0.547-0.303-0.807L106.637,14.739z M105.264,20.355l1.586-0.362
		c-0.104,0.327-0.229,0.646-0.375,0.954l-1.438,0.409C105.139,21.034,105.217,20.7,105.264,20.355z M105.324,19.556
		c0-0.024,0-0.048,0-0.073c0-0.302-0.023-0.595-0.061-0.883l1.883-1.016l0.074-0.035c0,0.035,0,0.072,0,0.108
		c0,0.388-0.029,0.771-0.087,1.146l-0.061,0.024L105.324,19.556z M103.828,3.593c0.846,0.365,1.641,0.833,2.365,1.389l-1.586,4.177
		c-0.562-0.401-1.172-0.738-1.816-1L103.828,3.593z M102.186,10.361l0.006-0.012c0.554,0.208,1.076,0.481,1.562,0.81l-0.035,0.078
		l-0.996,3.204c-0.369-0.254-0.764-0.466-1.182-0.627L102.186,10.361z M103.074,16.841c-0.002-0.001-0.004-0.005-0.008-0.005
		C103.07,16.836,103.072,16.84,103.074,16.841z M101.521,15.809l-0.004-0.002L101.521,15.809z M101.273,15.71
		c0-0.001-0.002-0.004-0.008-0.004C101.271,15.706,101.273,15.709,101.273,15.71z M99.488,2.7c0.493,0,0.974,0.034,1.448,0.098
		l-0.276,4.798c-0.383-0.051-0.774-0.081-1.17-0.081c-0.472,0-0.938,0.038-1.389,0.109l-0.213-4.807
		C98.41,2.741,98.945,2.7,99.488,2.7z M97.766,15.686h-0.002H97.766z M96.569,10.434l0.655,3.429l0.009,0.033
		c-0.408,0.175-0.796,0.404-1.155,0.67l-0.019-0.045l-1.078-3.232c0.488-0.346,1.02-0.64,1.585-0.868L96.569,10.434z M95.453,17.338
		h-0.002H95.453z M94.961,22.721c-0.011-0.022-0.02-0.044-0.034-0.068C94.941,22.677,94.95,22.699,94.961,22.721z M94.922,18.167
		c0.012-0.02,0.02-0.042,0.031-0.065C94.942,18.125,94.934,18.147,94.922,18.167z M94.574,16.21l-0.121-0.157l-1.679-2.379
		c0.281-0.465,0.603-0.901,0.97-1.3l1.436,2.876l0.06,0.082C94.991,15.603,94.772,15.896,94.574,16.21z M94.86,22.525
		c-0.034-0.071-0.067-0.143-0.095-0.213C94.793,22.382,94.826,22.454,94.86,22.525z M94.71,22.177
		c-0.015-0.04-0.029-0.076-0.042-0.117C94.681,22.101,94.695,22.137,94.71,22.177z M94.618,21.918
		c-0.013-0.039-0.024-0.077-0.036-0.119C94.594,21.841,94.605,21.879,94.618,21.918z M94.488,19.399
		c0.014-0.074,0.03-0.149,0.05-0.22C94.518,19.25,94.502,19.325,94.488,19.399z M94.518,21.572c-0.01-0.049-0.021-0.093-0.03-0.142
		C94.497,21.479,94.508,21.523,94.518,21.572z M94.458,21.284c-0.008-0.04-0.015-0.083-0.019-0.123
		C94.443,21.201,94.45,21.244,94.458,21.284z M94.445,19.621c0.004-0.014,0.005-0.025,0.008-0.037
		C94.45,19.596,94.449,19.607,94.445,19.621z M91.169,19.701l0.025,0.007c0.261,0.662,0.597,1.286,1.001,1.86l-1.066-0.443
		c-0.415-0.477-0.794-0.991-1.125-1.533L91.169,19.701z M89.29,18.196c-0.26-0.604-0.47-1.238-0.618-1.893l1.842,0.698l0.091,0.051
		c0.033,0.538,0.115,1.06,0.242,1.567l-0.042-0.014L89.29,18.196z M93.502,18.533l0.204,0.125c-0.035,0.272-0.056,0.545-0.056,0.826
		c0,0.052,0.004,0.104,0.004,0.157l-0.152-0.084l-1.712-0.618c-0.071-0.417-0.11-0.844-0.11-1.281v-0.003L93.502,18.533z
		 M91.803,16.29c0.086-0.484,0.215-0.953,0.386-1.399l1.827,2.037l0.132,0.106c-0.11,0.257-0.203,0.526-0.278,0.798l-0.147-0.103
		L91.803,16.29z M92.039,19.962l1.538,0.468l0.164,0.109c0.12,0.703,0.354,1.364,0.688,1.96l-1.465-0.61
		C92.572,21.298,92.26,20.648,92.039,19.962z M94.418,21.012c-0.002-0.009-0.002-0.016-0.005-0.022v-0.003
		C94.413,20.997,94.416,21.003,94.418,21.012z M94.416,19.837v-0.003V19.837z M95.011,3.654l0.973,4.588
		c-0.677,0.294-1.311,0.671-1.889,1.115L94.088,9.34l-1.477-4.222C93.342,4.534,94.148,4.04,95.011,3.654z M90.697,7.072
		l1.931,3.654l0.019,0.03c-0.402,0.485-0.752,1.016-1.043,1.579l-0.07-0.077l-2.157-2.965C89.732,8.5,90.175,7.754,90.697,7.072z
		 M88.623,11.61l2.256,2.252l0.079,0.063c-0.154,0.521-0.265,1.063-0.321,1.62l-0.122-0.076l-2.111-1.363
		c-0.002-0.081-0.005-0.161-0.005-0.244C88.398,13.094,88.475,12.341,88.623,11.61z M99.342,32.761l-12.478-6.566v-5.619
		l1.534,0.729l1.385,0.731l2.408,1.313l2.042,1.093l0.876,0.51l0.874,0.44l1.167,0.583l0.512,0.292l0.731,0.583l0.218,0.22
		l0.219,0.292l0.146,0.292l0.22,0.509l0.071,0.222l0.075,0.291V32.761z M99.124,15.411c0.012-0.003,0.023-0.003,0.038-0.003
		C99.147,15.408,99.136,15.408,99.124,15.411z M98.612,13.494l-0.218-3.565c0.356-0.051,0.721-0.079,1.094-0.079
		c0.296,0,0.589,0.019,0.878,0.055l-0.005,0.017l-0.14,3.551c-0.24-0.029-0.486-0.048-0.733-0.048
		C99.189,13.425,98.898,13.446,98.612,13.494z M100.026,15.423h-0.003H100.026z M99.633,32.761v-4.086l0.073-0.291l0.072-0.222
		L100,27.653l0.143-0.292l0.219-0.292l0.222-0.22l0.363-0.293l0.363-0.29l0.512-0.292l1.096-0.583l0.945-0.44l0.879-0.51
		l2.041-1.093l2.41-1.313l1.381-0.731l1.463-0.729l0.072,5.619L99.633,32.761z"/>
	<path fill="#FFFFFF" d="M94.413,20.99c0.003,0.006,0.003,0.013,0.005,0.022c-0.002-0.009-0.005-0.015-0.005-0.025V20.99z"/>
	<path fill="#FFFFFF" d="M117.659,37.19l-0.228-0.244l-0.543,0.507l0.171,0.183c0.03,0.011,0.061,0.021,0.09,0.033L117.659,37.19z"
		/>
</g>
<g>
	<path fill="#FFFFFF" d="M85.672,50.614c-0.021-0.129-0.087-0.639-0.796-0.639c-0.888,0-1.045,0.907-1.045,1.521
		c0,0.692,0.199,1.444,1.041,1.444c0.224,0,0.438-0.057,0.596-0.221c0.133-0.143,0.164-0.302,0.179-0.388h0.561
		c-0.077,0.726-0.745,1.024-1.377,1.024c-1.296,0-1.546-1.143-1.546-1.856c0-0.774,0.301-1.933,1.613-1.933
		c0.52,0,1.254,0.207,1.321,1.045h-0.547V50.614z"/>
	<path fill="#FFFFFF" d="M87.835,50.677c1.025,0,1.255,0.805,1.255,1.342c0,0.748-0.423,1.371-1.295,1.371
		c-0.848,0-1.261-0.586-1.261-1.338C86.534,51.42,86.831,50.677,87.835,50.677z M87.805,53.03c0.362,0,0.775-0.26,0.775-1.028
		c0-0.638-0.297-0.976-0.746-0.976c-0.305,0-0.801,0.193-0.801,0.994C87.034,52.547,87.26,53.03,87.805,53.03z"/>
	<path fill="#FFFFFF" d="M89.723,51.037l-0.004-0.296h0.48l0.004,0.412c0.056-0.105,0.24-0.465,0.821-0.465
		c0.23,0,0.929,0.088,0.929,0.873v1.74h-0.49v-1.628c0-0.167-0.02-0.319-0.138-0.438c-0.123-0.117-0.291-0.172-0.454-0.172
		c-0.348,0-0.668,0.25-0.668,0.764v1.477h-0.48V51.037L89.723,51.037z"/>
	<path fill="#FFFFFF" d="M92.968,52.543c-0.004,0.192,0.097,0.464,0.561,0.464c0.2,0,0.347-0.035,0.45-0.164
		c0.05-0.064,0.081-0.152,0.081-0.24c0-0.248-0.179-0.295-0.561-0.381c-0.536-0.123-0.984-0.229-0.984-0.766
		c0-0.471,0.408-0.775,1-0.775c0.321,0,0.77,0.092,0.923,0.398c0.067,0.143,0.067,0.264,0.067,0.369h-0.49
		c0.016-0.385-0.321-0.416-0.495-0.416c-0.071,0-0.52,0-0.52,0.365c0,0.235,0.23,0.291,0.362,0.326
		c0.709,0.17,0.862,0.211,1.016,0.354c0.144,0.133,0.194,0.312,0.194,0.474c0,0.286-0.159,0.53-0.348,0.648
		c-0.225,0.138-0.495,0.173-0.76,0.173c-0.521,0-1.005-0.214-1-0.83H92.968L92.968,52.543z"/>
	<path fill="#FFFFFF" d="M95.402,52.108c-0.011,0.531,0.21,0.922,0.735,0.922c0.311,0,0.561-0.161,0.602-0.528h0.479
		c-0.014,0.127-0.035,0.336-0.219,0.536c-0.112,0.127-0.367,0.341-0.883,0.341c-0.807,0-1.188-0.5-1.188-1.312
		c0-0.506,0.103-0.922,0.506-1.203c0.244-0.174,0.551-0.188,0.698-0.188c1.147,0,1.122,1.014,1.112,1.434h-1.842V52.108z
		 M96.753,51.771c0.006-0.244-0.041-0.754-0.632-0.754c-0.312,0-0.688,0.188-0.699,0.754H96.753z"/>
	<path fill="#FFFFFF" d="M97.361,53.944c0.378,0.016,0.47-0.051,0.47-0.459v-2.744h0.48v2.801c0,0.245-0.012,0.766-0.653,0.766
		c-0.062,0-0.163-0.006-0.297-0.021V53.944L97.361,53.944z M97.784,49.629h0.582v0.531h-0.582V49.629z"/>
	<path fill="#FFFFFF" d="M100.212,50.677c1.026,0,1.254,0.805,1.254,1.342c0,0.748-0.422,1.371-1.294,1.371
		c-0.848,0-1.261-0.586-1.261-1.338C98.912,51.42,99.208,50.677,100.212,50.677z M100.182,53.03c0.363,0,0.775-0.26,0.775-1.028
		c0-0.638-0.295-0.976-0.745-0.976c-0.306,0-0.801,0.193-0.801,0.994C99.412,52.547,99.637,53.03,100.182,53.03z"/>
	<path fill="#FFFFFF" d="M103.738,52.226c0.01,0.256,0.041,0.73,0.889,0.73c0.764,0,0.861-0.477,0.861-0.658
		c0-0.412-0.332-0.494-0.846-0.623c-0.562-0.138-0.812-0.197-1.002-0.326c-0.302-0.203-0.382-0.479-0.382-0.725
		c0-0.749,0.709-1.076,1.402-1.076c0.243,0,0.739,0.04,1.034,0.362c0.205,0.226,0.216,0.476,0.226,0.628h-0.53
		c-0.023-0.459-0.412-0.562-0.775-0.562c-0.51,0-0.814,0.229-0.814,0.598c0,0.326,0.213,0.439,0.662,0.545
		c0.877,0.227,0.975,0.246,1.189,0.39c0.34,0.224,0.365,0.58,0.365,0.733c0,0.652-0.511,1.146-1.453,1.146
		c-0.279,0-0.853-0.045-1.144-0.416c-0.209-0.271-0.213-0.566-0.213-0.746H103.738L103.738,52.226z"/>
	<path fill="#FFFFFF" d="M107.65,50.677c1.024,0,1.256,0.805,1.256,1.342c0,0.748-0.424,1.371-1.295,1.371
		c-0.848,0-1.262-0.586-1.262-1.338C106.35,51.42,106.646,50.677,107.65,50.677z M107.621,53.03c0.361,0,0.775-0.26,0.775-1.028
		c0-0.638-0.297-0.976-0.746-0.976c-0.305,0-0.801,0.193-0.801,0.994C106.85,52.547,107.076,53.03,107.621,53.03z"/>
	<path fill="#FFFFFF" d="M110.982,51.562c-0.01-0.117-0.045-0.535-0.51-0.535c-0.662,0-0.662,0.771-0.662,0.965
		c0,0.525,0.127,1.016,0.637,1.016c0.408,0,0.547-0.307,0.557-0.557h0.484c-0.031,0.5-0.402,0.919-1.035,0.919
		c-0.172,0-0.572-0.036-0.842-0.332c-0.152-0.179-0.307-0.449-0.307-0.979c0-1.065,0.653-1.383,1.163-1.383
		c0.169,0,0.552,0.035,0.785,0.316c0.188,0.219,0.203,0.429,0.213,0.57H110.982L110.982,51.562z"/>
	<path fill="#FFFFFF" d="M111.896,49.629h0.576v0.524h-0.576V49.629z M111.947,50.741h0.48v2.562h-0.48V50.741z"/>
	<path fill="#FFFFFF" d="M114.789,53.304c-0.035-0.129-0.045-0.25-0.045-0.384c-0.23,0.425-0.578,0.466-0.791,0.466
		c-0.588,0-0.904-0.332-0.904-0.757c0-0.204,0.072-0.53,0.449-0.749c0.275-0.152,0.684-0.169,0.889-0.169
		c0.123,0,0.199,0.005,0.346,0.017c0-0.317,0-0.455-0.092-0.566c-0.096-0.128-0.307-0.168-0.443-0.168
		c-0.483,0-0.51,0.33-0.516,0.434h-0.479c0.016-0.134,0.029-0.312,0.178-0.484c0.193-0.215,0.557-0.275,0.826-0.275
		c0.373,0,0.771,0.117,0.908,0.378c0.082,0.153,0.086,0.274,0.086,0.394l-0.02,1.224c0,0.041,0.006,0.383,0.041,0.644h-0.434V53.304
		z M114.457,52.043c-0.193,0-0.924,0-0.924,0.521c0,0.162,0.104,0.443,0.531,0.443c0.244,0,0.43-0.098,0.545-0.275
		c0.108-0.172,0.113-0.315,0.123-0.672C114.646,52.047,114.574,52.043,114.457,52.043z"/>
	<path fill="#FFFFFF" d="M115.941,49.625h0.479v3.679h-0.479V49.625z"/>
</g>
</svg>
