<?xml version="1.0" encoding="utf-8"?>
<!-- Generator: Adobe Illustrator 16.0.0, SVG Export Plug-In . SVG Version: 6.00 Build 0)  -->
<!DOCTYPE svg PUBLIC "-//W3C//DTD SVG 1.1//EN" "http://www.w3.org/Graphics/SVG/1.1/DTD/svg11.dtd">
<svg version="1.1" id="Capa_1" xmlns="http://www.w3.org/2000/svg" xmlns:xlink="http://www.w3.org/1999/xlink" x="0px" y="0px"
	 width="200px" height="107.562px" viewBox="0 0 200 107.562" enable-background="new 0 0 200 107.562" xml:space="preserve">
<g>
	<g>
		<path fill="none" d="M81.357,33.838l-0.18-0.101l-3.656-1.386c0.294,1.301,0.71,2.558,1.227,3.757l3.006,0.812l0.084,0.027
			C81.586,35.941,81.423,34.905,81.357,33.838z"/>
		<path fill="none" d="M84.512,42.799c-0.801-1.138-1.468-2.376-1.986-3.69l-0.05-0.013l-2.312-0.218
			c0.657,1.076,1.409,2.097,2.233,3.044L84.512,42.799z"/>
		<path fill="none" d="M90.437,30.263l-2.851-5.708c-0.729,0.792-1.367,1.657-1.925,2.58l3.332,4.721l0.241,0.312
			c0.392-0.622,0.827-1.204,1.321-1.742L90.437,30.263z"/>
		<path fill="none" d="M83.49,35.041c0,0.867,0.078,1.715,0.218,2.542l3.397,1.227l0.302,0.167c0-0.105-0.009-0.209-0.009-0.312
			c0-0.558,0.042-1.1,0.112-1.64l-0.405-0.248l-3.615-1.742V35.041z"/>
		<path fill="none" d="M83.339,24.478c0.578-1.117,1.272-2.17,2.07-3.134l-0.037-0.059l-3.833-7.251
			c-1.036,1.353-1.915,2.833-2.619,4.407l4.281,5.884L83.339,24.478z"/>
		<path fill="none" d="M92.18,28.816l0.038,0.089c0.712-0.528,1.482-0.983,2.291-1.33l-0.018-0.065l-1.3-6.804l-0.006-0.026
			c-1.121,0.452-2.176,1.036-3.146,1.723L92.18,28.816z"/>
		<path fill="none" d="M88.283,18.568c1.146-0.88,2.405-1.628,3.748-2.211l-1.93-9.105c-1.713,0.766-3.313,1.747-4.763,2.905
			l2.931,8.378L88.283,18.568z"/>
		<path fill="none" d="M87.837,35.387c0.147-0.54,0.333-1.074,0.55-1.584l-0.262-0.211L84.5,29.551
			c-0.338,0.884-0.595,1.815-0.765,2.775l3.809,2.855L87.837,35.387z"/>
		<path fill="none" d="M88.946,44.647c-0.663-1.183-1.128-2.494-1.366-3.889l-0.325-0.216l-3.053-0.93
			c0.439,1.361,1.058,2.651,1.836,3.824L88.946,44.647z"/>
		<path fill="none" d="M98.358,75.912c-0.493-0.386-1.171-0.588-2.026-0.588c-0.457,0-0.913,0.055-1.376,0.16
			c-0.013,0.265-0.025,0.739-0.031,1.426l-0.021,1.186v3.277l0.015,2.541c0.006,0.387,0.016,0.884,0.037,1.494
			c0.402,0.102,0.826,0.158,1.278,0.158c0.463,0,0.869-0.066,1.219-0.188c0.36-0.121,0.664-0.291,0.917-0.505
			c0.252-0.218,0.493-0.542,0.725-0.973c0.238-0.422,0.419-0.966,0.542-1.633c0.128-0.657,0.196-1.352,0.196-2.066
			c0-1.013-0.126-1.884-0.369-2.61C99.216,76.855,98.852,76.297,98.358,75.912z"/>
		<path fill="none" d="M113.594,39.675l-3.148,0.718c-0.092,0.685-0.248,1.348-0.449,1.987l2.852-0.812
			C113.141,40.956,113.387,40.323,113.594,39.675z"/>
		<path fill="none" d="M114.584,40.975l1.855-0.124c0.531-0.684,1.012-1.4,1.457-2.137l-2.441,0.346
			C115.201,39.719,114.91,40.355,114.584,40.975z"/>
		<path fill="none" d="M114.461,24.148l4.463-5.991c-0.748-1.604-1.68-3.102-2.77-4.471l-3.998,7.196
			C113.035,21.876,113.814,22.976,114.461,24.148z"/>
		<path fill="none" d="M120.473,32.228l-3.854,1.415c-0.049,1.003-0.189,1.982-0.402,2.935l3.055-0.59
			C119.779,34.781,120.186,33.524,120.473,32.228z"/>
		<path fill="none" d="M113.898,31.997l0.117-0.073c-0.195-0.931-0.463-1.83-0.814-2.691l-0.031,0.017l-3.713,4.283
			c0.23,0.518,0.438,1.05,0.602,1.603L113.898,31.997z"/>
		<path fill="none" d="M116.484,30.336l4.506-2.532c0-0.1,0-0.198-0.004-0.294c0-1.613-0.172-3.191-0.502-4.708l-4.666,4.53
			C116.123,28.296,116.346,29.304,116.484,30.336z"/>
		<path fill="none" d="M107.379,22.298l0.072-0.154c-0.967-0.653-2.004-1.194-3.102-1.607l-0.012,0.023l-1.279,6.853
			c0.83,0.32,1.611,0.741,2.346,1.245L107.379,22.298z"/>
		<path fill="none" d="M98.986,14.913c0.785,0,1.563,0.06,2.323,0.161l0.549-9.522c-0.939-0.126-1.894-0.193-2.874-0.193
			c-1.077,0-2.139,0.081-3.176,0.232l0.422,9.539C97.125,14.988,98.05,14.913,98.986,14.913z"/>
		<path fill="none" d="M112.291,9.887c-1.439-1.104-3.018-2.033-4.695-2.757l-2.057,9.062c1.279,0.519,2.49,1.188,3.604,1.984
			L112.291,9.887z"/>
		<path fill="none" d="M81.178,30.697l0.242,0.15c0.11-1.105,0.332-2.181,0.637-3.215L81.9,27.508l-4.476-4.469
			c-0.294,1.45-0.446,2.945-0.445,4.469c0,0.165,0.006,0.324,0.01,0.484L81.178,30.697z"/>
		<path fill="none" d="M114.156,37.312c0.115-0.743,0.174-1.503,0.174-2.274c0-0.071,0-0.145,0-0.214l-0.148,0.069l-3.736,2.016
			c0.074,0.572,0.123,1.153,0.123,1.752c0,0.05,0,0.099,0,0.146l3.471-1.45L114.156,37.312z"/>
		<path fill="none" d="M109.92,24.21l-0.078,0.112l-2.602,5.914c0.496,0.521,0.947,1.088,1.346,1.694l3.275-5.275
			C111.299,25.771,110.643,24.953,109.92,24.21z"/>
		<path fill="none" d="M149.348,75.944c-0.492-0.386-1.166-0.578-2.031-0.585c-0.453,0-0.914,0.048-1.377,0.154
			c-0.01,0.272-0.025,0.745-0.025,1.431l-0.023,1.188v3.277l0.02,2.538c0.008,0.385,0.016,0.885,0.035,1.5
			c0.402,0.097,0.828,0.151,1.283,0.151c0.453,0,0.867-0.059,1.217-0.188c0.367-0.118,0.658-0.289,0.918-0.502
			c0.244-0.221,0.492-0.542,0.721-0.973c0.236-0.421,0.422-0.965,0.539-1.627c0.131-0.667,0.197-1.358,0.197-2.069
			c0-1.017-0.125-1.884-0.367-2.609C150.203,76.896,149.836,76.332,149.348,75.944z"/>
		<path fill="none" d="M134.891,77.061c-0.154-0.364-0.344-0.682-0.566-0.953c-0.217-0.27-0.504-0.5-0.852-0.686
			c-0.346-0.188-0.719-0.279-1.129-0.279c-0.584,0-1.092,0.194-1.539,0.579c-0.441,0.39-0.771,0.952-0.994,1.688
			c-0.221,0.733-0.326,1.567-0.326,2.491c0,0.524,0.033,1.05,0.102,1.586c0.072,0.539,0.154,1,0.26,1.388
			c0.182,0.655,0.408,1.209,0.697,1.655c0.287,0.441,0.604,0.771,0.951,0.988c0.352,0.207,0.738,0.308,1.17,0.308
			c0.59,0,1.105-0.211,1.545-0.638c0.436-0.435,0.76-1.037,0.973-1.818c0.215-0.78,0.322-1.68,0.322-2.686
			c0-0.878-0.074-1.678-0.23-2.41C135.174,77.822,135.053,77.422,134.891,77.061z"/>
		<polygon fill="none" points="169.123,81.735 171.9,81.735 170.529,76.786 		"/>
		<path fill="none" d="M159.254,77.061c-0.158-0.364-0.344-0.682-0.57-0.953c-0.213-0.27-0.5-0.5-0.848-0.686
			c-0.342-0.188-0.725-0.279-1.131-0.279c-0.578,0-1.098,0.194-1.541,0.579c-0.441,0.39-0.768,0.952-1,1.688
			c-0.217,0.733-0.324,1.567-0.324,2.491c0,0.524,0.031,1.05,0.104,1.586c0.07,0.539,0.164,1,0.264,1.388
			c0.172,0.655,0.404,1.209,0.695,1.655c0.287,0.441,0.607,0.771,0.947,0.988c0.359,0.207,0.75,0.308,1.172,0.308
			c0.6,0,1.105-0.211,1.543-0.638c0.438-0.435,0.764-1.037,0.979-1.818c0.211-0.78,0.326-1.68,0.326-2.686
			c0-0.878-0.082-1.678-0.236-2.41C159.535,77.822,159.404,77.422,159.254,77.061z"/>
		<path fill="none" d="M164.91,80.442c-0.295-0.188-0.791-0.289-1.477-0.289c-0.156,0-0.359,0.016-0.611,0.033v3.111
			c-0.002,0.304,0.01,1.032,0.02,2.191c0.279,0.099,0.566,0.146,0.869,0.146c0.488,0,0.877-0.113,1.182-0.33
			c0.291-0.221,0.523-0.557,0.682-1.007c0.164-0.449,0.242-0.965,0.242-1.541c0-0.574-0.074-1.054-0.217-1.444
			C165.443,80.917,165.211,80.631,164.91,80.442z"/>
		<polygon fill="none" points="98.405,55.885 97.969,54.875 97.679,54.298 97.244,53.718 96.812,53.282 95.361,52.125 
			94.344,51.546 92.029,50.389 90.295,49.516 88.556,48.503 84.504,46.334 79.726,43.729 76.978,42.279 73.933,40.831 
			73.933,51.981 98.695,65.012 98.695,56.903 98.545,56.325 		"/>
		<polygon fill="none" points="86.788,81.7 89.567,81.7 88.189,76.755 		"/>
		<path fill="none" d="M82.763,75.912c-0.495-0.386-1.17-0.588-2.027-0.588c-0.452,0-0.915,0.055-1.383,0.16
			c-0.005,0.265-0.017,0.739-0.024,1.426l-0.023,1.186v3.277l0.02,2.541c0.005,0.387,0.014,0.884,0.03,1.494
			c0.41,0.102,0.832,0.158,1.283,0.158c0.466,0,0.873-0.066,1.221-0.188c0.358-0.121,0.658-0.291,0.91-0.505
			c0.25-0.218,0.499-0.542,0.736-0.973c0.235-0.422,0.415-0.966,0.54-1.633c0.125-0.657,0.187-1.352,0.187-2.066
			c0-1.013-0.117-1.884-0.37-2.61C83.625,76.855,83.257,76.297,82.763,75.912z"/>
		<polygon fill="none" points="120.984,42.279 118.244,43.729 113.461,46.334 109.41,48.503 107.668,49.516 105.791,50.389 
			103.617,51.546 102.602,52.125 101.881,52.7 101.16,53.282 100.719,53.718 100.285,54.298 100,54.875 99.559,55.885 
			99.417,56.325 99.271,56.903 99.271,65.012 124.029,51.981 123.887,40.831 		"/>
		<path fill="none" d="M100.717,19.689l0.01-0.033c-0.573-0.071-1.154-0.11-1.743-0.11c-0.739,0-1.465,0.056-2.171,0.157
			l0.433,7.075c0.567-0.096,1.146-0.138,1.738-0.138c0.49,0,0.979,0.038,1.455,0.096L100.717,19.689z"/>
		<path fill="none" d="M164.426,79.391c0.254-0.106,0.443-0.237,0.582-0.413c0.135-0.171,0.248-0.397,0.334-0.687
			c0.098-0.289,0.139-0.629,0.139-1.025c0-0.686-0.148-1.17-0.443-1.469c-0.289-0.312-0.711-0.463-1.281-0.463
			c-0.318,0-0.605,0.045-0.883,0.126c-0.035,0.452-0.057,1.155-0.057,2.104v1.953h0.004c0.217,0.019,0.398,0.028,0.559,0.028
			C163.832,79.546,164.178,79.495,164.426,79.391z"/>
		<path fill="#FFFFFF" d="M99.045,75.143c-0.551-0.346-1.269-0.512-2.171-0.512c-0.305,0-0.729,0.008-1.279,0.029
			c-0.54,0.025-0.967,0.032-1.284,0.032c-0.415,0-0.889-0.016-1.423-0.044v0.516c0.383,0.001,0.635,0.044,0.758,0.122
			c0.052,0.03,0.086,0.08,0.115,0.151c0.032,0.114,0.062,0.396,0.073,0.844c0.025,0.726,0.041,1.355,0.041,1.893v3.347
			c0,0.441-0.012,1.215-0.042,2.351c-0.012,0.659-0.03,1.175-0.049,1.543c-0.145,0.152-0.326,0.312-0.541,0.494l-0.024,0.652
			c0.565-0.042,0.955-0.063,1.176-0.07c0.152,0.003,0.478,0.01,0.984,0.035c0.379,0.024,0.685,0.027,0.906,0.027
			c0.678,0,1.209-0.073,1.597-0.232c0.388-0.163,0.758-0.406,1.114-0.717c0.349-0.318,0.683-0.748,0.988-1.295
			c0.312-0.542,0.578-1.438,0.759-2.166c0.182-0.729,0.271-1.51,0.271-2.339c0-1.16-0.193-2.139-0.577-2.948
			C100.058,76.055,99.597,75.481,99.045,75.143z M99.636,82.269c-0.123,0.667-0.304,1.211-0.542,1.633
			c-0.23,0.431-0.473,0.755-0.725,0.973c-0.253,0.214-0.557,0.384-0.917,0.505c-0.35,0.121-0.756,0.188-1.219,0.188
			c-0.452,0-0.876-0.057-1.278-0.158c-0.021-0.61-0.031-1.107-0.037-1.494l-0.015-2.541v-3.277l0.021-1.186
			c0.006-0.687,0.019-1.161,0.031-1.426c0.463-0.105,0.919-0.16,1.376-0.16c0.855,0,1.533,0.202,2.026,0.588
			c0.494,0.385,0.858,0.943,1.105,1.68c0.243,0.727,0.369,1.599,0.369,2.61C99.833,80.917,99.764,81.611,99.636,82.269z"/>
		<path fill="#FFFFFF" d="M30.82,74.648v0.528c0.434,0.004,0.699,0.039,0.794,0.089c0.097,0.046,0.163,0.113,0.206,0.214
			c0.047,0.091,0.07,0.399,0.078,0.915c0.015,0.71,0.019,1.442,0.019,2.186v2.528c0,0.712-0.019,1.306-0.05,1.774
			c-0.034,0.465-0.095,0.833-0.174,1.103c-0.078,0.271-0.2,0.511-0.357,0.727c-0.159,0.213-0.396,0.398-0.718,0.551
			c-0.318,0.148-0.685,0.219-1.096,0.219c-0.354,0-0.675-0.055-0.959-0.165c-0.283-0.112-0.513-0.264-0.68-0.449
			c-0.231-0.245-0.39-0.559-0.49-0.932c-0.102-0.374-0.151-1.153-0.151-2.326V78.58c0.01-1.447,0.021-2.228,0.03-2.341
			c0.003-0.417,0.034-0.681,0.083-0.786c0.034-0.087,0.093-0.147,0.192-0.192c0.098-0.045,0.357-0.081,0.792-0.087v-0.529
			c-0.514,0.041-2.622,0.041-3.221,0v0.529c0.434,0.006,0.699,0.038,0.788,0.091c0.091,0.048,0.162,0.117,0.204,0.215
			c0.042,0.091,0.071,0.396,0.079,0.915c0.014,0.71,0.018,1.446,0.018,2.189v3.622c0,1.052,0.057,1.805,0.151,2.255
			c0.088,0.34,0.24,0.67,0.452,0.998c0.22,0.326,0.534,0.582,0.953,0.786c0.409,0.199,0.903,0.289,1.472,0.289
			c0.481,0,0.923-0.082,1.324-0.249c0.395-0.17,0.721-0.407,0.977-0.714c0.337-0.404,0.57-0.884,0.697-1.42
			c0.125-0.538,0.194-1.479,0.194-2.826v-2.749c0.012-1.443,0.012-2.224,0.02-2.333c0.008-0.421,0.042-0.685,0.083-0.79
			c0.038-0.087,0.099-0.144,0.192-0.19c0.094-0.051,0.363-0.086,0.796-0.089v-0.529C32.862,74.692,31.427,74.692,30.82,74.648z"/>
		<path fill="#FFFFFF" d="M40.011,74.652v0.516c0.383,0.002,0.639,0.048,0.756,0.122c0.051,0.032,0.093,0.085,0.117,0.154
			c0.034,0.11,0.055,0.396,0.072,0.842c0.027,0.729,0.036,1.356,0.036,1.892v5.995c-0.136-0.214-0.312-0.492-0.512-0.856
			c-0.322-0.544-0.75-1.292-1.286-2.244l-1.665-2.988l-1.142-2.093c-0.148-0.291-0.377-0.738-0.688-1.346
			c-0.267,0.022-1.342,0.022-1.959,0v0.519c0.3,0.001,0.49,0.02,0.576,0.048c0.093,0.02,0.169,0.069,0.232,0.163
			c0.103,0.136,0.171,0.252,0.197,0.356c0.02,0.055,0.023,0.169,0.023,0.348v6.685c0,0.525-0.01,1.15-0.03,1.867
			c-0.019,0.469-0.045,0.752-0.079,0.862c-0.025,0.073-0.063,0.126-0.113,0.157c-0.121,0.085-0.373,0.123-0.758,0.127v0.795
			c0.498-0.042,2.133-0.042,2.454,0.004v-0.794c-0.384-0.005-0.634-0.043-0.752-0.119c-0.057-0.037-0.094-0.091-0.119-0.17
			c-0.034-0.104-0.06-0.378-0.068-0.834c-0.034-0.724-0.045-1.354-0.045-1.893v-6.288l3.909,6.941l0.712,1.334
			c0.144,0.271,0.367,0.654,0.672,1.167c0.109,0.198,0.184,0.303,0.208,0.327c0.017,0.025,0.038,0.041,0.059,0.055l0.134,0.037
			l0.572,0.248c-0.022-2.187-0.026-3.671-0.026-4.469v-3.945c0-0.52,0.01-1.141,0.034-1.861c0.014-0.473,0.04-0.764,0.078-0.859
			c0.021-0.082,0.053-0.135,0.108-0.167c0.123-0.074,0.375-0.121,0.757-0.125v-0.516C42.126,74.674,40.45,74.674,40.011,74.652z"/>
		<path fill="#FFFFFF" d="M73.575,74.646v0.528c0.438,0.007,0.704,0.038,0.792,0.089c0.097,0.043,0.162,0.116,0.203,0.213
			c0.048,0.092,0.076,0.399,0.084,0.911c0.011,0.713,0.016,1.45,0.016,2.189v3.798c-0.008,1.435-0.016,2.214-0.018,2.33
			c-0.017,0.415-0.042,0.679-0.083,0.789c-0.039,0.089-0.104,0.154-0.202,0.204c-0.092,0.042-0.363,0.065-0.792,0.076v0.803
			c0,0,2.465-0.042,3.247,0v-0.803c-0.438-0.011-0.703-0.037-0.801-0.076c-0.088-0.05-0.163-0.126-0.205-0.224
			c-0.037-0.1-0.067-0.407-0.076-0.928c-0.01-0.704-0.017-1.434-0.017-2.172v-3.798c0.013-1.443,0.017-2.224,0.021-2.335
			c0.007-0.419,0.037-0.683,0.083-0.793c0.034-0.082,0.105-0.142,0.193-0.186c0.098-0.051,0.363-0.082,0.801-0.089v-0.528
			C76.108,74.686,74.276,74.686,73.575,74.646z"/>
		<path fill="#FFFFFF" d="M85.149,82.138c0.183-0.728,0.269-1.51,0.269-2.338c0-1.159-0.187-2.138-0.573-2.948
			c-0.383-0.794-0.843-1.367-1.393-1.707c-0.545-0.348-1.274-0.514-2.174-0.514c-0.301,0-0.728,0.008-1.276,0.03
			c-0.54,0.028-0.967,0.035-1.284,0.035c-0.413,0-0.889-0.017-1.423-0.046v0.515c0.383,0.003,0.632,0.047,0.755,0.125
			c0.052,0.028,0.092,0.081,0.118,0.151c0.037,0.112,0.061,0.396,0.076,0.845c0.02,0.725,0.033,1.353,0.033,1.892v3.344
			c0,0.442-0.013,1.217-0.038,2.35c-0.021,0.659-0.034,1.175-0.054,1.544c-0.143,0.153-0.325,0.312-0.536,0.494L77.6,86.537
			c0.566-0.04,0.963-0.065,1.185-0.073c0.149,0.004,0.48,0.014,0.979,0.039c0.384,0.019,0.685,0.031,0.909,0.031
			c0.679,0,1.207-0.082,1.593-0.236c0.385-0.162,0.762-0.402,1.113-0.724c0.354-0.316,0.685-0.742,0.993-1.285
			C84.686,83.738,84.968,82.867,85.149,82.138z M84.045,82.269c-0.125,0.667-0.305,1.211-0.54,1.633
			c-0.237,0.431-0.485,0.755-0.736,0.973c-0.252,0.214-0.552,0.384-0.91,0.505c-0.348,0.121-0.754,0.188-1.221,0.188
			c-0.451,0-0.873-0.057-1.283-0.158c-0.016-0.61-0.025-1.107-0.03-1.494l-0.02-2.541v-3.277l0.023-1.186
			c0.007-0.687,0.019-1.161,0.024-1.426c0.468-0.105,0.931-0.16,1.383-0.16c0.857,0,1.532,0.202,2.027,0.588
			c0.494,0.385,0.862,0.943,1.1,1.68c0.253,0.727,0.37,1.599,0.37,2.61C84.232,80.917,84.171,81.611,84.045,82.269z"/>
		<path fill="#FFFFFF" d="M91.987,85.647c-0.079-0.063-0.158-0.188-0.228-0.381c-0.123-0.334-0.379-1.171-0.761-2.506l-2.355-8.227
			h-0.358c-0.49,1.752-0.816,2.878-0.959,3.392l-1.385,4.627c-0.411,1.333-0.648,2.104-0.715,2.301
			c-0.109,0.362-0.204,0.577-0.264,0.668c-0.061,0.085-0.127,0.141-0.2,0.176c-0.071,0.022-0.248,0.039-0.54,0.042l0.012,0.835
			c0.418-0.053,1.941-0.053,2.566,0.002l-0.008-0.834c-0.346-0.001-0.584-0.034-0.718-0.075c-0.084-0.025-0.151-0.069-0.193-0.142
			c-0.025-0.051-0.038-0.117-0.038-0.191c0-0.175,0.055-0.455,0.156-0.831l0.601-2.108h3.191l0.678,2.515
			c0.055,0.191,0.079,0.342,0.079,0.462c0,0.073-0.012,0.144-0.048,0.197c-0.031,0.051-0.091,0.095-0.18,0.114
			c-0.089,0.03-0.336,0.049-0.746,0.059l0.009,0.835c0,0,2.404-0.055,2.979,0l-0.015-0.835
			C92.254,85.739,92.071,85.704,91.987,85.647z M86.788,81.7l1.402-4.945l1.377,4.945H86.788z"/>
		<path fill="#FFFFFF" d="M73.461,81.278c-0.103-0.34-0.245-0.616-0.412-0.827c-0.162-0.208-0.416-0.394-0.762-0.545
			c-0.37-0.109-0.785-0.202-1.241-0.289c-0.458-0.091-0.792-0.188-0.992-0.297c-0.294-0.151-0.498-0.356-0.611-0.603
			c-0.115-0.255-0.17-0.622-0.17-1.085c0-0.773,0.158-1.396,0.472-1.874c0.328-0.488,0.75-0.736,1.282-0.736
			c0.415,0,0.806,0.158,1.183,0.479c0.16,0.157,0.285,0.337,0.379,0.532c0.021,0.074,0.037,0.54,0.052,1.377h0.373
			c0.007-0.579,0.033-1.019,0.047-1.311c0.023-0.297,0.065-0.618,0.116-0.963c-0.32-0.234-0.671-0.42-1.035-0.539
			c-0.373-0.126-0.711-0.188-1.026-0.188c-0.518,0-1,0.159-1.447,0.472c-0.436,0.323-0.773,0.767-1,1.34
			c-0.228,0.568-0.341,1.176-0.341,1.826c0,0.436,0.061,0.854,0.168,1.233c0.109,0.384,0.259,0.694,0.44,0.923
			c0.179,0.238,0.46,0.442,0.843,0.621c0.288,0.092,0.635,0.174,1.04,0.252c0.409,0.076,0.679,0.127,0.82,0.166
			c0.212,0.062,0.397,0.178,0.543,0.341c0.145,0.154,0.252,0.367,0.321,0.632c0.076,0.264,0.11,0.572,0.11,0.938
			c0,0.469-0.066,0.911-0.217,1.33c-0.139,0.411-0.367,0.74-0.678,0.996c-0.314,0.253-0.659,0.379-1.024,0.379
			c-0.253,0-0.516-0.065-0.786-0.192c-0.278-0.129-0.494-0.279-0.651-0.44c-0.17-0.173-0.268-0.317-0.314-0.459
			c-0.036-0.145-0.068-0.62-0.082-1.421h-0.379c-0.014,1.179-0.048,2.025-0.109,2.554c0.591,0.424,1.253,0.631,1.988,0.635
			c0.954,0,1.742-0.403,2.35-1.21c0.603-0.81,0.913-1.76,0.913-2.849C73.624,82.024,73.569,81.621,73.461,81.278z"/>
		<path fill="#FFFFFF" d="M67.585,85.65c-0.068-0.084-0.3-0.509-0.695-1.271l-1.388-2.721c-0.348-0.663-0.56-1.085-0.653-1.283
			c0.505-0.163,0.914-0.392,1.225-0.697c0.318-0.299,0.557-0.676,0.723-1.129c0.165-0.453,0.248-0.91,0.248-1.371
			c0-0.488-0.089-0.946-0.26-1.36c-0.183-0.42-0.43-0.726-0.757-0.914c-0.316-0.183-0.831-0.276-1.534-0.276
			c-0.087,0-3.028,0.039-3.028,0.039l-0.653-0.021v0.529c0.435,0.006,0.695,0.038,0.78,0.081c0.099,0.042,0.168,0.116,0.207,0.215
			c0.045,0.091,0.076,0.394,0.083,0.911c0.016,0.711,0.02,1.445,0.02,2.189v3.799c-0.014,1.432-0.02,2.211-0.02,2.331
			c-0.011,0.415-0.041,0.679-0.087,0.787c-0.038,0.087-0.104,0.153-0.201,0.205c-0.091,0.04-0.351,0.064-0.785,0.077v0.8
			c0.829-0.044,2.694-0.044,3.216,0v-0.8c-0.435-0.013-0.695-0.038-0.793-0.077c-0.096-0.051-0.167-0.127-0.209-0.225
			c-0.041-0.097-0.067-0.407-0.075-0.927c-0.015-0.705-0.019-1.435-0.019-2.172v-3.647c0.019-1.51,0.036-2.312,0.036-2.39
			c0.012-0.249,0.021-0.532,0.036-0.824c0.365-0.165,0.736-0.253,1.113-0.253c0.607,0,1.053,0.202,1.352,0.601
			c0.295,0.397,0.448,0.926,0.448,1.602c0,0.771-0.172,1.391-0.516,1.859c-0.345,0.472-0.855,0.708-1.53,0.708
			c-0.096,0-0.238-0.014-0.428-0.025l-0.057,0.244c0.349,0.596,0.72,1.263,1.104,1.992c0.24,0.448,0.514,0.992,0.822,1.659
			c0.563,1.193,0.964,2.266,1.207,2.68c0.313-0.037,1.253-0.037,1.527,0v-0.801c-0.184,0-0.307-0.013-0.357-0.041
			C67.657,85.72,67.619,85.692,67.585,85.65z"/>
		<path fill="#FFFFFF" d="M51.672,74.646v0.529c0.494,0.052,0.774,0.096,0.85,0.137c0.097,0.044,0.143,0.13,0.143,0.262
			c0,0.091-0.038,0.334-0.121,0.721c-0.188,0.906-0.395,1.752-0.599,2.513l-1.437,5.375l-1.725-6.476
			c-0.121-0.447-0.261-1.032-0.418-1.758c-0.049-0.225-0.076-0.362-0.076-0.426c0-0.059,0.015-0.115,0.038-0.156
			c0.032-0.05,0.085-0.08,0.149-0.102c0.075-0.013,0.338-0.028,0.777-0.041v-0.579c-0.708,0.041-2.312,0.041-2.986,0v0.529
			c0.328,0.034,0.532,0.065,0.611,0.129c0.062,0.029,0.105,0.076,0.139,0.154c0.045,0.113,0.176,0.538,0.373,1.269l1.866,6.905
			c0.355,1.362,0.582,2.467,0.7,2.943v0.002h0.55c0.065-0.31,0.129-0.783,0.178-1.01c0.061-0.237,0.131-0.525,0.214-0.847
			l0.424-1.61l1.726-6.303c0.236-0.8,0.373-1.246,0.411-1.327c0.048-0.116,0.098-0.189,0.153-0.23c0.057-0.037,0.22-0.068,0.5-0.078
			v-0.528C53.605,74.677,52.227,74.677,51.672,74.646z"/>
		<path fill="#FFFFFF" d="M60.015,84.541c-0.047,0.291-0.095,0.516-0.138,0.688c-0.167,0.103-0.347,0.176-0.547,0.219
			c-0.197,0.046-0.532,0.066-0.998,0.066c-0.651,0-1.249-0.03-1.778-0.091c-0.02-0.522-0.028-1.289-0.028-2.302
			c0-1.081,0.009-1.891,0.028-2.438c0.453-0.031,0.801-0.042,1.047-0.042c0.598,0,1.008,0.036,1.219,0.101
			c0.115,0.041,0.198,0.11,0.236,0.205c0.042,0.101,0.071,0.356,0.08,0.758l0.014,0.557h0.386l-0.027-1.912l0.027-1.707v-0.154
			h-0.331l-0.034,0.578c-0.027,0.379-0.053,0.606-0.087,0.672c-0.034,0.062-0.112,0.104-0.229,0.126
			c-0.306,0.061-0.682,0.095-1.118,0.095c-0.359,0-0.756-0.019-1.185-0.046l0.018-2.771c0.011-0.531,0.022-1.098,0.038-1.705
			c0.129-0.02,0.352-0.035,0.653-0.056c0.308-0.026,0.502-0.039,0.594-0.039c0.41,0,0.821,0.039,1.233,0.121
			c0.242,0.043,0.465,0.128,0.665,0.254c0.054,0.459,0.08,0.968,0.076,1.528h0.346c0.059-1.088,0.093-1.657,0.097-1.704
			c0.03-0.229,0.065-0.5,0.121-0.818c-0.316-0.053-5.998-0.068-5.998-0.068v0.53c0.432,0.004,0.699,0.041,0.786,0.089
			c0.097,0.042,0.168,0.114,0.21,0.211c0.042,0.091,0.063,0.401,0.083,0.915c0.009,0.711,0.015,1.443,0.015,2.188v4.187
			c0,0.522-0.015,1.148-0.035,1.866c-0.014,0.469-0.042,0.757-0.074,0.861c-0.03,0.075-0.062,0.128-0.117,0.156
			c-0.121,0.088-0.373,0.126-0.76,0.13v0.795c0.918-0.043,4.736,0,4.736-0.006c0.452,0,0.839-0.037,1.151-0.109
			c0-0.724,0.049-1.919,0.144-3.022h-0.362C60.149,83.688,60.094,84.053,60.015,84.541z"/>
		<path fill="#FFFFFF" d="M42.744,74.646v0.528c0.442,0.007,0.708,0.038,0.801,0.089c0.092,0.043,0.163,0.116,0.201,0.213
			c0.045,0.092,0.076,0.399,0.083,0.911c0.008,0.713,0.02,1.45,0.02,2.189v3.798c-0.017,1.435-0.024,2.214-0.024,2.33
			c-0.008,0.415-0.042,0.679-0.079,0.789c-0.038,0.089-0.105,0.154-0.201,0.204c-0.097,0.042-0.362,0.065-0.801,0.076v0.803
			c0,0,2.471-0.042,3.252,0v-0.803c-0.437-0.011-0.703-0.037-0.8-0.076c-0.089-0.05-0.158-0.126-0.198-0.224
			c-0.042-0.1-0.071-0.407-0.079-0.928c-0.009-0.704-0.021-1.434-0.021-2.172v-3.798c0.015-1.443,0.021-2.224,0.024-2.335
			c0.012-0.419,0.038-0.683,0.083-0.793c0.036-0.082,0.101-0.142,0.188-0.186c0.099-0.051,0.365-0.082,0.802-0.089v-0.528
			C45.286,74.686,43.452,74.686,42.744,74.646z"/>
		<path fill="#FFFFFF" d="M150.039,75.175c-0.553-0.341-1.271-0.517-2.174-0.517c-0.305,0-0.73,0.013-1.273,0.034
			c-0.541,0.024-0.977,0.037-1.293,0.037c-0.41,0-0.885-0.018-1.424-0.046v0.518c0.391,0.004,0.635,0.042,0.758,0.121
			c0.055,0.033,0.09,0.084,0.121,0.156c0.031,0.111,0.057,0.39,0.068,0.844c0.033,0.721,0.041,1.352,0.041,1.886v3.349
			c0,0.434-0.012,1.222-0.041,2.342c-0.008,0.663-0.033,1.18-0.047,1.55c-0.145,0.151-0.324,0.312-0.539,0.492l-0.039,0.62
			c0.562-0.042,0.951-0.063,1.174-0.07c0.154,0.003,0.48,0.01,0.984,0.035c0.373,0.024,0.678,0.027,0.906,0.027
			c0.678,0,1.209-0.073,1.598-0.232c0.391-0.163,0.76-0.406,1.111-0.717c0.35-0.318,0.684-0.748,0.988-1.295
			c0.316-0.541,0.598-1.407,0.779-2.128c0.186-0.729,0.275-1.512,0.275-2.34c0-1.156-0.201-2.147-0.576-2.943
			C151.053,76.089,150.59,75.514,150.039,75.175z M150.623,82.31c-0.119,0.662-0.303,1.206-0.539,1.627
			c-0.229,0.431-0.477,0.752-0.721,0.973c-0.26,0.213-0.551,0.384-0.918,0.502c-0.35,0.13-0.768,0.188-1.217,0.188
			c-0.451,0-0.877-0.055-1.283-0.151c-0.02-0.615-0.027-1.115-0.035-1.5l-0.02-2.538v-3.277l0.023-1.188
			c0-0.686,0.016-1.158,0.025-1.431c0.463-0.106,0.926-0.154,1.377-0.154c0.865,0.007,1.539,0.199,2.031,0.585
			c0.488,0.388,0.855,0.952,1.105,1.687c0.242,0.726,0.367,1.595,0.367,2.609C150.82,80.951,150.754,81.643,150.623,82.31z"/>
		<path fill="#FFFFFF" d="M160.576,77.205c-0.178-0.497-0.434-0.956-0.756-1.371c-0.318-0.422-0.725-0.758-1.221-1.006
			c-0.498-0.262-1.047-0.387-1.652-0.387c-0.662,0-1.242,0.147-1.756,0.451c-0.502,0.297-0.965,0.738-1.371,1.325
			c-0.398,0.582-0.693,1.242-0.873,1.972c-0.166,0.732-0.258,1.53-0.258,2.395c0,0.77,0.092,1.543,0.27,2.331
			c0.18,0.779,0.443,1.448,0.789,1.996c0.346,0.541,0.766,0.96,1.27,1.245c0.5,0.276,1.035,0.418,1.619,0.418
			c1.258-0.006,2.312-0.618,3.143-1.842c0.838-1.228,1.256-2.757,1.256-4.604c0-0.573-0.049-1.104-0.131-1.61
			C160.828,78.015,160.715,77.576,160.576,77.205z M159.543,83.37c-0.215,0.781-0.541,1.384-0.979,1.818
			c-0.438,0.427-0.947,0.638-1.543,0.638c-0.422,0-0.812-0.103-1.172-0.308c-0.344-0.218-0.664-0.547-0.947-0.988
			c-0.291-0.446-0.523-1-0.695-1.655c-0.1-0.388-0.193-0.849-0.264-1.388c-0.072-0.536-0.104-1.062-0.104-1.586
			c0-0.924,0.107-1.758,0.324-2.491c0.232-0.736,0.559-1.299,1-1.688c0.443-0.385,0.963-0.579,1.541-0.579
			c0.406,0,0.789,0.091,1.131,0.279c0.348,0.186,0.633,0.416,0.848,0.686c0.227,0.273,0.412,0.589,0.57,0.953
			c0.15,0.361,0.281,0.762,0.377,1.214c0.154,0.732,0.236,1.529,0.236,2.409C159.869,81.69,159.754,82.59,159.543,83.37z"/>
		<path fill="#FFFFFF" d="M143.25,85.692c-0.061-0.086-0.293-0.518-0.693-1.271l-1.383-2.728c-0.342-0.662-0.562-1.088-0.656-1.279
			c0.506-0.163,0.912-0.399,1.229-0.699c0.314-0.298,0.555-0.679,0.721-1.131c0.164-0.455,0.242-0.906,0.242-1.366
			c0-0.494-0.086-0.952-0.26-1.362c-0.176-0.418-0.432-0.725-0.744-0.907c-0.322-0.199-0.83-0.288-1.539-0.288
			c-0.094,0-0.426,0.017-0.996,0.048c-0.443,0.029-2.035-0.003-2.035-0.003l-0.656-0.029v0.529c0.439,0.003,0.703,0.034,0.799,0.092
			c0.088,0.037,0.156,0.109,0.197,0.21c0.045,0.089,0.076,0.394,0.086,0.915c0.006,0.712,0.02,1.441,0.02,2.183v3.801
			c-0.014,1.439-0.02,2.214-0.029,2.332c-0.012,0.42-0.041,0.684-0.082,0.793c-0.035,0.08-0.104,0.146-0.191,0.196
			c-0.104,0.043-0.363,0.066-0.799,0.082l-0.027,0.768c0.832-0.042,2.695-0.042,3.221,0l0.018-0.768
			c-0.424-0.016-0.691-0.039-0.787-0.082c-0.098-0.048-0.162-0.123-0.207-0.222c-0.041-0.097-0.062-0.404-0.074-0.927
			c-0.008-0.704-0.02-1.432-0.02-2.173v-3.643c0.02-1.516,0.037-2.306,0.037-2.388c0.016-0.26,0.027-0.531,0.035-0.83
			c0.367-0.166,0.736-0.248,1.113-0.248c0.607,0,1.057,0.197,1.359,0.598c0.295,0.396,0.439,0.928,0.439,1.598
			c0,0.771-0.17,1.394-0.521,1.864c-0.34,0.476-0.85,0.712-1.52,0.712c-0.094,0-0.24-0.017-0.436-0.032l-0.057,0.248
			c0.357,0.593,0.725,1.256,1.109,1.991c0.236,0.444,0.512,0.994,0.83,1.654c0.557,1.192,0.932,2.231,1.172,2.646
			c0.312-0.039,1.254-0.039,1.533,0l0.021-0.768c-0.182,0-0.305-0.016-0.359-0.045C143.32,85.758,143.289,85.729,143.25,85.692z"/>
		<path fill="#FFFFFF" d="M166.836,81.386c-0.094-0.333-0.227-0.613-0.412-0.84c-0.174-0.236-0.391-0.415-0.658-0.528
			c-0.266-0.116-0.609-0.211-1.041-0.267c0.328-0.12,0.584-0.256,0.785-0.399c0.201-0.146,0.383-0.334,0.547-0.562
			c0.166-0.235,0.289-0.512,0.387-0.827c0.105-0.318,0.15-0.657,0.15-1.021c0-0.452-0.08-0.865-0.248-1.226
			c-0.162-0.376-0.391-0.642-0.68-0.81c-0.289-0.161-0.703-0.245-1.242-0.245l-3.17,0.035c-0.189,0-0.338-0.004-0.461-0.016v0.521
			c0.385,0.004,0.633,0.042,0.756,0.123c0.053,0.035,0.088,0.083,0.123,0.155c0.027,0.115,0.055,0.389,0.066,0.846
			c0.031,0.723,0.039,1.353,0.039,1.887v4.941c0,0.276-0.004,0.691-0.027,1.218c-0.02,0.533-0.035,0.88-0.059,1.04
			c-0.012,0.11-0.029,0.185-0.051,0.227c-0.029,0.039-0.154,0.14-0.383,0.311l-0.023,0.602c0.484-0.046,0.818-0.07,0.988-0.07
			l1.6,0.07c0.52,0,0.986-0.113,1.365-0.334c0.523-0.292,0.949-0.744,1.271-1.357c0.326-0.617,0.52-1.545,0.52-2.357
			C166.975,82.094,166.924,81.728,166.836,81.386z M162.816,79.518v-1.953c0-0.949,0.021-1.652,0.057-2.104
			c0.279-0.081,0.566-0.126,0.883-0.126c0.568,0,0.992,0.15,1.281,0.463c0.295,0.299,0.443,0.786,0.443,1.469
			c0,0.394-0.041,0.736-0.139,1.025c-0.086,0.289-0.199,0.516-0.334,0.687c-0.139,0.176-0.328,0.307-0.582,0.413
			c-0.248,0.104-0.594,0.155-1.047,0.155c-0.16,0-0.342-0.01-0.557-0.028H162.816z M165.574,84.301
			c-0.16,0.45-0.391,0.786-0.682,1.008c-0.305,0.217-0.693,0.329-1.182,0.329c-0.303,0-0.59-0.048-0.869-0.147
			c-0.012-1.158-0.025-1.887-0.021-2.192v-3.108c0.252-0.021,0.453-0.036,0.611-0.036c0.688,0,1.184,0.101,1.477,0.291
			c0.299,0.188,0.535,0.473,0.686,0.872c0.145,0.388,0.217,0.871,0.217,1.444C165.814,83.336,165.736,83.854,165.574,84.301z"/>
		<path fill="#FFFFFF" d="M136.547,78.515c-0.084-0.5-0.195-0.94-0.33-1.31c-0.186-0.497-0.443-0.956-0.762-1.371
			c-0.311-0.422-0.723-0.758-1.213-1.006c-0.064-0.034-0.143-0.047-0.207-0.076l-0.062,0.058l-0.117-0.124
			c-0.396-0.147-0.809-0.244-1.27-0.244c-0.658,0-1.244,0.147-1.748,0.451c-0.518,0.297-0.967,0.738-1.373,1.325
			c-0.406,0.582-0.695,1.242-0.871,1.972c-0.172,0.732-0.262,1.53-0.262,2.395c0,0.77,0.09,1.543,0.271,2.331
			c0.182,0.779,0.443,1.448,0.787,1.996c0.35,0.541,0.773,0.96,1.273,1.245c0.496,0.276,1.033,0.418,1.609,0.418
			c1.268-0.006,2.318-0.618,3.148-1.842c0.836-1.228,1.252-2.757,1.252-4.604C136.67,79.553,136.633,79.022,136.547,78.515z
			 M135.182,83.37c-0.213,0.781-0.537,1.384-0.973,1.818c-0.441,0.427-0.955,0.638-1.545,0.638c-0.432,0-0.818-0.103-1.17-0.308
			c-0.352-0.218-0.666-0.547-0.951-0.988c-0.289-0.446-0.516-1-0.697-1.655c-0.105-0.388-0.188-0.849-0.26-1.388
			c-0.068-0.536-0.102-1.062-0.102-1.586c0-0.924,0.105-1.758,0.326-2.491c0.223-0.736,0.553-1.299,0.994-1.688
			c0.449-0.385,0.955-0.579,1.539-0.579c0.41,0,0.783,0.091,1.129,0.279c0.348,0.186,0.635,0.416,0.852,0.686
			c0.223,0.273,0.412,0.589,0.566,0.953c0.162,0.361,0.283,0.762,0.383,1.214c0.156,0.732,0.23,1.529,0.23,2.409
			C135.504,81.69,135.396,82.59,135.182,83.37z"/>
		<path fill="#FFFFFF" d="M174.318,85.682c-0.08-0.06-0.154-0.188-0.223-0.377c-0.125-0.341-0.377-1.174-0.766-2.511l-2.352-8.225
			h-0.354c-0.5,1.753-0.816,2.884-0.965,3.395l-1.387,4.629c-0.412,1.328-0.648,2.096-0.713,2.302
			c-0.117,0.356-0.205,0.577-0.266,0.658c-0.055,0.085-0.119,0.145-0.195,0.177c-0.07,0.028-0.254,0.044-0.539,0.048l-0.047,0.797
			c0.418-0.053,1.945-0.053,2.568,0l0.041-0.792c-0.34-0.009-0.58-0.035-0.719-0.078c-0.084-0.025-0.143-0.073-0.184-0.151
			c-0.037-0.047-0.045-0.104-0.045-0.186c0-0.17,0.053-0.452,0.164-0.826l0.6-2.108h3.186l0.684,2.513
			c0.047,0.189,0.08,0.34,0.08,0.464c0,0.08-0.02,0.144-0.053,0.197c-0.031,0.053-0.088,0.094-0.18,0.119
			c-0.084,0.026-0.338,0.044-0.752,0.057l-0.037,0.796c0,0,2.4-0.057,2.971,0l0.043-0.796
			C174.596,85.777,174.4,85.742,174.318,85.682z M169.123,81.735l1.406-4.949l1.371,4.949H169.123z"/>
		<path fill="#FFFFFF" d="M127.934,77.646c0.02-0.613,0.059-1.151,0.119-1.613c0.037-0.29,0.102-0.585,0.184-0.883
			c-0.098-0.035-0.35-0.124-0.756-0.287c-0.412-0.155-0.754-0.268-1.035-0.325c-0.291-0.054-0.598-0.085-0.934-0.085
			c-1.416,0-2.529,0.569-3.35,1.717c-0.818,1.146-1.225,2.585-1.225,4.329c0,0.695,0.059,1.326,0.18,1.911
			c0.125,0.566,0.303,1.105,0.533,1.596c0.229,0.494,0.525,0.939,0.889,1.337c0.369,0.394,0.801,0.698,1.285,0.908
			c0.494,0.215,1.016,0.327,1.59,0.327c0.484,0,0.93-0.079,1.342-0.227c0.418-0.141,0.836-0.374,1.271-0.7l0.209-0.762l-0.098-0.174
			c-0.289,0.306-0.58,0.535-0.867,0.677c-0.443,0.211-0.9,0.308-1.404,0.308c-1.115,0-2.02-0.503-2.697-1.508
			c-0.682-1.01-1.023-2.347-1.023-4.008c0.008-0.941,0.094-1.728,0.271-2.353c0.174-0.627,0.406-1.143,0.686-1.546
			c0.271-0.411,0.598-0.706,0.961-0.892c0.369-0.193,0.799-0.29,1.326-0.305c0.701,0,1.225,0.131,1.594,0.392
			c0.363,0.26,0.559,0.661,0.6,1.199v0.964h0.35V77.646z"/>
		<path fill="#FFFFFF" d="M134.031,74.752c-0.057-0.025-0.119-0.044-0.18-0.066l0.119,0.124L134.031,74.752z"/>
		<path fill="#FFFFFF" d="M112.908,75.175c-0.547-0.343-1.273-0.515-2.172-0.515c-0.305,0-0.727,0.011-1.271,0.032
			c-0.543,0.02-0.973,0.034-1.291,0.034c-0.41,0-0.883-0.015-1.418-0.047v0.517c0.371,0.009,0.629,0.047,0.748,0.122
			c0.059,0.037,0.092,0.088,0.117,0.16c0.037,0.113,0.066,0.385,0.08,0.84c0.02,0.721,0.031,1.355,0.031,1.887v3.348
			c0,0.435-0.016,1.216-0.039,2.342c-0.01,0.662-0.035,1.182-0.053,1.55c-0.141,0.149-0.322,0.313-0.531,0.492l-0.066,0.598
			c0.562-0.04,0.957-0.065,1.186-0.074c0.15,0.006,0.477,0.015,0.977,0.04c0.381,0.021,0.684,0.034,0.91,0.034
			c0.676,0,1.211-0.082,1.59-0.236c0.395-0.163,0.766-0.404,1.117-0.724c0.355-0.317,0.678-0.744,0.992-1.289
			c0.305-0.537,0.615-1.384,0.789-2.106c0.188-0.73,0.277-1.51,0.277-2.338c0-1.16-0.195-2.145-0.578-2.944
			C113.924,76.092,113.453,75.519,112.908,75.175z M113.5,82.301c-0.127,0.671-0.307,1.21-0.537,1.635
			c-0.236,0.432-0.484,0.747-0.736,0.973c-0.248,0.214-0.555,0.381-0.906,0.501c-0.359,0.128-0.762,0.187-1.221,0.187
			c-0.457,0.004-0.879-0.055-1.281-0.155c-0.02-0.607-0.035-1.107-0.035-1.492l-0.02-2.547v-0.54
			c0.418-0.025,0.744-0.036,0.969-0.036c0.605,0,1.016,0.034,1.221,0.096c0.121,0.043,0.203,0.11,0.24,0.207
			c0.039,0.1,0.066,0.355,0.07,0.758l0.02,0.553h0.383l-0.031-1.906l0.031-1.707v-0.151h-0.324l-0.031,0.569
			c-0.031,0.382-0.062,0.608-0.094,0.674c-0.029,0.066-0.111,0.109-0.225,0.126c-0.311,0.062-0.682,0.09-1.119,0.09
			c-0.342,0-0.707-0.012-1.113-0.04v-1.96l0.02-1.188c0.008-0.682,0.016-1.154,0.031-1.426c0.465-0.111,0.922-0.155,1.379-0.155
			c0.857,0,1.535,0.19,2.023,0.581c0.496,0.387,0.869,0.95,1.109,1.679c0.244,0.729,0.371,1.603,0.371,2.62
			C113.693,80.948,113.629,81.635,113.5,82.301z"/>
		<path fill="#FFFFFF" d="M124.324,13.465L98.984,0L73.646,13.465v40.687l21.873,11.371c0.119,1.779,1.657,3.252,3.466,3.252
			c1.795,0,3.323-1.441,3.463-3.205l21.877-11.124V13.465z M120.984,27.51c0.004,0.096,0.004,0.194,0.004,0.294l-4.504,2.532
			c-0.139-1.032-0.365-2.04-0.666-3.004l4.666-4.53C120.814,24.319,120.984,25.896,120.984,27.51z M120.977,27.938
			c-0.008,0.695-0.055,1.381-0.127,2.059C120.922,29.319,120.969,28.634,120.977,27.938z M116.217,36.577
			c0.213-0.952,0.354-1.932,0.402-2.935l3.854-1.415c-0.289,1.297-0.695,2.554-1.201,3.761L116.217,36.577z M117.896,38.714
			c-0.447,0.736-0.928,1.453-1.457,2.137l-1.855,0.124c0.326-0.619,0.619-1.256,0.871-1.915L117.896,38.714z M118.924,18.157
			l-4.463,5.991c-0.646-1.173-1.426-2.272-2.303-3.266l3.996-7.196C117.244,15.056,118.176,16.554,118.924,18.157z M108.586,31.931
			c-0.398-0.606-0.85-1.174-1.346-1.694l2.602-5.914l0.078-0.112c0.723,0.742,1.379,1.561,1.941,2.445L108.586,31.931z
			 M109.102,41.059c0,0.021,0,0.044-0.006,0.07C109.102,41.103,109.102,41.08,109.102,41.059z M109.086,41.288
			c-0.012,0.135-0.02,0.26-0.039,0.39C109.066,41.548,109.074,41.423,109.086,41.288z M109.023,41.88
			c-0.023,0.148-0.051,0.297-0.078,0.442C108.973,42.177,109,42.028,109.023,41.88z M109.016,39.12c0,0.009,0,0.018,0.004,0.026
			C109.016,39.138,109.016,39.129,109.016,39.12z M108.938,38.646c0,0.006,0,0.01,0,0.016
			C108.938,38.656,108.938,38.652,108.938,38.646z M108.879,42.629c-0.002,0.032-0.016,0.06-0.016,0.088
			C108.863,42.688,108.877,42.661,108.879,42.629z M113.17,29.249l0.031-0.017c0.352,0.861,0.619,1.761,0.814,2.691l-0.117,0.073
			l-3.84,3.138c-0.164-0.553-0.371-1.085-0.602-1.603L113.17,29.249z M110.445,40.393l3.148-0.718
			c-0.207,0.648-0.453,1.281-0.746,1.893l-2.852,0.812C110.197,41.74,110.354,41.077,110.445,40.393z M110.566,38.808
			c0-0.047,0-0.096,0-0.146c0-0.598-0.047-1.18-0.121-1.752l3.736-2.017l0.148-0.069c0,0.069,0,0.144,0,0.216
			c0,0.769-0.059,1.528-0.176,2.272l-0.119,0.049L110.566,38.808z M107.596,7.13c1.68,0.724,3.258,1.653,4.695,2.757l-3.148,8.289
			c-1.115-0.797-2.324-1.465-3.604-1.984L107.596,7.13z M104.338,20.56l0.012-0.023c1.102,0.413,2.135,0.954,3.102,1.607
			l-0.072,0.154l-1.975,6.359c-0.734-0.504-1.516-0.925-2.346-1.245L104.338,20.56z M106.102,33.419
			c-0.004-0.001-0.008-0.009-0.016-0.009C106.094,33.41,106.098,33.418,106.102,33.419z M103.02,31.372l-0.008-0.004L103.02,31.372z
			 M102.527,31.175c0-0.001-0.004-0.008-0.016-0.008C102.523,31.167,102.527,31.174,102.527,31.175z M98.984,5.358
			c0.979,0,1.934,0.067,2.874,0.193l-0.547,9.522c-0.762-0.101-1.536-0.161-2.322-0.161c-0.937,0-1.862,0.075-2.756,0.216
			L95.809,5.59C96.845,5.439,97.907,5.358,98.984,5.358z M95.567,31.128h-0.003H95.567z M93.192,20.706l1.3,6.804l0.018,0.065
			c-0.809,0.347-1.579,0.802-2.291,1.33l-0.038-0.089l-2.14-6.414c0.969-0.687,2.024-1.271,3.146-1.723L93.192,20.706z
			 M90.977,34.405h-0.003H90.977z M90.001,45.088c-0.021-0.043-0.04-0.087-0.067-0.135C89.961,45.001,89.979,45.045,90.001,45.088z
			 M89.923,36.051c0.024-0.04,0.04-0.083,0.062-0.128C89.963,35.968,89.947,36.011,89.923,36.051z M89.234,32.167l-0.241-0.312
			l-3.332-4.721c0.559-0.922,1.196-1.788,1.925-2.58l2.851,5.708l0.117,0.162C90.061,30.963,89.626,31.545,89.234,32.167z
			 M89.801,44.698c-0.067-0.14-0.133-0.284-0.188-0.422C89.668,44.414,89.734,44.559,89.801,44.698z M89.502,44.008
			c-0.03-0.078-0.057-0.149-0.083-0.231C89.446,43.858,89.472,43.93,89.502,44.008z M89.321,43.495
			c-0.026-0.078-0.048-0.154-0.072-0.236C89.273,43.341,89.295,43.417,89.321,43.495z M89.062,38.496
			c0.028-0.146,0.06-0.297,0.1-0.437C89.122,38.199,89.09,38.35,89.062,38.496z M89.122,42.809c-0.021-0.098-0.042-0.186-0.06-0.282
			C89.08,42.623,89.102,42.711,89.122,42.809z M89.003,42.237c-0.016-0.079-0.031-0.165-0.038-0.245
			C88.972,42.072,88.988,42.158,89.003,42.237z M88.977,38.937c0.008-0.028,0.011-0.05,0.016-0.074
			C88.988,38.887,88.985,38.908,88.977,38.937z M82.476,39.096l0.05,0.013c0.518,1.314,1.185,2.553,1.986,3.69l-2.115-0.877
			c-0.824-0.947-1.576-1.968-2.233-3.044L82.476,39.096z M78.748,36.108c-0.517-1.199-0.933-2.456-1.227-3.757l3.656,1.386
			l0.18,0.101c0.066,1.067,0.229,2.104,0.481,3.109l-0.084-0.027L78.748,36.108z M87.105,36.777l0.405,0.248
			c-0.07,0.54-0.112,1.082-0.112,1.64c0,0.103,0.009,0.206,0.009,0.312l-0.302-0.167l-3.397-1.227
			c-0.141-0.827-0.218-1.675-0.218-2.542v-0.006L87.105,36.777z M83.735,32.326c0.17-0.96,0.427-1.892,0.765-2.775l3.626,4.041
			l0.262,0.211c-0.217,0.51-0.403,1.044-0.55,1.584l-0.293-0.205L83.735,32.326z M84.202,39.613l3.053,0.93l0.325,0.216
			c0.237,1.395,0.703,2.706,1.366,3.889l-2.908-1.21C85.26,42.265,84.641,40.975,84.202,39.613z M88.923,41.697
			c-0.004-0.02-0.004-0.032-0.01-0.044v-0.007C88.914,41.667,88.919,41.678,88.923,41.697z M88.919,39.365v-0.006V39.365z
			 M90.101,7.251l1.93,9.105c-1.343,0.583-2.602,1.331-3.748,2.211l-0.014-0.034l-2.931-8.378
			C86.788,8.998,88.387,8.017,90.101,7.251z M81.539,14.034l3.833,7.251l0.037,0.059c-0.797,0.964-1.492,2.017-2.07,3.134
			l-0.138-0.153l-4.281-5.884C79.624,16.868,80.503,15.387,81.539,14.034z M77.424,23.039l4.476,4.469l0.157,0.125
			c-0.305,1.034-0.526,2.109-0.637,3.215l-0.242-0.15l-4.189-2.705c-0.004-0.16-0.01-0.319-0.01-0.484
			C76.978,25.984,77.13,24.489,77.424,23.039z M98.695,65.012l-24.762-13.03v-11.15l3.044,1.448l2.749,1.449l4.778,2.605
			l4.052,2.169l1.739,1.013l1.734,0.873l2.315,1.157l1.017,0.579l1.451,1.157l0.432,0.436l0.436,0.58l0.29,0.577l0.436,1.013
			l0.141,0.439l0.149,0.578V65.012z M98.261,30.582c0.025-0.006,0.046-0.006,0.077-0.006C98.307,30.576,98.287,30.576,98.261,30.582
			z M97.246,26.778l-0.433-7.075c0.706-0.102,1.432-0.157,2.171-0.157c0.589,0,1.17,0.039,1.743,0.11l-0.01,0.033l-0.278,7.047
			c-0.476-0.058-0.965-0.096-1.455-0.096C98.391,26.64,97.813,26.682,97.246,26.778z M100.052,30.605h-0.006H100.052z
			 M99.271,65.012v-8.108l0.146-0.578l0.142-0.44l0.441-1.01l0.284-0.58l0.434-0.579l0.441-0.437l0.721-0.58l0.721-0.576l1.016-0.58
			l2.174-1.156l1.877-0.872l1.742-1.014l4.051-2.168l4.783-2.605l2.74-1.451l2.902-1.446l0.143,11.149L99.271,65.012z"/>
		<path fill="#FFFFFF" d="M88.914,41.653c0.006,0.012,0.006,0.024,0.01,0.044c-0.004-0.02-0.01-0.03-0.01-0.051V41.653z"/>
		<path fill="#FFFFFF" d="M135.043,73.802l-0.451-0.484l-1.076,1.005l0.336,0.363c0.061,0.022,0.123,0.042,0.18,0.066
			L135.043,73.802z"/>
	</g>
	<g>
		<path fill="#FFFFFF" d="M71.567,100.439c-0.042-0.255-0.172-1.268-1.579-1.268c-1.763,0-2.074,1.799-2.074,3.019
			c0,1.373,0.395,2.866,2.066,2.866c0.445,0,0.869-0.115,1.182-0.44c0.265-0.283,0.326-0.599,0.355-0.77h1.113
			c-0.152,1.442-1.479,2.031-2.732,2.031c-2.571,0-3.068-2.268-3.068-3.683c0-1.535,0.597-3.837,3.2-3.837
			c1.033,0,2.488,0.411,2.623,2.074h-1.086V100.439z"/>
		<path fill="#FFFFFF" d="M75.86,100.564c2.034,0,2.49,1.596,2.49,2.662c0,1.484-0.839,2.721-2.569,2.721
			c-1.684,0-2.503-1.162-2.503-2.655C73.278,102.039,73.867,100.564,75.86,100.564z M75.801,105.235
			c0.717,0,1.538-0.516,1.538-2.041c0-1.267-0.589-1.937-1.481-1.937c-0.605,0-1.589,0.382-1.589,1.972
			C74.271,104.275,74.719,105.235,75.801,105.235z"/>
		<path fill="#FFFFFF" d="M79.607,101.279l-0.008-0.588h0.952l0.008,0.817c0.11-0.208,0.476-0.922,1.628-0.922
			c0.457,0,1.844,0.174,1.844,1.733v3.45H83.06v-3.23c0-0.33-0.04-0.632-0.273-0.867c-0.245-0.233-0.578-0.341-0.902-0.341
			c-0.69,0-1.325,0.495-1.325,1.515v2.93h-0.952V101.279L79.607,101.279z"/>
		<path fill="#FFFFFF" d="M86.045,104.268c-0.007,0.381,0.193,0.921,1.114,0.921c0.397,0,0.688-0.07,0.894-0.326
			c0.098-0.127,0.161-0.303,0.161-0.477c0-0.492-0.356-0.585-1.114-0.757c-1.063-0.243-1.952-0.453-1.952-1.519
			c0-0.935,0.81-1.539,1.985-1.539c0.637,0,1.527,0.183,1.831,0.792c0.133,0.281,0.133,0.522,0.133,0.731h-0.971
			c0.03-0.763-0.638-0.825-0.983-0.825c-0.14,0-1.031,0-1.031,0.725c0,0.465,0.456,0.577,0.717,0.647
			c1.408,0.337,1.711,0.418,2.017,0.701c0.285,0.264,0.385,0.62,0.385,0.94c0,0.568-0.315,1.053-0.691,1.286
			c-0.446,0.273-0.982,0.343-1.508,0.343c-1.034,0-1.994-0.424-1.984-1.647h1V104.268z"/>
		<path fill="#FFFFFF" d="M90.876,103.405c-0.021,1.054,0.416,1.83,1.458,1.83c0.616,0,1.113-0.32,1.194-1.05h0.951
			c-0.028,0.252-0.069,0.667-0.435,1.064c-0.222,0.252-0.729,0.677-1.752,0.677c-1.602,0-2.357-0.993-2.357-2.604
			c0-1.003,0.203-1.829,1.003-2.387c0.484-0.346,1.093-0.375,1.385-0.375c2.276,0,2.227,2.014,2.207,2.847h-3.655V103.405
			L90.876,103.405z M93.556,102.734c0.013-0.484-0.08-1.496-1.253-1.496c-0.62,0-1.366,0.374-1.387,1.496H93.556z"/>
		<path fill="#FFFFFF" d="M94.762,107.048c0.751,0.031,0.935-0.101,0.935-0.91v-5.446h0.952v5.558c0,0.487-0.024,1.52-1.295,1.52
			c-0.124,0-0.324-0.011-0.592-0.039V107.048L94.762,107.048z M95.603,98.485h1.155v1.054h-1.155V98.485z"/>
		<path fill="#FFFFFF" d="M100.421,100.564c2.036,0,2.489,1.596,2.489,2.662c0,1.484-0.838,2.721-2.568,2.721
			c-1.683,0-2.503-1.162-2.503-2.655C97.842,102.039,98.428,100.564,100.421,100.564z M100.363,105.235
			c0.719,0,1.538-0.516,1.538-2.041c0-1.267-0.586-1.937-1.479-1.937c-0.608,0-1.589,0.382-1.589,1.972
			C98.833,104.275,99.281,105.235,100.363,105.235z"/>
		<path fill="#FFFFFF" d="M107.42,103.638c0.018,0.507,0.08,1.449,1.762,1.449c1.516,0,1.711-0.945,1.711-1.307
			c0-0.817-0.66-0.979-1.68-1.236c-1.117-0.273-1.611-0.391-1.988-0.646c-0.6-0.403-0.758-0.949-0.758-1.438
			c0-1.485,1.406-2.136,2.781-2.136c0.48,0,1.465,0.08,2.051,0.72c0.406,0.447,0.43,0.943,0.449,1.246h-1.051
			c-0.047-0.91-0.818-1.117-1.539-1.117c-1.012,0-1.615,0.456-1.615,1.188c0,0.646,0.422,0.871,1.314,1.082
			c1.74,0.45,1.934,0.488,2.359,0.773c0.676,0.444,0.725,1.15,0.725,1.454c0,1.293-1.016,2.273-2.883,2.273
			c-0.555,0-1.693-0.089-2.271-0.825c-0.414-0.537-0.422-1.122-0.422-1.48H107.42L107.42,103.638z"/>
		<path fill="#FFFFFF" d="M115.182,100.564c2.031,0,2.492,1.596,2.492,2.662c0,1.484-0.84,2.721-2.57,2.721
			c-1.68,0-2.504-1.162-2.504-2.655C112.6,102.039,113.189,100.564,115.182,100.564z M115.125,105.235
			c0.715,0,1.537-0.516,1.537-2.041c0-1.267-0.59-1.937-1.48-1.937c-0.604,0-1.588,0.382-1.588,1.972
			C113.594,104.275,114.043,105.235,115.125,105.235z"/>
		<path fill="#FFFFFF" d="M121.793,102.32c-0.018-0.233-0.088-1.062-1.01-1.062c-1.314,0-1.314,1.531-1.314,1.917
			c0,1.04,0.252,2.015,1.264,2.015c0.811,0,1.086-0.608,1.105-1.104h0.959c-0.061,0.993-0.797,1.824-2.053,1.824
			c-0.342,0-1.137-0.072-1.672-0.659c-0.301-0.356-0.607-0.892-0.607-1.942c0-2.113,1.295-2.746,2.307-2.746
			c0.336,0,1.098,0.07,1.557,0.629c0.373,0.434,0.404,0.85,0.424,1.13H121.793L121.793,102.32z"/>
		<path fill="#FFFFFF" d="M123.607,98.485h1.145v1.039h-1.145V98.485z M123.709,100.691h0.953v5.083h-0.953V100.691z"/>
		<path fill="#FFFFFF" d="M129.348,105.776c-0.068-0.255-0.088-0.496-0.088-0.761c-0.459,0.843-1.148,0.925-1.57,0.925
			c-1.166,0-1.795-0.66-1.795-1.503c0-0.404,0.145-1.052,0.891-1.485c0.547-0.303,1.357-0.336,1.764-0.336
			c0.246,0,0.396,0.01,0.688,0.033c0-0.628,0-0.902-0.184-1.122c-0.189-0.254-0.607-0.333-0.879-0.333
			c-0.957,0-1.012,0.654-1.023,0.859h-0.949c0.031-0.265,0.059-0.617,0.354-0.959c0.383-0.426,1.104-0.546,1.639-0.546
			c0.74,0,1.531,0.232,1.803,0.749c0.162,0.305,0.17,0.545,0.17,0.782l-0.039,2.43c0,0.081,0.012,0.76,0.082,1.279h-0.863v-0.013
			H129.348z M128.689,103.275c-0.383,0-1.834,0-1.834,1.032c0,0.321,0.205,0.881,1.055,0.881c0.484,0,0.854-0.194,1.082-0.547
			c0.213-0.341,0.225-0.624,0.244-1.334C129.064,103.283,128.922,103.275,128.689,103.275z"/>
		<path fill="#FFFFFF" d="M131.635,98.477h0.949v7.3h-0.949V98.477z"/>
	</g>
</g>
</svg>
