<?xml version="1.0" encoding="utf-8"?>
<!-- Generator: Adobe Illustrator 16.0.0, SVG Export Plug-In . SVG Version: 6.00 Build 0)  -->
<!DOCTYPE svg PUBLIC "-//W3C//DTD SVG 1.1//EN" "http://www.w3.org/Graphics/SVG/1.1/DTD/svg11.dtd">
<svg version="1.1" id="Capa_1" xmlns="http://www.w3.org/2000/svg" xmlns:xlink="http://www.w3.org/1999/xlink" x="0px" y="0px"
	 width="200px" height="54.123px" viewBox="0 0 200 54.123" enable-background="new 0 0 200 54.123" xml:space="preserve">
<g>
	<g id="surface2_1_">
		<g>
			<path fill="#FFFFFF" d="M69.623,46.699c-0.031,0.277-0.797,0.545-2.297,0.807c-1.498,0.244-3.575,0.456-6.233,0.634
				c-2.655,0.194-5.733,0.343-9.234,0.438c-3.49,0.111-7.25,0.172-11.292,0.172c-4.042,0-7.81-0.055-11.314-0.172
				c-3.5-0.095-6.579-0.244-9.236-0.438c-2.657-0.178-4.733-0.39-6.231-0.634c-1.484-0.244-2.244-0.516-2.274-0.807
				c0.03-0.277,0.79-0.537,2.274-0.781c1.498-0.244,3.574-0.471,6.231-0.663c2.657-0.18,5.735-0.316,9.236-0.417
				c3.504-0.111,7.275-0.169,11.314-0.169c4.043,0,7.81,0.058,11.314,0.169c3.486,0.101,6.558,0.237,9.212,0.417
				c2.658,0.195,4.735,0.417,6.233,0.663C68.826,46.162,69.589,46.422,69.623,46.699"/>
		</g>
		<g>
			<path fill="#FFFFFF" d="M32.844,25.045c1.137-0.374,2.279-0.781,3.42-1.222l0,0c0.016,0,0.016,0,0,0
				c1.043-0.407,2.028-0.823,2.958-1.245c-0.032-0.082-0.066-0.155-0.101-0.222c-0.456-0.977-0.641-1.923-0.56-2.833
				c0.083-0.914,0.393-1.721,0.927-2.422c0.541-0.683,1.273-1.172,2.198-1.467c0.054,0,0.094-0.007,0.124-0.022
				c-0.39-0.8-0.813-1.588-1.27-2.372l0,0l0,0c-0.521-0.896-1.076-1.736-1.663-2.516c-0.048,0.015-0.111,0.032-0.194,0.047
				c-0.878,0.212-1.775,0.262-2.687,0.147c-0.913-0.114-1.75-0.375-2.515-0.783c-0.767-0.389-1.37-0.896-1.814-1.513
				c-0.878,0.193-1.757,0.438-2.637,0.733l0,0l0,0c-1.094,0.358-2.136,0.758-3.127,1.196c0.293,0.668,0.351,1.369,0.169,2.103
				c-0.178,0.733-0.551,1.424-1.125,2.077c-0.567,0.668-1.302,1.221-2.198,1.661c0.276,0.912,0.62,1.849,1.027,2.81l0,0l0,0
				c0.372,0.913,0.789,1.818,1.245,2.713c1.026-0.391,2.055-0.52,3.083-0.391c1.024,0.131,1.954,0.489,2.784,1.076
				c0.83,0.604,1.473,1.394,1.929,2.372C32.817,24.991,32.826,25.013,32.844,25.045 M40.149,23.923
				c-1.009,0.472-2.076,0.928-3.201,1.368c0,0.017,0,0.025,0,0.025c0-0.015,0-0.015,0,0c-1.223,0.473-2.452,0.906-3.693,1.295
				c0.115,0.878,0.031,1.734-0.243,2.566c-0.26,0.83-0.684,1.579-1.273,2.247c0.275,0.277,0.559,0.539,0.83,0.784
				c1.205,1.107,2.378,1.97,3.517,2.591c0.033-0.54,0.155-1.077,0.369-1.614c0.357-0.863,0.869-1.556,1.539-2.077
				c0.667-0.506,1.416-0.824,2.249-0.953c0.83-0.114,1.66,0.007,2.493,0.368c0.569,0.244,1.058,0.578,1.467,1
				c0.357-1.255,0.521-2.696,0.487-4.324c0-0.359-0.005-0.718-0.025-1.074c-0.843-0.05-1.656-0.262-2.441-0.636
				C41.46,25.112,40.769,24.588,40.149,23.923 M25.291,9.649c1.026-0.439,2.093-0.839,3.201-1.197l0,0
				c0.931-0.291,1.843-0.546,2.738-0.758c-0.146-0.553-0.095-1.067,0.147-1.538c0.228-0.472,0.627-0.872,1.198-1.196
				c-0.115-0.066-0.228-0.13-0.341-0.198c-1.092-0.554-2.143-0.936-3.152-1.148c-0.02,0.244-0.122,0.49-0.32,0.733
				c-0.325,0.393-0.772,0.726-1.343,1.004c-0.57,0.258-1.196,0.445-1.879,0.561c-0.672,0.112-1.333,0.128-1.983,0.049
				c-0.276-0.034-0.53-0.089-0.758-0.173c-0.392,0.62-0.683,1.363-0.88,2.225c-0.033,0.164-0.065,0.342-0.097,0.537
				c0.701-0.047,1.353,0.025,1.956,0.221C24.378,8.966,24.883,9.26,25.291,9.649 M41.345,7.891c0.05,0.457-0.039,0.887-0.269,1.293
				c-0.227,0.409-0.579,0.758-1.049,1.052c0.618,0.831,1.212,1.718,1.784,2.664c0.018,0,0.018,0,0,0
				c0.505,0.83,0.966,1.679,1.392,2.542c0.785,0.016,1.557,0.186,2.324,0.514c0.749,0.324,1.426,0.781,2.026,1.369
				c0.165-0.148,0.316-0.301,0.465-0.466c0.783-0.83,1.304-1.643,1.561-2.444c-0.472-0.08-0.979-0.252-1.516-0.512
				c-0.702-0.358-1.293-0.8-1.782-1.32c-0.49-0.522-0.84-1.05-1.049-1.59c-0.214-0.553-0.244-1.068-0.099-1.538
				c0.083-0.245,0.212-0.448,0.393-0.611c-0.912-0.341-1.958-0.611-3.127-0.807C42.055,7.972,41.705,7.924,41.345,7.891
				 M21.063,27.344c0.05-0.913,0.292-1.768,0.732-2.565c0.424-0.815,1.021-1.508,1.786-2.077c-0.474-0.93-0.898-1.882-1.271-2.86
				l0,0l0,0c-0.41-0.994-0.753-1.963-1.029-2.907c-0.83,0.193-1.619,0.244-2.369,0.146c-0.733-0.114-1.369-0.366-1.908-0.758
				c-0.162,0.146-0.316,0.292-0.463,0.438c-1.058,1.107-1.89,2.184-2.49,3.228c0.341,0,0.681,0.047,1.024,0.147
				c0.686,0.227,1.214,0.619,1.588,1.171c0.392,0.571,0.611,1.23,0.661,1.98c0.048,0.749-0.088,1.524-0.415,2.323
				c-0.212,0.471-0.463,0.895-0.76,1.269c1.157,0.343,2.56,0.506,4.205,0.488C20.582,27.367,20.817,27.36,21.063,27.344
				 M33.501,12.9c-0.634-0.196-1.273-0.261-1.906-0.196c-0.618,0.082-1.189,0.286-1.71,0.61c-0.506,0.328-0.896,0.745-1.171,1.248
				c-0.278,0.555-0.377,1.108-0.294,1.662c0.097,0.568,0.341,1.083,0.731,1.54c0.392,0.439,0.915,0.782,1.564,1.026
				c0.668,0.227,1.336,0.31,2.006,0.245c0.648-0.082,1.234-0.302,1.755-0.66c0.525-0.342,0.915-0.798,1.177-1.37
				c0.339-0.849,0.309-1.653-0.097-2.418C35.147,13.822,34.464,13.26,33.501,12.9 M30.18,0.021
				c-0.571,0.032-1.036,0.129-1.396,0.294c-0.357,0.163-0.53,0.341-0.512,0.537c0.064,0.212,0.325,0.376,0.781,0.488
				c0.458,0.115,1.002,0.148,1.636,0.1c0.622-0.049,1.099-0.154,1.444-0.319c0.355-0.162,0.499-0.35,0.417-0.56
				c-0.113-0.197-0.395-0.342-0.83-0.441C31.28,0.005,30.764-0.027,30.18,0.021 M17.079,3.907c-0.521,0.293-0.885,0.595-1.099,0.905
				c-0.198,0.309-0.198,0.552,0,0.733c0.246,0.18,0.627,0.219,1.148,0.122c0.522-0.097,1.069-0.303,1.638-0.612
				c0.537-0.326,0.905-0.643,1.101-0.952c0.179-0.309,0.146-0.547-0.101-0.709c-0.261-0.146-0.64-0.171-1.148-0.073
				C18.115,3.418,17.6,3.614,17.079,3.907 M5.472,20.721c-0.032,0.619,0.106,1.083,0.413,1.392c0.327,0.294,0.765,0.352,1.322,0.173
				c0.567-0.228,1.06-0.636,1.466-1.223c0.408-0.57,0.636-1.189,0.686-1.856c0.032-0.638-0.131-1.084-0.492-1.344
				C8.527,17.584,8.085,17.56,7.55,17.79c-0.541,0.228-0.997,0.618-1.37,1.171C5.788,19.515,5.554,20.102,5.472,20.721 M9.333,36.19
				c0.424,0.653,0.95,1.027,1.588,1.124c0.652,0.115,1.252-0.072,1.807-0.562c0.375-0.343,0.645-0.757,0.808-1.246
				c0.162-0.474,0.219-0.97,0.169-1.491c-0.048-0.521-0.219-1.003-0.51-1.441c-0.442-0.636-0.988-0.995-1.64-1.076
				c-0.634-0.066-1.229,0.156-1.782,0.66c-0.507,0.52-0.801,1.164-0.882,1.929C8.809,34.838,8.958,35.539,9.333,36.19
				 M34.868,47.384c0.864-0.164,1.548-0.561,2.055-1.199c0.504-0.631,0.716-1.374,0.636-2.22c-0.115-0.865-0.503-1.541-1.173-2.03
				c-0.654-0.489-1.424-0.675-2.321-0.561c-0.882,0.147-1.583,0.547-2.104,1.196c-0.506,0.669-0.708,1.434-0.61,2.297
				c0.147,0.831,0.553,1.481,1.223,1.955C33.225,47.294,33.99,47.481,34.868,47.384 M52.271,39.147
				c0.536-0.539,0.855-1.19,0.954-1.956c0.081-0.765-0.076-1.474-0.465-2.126c-0.424-0.651-0.97-1.026-1.638-1.122
				c-0.652-0.101-1.27,0.104-1.859,0.61c-0.388,0.341-0.675,0.755-0.855,1.244c-0.162,0.489-0.219,0.994-0.172,1.516
				c0.052,0.522,0.219,1.002,0.517,1.442c0.455,0.635,1.006,0.984,1.658,1.052C51.083,39.888,51.701,39.668,52.271,39.147
				 M57.429,17.152c-0.23-0.585-0.571-1.099-1.027-1.539c-0.457-0.441-0.922-0.71-1.396-0.807c-0.487-0.065-0.824,0.083-0.999,0.441
				c-0.198,0.356-0.198,0.847,0,1.467c0.226,0.634,0.584,1.18,1.072,1.635c0.474,0.458,0.963,0.719,1.466,0.785
				c0.458,0.032,0.763-0.139,0.927-0.514C57.639,18.244,57.623,17.756,57.429,17.152 M49.216,5.814
				c-0.458-0.359-0.938-0.636-1.44-0.832c-0.519-0.195-0.956-0.26-1.295-0.195c-0.341,0.083-0.475,0.285-0.394,0.61
				c0.083,0.309,0.352,0.661,0.807,1.051c0.488,0.39,1.004,0.685,1.539,0.879c0.537,0.197,0.977,0.245,1.32,0.147
				c0.293-0.114,0.39-0.324,0.293-0.637C49.949,6.529,49.672,6.188,49.216,5.814 M21.455,29.811
				c-0.115-0.276-0.205-0.561-0.27-0.854c-0.309,0.017-0.62,0.024-0.929,0.024c-2.199,0-4.005-0.303-5.426-0.905
				c-0.553,0.325-1.125,0.53-1.71,0.613c-0.585,0.08-1.146,0.007-1.687-0.223c-0.618-0.276-1.101-0.701-1.441-1.27
				c-0.341-0.57-0.522-1.212-0.537-1.929c-0.034-0.734,0.111-1.477,0.438-2.226c0.291-0.635,0.667-1.189,1.125-1.661
				c0.474-0.458,0.986-0.807,1.539-1.051c0.67-1.417,1.71-2.843,3.127-4.277c0.18-0.194,0.366-0.374,0.564-0.538
				c-0.147-0.227-0.262-0.472-0.345-0.734c-0.245-0.863-0.155-1.742,0.268-2.638c-1.022-0.195-2.017-0.349-2.978-0.464
				c-0.39,0.438-0.855,0.824-1.396,1.148c-0.75,0.424-1.381,0.604-1.904,0.539c-0.521-0.051-0.815-0.335-0.88-0.856
				c-0.032-0.488,0.166-1.027,0.587-1.613c0.424-0.604,0.968-1.114,1.638-1.538c0.701-0.41,1.318-0.604,1.855-0.586
				c0.537,0.033,0.866,0.266,0.977,0.708c0.083,0.341,0.018,0.733-0.194,1.171c0.961,0.115,1.954,0.252,2.982,0.417
				c0.652-0.798,1.516-1.441,2.59-1.93c0.356-0.147,0.709-0.27,1.051-0.367c0.032-0.213,0.072-0.417,0.124-0.611
				c0.275-1.125,0.724-2.078,1.344-2.86c-0.23-0.245-0.327-0.514-0.295-0.806c0.031-0.312,0.203-0.621,0.514-0.93
				c0.327-0.324,0.756-0.611,1.293-0.855c0.539-0.245,1.117-0.414,1.735-0.514c0.604-0.112,1.196-0.145,1.785-0.097
				c0.945,0.113,1.581,0.384,1.906,0.808c1.353,0.162,2.752,0.611,4.205,1.344c0.16,0.079,0.325,0.17,0.488,0.267
				c0.176-0.048,0.356-0.097,0.536-0.146c1.076-0.196,2.151-0.156,3.228,0.122c0.341-0.569,0.677-1.1,1.004-1.588
				c-0.555-0.197-0.988-0.435-1.295-0.71c-0.341-0.341-0.415-0.626-0.219-0.856c0.194-0.227,0.613-0.349,1.249-0.365
				c0.636-0.016,1.293,0.081,1.981,0.293c0.663,0.194,1.204,0.448,1.609,0.759c0.41,0.341,0.546,0.634,0.419,0.879
				c-0.147,0.259-0.541,0.407-1.173,0.438c-0.438,0.033-0.907,0-1.394-0.097c-0.294,0.504-0.613,1.05-0.952,1.636
				c0.882,0.393,1.581,0.905,2.104,1.541c0.162,0.195,0.292,0.381,0.39,0.561c0.392,0.05,0.785,0.108,1.173,0.171
				c1.599,0.278,3.003,0.692,4.227,1.249c0.375-0.067,0.807-0.058,1.293,0.021c0.472,0.1,0.961,0.287,1.467,0.564
				c0.927,0.504,1.66,1.147,2.199,1.93c0.539,0.765,0.765,1.49,0.684,2.174c-0.131,0.668-0.53,1.092-1.196,1.271
				c-0.167,1.157-0.767,2.322-1.809,3.495c-0.194,0.212-0.399,0.424-0.611,0.636c0.097,0.162,0.194,0.333,0.294,0.513
				c0.295,0.587,0.489,1.173,0.582,1.759c0.099,0.588,0.099,1.158,0,1.711c1.223,0.636,2.413,1.289,3.573,1.955
				c0.228-0.569,0.609-0.96,1.149-1.171c0.638-0.228,1.288-0.131,1.955,0.295c0.652,0.42,1.166,1.067,1.538,1.929
				c0.327,0.88,0.409,1.711,0.242,2.491c-0.176,0.8-0.559,1.361-1.147,1.688c-0.667,0.309-1.342,0.268-2.028-0.122
				c-0.7-0.409-1.247-1.078-1.638-2.006c-0.242-0.603-0.357-1.196-0.343-1.783c-1.205-0.667-2.452-1.336-3.738-2.004
				c-0.458,0.913-1.195,1.589-2.224,2.026c-0.194,0.067-0.394,0.123-0.587,0.173c0.032,0.457,0.059,0.906,0.073,1.344
				c0.031,2.282-0.266,4.252-0.903,5.916c0.227,0.568,0.341,1.171,0.341,1.807c0.018,0.636-0.097,1.263-0.341,1.882
				c-0.343,0.849-0.84,1.533-1.493,2.055c-0.65,0.52-1.381,0.854-2.198,1c-0.815,0.132-1.638,0.042-2.468-0.267
				c-0.668-0.277-1.23-0.662-1.685-1.15c-0.475-0.506-0.825-1.076-1.049-1.711c-1.649-0.684-3.31-1.801-4.99-3.349
				c-0.325-0.31-0.65-0.625-0.977-0.953c-0.291,0.213-0.618,0.385-0.977,0.515c-0.65,0.277-1.318,0.438-2.003,0.489
				c-0.668,0.05-1.329-0.008-1.981-0.172c-0.602,1.534-1.204,3.065-1.807,4.596c0.62,0.424,1.092,1.002,1.416,1.735
				c0.276,0.684,0.384,1.361,0.318,2.029c-0.079,0.684-0.318,1.285-0.709,1.808c-0.388,0.538-0.909,0.937-1.563,1.197
				c-0.636,0.245-1.279,0.311-1.929,0.196c-0.636-0.114-1.222-0.374-1.76-0.785c-0.523-0.407-0.927-0.935-1.224-1.588
				c-0.276-0.668-0.382-1.336-0.316-2.003c0.064-0.654,0.276-1.247,0.638-1.785c0.372-0.536,0.868-0.945,1.491-1.222
				c0.699-0.292,1.408-0.375,2.123-0.244c0.585-1.516,1.189-3.03,1.809-4.547c-0.57-0.324-1.069-0.733-1.489-1.222
				C22.04,31.018,21.699,30.446,21.455,29.811"/>
		</g>
	</g>
	<g id="surface4_1_">
		<g enable-background="new    ">
			<path fill="#FFFFFF" d="M92.458,23.363c-2.06,0.551-4.322,0.666-6.089,0.116c-2.291-0.753-3.248-2.232-3.248-5.16v-3.711
				c0-5.653,4.785-7.014,9.277-4.928l-0.726,2.203c-3.45-1.363-5.913-0.261-5.913,2.551v4.203c0,3.188,4.086,2.812,6,2.232
				L92.458,23.363z"/>
			<path fill="#FFFFFF" d="M105.414,18.204c0,2.956-1.537,5.624-5.364,5.624c-3.797,0-5.449-2.668-5.449-5.624v-3.827
				c0-3.654,1.943-5.683,5.449-5.683c3.363,0,5.364,2.174,5.364,5.683V18.204z M102.805,14.377c0-2.582-1.45-3.073-2.754-3.073
				c-1.42,0-2.811,0.637-2.811,3.073v4.117c0,1.884,1.218,2.783,2.811,2.783c1.625,0,2.754-0.957,2.754-2.783V14.377z"/>
			<path fill="#FFFFFF" d="M110.689,18.058c0.177,1.74,1.624,3.219,4.001,3.219c2.611,0,4.058-1.363,4.058-3.102
				c0-5.684-10.377-3.652-10.377-10.205c0-2.435,2.061-5.015,6.551-5.015c2.001,0,3.071,0.318,4.231,0.87
				c0,0.029-0.492,1.45-0.841,2.493c-1.07-0.434-2.115-0.695-3.362-0.695c-2.521,0-3.827,1.043-3.737,2.551
				c0.203,3.537,10.434,2.841,10.434,9.77c0,3.217-1.97,5.913-6.928,5.913c-4.492,0-6.754-2.898-6.842-5.478L110.689,18.058z"/>
			<path fill="#FFFFFF" d="M124.285,23.537V7.622c0-4.406,3.364-5.015,5.77-4.581l-0.435,2.377c-1.132-0.26-2.667,0-2.667,2.204
				v1.391h2.812l-0.697,2.492h-2.115v12.031H124.285z"/>
			<path fill="#FFFFFF" d="M141.1,22.522c-1.361,0.841-3.131,1.333-4.785,1.362c-2.868,0.087-4.927-1.217-4.927-4.232v-5.943
				c0-3.188,2.171-4.957,5.333-4.957c3.219,0,5.103,1.826,5.103,4.87v4.174l-7.767,0.436v1.13c0,2.377,2.549,2.783,6.055,0.928
				L141.1,22.522z M139.158,13.594c0-1.739-1.393-2.319-2.467-2.319c-1.738,0-2.635,1.072-2.635,2.464v2.029l5.102-0.29V13.594z"/>
			<path fill="#FFFFFF" d="M144.781,23.537V9.013h2.492l0.116,0.435c1.943-1.013,3.653-0.667,5.188-0.348l-0.636,2.522
				c-1.886-0.841-4.524-0.146-4.524,1.883v10.03H144.781z"/>
			<path fill="#FFFFFF" d="M164.317,23.537c-4.605,0.436-11.158,1.305-11.158-4.898v-2.407c0-2.087,0.812-3.275,1.997-3.854
				c2.061-1.017,5.191-0.175,6.527,0.695c0-1.652-1.308-2.436-3.596-2.436l0.203-1.856c6.026,0,6.026,3.334,6.026,6.118V23.537z
				 M161.684,15.71c-1.599-0.899-5.888-2.377-5.888,0.811v1.914c0,2.435,1.971,3.421,5.888,2.812V15.71z"/>
		</g>
		<g enable-background="new    ">
			<path fill="#FFFFFF" d="M85.288,40.565h0.19c0.086,0,0.151,0.127,0.19,0.382c0.129,0.016,0.192,0.063,0.192,0.142
				c-0.144,0.351-0.239,0.526-0.285,0.526c-0.049,0.278-0.19,0.501-0.43,0.668c0,0.127-0.178,0.414-0.526,0.859
				c0,0.119-0.192,0.612-0.573,1.479l-0.095,0.43c0,0.637,0.253,0.954,0.764,0.954c0.972,0,1.974-1.002,3.008-3.007
				c0.251-0.413,0.381-0.683,0.381-0.811h0.095l0.192,0.717l-0.622,1.098c0,0.222-0.255,0.637-0.765,1.24
				c-0.668,0.812-1.351,1.305-2.051,1.48h-0.049c-0.853,0-1.392-0.398-1.622-1.193c0-0.484,0.239-1.28,0.716-2.386l0.381-0.907
				l0.192-0.239v-0.095l-0.097-0.144C84.954,40.963,85.223,40.565,85.288,40.565z"/>
			<path fill="#FFFFFF" d="M88.903,41.412l0.347,0.168c0.589,0.557,0.936,1.049,1.049,1.479l0.19,0.25l0.92-0.048l0.165-0.024
				l0.05,0.024c0.07,0.032,0.048,0.231-0.072,0.597l-1.038,0.203c-0.072,0.97-0.156,1.563-0.25,1.778l-0.289,0.5l0.025,0.06
				c-0.142,0.041-0.327,0.163-0.548,0.37l-0.25,0.096l-0.025-0.061l-0.275,0.025l-0.262-0.119l-0.467-0.693
				c0.056-0.12-0.023-0.437-0.237-0.956l0.059-0.011c0.065-0.167,0.043-0.354-0.059-0.562l0.3-1.074l0.119-0.155
				c-0.248-0.525-0.307-0.958-0.181-1.3l-0.047-0.121l0.036-0.083c0.049-0.102,0.216-0.239,0.501-0.406l0.023,0.072l0.048,0.013
				L88.903,41.412z M89.225,43.99l-0.119-0.059l-0.025-0.072l-0.046-0.012l-0.036,0.083l-0.047-0.024
				c-0.345,1.25-0.223,2.01,0.356,2.28l0.192-0.073l0.025,0.06l0.048,0.023l0.009-0.035l0.061-0.239l0.131-0.047l0.036-0.083
				c0.109-0.239,0.172-0.74,0.178-1.503l0.038-0.084c-0.088-0.039-0.117-0.092-0.084-0.155L89.225,43.99z M88.842,42.225
				l0.013,0.321l0.12,0.06l0.178-0.023l0.084,0.035c0.056,0.032,0.088,0.224,0.095,0.573l0.227,0.108l0.122-0.048
				c0.133-0.278-0.029-0.601-0.492-0.966l0.036-0.084l-0.129-0.071L88.842,42.225z"/>
			<path fill="#FFFFFF" d="M101.457,38.656h0.142l0.098,0.095V38.8l-0.717,0.525c-0.382,0.397-0.731,1.08-1.051,2.052
				c-0.095,0-0.205,0.38-0.334,1.145c-0.07,0-0.135,0.255-0.19,0.764c-0.095,0-0.19,0.334-0.286,1.002l-0.048,0.143h-0.048
				l0.048,0.047v0.049c-0.064,0.27-0.144,0.461-0.239,0.572l0.046,0.238l-0.046,0.144l0.046,0.239v0.144
				c0,0.19-0.093,0.381-0.286,0.572c0,0.19-0.044,0.287-0.142,0.287h-0.288c-0.079,0-0.174-0.287-0.286-0.858h0.049
				c-0.304-1.831-0.654-3.199-1.051-4.106l-0.049-0.047h-0.095c-0.325,0.328-0.724,1.662-1.192,4.01
				c-0.153,0.311-0.359,0.566-0.62,0.764H94.87c-0.287,0-0.508-0.302-0.668-0.907c-0.638-1.399-0.986-2.275-1.053-2.624
				c-0.125-0.494-0.459-1.083-1-1.768c-0.192-0.103-0.287-0.277-0.287-0.523v-0.096c0-0.095,0.146-0.174,0.429-0.239
				c0.334,0,0.763,0.573,1.292,1.719c0.109,0.453,0.237,0.771,0.381,0.954c0.413,1.29,0.699,2.038,0.858,2.244v0.048h0.144
				c0.351-0.995,0.636-2.045,0.859-3.15c0.343-0.891,0.596-1.336,0.765-1.336h0.046l0.047,0.048l0.336-0.095
				c0.341,0.213,0.58,0.676,0.715,1.384c0.16,0.35,0.35,1.082,0.573,2.195l0.093,0.096c0.097-0.024,0.147-0.151,0.147-0.382h0.044
				l-0.044-0.047v-0.049l0.427-1.24l-0.048-0.048c0.064,0,0.207-0.429,0.429-1.288c0.074-0.008,0.169-0.216,0.289-0.621
				c0.149-0.438,0.341-0.755,0.573-0.955c0.005-0.224,0.341-0.573,1.001-1.051C101.219,38.696,101.299,38.665,101.457,38.656z"/>
			<path fill="#FFFFFF" d="M101.658,41.412l0.345,0.168c0.591,0.557,0.941,1.049,1.055,1.479l0.188,0.25l0.92-0.048l0.165-0.024
				l0.049,0.024c0.073,0.032,0.048,0.231-0.072,0.597l-1.036,0.203c-0.072,0.97-0.156,1.563-0.252,1.778l-0.287,0.5l0.025,0.06
				c-0.144,0.041-0.327,0.163-0.548,0.37l-0.252,0.096l-0.023-0.061l-0.276,0.025l-0.261-0.119l-0.465-0.693
				c0.054-0.12-0.027-0.437-0.239-0.956l0.058-0.011c0.065-0.167,0.045-0.354-0.058-0.562l0.296-1.074l0.121-0.155
				c-0.246-0.525-0.305-0.958-0.178-1.3l-0.049-0.121l0.034-0.083c0.05-0.102,0.216-0.239,0.503-0.406l0.023,0.072l0.047,0.013
				L101.658,41.412z M101.981,43.99l-0.118-0.059l-0.025-0.072l-0.047-0.012l-0.035,0.083l-0.047-0.024
				c-0.344,1.25-0.223,2.01,0.357,2.28l0.19-0.073l0.023,0.06l0.05,0.023l0.009-0.035l0.06-0.239l0.133-0.047l0.036-0.083
				c0.111-0.239,0.171-0.74,0.176-1.503l0.04-0.084c-0.09-0.039-0.119-0.092-0.087-0.155L101.981,43.99z M101.599,42.225
				l0.013,0.321l0.121,0.06l0.178-0.023l0.084,0.035c0.054,0.032,0.088,0.224,0.096,0.573l0.226,0.108l0.121-0.048
				c0.135-0.278-0.027-0.601-0.489-0.966l0.034-0.084l-0.131-0.071L101.599,42.225z"/>
			<path fill="#FFFFFF" d="M104.809,39.753c0.447,0.041,0.669,0.231,0.669,0.573l0.05,0.047l-0.05,0.049v0.047
				c0.215,0.74,0.375,1.599,0.478,2.577l0.048,0.048v0.048l-0.095,0.095l0.047,0.286h0.097c0.158-0.191,0.396-0.7,0.715-1.527
				c0.128-0.318,0.413-0.685,0.859-1.098c0.199-0.293,0.691-0.565,1.481-0.812c0.49,0,0.843,0.095,1.047,0.287v0.049
				c0,0.238-0.236,0.381-0.715,0.429l-0.524-0.048c0,0.071-0.159,0.136-0.478,0.19c0,0.127-0.109,0.19-0.334,0.19
				c0,0.104-0.158,0.279-0.478,0.525c0,0.096-0.049,0.145-0.143,0.145c0,0.11-0.144,0.365-0.431,0.763
				c0,0.16-0.079,0.302-0.237,0.429v0.048l0.047,0.382l-0.336,0.62l0.05,0.048v0.048c-0.223,0.495-0.334,1.098-0.334,1.813
				c-0.056,0-0.137,0.176-0.239,0.526c-0.08,0-0.191,0.064-0.335,0.19h-0.047c-0.056,0-0.151-0.111-0.284-0.334v-0.144l0.141-0.19
				v-1.241l-0.381-3.151c-0.058,0-0.119-0.285-0.192-0.858c-0.188-0.056-0.284-0.31-0.284-0.763
				C104.746,40.041,104.809,39.945,104.809,39.753z"/>
			<path fill="#FFFFFF" d="M111.397,30.112c0.32,0,0.477,0.191,0.477,0.572v0.335c-0.094,0.189-0.316,1.193-0.669,3.007v0.621
				l-0.236,0.381c0.054,0.319,0.102,0.477,0.142,0.477l-0.047,0.334l0.047,0.43c-0.03,0.47-0.097,0.804-0.188,1.002l0.047,0.048
				v0.048l-0.098,0.476l0.051,0.145l-0.051,0.046h-0.048l0.048,0.191v0.095h-0.048c0.064,0.414,0.099,0.955,0.099,1.623
				l-0.051,0.191l0.098,0.38l-0.047,0.431l0.092,0.094v0.239h0.05l0.668-0.573c0.627-0.541,1.249-1.001,1.861-1.383
				c0-0.096,0.159-0.24,0.478-0.43c0-0.056,0.111-0.088,0.334-0.095h0.096l0.19,0.142c0,0.279-0.177,0.535-0.523,0.765
				c-1.131,0.803-1.846,1.36-2.147,1.671l-0.432,0.524v0.095c0.366,0.358,0.954,0.629,1.766,0.812c0.32,0,0.541,0.065,0.667,0.19
				l0.05-0.046c0.349,0.031,0.555,0.079,0.62,0.143l0.144-0.048v0.048l0.048-0.048c0.571,0.041,0.859,0.088,0.859,0.144l0.24-0.047
				h0.142l0.239,0.047l0.524-0.095l0.237,0.095l0.479-0.095c0.156,0.023,0.237,0.071,0.237,0.143v0.048
				c0,0.127-0.207,0.223-0.62,0.286v0.048l-0.192-0.048c-0.571,0.191-1.097,0.287-1.575,0.287c-1.503,0-2.967-0.382-4.39-1.146
				l-0.05-0.143c-0.079,0-0.126,0.064-0.143,0.189l-0.048,1.099l0.048,0.047v0.047l-0.048,0.143l0.048,0.335l-0.048,0.047
				c0.09,0,0.168,0.461,0.24,1.385c-0.023,0.349-0.137,0.524-0.334,0.524c0,0.223-0.049,0.334-0.144,0.334
				c-0.257-0.096-0.381-0.287-0.381-0.573v-0.382l0.045-0.239l-0.045-0.191l0.045-1.574v-0.096l0.048-0.047l-0.048-0.048V43.19
				l-0.045-0.144l0.045-0.238v-0.812l0.048-0.048l-0.048-0.047l0.048-0.239v-0.906l0.049-0.191l-0.097-0.333l0.048-0.049v-0.046
				l-0.048-0.288h0.048l-0.048-0.047V38.56l0.048-0.191l-0.144-0.38v-0.096l0.192-0.669l-0.049-0.381
				c0.067,0,0.146-0.477,0.241-1.433l-0.049-0.19c0.381-3.405,0.652-5.107,0.812-5.107H111.397z"/>
			<path fill="#FFFFFF" d="M117.961,41.281c0.126,0.214,0.19,0.39,0.19,0.525l-0.047,1.622l0.047,0.144l-0.047,0.048l0.096,0.907
				l-0.049,0.046v0.048c0.128,0.256,0.206,0.748,0.237,1.481l0.048,0.19c-0.048,0.286-0.191,0.429-0.431,0.429
				c-0.062-0.008-0.188-0.167-0.379-0.478v-0.286c0-0.223-0.032-0.334-0.097-0.334l0.048-0.239v-0.048L117.53,45.1h0.048
				c0-0.127-0.079-0.366-0.238-0.715l-0.049-0.668l0.049-1.145l-0.049-0.813C117.291,41.631,117.512,41.472,117.961,41.281z
				 M118.055,38.035h0.05c0.413,0,0.62,0.223,0.62,0.669c0,0.126-0.144,0.302-0.43,0.524h-0.144
				c-0.158-0.302-0.271-0.636-0.334-1.002L118.055,38.035z"/>
			<path fill="#FFFFFF" d="M119.082,41.281h0.19c0.326,0.04,0.533,0.931,0.621,2.672v0.239l0.097,0.096
				c0.156,0,0.381-0.462,0.667-1.384c0.048,0,0.27-0.366,0.668-1.098c0.104,0,0.216-0.127,0.334-0.383l0.432-0.094
				c0.379,0.35,0.572,0.636,0.572,0.858c0.119,0,0.23,0.51,0.333,1.528l0.046,0.048l-0.046,0.19l0.285,1.146
				c0.128,0,0.271,0.208,0.43,0.621c0.185,0.072,0.328,0.168,0.431,0.286l0.19,0.049l0.907-0.287v0.047l0.144,0.43
				c0,0.041-0.225,0.136-0.668,0.287l-0.144,0.094l-0.049-0.047h-0.049l-0.237,0.047c-0.547-0.166-0.916-0.437-1.095-0.811
				c-0.312-0.341-0.55-1.105-0.719-2.291c0-0.579-0.144-1.058-0.43-1.432c-0.285,0.064-0.429,0.175-0.429,0.335
				c-0.104,0.071-0.184,0.214-0.239,0.429c-0.117,0-0.295,0.445-0.524,1.336c-0.072,0-0.135,0.175-0.19,0.526
				c-0.129,0.079-0.192,0.285-0.192,0.619c-0.081,0-0.16,0.048-0.239,0.144l0.049,0.048v0.047c0,0.422-0.174,0.724-0.526,0.907
				c-0.023,0.16-0.069,0.239-0.142,0.239h-0.047c-0.192-0.079-0.289-0.208-0.289-0.382l0.097-0.286v-0.095l-0.048-0.288
				c0.064-0.126,0.097-0.302,0.097-0.523l-0.097-0.096v-0.095l0.097-0.144v-1.098c-0.158-0.246-0.24-0.55-0.24-0.907l-0.284-1.051
				V41.71C118.905,41.424,118.984,41.281,119.082,41.281z"/>
			<path fill="#FFFFFF" d="M128.747,40.183c0.287,0.121,0.43,0.312,0.43,0.574c-0.04,0.342-0.248,0.723-0.62,1.145l-0.049,0.047
				v0.096h0.049l0.047-0.048l0.238,0.048c0.16,0,0.241-0.032,0.241-0.096c0.61,0,1.056,0.096,1.336,0.287
				c0.502-0.031,0.771-0.079,0.811-0.144h0.192l0.047,0.048c0.101-0.095,0.357-0.159,0.761-0.191c0,0.064,0.051,0.096,0.145,0.096
				l0.048,0.047v0.048c0,0.088-0.332,0.183-1,0.287c0,0.047-0.065,0.095-0.192,0.144l-0.047,0.047v0.143h0.096v0.239
				c0.381,0.742,0.572,1.266,0.572,1.575h-0.048l0.142,0.668l-0.047,0.239v0.622l0.047,0.19c-0.056,0.318-0.103,0.477-0.142,0.477
				l0.048,0.047v0.048c0,0.469-0.146,1.122-0.429,1.956c-0.273,0.804-0.86,1.838-1.768,3.104c-0.334,0.404-0.794,0.818-1.383,1.24
				c0,0.11-0.225,0.238-0.669,0.382l-0.623,0.191c0,0.062-0.079,0.095-0.237,0.095v0.047c-0.542,0-0.923-0.16-1.146-0.478
				c-0.286-0.134-0.555-0.708-0.811-1.717l0.047-0.287v-0.144l-0.094-0.144l0.094-0.381v-0.095l-0.047-0.191
				c0-0.564,0.367-1.758,1.098-3.579c0.056-0.397,0.374-1.002,0.954-1.814c0.041-0.191,0.39-0.589,1.051-1.193l0.383-0.287
				l1.002-0.667c0.023-0.105,0.165-0.168,0.429-0.191v-0.048l-0.238-0.094h-0.478c-0.516,0.158-1.027,0.428-1.527,0.811
				c-0.486,0.326-0.884,0.533-1.194,0.621h-0.144c-0.318,0-0.476-0.175-0.476-0.525l0.095-0.19l-0.049-0.048
				c0-0.676,0.385-1.471,1.146-2.386C127.452,40.405,128.088,40.183,128.747,40.183z M129.702,43.238l-0.048-0.048
				c-0.589,0.573-1.035,0.859-1.337,0.859c0,0.167-0.285,0.453-0.858,0.859l-0.763,1.194c-0.246,0.341-0.646,1.407-1.195,3.197
				c-0.157,0.827-0.238,1.479-0.238,1.957l0.095,0.43l-0.047,0.046v0.048c0.278,0.956,0.723,1.432,1.337,1.432l0.526-0.143
				l0.142,0.049c0.239-0.16,0.428-0.239,0.573-0.239c0-0.057,0.206-0.231,0.619-0.524c0.859-0.748,1.448-1.482,1.768-2.197
				c0.764-1.248,1.146-2.633,1.146-4.153v-0.046c0-1.457-0.336-2.458-1.003-3.007h-0.095
				C130.014,43.143,129.805,43.238,129.702,43.238z M126.504,42.905c0.192-0.057,0.572-0.294,1.146-0.717
				c0.636-0.532,0.954-0.946,0.954-1.24l-0.142-0.096c-0.47,0.063-0.949,0.333-1.434,0.811l-0.477,0.908L126.504,42.905z"/>
			<path fill="#FFFFFF" d="M138.808,39.42h0.524c0.316,0.118,0.478,0.326,0.478,0.621v0.572c-0.225,0.82-0.51,1.52-0.858,2.101
				c-0.225,0.438-0.765,1.169-1.624,2.195v0.048c0,0.47,0.383,0.819,1.146,1.049h0.237c0.35,0,0.747-0.223,1.194-0.668
				c0.311-0.341,0.596-0.787,0.858-1.335h0.097v0.667c0,0.184-0.159,0.487-0.478,0.907c0,0.104-0.207,0.327-0.623,0.668
				c-0.396,0.318-0.778,0.478-1.145,0.478c-0.652,0-1.16-0.254-1.526-0.763c-0.143-0.049-0.255-0.191-0.334-0.43h-0.096
				c-0.438,0.318-0.708,0.477-0.812,0.477c-0.087,0-0.198-0.11-0.334-0.334v-0.19c0-0.055,0.27-0.246,0.812-0.573
				c0.158-0.143,0.237-0.35,0.237-0.62l-0.049-0.287l0.049-0.049v-0.047l-0.049-0.286l0.289-1.146
				c0.254-0.835,0.588-1.52,1.003-2.051C137.859,40.12,138.193,39.786,138.808,39.42z M137.184,43.333l0.049,0.048v0.046
				l-0.049,0.431v0.047l0.096,0.096l0.955-1.146c0.588-1.026,0.956-1.79,1.098-2.291v-0.049c0-0.206-0.081-0.363-0.239-0.476
				c-0.429,0.183-0.826,0.596-1.192,1.24l-0.383,0.716L137.184,43.333z"/>
			<path fill="#FFFFFF" d="M141.121,41.281h0.19c0.329,0.04,0.533,0.931,0.621,2.672v0.239l0.096,0.096
				c0.16,0,0.383-0.462,0.668-1.384c0.049,0,0.271-0.366,0.67-1.098c0.103,0,0.212-0.127,0.332-0.383l0.43-0.094
				c0.383,0.35,0.575,0.636,0.575,0.858c0.118,0,0.228,0.51,0.332,1.528l0.048,0.048l-0.048,0.19l0.289,1.146
				c0.126,0,0.268,0.208,0.428,0.621c0.183,0.072,0.326,0.168,0.431,0.286l0.19,0.049l0.907-0.287v0.047l0.144,0.43
				c0,0.041-0.225,0.136-0.67,0.287l-0.144,0.094l-0.047-0.047h-0.049l-0.238,0.047c-0.548-0.166-0.916-0.437-1.1-0.811
				c-0.309-0.341-0.546-1.105-0.715-2.291c0-0.579-0.144-1.058-0.428-1.432c-0.287,0.064-0.431,0.175-0.431,0.335
				c-0.103,0.071-0.182,0.214-0.237,0.429c-0.12,0-0.295,0.445-0.526,1.336c-0.073,0-0.137,0.175-0.188,0.526
				c-0.129,0.079-0.194,0.285-0.194,0.619c-0.079,0-0.157,0.048-0.236,0.144l0.046,0.048v0.047c0,0.422-0.176,0.724-0.524,0.907
				c-0.023,0.16-0.071,0.239-0.144,0.239h-0.05c-0.188-0.079-0.284-0.208-0.284-0.382l0.096-0.286v-0.095l-0.049-0.288
				c0.064-0.126,0.095-0.302,0.095-0.523l-0.095-0.096v-0.095l0.095-0.144v-1.098c-0.157-0.246-0.236-0.55-0.236-0.907l-0.288-1.051
				V41.71C140.945,41.424,141.027,41.281,141.121,41.281z"/>
			<path fill="#FFFFFF" d="M156.551,34.647l0.287,0.047l0.571-0.047l0.097,0.333c-0.039,0.224-0.104,0.335-0.19,0.335h-0.334
				c-0.464,0-1.115,0.223-1.958,0.668c-0.206,0.103-0.431,0.278-0.67,0.524c-0.142,0.096-0.379,0.382-0.715,0.86
				c-0.182,0.166-0.357,0.437-0.524,0.81c-0.118,0-0.278,0.24-0.478,0.717l-0.573,1.337c-0.047,0-0.16,0.35-0.334,1.049
				c-0.096,0.111-0.19,0.477-0.286,1.098h-0.048l0.048,0.048v0.047l-0.048,0.19l0.048,0.048v0.047l-0.048,0.192l0.048,0.143
				l-0.097,0.287c0.13,0.883,0.32,1.487,0.575,1.813c0,0.175,0.315,0.367,0.953,0.573l0.047-0.048l0.479,0.048h0.19
				c0.683-0.23,1.241-0.501,1.669-0.811c0.327-0.23,0.6-0.358,0.812-0.383c0-0.16,0.16-0.302,0.479-0.429
				c0.104-0.159,0.309-0.333,0.619-0.524c0-0.088,0.209-0.248,0.62-0.478c0-0.144,0.161-0.27,0.479-0.383
				c0.803-0.85,1.39-1.327,1.768-1.431c0-0.064,0.045-0.096,0.14-0.096c0.113-0.254,0.192-0.381,0.241-0.381l0.19,0.143v0.145
				c0,0.35-0.111,0.587-0.333,0.716c-0.272,0.27-0.606,0.508-1.004,0.716c-0.199,0.229-0.406,0.405-0.619,0.524
				c0,0.095-0.335,0.429-1.005,1.001c-1.979,1.671-3.348,2.547-4.104,2.626l-0.241-0.047h-0.858
				c-0.706-0.341-1.089-0.598-1.145-0.765c-0.438-0.421-0.659-0.866-0.668-1.336c-0.056,0-0.118-0.239-0.19-0.715l0.096-0.191
				l-0.049-0.047v-0.048l0.049-0.144l-0.049-0.19l0.192-1.002l-0.049-0.048v-0.047c0.437-1.624,0.755-2.578,0.954-2.864
				c0.09-0.318,0.294-0.747,0.621-1.288c0.334-0.629,0.749-1.187,1.243-1.671c0.409-0.445,0.873-0.859,1.383-1.241L156.551,34.647z"
				/>
			<path fill="#FFFFFF" d="M160.87,41.412l0.347,0.168c0.588,0.557,0.938,1.049,1.051,1.479l0.19,0.25l0.918-0.048l0.167-0.024
				l0.049,0.024c0.071,0.032,0.046,0.231-0.072,0.597l-1.04,0.203c-0.07,0.97-0.154,1.563-0.25,1.778l-0.285,0.5l0.025,0.06
				c-0.144,0.041-0.329,0.163-0.552,0.37l-0.248,0.096l-0.024-0.061l-0.275,0.025l-0.262-0.119l-0.468-0.693
				c0.058-0.12-0.023-0.437-0.236-0.956l0.059-0.011c0.064-0.167,0.043-0.354-0.059-0.562l0.298-1.074l0.118-0.155
				c-0.246-0.525-0.304-0.958-0.18-1.3l-0.045-0.121l0.034-0.083c0.047-0.102,0.218-0.239,0.503-0.406l0.021,0.072l0.049,0.013
				L160.87,41.412z M161.191,43.99l-0.118-0.059l-0.025-0.072l-0.045-0.012l-0.037,0.083l-0.049-0.024
				c-0.342,1.25-0.221,2.01,0.359,2.28l0.192-0.073l0.023,0.06l0.044,0.023l0.015-0.035l0.06-0.239l0.131-0.047l0.036-0.083
				c0.111-0.239,0.171-0.74,0.18-1.503l0.036-0.084c-0.088-0.039-0.117-0.092-0.087-0.155L161.191,43.99z M160.811,42.225
				l0.011,0.321l0.121,0.06l0.18-0.023l0.082,0.035c0.056,0.032,0.087,0.224,0.096,0.573l0.228,0.108l0.119-0.048
				c0.135-0.278-0.029-0.601-0.49-0.966l0.035-0.084l-0.129-0.071L160.811,42.225z"/>
			<path fill="#FFFFFF" d="M164.021,39.753c0.445,0.041,0.668,0.231,0.668,0.573l0.049,0.047l-0.049,0.049v0.047
				c0.216,0.74,0.372,1.599,0.477,2.577l0.049,0.048v0.048l-0.096,0.095l0.047,0.286h0.097c0.16-0.191,0.397-0.7,0.717-1.527
				c0.126-0.318,0.413-0.685,0.858-1.098c0.198-0.293,0.691-0.565,1.48-0.812c0.494,0,0.843,0.095,1.049,0.287v0.049
				c0,0.238-0.237,0.381-0.717,0.429l-0.524-0.048c0,0.071-0.16,0.136-0.476,0.19c0,0.127-0.111,0.19-0.336,0.19
				c0,0.104-0.158,0.279-0.477,0.525c0,0.096-0.048,0.145-0.144,0.145c0,0.11-0.142,0.365-0.429,0.763
				c0,0.16-0.081,0.302-0.239,0.429v0.048l0.049,0.382l-0.335,0.62l0.047,0.048v0.048c-0.223,0.495-0.334,1.098-0.334,1.813
				c-0.056,0-0.135,0.176-0.238,0.526c-0.079,0-0.19,0.064-0.333,0.19h-0.047c-0.057,0-0.152-0.111-0.289-0.334v-0.144l0.144-0.19
				v-1.241l-0.382-3.151c-0.054,0-0.119-0.285-0.19-0.858c-0.19-0.056-0.286-0.31-0.286-0.763
				C163.958,40.041,164.021,39.945,164.021,39.753z"/>
			<path fill="#FFFFFF" d="M177.433,32.737c0.351,0.231,0.573,0.534,0.67,0.906v0.621l0.045,0.43l-0.045,0.048v0.046l0.045,0.05
				l-0.045,0.333v0.478c-0.127,0.375-0.191,0.66-0.191,0.859h-0.047l0.047,0.238v0.24c-0.089,0.104-0.169,0.422-0.239,0.954
				c-0.176,0.558-0.304,0.86-0.383,0.908l0.049,0.048v0.143h-0.142v0.144c0,0.111-0.083,0.271-0.241,0.477
				c-0.197,0.524-0.452,0.986-0.764,1.384c0,0.089-0.079,0.2-0.238,0.335c0,0.135-0.111,0.326-0.334,0.572
				c-0.094,0.342-0.144,0.756-0.144,1.241c0.136,0.748,0.311,1.289,0.525,1.623l0.525,0.955c0.484,0.668,0.758,1.002,0.812,1.002
				c0.126,0,0.192,0.096,0.192,0.286c0.158,0,0.396,0.127,0.715,0.383c0.248,0.094,0.612,0.173,1.098,0.238v0.048
				c0,0.072-0.128,0.135-0.383,0.19c-0.857-0.119-1.288-0.246-1.288-0.382c-0.135,0-0.503-0.254-1.098-0.763l-0.383-0.43
				c-0.414-0.54-0.73-1.209-0.953-2.005c-0.128-0.276-0.19-0.501-0.19-0.668c-0.058,0-0.09-0.239-0.098-0.715l-0.046-0.048h-0.145
				c0,0.142-0.19,0.382-0.572,0.716c-0.803,1.009-1.376,1.598-1.719,1.766c-0.74,0.668-1.425,1.002-2.052,1.002
				c-0.7-0.207-1.051-0.493-1.051-0.859c0-0.438,0.524-1.28,1.575-2.53c1.209-1.186,1.926-1.789,2.148-1.814
				c0.438-0.286,0.995-0.492,1.67-0.62l0.049-0.956v-0.333l0.096-0.143V38.8l0.144-0.86l-0.098-0.095v-0.143
				c0.128-0.136,0.19-0.261,0.19-0.381v-0.622c0.074-0.071,0.122-0.31,0.145-0.715l0.574-1.671c0-0.189,0.079-0.397,0.237-0.62
				c0-0.111,0.064-0.238,0.19-0.382c0-0.167,0.194-0.357,0.573-0.573H177.433z M174.378,41.33c0,0.079-0.128,0.143-0.383,0.189
				h-0.19c0,0.089-0.049,0.168-0.144,0.239l-0.142-0.047l-0.859,0.574v-0.048c-0.319,0.199-0.478,0.391-0.478,0.573
				c-0.07,0-0.262,0.159-0.573,0.478l-0.715,0.716c-0.201,0.382-0.326,0.572-0.384,0.572c-0.055,0.224-0.149,0.334-0.284,0.334
				l-0.047,0.429c0,0.144,0.158,0.239,0.475,0.287v0.047l0.287-0.19l0.047,0.048h0.05c0.182-0.127,0.357-0.207,0.525-0.238
				c0.524-0.279,1.16-0.804,1.909-1.575l0.905-0.956c0-0.119,0.097-0.245,0.287-0.381c0.095-0.214,0.16-0.485,0.188-0.811
				c-0.028-0.16-0.094-0.239-0.188-0.239l-0.049,0.048h-0.047L174.378,41.33z M177.002,33.501v0.096
				c-0.182,0.103-0.342,0.31-0.476,0.621c-0.07,0-0.151,0.174-0.239,0.524c-0.182,0-0.357,0.605-0.524,1.814
				c-0.096,0-0.223,0.764-0.381,2.291c-0.064,0-0.097,0.08-0.097,0.238l0.097,1.289l-0.049,0.383
				c0.12,0.095,0.231,0.143,0.334,0.143c0.604-0.756,1.065-1.599,1.384-2.531c0.146-0.054,0.271-0.388,0.382-1l0.098-0.24
				l-0.049-0.047l0.096-0.812v-0.191c0.064-0.048,0.111-0.302,0.144-0.764l-0.049-1.145c-0.12-0.423-0.229-0.645-0.334-0.669
				H177.002z"/>
			<path fill="#FFFFFF" d="M179.904,41.412l0.345,0.168c0.59,0.557,0.938,1.049,1.05,1.479l0.191,0.25l0.918-0.048l0.167-0.024
				l0.047,0.024c0.074,0.032,0.051,0.231-0.07,0.597l-1.036,0.203c-0.073,0.97-0.156,1.563-0.251,1.778l-0.286,0.5L181,46.4
				c-0.142,0.041-0.327,0.163-0.55,0.37l-0.249,0.096l-0.023-0.061l-0.273,0.025l-0.262-0.119l-0.468-0.693
				c0.058-0.12-0.022-0.437-0.238-0.956l0.061-0.011c0.063-0.167,0.042-0.354-0.061-0.562l0.298-1.074l0.12-0.155
				c-0.249-0.525-0.305-0.958-0.18-1.3l-0.046-0.121l0.034-0.083c0.048-0.102,0.213-0.239,0.503-0.406l0.021,0.072l0.048,0.013
				L179.904,41.412z M180.225,43.99l-0.119-0.059l-0.023-0.072l-0.046-0.012l-0.038,0.083l-0.047-0.024
				c-0.343,1.25-0.223,2.01,0.357,2.28l0.192-0.073l0.021,0.06l0.05,0.023l0.011-0.035l0.06-0.239l0.133-0.047l0.034-0.083
				c0.111-0.239,0.173-0.74,0.18-1.503l0.034-0.084c-0.084-0.039-0.115-0.092-0.081-0.155L180.225,43.99z M179.844,42.225
				l0.011,0.321l0.122,0.06l0.178-0.023l0.084,0.035c0.056,0.032,0.087,0.224,0.094,0.573l0.227,0.108l0.12-0.048
				c0.135-0.278-0.028-0.601-0.488-0.966l0.034-0.084l-0.13-0.071L179.844,42.225z"/>
			<path fill="#FFFFFF" d="M184.104,34.073c0.262,0.161,0.42,0.368,0.478,0.622v0.048c-0.072,0.381-0.137,0.573-0.19,0.573
				l-0.051-0.047h-0.047c-0.269,0.413-0.427,0.907-0.476,1.478c-0.081,0-0.146,0.336-0.192,1.004l-0.048,0.047l0.095,0.287
				l-0.142,0.857l0.047,0.049v0.047l-0.047,0.144l0.047,0.429l-0.096,0.764l0.049,0.143l-0.096,0.096l0.047,0.144l-0.047,0.524
				l0.096,0.381h-0.049l0.049,0.048v0.047l-0.049,0.573l0.049,0.048v0.048l-0.096,0.572l0.096,0.622l-0.096,0.858l0.096,1.385
				l-0.049,0.046l0.049,0.478v0.382c0,1.368,0.206,2.561,0.621,3.58c0.198,0.287,0.325,0.429,0.381,0.429h0.096
				c0.15-0.088,0.309-0.375,0.478-0.858c0.144-0.224,0.238-0.525,0.285-0.906c0.111,0,0.207-0.478,0.286-1.433l-0.047-0.048v-0.048
				l0.095-0.143l-0.048-0.334v-0.095l0.048-0.43c-0.062-1.105-0.176-1.854-0.334-2.244c0-0.278-0.238-0.516-0.715-0.716
				l-0.524-0.525l-0.048-0.19c0.088-0.286,0.246-0.429,0.478-0.429l0.907,0.62l0.571,0.096l1.528-0.239v0.048l0.285-0.145
				l0.19,0.048c0-0.08,0.063-0.127,0.192-0.144c0.19,0.033,0.284,0.08,0.284,0.144v0.096c-0.068,0.198-0.5,0.389-1.286,0.572
				c-0.399,0.19-0.764,0.303-1.1,0.335l-0.142-0.048l-0.146,0.19v0.382c0.159,0,0.24,0.384,0.24,1.146l0.096,0.383l-0.049,0.142
				l0.096,0.478l-0.096,0.191l0.049,0.047v0.048c-0.032,0.644-0.079,1.01-0.144,1.098l0.048,0.047
				c-0.062,0.478-0.127,0.716-0.19,0.716l0.049,0.048v0.047c-0.353,1.845-0.813,2.77-1.385,2.77h-0.241
				c-0.212,0-0.467-0.255-0.763-0.764c-0.254-0.748-0.415-1.448-0.479-2.1l-0.095-1.098l0.049-0.143l-0.096-0.239l0.047-0.191
				l-0.047-0.19l0.047-0.048v-0.047l-0.094-0.287l0.094-0.573l-0.047-0.047l0.047-0.143l-0.094-0.859l0.047-0.287l-0.047-0.286
				l0.047-0.381v-0.096h-0.097v-0.048l0.097-0.143l-0.047-0.907c0.021-2.419,0.07-3.627,0.143-3.627l-0.096-0.286
				c0.064-0.111,0.128-0.462,0.19-1.051l-0.095-0.095l0.285-1.289l-0.045-0.048v-0.047c0.149-1.401,0.372-2.102,0.666-2.102H184.104
				z"/>
			<path fill="#FFFFFF" d="M191.671,40.948c0.142,0.056,0.253,0.151,0.334,0.286v0.096c0,0.159-0.032,0.239-0.096,0.239l0.047,0.048
				v0.046c-0.126,0.597-0.223,1.44-0.285,2.53c0.095,1.209,0.27,1.813,0.524,1.813h0.19l0.097-0.095l0.047,0.049h0.095
				c0-0.12,0.288-0.39,0.858-0.811c0-0.137,0.256-0.455,0.766-0.956c0.049-0.318,0.111-0.477,0.19-0.477h0.095v0.096
				c0,0.262-0.127,0.58-0.38,0.954c-0.671,1.018-1.211,1.639-1.624,1.861l-0.43,0.096c-0.589,0-0.971-0.637-1.146-1.909
				l-0.049-0.717c-0.237,0.215-0.443,0.566-0.618,1.052c-0.136,0-0.296,0.254-0.481,0.762c-0.42,0.51-0.784,0.765-1.095,0.765
				h-0.145c-0.285-0.143-0.429-0.398-0.429-0.765l0.048-0.046l-0.048-0.335v-0.191c0-1.241,0.479-2.354,1.432-3.341
				c0.422-0.19,0.709-0.381,0.86-0.573l0.047,0.048h0.048C191.009,41.122,191.393,40.948,191.671,40.948z M188.854,44.719
				l0.093,0.429l-0.045,0.046v0.048l0.094,0.334h0.097c0.151-0.071,0.246-0.198,0.286-0.382c0.182-0.134,0.405-0.421,0.668-0.859
				l-0.049-0.046V44.24c0.128,0,0.447-0.652,0.956-1.956l-0.049-0.192l0.049-0.047v-0.048l-0.049-0.048h-0.093
				c-0.224,0.096-0.622,0.414-1.195,0.956c-0.19,0.278-0.415,0.771-0.67,1.479C188.893,44.384,188.86,44.496,188.854,44.719z"/>
		</g>
	</g>
</g>
</svg>
