<?xml version="1.0" encoding="utf-8"?>
<!-- Generator: Adobe Illustrator 16.0.0, SVG Export Plug-In . SVG Version: 6.00 Build 0)  -->
<!DOCTYPE svg PUBLIC "-//W3C//DTD SVG 1.1//EN" "http://www.w3.org/Graphics/SVG/1.1/DTD/svg11.dtd">
<svg version="1.1" id="Capa_1" xmlns="http://www.w3.org/2000/svg" xmlns:xlink="http://www.w3.org/1999/xlink" x="0px" y="0px"
	 width="200px" height="54.123px" viewBox="0 0 200 54.123" enable-background="new 0 0 200 54.123" xml:space="preserve">
<g>
	<path fill="#FFFFFF" d="M49.111,13.367c-1.11-2.72-2.672-5.068-4.689-7.044c-2.017-1.975-4.446-3.522-7.286-4.644
		C34.293,0.561,31.142,0,27.679,0h-17.29H0l10.389,7.942v28.626L0,44.514h10.389h17.29c3.463,0,6.615-0.557,9.458-1.667
		c2.839-1.11,5.269-2.657,7.286-4.643s3.579-4.338,4.689-7.059c1.108-2.719,1.667-5.686,1.667-8.905
		C50.778,19.042,50.219,16.085,49.111,13.367z M39.35,28.229c-0.569,1.771-1.389,3.273-2.458,4.506
		c-1.071,1.234-2.38,2.179-3.925,2.841c-1.55,0.662-3.312,0.993-5.288,0.993h-6.902V7.942h6.902c1.976,0,3.738,0.333,5.288,0.994
		c1.545,0.662,2.854,1.608,3.925,2.84c1.069,1.232,1.889,2.734,2.458,4.507c0.569,1.771,0.856,3.757,0.856,5.956
		C40.206,24.46,39.919,26.458,39.35,28.229z"/>
	<path fill="#FFFFFF" d="M62.68,0c1.284,0,2.458,0.199,3.522,0.598c1.068,0.399,1.983,0.979,2.749,1.739
		c0.768,0.76,1.364,1.692,1.795,2.796c0.431,1.101,0.647,2.35,0.647,3.745c0,0.438-0.021,0.792-0.059,1.068
		c-0.037,0.274-0.106,0.492-0.207,0.653c-0.1,0.163-0.232,0.274-0.399,0.336c-0.168,0.063-0.385,0.094-0.646,0.094H58.904
		c0.188,1.621,0.679,2.793,1.478,3.524c0.796,0.729,1.825,1.093,3.084,1.093c0.672,0,1.252-0.082,1.738-0.243
		c0.486-0.163,0.92-0.342,1.3-0.542c0.381-0.199,0.729-0.38,1.048-0.542c0.317-0.161,0.651-0.243,0.997-0.243
		c0.463,0,0.811,0.167,1.046,0.503l1.683,2.075c-0.596,0.686-1.243,1.244-1.935,1.673c-0.692,0.431-1.401,0.766-2.13,1.01
		c-0.729,0.243-1.46,0.411-2.187,0.504c-0.729,0.094-1.424,0.14-2.085,0.14c-1.358,0-2.632-0.219-3.824-0.665
		c-1.188-0.44-2.229-1.098-3.118-1.969c-0.894-0.873-1.596-1.956-2.114-3.254c-0.516-1.295-0.777-2.803-0.777-4.523
		c0-1.295,0.222-2.523,0.663-3.682c0.443-1.158,1.078-2.174,1.908-3.046c0.827-0.873,1.831-1.563,3.01-2.075
		C59.865,0.255,61.197,0,62.68,0z M62.792,3.999c-1.108,0-1.976,0.316-2.598,0.944c-0.623,0.629-1.034,1.537-1.234,2.72h7.236
		c0-0.461-0.062-0.909-0.177-1.345c-0.119-0.437-0.314-0.826-0.58-1.169c-0.27-0.341-0.621-0.618-1.057-0.832
		C63.944,4.106,63.416,3.999,62.792,3.999z"/>
	<path fill="#FFFFFF" d="M84.699,19.684H79.43L71.914,0.299h4.822c0.411,0,0.755,0.098,1.037,0.289
		c0.28,0.193,0.47,0.434,0.569,0.721L81.035,10c0.211,0.709,0.417,1.403,0.608,2.074c0.193,0.674,0.358,1.347,0.495,2.018
		c0.137-0.671,0.305-1.344,0.507-2.018c0.197-0.671,0.41-1.365,0.633-2.074l2.806-8.692c0.1-0.287,0.288-0.527,0.561-0.721
		c0.273-0.191,0.596-0.289,0.97-0.289h4.599L84.699,19.684z"/>
	<path fill="#FFFFFF" d="M59.801,24.748v12.298c0,0.959,0.216,1.701,0.653,2.228c0.436,0.521,1.078,0.782,1.928,0.782
		c0.635,0,1.227-0.131,1.784-0.392c0.555-0.262,1.094-0.629,1.617-1.103V24.748h5.794v19.383h-3.588
		c-0.724,0-1.199-0.324-1.42-0.972l-0.356-1.121c-0.374,0.362-0.759,0.688-1.158,0.981c-0.399,0.292-0.826,0.541-1.28,0.749
		c-0.458,0.204-0.943,0.367-1.468,0.486c-0.523,0.119-1.096,0.175-1.719,0.175c-1.061,0-1.999-0.184-2.814-0.55
		c-0.817-0.367-1.504-0.879-2.066-1.541c-0.559-0.662-0.984-1.44-1.271-2.339c-0.288-0.894-0.429-1.88-0.429-2.953V24.748H59.801z"
		/>
	<path fill="#FFFFFF" d="M128.037,24.447c1.282,0,2.458,0.2,3.522,0.6c1.067,0.397,1.98,0.977,2.749,1.739
		c0.768,0.76,1.365,1.69,1.795,2.792c0.427,1.104,0.644,2.353,0.644,3.749c0,0.436-0.018,0.791-0.057,1.066
		c-0.038,0.275-0.106,0.493-0.206,0.652c-0.098,0.163-0.232,0.275-0.399,0.339c-0.168,0.06-0.383,0.092-0.646,0.092h-11.178
		c0.187,1.621,0.678,2.793,1.476,3.524c0.798,0.729,1.825,1.094,3.084,1.094c0.674,0,1.254-0.082,1.738-0.243
		c0.485-0.161,0.92-0.342,1.298-0.544c0.381-0.197,0.73-0.379,1.05-0.542c0.317-0.16,0.649-0.241,0.997-0.241
		c0.463,0,0.811,0.168,1.05,0.503l1.681,2.077c-0.6,0.685-1.243,1.243-1.935,1.672c-0.689,0.429-1.402,0.766-2.13,1.009
		c-0.73,0.243-1.458,0.413-2.188,0.505c-0.729,0.092-1.424,0.138-2.086,0.138c-1.356,0-2.63-0.22-3.819-0.661
		c-1.192-0.442-2.231-1.102-3.122-1.974c-0.892-0.871-1.596-1.954-2.113-3.252c-0.517-1.294-0.773-2.802-0.773-4.522
		c0-1.294,0.22-2.523,0.659-3.682c0.445-1.158,1.08-2.175,1.91-3.048c0.827-0.873,1.83-1.564,3.008-2.074
		C125.225,24.705,126.555,24.447,128.037,24.447z M128.149,28.448c-1.108,0-1.978,0.316-2.599,0.943
		c-0.622,0.63-1.035,1.538-1.234,2.721h7.232c0-0.459-0.057-0.91-0.176-1.346c-0.119-0.436-0.311-0.825-0.58-1.167
		c-0.268-0.343-0.618-0.621-1.055-0.833S128.773,28.448,128.149,28.448z"/>
	<path fill="#FFFFFF" d="M148.711,24.447c1.468,0,2.811,0.232,4.019,0.692c1.208,0.46,2.245,1.121,3.112,1.982
		c0.863,0.86,1.537,1.904,2.019,3.13c0.479,1.227,0.722,2.608,0.722,4.141c0,1.544-0.243,2.937-0.722,4.176
		c-0.481,1.242-1.155,2.293-2.019,3.16c-0.867,0.866-1.904,1.533-3.112,1.999c-1.208,0.47-2.551,0.7-4.019,0.7
		c-1.483,0-2.833-0.23-4.048-0.7c-1.214-0.466-2.263-1.133-3.139-1.999c-0.88-0.867-1.559-1.918-2.039-3.16
		c-0.48-1.24-0.719-2.632-0.719-4.176c0-1.533,0.238-2.914,0.719-4.141c0.48-1.227,1.159-2.27,2.039-3.13
		c0.876-0.861,1.925-1.521,3.139-1.982C145.878,24.68,147.228,24.447,148.711,24.447z M148.711,40.13
		c1.332,0,2.314-0.468,2.945-1.41c0.626-0.942,0.941-2.371,0.941-4.29s-0.315-3.345-0.941-4.281
		c-0.631-0.935-1.613-1.401-2.945-1.401c-1.371,0-2.375,0.466-3.012,1.401c-0.633,0.937-0.952,2.362-0.952,4.281
		s0.319,3.348,0.952,4.29C146.336,39.662,147.34,40.13,148.711,40.13z"/>
	<path fill="#FFFFFF" d="M106.515,24.447c1.469,0,2.809,0.232,4.017,0.692c1.21,0.46,2.247,1.121,3.112,1.982
		c0.867,0.86,1.54,1.904,2.019,3.13c0.479,1.227,0.72,2.608,0.72,4.141c0,1.544-0.241,2.937-0.72,4.176
		c-0.479,1.242-1.151,2.293-2.019,3.16c-0.865,0.866-1.902,1.533-3.112,1.999c-1.208,0.47-2.548,0.7-4.017,0.7
		c-1.484,0-2.834-0.23-4.047-0.7c-1.215-0.466-2.263-1.133-3.139-1.999c-0.88-0.867-1.561-1.918-2.04-3.16
		c-0.481-1.24-0.72-2.632-0.72-4.176c0-1.533,0.239-2.914,0.72-4.141c0.479-1.227,1.16-2.27,2.04-3.13
		c0.876-0.861,1.924-1.521,3.139-1.982C103.681,24.68,105.03,24.447,106.515,24.447z M106.515,40.13c1.33,0,2.314-0.468,2.942-1.41
		c0.629-0.942,0.945-2.371,0.945-4.29s-0.316-3.345-0.945-4.281c-0.628-0.935-1.612-1.401-2.942-1.401
		c-1.373,0-2.375,0.466-3.01,1.401c-0.637,0.937-0.954,2.362-0.954,4.281s0.317,3.348,0.954,4.29
		C104.14,39.662,105.142,40.13,106.515,40.13z"/>
	<g>
		<g>
			<polygon fill="#FFFFFF" points="74.479,3.623 73.209,3.623 70.455,0.307 74.479,0.307 			"/>
			<polygon fill="#FFFFFF" points="77.735,3.623 79.004,3.623 81.148,0.307 76.516,0.307 			"/>
		</g>
		<g>
			<polygon fill="#FFFFFF" points="89.631,3.623 90.897,3.623 93.653,0.307 89.631,0.307 			"/>
			<polygon fill="#FFFFFF" points="86.602,3.623 85.332,3.623 83.187,0.307 87.82,0.307 			"/>
		</g>
	</g>
	<g>
		<path fill="#FFFFFF" d="M76.064,44.131V24.748h3.588c0.36,0,0.663,0.081,0.906,0.243c0.245,0.163,0.415,0.404,0.514,0.728
			l0.337,1.122c0.375-0.348,0.761-0.673,1.158-0.972c0.399-0.299,0.825-0.55,1.282-0.756c0.454-0.206,0.947-0.368,1.477-0.486
			c0.529-0.12,1.105-0.179,1.728-0.179c1.059,0,1.997,0.186,2.813,0.552c0.817,0.368,1.505,0.878,2.066,1.533
			c0.562,0.654,0.984,1.432,1.27,2.336c0.288,0.904,0.431,1.885,0.431,2.944v12.318H87.84V31.812c0-0.947-0.22-1.685-0.656-2.213
			c-0.435-0.532-1.076-0.796-1.926-0.796c-0.635,0-1.231,0.138-1.793,0.412c-0.559,0.275-1.098,0.644-1.609,1.103v13.813H76.064z"/>
		<g>
			<g>
				<polygon fill="#FFFFFF" points="77.323,40.814 76.055,40.814 73.299,44.131 77.323,44.131 				"/>
				<polygon fill="#FFFFFF" points="80.581,40.814 81.849,40.814 83.995,44.131 79.361,44.131 				"/>
			</g>
			<g>
				<polygon fill="#FFFFFF" points="92.348,40.814 93.618,40.814 96.372,44.131 92.348,44.131 				"/>
				<polygon fill="#FFFFFF" points="89.117,40.814 87.851,40.814 85.703,44.131 90.337,44.131 				"/>
			</g>
		</g>
	</g>
	<g>
		<path fill="#FFFFFF" d="M161.343,44.131V24.748h3.59c0.36,0,0.663,0.081,0.906,0.243c0.243,0.163,0.413,0.404,0.513,0.728
			l0.337,1.122c0.374-0.348,0.761-0.673,1.159-0.972c0.397-0.299,0.825-0.55,1.279-0.756c0.456-0.206,0.947-0.368,1.478-0.486
			c0.53-0.12,1.106-0.179,1.73-0.179c1.059,0,1.997,0.186,2.812,0.552c0.816,0.368,1.504,0.878,2.064,1.533
			c0.562,0.654,0.984,1.432,1.271,2.336c0.287,0.904,0.43,1.885,0.43,2.944v12.318h-5.794V31.812c0-0.947-0.219-1.685-0.654-2.213
			c-0.435-0.532-1.079-0.796-1.925-0.796c-0.637,0-1.236,0.138-1.793,0.412c-0.562,0.275-1.098,0.644-1.61,1.103v13.813H161.343z"/>
		<g>
			<g>
				<polygon fill="#FFFFFF" points="162.603,40.814 161.336,40.814 158.582,44.131 162.603,44.131 				"/>
				<polygon fill="#FFFFFF" points="165.858,40.814 167.128,40.814 169.275,44.131 164.64,44.131 				"/>
			</g>
			<g>
				<polygon fill="#FFFFFF" points="177.627,40.814 178.896,40.814 181.651,44.131 177.627,44.131 				"/>
				<polygon fill="#FFFFFF" points="174.396,40.814 173.131,40.814 170.981,44.131 175.617,44.131 				"/>
			</g>
		</g>
	</g>
	<g>
		<path fill="#FFFFFF" d="M106.495,4.542c-0.149,0.237-0.309,0.404-0.479,0.504c-0.165,0.1-0.384,0.149-0.645,0.149
			c-0.272,0-0.55-0.059-0.822-0.176c-0.275-0.119-0.569-0.247-0.887-0.385c-0.319-0.136-0.678-0.265-1.075-0.382
			c-0.4-0.118-0.854-0.178-1.365-0.178c-0.736,0-1.298,0.142-1.692,0.422c-0.392,0.281-0.589,0.67-0.589,1.168
			c0,0.361,0.131,0.661,0.385,0.897c0.257,0.235,0.594,0.446,1.016,0.627c0.426,0.18,0.906,0.351,1.44,0.512
			c0.535,0.162,1.083,0.344,1.646,0.543c0.561,0.199,1.106,0.433,1.644,0.7c0.538,0.269,1.017,0.599,1.438,0.991
			c0.424,0.393,0.765,0.869,1.02,1.43c0.254,0.561,0.386,1.233,0.386,2.019c0,0.96-0.178,1.845-0.525,2.655
			c-0.348,0.81-0.869,1.507-1.561,2.093c-0.69,0.585-1.547,1.041-2.561,1.364c-1.017,0.323-2.186,0.485-3.505,0.485
			c-0.66,0-1.321-0.062-1.979-0.187c-0.664-0.124-1.302-0.292-1.917-0.503c-0.617-0.214-1.186-0.466-1.711-0.758
			c-0.523-0.292-0.972-0.607-1.346-0.944l1.346-2.13c0.164-0.249,0.355-0.445,0.579-0.59c0.227-0.141,0.518-0.213,0.881-0.213
			c0.335,0,0.637,0.073,0.904,0.224c0.27,0.148,0.559,0.312,0.871,0.486c0.309,0.175,0.674,0.337,1.093,0.485
			c0.418,0.149,0.943,0.224,1.578,0.224c0.451,0,0.83-0.046,1.143-0.14c0.312-0.093,0.559-0.22,0.746-0.381
			c0.187-0.162,0.325-0.344,0.412-0.544c0.088-0.199,0.129-0.403,0.129-0.616c0-0.388-0.129-0.703-0.394-0.955
			c-0.259-0.248-0.602-0.462-1.025-0.642c-0.424-0.183-0.908-0.35-1.449-0.506c-0.541-0.155-1.092-0.333-1.653-0.533
			c-0.562-0.199-1.114-0.439-1.655-0.719c-0.544-0.28-1.025-0.634-1.449-1.066c-0.426-0.429-0.768-0.955-1.027-1.58
			c-0.266-0.622-0.394-1.375-0.394-2.259c0-0.824,0.16-1.604,0.477-2.347c0.315-0.741,0.792-1.392,1.427-1.954
			c0.639-0.561,1.433-1.006,2.395-1.334C98.704,0.164,99.827,0,101.11,0c0.699,0,1.375,0.062,2.027,0.186
			c0.652,0.125,1.27,0.3,1.843,0.523c0.573,0.224,1.096,0.489,1.569,0.794c0.474,0.307,0.893,0.639,1.252,1.001L106.495,4.542z"/>
		<g>
			<polygon fill="#FFFFFF" points="97.275,16.733 97.959,15.665 96.652,11.556 94.242,15.323 			"/>
			<polygon fill="#FFFFFF" points="96.379,18.139 95.694,19.206 91.747,19.225 94.242,15.323 			"/>
		</g>
		<g>
			<polygon fill="#FFFFFF" points="103.444,3.176 102.76,4.243 104.069,8.352 106.476,4.584 			"/>
			<polygon fill="#FFFFFF" points="104.342,1.769 105.024,0.701 108.976,0.682 106.476,4.584 			"/>
		</g>
	</g>
	<g>
		<path fill="#FFFFFF" d="M197.397,29.141c-0.15,0.235-0.311,0.405-0.479,0.505c-0.167,0.099-0.383,0.149-0.646,0.149
			c-0.271,0-0.547-0.061-0.819-0.178c-0.275-0.119-0.573-0.246-0.891-0.385c-0.317-0.136-0.674-0.263-1.074-0.381
			c-0.397-0.12-0.854-0.178-1.364-0.178c-0.736,0-1.3,0.141-1.691,0.42c-0.391,0.281-0.589,0.669-0.589,1.17
			c0,0.36,0.129,0.66,0.385,0.897c0.255,0.234,0.594,0.447,1.016,0.626c0.424,0.179,0.905,0.352,1.44,0.513
			c0.534,0.163,1.085,0.342,1.647,0.543c0.561,0.198,1.106,0.433,1.641,0.702c0.539,0.268,1.017,0.596,1.441,0.99
			c0.424,0.394,0.763,0.869,1.019,1.429c0.255,0.561,0.383,1.234,0.383,2.018c0,0.961-0.172,1.846-0.521,2.657
			c-0.35,0.809-0.871,1.507-1.561,2.093c-0.695,0.585-1.548,1.039-2.564,1.366c-1.015,0.323-2.182,0.482-3.501,0.482
			c-0.663,0-1.323-0.061-1.982-0.187c-0.663-0.122-1.298-0.291-1.917-0.502c-0.615-0.214-1.187-0.466-1.708-0.759
			c-0.525-0.293-0.974-0.606-1.348-0.943l1.348-2.132c0.159-0.249,0.354-0.445,0.578-0.587c0.222-0.144,0.515-0.215,0.878-0.215
			c0.339,0,0.639,0.075,0.906,0.224c0.266,0.149,0.557,0.312,0.869,0.486c0.312,0.174,0.676,0.337,1.094,0.482
			c0.417,0.152,0.941,0.227,1.577,0.227c0.45,0,0.83-0.046,1.144-0.14c0.311-0.094,0.561-0.218,0.747-0.383
			c0.188-0.161,0.324-0.342,0.411-0.541c0.087-0.2,0.131-0.404,0.131-0.617c0-0.387-0.131-0.704-0.392-0.956
			c-0.263-0.249-0.606-0.461-1.03-0.642c-0.424-0.183-0.904-0.349-1.447-0.507c-0.543-0.154-1.093-0.332-1.654-0.53
			c-0.562-0.202-1.112-0.439-1.653-0.72c-0.545-0.28-1.026-0.635-1.449-1.066c-0.422-0.431-0.768-0.956-1.028-1.58
			c-0.263-0.623-0.394-1.375-0.394-2.26c0-0.825,0.157-1.605,0.477-2.348c0.319-0.742,0.797-1.391,1.432-1.953
			c0.635-0.562,1.43-1.007,2.391-1.337c0.961-0.329,2.082-0.495,3.364-0.495c0.7,0,1.374,0.062,2.03,0.186
			c0.654,0.124,1.267,0.3,1.841,0.524c0.573,0.225,1.095,0.489,1.568,0.794c0.475,0.306,0.894,0.639,1.254,1L197.397,29.141z"/>
		<g>
			<polygon fill="#FFFFFF" points="188.179,41.331 188.862,40.265 187.555,36.154 185.146,39.921 			"/>
			<polygon fill="#FFFFFF" points="187.282,42.735 186.598,43.805 182.649,43.822 185.146,39.921 			"/>
		</g>
		<g>
			<polygon fill="#FFFFFF" points="194.348,27.773 193.664,28.842 194.97,32.951 197.38,29.183 			"/>
			<polygon fill="#FFFFFF" points="195.245,26.368 195.928,25.299 199.877,25.28 197.38,29.183 			"/>
		</g>
	</g>
	<path fill="#FFFFFF" d="M115.662,39.944c-0.479-1.226-1.151-2.272-2.019-3.13c-0.172-0.172-0.354-0.33-0.542-0.484l-2.888,5.542
		v0.002c0.124,0.654,0.188,1.401,0.188,2.247c0,1.919-0.316,3.352-0.945,4.292c-0.628,0.94-1.612,1.412-2.942,1.412
		c-1.373,0-2.375-0.472-3.01-1.412c-0.354-0.523-0.608-1.202-0.765-2.029l-5.4,1.993c0.477,1.188,1.137,2.207,1.988,3.043
		c0.876,0.867,1.924,1.534,3.139,2c1.213,0.468,2.562,0.702,4.047,0.702c1.469,0,2.809-0.234,4.017-0.702
		c1.21-0.466,2.247-1.133,3.112-2c0.867-0.865,1.54-1.919,2.019-3.157c0.479-1.241,0.72-2.635,0.72-4.178
		C116.382,42.553,116.141,41.171,115.662,39.944z"/>
	<rect x="110.395" y="34.393" fill="#FFFFFF" width="5.987" height="10.185"/>
	<g>
		<path fill="#FFFFFF" d="M33.075,29.881c-1.583,1.282-3.416,1.922-5.498,1.922c-2.084,0-3.793-0.534-5.133-1.598
			c-1.337-1.065-2.007-2.52-2.007-4.368c0-2.073,1.387-3.912,4.157-5.513c-0.622-0.753-1.075-1.418-1.356-1.993
			c-0.284-0.576-0.424-1.249-0.424-2.021c0-1.603,0.578-2.829,1.738-3.676c1.16-0.848,2.531-1.271,4.113-1.271
			c1.583,0,2.935,0.41,4.056,1.229c1.123,0.821,1.685,1.965,1.685,3.435c0,1.848-1.348,3.561-4.043,5.146
			c1.055,1.319,1.846,2.271,2.376,2.855c0.47-0.867,0.828-1.781,1.075-2.743l3.306,2.375c-0.433,1.188-0.961,2.291-1.583,3.309
			l2.798,2.77l-2.798,2.659L33.075,29.881z M25.471,27.619c0.546,0.434,1.252,0.649,2.121,0.649c0.865,0,1.8-0.414,2.798-1.242
			c-1.376-1.452-2.564-2.772-3.563-3.959c-1.452,0.906-2.176,1.875-2.176,2.913C24.651,26.64,24.924,27.186,25.471,27.619z
			 M28.665,14.699c-0.413,0-0.786,0.145-1.116,0.437c-0.332,0.293-0.497,0.689-0.497,1.189c0,0.5,0.378,1.219,1.133,2.163
			c1.414-0.753,2.12-1.461,2.12-2.121c0-0.547-0.17-0.961-0.509-1.244C29.458,14.838,29.08,14.699,28.665,14.699z"/>
	</g>
</g>
</svg>
