<?xml version="1.0" encoding="utf-8"?>
<!-- Generator: Adobe Illustrator 16.0.0, SVG Export Plug-In . SVG Version: 6.00 Build 0)  -->
<!DOCTYPE svg PUBLIC "-//W3C//DTD SVG 1.1//EN" "http://www.w3.org/Graphics/SVG/1.1/DTD/svg11.dtd">
<svg version="1.1" id="Capa_1" xmlns="http://www.w3.org/2000/svg" xmlns:xlink="http://www.w3.org/1999/xlink" x="0px" y="0px"
	 width="176.545px" height="178.79px" viewBox="0 0 176.545 178.79" enable-background="new 0 0 176.545 178.79"
	 xml:space="preserve">
<ellipse fill="#E6E6E6" cx="68.148" cy="171.414" rx="68.148" ry="7.376"/>
<g>
	<g>
		<path fill="#B1804A" d="M147.631,35.122l-8.403-1.847l-3.048,7.6l-1.017-6.583l-2.786,4.641l2.747,19.828l-14.495-20.839
			l-2.786,4.641l1.314,14.4l-5.221-13.426L29.465,60.835c-7.778,1.799-6.271,7.84-5.554,10.712l19.046,76.249
			c0.717,2.871,3.626,4.616,6.497,3.899l119.818-29.928c7.674-1.917,7.696-7.091,6.979-9.962l-22.124-72.783
			C153.411,36.15,150.502,34.405,147.631,35.122z"/>
	</g>
</g>
<g>
	<g>
		<polygon fill="#B1804A" points="126.417,167.104 120.029,175.095 108.427,170.892 97.545,127.322 115.368,122.87 		"/>
	</g>
</g>
<g>
	<g>
		<path fill="#C49E84" d="M150.416,30.481l-11.188,2.794l-0.262,2.959l-1.832-2.436l-1.971,0.493l0.574,4.152l0.231,1.666
			l0.599,4.313l0.683,4.933c-0.47,0.066-0.938,0.135-1.408,0.199l-2.092-4.612l-1.866-4.116l-0.671-1.483l-1.655-3.653l-8.929,2.231
			l0.336,3.68l0.123,1.358l0.398,4.355l0.368,4.046c-0.089,0.012-0.181,0.022-0.271,0.035l-1.474-3.786l-1.574-4.053l-0.49-1.261
			l-1.322-3.4L30.599,60.409c-1.908,0.476-3.314,1.923-3.836,3.681c-0.264,0.888-0.306,1.853-0.065,2.815l0.644,2.575l2.607,10.438
			l1.505,6.026l1.906,7.63l0.187,0.749l1.342,5.371l0.129,0.518l1.647,6.595l0.909,3.64l1.068,4.281l0.164,0.654l2.173,8.701
			l0.891,3.563l1.135,4.542l0.265,1.061l1.903,7.621l0.57,2.284c0.151,0.603,0.402,1.15,0.725,1.642
			c1.216,1.85,3.504,2.825,5.773,2.259l119.818-29.928c2.871-0.717,4.617-3.626,3.899-6.497l-0.099-0.396l-0.296-1.186l-0.77-3.079
			l-1.547-6.194l-1.514-6.062l-0.286-1.145l-1.453-5.816l-1.294-5.184l-2.898-11.602l-0.196-0.786l-1.412-5.655l-0.735-2.94
			l-0.278-1.116l-1.143-4.574l-1.349-5.401l-0.309-1.232l-0.679-2.717l-1.306-5.229l-1.126-4.509l-0.312-1.252l-0.043-0.173
			C156.196,31.51,153.288,29.765,150.416,30.481z"/>
	</g>
</g>
<g>
	<g>
		<path fill="#B1804A" d="M136.567,44.424l0.683,4.933c0.263-0.038,0.527-0.074,0.79-0.113c7.197-1.06,14.406-2.732,21.661-3.699
			l-1.306-5.229c-5.811,0.919-11.584,2.231-17.327,3.286C139.568,43.877,138.067,44.15,136.567,44.424z"/>
	</g>
</g>
<g>
	<g>
		<path fill="#B1804A" d="M121.486,47.315l0.368,4.046c4.673-0.62,9.353-1.163,13.987-1.806l-2.092-4.612
			C129.655,45.697,125.562,46.469,121.486,47.315z"/>
	</g>
</g>
<g>
	<g>
		<path fill="#B1804A" d="M101.759,52.221c-24.377,7.541-46.848,20.412-72.275,24.582c-0.15,0.024-0.121,0.269,0.029,0.265
			C54.33,76.412,76.441,62.542,99.77,55.618c7.104-2.107,14.464-3.297,21.851-4.282l-1.474-3.787
			C113.958,48.86,107.81,50.35,101.759,52.221z"/>
	</g>
</g>
<g>
	<g>
		<path fill="#B1804A" d="M52.605,81.03c5.808-1.147,11.586-2.246,17.077-4.536c6.361-2.653,12.342-6.163,18.818-8.542
			c12.298-4.518,24.77-8.438,37.461-11.697c3.89-1,7.814-1.818,11.755-2.562l-0.878-1.936c-2.847,0.555-5.676,1.118-8.477,1.646
			c-13.34,2.515-26.523,5.82-39.498,9.805c-5.698,1.751-11.033,4.138-16.474,6.557c-5.947,2.643-11.97,4.09-18.353,5.21
			c-6.248,1.098-12.387,2.549-18.586,3.872c-1.828,0.391-3.664,0.74-5.504,1.071l1.505,6.026c0.877-0.205,1.733-0.403,2.554-0.576
			C40.239,84.048,46.355,82.265,52.605,81.03z"/>
	</g>
</g>
<g>
	<g>
		<path fill="#B1804A" d="M137.847,53.668c7.613-1.434,15.275-2.586,22.842-4.175l-0.309-1.232
			c-7.611,0.51-15.273,1.889-22.816,3.354L137.847,53.668z"/>
	</g>
</g>
<g>
	<g>
		<path fill="#B1804A" d="M63.155,94.835c7.59-2.191,14.801-5.604,22.514-7.369c7.516-1.718,15.068-1.137,22.68-1.868
			c6.183-0.594,12.136-2.868,17.586-5.777c5.701-3.042,9.717-8.17,15.182-11.413c5.732-3.403,12.892-3.931,19.358-4.568
			c1.238-0.122,2.478-0.223,3.719-0.313l-0.735-2.94c-2.725-0.014-5.443,0.065-8.141,0.323c2.614-0.516,5.236-0.996,7.862-1.439
			l-1.143-4.574c-2.06,0.41-4.109,0.873-6.146,1.357c-10.541,2.5-20.914,5.647-31.381,8.435c-5.243,1.396-10.523,2.6-15.722,4.169
			c-9.444,2.851-18.573,6.69-27.682,10.45c-9.369,3.867-18.765,7.676-28.491,10.563c-6.348,1.885-12.761,3.079-19.257,3.705
			l0.187,0.749c13.869-0.994,27.496-5.525,40.398-10.384c8.709-3.28,17.322-6.802,26.119-9.839
			c7.235-2.499,14.55-4.145,21.988-5.856c7.314-1.683,14.611-3.372,21.939-4.969c-0.148,0.051-0.298,0.093-0.445,0.146
			c-5.344,1.914-8.827,5.667-13.111,9.181c-4.244,3.479-9.307,6.146-14.592,7.85c0.281-0.136,0.552-0.269,0.791-0.389
			c2.303-1.162,7.539-4.645,3.78-7.309c-1.582-1.12-4.188-0.166-5.759,0.411c-1.8,0.661-3.457,1.532-5.098,2.47
			c-1.06,0.399-2.098,0.94-3.129,1.761c-1.242,0.989-2.57,2.856-1.064,4.206c0.402,0.359,0.874,0.602,1.387,0.764
			c-5.416,0.536-10.949,0.221-16.346,1.041c-7.851,1.194-15.329,5.172-22.701,7.934c-5.869,2.197-11.941,3.964-17.963,5.687
			c-4.801,1.374-9.827,2.518-14.854,2.667l0.129,0.518C44.517,100.542,54.233,97.413,63.155,94.835z M106.724,79.804
			c0.461-0.935,1.696-1.774,2.584-2.345c2.558-0.716,4.83-2.212,7.396-2.956c0.833-0.241,3.824-0.677,2.827,1.031
			c-0.689,1.184-2.291,1.948-3.445,2.577c-2.349,1.281-4.908,2.17-7.6,2.264C108.257,80.384,106.404,80.45,106.724,79.804z"/>
	</g>
</g>
<g>
	<g>
		<path fill="#B1804A" d="M78.491,98.352c16.733-3.101,32.865-6.112,48.175-13.853c7.898-3.992,15.782-8.168,24.181-11.027
			c4.865-1.656,9.924-2.524,14.955-3.505l-0.196-0.786c-4.1,0.687-8.189,1.43-12.222,2.398c-7.727,1.855-14.973,5.513-22.067,8.995
			c-7.992,3.923-15.824,7.567-24.443,9.926c-8.05,2.204-16.332,3.568-24.546,4.996c-7.693,1.337-15.42,2.589-23.01,4.441
			c-7.668,1.873-15.095,4.614-22.653,6.869l0.909,3.64C50.798,105.239,64.564,100.933,78.491,98.352z"/>
	</g>
</g>
<g>
	<g>
		<path fill="#B1804A" d="M70.701,109.639c6.953-2.061,13.543-4.812,20.646-6.434c7.587-1.73,15.341-2.622,22.962-4.189
			c14.111-2.903,27.852-7.434,41.977-10.285c4.529-0.915,9.132-1.366,13.708-1.979l-1.294-5.184
			c-2.241,0.357-4.486,0.699-6.754,1.012c-15.439,2.124-29.33,8.182-44.111,12.641c-7.438,2.243-15.021,3.884-22.607,5.534
			c-7.637,1.662-14.785,4.075-22.127,6.688c-11.084,3.944-22.842,5.438-34.459,7.284l0.164,0.654
			C49.545,114.045,60.26,112.733,70.701,109.639z"/>
	</g>
</g>
<g>
	<g>
		<path fill="#B1804A" d="M77.527,118.126c6.512-3.451,12.349-7.872,19.659-9.502c6.765-1.508,13.952-0.902,20.83-1.176
			c7.053-0.28,13.816-1.95,20.629-3.696c7.366-1.889,14.645-4.104,21.984-6.095c3.826-1.038,7.582-2.246,11.104-3.944l-0.286-1.145
			c-4.474,1.79-9.151,3.027-13.87,4.159c-6.978,1.674-13.883,3.625-20.877,5.236c-7.037,1.622-13.91,2.873-21.154,2.756
			c-6.454-0.104-12.793-0.545-19.191,0.571c-6.361,1.109-11.67,4.607-17.15,7.792c-6.731,3.912-13.6,6.647-21.168,8.477
			c-5.664,1.367-11.354,2.072-17.058,2.523l0.891,3.563c5.283-0.563,10.513-1.355,15.591-2.349
			C64.519,123.919,71.184,121.489,77.527,118.126z"/>
	</g>
</g>
<g>
	<g>
		<path fill="#B1804A" d="M160.639,102.724c-3.707,0.767-7.229,2.731-10.76,4.055c-3.72,1.394-7.482,2.454-11.325,3.443
			c-7.75,2-15.465,4.144-23.221,6.129c-2.219,0.566-4.445,1.107-6.677,1.619c0.556-0.502,1.056-1.038,1.463-1.618
			c0.866-1.233-1.139-2.423-2-1.2c-1.891,2.685-6.109,3.997-9.356,4.845c-0.994,0.177-1.99,0.345-2.989,0.505
			c-2.889,0.171-7.172-0.137-3.611-2.318c4.243-2.596,10.56-4.35,15.465-5.246c0.247-0.045,0.204-0.465-0.049-0.442
			c-3.731,0.325-7.371,0.774-10.99,1.793c-2.354,0.661-7.901,1.936-8.228,5.075c-0.092,0.881,0.139,1.557,0.559,2.082
			c-2.722,0.321-5.398,0.646-8.099,1.392c-3.515,0.972-6.904,2.415-10.294,3.741c-7.215,2.82-14.342,3.551-21.928,4.724
			c-1.853,0.286-3.722,0.581-5.595,0.888l0.265,1.061c0.406-0.072,0.814-0.15,1.221-0.219c7.538-1.271,15.145-1.57,22.497-3.762
			c7.416-2.211,14.398-4.977,22.194-5.562c2.146-0.16,4.285-0.395,6.417-0.676c0.093-0.01,0.191-0.018,0.276-0.027
			c0.473-0.053,0.971-0.127,1.482-0.213c4.799-0.697,9.563-1.641,14.296-2.676c21.028-4.591,41.944-10.233,63.142-14.146
			l-1.547-6.194C168.958,100.782,164.726,101.878,160.639,102.724z"/>
	</g>
</g>
<g>
	<g>
		<path fill="#B1804A" d="M158.494,113.845c-6.853,1.42-13.542,3.53-20.345,5.165c-7.347,1.767-14.867,2.872-22.412,3.257
			c-7.328,0.375-14.263,0.729-21.328,2.89c-6.871,2.104-13.45,5.127-20.152,7.694c-7.078,2.712-14.612,3.973-21.883,6.06
			c-2.392,0.688-4.796,1.327-7.202,1.96l0.57,2.284c0.151,0.603,0.402,1.15,0.725,1.642c0.497-0.154,0.995-0.308,1.491-0.459
			c7.189-2.183,14.405-4.486,21.5-6.955c7.725-2.688,15.137-6.207,22.824-8.996c7.689-2.787,15.3-3.626,23.408-4.172
			c7.245-0.486,14.374-1.773,21.428-3.465c7.267-1.743,14.4-4.012,21.704-5.59c5.778-1.249,11.751-2.259,17.037-4.926l-0.296-1.186
			C170.123,111.451,164.345,112.632,158.494,113.845z"/>
	</g>
</g>
<g>
	<g>
		<path fill="#B1804A" d="M29.369,68.974c7.359-1.056,14.782-1.509,22.069-3.044c7.283-1.533,14.277-4.502,21.16-7.264
			c14.455-5.799,28.892-10.728,43.967-14.668c0.667-0.174,1.336-0.337,2.007-0.501l-0.49-1.261
			c-12.911,3.055-25.98,5.887-38.548,10.088c-6.939,2.319-13.828,4.762-20.831,6.896c-7.057,2.149-14.146,3.085-21.48,3.667
			c-3.532,0.28-6.986,0.555-10.423,1.143c-0.265,0.888-0.307,1.853-0.065,2.815l0.643,2.575
			C28.112,69.216,28.786,69.058,29.369,68.974z"/>
	</g>
</g>
<g>
	<g>
		<path fill="#B1804A" d="M131.884,40.827l-0.671-1.483c-3.113,0.631-6.222,1.287-9.317,2.037c-0.31,0.074-0.621,0.146-0.931,0.221
			l0.123,1.358C124.661,42.155,128.268,41.47,131.884,40.827z"/>
	</g>
</g>
<g>
	<g>
		<path fill="#B1804A" d="M157.27,35.806l-0.312-1.252c-4.661,0.354-9.361,1.545-13.847,2.443c-2.458,0.492-4.915,0.969-7.373,1.447
			l0.231,1.666C143.126,38.872,150.286,37.649,157.27,35.806z"/>
	</g>
</g>
<g>
	<g>
		<g>
			<path fill="#C49E84" d="M107.88,146.875c-2.318-7.154-4.664-14.819-5.407-22.429l-2.364,0.591l10.883,43.57l0.775,0.325
				c-0.312-2.574-0.438-5.194-0.765-7.627C110.337,156.356,109.421,151.629,107.88,146.875z"/>
		</g>
	</g>
	<g>
		<g>
			<path fill="#C49E84" d="M117.932,120.585l-1.938,0.484c0.226,8.819,1.003,18.058,3.567,26.497
				c2.065,6.796,4.737,13.45,6.144,20.414l3.109-3.825L117.932,120.585z"/>
		</g>
	</g>
	<g>
		<g>
			<path fill="#C49E84" d="M119.554,159.088c-1.285-6.197-3.865-10.922-6.841-16.396c-2.534-4.662-5.042-8.867-6.458-14.031
				c-0.424-1.546-0.956-3.156-1.467-4.793l-1.752,0.438c1.513,8.908,5.821,16.522,9.354,24.919
				c1.849,4.392,3.053,8.844,3.782,13.552c0.433,2.788,1.134,5.732,1.481,8.638l3.919,1.651l0.648-0.799
				C121.133,167.918,120.468,163.503,119.554,159.088z"/>
		</g>
	</g>
	<g>
		<g>
			<path fill="#C49E84" d="M113.083,121.796l-3.532,0.883c0.512,2.164,0.927,4.33,1.404,6.249
				c1.429,5.748,2.069,11.399,4.665,16.797c2.32,4.825,3.913,9.325,4.843,14.625c0.675,3.847,1.25,7.712,2.077,11.524l2.711-3.334
				c-2.52-7.799-5.445-15.463-7.836-23.301C115.122,137.724,113.7,129.671,113.083,121.796z"/>
		</g>
	</g>
	<g>
		<g>
			<path fill="#B1804A" d="M112.39,149.225c-3.532-8.396-7.841-16.011-9.354-24.919l-0.563,0.141
				c0.743,7.609,3.089,15.274,5.407,22.429c1.541,4.754,2.457,9.481,3.122,14.431c0.326,2.433,0.453,5.053,0.765,7.627l5.887,2.481
				c-0.348-2.905-1.049-5.85-1.481-8.638C115.442,158.068,114.238,153.616,112.39,149.225z"/>
		</g>
	</g>
	<g>
		<g>
			<path fill="#B1804A" d="M115.62,145.725c-2.596-5.397-3.236-11.049-4.665-16.797c-0.478-1.919-0.893-4.085-1.404-6.249
				l-4.763,1.189c0.511,1.637,1.043,3.247,1.467,4.793c1.416,5.164,3.924,9.369,6.458,14.031c2.976,5.474,5.556,10.198,6.841,16.396
				c0.914,4.415,1.579,8.83,2.667,13.179l0.319-0.393c-0.827-3.812-1.402-7.678-2.077-11.524
				C119.533,155.05,117.94,150.55,115.62,145.725z"/>
		</g>
	</g>
	<g>
		<g>
			<path fill="#B1804A" d="M119.562,147.566c-2.564-8.439-3.342-17.678-3.567-26.497l-2.911,0.727
				c0.617,7.875,2.039,15.928,4.332,23.443c2.391,7.838,5.316,15.502,7.836,23.301l0.454-0.56
				C124.299,161.017,121.627,154.362,119.562,147.566z"/>
		</g>
	</g>
</g>
<g>
	<g>
		<circle fill="#3D3D3B" cx="110.955" cy="128.927" r="2.765"/>
	</g>
</g>
<g>
	<g>
		<path fill="#676767" d="M110.244,131.339c-0.151,0-0.305-0.034-0.448-0.106c-0.493-0.248-0.692-0.85-0.444-1.343l1.42-2.822
			c0.248-0.494,0.851-0.692,1.343-0.444c0.493,0.248,0.692,0.85,0.444,1.343l-1.42,2.822
			C110.963,131.138,110.61,131.339,110.244,131.339z"/>
	</g>
</g>
<g>
	<g>
		<path fill="#FFFFFF" d="M69.083,97.997l2.882-0.721l-3.582-14.342l-3.595,3.576L63.212,80.2l6.465-6.354l2.639-0.619l5.633,22.555
			l2.901-0.725l1.241,4.969l-11.768,2.939L69.083,97.997z"/>
	</g>
	<g>
		<path fill="#FFFFFF" d="M95.264,97.007c-1.935,0.482-3.667,0.537-5.199,0.16c-1.532-0.373-2.88-1.08-4.045-2.119
			c-1.164-1.037-2.156-2.357-2.974-3.959c-0.816-1.598-1.469-3.379-1.958-5.336c-0.483-1.934-0.751-3.803-0.804-5.607
			s0.184-3.455,0.708-4.955c0.524-1.498,1.376-2.791,2.556-3.883c1.178-1.09,2.759-1.883,4.741-2.379
			c1.958-0.488,3.71-0.535,5.254-0.137c1.543,0.398,2.897,1.125,4.061,2.184c1.163,1.057,2.147,2.389,2.952,3.992
			c0.805,1.602,1.447,3.365,1.928,5.285c0.486,1.947,0.745,3.826,0.78,5.633c0.034,1.811-0.216,3.455-0.751,4.938
			c-0.535,1.48-1.394,2.762-2.575,3.842C98.755,95.741,97.197,96.522,95.264,97.007z M93.873,91.44
			c1.075-0.27,1.878-0.697,2.404-1.285c0.528-0.588,0.866-1.303,1.017-2.143c0.149-0.838,0.143-1.791-0.021-2.855
			c-0.163-1.062-0.396-2.205-0.701-3.428c-0.299-1.195-0.626-2.299-0.981-3.307c-0.354-1.01-0.794-1.857-1.317-2.541
			c-0.524-0.686-1.158-1.166-1.901-1.443c-0.743-0.275-1.647-0.281-2.711-0.016c-1.076,0.27-1.88,0.701-2.412,1.295
			c-0.532,0.596-0.871,1.32-1.018,2.172s-0.143,1.809,0.014,2.867c0.155,1.059,0.382,2.186,0.682,3.383
			c0.305,1.221,0.638,2.338,1,3.354c0.362,1.014,0.805,1.857,1.326,2.529c0.52,0.672,1.152,1.145,1.894,1.414
			C91.888,91.708,92.797,91.708,93.873,91.44z"/>
	</g>
	<g>
		<path fill="#FFFFFF" d="M121.79,69.788c-0.71-0.734-1.634-1.297-2.771-1.686c-1.138-0.391-2.335-0.43-3.592-0.115
			c-0.593,0.148-1.144,0.371-1.652,0.672c-0.51,0.303-0.966,0.66-1.369,1.076c-0.404,0.414-0.766,0.879-1.086,1.396
			c-0.321,0.518-0.579,1.076-0.775,1.678l8.54-2.133l-1.379,5.814l-7.271,1.816c0.052,0.205,0.099,0.393,0.141,0.562
			c0.042,0.168,0.102,0.352,0.177,0.553l8.938-2.232l-1.379,5.814l-4.098,1.023c0.81,0.568,1.678,0.945,2.604,1.131
			c0.927,0.188,1.885,0.156,2.876-0.092c0.713-0.178,1.357-0.465,1.934-0.857c0.576-0.396,1.076-0.848,1.5-1.357
			c0.425-0.512,0.765-1.068,1.019-1.67c0.255-0.604,0.422-1.205,0.503-1.803l6.247,0.174c-0.079,1.277-0.358,2.51-0.839,3.697
			c-0.481,1.186-1.134,2.275-1.957,3.271c-0.824,0.996-1.82,1.863-2.99,2.605c-1.17,0.74-2.498,1.297-3.984,1.67
			c-1.861,0.465-3.695,0.527-5.501,0.188c-1.805-0.338-3.465-1.002-4.977-1.992s-2.829-2.268-3.951-3.828
			c-1.122-1.562-1.932-3.336-2.427-5.318c-0.488-1.957-0.604-3.887-0.348-5.787c0.258-1.902,0.82-3.645,1.689-5.229
			c0.869-1.586,2.021-2.951,3.455-4.1s3.082-1.955,4.943-2.42c0.713-0.178,1.458-0.293,2.235-0.346
			c0.776-0.053,1.537-0.041,2.282,0.037c0.744,0.076,1.474,0.205,2.187,0.387c0.713,0.184,1.366,0.404,1.958,0.668l3.191-0.797
			l1.53,6.129L121.79,69.788z"/>
	</g>
</g>
<g>
	<g>
		<path fill="#FFFFFF" d="M62.143,116.449l6.56-1.639l0.702,2.813l-1.773,0.443l-0.292-1.171l-2.115,0.528l0.406,1.627l1.638-0.409
			l0.394,1.578l-1.638,0.409l0.478,1.908l2.115-0.528l-0.365-1.463l1.773-0.443l0.737,2.954l-6.56,1.639l-0.372-1.491l0.864-0.216
			l-1.277-5.113l-0.864,0.216L62.143,116.449z"/>
	</g>
	<g>
		<path fill="#FFFFFF" d="M77.808,119.714l0.82-0.205l-0.666-1.094l-2.535,0.634l-0.072,1.277l0.869-0.217l0.373,1.491l-3.128,0.781
			l-0.372-1.491l0.615-0.153l0.559-7.317l2.181-0.545l3.886,6.207l0.598-0.149l0.372,1.491l-3.128,0.781L77.808,119.714z
			 M75.509,117.55l1.665-0.416l-1.508-2.474L75.509,117.55z"/>
	</g>
	<g>
		<path fill="#FFFFFF" d="M82.215,111.436l4.362-1.09c0.424-0.105,0.819-0.137,1.185-0.094c0.365,0.044,0.688,0.144,0.971,0.299
			c0.28,0.154,0.517,0.358,0.71,0.608c0.191,0.252,0.325,0.529,0.4,0.833c0.07,0.279,0.102,0.532,0.094,0.757
			c-0.007,0.225-0.047,0.434-0.121,0.625c-0.073,0.192-0.178,0.372-0.313,0.538c-0.136,0.167-0.298,0.328-0.485,0.483
			c0.208,0.047,0.407,0.15,0.597,0.309c0.19,0.159,0.359,0.384,0.509,0.674l0.545,1.002l0.68-0.17l0.412,1.604l-2.393,0.598
			l-0.815-1.878c-0.091-0.224-0.19-0.411-0.3-0.563c-0.109-0.151-0.234-0.267-0.373-0.347c-0.139-0.078-0.295-0.123-0.47-0.133
			c-0.174-0.011-0.372,0.012-0.593,0.066l-0.702,0.176l0.448,1.795l0.757-0.189l0.372,1.491l-3.416,0.854l-0.371-1.491l0.854-0.214
			l-1.314-5.26l-0.854,0.214L82.215,111.436z M85.248,112.268l0.499,1.996l1.082-0.271c0.207-0.052,0.389-0.117,0.543-0.196
			c0.156-0.079,0.283-0.174,0.38-0.285c0.098-0.112,0.163-0.237,0.195-0.376s0.028-0.293-0.015-0.464
			c-0.08-0.319-0.256-0.539-0.529-0.66c-0.272-0.12-0.631-0.125-1.072-0.015L85.248,112.268z"/>
	</g>
	<g>
		<path fill="#FFFFFF" d="M92.766,108.8l3.53-0.882l0.374,1.496l-0.871,0.218l1.313,5.26l1.797-0.448
			c0.047-0.012,0.09-0.036,0.127-0.075c0.039-0.038,0.07-0.083,0.094-0.136s0.039-0.106,0.049-0.162
			c0.01-0.057,0.008-0.108-0.004-0.155l-0.275-1.104l1.762-0.44l0.757,3.03l-6.593,1.646l-0.371-1.491l0.854-0.213l-1.314-5.26
			l-0.854,0.213L92.766,108.8z"/>
	</g>
	<g>
		<path fill="#FFFFFF" d="M101.167,106.702l3.53-0.883l0.374,1.496l-0.691,0.173l1.577,1.617l0.697-2.185l-0.789,0.197l-0.374-1.496
			l3.53-0.883l0.374,1.496l-0.609,0.152l-1.621,3.942l0.482,1.931l1-0.25l0.373,1.491l-3.678,0.918l-0.372-1.491l0.914-0.228
			l-0.487-1.952l-3.133-2.732l-0.724,0.182L101.167,106.702z"/>
	</g>
	<g>
		<path fill="#FFFFFF" d="M113.798,110.725l0.842-0.211l-1.313-5.26l-0.843,0.211l-0.376-1.507l4.021-0.993
			c0.373-0.094,0.732-0.112,1.075-0.058c0.344,0.056,0.655,0.168,0.938,0.338c0.281,0.172,0.522,0.392,0.723,0.663
			c0.201,0.271,0.344,0.578,0.429,0.919c0.1,0.399,0.112,0.747,0.038,1.042c-0.074,0.296-0.221,0.556-0.438,0.779
			c0.314,0.106,0.584,0.268,0.805,0.484c0.223,0.217,0.379,0.507,0.47,0.874c0.094,0.373,0.114,0.731,0.063,1.076
			s-0.159,0.657-0.325,0.939c-0.167,0.282-0.387,0.523-0.66,0.725c-0.272,0.202-0.586,0.347-0.938,0.435l-4.14,1.034
			L113.798,110.725z M115.132,104.803l0.462,1.85l1.295-0.323c0.101-0.025,0.19-0.074,0.27-0.148
			c0.077-0.073,0.14-0.161,0.186-0.262c0.046-0.103,0.075-0.213,0.089-0.329c0.013-0.117,0.005-0.232-0.024-0.35
			c-0.028-0.111-0.076-0.22-0.144-0.322c-0.068-0.103-0.147-0.19-0.236-0.265c-0.09-0.074-0.188-0.127-0.292-0.162
			c-0.105-0.032-0.208-0.037-0.31-0.012L115.132,104.803z M115.966,108.143l0.48,1.92l1.371-0.342
			c0.104-0.026,0.197-0.079,0.275-0.155c0.078-0.078,0.141-0.169,0.186-0.274c0.045-0.106,0.072-0.223,0.083-0.35
			c0.011-0.13,0-0.257-0.032-0.384c-0.033-0.134-0.084-0.253-0.152-0.356c-0.068-0.105-0.147-0.19-0.238-0.26
			c-0.09-0.067-0.188-0.114-0.292-0.14c-0.104-0.026-0.208-0.026-0.31-0.001L115.966,108.143z"/>
	</g>
	<g>
		<path fill="#FFFFFF" d="M121.877,101.529l3.53-0.882l0.372,1.49l-0.87,0.217l1.314,5.266l0.871-0.217l0.372,1.491l-3.53,0.882
			l-0.372-1.491l0.854-0.214l-1.316-5.266l-0.854,0.214L121.877,101.529z"/>
	</g>
	<g>
		<path fill="#FFFFFF" d="M128.859,99.785l4.361-1.09c0.425-0.106,0.819-0.137,1.185-0.094c0.365,0.044,0.689,0.144,0.971,0.299
			c0.281,0.154,0.518,0.358,0.71,0.608c0.191,0.251,0.325,0.529,0.401,0.833c0.07,0.279,0.102,0.531,0.094,0.757
			c-0.007,0.225-0.048,0.434-0.121,0.625c-0.073,0.192-0.178,0.372-0.313,0.538c-0.136,0.167-0.298,0.328-0.486,0.482
			c0.208,0.048,0.407,0.151,0.598,0.31c0.19,0.159,0.359,0.384,0.509,0.674l0.545,1.002l0.68-0.17l0.412,1.604l-2.393,0.598
			l-0.816-1.878c-0.091-0.224-0.19-0.411-0.299-0.563c-0.109-0.152-0.234-0.268-0.373-0.347c-0.139-0.078-0.296-0.123-0.47-0.133
			c-0.175-0.011-0.372,0.011-0.593,0.066l-0.702,0.176l0.448,1.795l0.756-0.189l0.373,1.491l-3.416,0.854l-0.372-1.491l0.854-0.214
			l-1.313-5.26l-0.854,0.214L128.859,99.785z M131.893,100.617l0.499,1.996l1.082-0.271c0.207-0.052,0.388-0.117,0.543-0.196
			c0.156-0.079,0.282-0.174,0.38-0.286c0.098-0.111,0.163-0.236,0.195-0.375s0.028-0.293-0.015-0.464
			c-0.08-0.319-0.256-0.539-0.529-0.66c-0.272-0.12-0.631-0.126-1.073-0.015L131.893,100.617z"/>
	</g>
	<g>
		<path fill="#FFFFFF" d="M139.241,97.191l3.166-0.79c0.377-0.095,0.751-0.136,1.121-0.125c0.371,0.013,0.729,0.069,1.072,0.172
			c0.344,0.104,0.669,0.248,0.976,0.436c0.307,0.187,0.585,0.412,0.835,0.673c0.251,0.262,0.467,0.556,0.648,0.884
			s0.321,0.684,0.416,1.064c0.096,0.381,0.14,0.758,0.133,1.133c-0.006,0.376-0.058,0.739-0.156,1.088
			c-0.097,0.351-0.236,0.683-0.418,0.996c-0.182,0.312-0.4,0.596-0.654,0.85c-0.255,0.255-0.543,0.475-0.865,0.658
			c-0.321,0.185-0.671,0.324-1.048,0.419l-3.165,0.79l-0.373-1.491l0.658-0.164l-1.314-5.26l-0.657,0.164L139.241,97.191z
			 M142.079,98.072l1.314,5.26l0.689-0.173c0.295-0.073,0.555-0.211,0.781-0.413c0.227-0.204,0.406-0.448,0.539-0.732
			c0.133-0.286,0.216-0.604,0.248-0.953s0.002-0.708-0.09-1.077c-0.092-0.367-0.234-0.696-0.426-0.986
			c-0.192-0.291-0.414-0.531-0.665-0.719s-0.524-0.316-0.818-0.384c-0.295-0.07-0.589-0.068-0.883,0.005L142.079,98.072z"/>
	</g>
</g>
<g>
	<g>
		<path fill="#7D3E56" d="M40.979,62.48c-0.545,0-0.99-0.437-1-0.983c-0.012-0.688-0.135-1.575-0.658-1.897
			c-0.651-0.402-1.85,0.017-2.219,0.193c-0.358,0.172-0.787,0.117-1.088-0.143c-0.302-0.26-0.423-0.672-0.305-1.053l4.314-13.95
			c0.163-0.526,0.72-0.821,1.251-0.659c0.527,0.163,0.822,0.723,0.659,1.251l-3.777,12.213c0.7-0.065,1.495,0.005,2.204,0.439
			c1.044,0.638,1.589,1.84,1.618,3.572c0.009,0.552-0.431,1.007-0.983,1.017H40.979z"/>
	</g>
	<g>
		<path fill="#7D3E56" d="M44.52,61.313c-0.501,0-0.934-0.376-0.992-0.886c-0.111-0.965-0.512-1.296-0.803-1.461
			c-1.323-0.749-4.037,0.174-4.884,0.557c-0.504,0.228-1.096,0.003-1.323-0.499c-0.228-0.503-0.004-1.096,0.499-1.323
			c0.429-0.193,4.26-1.853,6.694-0.475c0.713,0.404,1.604,1.248,1.803,2.973c0.063,0.549-0.33,1.045-0.879,1.107
			C44.596,61.312,44.558,61.313,44.52,61.313z"/>
	</g>
	<g>
		<path fill="#7D3E56" d="M50.314,60.232c-0.545,0-0.99-0.437-1-0.983c-0.012-0.688-0.135-1.575-0.658-1.897
			c-0.651-0.403-1.851,0.017-2.219,0.193c-0.358,0.171-0.787,0.117-1.088-0.143c-0.302-0.26-0.423-0.672-0.305-1.053l4.314-13.95
			c0.163-0.527,0.724-0.822,1.251-0.659s0.822,0.723,0.659,1.251l-3.777,12.213c0.701-0.067,1.495,0.006,2.204,0.439
			c1.044,0.638,1.589,1.84,1.618,3.572c0.009,0.552-0.431,1.007-0.983,1.017C50.325,60.232,50.32,60.232,50.314,60.232z"/>
	</g>
	<g>
		<path fill="#7D3E56" d="M53.855,59.065c-0.501,0-0.934-0.376-0.992-0.886c-0.111-0.965-0.512-1.296-0.803-1.461
			c-1.323-0.749-4.037,0.173-4.884,0.557c-0.504,0.229-1.097,0.004-1.323-0.499c-0.228-0.503-0.004-1.096,0.499-1.323
			c0.429-0.193,4.26-1.854,6.694-0.475c0.713,0.404,1.604,1.248,1.803,2.973c0.063,0.549-0.33,1.045-0.879,1.107
			C53.932,59.063,53.894,59.065,53.855,59.065z"/>
	</g>
	<g>
		<g>
			<path fill="#66BB8D" d="M21.962,23.386L13.373,7.86l6.901,2.669c0,0-0.427-4.92-0.094-8.258c0,0,4.186,4.95,6.445,7.372
				c0,0-0.01-6.077,1.626-9.644c0,0,2.058,10.185,7.881,21.61L21.962,23.386z"/>
		</g>
		<g>
			<path fill="#66BB8D" d="M62.176,33.444c0,0-0.151,10.14-13.857,13.487s-20.536-10.37-21.437-14.843
				C25.981,27.617,62.176,33.444,62.176,33.444z"/>
		</g>
		<g>
			<path fill="#9ED1B9" d="M58.409,29.177c0,0-16.297-16.8-40.282-3.919C18.127,25.258,40.085,56.22,58.409,29.177z"/>
		</g>
		<g>
			<circle fill="#66BB8D" cx="63.572" cy="25.873" r="11.25"/>
		</g>
		<g>
			<path fill="#F9B334" d="M65.707,37.098l5.251,2.548l1.044-6.33C72.002,33.315,66.965,31.269,65.707,37.098z"/>
		</g>
	</g>
	<g>
		<circle fill="#7D3E56" cx="62.176" cy="31.933" r="1.034"/>
	</g>
	<g>
		<circle fill="#7D3E56" cx="72.002" cy="29.864" r="1.034"/>
	</g>
</g>
</svg>
