<?xml version="1.0" encoding="utf-8"?>
<!-- Generator: Adobe Illustrator 16.0.0, SVG Export Plug-In . SVG Version: 6.00 Build 0)  -->
<!DOCTYPE svg PUBLIC "-//W3C//DTD SVG 1.1//EN" "http://www.w3.org/Graphics/SVG/1.1/DTD/svg11.dtd">
<svg version="1.1" id="Capa_1" xmlns="http://www.w3.org/2000/svg" xmlns:xlink="http://www.w3.org/1999/xlink" x="0px" y="0px"
	 width="176.545px" height="178.79px" viewBox="0 0 176.545 178.79" enable-background="new 0 0 176.545 178.79"
	 xml:space="preserve">
<ellipse fill="#E6E6E6" cx="68.148" cy="171.414" rx="68.148" ry="7.376"/>
<g>
	<g>
		<path fill="#B1804A" d="M147.631,35.122l-8.403-1.847l-3.047,7.6l-1.018-6.583l-2.786,4.641l2.747,19.828l-14.495-20.839
			l-2.786,4.641l1.314,14.4l-5.221-13.426L29.465,60.835c-7.778,1.799-6.271,7.84-5.554,10.712l19.046,76.249
			c0.717,2.871,3.626,4.617,6.497,3.899l119.818-29.928c7.674-1.917,7.695-7.091,6.979-9.962l-22.124-72.783
			C153.411,36.15,150.502,34.405,147.631,35.122z"/>
	</g>
</g>
<g>
	<g>
		<polygon fill="#B1804A" points="126.417,167.104 120.028,175.095 108.427,170.892 97.545,127.322 115.368,122.87 		"/>
	</g>
</g>
<g>
	<g>
		<path fill="#C49E84" d="M150.416,30.481l-11.188,2.794l-0.262,2.959l-1.832-2.436l-1.971,0.493l0.574,4.152l0.23,1.666l0.6,4.313
			l0.683,4.933c-0.47,0.066-0.938,0.135-1.408,0.199l-2.092-4.612l-1.866-4.116l-0.671-1.483l-1.655-3.653l-8.929,2.231l0.336,3.68
			l0.123,1.358l0.397,4.355l0.369,4.046c-0.09,0.012-0.182,0.022-0.271,0.035l-1.475-3.786l-1.573-4.053l-0.49-1.261l-1.321-3.4
			L30.599,60.409c-1.908,0.476-3.314,1.923-3.836,3.681c-0.264,0.888-0.306,1.853-0.065,2.815l0.644,2.575l2.607,10.438l1.505,6.026
			l1.906,7.63l0.187,0.749l1.342,5.371l0.129,0.518l1.647,6.596l0.909,3.64l1.068,4.281l0.164,0.653l2.173,8.701l0.891,3.563
			l1.135,4.542l0.265,1.061l1.903,7.621l0.57,2.284c0.151,0.603,0.402,1.15,0.725,1.642c1.216,1.851,3.504,2.826,5.773,2.26
			l119.818-29.928c2.871-0.717,4.616-3.627,3.898-6.498l-0.1-0.396l-0.295-1.187l-0.771-3.078l-1.547-6.194l-1.515-6.062
			l-0.285-1.146l-1.453-5.816l-1.295-5.184l-2.897-11.602l-0.196-0.786l-1.412-5.655l-0.734-2.94l-0.277-1.116l-1.144-4.574
			l-1.349-5.401l-0.31-1.232l-0.679-2.717l-1.307-5.229l-1.125-4.509l-0.312-1.252l-0.043-0.173
			C156.196,31.51,153.288,29.765,150.416,30.481z"/>
	</g>
</g>
<g>
	<g>
		<path fill="#B1804A" d="M136.567,44.424l0.683,4.933c0.263-0.038,0.526-0.074,0.79-0.113c7.197-1.06,14.406-2.732,21.661-3.699
			l-1.306-5.229c-5.812,0.919-11.584,2.231-17.328,3.286C139.567,43.877,138.067,44.15,136.567,44.424z"/>
	</g>
</g>
<g>
	<g>
		<path fill="#B1804A" d="M121.485,47.315l0.369,4.046c4.672-0.62,9.353-1.163,13.986-1.806l-2.092-4.612
			C129.655,45.697,125.562,46.469,121.485,47.315z"/>
	</g>
</g>
<g>
	<g>
		<path fill="#B1804A" d="M101.759,52.221c-24.377,7.541-46.848,20.412-72.275,24.582c-0.15,0.024-0.121,0.269,0.029,0.265
			c24.817-0.656,46.928-14.526,70.257-21.45c7.104-2.107,14.463-3.297,21.851-4.282l-1.474-3.787
			C113.958,48.86,107.81,50.35,101.759,52.221z"/>
	</g>
</g>
<g>
	<g>
		<path fill="#B1804A" d="M52.605,81.03c5.808-1.147,11.586-2.246,17.077-4.536c6.361-2.653,12.342-6.163,18.818-8.542
			c12.298-4.518,24.771-8.438,37.461-11.697c3.89-1,7.813-1.818,11.755-2.562l-0.878-1.936c-2.847,0.555-5.676,1.118-8.478,1.646
			c-13.34,2.515-26.522,5.82-39.498,9.805c-5.697,1.751-11.032,4.138-16.473,6.557c-5.947,2.643-11.97,4.09-18.353,5.21
			c-6.248,1.098-12.387,2.549-18.586,3.872c-1.828,0.391-3.664,0.74-5.504,1.071l1.505,6.026c0.877-0.205,1.733-0.403,2.554-0.576
			C40.239,84.048,46.355,82.265,52.605,81.03z"/>
	</g>
</g>
<g>
	<g>
		<path fill="#B1804A" d="M137.847,53.668c7.613-1.434,15.275-2.586,22.842-4.175l-0.309-1.232
			c-7.611,0.51-15.273,1.889-22.816,3.354L137.847,53.668z"/>
	</g>
</g>
<g>
	<g>
		<path fill="#B1804A" d="M63.155,94.834c7.59-2.19,14.801-5.604,22.514-7.369c7.516-1.718,15.068-1.137,22.68-1.868
			c6.184-0.594,12.137-2.868,17.586-5.777c5.701-3.042,9.717-8.17,15.183-11.413c5.731-3.403,12.892-3.931,19.358-4.568
			c1.237-0.122,2.478-0.223,3.719-0.313l-0.735-2.94c-2.726-0.014-5.442,0.065-8.142,0.323c2.615-0.516,5.236-0.996,7.863-1.439
			l-1.144-4.574c-2.06,0.41-4.108,0.873-6.146,1.357c-10.541,2.5-20.914,5.647-31.382,8.435c-5.243,1.396-10.522,2.6-15.722,4.169
			c-9.443,2.851-18.573,6.69-27.682,10.45c-9.369,3.867-18.765,7.676-28.491,10.563c-6.348,1.885-12.761,3.079-19.257,3.706
			l0.187,0.748c13.869-0.994,27.496-5.525,40.398-10.384c8.709-3.28,17.322-6.802,26.119-9.839
			c7.235-2.499,14.551-4.145,21.988-5.856c7.314-1.683,14.611-3.372,21.939-4.969c-0.148,0.051-0.299,0.093-0.445,0.146
			c-5.344,1.914-8.827,5.667-13.111,9.181c-4.244,3.479-9.307,6.146-14.592,7.85c0.281-0.136,0.553-0.269,0.791-0.389
			c2.303-1.162,7.539-4.645,3.78-7.309c-1.582-1.12-4.188-0.166-5.759,0.411c-1.801,0.661-3.457,1.532-5.098,2.47
			c-1.061,0.399-2.099,0.94-3.13,1.761c-1.241,0.989-2.569,2.856-1.063,4.206c0.402,0.359,0.873,0.602,1.387,0.764
			c-5.416,0.536-10.949,0.221-16.346,1.041c-7.852,1.194-15.33,5.172-22.701,7.934c-5.869,2.196-11.941,3.964-17.963,5.687
			c-4.801,1.374-9.827,2.518-14.854,2.667l0.129,0.519C44.517,100.542,54.233,97.413,63.155,94.834z M106.724,79.804
			c0.461-0.935,1.696-1.774,2.584-2.345c2.559-0.716,4.83-2.212,7.396-2.956c0.833-0.241,3.824-0.677,2.826,1.031
			c-0.688,1.184-2.29,1.948-3.444,2.577c-2.349,1.281-4.907,2.17-7.601,2.264C108.257,80.384,106.403,80.45,106.724,79.804z"/>
	</g>
</g>
<g>
	<g>
		<path fill="#B1804A" d="M78.491,98.352c16.732-3.102,32.865-6.112,48.175-13.853c7.897-3.992,15.782-8.168,24.181-11.027
			c4.865-1.656,9.924-2.524,14.955-3.505l-0.195-0.786c-4.101,0.687-8.189,1.43-12.223,2.398
			c-7.727,1.855-14.973,5.513-22.066,8.995c-7.992,3.923-15.824,7.567-24.443,9.927c-8.05,2.203-16.332,3.567-24.546,4.996
			c-7.693,1.336-15.42,2.588-23.01,4.44c-7.668,1.873-15.095,4.614-22.653,6.869l0.909,3.64
			C50.798,105.239,64.564,100.933,78.491,98.352z"/>
	</g>
</g>
<g>
	<g>
		<path fill="#B1804A" d="M70.701,109.639c6.953-2.061,13.543-4.812,20.646-6.434c7.588-1.73,15.342-2.623,22.963-4.189
			c14.11-2.903,27.852-7.434,41.977-10.285c4.529-0.915,9.132-1.366,13.708-1.979l-1.294-5.184
			c-2.241,0.357-4.486,0.699-6.754,1.012c-15.439,2.124-29.33,8.182-44.111,12.641c-7.438,2.242-15.021,3.884-22.607,5.533
			c-7.637,1.662-14.785,4.076-22.126,6.688c-11.084,3.944-22.842,5.438-34.459,7.284l0.164,0.654
			C49.545,114.045,60.26,112.733,70.701,109.639z"/>
	</g>
</g>
<g>
	<g>
		<path fill="#B1804A" d="M77.527,118.125c6.512-3.451,12.349-7.871,19.66-9.502c6.765-1.508,13.951-0.901,20.83-1.176
			c7.053-0.279,13.815-1.949,20.629-3.695c7.365-1.89,14.645-4.104,21.983-6.096c3.826-1.037,7.582-2.246,11.104-3.943l-0.287-1.146
			c-4.473,1.79-9.15,3.027-13.869,4.159c-6.979,1.674-13.883,3.625-20.877,5.236c-7.037,1.621-13.91,2.873-21.154,2.756
			c-6.454-0.104-12.793-0.545-19.191,0.57c-6.36,1.109-11.669,4.607-17.149,7.793c-6.731,3.912-13.6,6.646-21.168,8.477
			c-5.664,1.367-11.354,2.072-17.058,2.523l0.891,3.562c5.283-0.562,10.513-1.355,15.591-2.35
			C64.519,123.918,71.184,121.489,77.527,118.125z"/>
	</g>
</g>
<g>
	<g>
		<path fill="#B1804A" d="M160.64,102.724c-3.707,0.767-7.229,2.731-10.761,4.055c-3.72,1.394-7.481,2.454-11.325,3.443
			c-7.75,2-15.465,4.144-23.221,6.129c-2.219,0.565-4.445,1.106-6.677,1.619c0.556-0.502,1.056-1.038,1.463-1.618
			c0.866-1.232-1.14-2.423-2-1.2c-1.892,2.685-6.108,3.997-9.356,4.845c-0.994,0.178-1.99,0.346-2.988,0.506
			c-2.889,0.17-7.172-0.138-3.611-2.318c4.242-2.596,10.561-4.35,15.465-5.246c0.247-0.045,0.204-0.465-0.049-0.441
			c-3.73,0.324-7.371,0.773-10.99,1.793c-2.354,0.66-7.901,1.936-8.228,5.074c-0.092,0.881,0.139,1.557,0.559,2.082
			c-2.722,0.321-5.398,0.646-8.099,1.393c-3.515,0.972-6.904,2.414-10.294,3.74c-7.215,2.82-14.342,3.551-21.928,4.725
			c-1.853,0.285-3.722,0.58-5.595,0.888l0.265,1.062c0.406-0.072,0.814-0.15,1.221-0.219c7.538-1.271,15.145-1.57,22.497-3.763
			c7.416-2.211,14.398-4.978,22.194-5.562c2.146-0.16,4.285-0.396,6.418-0.676c0.092-0.011,0.19-0.019,0.275-0.027
			c0.473-0.053,0.971-0.127,1.482-0.213c4.799-0.697,9.562-1.642,14.295-2.676c21.029-4.592,41.945-10.233,63.143-14.146
			l-1.547-6.194C168.958,100.782,164.726,101.877,160.64,102.724z"/>
	</g>
</g>
<g>
	<g>
		<path fill="#B1804A" d="M158.494,113.845c-6.853,1.42-13.542,3.53-20.345,5.165c-7.348,1.767-14.867,2.871-22.412,3.257
			c-7.328,0.375-14.264,0.729-21.328,2.89c-6.871,2.104-13.45,5.127-20.152,7.694c-7.078,2.712-14.612,3.974-21.883,6.06
			c-2.392,0.688-4.796,1.327-7.202,1.961l0.57,2.283c0.151,0.604,0.402,1.15,0.725,1.643c0.497-0.154,0.995-0.309,1.491-0.459
			c7.189-2.184,14.405-4.486,21.5-6.955c7.725-2.688,15.137-6.207,22.824-8.996c7.689-2.787,15.3-3.626,23.408-4.172
			c7.244-0.486,14.373-1.773,21.428-3.465c7.267-1.744,14.4-4.013,21.703-5.59c5.779-1.25,11.752-2.26,17.037-4.927l-0.295-1.187
			C170.123,111.452,164.345,112.631,158.494,113.845z"/>
	</g>
</g>
<g>
	<g>
		<path fill="#B1804A" d="M29.369,68.974c7.359-1.056,14.782-1.509,22.069-3.044c7.283-1.533,14.277-4.502,21.16-7.264
			c14.455-5.799,28.892-10.728,43.967-14.668c0.666-0.174,1.336-0.337,2.006-0.501l-0.489-1.261
			c-12.911,3.055-25.979,5.887-38.548,10.088c-6.939,2.319-13.828,4.762-20.831,6.896c-7.057,2.149-14.146,3.085-21.48,3.667
			c-3.532,0.28-6.986,0.555-10.423,1.143c-0.265,0.888-0.307,1.853-0.065,2.815l0.643,2.575
			C28.112,69.216,28.786,69.058,29.369,68.974z"/>
	</g>
</g>
<g>
	<g>
		<path fill="#B1804A" d="M131.884,40.827l-0.671-1.483c-3.112,0.631-6.222,1.287-9.317,2.037c-0.31,0.074-0.621,0.146-0.931,0.221
			l0.123,1.358C124.661,42.155,128.269,41.47,131.884,40.827z"/>
	</g>
</g>
<g>
	<g>
		<path fill="#B1804A" d="M157.271,35.806l-0.312-1.252c-4.661,0.354-9.361,1.545-13.848,2.443
			c-2.457,0.492-4.914,0.969-7.373,1.447l0.232,1.666C143.126,38.872,150.286,37.649,157.271,35.806z"/>
	</g>
</g>
<g>
	<g>
		<g>
			<path fill="#C49E84" d="M107.88,146.875c-2.318-7.154-4.664-14.819-5.406-22.43l-2.365,0.592l10.884,43.569l0.774,0.325
				c-0.312-2.574-0.438-5.194-0.765-7.627C110.337,156.356,109.421,151.629,107.88,146.875z"/>
		</g>
	</g>
	<g>
		<g>
			<path fill="#C49E84" d="M117.933,120.584l-1.938,0.484c0.226,8.819,1.003,18.059,3.567,26.497
				c2.064,6.796,4.736,13.45,6.144,20.414l3.108-3.825L117.933,120.584z"/>
		</g>
	</g>
	<g>
		<g>
			<path fill="#C49E84" d="M119.554,159.088c-1.285-6.197-3.865-10.922-6.841-16.396c-2.534-4.662-5.042-8.867-6.458-14.031
				c-0.424-1.546-0.956-3.156-1.467-4.793l-1.752,0.438c1.513,8.907,5.82,16.522,9.354,24.919c1.85,4.393,3.053,8.844,3.782,13.552
				c0.433,2.788,1.134,5.731,1.481,8.638l3.918,1.651l0.648-0.799C121.133,167.918,120.468,163.502,119.554,159.088z"/>
		</g>
	</g>
	<g>
		<g>
			<path fill="#C49E84" d="M113.083,121.795l-3.532,0.884c0.513,2.164,0.927,4.329,1.404,6.249
				c1.429,5.748,2.069,11.398,4.665,16.797c2.32,4.824,3.913,9.324,4.843,14.625c0.675,3.847,1.25,7.712,2.077,11.523l2.711-3.334
				c-2.52-7.799-5.445-15.463-7.836-23.301C115.122,137.724,113.7,129.67,113.083,121.795z"/>
		</g>
	</g>
	<g>
		<g>
			<path fill="#B1804A" d="M112.39,149.225c-3.531-8.396-7.841-16.012-9.354-24.919l-0.562,0.141
				c0.742,7.609,3.088,15.274,5.406,22.429c1.541,4.754,2.457,9.481,3.122,14.432c0.326,2.433,0.453,5.053,0.765,7.627l5.887,2.48
				c-0.348-2.904-1.049-5.85-1.48-8.638C115.442,158.068,114.237,153.616,112.39,149.225z"/>
		</g>
	</g>
	<g>
		<g>
			<path fill="#B1804A" d="M115.62,145.725c-2.596-5.396-3.236-11.049-4.665-16.797c-0.478-1.92-0.894-4.085-1.404-6.249
				l-4.763,1.188c0.511,1.637,1.043,3.248,1.467,4.793c1.416,5.164,3.924,9.369,6.458,14.031c2.976,5.475,5.556,10.198,6.841,16.396
				c0.914,4.414,1.579,8.83,2.668,13.179l0.318-0.394c-0.827-3.812-1.402-7.678-2.077-11.523
				C119.533,155.049,117.94,150.549,115.62,145.725z"/>
		</g>
	</g>
	<g>
		<g>
			<path fill="#B1804A" d="M119.562,147.566c-2.563-8.438-3.342-17.678-3.566-26.497l-2.911,0.727
				c0.617,7.875,2.039,15.929,4.332,23.443c2.392,7.838,5.315,15.502,7.836,23.301l0.454-0.56
				C124.299,161.017,121.627,154.362,119.562,147.566z"/>
		</g>
	</g>
</g>
<g>
	<g>
		<circle fill="#3D3D3B" cx="110.955" cy="128.927" r="2.765"/>
	</g>
</g>
<g>
	<g>
		<path fill="#676767" d="M110.244,131.338c-0.151,0-0.306-0.033-0.448-0.105c-0.492-0.248-0.691-0.85-0.443-1.343l1.42-2.822
			c0.248-0.493,0.851-0.692,1.343-0.444c0.493,0.248,0.692,0.851,0.444,1.344l-1.42,2.822
			C110.963,131.138,110.61,131.338,110.244,131.338z"/>
	</g>
</g>
<g opacity="0.9">
	<g>
		<path fill="#FFFFFF" d="M66.879,108.492l3.54-0.886l-4.399-17.614l-4.415,4.393l-1.936-7.75l7.941-7.804l3.241-0.761l6.918,27.702
			l3.563-0.89l1.524,6.103l-14.453,3.61L66.879,108.492z"/>
	</g>
	<g>
		<path fill="#FFFFFF" d="M99.035,107.275c-2.378,0.593-4.505,0.66-6.386,0.197c-1.882-0.459-3.538-1.327-4.969-2.604
			c-1.43-1.272-2.648-2.894-3.653-4.862c-1.002-1.961-1.804-4.149-2.405-6.553c-0.593-2.375-0.922-4.67-0.987-6.886
			c-0.065-2.216,0.225-4.244,0.869-6.086c0.644-1.84,1.69-3.428,3.139-4.769c1.447-1.338,3.389-2.313,5.823-2.921
			c2.404-0.6,4.557-0.657,6.452-0.168s3.56,1.381,4.989,2.682c1.427,1.298,2.636,2.934,3.624,4.903
			c0.988,1.967,1.777,4.132,2.368,6.491c0.597,2.392,0.916,4.699,0.959,6.919c0.041,2.224-0.267,4.242-0.924,6.063
			c-0.657,1.818-1.711,3.394-3.161,4.72C103.321,105.72,101.407,106.68,99.035,107.275z M97.326,100.438
			c1.32-0.331,2.306-0.855,2.951-1.578c0.65-0.722,1.065-1.6,1.25-2.632c0.183-1.029,0.175-2.199-0.026-3.507
			c-0.199-1.304-0.485-2.707-0.861-4.209c-0.367-1.468-0.768-2.824-1.204-4.062c-0.435-1.24-0.976-2.281-1.617-3.121
			c-0.644-0.842-1.422-1.432-2.335-1.772c-0.913-0.337-2.023-0.345-3.329-0.02c-1.322,0.332-2.31,0.861-2.963,1.59
			c-0.653,0.732-1.07,1.622-1.25,2.668c-0.181,1.046-0.176,2.221,0.017,3.521c0.19,1.301,0.47,2.684,0.838,4.155
			c0.374,1.5,0.783,2.872,1.229,4.12c0.444,1.245,0.988,2.28,1.628,3.105s1.414,1.406,2.326,1.737
			C94.888,100.767,96.004,100.767,97.326,100.438z"/>
	</g>
	<g>
		<path fill="#FFFFFF" d="M131.613,73.846c-0.872-0.901-2.008-1.593-3.404-2.071c-1.396-0.48-2.866-0.528-4.411-0.142
			c-0.728,0.183-1.404,0.456-2.029,0.826c-0.626,0.372-1.186,0.81-1.682,1.321c-0.495,0.509-0.94,1.08-1.334,1.715
			c-0.394,0.636-0.71,1.322-0.951,2.061l10.489-2.62l-1.693,7.14l-8.931,2.231c0.064,0.252,0.122,0.482,0.174,0.69
			c0.051,0.206,0.126,0.432,0.217,0.679l10.977-2.741l-1.693,7.141l-5.032,1.256c0.995,0.698,2.061,1.161,3.197,1.389
			c1.14,0.231,2.316,0.192,3.533-0.112c0.876-0.219,1.666-0.571,2.375-1.053c0.708-0.486,1.322-1.042,1.843-1.667
			c0.522-0.629,0.939-1.312,1.252-2.051c0.312-0.742,0.518-1.48,0.616-2.215l7.674,0.214c-0.099,1.568-0.44,3.083-1.031,4.541
			c-0.59,1.456-1.393,2.794-2.403,4.018c-1.013,1.224-2.236,2.288-3.673,3.199c-1.438,0.908-3.068,1.594-4.893,2.052
			c-2.285,0.57-4.537,0.646-6.756,0.23c-2.217-0.415-4.256-1.23-6.112-2.446c-1.857-1.217-3.477-2.786-4.854-4.702
			c-1.378-1.918-2.372-4.097-2.981-6.531c-0.599-2.403-0.741-4.774-0.427-7.107c0.316-2.336,1.008-4.477,2.075-6.422
			c1.067-1.948,2.481-3.625,4.243-5.036c1.761-1.411,3.785-2.401,6.07-2.972c0.877-0.219,1.791-0.36,2.745-0.425
			c0.952-0.065,1.888-0.05,2.802,0.045c0.914,0.094,1.812,0.252,2.687,0.476c0.876,0.226,1.679,0.496,2.405,0.821l3.919-0.979
			l1.88,7.528L131.613,73.846z"/>
	</g>
</g>
<g>
	<g>
		<path fill="#7D3E56" d="M40.979,62.48c-0.545,0-0.99-0.437-1-0.983c-0.012-0.688-0.135-1.575-0.658-1.897
			c-0.651-0.402-1.85,0.017-2.219,0.193c-0.358,0.172-0.787,0.117-1.088-0.143c-0.302-0.26-0.423-0.672-0.305-1.053l4.314-13.95
			c0.163-0.526,0.72-0.821,1.251-0.659c0.527,0.163,0.822,0.723,0.659,1.251l-3.777,12.213c0.7-0.065,1.495,0.005,2.204,0.439
			c1.044,0.638,1.589,1.84,1.618,3.572c0.009,0.552-0.431,1.007-0.983,1.017H40.979z"/>
	</g>
	<g>
		<path fill="#7D3E56" d="M44.52,61.313c-0.501,0-0.934-0.376-0.992-0.886c-0.111-0.965-0.512-1.296-0.803-1.461
			c-1.323-0.749-4.037,0.174-4.884,0.557c-0.504,0.228-1.096,0.003-1.323-0.499c-0.228-0.503-0.004-1.096,0.499-1.323
			c0.429-0.193,4.26-1.853,6.694-0.475c0.713,0.404,1.604,1.248,1.803,2.973c0.063,0.549-0.33,1.045-0.879,1.107
			C44.596,61.312,44.558,61.313,44.52,61.313z"/>
	</g>
	<g>
		<path fill="#7D3E56" d="M50.314,60.232c-0.545,0-0.99-0.437-1-0.983c-0.012-0.688-0.135-1.575-0.658-1.897
			c-0.651-0.403-1.851,0.017-2.219,0.193c-0.358,0.171-0.787,0.117-1.088-0.143c-0.302-0.26-0.423-0.672-0.305-1.053l4.314-13.95
			c0.163-0.527,0.724-0.822,1.251-0.659c0.527,0.163,0.822,0.723,0.659,1.251l-3.777,12.213c0.701-0.067,1.495,0.006,2.204,0.439
			c1.044,0.638,1.589,1.84,1.618,3.572c0.009,0.552-0.431,1.007-0.983,1.017C50.325,60.232,50.32,60.232,50.314,60.232z"/>
	</g>
	<g>
		<path fill="#7D3E56" d="M53.855,59.065c-0.501,0-0.934-0.376-0.992-0.886c-0.111-0.965-0.512-1.296-0.803-1.461
			c-1.323-0.749-4.037,0.173-4.884,0.557c-0.504,0.229-1.097,0.004-1.323-0.499c-0.228-0.503-0.004-1.096,0.499-1.323
			c0.429-0.193,4.26-1.854,6.694-0.475c0.713,0.404,1.604,1.248,1.803,2.973c0.063,0.549-0.33,1.045-0.879,1.107
			C53.932,59.063,53.894,59.065,53.855,59.065z"/>
	</g>
	<g>
		<g>
			<path fill="#66BB8D" d="M21.962,23.386L13.373,7.86l6.901,2.669c0,0-0.427-4.92-0.094-8.258c0,0,4.186,4.95,6.445,7.372
				c0,0-0.01-6.077,1.626-9.644c0,0,2.058,10.185,7.881,21.61L21.962,23.386z"/>
		</g>
		<g>
			<path fill="#66BB8D" d="M62.176,33.444c0,0-0.151,10.14-13.857,13.487c-13.706,3.347-20.536-10.37-21.437-14.843
				C25.981,27.617,62.176,33.444,62.176,33.444z"/>
		</g>
		<g>
			<path fill="#9ED1B9" d="M58.409,29.177c0,0-16.297-16.8-40.282-3.919C18.127,25.258,40.085,56.22,58.409,29.177z"/>
		</g>
		<g>
			<circle fill="#66BB8D" cx="63.572" cy="25.873" r="11.25"/>
		</g>
		<g>
			<path fill="#F9B334" d="M65.707,37.098l5.251,2.548l1.044-6.33C72.002,33.315,66.965,31.269,65.707,37.098z"/>
		</g>
	</g>
	<g>
		<circle fill="#7D3E56" cx="62.176" cy="31.933" r="1.034"/>
	</g>
	<g>
		<circle fill="#7D3E56" cx="72.002" cy="29.864" r="1.034"/>
	</g>
</g>
</svg>
