<?xml version="1.0" encoding="utf-8"?>
<!-- Generator: Adobe Illustrator 16.0.0, SVG Export Plug-In . SVG Version: 6.00 Build 0)  -->
<!DOCTYPE svg PUBLIC "-//W3C//DTD SVG 1.1//EN" "http://www.w3.org/Graphics/SVG/1.1/DTD/svg11.dtd">
<svg version="1.1" id="Capa_1" xmlns="http://www.w3.org/2000/svg" xmlns:xlink="http://www.w3.org/1999/xlink" x="0px" y="0px"
	 width="119.822px" height="38.833px" viewBox="0 0 119.822 38.833" enable-background="new 0 0 119.822 38.833"
	 xml:space="preserve">
<g>
	<g>
		<path fill="#3C5B99" d="M119.822,34.833c0,2.209-1.79,4-4,4H4c-2.209,0-4-1.791-4-4V4c0-2.209,1.791-4,4-4h111.822
			c2.21,0,4,1.791,4,4V34.833z"/>
	</g>
	<g>
		<path fill="#FFFFFF" d="M21.363,21.305l0.551-4.272h-4.231v-2.728c0-1.237,0.346-2.081,2.119-2.081l2.261-0.001V8.403
			c-0.391-0.054-1.731-0.17-3.296-0.17c-3.263,0-5.493,1.991-5.493,5.648v3.15h-3.69v4.272h3.69v10.962h4.409V21.305H21.363z"/>
	</g>
	<g>
		<path fill="#FFFFFF" d="M41.03,17.307c0-0.11,0.021-0.215,0.066-0.314c0.044-0.1,0.104-0.187,0.178-0.26
			c0.074-0.074,0.162-0.135,0.264-0.178c0.102-0.045,0.209-0.067,0.323-0.067c0.11,0,0.215,0.022,0.314,0.067
			c0.099,0.043,0.187,0.104,0.26,0.178c0.074,0.073,0.134,0.16,0.178,0.26c0.045,0.1,0.067,0.204,0.067,0.314
			c0,0.113-0.022,0.222-0.067,0.323c-0.044,0.102-0.104,0.191-0.178,0.271c-0.073,0.078-0.161,0.139-0.26,0.184
			c-0.1,0.045-0.204,0.066-0.314,0.066c-0.114,0-0.222-0.021-0.323-0.066s-0.189-0.105-0.264-0.184
			c-0.074-0.079-0.134-0.169-0.178-0.271C41.052,17.528,41.03,17.42,41.03,17.307z M41.29,19.299h1.13l0.261,7.408h-1.65
			L41.29,19.299z"/>
		<path fill="#FFFFFF" d="M51.757,16.633c-0.283-0.482-0.658-0.861-1.126-1.136s-0.989-0.413-1.565-0.413
			c-0.49,0-0.939,0.104-1.346,0.312s-0.754,0.485-1.044,0.835S46.161,16.983,46,17.443c-0.161,0.459-0.241,0.941-0.241,1.449
			c0,0.602,0.089,1.133,0.267,1.598c0.178,0.463,0.409,0.848,0.695,1.154c0.285,0.307,0.625,0.562,1.019,0.768
			c0.394,0.206,0.836,0.309,1.326,0.309c0.669,0,1.251-0.162,1.746-0.486c0.495-0.322,0.918-0.855,1.27-1.596l1.117,0.527
			c-0.16,0.457-0.434,0.898-0.818,1.322c-0.386,0.426-0.86,0.77-1.426,1.029c-0.564,0.26-1.189,0.391-1.875,0.391
			c-0.656,0-1.26-0.125-1.81-0.371c-0.55-0.248-1.04-0.601-1.47-1.058s-0.758-0.999-0.983-1.625c-0.227-0.626-0.34-1.28-0.34-1.962
			c0-0.686,0.113-1.332,0.34-1.941c0.226-0.609,0.544-1.141,0.952-1.59c0.408-0.451,0.895-0.807,1.46-1.066
			c0.564-0.262,1.177-0.391,1.837-0.391c0.589,0,1.097,0.083,1.523,0.25c0.428,0.168,0.791,0.366,1.089,0.598
			c0.299,0.23,0.556,0.48,0.771,0.752h0.673v1.129H51.757z"/>
		<path fill="#FFFFFF" d="M54.144,20.43c0.005-0.521,0.088-0.995,0.252-1.422c0.162-0.428,0.39-0.795,0.682-1.102
			s0.639-0.543,1.041-0.708s0.844-0.247,1.326-0.247c0.487,0,0.933,0.082,1.336,0.247c0.404,0.165,0.751,0.399,1.039,0.702
			c0.287,0.302,0.512,0.667,0.672,1.094c0.161,0.428,0.242,0.902,0.242,1.422c0,0.513-0.081,0.983-0.242,1.412
			c-0.16,0.43-0.385,0.799-0.672,1.108c-0.288,0.31-0.635,0.55-1.039,0.72c-0.403,0.172-0.849,0.258-1.336,0.258
			c-0.494,0-0.943-0.084-1.346-0.254c-0.401-0.17-0.746-0.407-1.034-0.715c-0.288-0.307-0.513-0.674-0.673-1.101
			S54.148,20.945,54.144,20.43z M55.395,20.43c0,0.376,0.054,0.717,0.161,1.021c0.109,0.305,0.257,0.564,0.445,0.777
			c0.188,0.214,0.406,0.379,0.654,0.496c0.246,0.115,0.51,0.174,0.789,0.174c0.293,0,0.564-0.057,0.816-0.172
			c0.252-0.113,0.471-0.277,0.656-0.492c0.187-0.213,0.332-0.473,0.438-0.777s0.159-0.646,0.159-1.027
			c0-0.398-0.053-0.752-0.159-1.061s-0.251-0.566-0.435-0.774s-0.403-0.364-0.657-0.47s-0.526-0.158-0.819-0.158
			c-0.279,0-0.543,0.053-0.789,0.158c-0.248,0.105-0.467,0.262-0.654,0.47c-0.188,0.208-0.336,0.466-0.445,0.774
			C55.448,19.678,55.395,20.031,55.395,20.43z"/>
		<path fill="#FFFFFF" d="M62.009,17.141h2.095v0.769h0.013c0.145-0.122,0.295-0.237,0.454-0.347
			c0.158-0.107,0.325-0.201,0.498-0.281c0.173-0.081,0.354-0.145,0.543-0.191c0.188-0.046,0.384-0.069,0.587-0.069
			c0.475,0,0.883,0.088,1.225,0.263c0.344,0.176,0.607,0.45,0.794,0.822c0.161-0.144,0.33-0.281,0.508-0.416
			c0.178-0.133,0.362-0.248,0.556-0.346c0.192-0.097,0.395-0.176,0.605-0.234c0.212-0.059,0.432-0.089,0.66-0.089
			c0.355,0,0.676,0.049,0.959,0.146c0.283,0.098,0.525,0.246,0.724,0.445c0.198,0.198,0.351,0.453,0.454,0.764
			c0.104,0.312,0.155,0.679,0.155,1.102v3.148h0.914v1.092H70.68v-1.092h0.927v-3.002c0-0.504-0.127-0.885-0.381-1.146
			c-0.254-0.26-0.62-0.39-1.098-0.39c-0.284,0-0.574,0.067-0.87,0.203s-0.55,0.307-0.762,0.515v3.82h0.907v1.092h-3.065v-1.092
			h0.927v-3.002c0-0.504-0.128-0.885-0.384-1.146c-0.257-0.26-0.624-0.39-1.102-0.39c-0.274,0-0.552,0.065-0.831,0.196
			c-0.279,0.132-0.545,0.295-0.794,0.489v3.853h0.927v1.092h-3.072v-1.092h0.914v-4.393h-0.914V17.141z"/>
		<path fill="#FFFFFF" d="M74.761,17.141h2.096v0.547c0.279-0.217,0.584-0.388,0.914-0.515s0.67-0.19,1.021-0.19
			c0.432,0,0.827,0.08,1.188,0.241c0.359,0.161,0.669,0.388,0.93,0.679c0.26,0.293,0.462,0.643,0.605,1.051
			c0.145,0.408,0.217,0.86,0.217,1.355c0,0.529-0.081,1.012-0.242,1.447c-0.16,0.436-0.384,0.809-0.669,1.121
			c-0.286,0.311-0.626,0.553-1.019,0.727c-0.395,0.173-0.826,0.26-1.295,0.26c-0.335,0-0.632-0.035-0.893-0.105
			c-0.26-0.068-0.509-0.159-0.746-0.27v2.127h1.029v1.092h-3.123v-1.092h0.9v-7.383h-0.914V17.141z M78.481,18.023
			c-0.305,0-0.598,0.062-0.88,0.184c-0.281,0.123-0.525,0.293-0.733,0.508v3.562c0.141,0.144,0.34,0.272,0.601,0.388
			c0.26,0.113,0.585,0.171,0.974,0.171c0.271,0,0.531-0.053,0.781-0.159c0.25-0.105,0.47-0.264,0.66-0.473s0.343-0.469,0.457-0.777
			s0.172-0.666,0.172-1.072c0-0.373-0.055-0.703-0.162-0.99c-0.108-0.288-0.254-0.531-0.438-0.73
			c-0.184-0.199-0.398-0.35-0.644-0.453C79.022,18.075,78.761,18.023,78.481,18.023z"/>
		<path fill="#FFFFFF" d="M86.815,23.107c-0.25,0.233-0.525,0.424-0.828,0.572c-0.303,0.147-0.646,0.222-1.031,0.222
			c-0.322,0-0.617-0.051-0.887-0.152c-0.268-0.102-0.5-0.24-0.694-0.415c-0.194-0.176-0.347-0.381-0.454-0.613
			s-0.162-0.48-0.162-0.742c0-0.279,0.041-0.527,0.125-0.743c0.082-0.216,0.191-0.403,0.33-0.562c0.137-0.158,0.297-0.293,0.482-0.4
			c0.184-0.107,0.376-0.194,0.576-0.26c0.201-0.066,0.406-0.112,0.617-0.141c0.209-0.027,0.408-0.041,0.6-0.041
			c0.305,0,0.561,0.01,0.768,0.029s0.396,0.045,0.564,0.079l0.007-0.54c0-0.232-0.034-0.434-0.102-0.605s-0.163-0.313-0.286-0.426
			c-0.122-0.111-0.27-0.195-0.441-0.25c-0.17-0.056-0.362-0.083-0.574-0.083c-0.198,0-0.389,0.014-0.57,0.042
			c-0.183,0.027-0.354,0.062-0.512,0.107s-0.305,0.096-0.438,0.152s-0.246,0.117-0.34,0.181l-0.387-0.819
			c0.156-0.102,0.328-0.195,0.514-0.281c0.186-0.088,0.382-0.162,0.588-0.223c0.205-0.062,0.414-0.11,0.627-0.146
			c0.215-0.035,0.425-0.054,0.633-0.054c0.381,0,0.723,0.046,1.027,0.136c0.305,0.092,0.563,0.232,0.775,0.423
			c0.211,0.19,0.374,0.433,0.488,0.728c0.114,0.293,0.172,0.646,0.172,1.057l-0.007,3.287h0.729v1.092h-1.91V23.107z M85.216,22.911
			c0.156,0,0.312-0.019,0.47-0.058c0.157-0.037,0.305-0.09,0.444-0.154c0.14-0.066,0.269-0.143,0.387-0.229
			c0.119-0.088,0.219-0.178,0.299-0.271l0.006-1.485H85.45c-0.229,0-0.437,0.025-0.625,0.076c-0.188,0.051-0.352,0.125-0.488,0.223
			c-0.138,0.097-0.244,0.217-0.32,0.361s-0.115,0.309-0.115,0.495c0,0.173,0.032,0.325,0.096,0.454s0.153,0.236,0.27,0.324
			c0.117,0.086,0.256,0.152,0.416,0.195C84.843,22.889,85.021,22.911,85.216,22.911z"/>
		<path fill="#FFFFFF" d="M94.788,18.531h-1.206v-0.406c-0.14,0-0.282,0.026-0.429,0.08c-0.146,0.053-0.282,0.133-0.409,0.24
			s-0.237,0.246-0.333,0.412c-0.096,0.168-0.164,0.365-0.207,0.594v3.174h1.117v1.092H90.06v-1.092h0.907l0.007-4.393H90.06v-1.092
			h2.101v0.908c0.076-0.135,0.161-0.262,0.257-0.377c0.096-0.117,0.201-0.219,0.318-0.305c0.115-0.088,0.244-0.155,0.387-0.203
			c0.142-0.049,0.295-0.074,0.46-0.074c0.22,0,0.427,0,0.622,0s0.389,0.005,0.584,0.014V18.531z"/>
		<path fill="#FFFFFF" d="M98.058,17.141H99.6V18.1h-1.556l-0.019,3.796c0,0.259,0.03,0.468,0.089,0.628
			c0.059,0.161,0.154,0.272,0.285,0.334c0.132,0.061,0.279,0.092,0.445,0.092c0.178,0,0.334-0.016,0.469-0.047
			c0.136-0.033,0.284-0.086,0.445-0.162l0.272,0.793c-0.203,0.105-0.417,0.189-0.642,0.25c-0.224,0.062-0.488,0.093-0.793,0.093
			c-0.287,0-0.539-0.034-0.752-0.104c-0.214-0.07-0.395-0.188-0.539-0.353c-0.146-0.165-0.256-0.386-0.328-0.663
			c-0.071-0.277-0.107-0.623-0.107-1.038l0.02-3.618h-1.048v-0.959h1.06v-1.574l1.156-0.545V17.141z"/>
		<path fill="#FFFFFF" d="M102.106,20.582c0,0.186,0.014,0.355,0.041,0.51c0.028,0.155,0.067,0.303,0.118,0.441
			c0.157,0.424,0.407,0.742,0.753,0.955c0.344,0.215,0.734,0.321,1.17,0.321c0.344,0,0.676-0.048,1-0.144
			c0.324-0.094,0.664-0.244,1.02-0.447l0.476,0.807c-0.432,0.297-0.865,0.516-1.302,0.66c-0.436,0.145-0.889,0.216-1.357,0.216
			c-0.445,0-0.856-0.074-1.234-0.222c-0.379-0.148-0.705-0.369-0.979-0.66c-0.273-0.293-0.486-0.656-0.641-1.092
			c-0.154-0.437-0.232-0.944-0.232-1.523c0-0.471,0.066-0.914,0.197-1.33c0.131-0.417,0.326-0.781,0.588-1.092
			c0.26-0.311,0.582-0.558,0.967-0.74c0.386-0.182,0.834-0.272,1.346-0.272c0.496,0,0.909,0.075,1.242,0.226
			c0.332,0.15,0.602,0.35,0.812,0.596c0.209,0.248,0.367,0.531,0.475,0.848c0.109,0.318,0.184,0.642,0.227,0.972
			c0.021,0.161,0.035,0.323,0.041,0.489c0.006,0.164,0.01,0.325,0.01,0.482H102.106z M103.954,17.96
			c-0.275,0-0.516,0.039-0.721,0.118c-0.205,0.078-0.379,0.189-0.523,0.336s-0.26,0.324-0.346,0.536
			c-0.087,0.212-0.151,0.448-0.193,0.711h3.408c-0.018-0.245-0.057-0.472-0.117-0.679c-0.062-0.208-0.156-0.388-0.283-0.54
			s-0.289-0.271-0.488-0.355S104.246,17.96,103.954,17.96z"/>
		<path fill="#FFFFFF" d="M109.153,13.707h1.65l-0.261,7.408h-1.13L109.153,13.707z M109.153,22.949
			c0-0.109,0.021-0.215,0.066-0.314c0.044-0.1,0.104-0.186,0.178-0.26s0.162-0.133,0.264-0.178s0.209-0.066,0.323-0.066
			c0.11,0,0.215,0.021,0.314,0.066c0.099,0.045,0.187,0.104,0.26,0.178c0.074,0.074,0.134,0.16,0.178,0.26
			c0.045,0.1,0.067,0.205,0.067,0.314c0,0.114-0.022,0.223-0.067,0.324c-0.044,0.102-0.104,0.191-0.178,0.27
			c-0.073,0.078-0.161,0.139-0.26,0.184c-0.1,0.045-0.204,0.066-0.314,0.066c-0.114,0-0.222-0.021-0.323-0.066
			s-0.189-0.105-0.264-0.184s-0.134-0.168-0.178-0.27C109.175,23.172,109.153,23.063,109.153,22.949z"/>
	</g>
	<g>
		<path fill="#9A9999" d="M32.904,33.5c-0.276,0-0.5-0.224-0.5-0.5V8.233c0-0.276,0.224-0.5,0.5-0.5s0.5,0.224,0.5,0.5V33
			C33.404,33.276,33.181,33.5,32.904,33.5z"/>
	</g>
</g>
</svg>
