<?xml version="1.0" encoding="utf-8"?>
<!-- Generator: Adobe Illustrator 16.0.0, SVG Export Plug-In . SVG Version: 6.00 Build 0)  -->
<!DOCTYPE svg PUBLIC "-//W3C//DTD SVG 1.1//EN" "http://www.w3.org/Graphics/SVG/1.1/DTD/svg11.dtd">
<svg version="1.1" id="Capa_1" xmlns="http://www.w3.org/2000/svg" xmlns:xlink="http://www.w3.org/1999/xlink" x="0px" y="0px"
	 width="79.447px" height="79.446px" viewBox="0 0 79.447 79.446" enable-background="new 0 0 79.447 79.446" xml:space="preserve">
<circle fill="#1A1A1A" cx="39.723" cy="39.723" r="39.723"/>
<g>
	<path fill="#FFFFFF" d="M57.697,42.841L39.011,25.093L21.345,42.702c0,0,0,5.434,0,11.972c0,6.54,11.775,6.229,11.775,6.229
		l0.115-11.521h12.91v11.521c12.867,0.188,11.552-5.915,11.552-5.915V42.841z"/>
	<path fill="#FFFFFF" d="M63.92,35.753c-3.149-3.421-20.763-19.457-20.763-19.457s-4.434-3.419-8.164,0
		c-3.909,3.583-18.656,17.618-18.656,17.618s-4.467,3.799,0.548,7.86l22.074-21.59l22.979,21.663
		C61.938,41.846,67.07,39.174,63.92,35.753z"/>
</g>
</svg>
