<?xml version="1.0" encoding="utf-8"?>
<!-- Generator: Adobe Illustrator 16.0.0, SVG Export Plug-In . SVG Version: 6.00 Build 0)  -->
<!DOCTYPE svg PUBLIC "-//W3C//DTD SVG 1.1//EN" "http://www.w3.org/Graphics/SVG/1.1/DTD/svg11.dtd">
<svg version="1.1" id="Capa_1" xmlns="http://www.w3.org/2000/svg" xmlns:xlink="http://www.w3.org/1999/xlink" x="0px" y="0px"
	 width="79.446px" height="79.446px" viewBox="0 0 79.446 79.446" enable-background="new 0 0 79.446 79.446" xml:space="preserve">
<g>
	<circle fill="#1A1A1A" cx="39.723" cy="39.723" r="39.723"/>
	<g>
		<path fill="#FFFFFF" d="M39.895,66.767c-3.027,0-5.424-2.579-5.424-5.635c0-3.178,2.396-5.696,5.424-5.696
			c2.969,0,5.366,2.519,5.366,5.696C45.261,64.188,42.864,66.767,39.895,66.767z"/>
		<path fill="#FFFFFF" d="M48.345,40.352c-1.486,1.139-2.975,3.542-3.887,6.938c-0.363,1.359-1.654,3.237-4.452,3.237
			c-2.74,0-5.195-2.098-5.195-5.336c0-1.258,0.849-4.816,2.184-6.76c0.549-0.795,2.064-2.791,4.042-4.374
			c1.432-1.147,3.598-2.698,3.598-5.037c0-1.198-0.686-2.098-1.143-2.517c-0.686-0.66-1.713-1.26-3.825-1.26
			c-1.771,0-3.54,0.48-4.738,1.799c-0.457,0.479-0.514,0.659-1.2,2.158c-0.514,1.318-1.826,3.416-4.567,3.416
			c-2.797,0-4.795-2.338-4.795-5.395c0-2.758,2.055-6.536,5.595-8.753c2.513-1.559,6.224-2.578,9.819-2.578
			c7.479,0,10.448,2.758,12.104,4.496c1.541,1.679,3.197,4.017,3.197,8.453C55.081,34.956,50.913,38.372,48.345,40.352z"/>
	</g>
</g>
</svg>
