<?xml version="1.0" encoding="utf-8"?>
<!-- Generator: Adobe Illustrator 16.0.0, SVG Export Plug-In . SVG Version: 6.00 Build 0)  -->
<!DOCTYPE svg PUBLIC "-//W3C//DTD SVG 1.1//EN" "http://www.w3.org/Graphics/SVG/1.1/DTD/svg11.dtd">
<svg version="1.1" id="Capa_1" xmlns="http://www.w3.org/2000/svg" xmlns:xlink="http://www.w3.org/1999/xlink" x="0px" y="0px"
	 width="79.447px" height="79.446px" viewBox="0 0 79.447 79.446" enable-background="new 0 0 79.447 79.446" xml:space="preserve">
<circle fill="#1A1A1A" cx="39.724" cy="39.723" r="39.723"/>
<path fill="#FFFFFF" d="M64.688,23.963c-1.837,0.815-3.811,1.365-5.883,1.613c2.115-1.268,3.739-3.275,4.504-5.668
	c-1.979,1.174-4.171,2.026-6.505,2.486c-1.868-1.99-4.531-3.234-7.477-3.234c-5.657,0-10.244,4.586-10.244,10.243
	c0,0.803,0.091,1.584,0.266,2.335c-8.514-0.428-16.062-4.505-21.114-10.704c-0.882,1.513-1.388,3.273-1.388,5.15
	c0,3.554,1.809,6.689,4.558,8.526c-1.679-0.054-3.26-0.514-4.64-1.282c-0.002,0.043-0.002,0.086-0.002,0.129
	c0,4.963,3.532,9.103,8.217,10.045c-0.859,0.233-1.764,0.359-2.699,0.359c-0.66,0-1.301-0.064-1.927-0.184
	c1.304,4.069,5.087,7.031,9.569,7.114c-3.506,2.747-7.922,4.385-12.722,4.385c-0.827,0-1.642-0.049-2.444-0.144
	c4.534,2.907,9.917,4.603,15.703,4.603c18.841,0,29.146-15.609,29.146-29.146c0-0.445-0.01-0.886-0.03-1.326
	C61.579,27.821,63.315,26.017,64.688,23.963z"/>
</svg>
