<?xml version="1.0" encoding="utf-8"?>
<!-- Generator: Adobe Illustrator 16.0.0, SVG Export Plug-In . SVG Version: 6.00 Build 0)  -->
<!DOCTYPE svg PUBLIC "-//W3C//DTD SVG 1.1//EN" "http://www.w3.org/Graphics/SVG/1.1/DTD/svg11.dtd">
<svg version="1.1" id="Capa_1" xmlns="http://www.w3.org/2000/svg" xmlns:xlink="http://www.w3.org/1999/xlink" x="0px" y="0px"
	 width="79.447px" height="79.446px" viewBox="0 0 79.447 79.446" enable-background="new 0 0 79.447 79.446" xml:space="preserve">
<circle fill="#1A1A1A" cx="39.724" cy="39.723" r="39.724"/>
<path id="Behance" fill="#FFFFFF" d="M57.203,30.051H46.337v-2.7h10.867L57.203,30.051L57.203,30.051z M39.104,41.118
	c0.701,1.086,1.051,2.405,1.051,3.952c0,1.601-0.395,3.037-1.199,4.306c-0.511,0.839-1.146,1.549-1.909,2.119
	c-0.859,0.661-1.876,1.113-3.045,1.355c-1.173,0.242-2.442,0.364-3.81,0.364H18.042V26.232h13.031
	c3.285,0.053,5.613,1.005,6.988,2.874c0.825,1.146,1.234,2.521,1.234,4.121c0,1.649-0.414,2.969-1.247,3.972
	c-0.463,0.562-1.148,1.074-2.055,1.535C37.366,39.236,38.408,40.028,39.104,41.118z M24.264,36.87h5.71
	c1.173,0,2.122-0.223,2.852-0.669c0.73-0.445,1.094-1.236,1.094-2.372c0-1.255-0.482-2.088-1.449-2.489
	c-0.832-0.279-1.895-0.422-3.185-0.422h-5.022V36.87z M34.47,44.685c0-1.402-0.573-2.371-1.716-2.891
	c-0.64-0.295-1.542-0.446-2.698-0.457h-5.792v7.191h5.702c1.172,0,2.079-0.154,2.733-0.474C33.878,47.466,34.47,46.347,34.47,44.685
	z M61.234,40.295c0.131,0.882,0.19,2.163,0.166,3.837H47.329c0.078,1.942,0.748,3.301,2.02,4.078
	c0.767,0.488,1.697,0.726,2.785,0.726c1.148,0,2.084-0.291,2.805-0.887c0.393-0.316,0.739-0.763,1.038-1.326h5.158
	c-0.135,1.147-0.756,2.311-1.873,3.493c-1.729,1.879-4.154,2.822-7.269,2.822c-2.572,0-4.84-0.795-6.809-2.379
	c-1.961-1.589-2.947-4.167-2.947-7.743c0-3.353,0.885-5.919,2.66-7.706c1.781-1.79,4.081-2.681,6.915-2.681
	c1.679,0,3.194,0.3,4.545,0.904c1.346,0.604,2.459,1.555,3.335,2.862C60.486,37.448,60.996,38.779,61.234,40.295z M56.157,40.799
	c-0.095-1.343-0.543-2.36-1.351-3.055c-0.8-0.696-1.801-1.046-2.994-1.046c-1.299,0-2.303,0.374-3.015,1.109
	c-0.718,0.733-1.164,1.73-1.347,2.992H56.157L56.157,40.799z"/>
</svg>
