<?xml version="1.0" encoding="utf-8"?>
<!-- Generator: Adobe Illustrator 16.0.0, SVG Export Plug-In . SVG Version: 6.00 Build 0)  -->
<!DOCTYPE svg PUBLIC "-//W3C//DTD SVG 1.1//EN" "http://www.w3.org/Graphics/SVG/1.1/DTD/svg11.dtd">
<svg version="1.1" id="Capa_1" xmlns="http://www.w3.org/2000/svg" xmlns:xlink="http://www.w3.org/1999/xlink" x="0px" y="0px"
	 width="178.551px" height="178.173px" viewBox="0 0 178.551 178.173" enable-background="new 0 0 178.551 178.173"
	 xml:space="preserve">
<g>
	<rect fill="#CDCCCC" width="178.551" height="178.173"/>
	<g>
		<path fill="#E6E6E6" d="M178.047,153.473c-0.436-0.809-0.412-1.705-0.007-2.273l-0.773-1.432l-2.86,2.287
			c-0.271-0.339-0.569-0.645-0.891-0.922c3.649,10.588,0.865,20.048-4.044,27.04h9.079v-24.035
			C178.358,153.952,178.186,153.729,178.047,153.473z"/>
		<polygon fill="#E6E6E6" points="178.551,149.673 178.551,148.741 178.199,149.022 		"/>
		<path fill="#E6E6E6" d="M33.122,160.449c-0.316-0.774-0.611-1.531-0.887-2.268c-7.756,0.965-15.179-3.996-17.092-11.772
			c-2.062-8.383,3.062-16.853,11.445-18.915l4.058-0.998c0.872-0.277,1.401-0.352,1.464-0.36l0.023-0.005
			c0.032-0.013,0.544-0.2,1.479-0.365l4.047-0.995c1.461-0.359,2.923-0.487,4.354-0.431c-0.255-19.918,4.349-37.521,4.349-37.521
			c0,13.072,8.184,24.228,19.704,28.641c0.004-14.494,9.838-18.496,16.701-19.527c-0.016,0.088-0.028,0.175-0.028,0.264
			c0,1.673,2.926,3.029,6.535,3.029c3.589,0,6.499-1.342,6.532-3.001c6.864,1.216,16.676,5.078,16.676,17.242v1.993
			c11.521-4.413,19.704-15.568,19.704-28.641c0-15.465-11.448-28.25-26.333-30.356C92.34,57.496,88.992,67.983,88.992,67.983
			c-4.431-9.731-12.409-11.362-15.505-11.622C62.862,57.584,53.89,64.23,49.415,73.468c-0.145,0.3-0.279,0.606-0.415,0.911
			c0.045-0.229,0.118-0.572,0.221-1.014c-2.043-1.1-20.269-11.695-20.269-39.7c0,0,19.471-1.461,42.292,0.569
			c2.987-3.348,6.352-6.755,10.168-10.164c0,0,2.823-3.149,6.819-3.149c3.997,0,6.615,3.149,6.615,3.149
			c8.707,7.148,15.194,13.889,20.028,19.979c1.945,0.964,3.708,1.992,5.309,3.072l2.528-3.813c-3.93-3.207-4.863-8.935-2.001-13.252
			l19.19-28.951l3.354,13.021c0.001,0,0.001,0,0.001,0l13.298-1.981l-19.19,28.951c-2.861,4.317-8.5,5.688-12.984,3.318
			l-2.562,3.863c16.847,12.622,13.23,31.353,10.369,38.542c2.128,15.584,2.552,28.574,1.753,39.409
			c0.286-0.063,0.451-0.087,0.484-0.092l0.023-0.005c0.032-0.013,0.544-0.2,1.479-0.365l4.047-0.995
			c8.383-2.062,16.853,3.064,18.914,11.448c0.396,1.61,0.522,3.223,0.415,4.794c1.603-0.691,3.319-0.884,4.957-0.62
			c1.062-1.707,1.358-3.834,0.71-5.812l3.479-1.138l-0.81-1.5c-0.698,0.027-1.46-0.445-1.897-1.253
			c-0.563-1.045-0.367-2.244,0.439-2.681c0.808-0.438,1.919,0.057,2.484,1.101c0.437,0.81,0.412,1.708,0.007,2.275l0.911,1.688
			l3.964-1.297l-0.834-1.544c-0.698,0.028-1.462-0.444-1.897-1.253c-0.565-1.043-0.369-2.244,0.439-2.68
			c0.808-0.437,1.919,0.058,2.482,1.102c0.438,0.809,0.413,1.707,0.008,2.274l0.935,1.73l3.726-1.218l-0.676-1.25
			c-0.698,0.028-1.463-0.444-1.898-1.253c-0.566-1.046-0.369-2.245,0.439-2.682c0.72-0.388,1.679-0.034,2.278,0.787V0H0v178.173
			h29.067C29.447,171.95,30.852,165.991,33.122,160.449z"/>
		<path fill="#E6E6E6" d="M87.057,111.483h5.062c0,1.622,1.315,2.938,2.938,2.938c1.619,0,2.933-1.312,2.937-2.93
			c-3.606-2.127-6.919-5.391-8.584-10.408c0,0-0.001-0.004-0.001-0.006c-0.037,0.172-0.074,0.343-0.132,0.511
			c-1.613,4.732-4.693,7.846-8.093,9.902c0.004,1.619,1.316,2.931,2.937,2.931C85.741,114.421,87.057,113.105,87.057,111.483z"/>
	</g>
</g>
</svg>
