<?xml version="1.0" encoding="utf-8"?>
<!-- Generator: Adobe Illustrator 16.0.0, SVG Export Plug-In . SVG Version: 6.00 Build 0)  -->
<!DOCTYPE svg PUBLIC "-//W3C//DTD SVG 1.1//EN" "http://www.w3.org/Graphics/SVG/1.1/DTD/svg11.dtd">
<svg version="1.1" id="Capa_1" xmlns="http://www.w3.org/2000/svg" xmlns:xlink="http://www.w3.org/1999/xlink" x="0px" y="0px"
	 width="200px" height="107.562px" viewBox="0 0 200 107.562" enable-background="new 0 0 200 107.562" xml:space="preserve">
<g>
	<g id="surface2_1_">
		<g>
			<path fill="#FFFFFF" d="M67.77,74.745c-0.033,0.294-0.846,0.579-2.438,0.856c-1.589,0.259-3.793,0.484-6.613,0.671
				c-2.817,0.208-6.083,0.366-9.797,0.467c-3.703,0.117-7.692,0.182-11.981,0.182s-8.287-0.059-12.004-0.182
				c-3.713-0.101-6.98-0.259-9.799-0.467c-2.819-0.187-5.021-0.412-6.611-0.671c-1.575-0.258-2.381-0.548-2.413-0.856
				c0.032-0.294,0.838-0.57,2.413-0.829c1.59-0.259,3.792-0.499,6.611-0.702c2.819-0.191,6.085-0.338,9.799-0.443
				c3.718-0.118,7.719-0.179,12.004-0.179c4.29,0,8.287,0.061,12.003,0.179c3.7,0.105,6.959,0.252,9.774,0.443
				c2.82,0.206,5.024,0.441,6.613,0.702C66.924,74.175,67.733,74.451,67.77,74.745"/>
		</g>
		<g>
			<path fill="#FFFFFF" d="M28.747,51.77c1.206-0.396,2.418-0.827,3.628-1.295l0,0c0.017,0,0.017,0,0,0
				c1.106-0.433,2.151-0.874,3.138-1.322c-0.033-0.087-0.07-0.164-0.107-0.233c-0.484-1.038-0.68-2.043-0.594-3.008
				c0.087-0.97,0.417-1.825,0.983-2.569c0.574-0.725,1.351-1.244,2.332-1.558c0.058,0,0.1-0.006,0.132-0.021
				c-0.414-0.851-0.863-1.685-1.347-2.517l0,0l0,0c-0.553-0.952-1.143-1.843-1.765-2.671c-0.051,0.017-0.118,0.034-0.206,0.05
				c-0.932,0.225-1.883,0.278-2.851,0.156c-0.969-0.121-1.857-0.398-2.668-0.831c-0.814-0.413-1.454-0.95-1.924-1.605
				c-0.932,0.205-1.865,0.465-2.798,0.778l0,0l0,0c-1.161,0.379-2.266,0.804-3.318,1.269c0.311,0.708,0.373,1.453,0.179,2.23
				c-0.188,0.779-0.584,1.511-1.193,2.206c-0.602,0.707-1.382,1.295-2.332,1.762c0.292,0.967,0.658,1.962,1.089,2.98l0,0l0,0
				c0.396,0.969,0.837,1.93,1.322,2.879c1.088-0.414,2.18-0.551,3.271-0.414c1.086,0.139,2.074,0.518,2.954,1.142
				c0.881,0.641,1.563,1.479,2.046,2.517C28.718,51.713,28.729,51.736,28.747,51.77 M36.498,50.579
				c-1.071,0.502-2.204,0.985-3.396,1.451c0,0.019,0,0.027,0,0.027c0-0.016,0-0.016,0,0c-1.298,0.503-2.602,0.961-3.919,1.374
				c0.122,0.931,0.033,1.839-0.257,2.722c-0.277,0.881-0.727,1.676-1.352,2.385c0.292,0.295,0.593,0.572,0.88,0.833
				c1.279,1.175,2.523,2.09,3.732,2.748c0.035-0.574,0.165-1.143,0.392-1.713c0.379-0.915,0.922-1.65,1.633-2.203
				c0.708-0.535,1.503-0.875,2.386-1.011c0.881-0.122,1.761,0.007,2.646,0.39c0.604,0.259,1.122,0.613,1.556,1.06
				c0.379-1.329,0.554-2.858,0.517-4.586c0-0.382-0.005-0.762-0.026-1.14c-0.895-0.053-1.758-0.279-2.59-0.675
				C37.888,51.842,37.156,51.285,36.498,50.579 M20.733,35.435c1.089-0.466,2.22-0.89,3.396-1.271l0,0
				c0.988-0.308,1.955-0.579,2.905-0.804c-0.155-0.587-0.102-1.132,0.156-1.632c0.242-0.501,0.665-0.925,1.271-1.269
				c-0.122-0.07-0.242-0.138-0.361-0.211c-1.159-0.587-2.275-0.992-3.344-1.217c-0.022,0.259-0.13,0.52-0.34,0.777
				c-0.345,0.417-0.819,0.77-1.425,1.065c-0.605,0.273-1.269,0.472-1.994,0.595c-0.713,0.119-1.415,0.136-2.104,0.052
				c-0.294-0.036-0.563-0.095-0.805-0.184c-0.416,0.658-0.724,1.446-0.934,2.361c-0.035,0.174-0.069,0.362-0.103,0.569
				c0.744-0.05,1.436,0.026,2.076,0.235C19.764,34.71,20.3,35.021,20.733,35.435 M37.767,33.569
				c0.052,0.485-0.042,0.941-0.286,1.372c-0.241,0.435-0.614,0.805-1.113,1.115c0.656,0.882,1.286,1.824,1.893,2.826
				c0.019,0,0.019,0,0,0c0.536,0.882,1.024,1.782,1.477,2.698c0.833,0.018,1.651,0.197,2.466,0.547
				c0.794,0.343,1.513,0.828,2.149,1.451c0.174-0.156,0.336-0.319,0.493-0.495c0.831-0.88,1.384-1.742,1.657-2.593
				c-0.501-0.085-1.04-0.268-1.609-0.542c-0.745-0.381-1.372-0.851-1.891-1.401c-0.52-0.554-0.891-1.114-1.113-1.688
				c-0.227-0.586-0.259-1.133-0.105-1.631c0.089-0.261,0.226-0.477,0.417-0.649c-0.968-0.361-2.078-0.648-3.318-0.855
				C38.52,33.656,38.148,33.604,37.767,33.569 M16.247,54.209c0.053-0.969,0.31-1.876,0.776-2.723
				c0.451-0.863,1.084-1.6,1.895-2.202c-0.502-0.985-0.952-1.998-1.348-3.034l0,0l0,0c-0.436-1.055-0.799-2.083-1.092-3.085
				c-0.881,0.205-1.717,0.26-2.514,0.155c-0.777-0.121-1.452-0.389-2.024-0.804c-0.172,0.153-0.335,0.31-0.491,0.465
				c-1.123,1.175-2.005,2.316-2.643,3.424c0.362,0,0.723,0.05,1.086,0.156c0.729,0.24,1.288,0.657,1.686,1.242
				c0.416,0.606,0.647,1.305,0.702,2.102c0.05,0.794-0.094,1.617-0.44,2.464c-0.226,0.501-0.493,0.949-0.807,1.346
				c1.227,0.364,2.716,0.537,4.461,0.519C15.737,54.233,15.986,54.227,16.247,54.209 M29.443,38.883
				c-0.672-0.206-1.35-0.274-2.021-0.206c-0.657,0.088-1.262,0.304-1.815,0.646c-0.537,0.349-0.951,0.792-1.243,1.324
				c-0.294,0.59-0.4,1.176-0.312,1.764c0.103,0.604,0.361,1.15,0.775,1.635c0.417,0.467,0.972,0.83,1.66,1.089
				c0.708,0.24,1.418,0.33,2.128,0.261c0.688-0.088,1.31-0.32,1.862-0.701c0.558-0.362,0.972-0.847,1.249-1.454
				c0.361-0.9,0.328-1.753-0.102-2.564C31.19,39.862,30.465,39.266,29.443,38.883 M25.921,25.219
				c-0.606,0.034-1.1,0.137-1.481,0.312c-0.379,0.174-0.562,0.363-0.543,0.571c0.067,0.225,0.344,0.399,0.829,0.517
				c0.486,0.123,1.063,0.158,1.735,0.106c0.661-0.052,1.167-0.163,1.532-0.338c0.376-0.172,0.529-0.371,0.442-0.595
				c-0.119-0.208-0.419-0.362-0.88-0.467C27.087,25.202,26.54,25.169,25.921,25.219 M12.021,29.343
				c-0.553,0.311-0.939,0.631-1.167,0.96c-0.209,0.328-0.209,0.586,0,0.777c0.261,0.191,0.666,0.233,1.218,0.129
				c0.554-0.102,1.134-0.32,1.738-0.648c0.57-0.346,0.96-0.682,1.168-1.01c0.189-0.328,0.154-0.581-0.107-0.752
				c-0.277-0.155-0.679-0.182-1.218-0.078C13.12,28.824,12.573,29.032,12.021,29.343 M-0.295,47.183
				c-0.034,0.655,0.112,1.148,0.438,1.477c0.347,0.312,0.812,0.373,1.403,0.184c0.601-0.242,1.125-0.675,1.555-1.298
				c0.434-0.604,0.675-1.262,0.728-1.97c0.034-0.676-0.139-1.149-0.521-1.427c-0.361-0.294-0.83-0.319-1.398-0.075
				c-0.574,0.241-1.057,0.655-1.453,1.241C0.041,45.903-0.208,46.525-0.295,47.183 M3.801,63.595
				c0.45,0.692,1.009,1.089,1.685,1.192c0.692,0.121,1.329-0.075,1.917-0.596c0.397-0.364,0.684-0.804,0.857-1.323
				c0.172-0.502,0.233-1.027,0.18-1.582c-0.051-0.553-0.233-1.062-0.541-1.526c-0.47-0.677-1.048-1.057-1.74-1.143
				c-0.673-0.07-1.304,0.165-1.891,0.7c-0.538,0.55-0.85,1.235-0.936,2.047C3.246,62.16,3.404,62.904,3.801,63.595 M30.895,75.472
				c0.917-0.174,1.642-0.595,2.18-1.272c0.535-0.67,0.76-1.457,0.675-2.354c-0.122-0.917-0.534-1.635-1.245-2.154
				c-0.694-0.519-1.511-0.716-2.462-0.596c-0.936,0.155-1.68,0.581-2.233,1.269c-0.536,0.711-0.75,1.522-0.646,2.438
				c0.156,0.881,0.586,1.572,1.297,2.074C29.151,75.376,29.963,75.575,30.895,75.472 M49.359,66.732
				c0.569-0.571,0.907-1.264,1.012-2.076c0.086-0.811-0.081-1.562-0.494-2.254c-0.449-0.691-1.028-1.089-1.738-1.192
				c-0.691-0.106-1.348,0.111-1.971,0.648c-0.413,0.36-0.717,0.801-0.908,1.318c-0.172,0.52-0.233,1.057-0.183,1.61
				c0.055,0.553,0.232,1.062,0.548,1.529c0.483,0.673,1.068,1.045,1.76,1.116C48.099,67.518,48.754,67.285,49.359,66.732
				 M54.832,43.395c-0.244-0.619-0.607-1.166-1.09-1.632c-0.484-0.468-0.978-0.754-1.481-0.856c-0.516-0.068-0.874,0.089-1.06,0.468
				c-0.211,0.378-0.211,0.898,0,1.557c0.238,0.674,0.62,1.251,1.137,1.734c0.503,0.486,1.022,0.764,1.556,0.833
				c0.485,0.035,0.81-0.147,0.984-0.545C55.054,44.555,55.037,44.036,54.832,43.395 M46.117,31.366
				c-0.486-0.381-0.995-0.676-1.528-0.883c-0.55-0.207-1.014-0.276-1.374-0.207c-0.362,0.087-0.504,0.302-0.418,0.647
				c0.087,0.327,0.374,0.7,0.856,1.114c0.518,0.413,1.065,0.728,1.633,0.933c0.571,0.209,1.037,0.261,1.401,0.156
				c0.311-0.121,0.414-0.344,0.311-0.677C46.896,32.124,46.602,31.763,46.117,31.366 M16.663,56.828
				c-0.122-0.294-0.218-0.596-0.287-0.907c-0.328,0.018-0.658,0.025-0.986,0.025c-2.333,0-4.249-0.322-5.757-0.961
				c-0.587,0.346-1.193,0.563-1.814,0.649c-0.62,0.086-1.215,0.008-1.789-0.235c-0.656-0.292-1.169-0.743-1.529-1.347
				c-0.362-0.605-0.554-1.288-0.57-2.048c-0.036-0.778,0.118-1.566,0.465-2.36c0.308-0.675,0.707-1.261,1.193-1.763
				c0.503-0.486,1.046-0.856,1.633-1.115c0.71-1.503,1.814-3.018,3.317-4.539c0.191-0.204,0.389-0.397,0.598-0.569
				c-0.156-0.241-0.277-0.501-0.366-0.779c-0.26-0.916-0.165-1.848,0.285-2.798c-1.085-0.208-2.141-0.372-3.16-0.494
				c-0.414,0.466-0.908,0.875-1.481,1.22c-0.795,0.45-1.465,0.64-2.02,0.571c-0.554-0.056-0.865-0.355-0.934-0.908
				c-0.035-0.518,0.176-1.09,0.623-1.712c0.45-0.641,1.027-1.182,1.738-1.632c0.744-0.435,1.399-0.641,1.968-0.621
				c0.57,0.034,0.919,0.281,1.036,0.75c0.088,0.362,0.019,0.778-0.206,1.242c1.02,0.123,2.073,0.269,3.164,0.443
				c0.692-0.847,1.609-1.529,2.748-2.048c0.379-0.156,0.753-0.287,1.116-0.389c0.034-0.227,0.076-0.443,0.131-0.648
				c0.292-1.194,0.769-2.205,1.426-3.036c-0.244-0.259-0.347-0.544-0.313-0.854c0.033-0.33,0.216-0.658,0.546-0.986
				c0.347-0.343,0.802-0.648,1.372-0.907c0.571-0.26,1.185-0.439,1.84-0.545c0.641-0.119,1.269-0.154,1.894-0.104
				c1.002,0.121,1.678,0.407,2.022,0.857c1.436,0.172,2.921,0.648,4.461,1.426c0.17,0.084,0.345,0.181,0.518,0.283
				c0.187-0.051,0.378-0.103,0.568-0.154c1.142-0.208,2.283-0.166,3.425,0.129c0.362-0.604,0.718-1.167,1.066-1.685
				c-0.589-0.209-1.049-0.462-1.375-0.753c-0.361-0.362-0.44-0.664-0.232-0.909c0.205-0.241,0.65-0.37,1.325-0.387
				c0.675-0.017,1.372,0.086,2.102,0.311c0.704,0.206,1.278,0.475,1.708,0.805c0.435,0.361,0.579,0.672,0.444,0.932
				c-0.156,0.274-0.574,0.432-1.244,0.464c-0.464,0.036-0.962,0-1.479-0.102c-0.312,0.534-0.65,1.113-1.01,1.734
				c0.936,0.418,1.678,0.961,2.231,1.636c0.172,0.208,0.31,0.405,0.415,0.596c0.416,0.053,0.833,0.114,1.244,0.182
				c1.697,0.294,3.187,0.734,4.485,1.324c0.398-0.071,0.857-0.061,1.372,0.022c0.501,0.106,1.019,0.305,1.557,0.599
				c0.983,0.535,1.76,1.217,2.333,2.048c0.572,0.812,0.812,1.581,0.726,2.306c-0.139,0.709-0.562,1.159-1.269,1.351
				c-0.176,1.226-0.813,2.464-1.919,3.706c-0.205,0.226-0.422,0.452-0.648,0.676c0.104,0.173,0.207,0.354,0.313,0.544
				c0.312,0.623,0.517,1.245,0.618,1.867c0.103,0.623,0.103,1.229,0,1.814c1.297,0.676,2.559,1.367,3.79,2.074
				c0.242-0.602,0.646-1.017,1.218-1.241c0.678-0.242,1.368-0.139,2.074,0.312c0.693,0.445,1.237,1.132,1.633,2.046
				c0.347,0.935,0.434,1.816,0.257,2.644c-0.187,0.848-0.593,1.443-1.218,1.791c-0.707,0.327-1.423,0.284-2.151-0.13
				c-0.742-0.434-1.322-1.144-1.737-2.128c-0.256-0.64-0.379-1.27-0.364-1.892c-1.278-0.708-2.603-1.418-3.966-2.126
				c-0.487,0.968-1.269,1.686-2.36,2.149c-0.206,0.071-0.418,0.131-0.623,0.183c0.033,0.486,0.062,0.962,0.077,1.427
				c0.034,2.421-0.282,4.511-0.958,6.276c0.241,0.603,0.362,1.242,0.362,1.917c0.019,0.676-0.104,1.34-0.362,1.997
				c-0.364,0.902-0.891,1.627-1.584,2.181c-0.689,0.553-1.464,0.906-2.332,1.062c-0.865,0.141-1.738,0.045-2.619-0.283
				c-0.709-0.295-1.305-0.703-1.788-1.221c-0.503-0.536-0.875-1.143-1.113-1.814c-1.75-0.726-3.512-1.911-5.294-3.555
				c-0.345-0.329-0.69-0.662-1.036-1.011c-0.309,0.226-0.656,0.408-1.037,0.546c-0.69,0.296-1.399,0.465-2.125,0.518
				c-0.709,0.055-1.411-0.008-2.103-0.181c-0.638,1.628-1.277,3.253-1.917,4.876c0.658,0.45,1.158,1.063,1.502,1.842
				c0.292,0.726,0.407,1.442,0.336,2.153c-0.083,0.725-0.336,1.361-0.751,1.917c-0.412,0.572-0.965,0.995-1.658,1.27
				c-0.675,0.26-1.357,0.331-2.047,0.209c-0.674-0.121-1.296-0.397-1.867-0.833c-0.555-0.433-0.983-0.991-1.299-1.686
				c-0.292-0.708-0.404-1.417-0.334-2.125c0.068-0.694,0.293-1.322,0.677-1.894c0.395-0.569,0.92-1.003,1.582-1.296
				c0.742-0.31,1.494-0.397,2.252-0.259c0.621-1.609,1.262-3.217,1.919-4.825c-0.605-0.345-1.134-0.778-1.58-1.297
				C17.284,58.108,16.922,57.5,16.663,56.828"/>
		</g>
	</g>
	<g id="surface4_1_">
		<g enable-background="new    ">
			<path fill="#FFFFFF" d="M91.997,49.984c-2.185,0.586-4.584,0.707-6.46,0.125c-2.431-0.799-3.446-2.369-3.446-5.475v-3.938
				c0-5.998,5.077-7.443,9.844-5.229l-0.771,2.337c-3.66-1.445-6.274-0.276-6.274,2.708v4.459c0,3.382,4.336,2.983,6.366,2.368
				L91.997,49.984z"/>
			<path fill="#FFFFFF" d="M105.744,44.513c0,3.137-1.63,5.967-5.691,5.967c-4.029,0-5.781-2.83-5.781-5.967v-4.062
				c0-3.877,2.061-6.03,5.781-6.03c3.568,0,5.691,2.308,5.691,6.03V44.513z M102.976,40.451c0-2.739-1.537-3.26-2.922-3.26
				c-1.506,0-2.982,0.676-2.982,3.26v4.368c0,1.999,1.292,2.952,2.982,2.952c1.725,0,2.922-1.016,2.922-2.952V40.451z"/>
			<path fill="#FFFFFF" d="M111.341,44.356c0.188,1.847,1.723,3.415,4.244,3.415c2.771,0,4.307-1.445,4.307-3.29
				c0-6.031-11.01-3.876-11.01-10.828c0-2.583,2.187-5.321,6.95-5.321c2.122,0,3.258,0.338,4.489,0.924
				c0,0.03-0.521,1.538-0.892,2.645c-1.137-0.461-2.244-0.737-3.568-0.737c-2.673,0-4.061,1.106-3.965,2.707
				c0.216,3.752,11.07,3.014,11.07,10.366c0,3.413-2.089,6.272-7.35,6.272c-4.768,0-7.166-3.074-7.26-5.812L111.341,44.356z"/>
			<path fill="#FFFFFF" d="M125.767,50.171V33.284c0-4.675,3.568-5.321,6.122-4.86l-0.461,2.521c-1.202-0.275-2.83,0-2.83,2.339
				v1.476h2.983l-0.739,2.645h-2.244v12.765h-2.831V50.171z"/>
			<path fill="#FFFFFF" d="M143.607,49.094c-1.444,0.891-3.323,1.413-5.078,1.444c-3.042,0.093-5.226-1.291-5.226-4.49v-6.307
				c0-3.381,2.303-5.258,5.656-5.258c3.415,0,5.415,1.938,5.415,5.168v4.428l-8.24,0.461v1.2c0,2.522,2.703,2.954,6.425,0.985
				L143.607,49.094z M141.546,39.62c0-1.845-1.477-2.46-2.617-2.46c-1.843,0-2.794,1.137-2.794,2.614v2.152l5.411-0.308V39.62
				L141.546,39.62z"/>
			<path fill="#FFFFFF" d="M147.513,50.171V34.76h2.645l0.122,0.462c2.062-1.075,3.877-0.707,5.505-0.369l-0.674,2.676
				c-2.002-0.892-4.801-0.155-4.801,1.998v10.643h-2.797V50.171z"/>
			<path fill="#FFFFFF" d="M168.239,50.171c-4.886,0.462-11.836,1.383-11.836-5.197v-2.555c0-2.213,0.859-3.475,2.117-4.089
				c2.186-1.079,5.508-0.186,6.925,0.738c0-1.754-1.388-2.585-3.814-2.585l0.216-1.969c6.393,0,6.393,3.537,6.393,6.49V50.171
				L168.239,50.171z M165.445,41.866c-1.695-0.954-6.246-2.523-6.246,0.859v2.03c0,2.585,2.092,3.632,6.246,2.984V41.866z"/>
		</g>
		<g enable-background="new    ">
			<path fill="#FFFFFF" d="M84.39,68.237h0.202c0.091,0,0.16,0.135,0.201,0.406c0.137,0.015,0.203,0.065,0.203,0.148
				c-0.152,0.374-0.253,0.559-0.301,0.559c-0.053,0.295-0.203,0.532-0.457,0.71c0,0.135-0.188,0.439-0.558,0.909
				c0,0.127-0.203,0.649-0.608,1.57l-0.101,0.456c0,0.677,0.268,1.013,0.811,1.013c1.031,0,2.095-1.063,3.19-3.191
				c0.268-0.438,0.405-0.724,0.405-0.86h0.102l0.203,0.762l-0.659,1.164c0,0.235-0.272,0.678-0.812,1.317
				c-0.709,0.86-1.434,1.383-2.176,1.569h-0.052c-0.906,0-1.478-0.423-1.721-1.266c0-0.514,0.254-1.359,0.76-2.53l0.404-0.966
				l0.203-0.251v-0.103l-0.101-0.152C84.036,68.658,84.321,68.237,84.39,68.237z"/>
			<path fill="#FFFFFF" d="M88.225,69.135l0.368,0.179c0.625,0.591,0.993,1.112,1.113,1.569l0.201,0.266l0.977-0.052l0.175-0.024
				l0.053,0.024c0.073,0.035,0.051,0.245-0.076,0.634l-1.103,0.217c-0.076,1.028-0.166,1.658-0.265,1.885l-0.307,0.53l0.027,0.065
				c-0.151,0.043-0.347,0.171-0.582,0.392l-0.265,0.103l-0.026-0.065l-0.292,0.026l-0.278-0.127l-0.496-0.734
				c0.059-0.126-0.024-0.464-0.251-1.015l0.063-0.012c0.069-0.176,0.046-0.376-0.063-0.597l0.318-1.139l0.127-0.165
				c-0.263-0.557-0.326-1.016-0.193-1.378l-0.05-0.129l0.039-0.089c0.051-0.107,0.229-0.253,0.531-0.431l0.025,0.077l0.05,0.014
				L88.225,69.135z M88.567,71.871l-0.127-0.062l-0.026-0.078l-0.049-0.012l-0.038,0.09l-0.05-0.026
				c-0.365,1.326-0.237,2.132,0.378,2.419l0.203-0.078l0.027,0.062l0.05,0.025l0.011-0.037l0.064-0.254l0.139-0.049l0.039-0.089
				c0.115-0.254,0.183-0.785,0.189-1.595l0.04-0.09c-0.094-0.041-0.124-0.097-0.09-0.163L88.567,71.871z M88.161,69.998l0.015,0.341
				l0.126,0.063l0.188-0.024l0.088,0.037c0.061,0.033,0.095,0.237,0.103,0.608l0.24,0.114l0.13-0.051
				c0.141-0.296-0.031-0.639-0.522-1.024l0.038-0.09l-0.138-0.075L88.161,69.998z"/>
			<path fill="#FFFFFF" d="M101.545,66.211h0.152l0.104,0.101v0.053l-0.761,0.559c-0.406,0.42-0.776,1.145-1.115,2.175
				c-0.102,0-0.218,0.403-0.354,1.215c-0.075,0-0.144,0.271-0.204,0.812c-0.099,0-0.201,0.353-0.301,1.062l-0.053,0.152h-0.05
				l0.05,0.049v0.052c-0.067,0.288-0.153,0.488-0.253,0.607l0.049,0.252l-0.049,0.155l0.049,0.251v0.154
				c0,0.201-0.099,0.404-0.304,0.607c0,0.2-0.046,0.305-0.15,0.305h-0.306c-0.083,0-0.184-0.305-0.303-0.911h0.052
				c-0.323-1.942-0.693-3.394-1.115-4.357l-0.052-0.048h-0.1c-0.346,0.348-0.77,1.761-1.265,4.252
				c-0.163,0.332-0.38,0.602-0.658,0.812h-0.05c-0.305,0-0.541-0.319-0.709-0.962c-0.676-1.483-1.046-2.414-1.117-2.784
				c-0.133-0.523-0.487-1.148-1.062-1.876c-0.203-0.109-0.305-0.294-0.305-0.556v-0.102c0-0.1,0.155-0.184,0.456-0.252
				c0.354,0,0.81,0.606,1.371,1.823c0.115,0.48,0.251,0.819,0.404,1.011c0.438,1.37,0.741,2.164,0.91,2.383v0.051h0.152
				c0.373-1.056,0.674-2.171,0.912-3.344c0.364-0.944,0.632-1.416,0.812-1.416h0.049l0.05,0.052l0.356-0.103
				c0.36,0.226,0.616,0.718,0.759,1.469c0.17,0.372,0.371,1.149,0.607,2.329l0.099,0.103c0.103-0.026,0.156-0.161,0.156-0.405h0.046
				l-0.046-0.05v-0.054l0.453-1.315l-0.052-0.05c0.068,0,0.22-0.455,0.456-1.367c0.079-0.009,0.178-0.229,0.307-0.659
				c0.157-0.464,0.36-0.801,0.607-1.014c0.006-0.236,0.362-0.606,1.062-1.114C101.293,66.253,101.379,66.22,101.545,66.211z"/>
			<path fill="#FFFFFF" d="M101.759,69.135l0.366,0.179c0.626,0.591,0.999,1.112,1.12,1.569l0.198,0.266l0.977-0.052l0.176-0.024
				l0.052,0.024c0.077,0.035,0.051,0.245-0.076,0.634l-1.1,0.217c-0.076,1.028-0.166,1.658-0.268,1.885l-0.305,0.53l0.026,0.065
				c-0.153,0.043-0.346,0.171-0.581,0.392l-0.267,0.103l-0.024-0.065l-0.293,0.026l-0.277-0.127l-0.492-0.734
				c0.055-0.126-0.029-0.464-0.256-1.015l0.062-0.012c0.068-0.176,0.047-0.376-0.062-0.597l0.314-1.139l0.129-0.165
				c-0.261-0.557-0.322-1.016-0.188-1.378l-0.053-0.129l0.035-0.089c0.054-0.107,0.229-0.253,0.534-0.431l0.023,0.077l0.05,0.014
				L101.759,69.135z M102.101,71.871l-0.124-0.062l-0.026-0.078l-0.05-0.012l-0.037,0.09l-0.049-0.026
				c-0.365,1.326-0.238,2.132,0.378,2.419l0.2-0.078l0.026,0.062l0.053,0.025l0.009-0.037l0.063-0.254l0.143-0.049l0.035-0.089
				c0.119-0.254,0.184-0.785,0.188-1.595l0.043-0.09c-0.095-0.041-0.126-0.097-0.093-0.163L102.101,71.871z M101.697,69.998
				l0.012,0.341l0.129,0.063l0.19-0.024l0.089,0.037c0.058,0.033,0.094,0.237,0.102,0.608l0.238,0.114l0.129-0.051
				c0.146-0.296-0.027-0.639-0.518-1.024l0.034-0.09l-0.139-0.075L101.697,69.998z"/>
			<path fill="#FFFFFF" d="M105.102,67.376c0.476,0.042,0.71,0.244,0.71,0.607l0.054,0.05l-0.054,0.052v0.05
				c0.229,0.785,0.399,1.696,0.508,2.734l0.051,0.05v0.051l-0.101,0.103l0.05,0.303h0.104c0.166-0.203,0.42-0.741,0.758-1.619
				c0.137-0.338,0.438-0.726,0.912-1.166c0.211-0.312,0.733-0.599,1.57-0.86c0.521,0,0.895,0.099,1.109,0.304v0.052
				c0,0.252-0.248,0.404-0.757,0.456l-0.557-0.052c0,0.075-0.168,0.144-0.506,0.201c0,0.135-0.115,0.202-0.355,0.202
				c0,0.11-0.167,0.296-0.506,0.558c0,0.101-0.052,0.152-0.153,0.152c0,0.118-0.152,0.388-0.457,0.811
				c0,0.171-0.083,0.32-0.252,0.455v0.05l0.051,0.407l-0.357,0.657l0.054,0.051v0.05c-0.235,0.526-0.354,1.166-0.354,1.925
				c-0.061,0-0.145,0.188-0.254,0.558c-0.086,0-0.202,0.068-0.355,0.202h-0.049c-0.061,0-0.161-0.118-0.304-0.354v-0.152l0.15-0.202
				v-1.316l-0.403-3.344c-0.062,0-0.127-0.303-0.205-0.911c-0.199-0.059-0.3-0.327-0.3-0.809
				C105.036,67.681,105.102,67.579,105.102,67.376z"/>
			<path fill="#FFFFFF" d="M112.092,57.147c0.34,0,0.506,0.201,0.506,0.605v0.355c-0.1,0.201-0.333,1.267-0.709,3.19v0.658
				l-0.252,0.405c0.06,0.339,0.109,0.505,0.152,0.505l-0.049,0.354l0.049,0.457c-0.032,0.498-0.104,0.854-0.2,1.062l0.05,0.053
				v0.051l-0.104,0.503l0.055,0.154l-0.055,0.05h-0.049l0.049,0.203v0.099h-0.049c0.067,0.44,0.104,1.014,0.104,1.724l-0.055,0.202
				l0.104,0.404l-0.05,0.456l0.098,0.1v0.254h0.054l0.707-0.607c0.666-0.575,1.326-1.062,1.976-1.468
				c0-0.102,0.169-0.255,0.507-0.456c0-0.059,0.119-0.094,0.355-0.101h0.101l0.201,0.149c0,0.297-0.186,0.568-0.555,0.813
				c-1.198,0.851-1.959,1.441-2.276,1.771l-0.459,0.557v0.102c0.389,0.379,1.013,0.666,1.872,0.86c0.34,0,0.576,0.069,0.711,0.201
				l0.05-0.048c0.372,0.033,0.591,0.083,0.659,0.15l0.152-0.05v0.05l0.052-0.05c0.606,0.043,0.912,0.093,0.912,0.153l0.255-0.052
				h0.149l0.255,0.052l0.555-0.103l0.251,0.103l0.509-0.103c0.166,0.025,0.252,0.077,0.252,0.153v0.052
				c0,0.134-0.221,0.234-0.657,0.303v0.05l-0.206-0.05c-0.604,0.203-1.162,0.304-1.669,0.304c-1.596,0-3.149-0.405-4.658-1.216
				l-0.054-0.151c-0.084,0-0.134,0.066-0.152,0.199l-0.049,1.166l0.049,0.051v0.05l-0.049,0.152l0.049,0.355l-0.049,0.049
				c0.095,0,0.177,0.488,0.255,1.47c-0.025,0.37-0.147,0.557-0.354,0.557c0,0.237-0.053,0.354-0.154,0.354
				c-0.271-0.103-0.403-0.304-0.403-0.608v-0.405l0.047-0.254l-0.047-0.203l0.047-1.67v-0.101l0.052-0.051l-0.052-0.05v-0.401
				l-0.047-0.154l0.047-0.253v-0.86l0.052-0.052l-0.052-0.05l0.052-0.254v-0.962l0.052-0.201l-0.104-0.354l0.052-0.053v-0.047
				l-0.052-0.307h0.052l-0.052-0.051v-1.316l0.052-0.202l-0.154-0.402v-0.103l0.204-0.711l-0.051-0.404
				c0.07,0,0.155-0.506,0.255-1.52l-0.053-0.202c0.404-3.612,0.691-5.418,0.861-5.418H112.092L112.092,57.147z"/>
			<path fill="#FFFFFF" d="M119.058,68.996c0.133,0.227,0.199,0.415,0.199,0.558l-0.05,1.72l0.05,0.154l-0.05,0.05l0.104,0.962
				l-0.054,0.049v0.052c0.137,0.272,0.221,0.794,0.253,1.572l0.05,0.2c-0.05,0.304-0.201,0.457-0.457,0.457
				c-0.064-0.009-0.199-0.179-0.401-0.508v-0.305c0-0.236-0.034-0.353-0.103-0.353l0.051-0.255v-0.052l-0.051-0.249h0.052
				c0-0.136-0.084-0.39-0.253-0.759l-0.053-0.709l0.053-1.215l-0.053-0.863C118.345,69.368,118.58,69.199,119.058,68.996z
				 M119.156,65.553h0.053c0.438,0,0.657,0.235,0.657,0.709c0,0.134-0.151,0.321-0.454,0.557h-0.155
				c-0.167-0.32-0.286-0.675-0.354-1.063L119.156,65.553z"/>
			<path fill="#FFFFFF" d="M120.246,68.996h0.201c0.346,0.044,0.566,0.988,0.659,2.835v0.254l0.103,0.102
				c0.167,0,0.405-0.49,0.708-1.468c0.052,0,0.287-0.389,0.709-1.165c0.11,0,0.229-0.135,0.354-0.406l0.457-0.1
				c0.404,0.371,0.607,0.675,0.607,0.909c0.126,0,0.244,0.543,0.354,1.621l0.05,0.052l-0.05,0.201l0.303,1.216
				c0.137,0,0.287,0.221,0.457,0.658c0.196,0.077,0.347,0.179,0.457,0.305l0.202,0.054l0.96-0.306v0.05l0.154,0.456
				c0,0.043-0.239,0.144-0.71,0.304l-0.152,0.1l-0.052-0.05h-0.053l-0.249,0.05c-0.582-0.176-0.974-0.464-1.164-0.859
				c-0.331-0.363-0.582-1.173-0.763-2.431c0-0.615-0.152-1.123-0.455-1.52c-0.304,0.066-0.456,0.184-0.456,0.355
				c-0.11,0.075-0.194,0.227-0.253,0.456c-0.125,0-0.313,0.471-0.557,1.416c-0.075,0-0.142,0.186-0.202,0.558
				c-0.137,0.085-0.203,0.303-0.203,0.656c-0.085,0-0.169,0.052-0.252,0.155l0.051,0.05v0.05c0,0.448-0.184,0.768-0.559,0.963
				c-0.023,0.17-0.072,0.253-0.148,0.253h-0.05c-0.206-0.083-0.309-0.22-0.309-0.406l0.103-0.303v-0.102l-0.05-0.305
				c0.066-0.134,0.102-0.32,0.102-0.556l-0.102-0.102v-0.101l0.102-0.152v-1.166c-0.168-0.261-0.254-0.582-0.254-0.962l-0.303-1.115
				v-0.049C120.058,69.148,120.143,68.996,120.246,68.996z"/>
			<path fill="#FFFFFF" d="M130.501,67.83c0.306,0.129,0.455,0.333,0.455,0.609c-0.042,0.364-0.262,0.768-0.657,1.215l-0.052,0.051
				v0.103h0.052l0.05-0.051l0.252,0.051c0.171,0,0.256-0.035,0.256-0.103c0.648,0,1.121,0.103,1.417,0.303
				c0.534-0.03,0.818-0.083,0.862-0.15h0.203l0.05,0.049c0.106-0.099,0.38-0.167,0.809-0.201c0,0.067,0.053,0.103,0.152,0.103
				l0.051,0.05v0.049c0,0.094-0.352,0.196-1.061,0.307c0,0.049-0.069,0.1-0.204,0.152l-0.051,0.05v0.151h0.102v0.253
				c0.406,0.787,0.607,1.346,0.607,1.672h-0.049l0.148,0.71l-0.05,0.253v0.66l0.05,0.2c-0.059,0.339-0.107,0.507-0.148,0.507
				l0.049,0.049v0.053c0,0.497-0.153,1.189-0.454,2.076c-0.29,0.853-0.913,1.949-1.876,3.292c-0.354,0.429-0.843,0.868-1.467,1.316
				c0,0.116-0.239,0.251-0.71,0.404l-0.66,0.203c0,0.064-0.085,0.1-0.253,0.1v0.051c-0.574,0-0.979-0.17-1.215-0.507
				c-0.305-0.144-0.59-0.753-0.862-1.821l0.051-0.305v-0.154l-0.101-0.152l0.101-0.404V78.92l-0.051-0.202
				c0-0.598,0.389-1.863,1.166-3.796c0.059-0.421,0.396-1.063,1.012-1.926c0.043-0.202,0.415-0.624,1.115-1.266l0.407-0.304
				l1.062-0.708c0.025-0.111,0.177-0.179,0.456-0.203v-0.051l-0.254-0.1h-0.506c-0.548,0.168-1.09,0.453-1.62,0.859
				c-0.515,0.347-0.937,0.566-1.267,0.661h-0.152c-0.336,0-0.506-0.188-0.506-0.559l0.101-0.2l-0.052-0.052
				c0-0.719,0.409-1.562,1.216-2.53C129.127,68.067,129.802,67.83,130.501,67.83z M131.514,71.072l-0.05-0.049
				c-0.627,0.606-1.1,0.91-1.421,0.91c0,0.177-0.302,0.48-0.909,0.911l-0.81,1.268c-0.26,0.36-0.685,1.492-1.267,3.391
				c-0.167,0.878-0.253,1.571-0.253,2.076l0.1,0.458l-0.05,0.047v0.053c0.296,1.013,0.768,1.518,1.42,1.518l0.557-0.15l0.152,0.053
				c0.252-0.171,0.453-0.255,0.606-0.255c0-0.061,0.22-0.245,0.657-0.557c0.912-0.793,1.535-1.572,1.875-2.33
				c0.812-1.325,1.217-2.795,1.217-4.406v-0.05c0-1.545-0.356-2.607-1.065-3.189h-0.101
				C131.844,70.974,131.623,71.072,131.514,71.072z M128.12,70.721c0.204-0.062,0.608-0.313,1.218-0.762
				c0.673-0.564,1.011-1.004,1.011-1.315l-0.15-0.101c-0.499,0.065-1.006,0.352-1.521,0.858l-0.506,0.964L128.12,70.721z"/>
			<path fill="#FFFFFF" d="M141.176,67.021h0.557c0.334,0.126,0.506,0.348,0.506,0.659v0.606c-0.238,0.87-0.541,1.612-0.91,2.229
				c-0.239,0.465-0.812,1.24-1.723,2.329v0.051c0,0.498,0.405,0.87,1.217,1.113h0.249c0.371,0,0.794-0.236,1.268-0.71
				c0.33-0.36,0.633-0.834,0.912-1.414h0.102v0.707c0,0.195-0.168,0.517-0.508,0.962c0,0.109-0.221,0.347-0.66,0.709
				c-0.42,0.337-0.826,0.508-1.216,0.508c-0.691,0-1.23-0.27-1.619-0.811c-0.15-0.052-0.27-0.203-0.354-0.455h-0.103
				c-0.464,0.336-0.751,0.505-0.861,0.505c-0.092,0-0.209-0.115-0.355-0.354v-0.2c0-0.061,0.289-0.261,0.862-0.609
				c0.169-0.151,0.252-0.372,0.252-0.658l-0.051-0.303l0.051-0.054v-0.049l-0.051-0.304l0.306-1.216
				c0.269-0.887,0.623-1.613,1.063-2.177C140.169,67.766,140.522,67.41,141.176,67.021z M139.451,71.173l0.052,0.051v0.049
				l-0.052,0.458v0.051l0.103,0.101l1.013-1.216c0.624-1.088,1.016-1.897,1.167-2.431v-0.052c0-0.219-0.086-0.386-0.255-0.505
				c-0.456,0.193-0.876,0.631-1.264,1.314l-0.407,0.762L139.451,71.173z"/>
			<path fill="#FFFFFF" d="M143.629,68.996h0.202c0.35,0.044,0.565,0.988,0.659,2.835v0.254l0.101,0.102
				c0.17,0,0.408-0.49,0.709-1.468c0.053,0,0.287-0.389,0.711-1.165c0.109,0,0.226-0.135,0.352-0.406l0.457-0.1
				c0.407,0.371,0.611,0.675,0.611,0.909c0.123,0,0.241,0.543,0.352,1.621l0.051,0.052l-0.051,0.201l0.307,1.216
				c0.134,0,0.284,0.221,0.454,0.658c0.195,0.077,0.345,0.179,0.458,0.305l0.201,0.054l0.961-0.306v0.05l0.153,0.456
				c0,0.043-0.238,0.144-0.711,0.304l-0.152,0.1l-0.051-0.05h-0.051l-0.253,0.05c-0.58-0.176-0.973-0.464-1.167-0.859
				c-0.327-0.363-0.579-1.173-0.758-2.431c0-0.615-0.154-1.123-0.454-1.52c-0.306,0.066-0.458,0.184-0.458,0.355
				c-0.109,0.075-0.193,0.227-0.252,0.456c-0.127,0-0.312,0.471-0.558,1.416c-0.078,0-0.145,0.186-0.201,0.558
				c-0.136,0.085-0.203,0.303-0.203,0.656c-0.085,0-0.167,0.052-0.252,0.155l0.05,0.05v0.05c0,0.448-0.187,0.768-0.558,0.963
				c-0.021,0.17-0.073,0.253-0.15,0.253h-0.054c-0.2-0.083-0.301-0.22-0.301-0.406l0.101-0.303v-0.102l-0.051-0.305
				c0.066-0.134,0.1-0.32,0.1-0.556l-0.1-0.102v-0.101l0.1-0.152v-1.166c-0.167-0.261-0.25-0.582-0.25-0.962l-0.306-1.115v-0.049
				C143.444,69.148,143.529,68.996,143.629,68.996z"/>
			<path fill="#FFFFFF" d="M160,61.957l0.305,0.051l0.606-0.051l0.104,0.354c-0.042,0.237-0.111,0.356-0.201,0.356h-0.354
				c-0.494,0-1.183,0.235-2.079,0.707c-0.219,0.11-0.457,0.295-0.71,0.557c-0.151,0.1-0.403,0.406-0.76,0.913
				c-0.192,0.176-0.378,0.461-0.554,0.858c-0.126,0-0.297,0.254-0.508,0.761l-0.608,1.419c-0.049,0-0.169,0.371-0.354,1.112
				c-0.104,0.118-0.201,0.506-0.304,1.165h-0.05l0.05,0.052v0.05l-0.05,0.201l0.05,0.051v0.049l-0.05,0.205l0.05,0.15l-0.103,0.305
				c0.138,0.938,0.339,1.579,0.609,1.924c0,0.187,0.333,0.39,1.012,0.608l0.05-0.052l0.508,0.052h0.2
				c0.727-0.243,1.317-0.531,1.772-0.86c0.347-0.244,0.636-0.381,0.862-0.407c0-0.169,0.17-0.318,0.507-0.454
				c0.11-0.17,0.328-0.354,0.656-0.557c0-0.092,0.223-0.264,0.659-0.507c0-0.153,0.17-0.286,0.509-0.407
				c0.853-0.901,1.475-1.407,1.875-1.517c0-0.068,0.047-0.102,0.15-0.102c0.118-0.27,0.201-0.403,0.253-0.403l0.202,0.149v0.154
				c0,0.37-0.118,0.624-0.352,0.76c-0.291,0.287-0.645,0.54-1.065,0.759c-0.211,0.244-0.432,0.431-0.658,0.556
				c0,0.103-0.355,0.456-1.067,1.063c-2.099,1.772-3.551,2.702-4.353,2.787l-0.256-0.051h-0.912
				c-0.748-0.362-1.153-0.635-1.214-0.812c-0.464-0.447-0.698-0.919-0.709-1.419c-0.059,0-0.124-0.252-0.2-0.758l0.102-0.202
				l-0.052-0.051v-0.05l0.052-0.154l-0.052-0.201l0.203-1.064l-0.053-0.049v-0.051c0.466-1.722,0.802-2.734,1.013-3.039
				c0.095-0.337,0.312-0.791,0.658-1.364c0.355-0.667,0.796-1.261,1.32-1.775c0.434-0.472,0.926-0.911,1.466-1.315L160,61.957z"/>
			<path fill="#FFFFFF" d="M164.583,69.135l0.367,0.179c0.624,0.591,0.996,1.112,1.117,1.569l0.2,0.266l0.975-0.052l0.177-0.024
				l0.052,0.024c0.076,0.035,0.05,0.245-0.077,0.634l-1.102,0.217c-0.075,1.028-0.165,1.658-0.265,1.885l-0.304,0.53l0.026,0.065
				c-0.152,0.043-0.35,0.171-0.585,0.392l-0.264,0.103l-0.025-0.065l-0.291,0.026l-0.278-0.127l-0.497-0.734
				c0.062-0.126-0.024-0.464-0.25-1.015l0.062-0.012c0.068-0.176,0.046-0.376-0.062-0.597l0.315-1.139l0.124-0.165
				c-0.26-0.557-0.32-1.016-0.189-1.378l-0.048-0.129l0.036-0.089c0.052-0.107,0.23-0.253,0.534-0.431l0.022,0.077l0.053,0.014
				L164.583,69.135z M164.923,71.871l-0.124-0.062l-0.026-0.078l-0.048-0.012l-0.04,0.09l-0.051-0.026
				c-0.364,1.326-0.236,2.132,0.379,2.419l0.204-0.078l0.026,0.062l0.046,0.025l0.015-0.037l0.064-0.254l0.14-0.049l0.039-0.089
				c0.117-0.254,0.179-0.785,0.188-1.595l0.04-0.09c-0.095-0.041-0.124-0.097-0.093-0.163L164.923,71.871z M164.52,69.998
				l0.012,0.341l0.129,0.063l0.191-0.024l0.087,0.037c0.061,0.033,0.093,0.237,0.102,0.608l0.242,0.114l0.127-0.051
				c0.144-0.296-0.031-0.639-0.521-1.024l0.037-0.09l-0.137-0.075L164.52,69.998z"/>
			<path fill="#FFFFFF" d="M167.926,67.376c0.473,0.042,0.71,0.244,0.71,0.607l0.052,0.05l-0.052,0.052v0.05
				c0.228,0.785,0.394,1.696,0.505,2.734l0.052,0.05v0.051l-0.102,0.103l0.05,0.303h0.104c0.17-0.203,0.42-0.741,0.76-1.619
				c0.133-0.338,0.437-0.726,0.91-1.166c0.21-0.312,0.733-0.599,1.57-0.86c0.524,0,0.895,0.099,1.114,0.304v0.052
				c0,0.252-0.253,0.404-0.762,0.456l-0.557-0.052c0,0.075-0.17,0.144-0.504,0.201c0,0.135-0.118,0.202-0.355,0.202
				c0,0.11-0.169,0.296-0.508,0.558c0,0.101-0.051,0.152-0.153,0.152c0,0.118-0.149,0.388-0.455,0.811
				c0,0.171-0.084,0.32-0.253,0.455v0.05l0.052,0.407l-0.356,0.657l0.051,0.051v0.05c-0.236,0.526-0.354,1.166-0.354,1.925
				c-0.059,0-0.143,0.188-0.253,0.558c-0.083,0-0.201,0.068-0.354,0.202h-0.049c-0.061,0-0.161-0.118-0.308-0.354v-0.152
				l0.154-0.202v-1.316l-0.407-3.344c-0.056,0-0.126-0.303-0.199-0.911c-0.204-0.059-0.304-0.327-0.304-0.809
				C167.859,67.681,167.926,67.579,167.926,67.376z"/>
			<path fill="#FFFFFF" d="M182.156,59.932c0.373,0.245,0.608,0.565,0.712,0.961v0.658l0.048,0.457l-0.048,0.051v0.049l0.048,0.053
				l-0.048,0.354v0.509c-0.135,0.397-0.203,0.699-0.203,0.91h-0.05l0.05,0.253v0.252c-0.096,0.111-0.18,0.45-0.254,1.015
				c-0.187,0.592-0.322,0.912-0.405,0.964l0.05,0.05v0.152h-0.148v0.151c0,0.119-0.09,0.289-0.257,0.508
				c-0.209,0.555-0.479,1.045-0.812,1.467c0,0.096-0.083,0.213-0.252,0.356c0,0.144-0.118,0.346-0.354,0.606
				c-0.1,0.363-0.151,0.803-0.151,1.318c0.143,0.793,0.329,1.367,0.556,1.721l0.558,1.014c0.514,0.709,0.805,1.063,0.861,1.063
				c0.133,0,0.203,0.102,0.203,0.302c0.168,0,0.42,0.135,0.76,0.406c0.264,0.102,0.65,0.185,1.164,0.252v0.053
				c0,0.075-0.135,0.144-0.406,0.201c-0.908-0.127-1.366-0.261-1.366-0.404c-0.143,0-0.533-0.271-1.166-0.81l-0.405-0.457
				c-0.439-0.574-0.775-1.282-1.011-2.127c-0.137-0.292-0.202-0.533-0.202-0.709c-0.062,0-0.096-0.253-0.104-0.759l-0.048-0.05
				h-0.156c0,0.149-0.202,0.405-0.605,0.759c-0.854,1.07-1.46,1.695-1.824,1.873c-0.784,0.71-1.513,1.064-2.178,1.064
				c-0.743-0.221-1.113-0.522-1.113-0.911c0-0.467,0.554-1.359,1.669-2.687c1.283-1.257,2.044-1.897,2.279-1.924
				c0.464-0.303,1.057-0.522,1.771-0.657l0.053-1.016v-0.353l0.102-0.151v-0.355l0.153-0.912l-0.103-0.103v-0.15
				c0.135-0.145,0.199-0.277,0.199-0.403v-0.661c0.079-0.075,0.13-0.327,0.155-0.76l0.607-1.771c0-0.2,0.086-0.421,0.253-0.658
				c0-0.118,0.067-0.253,0.201-0.403c0-0.18,0.205-0.38,0.607-0.61H182.156L182.156,59.932z M178.915,69.049
				c0,0.083-0.136,0.152-0.406,0.199h-0.202c0,0.096-0.051,0.18-0.152,0.254l-0.15-0.049l-0.912,0.609v-0.052
				c-0.338,0.212-0.508,0.414-0.508,0.607c-0.074,0-0.277,0.168-0.606,0.509l-0.758,0.759c-0.215,0.405-0.347,0.606-0.408,0.606
				c-0.059,0.238-0.158,0.354-0.301,0.354l-0.05,0.454c0,0.155,0.166,0.255,0.503,0.307v0.049l0.305-0.2l0.051,0.051h0.051
				c0.195-0.137,0.379-0.221,0.558-0.254c0.558-0.295,1.23-0.853,2.027-1.671l0.959-1.014c0-0.127,0.104-0.261,0.305-0.405
				c0.101-0.227,0.171-0.516,0.198-0.86c-0.027-0.17-0.1-0.253-0.198-0.253l-0.052,0.051h-0.051L178.915,69.049z M181.699,60.742
				v0.102c-0.193,0.109-0.363,0.328-0.505,0.659c-0.074,0-0.16,0.184-0.254,0.556c-0.192,0-0.379,0.643-0.555,1.925
				c-0.103,0-0.237,0.811-0.406,2.431c-0.065,0-0.102,0.085-0.102,0.253l0.102,1.367l-0.051,0.405
				c0.127,0.104,0.246,0.152,0.354,0.152c0.642-0.802,1.13-1.696,1.468-2.685c0.156-0.058,0.289-0.411,0.405-1.061l0.104-0.255
				l-0.053-0.051l0.103-0.86v-0.204c0.068-0.05,0.118-0.319,0.152-0.809l-0.052-1.216c-0.128-0.448-0.244-0.687-0.355-0.71H181.699z
				"/>
			<path fill="#FFFFFF" d="M184.778,69.135l0.366,0.179c0.626,0.591,0.996,1.112,1.112,1.569l0.204,0.266l0.976-0.052l0.176-0.024
				l0.05,0.024c0.078,0.035,0.055,0.245-0.073,0.634l-1.101,0.217c-0.076,1.028-0.166,1.658-0.265,1.885l-0.305,0.53l0.021,0.065
				c-0.149,0.043-0.347,0.173-0.582,0.394l-0.265,0.102l-0.026-0.064l-0.289,0.025l-0.277-0.125l-0.496-0.735
				c0.062-0.128-0.024-0.465-0.253-1.017l0.064-0.011c0.066-0.176,0.044-0.375-0.064-0.596l0.316-1.14l0.128-0.165
				c-0.265-0.556-0.324-1.016-0.191-1.378l-0.049-0.129l0.036-0.089c0.052-0.108,0.226-0.254,0.534-0.43l0.022,0.076l0.049,0.013
				L184.778,69.135z M185.118,71.871l-0.127-0.062l-0.022-0.078l-0.049-0.012l-0.04,0.09l-0.05-0.026
				c-0.364,1.326-0.238,2.132,0.377,2.419l0.204-0.078l0.022,0.062l0.054,0.025l0.012-0.037l0.062-0.254l0.142-0.049l0.038-0.089
				c0.115-0.254,0.182-0.785,0.189-1.595l0.035-0.09c-0.089-0.041-0.122-0.097-0.085-0.163L185.118,71.871z M184.715,69.998
				l0.012,0.341l0.129,0.063l0.188-0.024l0.089,0.037c0.06,0.033,0.094,0.237,0.102,0.608l0.239,0.114l0.127-0.051
				c0.145-0.296-0.028-0.639-0.518-1.024l0.037-0.09l-0.139-0.075L184.715,69.998z"/>
			<path fill="#FFFFFF" d="M189.233,61.349c0.279,0.169,0.446,0.39,0.508,0.659v0.052c-0.076,0.403-0.145,0.608-0.2,0.608
				l-0.055-0.05h-0.051c-0.283,0.439-0.453,0.963-0.504,1.568c-0.088,0-0.156,0.355-0.204,1.065l-0.051,0.048l0.1,0.306
				l-0.149,0.909l0.05,0.052v0.05l-0.05,0.153l0.05,0.454l-0.102,0.812l0.052,0.153l-0.102,0.101l0.05,0.151l-0.05,0.558
				l0.102,0.403h-0.052l0.052,0.052v0.049l-0.052,0.609l0.052,0.05v0.052l-0.102,0.605l0.102,0.661l-0.102,0.91l0.102,1.47
				l-0.052,0.049l0.052,0.507v0.406c0,1.449,0.217,2.716,0.659,3.798c0.209,0.305,0.343,0.455,0.403,0.455h0.103
				c0.159-0.095,0.326-0.397,0.507-0.91c0.152-0.238,0.252-0.559,0.303-0.962c0.118,0,0.22-0.508,0.302-1.52l-0.049-0.051v-0.053
				l0.101-0.151l-0.052-0.354v-0.102l0.052-0.456c-0.065-1.172-0.187-1.967-0.354-2.381c0-0.295-0.253-0.548-0.758-0.759
				l-0.558-0.559l-0.051-0.2c0.094-0.306,0.262-0.456,0.508-0.456l0.963,0.657l0.604,0.103l1.623-0.253v0.052l0.303-0.155l0.2,0.051
				c0-0.085,0.067-0.135,0.204-0.152c0.201,0.036,0.301,0.085,0.301,0.152v0.103c-0.071,0.211-0.53,0.413-1.364,0.606
				c-0.423,0.202-0.81,0.321-1.166,0.356l-0.151-0.052l-0.154,0.201v0.406c0.17,0,0.254,0.406,0.254,1.217l0.102,0.405l-0.052,0.15
				l0.103,0.507l-0.103,0.203l0.052,0.05v0.052c-0.034,0.683-0.083,1.071-0.152,1.165l0.051,0.049
				c-0.066,0.509-0.135,0.759-0.201,0.759l0.052,0.051v0.051c-0.374,1.958-0.862,2.938-1.47,2.938h-0.255
				c-0.227,0-0.496-0.271-0.81-0.811c-0.27-0.794-0.44-1.536-0.509-2.229l-0.102-1.163l0.053-0.152l-0.102-0.255l0.049-0.201
				l-0.049-0.202l0.049-0.05v-0.051l-0.099-0.303l0.099-0.61l-0.049-0.05l0.049-0.15l-0.099-0.912l0.05-0.306l-0.05-0.303
				l0.05-0.403v-0.103h-0.104V71.53l0.104-0.151l-0.05-0.963c0.022-2.566,0.073-3.849,0.151-3.849l-0.102-0.304
				c0.067-0.117,0.136-0.489,0.2-1.113l-0.1-0.103l0.302-1.367l-0.047-0.051v-0.049c0.159-1.487,0.396-2.23,0.706-2.23h0.156V61.349
				z"/>
			<path fill="#FFFFFF" d="M197.263,68.644c0.151,0.058,0.269,0.16,0.354,0.303v0.103c0,0.168-0.033,0.254-0.1,0.254l0.049,0.05
				v0.049c-0.134,0.633-0.237,1.528-0.303,2.684c0.102,1.283,0.288,1.925,0.557,1.925h0.201l0.103-0.101l0.051,0.052h0.101
				c0-0.128,0.305-0.414,0.91-0.86c0-0.145,0.272-0.483,0.813-1.016c0.051-0.337,0.117-0.504,0.2-0.504h0.102v0.101
				c0,0.278-0.135,0.616-0.403,1.014c-0.712,1.079-1.286,1.738-1.723,1.973l-0.456,0.104c-0.626,0-1.031-0.678-1.216-2.027
				l-0.052-0.76c-0.252,0.228-0.471,0.601-0.656,1.116c-0.145,0-0.314,0.27-0.511,0.809c-0.445,0.541-0.831,0.812-1.161,0.812
				h-0.154c-0.303-0.152-0.455-0.422-0.455-0.812l0.05-0.049l-0.05-0.354v-0.205c0-1.314,0.509-2.496,1.521-3.543
				c0.446-0.202,0.751-0.405,0.911-0.608l0.049,0.052h0.052C196.56,68.827,196.968,68.644,197.263,68.644z M194.273,72.644
				l0.1,0.455l-0.048,0.051V73.2l0.1,0.354h0.103c0.16-0.075,0.261-0.21,0.303-0.404c0.194-0.145,0.431-0.448,0.71-0.912
				l-0.053-0.05v-0.052c0.137,0,0.475-0.692,1.016-2.074l-0.053-0.204l0.053-0.05v-0.051l-0.053-0.052h-0.099
				c-0.237,0.103-0.66,0.439-1.269,1.016c-0.201,0.294-0.439,0.817-0.71,1.568C194.314,72.289,194.28,72.407,194.273,72.644z"/>
		</g>
	</g>
</g>
</svg>
