<?xml version="1.0" encoding="utf-8"?>
<!-- Generator: Adobe Illustrator 16.0.0, SVG Export Plug-In . SVG Version: 6.00 Build 0)  -->
<!DOCTYPE svg PUBLIC "-//W3C//DTD SVG 1.1//EN" "http://www.w3.org/Graphics/SVG/1.1/DTD/svg11.dtd">
<svg version="1.1" id="Capa_1" xmlns="http://www.w3.org/2000/svg" xmlns:xlink="http://www.w3.org/1999/xlink" x="0px" y="0px"
	 width="400.503px" height="167.496px" viewBox="0 0 400.503 167.496" enable-background="new 0 0 400.503 167.496"
	 xml:space="preserve">
<g>
	<g>
		<g>
			<path fill="#B1804A" d="M249.02,73.373c-13.541,0-24.558-11.017-24.558-24.557c0-13.541,11.017-24.557,24.558-24.557
				c13.54,0,24.558,11.016,24.558,24.557C273.577,62.356,262.56,73.373,249.02,73.373z M249.02,29.853
				c-10.457,0-18.965,8.507-18.965,18.964s8.508,18.964,18.965,18.964s18.963-8.507,18.963-18.964S259.477,29.853,249.02,29.853z"/>
		</g>
		<g>
			<path fill="#B1804A" d="M249.02,51.613c-1.546,0-2.797-1.252-2.797-2.797V16.988c0-1.545,1.251-2.797,2.797-2.797
				c1.544,0,2.796,1.252,2.796,2.797v31.828C251.815,50.361,250.563,51.613,249.02,51.613z"/>
		</g>
		<g>
			<path fill="#B1804A" d="M249.02,51.613c-1.544,0-2.797-1.251-2.797-2.796l-0.019-31.827c0-1.545,1.251-2.799,2.795-2.799h0.002
				c1.544,0,2.796,1.251,2.796,2.795l0.019,31.828c0.001,1.545-1.25,2.799-2.794,2.799H249.02z"/>
		</g>
		<g>
			<path fill="#B1804A" d="M249.021,51.613c-0.966,0-1.905-0.501-2.424-1.396l-15.93-27.557c-0.773-1.336-0.316-3.047,1.022-3.819
				c1.335-0.772,3.047-0.317,3.819,1.021l15.93,27.555c0.773,1.338,0.317,3.049-1.021,3.821
				C249.978,51.492,249.497,51.613,249.021,51.613z"/>
		</g>
		<g>
			<path fill="#B1804A" d="M249.017,51.613c-0.474,0-0.955-0.121-1.396-0.374L220.049,35.34c-1.338-0.771-1.797-2.482-1.026-3.82
				c0.771-1.337,2.483-1.797,3.821-1.024l27.571,15.898c1.339,0.771,1.798,2.481,1.026,3.82
				C250.924,51.111,249.984,51.613,249.017,51.613z"/>
		</g>
		<g>
			<path fill="#B1804A" d="M217.19,51.631c-1.544,0-2.797-1.251-2.797-2.796c-0.001-1.544,1.251-2.797,2.794-2.798l31.829-0.019
				h0.003c1.544,0,2.795,1.252,2.796,2.796c0.001,1.545-1.251,2.799-2.794,2.799l-31.829,0.018H217.19z"/>
		</g>
		<g>
			<path fill="#B1804A" d="M221.465,67.544c-0.965,0-1.905-0.501-2.424-1.399c-0.772-1.336-0.315-3.047,1.022-3.819l27.557-15.93
				c1.335-0.773,3.048-0.315,3.819,1.021c0.773,1.338,0.316,3.049-1.021,3.821l-27.557,15.929
				C222.422,67.422,221.94,67.544,221.465,67.544z"/>
		</g>
		<g>
			<path fill="#B1804A" d="M233.117,79.188c-0.475,0-0.955-0.121-1.395-0.375c-1.338-0.771-1.797-2.481-1.025-3.82l15.898-27.573
				c0.773-1.337,2.482-1.797,3.819-1.025c1.339,0.771,1.798,2.481,1.026,3.82l-15.898,27.572
				C235.025,78.685,234.084,79.188,233.117,79.188z"/>
		</g>
		<g>
			<path fill="#B1804A" d="M249.036,83.441c-1.544,0-2.797-1.25-2.797-2.796l-0.017-31.828c0-1.544,1.251-2.798,2.795-2.799h0.002
				c1.544,0,2.795,1.252,2.796,2.796l0.017,31.829C251.833,82.188,250.582,83.441,249.036,83.441L249.036,83.441z"/>
		</g>
		<g>
			<path fill="#B1804A" d="M264.95,79.17c-0.966,0-1.906-0.502-2.424-1.398l-15.929-27.555c-0.773-1.338-0.315-3.049,1.022-3.821
				c1.335-0.773,3.048-0.315,3.819,1.021l15.93,27.557c0.772,1.337,0.316,3.048-1.022,3.82
				C265.906,79.048,265.425,79.17,264.95,79.17z"/>
		</g>
		<g>
			<path fill="#B1804A" d="M276.589,67.514c-0.474,0-0.955-0.121-1.396-0.375l-27.572-15.899c-1.338-0.771-1.797-2.482-1.025-3.82
				c0.773-1.337,2.482-1.797,3.819-1.025l27.573,15.899c1.338,0.771,1.797,2.481,1.026,3.82
				C278.496,67.012,277.555,67.514,276.589,67.514z"/>
		</g>
		<g>
			<path fill="#B1804A" d="M249.02,51.613c-1.544,0-2.797-1.251-2.797-2.796c0-1.544,1.251-2.798,2.795-2.799l31.828-0.017h0.001
				c1.544,0,2.796,1.252,2.797,2.796s-1.251,2.797-2.796,2.798L249.02,51.613L249.02,51.613z"/>
		</g>
		<g>
			<path fill="#B1804A" d="M249.021,51.613c-0.966,0-1.906-0.501-2.424-1.396c-0.773-1.338-0.315-3.049,1.022-3.821l27.555-15.929
				c1.335-0.772,3.048-0.316,3.821,1.021c0.772,1.337,0.315,3.048-1.023,3.82l-27.554,15.929
				C249.978,51.492,249.497,51.613,249.021,51.613z"/>
		</g>
		<g>
			<path fill="#B1804A" d="M249.017,51.613c-0.474,0-0.955-0.121-1.396-0.374c-1.336-0.771-1.797-2.482-1.025-3.82l15.898-27.572
				c0.771-1.337,2.483-1.797,3.82-1.025c1.338,0.771,1.797,2.481,1.025,3.82l-15.898,27.572
				C250.924,51.111,249.984,51.613,249.017,51.613z"/>
		</g>
	</g>
	<g>
		<g>
			<polygon fill="#B3B2B2" points="168.158,156.516 168.158,82.386 173.959,82.386 173.959,156.516 171.058,160.865 			"/>
		</g>
		<g>
			<polygon fill="#B3B2B2" points="223.698,156.516 223.698,82.386 229.498,82.386 229.498,156.516 226.598,160.865 			"/>
		</g>
		<g>
			<polygon fill="#B3B2B2" points="209.813,156.516 209.813,82.386 215.613,82.386 215.613,156.516 212.713,160.865 			"/>
		</g>
		<g>
			<polygon fill="#B3B2B2" points="195.929,156.516 195.929,82.386 201.729,82.386 201.729,156.516 198.828,160.865 			"/>
		</g>
		<g>
			<polygon fill="#B3B2B2" points="182.043,156.516 182.043,82.386 187.844,82.386 187.844,156.516 184.943,160.865 			"/>
		</g>
		<g>
			<rect x="161.518" y="143.774" fill="#C7C6C7" width="74.129" height="5.802"/>
		</g>
		<g>
			<rect x="161.518" y="130.517" fill="#C7C6C7" width="74.129" height="5.8"/>
		</g>
		<g>
			<rect x="161.518" y="117.257" fill="#C7C6C7" width="74.129" height="5.802"/>
		</g>
		<g>
			<rect x="161.518" y="104" fill="#C7C6C7" width="74.129" height="5.8"/>
		</g>
		<g>
			<rect x="161.518" y="90.74" fill="#C7C6C7" width="74.129" height="5.801"/>
		</g>
	</g>
	<g>
		<g>
			<rect x="59.15" y="35.129" fill="#F9B334" width="48.891" height="129.896"/>
		</g>
		<g>
			<rect x="83.597" y="35.129" fill="#E89C20" width="24.444" height="129.896"/>
		</g>
		<g>
			<path fill="#B1804A" d="M83.597,35.129v-8.196h31.357c0,0-6.913,3.136-6.913,8.196H83.597z"/>
		</g>
		<g>
			<path fill="#E89C20" d="M83.596,35.129v-8.196H52.238c0,0,6.912,3.136,6.912,8.196H83.596z"/>
		</g>
		<g>
			<rect x="52.238" y="14.502" fill="#F9B334" width="31.358" height="12.431"/>
		</g>
		<g>
			<rect x="83.596" y="14.502" fill="#E89C20" width="31.358" height="12.431"/>
		</g>
		<g>
			<rect x="52.238" fill="#F9B334" width="11.47" height="14.502"/>
		</g>
		<g>
			<rect x="103.484" fill="#E89C20" width="11.47" height="14.502"/>
		</g>
		<g>
			<rect x="86.402" fill="#E89C20" width="11.47" height="14.502"/>
		</g>
		<g>
			<rect x="69.32" fill="#F9B334" width="11.47" height="14.502"/>
		</g>
		<g>
			<rect x="76.967" y="58.867" fill="#FCDFB1" width="12.846" height="16.75"/>
		</g>
		<g>
			<circle fill="#FCDFB1" cx="83.389" cy="58.867" r="6.392"/>
		</g>
		<g>
			<rect x="76.967" y="93.878" fill="#FCDFB1" width="12.846" height="16.75"/>
		</g>
		<g>
			<circle fill="#FCDFB1" cx="83.389" cy="93.878" r="6.392"/>
		</g>
	</g>
	<g>
		<g>
			<rect x="288.263" y="35.129" fill="#F9B334" width="48.892" height="129.896"/>
		</g>
		<g>
			<rect x="312.708" y="35.129" fill="#E89C20" width="24.446" height="129.896"/>
		</g>
		<g>
			<path fill="#B1804A" d="M312.708,35.129v-8.196h31.358c0,0-6.912,3.136-6.912,8.196H312.708z"/>
		</g>
		<g>
			<path fill="#E89C20" d="M312.708,35.129v-8.196H281.35c0,0,6.913,3.136,6.913,8.196H312.708z"/>
		</g>
		<g>
			<rect x="281.35" y="14.502" fill="#F9B334" width="31.358" height="12.431"/>
		</g>
		<g>
			<rect x="312.708" y="14.502" fill="#E89C20" width="31.358" height="12.431"/>
		</g>
		<g>
			<rect x="281.35" fill="#F9B334" width="11.471" height="14.502"/>
		</g>
		<g>
			<rect x="332.596" fill="#E89C20" width="11.471" height="14.502"/>
		</g>
		<g>
			<rect x="315.514" fill="#E89C20" width="11.471" height="14.502"/>
		</g>
		<g>
			<rect x="298.432" fill="#F9B334" width="11.471" height="14.502"/>
		</g>
		<g>
			<rect x="306.079" y="58.867" fill="#FCDFB1" width="12.844" height="16.75"/>
		</g>
		<g>
			<circle fill="#FCDFB1" cx="312.501" cy="58.867" r="6.392"/>
		</g>
		<g>
			<rect x="306.079" y="93.878" fill="#FCDFB1" width="12.844" height="16.75"/>
		</g>
		<g>
			<circle fill="#FCDFB1" cx="312.501" cy="93.878" r="6.392"/>
		</g>
	</g>
	<g>
		<g>
			<rect x="114.68" y="38.664" fill="#F9B334" width="11.47" height="14.504"/>
		</g>
		<g>
			<rect x="131.762" y="38.664" fill="#F9B334" width="11.47" height="14.504"/>
		</g>
		<g>
			<rect x="148.241" y="38.664" fill="#F9B334" width="11.471" height="14.504"/>
		</g>
		<g>
			<rect x="165.323" y="38.664" fill="#F9B334" width="11.471" height="14.504"/>
		</g>
		<g>
			<rect x="218.564" y="38.664" fill="#E89C20" width="11.471" height="14.504"/>
		</g>
		<g>
			<rect x="235.646" y="38.664" fill="#E89C20" width="11.471" height="14.504"/>
		</g>
		<g>
			<rect x="252.127" y="38.664" fill="#E89C20" width="11.471" height="14.504"/>
		</g>
		<g>
			<rect x="269.208" y="38.664" fill="#E89C20" width="11.47" height="14.504"/>
		</g>
		<g>
			<rect x="183.422" y="38.664" fill="#F9B334" width="11.47" height="14.504"/>
		</g>
		<g>
			<rect x="200.504" y="38.664" fill="#E89C20" width="11.47" height="14.504"/>
		</g>
		<g>
			<g>
				<path fill="#F9B334" d="M148.146,119.305c0-27.705,22.358-50.181,50.014-50.39V53.168h-90.119v111.856h39.814v-45.72H148.146z"
					/>
			</g>
			<g>
				<path fill="#E89C20" d="M288.277,53.168H198.16v15.747c0.129-0.002,0.256-0.01,0.386-0.01c27.834,0,50.398,22.564,50.398,50.399
					h0.292v45.72h39.041V53.168z"/>
			</g>
			<g>
				<path fill="#E89C20" d="M161.73,120.327c0-20.202,16.275-36.597,36.43-36.805V68.915c-27.655,0.209-50.014,22.685-50.014,50.39
					h-0.291v45.72h13.662v-44.697H161.73z"/>
			</g>
			<g>
				<path fill="#B1804A" d="M248.944,119.305c0-27.835-22.564-50.399-50.398-50.399c-0.13,0-0.257,0.008-0.386,0.01v14.607
					c0.129-0.001,0.256-0.009,0.386-0.009c20.332,0,36.814,16.481,36.814,36.813h0.214v44.697h13.662v-45.72H248.944z"/>
			</g>
		</g>
	</g>
	<g>
		<g>
			<path fill="#EE761F" d="M125.851,65.256c0,0,5.716,4.318,6.78,10.77c0.926,5.613-0.758,10.07-4.647,10.461
				c-8.788,0.883-8.732-8.135-5.144-11.559C128.444,69.576,125.851,65.256,125.851,65.256z"/>
		</g>
		<g>
			<path fill="#F9B334" d="M128.369,72.769c0,0,1.631,1.32,2.098,5.282c0.327,2.787-0.645,6.452-4.317,6.06
				c-2.907-0.312-2.261-3.34,0-5.665C128.728,75.793,128.369,72.769,128.369,72.769z"/>
		</g>
		<g>
			<rect x="120.568" y="94.52" fill="#878787" width="12.312" height="3.575"/>
		</g>
		<g>
			<path fill="#B3B2B2" d="M130.578,88.248h-7.318l1.871,29.585c-0.003,0.039-0.012,0.077-0.012,0.118c0,0.994,0.807,1.8,1.799,1.8
				c0.994,0,1.801-0.806,1.801-1.8c0-0.041-0.009-0.079-0.012-0.118L130.578,88.248z"/>
		</g>
	</g>
	<g>
		<g>
			<path fill="#EE761F" d="M20.302,114.771c0,0,0.933,4.979-7.147,10.255c-4.377,2.859-14.191,10.98-8.598,19.577
				c5.594,8.598,27.035,10.773,34.598,0.726c7.562-10.048-13.777-14.593-14.088-25.578c0,0-2.797,7.243,0.311,11.802
				c0,0-5.383-1.554-3.21-8.391C24.134,116.971,20.302,114.771,20.302,114.771z"/>
		</g>
		<g>
			<path fill="#F9B334" d="M19.059,124.819c0,0-14.399,8.598-11.084,16.366c3.314,7.77,12.948,8.391,20.096,7.045
				c7.146-1.348,5.025-6.113,0.621-7.666c-5.44-1.919-11.135-2.072-11.601-7.977C16.705,127.703,19.059,124.819,19.059,124.819z"/>
		</g>
		<g>
			<path fill="#B1804A" d="M29.937,165.32c-0.419,0-0.835-0.168-1.141-0.498l-7.77-8.391c-0.583-0.629-0.545-1.612,0.085-2.195
				c0.628-0.585,1.613-0.545,2.195,0.085l7.77,8.392c0.582,0.627,0.545,1.611-0.085,2.193
				C30.693,165.185,30.312,165.32,29.937,165.32z"/>
		</g>
		<g>
			<path fill="#B1804A" d="M13.777,165.01c-0.419,0-0.835-0.167-1.141-0.498c-0.584-0.629-0.545-1.613,0.084-2.195l8.391-7.77
				c0.628-0.585,1.613-0.544,2.195,0.086c0.583,0.629,0.546,1.612-0.084,2.195l-8.392,7.768
				C14.533,164.873,14.154,165.01,13.777,165.01z"/>
		</g>
		<g>
			<path fill="#B3B2B2" d="M44.334,143.774c0,9.155-9.925,16.574-22.167,16.574C9.924,160.349,0,152.93,0,143.774H44.334z"/>
		</g>
		<g>
			<path fill="#B1804A" d="M22.167,167.496c-0.858,0-1.555-0.695-1.555-1.554v-7.77c0-0.858,0.696-1.553,1.555-1.553
				s1.553,0.694,1.553,1.553v7.77C23.72,166.801,23.025,167.496,22.167,167.496z"/>
		</g>
	</g>
	<g>
		<g>
			<path fill="#EE761F" d="M269.946,65.256c0,0-5.716,4.318-6.781,10.77c-0.925,5.613,0.761,10.07,4.649,10.461
				c8.787,0.883,8.73-8.135,5.144-11.559C267.354,69.576,269.946,65.256,269.946,65.256z"/>
		</g>
		<g>
			<path fill="#F9B334" d="M267.428,72.769c0,0-1.632,1.32-2.098,5.282c-0.328,2.787,0.646,6.452,4.316,6.06
				c2.909-0.312,2.262-3.34,0-5.665C267.069,75.793,267.428,72.769,267.428,72.769z"/>
		</g>
		<g>
			<rect x="262.917" y="94.52" fill="#717070" width="12.312" height="3.575"/>
		</g>
		<g>
			<path fill="#878787" d="M265.219,88.248h7.318l-1.87,29.585c0.001,0.039,0.011,0.077,0.011,0.118c0,0.994-0.806,1.8-1.799,1.8
				c-0.995,0-1.801-0.806-1.801-1.8c0-0.041,0.009-0.079,0.012-0.118L265.219,88.248z"/>
		</g>
	</g>
	<g>
		<g>
			<path fill="#EE761F" d="M380.201,114.771c0,0-0.933,4.979,7.146,10.255c4.378,2.859,14.191,10.98,8.599,19.577
				c-5.595,8.598-27.036,10.773-34.597,0.726c-7.562-10.048,13.776-14.593,14.086-25.578c0,0,2.797,7.243-0.31,11.802
				c0,0,5.382-1.554,3.21-8.391C376.368,116.971,380.201,114.771,380.201,114.771z"/>
		</g>
		<g>
			<path fill="#F9B334" d="M381.442,124.819c0,0,14.401,8.598,11.086,16.366c-3.315,7.77-12.949,8.391-20.097,7.045
				c-7.146-1.348-5.023-6.113-0.621-7.666c5.44-1.919,11.135-2.072,11.602-7.977C383.798,127.703,381.442,124.819,381.442,124.819z"
				/>
		</g>
		<g>
			<path fill="#B1804A" d="M370.566,165.32c-0.378,0-0.756-0.136-1.056-0.414c-0.63-0.582-0.667-1.566-0.083-2.193l7.769-8.392
				c0.581-0.63,1.565-0.669,2.195-0.085c0.63,0.583,0.667,1.566,0.084,2.195l-7.77,8.391
				C371.4,165.152,370.984,165.32,370.566,165.32z"/>
		</g>
		<g>
			<path fill="#B1804A" d="M386.727,165.01c-0.379,0-0.758-0.137-1.057-0.414l-8.39-7.768c-0.63-0.583-0.669-1.566-0.084-2.195
				c0.581-0.63,1.565-0.671,2.195-0.086l8.39,7.77c0.629,0.582,0.668,1.566,0.084,2.195
				C387.561,164.843,387.144,165.01,386.727,165.01z"/>
		</g>
		<g>
			<path fill="#878787" d="M356.168,143.774c0,9.155,9.925,16.574,22.168,16.574c12.242,0,22.167-7.419,22.167-16.574H356.168z"/>
		</g>
		<g>
			<path fill="#B1804A" d="M378.336,167.496c-0.859,0-1.554-0.695-1.554-1.554v-7.77c0-0.858,0.694-1.553,1.554-1.553
				c0.857,0,1.554,0.694,1.554,1.553v7.77C379.89,166.801,379.193,167.496,378.336,167.496z"/>
		</g>
	</g>
</g>
</svg>
