<?xml version="1.0" encoding="utf-8"?>
<!-- Generator: Adobe Illustrator 16.0.0, SVG Export Plug-In . SVG Version: 6.00 Build 0)  -->
<!DOCTYPE svg PUBLIC "-//W3C//DTD SVG 1.1//EN" "http://www.w3.org/Graphics/SVG/1.1/DTD/svg11.dtd">
<svg version="1.1" id="Capa_1" xmlns="http://www.w3.org/2000/svg" xmlns:xlink="http://www.w3.org/1999/xlink" x="0px" y="0px"
	 width="200px" height="107.562px" viewBox="0 0 200 107.562" enable-background="new 0 0 200 107.562" xml:space="preserve">
<g>
	<g>
		<path fill="#FFFFFF" d="M96.97,50.953c-1.112,0.994-0.972,0.951-0.589,1.184c0.384,0.237,1.81,0.319,2.614-1.14
			C99.8,49.539,98.08,49.961,96.97,50.953z"/>
		<path fill="#FFFFFF" d="M87.685,47.685c1.21-1.068-4.06-1.49-4.06-1.49s0.202-0.523,0.977-1.213
			c-0.858,0.487-1.677,1.032-2.475,1.604c1.005,0.513,1.986,1.106,2.944,1.774C86.39,48.111,87.338,47.992,87.685,47.685z"/>
		<path fill="#FFFFFF" d="M130.763,70.198c-2.309-0.361-4.554-0.199-4.632-0.192c0.182,0.69-0.23,4.25-0.314,4.746
			c0.019,0.009,2.263-0.364,4.946,0.299c8.958,2.575,8.287,13.446-1.833,13.446c-23.778,0-33.067-41.479-55.227-41.479
			c-9.425,0-16.958,6.544-16.958,13.643c0,6.328,4.081,13.534,13.197,15.027l1.078,0.17l-0.032-0.27
			c0.372,1.677,0.885,3.296,1.54,4.845c-0.469-4.28,1.27-6.105,0.899-9.583c-0.28-2.638-2.252-3.6-2.517-7.144
			c-0.389,1.861-0.594,3.791-0.594,5.77c0,0.528,0.018,1.05,0.046,1.571l-0.418-0.063c-13.829-2.753-9.444-19.624,3.437-19.624
			c19.497,0,28.87,41.514,55.815,41.514c5.46,0,12.501-3.171,12.501-10.534C141.694,76.081,137.058,71.337,130.763,70.198z"/>
		<path fill="#FFFFFF" d="M115.918,90.623c-2.051,1.722-4.319,3.12-6.732,4.177c-0.328,0.142-0.657,0.277-0.989,0.408
			c-0.417-0.104-0.82-0.253-1.207-0.449c-5.589-2.866-1.535-6.985,0.035-8.517c0.241-0.235,0.553-0.55,0.895-0.928
			c-6.516-6.322-11.954-14.498-17.509-20.949c-1.637,1.488-3.554,2.933-5.536,4.618c-4.87,4.137-10.514,13.468-4.103,19.495
			c-1.228,0.131-2.4-0.017-3.458-0.437c5.158,5.871,12.717,9.582,21.146,9.582c2.755,0,5.414-0.403,7.931-1.142
			c0.077-0.022,0.156-0.045,0.235-0.068c0.19-0.056,0.379-0.117,0.568-0.18c0.217-0.07,0.434-0.144,0.649-0.22
			c0.188-0.066,0.374-0.134,0.56-0.202c0.081-0.032,0.159-0.066,0.239-0.098c0.271-0.104,0.542-0.205,0.808-0.318
			c-0.009-0.001-0.017-0.002-0.024-0.002c2.576-1.126,4.996-2.635,7.166-4.502C116.593,90.891,115.977,90.574,115.918,90.623z"/>
		<path fill="#FFFFFF" d="M121.903,84.63c1.495-2.493,2.579-5.232,3.333-8.072l-0.311-0.082c-0.74,2.784-1.918,5.44-3.475,7.864
			C121.42,84.327,121.902,84.635,121.903,84.63z"/>
		<path fill="#FFFFFF" d="M107.057,44.779c-0.302,1.237-0.651,1.847-1.87,1.719c-1.218-0.128-2.46-0.61-3.225,0.377
			c-0.762,0.984-1.495,0.87-2.255,0.553c-0.761-0.317-1.276-0.066-1.749,0.629s-1.479,2.624-2.221,1.898
			c-0.741-0.726-0.607-0.394-0.372-1.118c0.235-0.721,1.22-1.491,0.772-1.554c-0.447-0.063-5.161-0.149-8.39,3.161
			c0.039,0.034,0.078,0.068,0.118,0.102c3.52,0.034,7.893,0.773,7.155,6.133c-0.051,0.384-0.128,0.751-0.217,1.107
			c4.27,5.101,8.368,10.887,12.781,15.886c-1.907-3.092-1.936-6.336-0.368-9.391c1.979-3.856,5.877-3.02,8.069-1.262
			c2.19,1.757,5.382,4.79,7.009,3.819c2.539-1.534-0.071-4.745-0.071-4.745s-0.092,3.247-0.815,3.247
			c-0.722,0-0.865-3.449-1.35-3.769c-1.376-0.511-0.511,2.539-3.028,1.166c-2.514-1.375-1.608-4.649-0.464-6.069
			c1.142-1.417,3.058,0.704,3.572,1.154c0.513,0.447,1.514,0.974,2.646,0.974c0.799,0,2.537,3.991,3.488,6.341
			c-2.087-13.485-13.744-23.806-27.813-23.806c-2.413,0-4.755,0.303-6.99,0.873c0.925-0.163,1.954-0.295,3.104-0.388
			C104.144,41.047,107.356,43.54,107.057,44.779z M98.996,50.997c-0.806,1.46-2.232,1.376-2.615,1.14
			c-0.383-0.233-0.523-0.19,0.589-1.184C98.08,49.961,99.8,49.539,98.996,50.997z"/>
	</g>
	<g>
		<path fill="#FFFFFF" d="M29.121,60.834c-3.22-1.598-4.447-5.039-2.82-8.323c0.881-1.778,1.997-2.822,3.468-3.21l0.751,2.269
			c-0.831,0.267-1.573,0.678-2.2,1.943c-0.977,1.97-0.091,4.005,1.944,5.014c2.035,1.01,4.24,0.466,5.375-1.825
			c0.351-0.704,0.652-1.635,0.657-2.329l-1.603-0.794l-1.302,2.627l-1.97-0.977l2.319-4.679l4.709,2.336
			c0.203,0.878,0.178,2.822-0.807,4.807C35.88,61.25,32.34,62.429,29.121,60.834z"/>
		<path fill="#FFFFFF" d="M30.851,44.75l1.478-2.021l8.041,5.877l3.25-4.447l1.774,1.298l-4.726,6.468L30.851,44.75z"/>
		<path fill="#FFFFFF" d="M41.793,40.111c-2.48-2.601-2.287-6.44,0.249-8.858c2.536-2.417,6.38-2.426,8.859,0.174
			c2.479,2.601,2.286,6.438-0.25,8.857C48.116,42.702,44.272,42.711,41.793,40.111z M49.038,33.203
			c-1.566-1.643-3.851-1.861-5.454-0.333c-1.604,1.53-1.495,3.821,0.071,5.464c1.567,1.644,3.851,1.863,5.455,0.333
			C50.714,37.137,50.605,34.846,49.038,33.203z"/>
		<path fill="#FFFFFF" d="M49.835,24.797l3.94-2.565c1.903-1.238,3.748-0.734,4.684,0.706c0.614,0.943,0.479,1.949-0.219,2.809
			c1.608-0.577,2.887-0.087,3.715,1.185c1.181,1.813,0.761,3.985-1.368,5.37l-4.119,2.682L49.835,24.797z M56,26.139
			c0.675-0.439,0.879-1.106,0.499-1.69s-0.999-0.714-1.643-0.295l-1.722,1.122l1.248,1.917L56,26.139z M59.299,30.518
			c0.854-0.556,1.022-1.477,0.476-2.315c-0.536-0.825-1.461-1.033-2.419-0.408l-1.813,1.18l1.824,2.801L59.299,30.518z"/>
		<path fill="#FFFFFF" d="M64.488,16.386l0.196-0.085l9.978,9.042l-2.411,1.045l-1.074-1.036l-4.526,1.962l0.022,1.491l-2.215,0.96
			L64.488,16.386z M69.526,23.79l-1.643-1.588c-0.669-0.646-1.54-1.709-1.54-1.709s0.198,1.356,0.211,2.285l0.036,2.284
			L69.526,23.79z"/>
		<path fill="#FFFFFF" d="M72.849,13.32l2.427-0.611l2.431,9.655l5.34-1.344l0.537,2.132l-7.766,1.954L72.849,13.32z"/>
		<path fill="#FFFFFF" d="M88.318,16.268c-0.062-3.591,2.428-6.263,6.091-6.329c1.984-0.035,3.423,0.476,4.444,1.601l-1.668,1.71
			c-0.618-0.615-1.325-1.086-2.735-1.06c-2.198,0.038-3.598,1.762-3.559,4.032c0.041,2.268,1.537,3.977,4.093,3.931
			c0.787-0.013,1.749-0.173,2.369-0.488l-0.033-1.788l-2.931,0.051l-0.039-2.197l5.219-0.094l0.093,5.255
			c-0.687,0.584-2.424,1.456-4.64,1.495C91.057,22.46,88.383,19.862,88.318,16.268z"/>
		<path fill="#FFFFFF" d="M107.931,10.988l0.213,0.034l3.469,13.014l-2.595-0.433l-0.337-1.451l-4.867-0.813l-0.792,1.264
			l-2.38-0.396L107.931,10.988z M108.141,19.941l-0.516-2.225c-0.212-0.905-0.365-2.272-0.365-2.272s-0.569,1.247-1.063,2.035
			l-1.211,1.937L108.141,19.941z"/>
		<path fill="#FFFFFF" d="M117.03,12.78l0.184,0.07l3.264,8.278l7.851-4.055l0.201,0.075l-4.36,11.483l-2.256-0.857l1.618-4.261
			c0.292-0.77,0.84-1.958,0.84-1.958s-1.067,0.744-1.831,1.142l-3.215,1.667l-0.218-0.083l-1.297-3.379
			c-0.307-0.806-0.61-2.069-0.61-2.069s-0.381,1.253-0.673,2.022l-1.619,4.262l-2.24-0.851L117.03,12.78z"/>
		<path fill="#FFFFFF" d="M132.238,19.335l6.855,4.213l-1.15,1.874l-4.725-2.903l-2.021,3.291l4.158,2.557l-1.124,1.828
			l-4.157-2.557l-0.919,1.493l4.936,3.034l-1.152,1.874l-7.067-4.345L132.238,19.335z"/>
		<path fill="#FFFFFF" d="M138.089,35.309l2.332,0.491c-0.19,0.777-0.331,1.454,0.294,2.039c0.602,0.562,1.199,0.681,2.054-0.233
			l5.812-6.214l1.828,1.709l-5.837,6.241c-1.77,1.894-3.686,1.718-5.304,0.203C137.806,38.177,137.664,36.626,138.089,35.309z"/>
		<path fill="#FFFFFF" d="M155.914,39.281l0.134,0.169l-6.195,11.954l-1.627-2.065l0.73-1.3l-3.053-3.877l-1.436,0.403l-1.493-1.896
			L155.914,39.281z M150.045,46.041l1.116-1.992c0.452-0.812,1.26-1.925,1.26-1.925s-1.261,0.538-2.156,0.788l-2.199,0.616
			L150.045,46.041z"/>
		<path fill="#FFFFFF" d="M161.435,46.716l0.089,0.175l-3.146,8.324l8.54,2.271l0.098,0.191l-10.945,5.572l-1.096-2.152l4.062-2.066
			c0.732-0.373,1.936-0.886,1.936-0.886s-1.288-0.167-2.121-0.384l-3.5-0.928l-0.106-0.206l1.312-3.375
			c0.312-0.802,0.937-1.942,0.937-1.942s-1.124,0.672-1.855,1.044l-4.063,2.069l-1.087-2.136L161.435,46.716z"/>
	</g>
	<g>
		<path fill="#FFFFFF" d="M171.899,66.316l-0.323-1.215l0.77-0.205l0.879,3.306l-0.769,0.205l-0.322-1.215l-3.487,0.929
			l-0.236-0.876L171.899,66.316z"/>
		<path fill="#FFFFFF" d="M173.538,69.269l0.016,0.07l-1.911,2.598l2.758,1.628l0.016,0.076l-4.365,0.875l-0.171-0.857l1.619-0.324
			c0.292-0.059,0.763-0.12,0.763-0.12s-0.435-0.186-0.703-0.341l-1.133-0.665l-0.017-0.083l0.787-1.051
			c0.188-0.249,0.517-0.586,0.517-0.586s-0.456,0.125-0.75,0.183l-1.619,0.325l-0.17-0.852L173.538,69.269z"/>
	</g>
</g>
</svg>
