<?xml version="1.0" encoding="utf-8"?>
<!-- Generator: Adobe Illustrator 16.0.0, SVG Export Plug-In . SVG Version: 6.00 Build 0)  -->
<!DOCTYPE svg PUBLIC "-//W3C//DTD SVG 1.1//EN" "http://www.w3.org/Graphics/SVG/1.1/DTD/svg11.dtd">
<svg version="1.1" id="Capa_1" xmlns="http://www.w3.org/2000/svg" xmlns:xlink="http://www.w3.org/1999/xlink" x="0px" y="0px"
	 width="157.564px" height="145.508px" viewBox="0 0 157.564 145.508" enable-background="new 0 0 157.564 145.508"
	 xml:space="preserve">
<g>
	<g>
		<path fill="#FFFFFF" d="M27.247,15.837h4.971v10.066c-2.78,3.061-6.753,4.591-11.919,4.591c-4.354,0-7.996-1.432-10.932-4.296
			c-2.934-2.864-4.4-6.487-4.4-10.867c0-4.381,1.495-8.03,4.485-10.951C12.443,1.46,16.059,0,20.299,0
			c4.238,0,7.762,1.235,10.57,3.707l-2.652,3.79c-1.151-0.982-2.312-1.663-3.476-2.042c-1.165-0.38-2.52-0.57-4.065-0.57
			c-2.975,0-5.475,0.962-7.496,2.885c-2.021,1.924-3.032,4.451-3.032,7.582c0,3.132,0.982,5.644,2.948,7.539
			c1.965,1.896,4.344,2.843,7.14,2.843c2.793,0,5.131-0.603,7.012-1.811V15.837z"/>
		<path fill="#FFFFFF" d="M51.045,23.46l-2.949,6.697H42.79L55.762,0.716h5.308l12.974,29.442h-5.309l-2.948-6.697H51.045z
			 M63.767,18.869l-5.35-12.13l-5.351,12.13H63.767z"/>
		<path fill="#FFFFFF" d="M91.52,30.158h-4.968V0.716h7.749l8.886,18.49l8.889-18.49h7.707v29.442h-4.971V7.16l-10.276,20.428
			h-2.778L91.52,7.16V30.158z"/>
		<path fill="#FFFFFF" d="M157.059,0.716v4.676h-15.71v7.792h14.108v4.423h-14.108v7.875h16.216v4.676h-21.187V0.716H157.059z"/>
	</g>
	<g>
		<path fill="#FFFFFF" d="M7.549,48.323v-8.9h24.178V69.71c0,5.535-1.43,9.675-4.284,12.42c-2.856,2.746-6.521,4.117-10.993,4.117
			c-5.578,0-10.45-2.146-14.611-6.442l5.38-7.438c2.789,3.012,5.712,4.518,8.767,4.518c1.462,0,2.712-0.565,3.753-1.694
			c1.04-1.13,1.562-2.823,1.562-5.083V48.323H7.549z"/>
		<path fill="#FFFFFF" d="M81.807,85.85L77.49,75.822H58.028L53.711,85.85H42.686l20.06-46.427h10.028L92.831,85.85H81.807z
			 M67.792,53.238l-5.845,13.483h11.622L67.792,53.238z"/>
		<path fill="#FFFFFF" d="M146.433,56.625l-12.554,25.372h-6.177l-12.487-25.372V85.85h-10.361V39.423h14.015l11.956,25.504
			l12.021-25.504h13.947V85.85h-10.36V56.625z"/>
	</g>
	<path fill="#FFFFFF" d="M145.39,120.805c6.823,0,12.353-5.531,12.353-12.354s-5.529-12.352-12.353-12.352h-24.704v49.409h24.704
		c6.823,0,12.353-5.531,12.353-12.352C157.742,126.334,152.213,120.805,145.39,120.805z"/>
	<path fill="#FFFFFF" d="M84.548,96.099H59.842v49.409h24.706c13.645,0,24.704-11.061,24.704-24.703
		C109.252,107.158,98.192,96.099,84.548,96.099z"/>
	<g>
		<path fill="#FFFFFF" d="M24.706,96.099C8.709,96.099,0,107.158,0,120.805c0,2.217,0.299,4.367,0.847,6.412
			c0,0,0.437,1.488,1.923,1.689c1.315,0.18,2.603-0.33,2.879-0.447c0.021-0.012,0.039-0.021,0.063-0.033l0.013-0.018
			c0,0.004,0,0.008,0,0.012c2.949-1.477,9.779-4.293,18.981-4.293c8.897,0,15.775,2.631,18.983,4.135c0-0.006,0-0.012,0-0.018
			l0.016,0.02c0,0,0.023,0.016,0.05,0.027c0.151,0.074,0.29,0.139,0.423,0.205c0.542,0.232,1.477,0.541,2.44,0.41
			c1.484-0.201,1.921-1.689,1.921-1.689h0.024c0.548-2.045,0.847-4.195,0.847-6.412C49.41,107.158,41.311,96.099,24.706,96.099z
			 M3.372,120.699c0.022-5.959,1.833-10.93,5.036-14.566c1.472,1.559,2.389,3.65,2.389,5.963
			C10.797,116.467,7.573,120.078,3.372,120.699z M24.77,119.184c-4.811,0-8.707-3.898-8.707-8.707c0-4.811,3.896-8.709,8.707-8.709
			c4.809,0,8.707,3.898,8.707,8.709C33.477,115.285,29.578,119.184,24.77,119.184z M46.031,120.805c-4.809,0-8.707-3.9-8.707-8.709
			c0-2.736,1.268-5.172,3.242-6.766c3.541,3.656,5.476,8.91,5.476,15.475H46.031z"/>
		<ellipse fill="#FFFFFF" cx="19.644" cy="133.496" rx="0.708" ry="1.418"/>
		<path fill="#FFFFFF" d="M24.706,126.371c-9.831,0-16.927,3.471-18.848,4.52c1.095,13.066,8.339,14.617,18.848,14.617
			c10.544,0,17.802-1.793,18.858-14.805C41.091,129.465,33.982,126.371,24.706,126.371z M19.237,140.928
			c-1.063,0-1.923-2.176-1.923-4.859s0.859-4.859,1.923-4.859s1.923,2.176,1.923,4.859S20.301,140.928,19.237,140.928z
			 M30.172,140.928c-1.063,0-1.923-2.176-1.923-4.859s0.859-4.859,1.923-4.859s1.926,2.176,1.926,4.859
			S31.235,140.928,30.172,140.928z"/>
		<ellipse fill="#FFFFFF" cx="30.511" cy="133.496" rx="0.709" ry="1.418"/>
	</g>
</g>
</svg>
