<?xml version="1.0" encoding="utf-8"?>
<!-- Generator: Adobe Illustrator 16.0.0, SVG Export Plug-In . SVG Version: 6.00 Build 0)  -->
<!DOCTYPE svg PUBLIC "-//W3C//DTD SVG 1.1//EN" "http://www.w3.org/Graphics/SVG/1.1/DTD/svg11.dtd">
<svg version="1.1" id="Capa_1" xmlns="http://www.w3.org/2000/svg" xmlns:xlink="http://www.w3.org/1999/xlink" x="0px" y="0px"
	 width="361.686px" height="29.934px" viewBox="0 0 361.686 29.934" enable-background="new 0 0 361.686 29.934"
	 xml:space="preserve">
<g>
	<g>
		<path fill="#FFFFFF" d="M22.28,16.617h4.971v10.067c-2.78,3.061-6.753,4.59-11.919,4.59c-4.354,0-7.996-1.432-10.932-4.295
			C1.467,24.115,0,20.492,0,16.112c0-4.381,1.495-8.03,4.485-10.951c2.991-2.92,6.606-4.381,10.847-4.381
			c4.238,0,7.762,1.235,10.57,3.707l-2.652,3.79c-1.151-0.982-2.312-1.663-3.476-2.042c-1.165-0.38-2.52-0.57-4.065-0.57
			c-2.975,0-5.475,0.962-7.496,2.885c-2.021,1.924-3.032,4.451-3.032,7.582c0,3.131,0.982,5.643,2.948,7.54
			c1.965,1.895,4.344,2.842,7.14,2.842c2.793,0,5.131-0.603,7.012-1.811V16.617z"/>
		<path fill="#FFFFFF" d="M43.078,24.241l-2.949,6.697h-5.306L47.795,1.496h5.308l12.974,29.442h-5.309l-2.948-6.697H43.078z
			 M55.8,19.649l-5.35-12.13L45.1,19.649H55.8z"/>
		<path fill="#FFFFFF" d="M80.553,30.938h-4.968V1.496h7.749l8.886,18.491l8.889-18.491h7.707v29.442h-4.971V7.94L93.568,28.368
			H90.79L80.553,7.94V30.938z"/>
		<path fill="#FFFFFF" d="M143.092,1.496v4.676h-15.71v7.792h14.108v4.424h-14.108v7.875h16.216v4.676h-21.187V1.496H143.092z"/>
	</g>
	<g>
		<path fill="#66BB8D" d="M161.277,6.947V1.496h14.809v18.551c0,3.391-0.875,5.927-2.623,7.607c-1.75,1.684-3.995,2.522-6.734,2.522
			c-3.416,0-6.401-1.315-8.949-3.946l3.294-4.557c1.71,1.846,3.5,2.768,5.371,2.768c0.895,0,1.661-0.346,2.298-1.037
			c0.638-0.693,0.957-1.73,0.957-3.113V6.947H161.277z"/>
		<path fill="#66BB8D" d="M206.763,29.934l-2.646-6.143h-11.92l-2.645,6.143h-6.754l12.288-28.438h6.144l12.284,28.438H206.763z
			 M198.178,9.958l-3.58,8.259h7.118L198.178,9.958z"/>
		<path fill="#66BB8D" d="M246.347,12.033l-7.688,15.542h-3.785l-7.649-15.542v17.901h-6.346V1.496h8.584l7.324,15.622l7.363-15.622
			h8.543v28.438h-6.347V12.033z"/>
	</g>
	<path fill="#FFFFFF" d="M354.253,14.865c4.106,0,7.433-3.328,7.433-7.433c0-4.105-3.326-7.432-7.433-7.432h-14.862v29.728h14.862
		c4.106,0,7.433-3.327,7.433-7.432S358.359,14.865,354.253,14.865z"/>
	<path fill="#FFFFFF" d="M317.647,0h-14.866v29.728h14.866c8.209,0,14.862-6.655,14.862-14.863C332.51,6.654,325.856,0,317.647,0z"
		/>
	<g>
		<path fill="#FFFFFF" d="M281.641,0c-9.624,0-14.864,6.654-14.864,14.865c0,1.334,0.181,2.628,0.51,3.858
			c0,0,0.262,0.895,1.156,1.016c0.792,0.108,1.566-0.197,1.732-0.269c0.013-0.007,0.023-0.013,0.038-0.021l0.008-0.01
			c0,0.002,0,0.004,0,0.006c1.774-0.888,5.884-2.583,11.42-2.583c5.354,0,9.492,1.583,11.423,2.489c0-0.004,0-0.008,0-0.012
			l0.009,0.013c0,0,0.015,0.009,0.03,0.017c0.092,0.043,0.175,0.083,0.255,0.123c0.325,0.141,0.889,0.325,1.469,0.246
			c0.893-0.121,1.155-1.016,1.155-1.016h0.015c0.329-1.23,0.51-2.524,0.51-3.858C296.506,6.654,291.632,0,281.641,0z
			 M268.805,14.801c0.015-3.585,1.104-6.575,3.031-8.764c0.885,0.938,1.437,2.196,1.437,3.588
			C273.272,12.255,271.333,14.427,268.805,14.801z M281.68,13.889c-2.895,0-5.238-2.346-5.238-5.239
			c0-2.894,2.344-5.239,5.238-5.239c2.894,0,5.238,2.345,5.238,5.239C286.918,11.543,284.573,13.889,281.68,13.889z M294.472,14.865
			c-2.893,0-5.237-2.347-5.237-5.239c0-1.646,0.762-3.112,1.95-4.072c2.13,2.2,3.294,5.362,3.294,9.311H294.472z"/>
		<ellipse fill="#FFFFFF" cx="278.596" cy="22.5" rx="0.426" ry="0.854"/>
		<path fill="#FFFFFF" d="M281.641,18.214c-5.914,0-10.184,2.088-11.339,2.719c0.658,7.862,5.017,8.795,11.339,8.795
			c6.345,0,10.712-1.079,11.347-8.907C291.5,20.076,287.223,18.214,281.641,18.214z M278.352,26.972
			c-0.641,0-1.158-1.31-1.158-2.925c0-1.613,0.518-2.924,1.158-2.924c0.64,0,1.157,1.311,1.157,2.924
			C279.509,25.663,278.991,26.972,278.352,26.972z M284.931,26.972c-0.64,0-1.157-1.31-1.157-2.925c0-1.613,0.518-2.924,1.157-2.924
			s1.158,1.311,1.158,2.924C286.089,25.663,285.57,26.972,284.931,26.972z"/>
		<ellipse fill="#FFFFFF" cx="285.134" cy="22.5" rx="0.427" ry="0.854"/>
	</g>
</g>
</svg>
