<?xml version="1.0" encoding="utf-8"?>
<!-- Generator: Adobe Illustrator 16.0.0, SVG Export Plug-In . SVG Version: 6.00 Build 0)  -->
<!DOCTYPE svg PUBLIC "-//W3C//DTD SVG 1.1//EN" "http://www.w3.org/Graphics/SVG/1.1/DTD/svg11.dtd">
<svg version="1.1" id="Layer_1" xmlns="http://www.w3.org/2000/svg" xmlns:xlink="http://www.w3.org/1999/xlink" x="0px" y="0px"
	 width="25px" height="21px" viewBox="0 2 25 21" enable-background="new 0 2 25 21" xml:space="preserve">
<path fill="#FFFFFF" d="M0.125,4c0-1.104,0.896-2,2-2h20.75c1.104,0,2,0.896,2,2s-0.896,2-2,2H2.125C1.021,6,0.125,5.104,0.125,4z
	 M22.875,10.5H2.125c-1.104,0-2,0.896-2,2c0,1.104,0.896,2,2,2h20.75c1.104,0,2-0.896,2-2C24.875,11.396,23.98,10.5,22.875,10.5z
	 M22.875,19H2.125c-1.104,0-2,0.896-2,2s0.896,2,2,2h20.75c1.104,0,2-0.896,2-2S23.98,19,22.875,19z"/>
</svg>
