<?xml version="1.0" encoding="utf-8"?>
<!-- Generator: Adobe Illustrator 16.0.0, SVG Export Plug-In . SVG Version: 6.00 Build 0)  -->
<!DOCTYPE svg PUBLIC "-//W3C//DTD SVG 1.1//EN" "http://www.w3.org/Graphics/SVG/1.1/DTD/svg11.dtd">
<svg version="1.1" xmlns="http://www.w3.org/2000/svg" xmlns:xlink="http://www.w3.org/1999/xlink" x="0px" y="0px"
	 width="79.447px" height="79.445px" viewBox="0 0 79.447 79.445" enable-background="new 0 0 79.447 79.445" xml:space="preserve">
<g id="Capa_1">
	<circle fill="#1A1A1A" cx="39.724" cy="39.723" r="39.724"/>
	<path fill="#FFFFFF" d="M62.525,27.836C55.19,15.785,44.14,24.169,44.14,24.169c-0.717,0.541-2.038,0.987-2.936,0.989l-2.96,0.001
		c-0.897,0.001-2.219-0.444-2.935-0.985c0,0-11.049-8.386-18.385,3.664c-7.334,12.048-4.379,25.167-4.379,25.167
		c0.518,3.211,2.225,5.355,5.445,5.086c3.212-0.269,10.182-8.65,10.182-8.65c0.576-0.692,1.781-1.256,2.678-1.256l17.744-0.002
		c0.896,0,2.102,0.563,2.676,1.254c0,0,6.972,8.383,10.188,8.651c3.217,0.271,4.928-1.875,5.442-5.087
		C66.899,53.002,69.859,39.885,62.525,27.836z M33.056,37.645h-3.805v3.667c0,0-0.807,0.615-2.053,0.599
		c-1.245-0.018-1.809-0.671-1.809-0.671v-3.595h-3.594c0,0-0.448-0.46-0.568-1.67c-0.118-1.211,0.496-2.189,0.496-2.189h3.806
		v-3.805c0,0,0.782-0.419,1.909-0.387c1.126,0.035,1.952,0.459,1.952,0.459l-0.016,3.731h3.594c0,0,0.626,0.805,0.679,1.779
		C33.699,36.539,33.056,37.645,33.056,37.645z M50.507,41.824c-1.666,0-3.01-1.347-3.01-3.011c0-1.667,1.344-3.012,3.01-3.012
		c1.658,0,3.012,1.345,3.012,3.012C53.518,40.478,52.165,41.824,50.507,41.824z M50.507,33.539c-1.666,0-3.01-1.346-3.01-3.01
		c0-1.667,1.344-3.012,3.01-3.012c1.658,0,3.012,1.345,3.012,3.012C53.518,32.194,52.165,33.539,50.507,33.539z M58.008,37.987
		c-1.667,0-3.01-1.346-3.01-3.011c0-1.666,1.343-3.012,3.01-3.012c1.657,0,3.012,1.346,3.012,3.012
		C61.019,36.64,59.665,37.987,58.008,37.987z"/>
	<g id="Aeropuerto">
	</g>
</g>
<g id="Capa_1_copia" display="none">
	<circle display="inline" fill="#1A1A1A" cx="39.724" cy="39.723" r="39.724"/>
	<g id="Aeropuerto_1_" display="inline">
	</g>
	<g display="inline">
		<path id="path3304" fill="#FFFFFF" d="M27.979,57.264c-1.622,0-2.936-1.313-2.936-2.936c0-1.623,1.313-2.937,2.936-2.937
			c1.62,0,2.936,1.313,2.936,2.937C30.915,55.95,29.599,57.264,27.979,57.264z M34.829,45.657H21.13
			c-1.082,0-1.972,0.741-1.972,1.822v13.7c0,1.079,0.89,2.105,1.972,2.105h37.188c1.08,0,1.971-1.026,1.971-2.105v-13.7
			c0-1.081-0.891-1.822-1.971-1.822H44.617c-1.08,0-1.956-1.015-1.956-2.096v-8.338c0-1.081,0.843-2.233,1.758-2.812
			c2.47-1.559,4.113-4.306,4.113-7.443c0-4.864-3.943-8.808-8.809-8.808c-4.864,0-8.809,3.944-8.809,8.808
			c0,3.138,1.644,5.885,4.113,7.443c0.915,0.576,1.758,1.73,1.758,2.812v8.338C36.786,44.643,35.911,45.657,34.829,45.657"/>
	</g>
</g>
</svg>
