<?xml version="1.0" encoding="utf-8"?>
<!-- Generator: Adobe Illustrator 16.0.0, SVG Export Plug-In . SVG Version: 6.00 Build 0)  -->
<!DOCTYPE svg PUBLIC "-//W3C//DTD SVG 1.1//EN" "http://www.w3.org/Graphics/SVG/1.1/DTD/svg11.dtd">
<svg version="1.1" id="Capa_1" xmlns="http://www.w3.org/2000/svg" xmlns:xlink="http://www.w3.org/1999/xlink" x="0px" y="0px"
	 width="178.551px" height="178.173px" viewBox="0 0 178.551 178.173" enable-background="new 0 0 178.551 178.173"
	 xml:space="preserve">
<g>
	<rect fill="#E6E6E6" width="178.551" height="178.173"/>
	<path fill="#CDCCCC" d="M141.582,155.493l-11.947-25.169H140.4c0-9.941-8.059-18-18-18c-6.527,0-12.227,3.486-15.383,8.687
		c-2.33-0.41-5.067-0.632-8.299-0.632h-5.564v-9.721h9.245c16.938,0,30.667-13.73,30.667-30.666c0-4.823-1.116-9.385-3.101-13.444
		c3.825-13.501,3.294-22.104-2.565-31.374c-8.232-13.023-18.647-4.814-26.667-1.544c-8.356,3.408-12.678,0.404-28.963,4.051
		c-10.331,2.313-16.482,7.434-20.11,13.244c-2.086,0.723-4.146,1.496-6.176,2.333c-1.462,0.604-2.908,1.235-4.339,1.896
		c-4.039,1.869-7.952,3.963-11.721,6.273c-1.348,0.826-2.678,1.68-3.988,2.561c-3.685,2.474-7.215,5.158-10.578,8.033
		c-1.202,1.027-2.381,2.08-3.539,3.155c-3.24,3.009-6.306,6.202-9.18,9.565C1.41,85.597,0.706,86.473,0,87.347v23.332
		c0.268-0.492,0.531-0.986,0.806-1.473c0.811-1.437,1.656-2.853,2.534-4.245c1.945-3.081,4.049-6.053,6.306-8.898
		c1.023-1.291,2.078-2.557,3.163-3.795c2.397-2.741,4.941-5.35,7.618-7.818c1.21-1.114,2.445-2.201,3.709-3.257
		c2.791-2.334,5.709-4.521,8.744-6.547c1.366-0.913,2.756-1.792,4.167-2.639c3.12-1.871,6.35-3.579,9.676-5.11
		c0.036-0.017,0.073-0.03,0.109-0.048c-0.404,5.995,0.532,10.478,0.532,10.478h0.001c-0.076,0.88-0.123,1.767-0.123,2.666
		c0,16.936,13.729,30.666,30.667,30.666h9.245v9.721H81.59c-3.444,0-6.33,0.251-8.757,0.716c-3.146-5.247-8.87-8.771-15.433-8.771
		c-9.941,0-18,8.059-18,18h13.424l-11.947,25.169l-3.667-2.007l0.021,9.685l-7.121,15.002h13.282l16.791-35.37
		c0.303,3.882,2.375,7.754,5.432,11.185c-0.003-0.001-0.005-0.002-0.007-0.003l6.653,24.188h34.212l6.734-22.618
		c4.142-4.067,6.96-8.918,6.96-13.727c0-1.196-0.001-2.37-0.023-3.513l18.921,39.857h13.283l-7.121-15.002l0.021-9.685
		L141.582,155.493z"/>
</g>
</svg>
