<?xml version="1.0" encoding="utf-8"?>
<!-- Generator: Adobe Illustrator 16.0.0, SVG Export Plug-In . SVG Version: 6.00 Build 0)  -->
<!DOCTYPE svg PUBLIC "-//W3C//DTD SVG 1.1//EN" "http://www.w3.org/Graphics/SVG/1.1/DTD/svg11.dtd">
<svg version="1.1" id="Capa_1" xmlns="http://www.w3.org/2000/svg" xmlns:xlink="http://www.w3.org/1999/xlink" x="0px" y="0px"
	 width="426.763px" height="69.028px" viewBox="0 0 426.763 69.028" enable-background="new 0 0 426.763 69.028"
	 xml:space="preserve">
<g>
	<g>
		<path fill="#020203" d="M148.458,12.424h-44.679c-2.204,0-3.998,1.792-3.998,3.998v44.679c0,2.205,1.793,3.998,3.998,3.998h44.679
			c2.206,0,3.999-1.793,3.999-3.998V16.422C152.457,14.216,150.665,12.424,148.458,12.424z M103.779,14.944h44.679
			c0.816,0,1.477,0.663,1.477,1.478v4.729h-47.633v-4.729C102.302,15.607,102.964,14.944,103.779,14.944z M148.458,62.579h-44.679
			c-0.815,0-1.478-0.665-1.478-1.479v-37.43h47.633V61.1C149.935,61.916,149.274,62.579,148.458,62.579z"/>
		<rect x="136.673" y="16.188" fill="#020203" width="2.992" height="2.992"/>
		<rect x="143.606" y="16.188" fill="#020203" width="2.993" height="2.992"/>
		<polygon fill="#020203" points="106.571,43.47 118.659,49.7 118.659,47.901 108.47,42.792 108.47,42.739 118.659,37.633 
			118.659,35.835 106.571,42.062 		"/>
		<polygon fill="#020203" points="120.112,54.522 121.858,54.522 131.048,31.846 129.274,31.846 		"/>
		<polygon fill="#020203" points="132.944,37.633 143.212,42.739 143.212,42.792 132.944,47.901 132.944,49.7 145.042,43.495 
			145.042,42.036 132.944,35.835 		"/>
	</g>
	<g id="Headphones">
		<path fill="#010202" d="M255.909,37.241c-0.669,0-1.211-0.543-1.211-1.212c0-12.903-9.402-23.011-21.408-23.011
			c-12.005,0-21.407,10.107-21.407,23.011c0,0.669-0.543,1.212-1.212,1.212c-0.67,0-1.211-0.543-1.211-1.212
			c0-14.263,10.467-25.434,23.83-25.434c13.364,0,23.831,11.171,23.831,25.434C257.121,36.698,256.578,37.241,255.909,37.241z"/>
		<g>
			<path fill="#010202" d="M214.4,51.288c-0.669,0-1.212-0.543-1.212-1.212V35.764c0-0.669,0.543-1.212,1.212-1.212
				s1.212,0.543,1.212,1.212v14.312C215.612,50.745,215.07,51.288,214.4,51.288z"/>
			<path fill="#010202" d="M220.387,51.288c-0.669,0-1.212-0.543-1.212-1.212V35.759c0-0.669,0.543-1.212,1.212-1.212
				s1.212,0.543,1.212,1.212v14.317C221.599,50.745,221.056,51.288,220.387,51.288z"/>
			<path fill="#010202" d="M217.402,53.712c-2.313,0-4.194-1.63-4.194-3.636c0-0.669,0.542-1.212,1.212-1.212
				c0.668,0,1.212,0.543,1.212,1.212c0,0.657,0.811,1.213,1.771,1.213c0.961,0,1.772-0.555,1.772-1.213
				c0-0.669,0.543-1.212,1.212-1.212s1.212,0.543,1.212,1.212C221.599,52.082,219.717,53.712,217.402,53.712z"/>
			<path fill="#010202" d="M220.387,36.876c-0.669,0-1.212-0.542-1.212-1.212c0-0.658-0.812-1.212-1.772-1.212
				c-0.959,0-1.771,0.554-1.771,1.212c0,0.67-0.544,1.212-1.212,1.212c-0.67,0-1.212-0.542-1.212-1.212
				c0-2.005,1.881-3.635,4.194-3.635c2.314,0,4.196,1.632,4.196,3.635C221.599,36.334,221.056,36.876,220.387,36.876z"/>
		</g>
		<path fill="#010202" d="M214.646,52.231c-0.042,0-0.083-0.003-0.124-0.008c-4.484-0.456-7.269-4.055-7.269-9.393
			c0-5.34,2.784-8.939,7.269-9.394c0.666-0.07,1.26,0.416,1.329,1.082c0.066,0.665-0.419,1.261-1.084,1.328
			c-4.724,0.479-5.091,5.467-5.091,6.983s0.367,6.503,5.091,6.983c0.666,0.067,1.15,0.662,1.084,1.328
			C215.786,51.768,215.26,52.231,214.646,52.231z"/>
		<g>
			<path fill="#010202" d="M252.36,51.288c-0.669,0-1.212-0.543-1.212-1.212V35.764c0-0.669,0.543-1.212,1.212-1.212
				s1.211,0.543,1.211,1.212v14.312C253.571,50.745,253.029,51.288,252.36,51.288z"/>
			<path fill="#010202" d="M246.374,51.288c-0.669,0-1.212-0.543-1.212-1.212V35.759c0-0.669,0.543-1.212,1.212-1.212
				c0.668,0,1.211,0.543,1.211,1.212v14.317C247.585,50.745,247.042,51.288,246.374,51.288z"/>
			<path fill="#010202" d="M249.358,53.712c-2.314,0-4.196-1.63-4.196-3.636c0-0.669,0.543-1.212,1.212-1.212
				c0.668,0,1.211,0.543,1.211,1.212c0,0.657,0.812,1.213,1.773,1.213c0.959,0,1.771-0.555,1.771-1.213
				c0-0.669,0.543-1.212,1.211-1.212c0.67,0,1.212,0.543,1.212,1.212C253.553,52.082,251.671,53.712,249.358,53.712z"/>
			<path fill="#010202" d="M252.341,36.876c-0.668,0-1.211-0.542-1.211-1.212c0-0.658-0.811-1.212-1.771-1.212
				s-1.773,0.554-1.773,1.212c0,0.67-0.543,1.212-1.211,1.212c-0.669,0-1.212-0.542-1.212-1.212c0-2.005,1.882-3.635,4.196-3.635
				c2.312,0,4.194,1.632,4.194,3.635C253.553,36.334,253.011,36.876,252.341,36.876z"/>
		</g>
		<path fill="#010202" d="M252.114,52.231c-0.613,0-1.14-0.467-1.205-1.09c-0.066-0.665,0.418-1.261,1.084-1.328
			c4.724-0.481,5.09-5.468,5.09-6.984c0-1.518-0.366-6.505-5.09-6.984c-0.665-0.067-1.15-0.662-1.084-1.327
			c0.068-0.666,0.659-1.159,1.329-1.083c4.483,0.455,7.269,4.054,7.269,9.395c0,5.338-2.784,8.938-7.269,9.393
			C252.196,52.229,252.156,52.231,252.114,52.231z"/>
		<path fill="#010202" d="M251.3,34.949c-0.464,0-0.859-0.354-0.904-0.826c-0.866-9.446-8.218-16.571-17.097-16.571
			c-8.982,0-16.169,6.93-17.093,16.477c-0.049,0.5-0.489,0.862-0.991,0.816c-0.499-0.047-0.866-0.492-0.816-0.991
			c0.999-10.33,9.123-18.119,18.9-18.119c9.824,0,17.954,7.833,18.907,18.223c0.047,0.5-0.322,0.942-0.821,0.987
			C251.356,34.947,251.328,34.949,251.3,34.949z"/>
		<path fill="#010202" d="M215.283,68.038c-0.501,0-0.908-0.407-0.908-0.908V51.755c0-0.501,0.407-0.908,0.908-0.908
			c0.502,0,0.909,0.407,0.909,0.908V67.13C216.192,67.631,215.785,68.038,215.283,68.038z"/>
	</g>
	<g id="_x31__20_">
		<g>
			<g>
				<path fill="#010202" d="M43.743,60.194c1.838-1.862,1.838-4.882,0-6.743L16.44,25.796c0.075-3.388-1.124-8.075-7.752-10.1
					c-3.508-1.547-3.331-5.619-3.331-5.619c-9.382,8.457-4.064,18.422-1.759,20.699c2.026,1.999,4.504,2.288,6.486,2.074l27,27.344
					C38.922,62.057,41.904,62.057,43.743,60.194z M5.818,28.528c-1.47-1.585-4.746-8.664-1.569-12.832c0,0,1.131,1.451,3.403,2.549
					c6.964,2.622,5.935,9.158,5.935,9.158l-2.22,2.247C11.346,29.673,8.417,31.33,5.818,28.528z M13.586,31.9
					c0.205-0.208,2.221-2.247,2.221-2.247l3.329,3.372l-2.22,2.247L13.586,31.9z M39.304,57.946L19.136,37.521l2.22-2.248
					l20.167,20.426c0.612,0.621,0.612,1.628,0,2.248S39.916,58.566,39.304,57.946z"/>
			</g>
		</g>
	</g>
	<g>
		<g>
			<line fill="#F2F2F2" x1="292.72" y1="28.162" x2="313.22" y2="28.162"/>
			<path fill="#020203" d="M313.22,30.662h-20.5c-1.381,0-2.5-1.119-2.5-2.5s1.119-2.5,2.5-2.5h20.5c1.381,0,2.5,1.119,2.5,2.5
				S314.601,30.662,313.22,30.662z"/>
		</g>
		<g>
			<line fill="#F2F2F2" x1="292.72" y1="39.66" x2="313.22" y2="39.66"/>
			<path fill="#020203" d="M313.22,42.16h-20.5c-1.381,0-2.5-1.119-2.5-2.5s1.119-2.5,2.5-2.5h20.5c1.381,0,2.5,1.119,2.5,2.5
				S314.601,42.16,313.22,42.16z"/>
		</g>
	</g>
	<g>
		<g>
			<line fill="#F2F2F2" x1="62.833" y1="38.762" x2="78.61" y2="38.762"/>
			<path fill="#020203" d="M78.61,41.262H62.833c-1.381,0-2.5-1.119-2.5-2.5s1.119-2.5,2.5-2.5H78.61c1.381,0,2.5,1.119,2.5,2.5
				S79.991,41.262,78.61,41.262z"/>
		</g>
		<g>
			<line fill="#F2F2F2" x1="70.721" y1="30.873" x2="70.721" y2="46.65"/>
			<path fill="#020203" d="M70.721,49.15c-1.381,0-2.5-1.119-2.5-2.5V30.873c0-1.381,1.119-2.5,2.5-2.5s2.5,1.119,2.5,2.5V46.65
				C73.221,48.031,72.102,49.15,70.721,49.15z"/>
		</g>
	</g>
	<g>
		<g>
			<line fill="#F2F2F2" x1="171.791" y1="38.762" x2="187.569" y2="38.762"/>
			<path fill="#020203" d="M187.569,41.262h-15.778c-1.381,0-2.5-1.119-2.5-2.5s1.119-2.5,2.5-2.5h15.778c1.381,0,2.5,1.119,2.5,2.5
				S188.95,41.262,187.569,41.262z"/>
		</g>
		<g>
			<line fill="#F2F2F2" x1="179.681" y1="30.873" x2="179.681" y2="46.65"/>
			<path fill="#020203" d="M179.681,49.15c-1.381,0-2.5-1.119-2.5-2.5V30.873c0-1.381,1.119-2.5,2.5-2.5s2.5,1.119,2.5,2.5V46.65
				C182.181,48.031,181.062,49.15,179.681,49.15z"/>
		</g>
	</g>
	<g>
		<g>
			<path fill="#010202" d="M356.536,25.597h3.267V9.347l-4.786,2.855V5.054L363.603,0l2.979,0.041v25.556h3.286v5.628h-13.332
				V25.597z"/>
		</g>
		<g>
			<path fill="#010202" d="M352.317,55.54l10.851-17.031h6.726L359.202,55.58h6.443v-5.897l6.301-0.081v5.979h4.248v5.113h-4.248
				v2.819h3.885v5.516h-13.085v-5.516h2.899v-2.819h-13.328V55.54z"/>
			<path fill="#010202" d="M389.269,37.944c1.369,0,2.658,0.242,3.865,0.726c1.209,0.482,2.262,1.134,3.161,1.952
				c0.898,0.819,1.61,1.771,2.134,2.859c0.523,1.086,0.785,2.234,0.785,3.442c0,1.181-0.271,2.295-0.815,3.342
				s-1.278,1.966-2.204,2.758c1.127,0.805,2.02,1.782,2.678,2.929c0.656,1.148,0.985,2.413,0.985,3.796
				c0,1.314-0.271,2.562-0.815,3.743c-0.543,1.182-1.288,2.226-2.234,3.131c-0.946,0.906-2.066,1.625-3.361,2.154
				c-1.296,0.53-2.688,0.796-4.178,0.796c-0.993,0-1.946-0.125-2.859-0.373c-0.912-0.248-1.761-0.593-2.546-1.037
				c-0.785-0.442-1.497-0.973-2.134-1.59c-0.639-0.617-1.182-1.285-1.631-2.003c-0.45-0.718-0.799-1.48-1.047-2.285
				c-0.249-0.806-0.373-1.624-0.373-2.456c0-1.423,0.336-2.722,1.008-3.896c0.67-1.174,1.576-2.164,2.717-2.97
				c-0.926-0.778-1.654-1.678-2.184-2.697c-0.531-1.02-0.796-2.094-0.796-3.222c0-1.248,0.259-2.422,0.775-3.523
				c0.517-1.1,1.221-2.062,2.114-2.888c0.893-0.826,1.936-1.48,3.13-1.963C386.638,38.187,387.913,37.944,389.269,37.944z
				 M384.518,59.667c0,0.55,0.12,1.073,0.362,1.57c0.241,0.497,0.577,0.93,1.007,1.299c0.429,0.369,0.933,0.664,1.51,0.886
				c0.577,0.221,1.201,0.332,1.872,0.332c0.658,0,1.271-0.111,1.842-0.332c0.57-0.222,1.067-0.517,1.49-0.886
				s0.755-0.802,0.996-1.299c0.242-0.497,0.362-1.021,0.362-1.57c0-0.537-0.12-1.043-0.362-1.52
				c-0.241-0.477-0.573-0.896-0.996-1.259c-0.423-0.362-0.92-0.651-1.49-0.865c-0.57-0.215-1.184-0.322-1.842-0.322
				c-0.671,0-1.295,0.107-1.872,0.322c-0.577,0.214-1.081,0.503-1.51,0.865c-0.43,0.363-0.766,0.782-1.007,1.259
				C384.638,58.624,384.518,59.13,384.518,59.667z M385.263,47.267c0,0.456,0.1,0.889,0.302,1.298
				c0.2,0.409,0.483,0.769,0.845,1.076c0.363,0.31,0.789,0.554,1.279,0.735c0.489,0.182,1.017,0.272,1.58,0.272
				c0.564,0,1.09-0.091,1.58-0.272s0.917-0.426,1.278-0.735c0.363-0.308,0.651-0.667,0.866-1.076s0.322-0.842,0.322-1.298
				c0-0.471-0.107-0.916-0.322-1.34c-0.215-0.422-0.503-0.795-0.866-1.117c-0.361-0.322-0.788-0.577-1.278-0.765
				c-0.49-0.188-1.016-0.282-1.58-0.282c-0.563,0-1.091,0.094-1.58,0.282c-0.49,0.188-0.916,0.442-1.279,0.765
				c-0.361,0.322-0.645,0.695-0.845,1.117C385.362,46.351,385.263,46.796,385.263,47.267z"/>
			<path fill="#010202" d="M400.812,37.703h9.401v12.401c0.793-0.725,1.661-1.292,2.607-1.701s1.99-0.614,3.13-0.614
				c2.511,0,4.429,0.701,5.759,2.104c1.328,1.402,1.992,3.451,1.992,6.15v7.469h3.061v5.516h-9.32V57.452
				c0-1.167-0.289-2.086-0.866-2.758c-0.577-0.671-1.322-1.007-2.235-1.007c-0.604,0-1.262,0.168-1.972,0.504
				c-0.712,0.335-1.431,0.825-2.155,1.47v7.852h3.061v5.516h-12.462v-5.516h3.221V43.22h-3.221V37.703z"/>
		</g>
		<g>
			<path fill="#020304" d="M421.925,5.802c-5.96-9.793-14.938-2.98-14.938-2.98c-0.581,0.44-1.655,0.803-2.384,0.804l-2.405,0.002
				c-0.729,0-1.804-0.361-2.386-0.802c0,0-8.979-6.813-14.938,2.978c-5.959,9.789-3.558,20.449-3.558,20.449
				c0.42,2.609,1.807,4.352,4.424,4.133c2.609-0.218,8.272-7.029,8.272-7.029c0.469-0.562,1.448-1.02,2.176-1.02l14.418-0.003
				c0.728,0,1.708,0.459,2.175,1.02c0,0,5.664,6.812,8.277,7.029c2.614,0.22,4.004-1.524,4.422-4.133
				C425.479,26.249,427.884,15.591,421.925,5.802z M397.98,13.771h-3.091v2.98c0,0-0.656,0.499-1.668,0.486
				c-1.012-0.016-1.47-0.545-1.47-0.545v-2.921h-2.92c0,0-0.364-0.374-0.462-1.357c-0.096-0.983,0.403-1.778,0.403-1.778h3.092
				V7.544c0,0,0.637-0.341,1.552-0.314c0.915,0.028,1.586,0.373,1.586,0.373l-0.014,3.032h2.921c0,0,0.509,0.654,0.552,1.446
				C398.503,12.872,397.98,13.771,397.98,13.771z M412.16,17.167c-1.354,0-2.445-1.095-2.445-2.447c0-1.354,1.091-2.447,2.445-2.447
				c1.348,0,2.448,1.093,2.448,2.447C414.608,16.072,413.508,17.167,412.16,17.167z M412.16,10.435
				c-1.354,0-2.445-1.094-2.445-2.446c0-1.354,1.091-2.446,2.445-2.446c1.348,0,2.448,1.092,2.448,2.446
				C414.608,9.341,413.508,10.435,412.16,10.435z M418.254,14.049c-1.354,0-2.445-1.094-2.445-2.447s1.091-2.447,2.445-2.447
				c1.348,0,2.447,1.094,2.447,2.447S419.602,14.049,418.254,14.049z"/>
		</g>
	</g>
	<g>
		<path fill="#010202" d="M36.301,27.45c-0.226-0.224-0.52-0.336-0.813-0.336s-0.588,0.112-0.812,0.336l-6.94,6.94l1.615,1.636
			l6.951-6.951C36.75,28.626,36.75,27.899,36.301,27.45z"/>
		<path fill="#010202" d="M12.307,51.444c0.449,0.448,1.176,0.448,1.625,0l5.888-5.888l-1.615-1.636l-5.897,5.897
			C11.858,50.268,11.858,50.994,12.307,51.444z"/>
		<path fill="#010202" d="M50.11,13.682c-0.221-0.231-0.523-0.356-0.833-0.356c-0.112,0-0.226,0.016-0.337,0.051l-11.432,3.506
			c-0.181,0.055-0.344,0.153-0.477,0.285L23.797,30.402l1.614,1.635l10.502-10.503l-0.401,1.894
			c-0.071,0.34,0.014,0.692,0.231,0.962c0.219,0.27,0.547,0.426,0.894,0.426h2.298v2.299c0,0.634,0.516,1.148,1.148,1.148h1.813
			L31.71,38.417l1.612,1.633L45.49,27.928c0.122-0.118,0.214-0.263,0.271-0.421l4.596-12.64
			C50.504,14.459,50.411,13.998,50.11,13.682z M43.876,25.965h-2.644v-2.298c0-0.636-0.514-1.149-1.149-1.149h-2.028l0.773-3.637
			l4.278-1.313c0.249,0.731,0.638,1.38,1.167,1.91c0.461,0.459,0.996,0.813,1.56,1.104L43.876,25.965z"/>
		<path fill="#010202" d="M22.165,47.932l-4.813,4.798l-0.012-0.014c-0.844,0.842-1.962,1.306-3.152,1.306s-2.31-0.464-3.151-1.306
			c-0.839-0.842-1.306-1.962-1.306-3.153c0-1.188,0.463-2.308,1.306-3.149l4.845-4.846l-1.615-1.635l-9.509,9.51
			c-1.276,1.274-1.979,2.972-1.979,4.776c0.001,1.804,0.703,3.5,1.979,4.774c1.274,1.277,2.972,1.979,4.775,1.979
			s3.499-0.7,4.773-1.976l9.469-9.435L22.165,47.932z M12.686,57.366l-0.002,0.004c-0.842,0.842-1.961,1.305-3.151,1.305
			s-2.31-0.463-3.151-1.305c-0.841-0.843-1.306-1.962-1.306-3.151c0-1.191,0.463-2.311,1.306-3.152l1.074-1.073
			c0.103,1.644,0.783,3.174,1.957,4.348c1.171,1.174,2.705,1.854,4.351,1.957L12.686,57.366z"/>
	</g>
</g>
</svg>
