<?xml version="1.0" encoding="utf-8"?>
<!-- Generator: Adobe Illustrator 16.0.0, SVG Export Plug-In . SVG Version: 6.00 Build 0)  -->
<!DOCTYPE svg PUBLIC "-//W3C//DTD SVG 1.1//EN" "http://www.w3.org/Graphics/SVG/1.1/DTD/svg11.dtd">
<svg version="1.1" id="Capa_1" xmlns="http://www.w3.org/2000/svg" xmlns:xlink="http://www.w3.org/1999/xlink" x="0px" y="0px"
	 width="200px" height="107.562px" viewBox="0 0 200 107.562" enable-background="new 0 0 200 107.562" xml:space="preserve">
<g>
	<g id="title" editable="simple" enable-background="new    ">
		<path fill="#FFFFFF" d="M113.974,56.14l3.655,1.158c-0.561,2.037-1.492,3.553-2.796,4.542c-1.304,0.988-2.958,1.484-4.964,1.484
			c-2.479,0-4.518-0.847-6.113-2.543c-1.597-1.692-2.396-4.01-2.396-6.947c0-3.109,0.803-5.522,2.409-7.243
			c1.604-1.719,3.715-2.579,6.33-2.579c2.284,0,4.14,0.675,5.567,2.024c0.849,0.799,1.484,1.946,1.911,3.439l-3.732,0.892
			c-0.222-0.968-0.684-1.732-1.383-2.292c-0.701-0.561-1.553-0.841-2.554-0.841c-1.386,0-2.509,0.496-3.371,1.49
			c-0.861,0.993-1.292,2.604-1.292,4.829c0,2.36,0.423,4.042,1.273,5.044c0.85,1.002,1.952,1.503,3.312,1.503
			c1.001,0,1.864-0.318,2.586-0.955C113.141,58.51,113.659,57.507,113.974,56.14z"/>
		<path fill="#FFFFFF" d="M118.89,56.051c0-1.188,0.293-2.34,0.88-3.451c0.585-1.114,1.415-1.962,2.49-2.55
			c1.073-0.585,2.274-0.879,3.6-0.879c2.046,0,3.724,0.666,5.03,1.995c1.31,1.329,1.963,3.008,1.963,5.038
			c0,2.047-0.662,3.742-1.981,5.088c-1.319,1.348-2.983,2.021-4.986,2.021c-1.241,0-2.424-0.28-3.549-0.841
			c-1.125-0.56-1.98-1.383-2.565-2.464C119.183,58.923,118.89,57.603,118.89,56.051z M122.557,56.241
			c0,1.344,0.319,2.37,0.957,3.084s1.424,1.07,2.355,1.07c0.936,0,1.72-0.356,2.354-1.07c0.631-0.714,0.948-1.751,0.948-3.107
			c0-1.325-0.317-2.345-0.948-3.059c-0.634-0.713-1.417-1.069-2.354-1.069c-0.932,0-1.718,0.356-2.355,1.069
			C122.877,53.873,122.557,54.899,122.557,56.241z M124.062,47.821l1.757-3.809h4.015l-3.505,3.809H124.062z"/>
		<path fill="#FFFFFF" d="M137.959,63.006h-3.579V49.477h3.324v1.924c0.569-0.909,1.081-1.507,1.535-1.797
			c0.454-0.288,0.971-0.434,1.547-0.434c0.816,0,1.602,0.226,2.358,0.677l-1.109,3.12c-0.603-0.391-1.162-0.586-1.68-0.586
			c-0.502,0-0.928,0.138-1.276,0.414c-0.347,0.275-0.622,0.774-0.82,1.496c-0.2,0.723-0.3,2.235-0.3,4.536V63.006L137.959,63.006z"
			/>
		<path fill="#FFFFFF" d="M155.973,63.006h-3.325v-1.987c-0.552,0.772-1.204,1.348-1.955,1.726c-0.751,0.38-1.509,0.567-2.274,0.567
			c-1.555,0-2.886-0.625-3.994-1.879c-1.108-1.251-1.663-3-1.663-5.24c0-2.294,0.54-4.037,1.618-5.229
			c1.079-1.193,2.441-1.79,4.09-1.79c1.511,0,2.82,0.628,3.924,1.885v-6.726h3.581L155.973,63.006L155.973,63.006z M146.417,55.948
			c0,1.444,0.2,2.489,0.6,3.134c0.577,0.935,1.384,1.401,2.42,1.401c0.823,0,1.524-0.35,2.102-1.052
			c0.579-0.699,0.866-1.748,0.866-3.139c0-1.554-0.279-2.673-0.841-3.357c-0.559-0.684-1.278-1.025-2.152-1.025
			c-0.849,0-1.56,0.337-2.133,1.013C146.704,53.597,146.417,54.607,146.417,55.948z"/>
		<path fill="#FFFFFF" d="M157.552,56.051c0-1.188,0.293-2.34,0.878-3.451c0.585-1.113,1.416-1.962,2.49-2.55
			c1.075-0.585,2.274-0.879,3.6-0.879c2.047,0,3.725,0.666,5.031,1.995c1.309,1.329,1.963,3.008,1.963,5.038
			c0,2.047-0.662,3.742-1.981,5.088c-1.32,1.348-2.983,2.021-4.987,2.021c-1.239,0-2.423-0.28-3.549-0.841
			c-1.125-0.56-1.98-1.383-2.565-2.464C157.845,58.923,157.552,57.603,157.552,56.051z M161.22,56.241
			c0,1.344,0.318,2.37,0.955,3.084c0.638,0.714,1.423,1.07,2.356,1.07c0.935,0,1.719-0.356,2.352-1.07
			c0.632-0.714,0.949-1.751,0.949-3.107c0-1.325-0.317-2.345-0.949-3.059c-0.633-0.713-1.416-1.069-2.352-1.069
			c-0.935,0-1.719,0.356-2.356,1.069C161.538,53.873,161.22,54.899,161.22,56.241z"/>
		<path fill="#FFFFFF" d="M173.041,63.006V44.332h3.579v6.726c1.105-1.258,2.412-1.887,3.924-1.887c1.647,0,3.012,0.599,4.091,1.791
			c1.076,1.193,1.617,2.906,1.617,5.141c0,2.31-0.549,4.089-1.649,5.336c-1.099,1.249-2.436,1.873-4.006,1.873
			c-0.773,0-1.535-0.193-2.287-0.58c-0.751-0.384-1.399-0.957-1.943-1.712v1.986H173.041L173.041,63.006z M176.594,55.948
			c0,1.403,0.223,2.438,0.663,3.107c0.621,0.953,1.443,1.428,2.472,1.428c0.79,0,1.464-0.338,2.02-1.013
			c0.556-0.676,0.834-1.738,0.834-3.19c0-1.546-0.279-2.66-0.84-3.345c-0.562-0.684-1.278-1.025-2.152-1.025
			c-0.858,0-1.572,0.334-2.141,1C176.88,53.577,176.594,54.591,176.594,55.948z"/>
		<path fill="#FFFFFF" d="M190.684,53.605l-3.248-0.587c0.364-1.307,0.992-2.276,1.886-2.904c0.891-0.628,2.215-0.943,3.974-0.943
			c1.596,0,2.785,0.19,3.567,0.568c0.781,0.378,1.332,0.857,1.65,1.438c0.318,0.583,0.477,1.65,0.477,3.204l-0.037,4.178
			c0,1.189,0.058,2.066,0.172,2.631c0.115,0.565,0.328,1.171,0.643,1.815h-3.541c-0.093-0.236-0.208-0.591-0.344-1.057
			c-0.059-0.213-0.102-0.352-0.127-0.421c-0.612,0.596-1.267,1.04-1.963,1.339c-0.696,0.296-1.439,0.444-2.229,0.444
			c-1.393,0-2.49-0.377-3.294-1.133c-0.802-0.756-1.203-1.711-1.203-2.868c0-0.764,0.182-1.445,0.547-2.043
			c0.366-0.599,0.878-1.057,1.535-1.377c0.658-0.317,1.607-0.595,2.849-0.834c1.673-0.313,2.832-0.606,3.477-0.879v-0.355
			c0-0.688-0.17-1.179-0.508-1.472c-0.342-0.293-0.98-0.439-1.925-0.439c-0.636,0-1.135,0.125-1.49,0.375
			C191.194,52.537,190.905,52.976,190.684,53.605z M195.473,56.51c-0.459,0.151-1.184,0.335-2.178,0.548
			c-0.993,0.211-1.643,0.419-1.949,0.624c-0.466,0.332-0.7,0.751-0.7,1.263c0,0.499,0.187,0.933,0.56,1.299
			c0.373,0.364,0.85,0.547,1.429,0.547c0.644,0,1.261-0.211,1.847-0.637c0.434-0.321,0.718-0.718,0.853-1.184
			c0.094-0.307,0.14-0.887,0.14-1.746V56.51z"/>
	</g>
	<g id="GDG">
		<g>
			<path fill="#FFFFFF" d="M74.606,60.442"/>
			<path fill="#FFFFFF" d="M40.976,52.311h7.988v9.985c-2.17,0.743-4.551,1.112-7.156,1.112c-2.851,0-5.055-0.826-6.615-2.479
				c-1.561-1.654-2.335-4.019-2.335-7.085c0-2.985,0.85-5.308,2.558-6.974c1.707-1.666,4.094-2.486,7.167-2.486
				c1.167,0,2.263,0.105,3.295,0.327c1.04,0.218,1.943,0.493,2.711,0.828l-1.59,3.923c-1.332-0.657-2.798-0.985-4.394-0.985
				c-1.455,0-2.587,0.481-3.384,1.426c-0.804,0.95-1.196,2.304-1.196,4.071c0,1.73,0.358,3.049,1.085,3.958
				c0.715,0.909,1.753,1.356,3.114,1.356c0.745,0,1.43-0.066,2.051-0.213V56.18h-3.3L40.976,52.311L40.976,52.311z"/>
			<path fill="#FFFFFF" d="M62.218,53.686c0-1.702-0.334-2.958-1.003-3.777c-0.668-0.816-1.695-1.226-3.06-1.226H56.7v10.37h1.115
				c1.525,0,2.639-0.442,3.343-1.327C61.867,56.852,62.218,55.498,62.218,53.686 M67.409,53.509c0,3.086-0.844,5.467-2.551,7.14
				c-1.695,1.671-4.088,2.505-7.167,2.505h-5.988V44.64h6.404c2.967,0,5.261,0.763,6.879,2.282
				C66.605,48.437,67.409,50.636,67.409,53.509"/>
			<path fill="#FFFFFF" d="M77.122,52.311h7.996v9.985c-2.17,0.743-4.558,1.112-7.156,1.112c-2.851,0-5.057-0.826-6.616-2.479
				c-1.555-1.654-2.333-4.019-2.333-7.085c0-2.985,0.849-5.308,2.556-6.974c1.702-1.666,4.094-2.486,7.168-2.486
				c1.162,0,2.264,0.105,3.301,0.327c1.027,0.218,1.931,0.493,2.697,0.828l-1.582,3.923c-1.332-0.657-2.798-0.985-4.393-0.985
				c-1.461,0-2.587,0.481-3.39,1.426c-0.792,0.95-1.192,2.304-1.192,4.071c0,1.73,0.357,3.049,1.079,3.958
				c0.722,0.909,1.76,1.356,3.12,1.356c0.745,0,1.433-0.066,2.054-0.213V56.18h-3.309V52.311L77.122,52.311z"/>
		</g>
	</g>
	<g>
		<g>
			<g>
				<path fill="#FFFFFF" d="M14.229,58.767l-8.747,14.53H9.9c1.046,0,2.344-0.732,2.883-1.634l3.721-6.191
					c0.438-0.91,0.425-2.229-0.079-3.066L14.229,58.767z"/>
				<path fill="#FFFFFF" d="M10.232,52.15c0.539,0.896,0.539,2.366,0,3.267L0.407,71.844c-0.38,0.812,0.014,1.454,0.989,1.454h4.087
					l8.747-14.53L10.232,52.15z"/>
				<path fill="#FFFFFF" d="M1.396,34.264c-1.049,0-1.465,0.737-0.926,1.634l15.958,26.508c0.503,0.837,0.518,2.158,0.079,3.066
					l3.88-6.458l-14.9-24.75H1.396L1.396,34.264z"/>
				<path fill="#FFFFFF" d="M22.546,52.15l-9.762-16.252c-0.54-0.896-1.837-1.634-2.883-1.634H5.485l14.9,24.751l2.161-3.599
					C23.086,54.516,23.086,53.047,22.546,52.15z"/>
				<path fill="#FFFFFF" d="M16.427,62.406L10.232,52.15c0.539,0.896,0.539,2.366,0,3.267l-2.183,3.632l8.456,6.424
					C16.945,64.564,16.931,63.243,16.427,62.406z"/>
			</g>
			<g>
				<path fill="#FFFFFF" d="M1.396,72.731c-0.261,0-0.464-0.065-0.531-0.171c-0.058-0.092-0.041-0.26,0.045-0.451l9.808-16.401
					c0.648-1.081,0.648-2.772,0-3.851l-9.761-16.25c-0.144-0.241-0.192-0.464-0.125-0.583s0.283-0.192,0.565-0.192h8.504
					c0.841,0,1.962,0.635,2.397,1.359l9.761,16.25c0.43,0.714,0.429,1.967,0,2.684l-9.761,16.248
					c-0.433,0.723-1.554,1.358-2.397,1.358H1.396z"/>
				<path fill="#FFFFFF" d="M9.9,35.399c0.647,0,1.576,0.526,1.911,1.083l9.762,16.253c0.324,0.537,0.323,1.557,0,2.098l-2.16,3.598
					l-7.602,12.651c-0.333,0.555-1.262,1.083-1.911,1.083H5.483H1.538L11.205,56c0.758-1.267,0.758-3.173,0-4.435L1.493,35.399
					h3.992H9.9 M9.9,34.264H5.485H1.396c-1.049,0-1.465,0.737-0.926,1.634l9.762,16.252c0.539,0.896,0.539,2.366,0,3.267
					L0.407,71.844c-0.38,0.812,0.014,1.454,0.989,1.454h4.087H9.9c1.046,0,2.344-0.732,2.883-1.634l7.602-12.649l2.161-3.598
					c0.54-0.9,0.54-2.37,0-3.267l-9.763-16.252C12.244,35.002,10.946,34.264,9.9,34.264L9.9,34.264z"/>
			</g>
		</g>
	</g>
</g>
</svg>
