<?xml version="1.0" encoding="utf-8"?>
<!-- Generator: Adobe Illustrator 16.0.0, SVG Export Plug-In . SVG Version: 6.00 Build 0)  -->
<!DOCTYPE svg PUBLIC "-//W3C//DTD SVG 1.1//EN" "http://www.w3.org/Graphics/SVG/1.1/DTD/svg11.dtd">
<svg version="1.1" id="Capa_1" xmlns="http://www.w3.org/2000/svg" xmlns:xlink="http://www.w3.org/1999/xlink" x="0px" y="0px"
	 width="562.304px" height="247.338px" viewBox="-3.404 -1.586 562.304 247.338"
	 enable-background="new -3.404 -1.586 562.304 247.338" xml:space="preserve">
<g id="background">
</g>
<g id="grid" display="none">
</g>
<g>
	<g>
		<g>
			<g>
				<path fill="#999999" d="M173.877,40.508l-31.508-14.315c-6.202-2.819-13.516-0.073-16.334,6.129s-0.074,13.515,6.128,16.333
					c2.779,1.263,5.782,1.407,8.503,0.627l16.94,7.695c1.201,2.563,3.285,4.73,6.065,5.992c6.202,2.818,13.515,0.076,16.331-6.128
					C182.821,50.639,180.077,43.325,173.877,40.508z"/>
			</g>
			<g>
				<g>
					<path fill="#666666" d="M137.009,42.626c-0.154,0.345-0.561,0.498-0.906,0.34l-2.331-1.058
						c-0.344-0.157-0.495-0.562-0.339-0.907l3.818-8.401c0.154-0.346,0.562-0.498,0.906-0.34l2.328,1.057
						c0.346,0.157,0.499,0.564,0.342,0.908L137.009,42.626z"/>
				</g>
				<g>
					<path fill="#666666" d="M132.114,37.492c-0.344-0.157-0.496-0.562-0.34-0.906l1.059-2.33c0.156-0.344,0.564-0.497,0.908-0.342
						l8.402,3.818c0.344,0.156,0.495,0.562,0.34,0.908l-1.059,2.328c-0.156,0.346-0.562,0.497-0.908,0.34L132.114,37.492z"/>
				</g>
			</g>
			<g>
				<circle fill="#666666" cx="168.601" cy="51.815" r="10.645"/>
			</g>
			<g>
				<g>
					<g>
						<path fill="#999999" d="M174.12,47.135c0.287,1.411-0.625,2.785-2.035,3.07l-8.33,1.684c-1.409,0.285-2.783-0.627-3.067-2.037
							l-0.019-0.09c-0.286-1.409,0.626-2.783,2.037-3.068l8.327-1.684c1.41-0.285,2.784,0.627,3.069,2.038L174.12,47.135z"/>
					</g>
					<g>
						<circle fill="#6DF7BB" cx="163.229" cy="49.291" r="2.011"/>
					</g>
					<g>
						<circle fill="#07A87E" cx="171.56" cy="47.607" r="2.011"/>
					</g>
				</g>
				<g>
					<g>
						<path fill="#999999" d="M176.533,53.866c0.285,1.411-0.627,2.785-2.036,3.069l-8.33,1.684
							c-1.41,0.283-2.784-0.627-3.068-2.036l-0.018-0.089c-0.287-1.411,0.625-2.784,2.036-3.069l8.329-1.684
							c1.409-0.285,2.782,0.626,3.068,2.035L176.533,53.866z"/>
					</g>
					<g>
						<path fill="#F76371" d="M167.613,55.625c0.219,1.087-0.483,2.147-1.572,2.367c-1.09,0.219-2.149-0.484-2.368-1.572
							c-0.221-1.088,0.483-2.148,1.572-2.367C166.333,53.83,167.393,54.535,167.613,55.625z"/>
					</g>
					<g>
						<circle fill="#B72141" cx="173.972" cy="54.338" r="2.01"/>
					</g>
				</g>
			</g>
			<g>
				<g>
					<path fill="#B17F4A" d="M145.204,45.355c-0.216-0.098-0.382-0.296-0.429-0.545c-0.078-0.407,0.188-0.804,0.597-0.883
						l3.245-0.618c0.408-0.078,0.802,0.188,0.88,0.6c0.08,0.408-0.188,0.804-0.598,0.881l-3.244,0.62
						C145.498,45.44,145.342,45.418,145.204,45.355z"/>
				</g>
			</g>
			<g>
				<g>
					<path fill="#B17F4A" d="M151.153,48.06c-0.215-0.099-0.383-0.296-0.43-0.546c-0.079-0.409,0.188-0.804,0.599-0.882l3.241-0.62
						c0.408-0.079,0.805,0.19,0.881,0.599c0.078,0.408-0.188,0.804-0.598,0.882l-3.242,0.62
						C151.446,48.143,151.289,48.119,151.153,48.06z"/>
				</g>
			</g>
		</g>
		<g>
			<circle fill="#F47C64" cx="170.058" cy="4.314" r="5.899"/>
		</g>
		<g>
			<path fill="#AF3114" d="M171.843,10.01c0.002,0,0.021,0.125,0.041,0.35c0.012,0.222,0.055,0.559,0.06,0.964
				c0.024,0.817-0.005,1.959-0.163,3.272c-0.077,0.656-0.185,1.357-0.33,2.085c-0.143,0.729-0.32,1.485-0.529,2.255
				c-0.43,1.538-0.989,3.132-1.671,4.668c-0.671,1.543-1.466,3.029-2.327,4.373c-0.424,0.673-0.887,1.301-1.327,1.896
				c-0.231,0.29-0.458,0.575-0.677,0.85c-0.232,0.268-0.458,0.527-0.674,0.775c-0.451,0.488-0.881,0.93-1.285,1.309
				c-0.407,0.379-0.778,0.701-1.102,0.959c-0.65,0.514-1.082,0.782-1.082,0.782l-7.24-3.267c0,0-0.084-0.498-0.129-1.326
				c-0.022-0.414-0.024-0.906-0.012-1.462c0.019-0.554,0.063-1.167,0.132-1.83c0.043-0.325,0.089-0.666,0.135-1.019
				c0.062-0.345,0.124-0.703,0.188-1.07c0.155-0.721,0.318-1.485,0.545-2.248c0.437-1.534,1.023-3.114,1.735-4.639
				c0.702-1.529,1.525-3.002,2.394-4.342c0.438-0.668,0.888-1.301,1.34-1.891c0.449-0.59,0.904-1.135,1.345-1.629
				c0.878-0.987,1.716-1.764,2.345-2.287c0.308-0.265,0.59-0.455,0.762-0.594c0.182-0.135,0.289-0.201,0.289-0.201L171.843,10.01z"
				/>
		</g>
		<g>
			<g>
				<path fill="#999999" d="M173.823,12.024c-0.412,0-0.831-0.086-1.231-0.267L162.8,7.341c-1.511-0.681-2.183-2.458-1.501-3.968
					c0.681-1.511,2.457-2.184,3.968-1.501l9.792,4.417c1.511,0.681,2.183,2.458,1.501,3.968
					C176.06,11.367,174.967,12.024,173.823,12.024z"/>
			</g>
		</g>
		<g>
			<polygon fill="#C6C6C6" points="119.683,140.417 103.046,154.725 102.762,132.782 140.666,49.281 157.588,56.912 			"/>
		</g>
		<g>
			<polygon fill="#B2B2B2" points="103.046,154.725 119.683,140.417 157.588,56.912 149.17,53.117 			"/>
		</g>
	</g>
	<g>
		<path fill="#AF3114" d="M52.858,218.059c0.029,0.373,0.059,0.742,0.09,1.111c0.041,0.279,0.092,0.508,0.141,0.762
			c0.1,0.496,0.198,0.988,0.296,1.471l0.018,0.092l0.01,0.043c0.004-0.057-0.003,0.658,0.005,0.383l0.042,0.229l0.082,0.455
			c0.058,0.303,0.114,0.6,0.172,0.898c0.122,0.592,0.259,1.172,0.388,1.744c0.27,1.139,0.583,2.232,0.91,3.277
			c0.657,2.092,1.413,3.984,2.207,5.678c0.775,1.697,1.599,3.189,2.402,4.49c0.309,0.514,0.614,0.986,0.918,1.439h16.566l0.301-0.15
			c0,0-0.02-0.188-0.057-0.551c-0.022-0.18-0.049-0.404-0.079-0.67c-0.008-0.066-0.015-0.133-0.022-0.205
			c0.001-0.057,0.001-0.119,0.001-0.18c-0.001-0.123-0.003-0.252-0.005-0.391c-0.012-0.574-0.025-1.281-0.042-2.115
			c-0.004-0.42-0.01-0.865,0.009-1.346c-0.003-0.469,0.01-0.969,0.03-1.49c0.063-1.049,0.12-2.178,0.261-3.383
			c0.15-1.205,0.342-2.479,0.603-3.797c0.127-0.658,0.29-1.332,0.45-2.012c0.088-0.336,0.179-0.678,0.27-1.025
			c0.051-0.172,0.101-0.346,0.15-0.52l0.072-0.26l0.035-0.129c0.008-0.307,0,0.379,0.006,0.291l0.012-0.045l0.023-0.09
			c0.12-0.479,0.243-0.963,0.369-1.453c0.061-0.24,0.123-0.48,0.184-0.725l0.206-0.393c0.129-0.26,0.259-0.52,0.391-0.783
			c0.149-0.322,0.301-0.648,0.452-0.979c1.225-2.6,2.821-4.832,4.667-6.619c1.851-1.795,3.96-3.215,6.533-4.445
			c2.562-1.225,5.626-2.215,9.108-2.896c1.735-0.348,3.576-0.584,5.481-0.76c0.472-0.055,0.96-0.07,1.444-0.1
			c0.481-0.037,0.972-0.066,1.466-0.08c0.492-0.025,0.985-0.045,1.487-0.039l0.75-0.008l0.188-0.002h0.039l0.386,0.004l1.057,0.012
			l0.527,0.006l0.32,0.016l1.203,0.059c0.483,0.043,0.971,0.057,1.454,0.088l1.427,0.133c0.468,0.059,0.93,0.129,1.397,0.172
			l1.368,0.195c0.897,0.152,1.778,0.316,2.634,0.494c3.42,0.744,6.387,1.818,8.874,3.086c2.491,1.283,4.536,2.766,6.331,4.654
			c1.808,1.867,3.285,4.248,4.449,6.928c0.147,0.334,0.26,0.684,0.404,1.021c0.139,0.34,0.28,0.682,0.383,1.037
			c0.112,0.352,0.229,0.701,0.354,1.051l0.046,0.133c0.003,0.201,0.01-0.238,0.013-0.176l0.009,0.047l0.018,0.092l0.071,0.367
			c0.048,0.246,0.095,0.488,0.141,0.729c0.051,0.283,0.086,0.393,0.13,0.535l0.136,0.424l0.069,0.215l0.056,0.258
			c0.037,0.174,0.075,0.346,0.111,0.516c0.138,0.686,0.286,1.363,0.383,2.023c0.215,1.326,0.38,2.609,0.474,3.816
			c0.048,0.604,0.079,1.189,0.094,1.75c0.025,0.568,0.05,1.117,0.047,1.637c0.003,1.043-0.025,1.992-0.058,2.834
			c-0.054,0.832-0.086,1.568-0.144,2.158c-0.037,0.414-0.066,0.756-0.091,1.035h17.765c0.818-1.236,1.627-2.656,2.429-4.262
			c0.853-1.664,1.647-3.537,2.367-5.605c0.36-1.033,0.702-2.117,1.004-3.248c0.074-0.283,0.148-0.57,0.224-0.857l0.112-0.436
			l0.104-0.486c0.128-0.621,0.257-1.25,0.388-1.889c0.055-0.238,0.109-0.48,0.165-0.723l0.083-0.367l0.02-0.09l0.012-0.047
			c0.003,0.033,0.01-0.438,0.012-0.266l0.037-0.238c0.099-0.639,0.191-1.285,0.276-1.945c0.099-0.656,0.156-1.334,0.21-2.023
			c0.055-0.689,0.117-1.387,0.138-2.102c0.106-2.859-0.047-5.93-0.546-9.146c-0.494-3.215-1.416-6.57-2.758-9.912
			c-1.34-3.346-3.145-6.67-5.369-9.791c-2.223-3.123-4.871-6.029-7.805-8.611c-5.883-5.186-12.893-8.961-20.096-11.367
			c-1.8-0.617-3.622-1.127-5.451-1.572c-0.911-0.209-1.828-0.43-2.744-0.615c-0.913-0.18-1.833-0.342-2.751-0.496l-2.753-0.385
			c-0.914-0.102-1.829-0.201-2.747-0.285c-0.944-0.076-2.012-0.125-3.012-0.178l-0.735-0.033l-0.527-0.012l-1.056-0.025
			l-0.527-0.014l-0.132-0.002l-0.499-0.002l-0.341,0.006l-1.361,0.029c-0.906,0.012-1.819,0.057-2.731,0.115
			c-0.911,0.049-1.823,0.102-2.741,0.205c-0.916,0.096-1.827,0.184-2.746,0.322c-3.665,0.479-7.331,1.273-10.95,2.359
			c-7.228,2.174-14.28,5.715-20.317,10.637c-3.014,2.453-5.762,5.24-8.102,8.268c-0.584,0.756-1.139,1.537-1.688,2.303
			c-0.536,0.777-1.025,1.588-1.521,2.377c-0.962,1.604-1.83,3.232-2.562,4.889c-0.395,0.814-0.712,1.652-1.039,2.475
			c-0.33,0.822-0.607,1.652-0.864,2.479c-0.55,1.643-0.94,3.287-1.272,4.895c-0.145,0.803-0.287,1.598-0.428,2.387
			c-0.091,0.787-0.178,1.564-0.265,2.338c-0.097,0.77-0.112,1.523-0.157,2.271c-0.031,0.746-0.064,1.482-0.043,2.201
			c0.014,0.719,0.028,1.428,0.041,2.131C52.761,216.553,52.81,217.309,52.858,218.059z M111.613,202.782h0.107
			C111.576,202.782,111.425,202.78,111.613,202.782z"/>
	</g>
	<g>
		<polygon fill="#AF3114" points="190.764,97.825 112.442,97.825 109.542,97.825 33.234,97.825 67.469,161.165 110.76,174.93 
			110.771,175.715 111.999,175.325 113.226,175.715 113.218,174.936 156.529,161.165 		"/>
	</g>
	<g>
		<path fill="#F47C64" d="M96.065,183.284l4.967,20.488c0,0,2.765,3.039,9.696,3.039c6.933,0,10.299-3.344,10.299-3.344
			l3.899-20.184H96.065z"/>
	</g>
	<g>
		<path fill="#B17F4A" d="M162.196,108.809c0-14.385-11.662-26.047-26.047-26.047H87.849c-14.384,0-26.047,11.662-26.047,26.047
			v14.432c0,14.385,11.663,26.045,26.047,26.045h48.301c14.385,0,26.047-11.66,26.047-26.045V108.809z"/>
	</g>
	<g>
		<path fill="#666666" d="M156.792,178.618c0,0-15.096,5.371-44.793,5.371c-24.713,0-44.793-5.371-44.793-5.371v-17.453
			c0,0,21.844,5.371,44.793,5.371c23.22,0,44.793-5.371,44.793-5.371V178.618z"/>
	</g>
	<g>
		<path fill="#72183B" d="M159.483,111.272c0,0-4.403,46.757-97.511,76.072l4.672-18.123c0,0,68.515-27.932,81.356-67.218
			L159.483,111.272z"/>
	</g>
	<g>
		<path fill="#F47C64" d="M84.229,212.36c0,0-15.789-14.893-34.784-7.172l1.843,14.43c0,0,13.377-6.389,28.923-0.348L84.229,212.36z
			"/>
	</g>
	<g>
		<path fill="#575756" d="M50.405,245.752c0-6.209,6.743-11.244,10.855-11.244c4.111,0,7.445,5.035,7.445,11.244"/>
	</g>
	<g>
		<path fill="#3C3C3B" d="M64.962,245.752c0-6.209,3.333-11.244,7.446-11.244c4.111,0,7.444,5.035,7.444,11.244"/>
	</g>
	<g>
		<g>
			<g>
				<path fill="#AF3114" d="M80.346,96.395c-7.46,12.744-19.178,16.033-20.565,18.13c-1.355,2.106-3.344,12.027-3.865,13.335
					c-0.52,1.311-0.98,2.664-1.42,4.047c-0.896,2.768-1.55,5.682-2.09,8.662c-0.115,0.748-0.249,1.496-0.345,2.248l-0.147,1.133
					l-0.021,0.143c0.003,0.078-0.035-0.57-0.021-0.275l-0.005,0.043l-0.006,0.088l-0.027,0.352l-0.055,0.699
					c-0.036,0.465-0.072,0.93-0.11,1.393l-0.046,0.553l-0.051,0.455c-0.033,0.305-0.069,0.613-0.104,0.916
					c-0.041,0.299-0.037,0.682-0.059,1.018c-0.175,2.787-0.121,5.41,0.072,7.838c0.208,2.428,0.594,4.635,1.111,6.615
					c0.507,1.984,1.152,3.727,1.838,5.213c0.661,1.51,1.396,2.725,2.031,3.674c0.623,0.971,1.158,1.643,1.464,2.049
					c0.298,0.41,0.334,0.533,0.048,0.418c4.641,1.873,6.885,7.156,5.012,11.795c-1.872,4.643-7.153,6.885-11.795,5.012
					c-0.286-0.117-1.143-0.354-2.414-0.818c-1.258-0.475-2.975-1.188-4.988-2.293c-1.991-1.129-4.309-2.643-6.705-4.666
					c-2.391-2.025-4.871-4.562-7.165-7.6c-2.304-3.029-4.477-6.533-6.267-10.383c-1.829-3.844-3.31-8.021-4.473-12.35
					c-0.14-0.557-0.293-1.062-0.421-1.664c-0.128-0.598-0.257-1.195-0.388-1.797c-0.217-1.021-0.436-2.055-0.654-3.092l-0.147-0.686
					l-0.072-0.344l-0.02-0.086l-0.01-0.043c0.014,0.266-0.028-0.412-0.027-0.361l-0.033-0.207c-0.082-0.553-0.167-1.107-0.252-1.664
					c-0.169-1.113-0.295-2.246-0.433-3.385c-0.516-4.564-0.66-9.316-0.453-14.137c0.246-4.813,0.854-9.69,1.904-14.449
					c1.052-4.756-3.149-9.137-1.365-13.489c1.774-4.359,9.527-8.68,11.828-12.334c2.323-3.641,4.811-6.884,7.312-9.689
					c2.492-2.818,5.001-5.191,7.344-7.178c2.352-1.979,4.535-3.573,6.448-4.814c1.906-1.254,3.536-2.157,4.765-2.805
					c0.618-0.322,1.136-0.582,1.548-0.783c0.245-0.12,0.431-0.213,0.556-0.275c0.098-0.05,0.172-0.09,0.222-0.115
					c0.015-0.004,0.022-0.008,0.022-0.008c11.234-4.127,23.688,1.638,27.815,12.873C87.943,82.229,88.657,82.197,80.346,96.395z"/>
			</g>
			<g>
				<path fill="#F47C64" d="M61.973,113.507c0,0-21.509-16.595-46.01-15.682l-2.686,25.751c0,0,29.1-1.558,42.278,8.42
					L61.973,113.507z"/>
			</g>
			<g>
				<path fill="#F47C64" d="M82.392,182.456c-1.357-6.535-7.754-10.73-14.288-9.373c-2.33,0.484-4.356,1.617-5.947,3.164
					c-8.19-6.152-10.521-17.588-10.521-17.588l-25.205,13.482c21.764,32.158,46.589,24.602,46.589,24.602
					C79.554,195.385,83.749,188.989,82.392,182.456z"/>
			</g>
			<g>
				
					<rect x="72.892" y="174.11" transform="matrix(0.67 0.7423 -0.7423 0.67 158.1832 4.1782)" fill="#3C3C3B" width="2.999" height="11.832"/>
			</g>
			<g>
				<g>
					<path fill="#3C3C3B" d="M4.069,97.825c0-20.513,13.57-42.513,45.999-42.513c33.02,0,45.997,22,45.997,42.513"/>
				</g>
				<g>
					<circle fill="#FCDFB1" cx="42.256" cy="85.417" r="6.265"/>
				</g>
				<g>
					<circle fill="#FCDFB1" cx="61.973" cy="85.417" r="6.265"/>
				</g>
				<g>
					<path fill="#FCDFB1" d="M27.937,82.408c-2.898-5.732-12.754-3.256-12.754-3.256c-0.023,3.727,0.539,6.297,1.263,8.062
						c0.329,1.104,0.956,2.074,1.786,2.829c0.677,0.677,1.198,0.868,1.198,0.868c0.894,0.49,1.921,0.77,3.012,0.77
						c3.461,0,6.265-2.805,6.265-6.265C28.706,84.326,28.427,83.302,27.937,82.408z"/>
				</g>
				<g>
					<path fill="#FCDFB1" d="M39.562,68.77c-2.03-6.094-12.144-5.084-12.144-5.084c-0.565,3.684-0.383,6.31,0.074,8.162
						c0.165,1.139,0.643,2.19,1.354,3.059c0.572,0.769,1.06,1.033,1.06,1.033c0.813,0.616,1.788,1.043,2.867,1.201
						c3.423,0.506,6.606-1.861,7.112-5.283C40.046,70.778,39.918,69.724,39.562,68.77z"/>
				</g>
				<g>
					<path fill="#FCDFB1" d="M56.524,68.026c1.846-6.152-7.008-11.145-7.008-11.145c-2.582,2.687-3.942,4.939-4.635,6.718
						c-0.52,1.027-0.734,2.162-0.652,3.281c0.025,0.957,0.271,1.455,0.271,1.455c0.312,0.972,0.863,1.88,1.654,2.632
						c2.51,2.382,6.477,2.279,8.857-0.231C55.765,69.947,56.267,69.012,56.524,68.026z"/>
				</g>
				<g>
					<path fill="#FCDFB1" d="M74.859,71.414c3.071-5.642-4.562-12.351-4.562-12.351c-3.081,2.099-4.877,4.023-5.92,5.622
						c-0.72,0.897-1.164,1.963-1.313,3.074c-0.173,0.942-0.034,1.48-0.034,1.48c0.104,1.015,0.457,2.018,1.077,2.916
						c1.964,2.848,5.867,3.564,8.715,1.598C73.719,73.137,74.403,72.324,74.859,71.414z"/>
				</g>
				<g>
					<path fill="#FCDFB1" d="M44.162,55.549c-3.216-6.974-8.195-10.942-8.195-10.942c-3.463,6.386-3.499,12.911-3.499,12.911
						l0.039-0.006c-0.011,0.082-0.013,0.165,0,0.246c0.196,1.162,2.973,1.664,6.202,1.12c3.229-0.544,5.689-1.927,5.493-3.09
						c-0.014-0.08-0.043-0.156-0.081-0.231L44.162,55.549z"/>
				</g>
				<g>
					<path fill="#FCDFB1" d="M24.26,61.463c-5.877-4.943-12.071-6.417-12.071-6.417c-0.418,7.252,2.325,13.174,2.325,13.174
						l0.032-0.022c0.025,0.078,0.059,0.154,0.105,0.222c0.672,0.969,3.398,0.243,6.089-1.624c2.692-1.865,4.329-4.163,3.657-5.133
						c-0.046-0.066-0.104-0.124-0.172-0.175L24.26,61.463z"/>
				</g>
				<g>
					<path fill="#FCDFB1" d="M10.252,74.434c-7.575-1.262-13.656,0.621-13.656,0.621c3.332,6.455,8.707,10.157,8.707,10.157
						l0.017-0.037c0.062,0.056,0.129,0.104,0.203,0.139c1.073,0.49,3.049-1.522,4.416-4.499c1.366-2.975,1.606-5.787,0.534-6.278
						c-0.075-0.034-0.153-0.054-0.237-0.063L10.252,74.434z"/>
				</g>
				<g>
					<path fill="#FCDFB1" d="M63.867,56.114c-1.403-7.551-5.253-12.622-5.253-12.622c-4.926,5.338-6.568,11.655-6.568,11.655
						l0.041,0.002c-0.031,0.077-0.054,0.157-0.061,0.239C51.931,56.564,54.5,57.732,57.763,58c3.265,0.267,5.988-0.469,6.083-1.644
						c0.007-0.081-0.003-0.163-0.02-0.245L63.867,56.114z"/>
				</g>
			</g>
		</g>
		<g>
			<g>
				<path fill="#AF3114" d="M143.653,96.395c7.459,12.744,19.178,16.033,20.563,18.13c1.356,2.106,3.345,12.027,3.866,13.335
					c0.52,1.311,0.98,2.664,1.42,4.047c0.896,2.768,1.55,5.682,2.089,8.662c0.116,0.748,0.25,1.496,0.345,2.248l0.15,1.133
					l0.02,0.143c-0.004,0.078,0.035-0.57,0.021-0.275l0.005,0.043l0.007,0.088l0.026,0.352l0.055,0.699
					c0.036,0.465,0.073,0.93,0.11,1.393l0.046,0.553l0.051,0.455c0.034,0.305,0.069,0.613,0.104,0.916
					c0.042,0.299,0.038,0.682,0.059,1.018c0.174,2.787,0.121,5.41-0.071,7.838c-0.209,2.428-0.595,4.635-1.111,6.615
					c-0.507,1.984-1.153,3.727-1.838,5.213c-0.662,1.51-1.396,2.725-2.032,3.674c-0.622,0.971-1.157,1.643-1.464,2.049
					c-0.299,0.41-0.333,0.533-0.048,0.418c-4.642,1.873-6.885,7.156-5.012,11.795c1.873,4.643,7.154,6.885,11.795,5.012
					c0.286-0.117,1.143-0.354,2.414-0.818c1.259-0.475,2.975-1.188,4.989-2.293c1.991-1.129,4.308-2.643,6.704-4.666
					c2.39-2.025,4.871-4.562,7.166-7.6c2.303-3.029,4.476-6.533,6.266-10.383c1.829-3.844,3.31-8.021,4.473-12.35
					c0.139-0.557,0.293-1.062,0.421-1.664c0.129-0.598,0.257-1.195,0.388-1.797c0.218-1.021,0.435-2.055,0.654-3.092l0.148-0.686
					l0.072-0.344l0.019-0.086l0.009-0.043c-0.013,0.266,0.029-0.412,0.028-0.361l0.034-0.207c0.082-0.553,0.166-1.107,0.251-1.664
					c0.169-1.113,0.296-2.246,0.433-3.385c0.515-4.564,0.66-9.316,0.454-14.137c-0.247-4.813-0.856-9.69-1.905-14.449
					c-1.052-4.756,3.149-9.137,1.367-13.489c-1.776-4.359-9.529-8.68-11.83-12.334c-2.323-3.641-4.811-6.884-7.313-9.689
					c-2.491-2.818-5-5.191-7.341-7.178c-2.354-1.979-4.537-3.573-6.45-4.814c-1.906-1.254-3.536-2.157-4.765-2.805
					c-0.618-0.322-1.136-0.582-1.548-0.783c-0.243-0.12-0.43-0.213-0.556-0.275c-0.098-0.05-0.172-0.09-0.222-0.115
					c-0.015-0.004-0.022-0.008-0.022-0.008c-11.234-4.127-23.687,1.638-27.815,12.873C136.054,82.229,135.341,82.197,143.653,96.395
					z"/>
			</g>
			<g>
				<path fill="#3C3C3B" d="M219.929,97.825c0-20.513-13.571-42.513-45.999-42.513c-33.02,0-45.998,22-45.998,42.513"/>
			</g>
			<g>
				<circle fill="#FCDFB1" cx="182.171" cy="85.417" r="6.265"/>
			</g>
			<g>
				<circle fill="#FCDFB1" cx="162.455" cy="85.417" r="6.265"/>
			</g>
			<g>
				<path fill="#FCDFB1" d="M196.491,82.408c2.898-5.732,12.754-3.256,12.754-3.256c0.023,3.727-0.539,6.297-1.263,8.062
					c-0.329,1.104-0.956,2.074-1.786,2.829c-0.678,0.677-1.198,0.868-1.198,0.868c-0.894,0.49-1.921,0.77-3.012,0.77
					c-3.461,0-6.265-2.805-6.265-6.265C195.722,84.326,196.001,83.302,196.491,82.408z"/>
			</g>
			<g>
				<path fill="#FCDFB1" d="M184.864,68.77c2.031-6.094,12.145-5.084,12.145-5.084c0.565,3.684,0.383,6.31-0.074,8.162
					c-0.165,1.139-0.643,2.19-1.354,3.059c-0.572,0.769-1.06,1.033-1.06,1.033c-0.813,0.616-1.788,1.043-2.867,1.201
					c-3.423,0.506-6.606-1.861-7.112-5.283C184.382,70.778,184.51,69.724,184.864,68.77z"/>
			</g>
			<g>
				<path fill="#FCDFB1" d="M167.903,68.026c-1.846-6.152,7.008-11.145,7.008-11.145c2.582,2.687,3.942,4.939,4.635,6.718
					c0.52,1.027,0.734,2.162,0.652,3.281c-0.025,0.957-0.271,1.455-0.271,1.455c-0.312,0.972-0.863,1.88-1.654,2.632
					c-2.51,2.382-6.477,2.279-8.857-0.231C168.663,69.947,168.161,69.012,167.903,68.026z"/>
			</g>
			<g>
				<path fill="#FCDFB1" d="M149.568,71.414c-3.071-5.642,4.562-12.351,4.562-12.351c3.081,2.099,4.877,4.023,5.92,5.622
					c0.72,0.897,1.164,1.963,1.313,3.074c0.173,0.942,0.034,1.48,0.034,1.48c-0.104,1.015-0.457,2.018-1.077,2.916
					c-1.965,2.848-5.867,3.564-8.715,1.598C150.709,73.137,150.024,72.324,149.568,71.414z"/>
			</g>
			<g>
				<path fill="#FCDFB1" d="M180.266,55.549c3.216-6.974,8.194-10.942,8.194-10.942c3.464,6.386,3.5,12.911,3.5,12.911l-0.039-0.006
					c0.01,0.082,0.013,0.165,0,0.246c-0.196,1.162-2.975,1.664-6.202,1.12c-3.229-0.544-5.689-1.927-5.493-3.09
					c0.014-0.08,0.043-0.156,0.081-0.231L180.266,55.549z"/>
			</g>
			<g>
				<path fill="#FCDFB1" d="M200.168,61.463c5.877-4.943,12.071-6.417,12.071-6.417c0.418,7.252-2.325,13.174-2.325,13.174
					l-0.032-0.022c-0.025,0.078-0.059,0.154-0.105,0.222c-0.672,0.969-3.398,0.243-6.089-1.624
					c-2.692-1.865-4.329-4.163-3.658-5.133c0.047-0.066,0.105-0.124,0.172-0.175L200.168,61.463z"/>
			</g>
			<g>
				<path fill="#FCDFB1" d="M214.176,74.434c7.575-1.262,13.656,0.621,13.656,0.621c-3.333,6.455-8.708,10.157-8.708,10.157
					l-0.016-0.037c-0.062,0.056-0.129,0.104-0.203,0.139c-1.073,0.49-3.049-1.522-4.416-4.499c-1.367-2.975-1.606-5.787-0.535-6.278
					c0.076-0.034,0.154-0.054,0.238-0.063L214.176,74.434z"/>
			</g>
			<g>
				<path fill="#FCDFB1" d="M160.561,56.114c1.403-7.551,5.253-12.622,5.253-12.622c4.926,5.338,6.567,11.655,6.567,11.655
					l-0.04,0.002c0.031,0.077,0.054,0.157,0.061,0.239c0.096,1.176-2.474,2.344-5.737,2.611c-3.264,0.267-5.987-0.469-6.082-1.644
					c-0.007-0.081,0.003-0.163,0.02-0.245L160.561,56.114z"/>
			</g>
			<g>
				<path fill="#F47C64" d="M162.196,113.507c0,0,21.338-16.595,45.84-15.682l2.685,25.751c0,0-29.1-1.558-42.277,8.42
					L162.196,113.507z"/>
			</g>
			<g>
				<path fill="#F47C64" d="M141.606,182.456c1.357-6.535,7.753-10.73,14.288-9.373c2.33,0.484,4.356,1.617,5.947,3.164
					c8.191-6.152,10.521-17.588,10.521-17.588l25.205,13.482c-21.764,32.158-46.589,24.602-46.589,24.602
					C144.445,195.385,140.249,188.989,141.606,182.456z"/>
			</g>
			<g>
				
					<rect x="143.691" y="178.526" transform="matrix(0.7425 0.6699 -0.6699 0.7425 159.1173 -53.8571)" fill="#3C3C3B" width="11.832" height="2.999"/>
			</g>
		</g>
	</g>
	<g>
		<g>
			<g>
				<path fill="#FCDFB1" d="M78.23,22.939c0,0-5.467,21.393,21.975,30.386L79.952,67.17C79.952,67.17,54.8,46.162,78.23,22.939z"/>
			</g>
			<g>
				<path fill="#FCDFB1" d="M145.768,22.939c0,0,5.468,21.393-21.975,30.386l20.253,13.845
					C144.046,67.17,169.198,46.162,145.768,22.939z"/>
			</g>
		</g>
		<g>
			<path fill="#AF3114" d="M120.95,51.732h-17.9c-13.717,0-24.838,11.12-24.838,24.836v6.509c0,11.552,7.889,21.261,18.571,24.037
				V119.1h30.431v-11.985c10.684-2.776,18.572-12.485,18.572-24.037v-6.509C145.786,62.853,134.666,51.732,120.95,51.732z"/>
		</g>
		<g>
			<g>
				<rect x="102.557" y="107.913" fill="#3C3C3B" width="3" height="11.187"/>
			</g>
			<g>
				<rect x="118.44" y="107.913" fill="#3C3C3B" width="3" height="11.187"/>
			</g>
			<g>
				<rect x="110.499" y="107.913" fill="#3C3C3B" width="3" height="11.187"/>
			</g>
		</g>
		<g>
			<g>
				<path fill="#72183B" d="M102.645,85.271c-1.559,4.92-6.812,7.645-11.733,6.084c-4.92-1.56-7.645-6.813-6.086-11.734"/>
			</g>
			<g>
				<path fill="#72183B" d="M121.354,85.271c1.559,4.92,6.813,7.645,11.733,6.084c4.92-1.56,7.645-6.813,6.087-11.734"/>
			</g>
		</g>
	</g>
	<g>
		<path fill="#F47C64" d="M139.4,212.36c0,0,15.79-14.893,34.784-7.172l-1.843,14.43c0,0-13.377-6.389-28.922-0.348L139.4,212.36z"
			/>
	</g>
	<g>
		<path fill="#575756" d="M173.226,245.752c0-6.209-6.742-11.244-10.856-11.244c-4.111,0-7.445,5.035-7.445,11.244"/>
	</g>
	<g>
		<path fill="#3C3C3B" d="M158.669,245.752c0-6.209-3.333-11.244-7.445-11.244c-4.113,0-7.445,5.035-7.445,11.244"/>
	</g>
	<g>
		<g>
			<g>
				<g>
					<rect x="477.867" y="222.249" fill="#3C3C3B" width="6.041" height="16.725"/>
				</g>
			</g>
			<g>
				<path fill="#7F2040" d="M483.908,245.745h-14.654c0,0-11.969,0.748-11.969-12.09c0,0,3.074,5.318,11.969,5.318
					c11.492,0,14.654,0,14.654,0V245.745z"/>
			</g>
		</g>
		<g>
			<g>
				<g>
					<rect x="496.55" y="222.249" fill="#3C3C3B" width="6.041" height="16.725"/>
				</g>
			</g>
			<g>
				<path fill="#7F2040" d="M496.55,245.745h14.654c0,0,11.969,0.748,11.969-12.09c0,0-3.074,5.318-11.969,5.318
					c-11.492,0-14.654,0-14.654,0V245.745z"/>
			</g>
		</g>
		<g>
			<path fill="#07A87E" d="M494.177,83.904c0,0-1.756-2.114-4.439-2.114s-4.578,2.114-4.578,2.114
				c-19.033,17.005-21.801,34.009-21.801,34.009h53.74C517.099,117.913,517.56,103.103,494.177,83.904z"/>
		</g>
		<g>
			<g>
				<path fill="#6DF7BB" d="M526.673,77.229l-2.252-8.74l-12.881,19.434c-2.049,3.088-1.203,7.248,1.883,9.294
					c3.088,2.046,7.248,1.204,9.295-1.884l12.881-19.434L526.673,77.229z"/>
			</g>
			<g>
				<path fill="#B17F4A" d="M506.158,109.174c-0.189,0-0.381-0.054-0.551-0.166c-0.461-0.306-0.586-0.926-0.281-1.387l20.143-30.386
					c0.305-0.46,0.926-0.587,1.387-0.281c0.459,0.306,0.586,0.926,0.281,1.387l-20.143,30.386
					C506.8,109.017,506.482,109.174,506.158,109.174z"/>
			</g>
		</g>
		<g>
			<path fill="#6DF7BB" d="M463.681,117.062c0,0-13.734-6.804-13.734-26.718c0,0,28.615-2.148,50.793,4.329
				c24.121,7.046,20.914,25.295,18.504,31.35C516.833,132.079,463.681,117.062,463.681,117.062z"/>
		</g>
		<g>
			<g>
				<path fill="#07A87E" d="M490.439,228.446c17.998,0,33.244-11.26,38.514-26.83h-77.029
					C457.193,217.186,472.441,228.446,490.439,228.446z"/>
			</g>
			<g>
				<path fill="#07A87E" d="M490.439,150.811c-22.363,0-40.492,17.379-40.492,38.816h80.982
					C530.929,168.19,512.802,150.811,490.439,150.811z"/>
			</g>
			<g>
				<path fill="#7F2040" d="M449.947,189.627c0,4.184,0.699,8.213,1.977,11.988h77.029c1.279-3.775,1.977-7.805,1.977-11.988
					H449.947z"/>
			</g>
		</g>
		<g>
			<rect x="487.439" y="136.858" fill="#E8B995" width="6" height="22.375"/>
		</g>
		<g>
			<path fill="#3D0B2E" d="M534.447,197.559c-3.234,0-6.361-1.75-7.973-4.812l-11.848-22.525c-2.314-4.398-0.625-9.842,3.775-12.154
				c4.396-2.314,9.842-0.625,12.154,3.775l11.848,22.525c2.314,4.398,0.625,9.84-3.775,12.154
				C537.292,197.225,535.859,197.559,534.447,197.559z"/>
		</g>
		<g>
			<g>
				<g>
					<path fill="#6DF7BB" d="M537.166,159.184c1.385,5.629-2.055,11.312-7.682,12.697l-7.432,1.828
						c-5.629,1.383-11.311-2.057-12.695-7.684l0,0c-1.385-5.629,2.055-11.314,7.682-12.697l7.432-1.83
						C530.097,150.116,535.783,153.557,537.166,159.184L537.166,159.184z"/>
				</g>
			</g>
			<g>
				<g>
					<path fill="#07A87E" d="M525.789,172.877c0,0-0.271-0.271-0.672-0.766c-0.396-0.496-0.912-1.217-1.43-2.107
						c-0.521-0.889-1.047-1.947-1.508-3.104c-0.463-1.158-0.875-2.414-1.188-3.693c-0.643-2.555-0.879-5.209-0.771-7.27
						c0.047-1.031,0.17-1.906,0.293-2.531c0.125-0.623,0.242-0.992,0.242-0.992s0.273,0.273,0.674,0.768s0.916,1.215,1.436,2.105
						c1.049,1.775,2.072,4.238,2.689,6.799c0.314,1.277,0.531,2.582,0.66,3.822c0.127,1.24,0.152,2.42,0.104,3.447
						c-0.045,1.029-0.168,1.908-0.289,2.531C525.904,172.512,525.789,172.877,525.789,172.877z"/>
				</g>
			</g>
			<g>
				<g>
					<path fill="#07A87E" d="M520.755,152.415c0,0-0.373,0.326-0.957,0.912c-0.293,0.291-0.629,0.662-1,1.08
						c-0.367,0.42-0.748,0.916-1.127,1.457c-0.381,0.543-0.73,1.15-1.049,1.795c-0.15,0.326-0.273,0.67-0.418,1.008
						c-0.102,0.348-0.203,0.703-0.307,1.066c-0.041,0.375-0.137,0.738-0.172,1.115c0.002,0.385-0.053,0.764-0.037,1.152
						c0.039,0.393,0.051,0.783,0.102,1.178l0.225,1.191l0.379,1.242l0.053,0.168l0.061,0.123l0.111,0.24l0.213,0.492
						c0.051,0.166,0.178,0.326,0.27,0.488l0.285,0.5c0.199,0.324,0.459,0.594,0.668,0.906c0.244,0.281,0.516,0.529,0.762,0.805
						c0.283,0.23,0.553,0.477,0.838,0.695c0.58,0.42,1.172,0.795,1.762,1.096c1.172,0.607,2.275,0.994,3.062,1.246
						c0.791,0.246,1.273,0.359,1.273,0.359s-0.463,0.182-1.32,0.307c-0.854,0.131-2.113,0.215-3.631-0.066
						c-0.758-0.139-1.57-0.387-2.41-0.752c-0.416-0.186-0.818-0.439-1.246-0.674c-0.4-0.281-0.803-0.584-1.197-0.912
						c-0.361-0.361-0.752-0.725-1.082-1.141c-0.309-0.436-0.652-0.836-0.916-1.342l-0.391-0.771l-0.188-0.393l-0.092-0.199
						l-0.053-0.166l-0.221-0.672l-0.111-0.336l-0.055-0.168l-0.027-0.084l-0.016-0.043l-0.004-0.021l-0.033-0.119l-0.002-0.012
						c-0.09-0.531-0.18-1.062-0.27-1.592c-0.066-0.535-0.035-1.088-0.047-1.621c0.006-0.539,0.121-1.076,0.193-1.598
						c0.104-0.52,0.279-1.021,0.432-1.508c0.203-0.471,0.412-0.93,0.639-1.359c0.271-0.406,0.506-0.818,0.793-1.176
						c0.568-0.713,1.172-1.311,1.775-1.787c1.213-0.951,2.359-1.473,3.174-1.762C520.263,152.473,520.755,152.415,520.755,152.415z"
						/>
				</g>
			</g>
			<g>
				<g>
					<path fill="#07A87E" d="M520.755,152.415c0,0,0.465-0.176,1.322-0.299c0.854-0.121,2.111-0.189,3.629,0.09
						c0.756,0.141,1.566,0.391,2.402,0.758c0.42,0.184,0.818,0.443,1.246,0.676c0.4,0.273,0.799,0.586,1.197,0.908
						c0.361,0.359,0.748,0.723,1.082,1.135c0.305,0.43,0.656,0.852,0.914,1.324c0.234,0.48,0.518,0.955,0.709,1.459
						c0.166,0.51,0.332,1.023,0.5,1.535l0.004,0.012l0.027,0.121l0.002,0.023l0.008,0.043l0.016,0.088l0.029,0.174l0.059,0.35
						l0.115,0.695l0.029,0.174l0.012,0.219l0.014,0.434l0.012,0.865c0.002,0.57-0.117,1.086-0.188,1.615
						c-0.098,0.521-0.277,1.021-0.43,1.51c-0.197,0.475-0.412,0.932-0.637,1.365c-0.271,0.406-0.51,0.816-0.795,1.174
						c-0.572,0.715-1.178,1.311-1.785,1.785c-1.213,0.953-2.369,1.463-3.186,1.744c-0.818,0.285-1.312,0.34-1.312,0.34
						s0.375-0.326,0.963-0.908c0.58-0.59,1.379-1.443,2.137-2.525c0.381-0.539,0.734-1.146,1.053-1.789
						c0.148-0.326,0.273-0.668,0.418-1.004c0.09-0.357,0.215-0.705,0.303-1.066c0.039-0.373,0.145-0.732,0.17-1.113l0.021-0.572
						c0.006-0.188,0.045-0.389,0.012-0.561l-0.039-0.533l-0.014-0.266l-0.002-0.137l-0.033-0.172l-0.24-1.277l-0.352-1.16
						c-0.139-0.373-0.311-0.723-0.459-1.09c-0.166-0.352-0.389-0.662-0.564-1.004c-0.207-0.318-0.461-0.596-0.67-0.908
						c-0.26-0.273-0.518-0.541-0.768-0.805c-0.285-0.23-0.553-0.479-0.838-0.697c-0.58-0.424-1.174-0.801-1.762-1.104
						c-0.586-0.305-1.152-0.566-1.674-0.77c-0.521-0.195-0.992-0.371-1.387-0.492C521.236,152.53,520.755,152.415,520.755,152.415z"
						/>
				</g>
			</g>
		</g>
		<g>
			<path fill="#7D4E24" d="M461.632,126.024c0,0-16.398,62.664,28.428,62.664c0,0,38.408,4.881,29.184-62.664H461.632z"/>
		</g>
		<g>
			<path fill="#FCDFB1" d="M519.244,126.024c0,11.369-9.217,20.584-20.586,20.584h-16.439c-11.369,0-20.586-9.215-20.586-20.584l0,0
				c0-11.37,9.217-20.585,20.586-20.585h16.439C510.027,105.438,519.244,114.654,519.244,126.024L519.244,126.024z"/>
		</g>
		<g>
			<path fill="#3C3C3B" d="M471.419,126.78c0-1.406,1.137-2.545,2.543-2.545c1.404,0,2.543,1.139,2.543,2.545"/>
		</g>
		<g>
			<path fill="#3C3C3B" d="M505.498,126.78c0-1.406,1.139-2.545,2.543-2.545c1.406,0,2.545,1.139,2.545,2.545"/>
		</g>
		<g>
			<g>
				<g>
					<path fill="#DBA87F" d="M497.347,217.633c-11.049,5.967-25.303,0.996-31.838-11.102c-6.533-12.1-2.873-26.746,8.178-32.711
						c17.16-9.268,43.15,4.992,43.15,4.992S515.123,208.034,497.347,217.633z"/>
				</g>
			</g>
			<g>
				<g>
					<polygon fill="#FCDFB1" points="481.226,210.526 471.255,192.059 476.218,190.571 485.195,207.194 					"/>
				</g>
			</g>
			<g>
				<g>
					
						<ellipse transform="matrix(0.4753 0.8798 -0.8798 0.4753 427.0104 -313.3915)" fill="#FCDFB1" cx="476.241" cy="201.293" rx="6.882" ry="3.147"/>
				</g>
			</g>
			<g>
				<g>
					<circle fill="#FCDFB1" cx="495.674" cy="190.243" r="11.116"/>
				</g>
			</g>
			<g>
				<g>
					<circle fill="#3C3C3B" cx="495.675" cy="190.242" r="8.048"/>
				</g>
			</g>
			<g>
				<g>
					<g>
						
							<ellipse transform="matrix(0.4751 0.8799 -0.8799 0.4751 422.9774 -403.2629)" fill="#F9B233" cx="549.521" cy="152.926" rx="1.443" ry="1.114"/>
					</g>
				</g>
				<g>
					<g>
						
							<ellipse transform="matrix(0.4751 0.8799 -0.8799 0.4751 421.9749 -399.844)" fill="#F9B233" cx="546.154" cy="153.795" rx="1.443" ry="1.114"/>
					</g>
				</g>
				<g>
					<g>
						
							<ellipse transform="matrix(0.4754 0.8798 -0.8798 0.4754 421.0464 -396.2122)" fill="#F9B233" cx="542.749" cy="154.943" rx="1.444" ry="1.116"/>
					</g>
				</g>
				<g>
					<g>
						
							<rect x="545.863" y="158.665" transform="matrix(0.4751 0.8799 -0.8799 0.4751 430.1247 -402.9615)" fill="#F9B233" width="13.94" height="0.786"/>
					</g>
				</g>
				<g>
					<g>
						
							<rect x="542.287" y="160.279" transform="matrix(0.4752 0.8799 -0.8799 0.4752 429.9592 -399.4998)" fill="#F9B233" width="15.163" height="0.787"/>
					</g>
				</g>
				<g>
					<g>
						
							<rect x="538.102" y="162.341" transform="matrix(0.4752 0.8799 -0.8799 0.4752 430.2143 -395.8484)" fill="#F9B233" width="17.71" height="0.788"/>
					</g>
				</g>
				<g>
					<g>
						<path fill="#F9B233" d="M555.722,164.411c-0.539,0.291-0.672,1.098-0.293,1.799c0.377,0.701,1.123,1.031,1.666,0.74
							c0.541-0.293,0.672-1.1,0.295-1.799C557.011,164.45,556.267,164.118,555.722,164.411z"/>
					</g>
				</g>
				<g>
					<g>
						
							<ellipse transform="matrix(-0.4751 -0.8799 0.8799 -0.4751 669.1241 735.1808)" fill="#F9B233" cx="553.836" cy="168.018" rx="1.445" ry="1.115"/>
					</g>
				</g>
				<g>
					<g>
						
							<ellipse transform="matrix(-0.4751 -0.8799 0.8799 -0.4751 663.0256 735.959)" fill="#F9B233" cx="551.007" cy="170.237" rx="1.443" ry="1.114"/>
					</g>
				</g>
				<g>
					<g>
						<path fill="#B17F4A" d="M541.748,168.625c2.01-1.086,4.461-0.537,5.836,1.189l11.316-9.047l-0.811-1.5
							c0.732-0.396,0.822-1.654,0.197-2.811c-0.623-1.154-1.723-1.77-2.457-1.373l-0.811-1.502l-13.77,4.502
							c0.688,2.096-0.197,4.447-2.207,5.533l-0.002-0.006l-37.902,17.787l4.953,9.172l35.658-21.939L541.748,168.625z"/>
					</g>
				</g>
				<g>
					<g>
						<polygon fill="#FCDFB1" points="539.042,163.618 541.748,168.625 540.818,169.204 538.05,164.077 						"/>
					</g>
				</g>
			</g>
		</g>
		<g>
			<path fill="#7D4E24" d="M478.98,105.551c0,0,7.523-0.393,11.268,7.83c0,0,2.297-7.217,11.648-7.761c0,0-4.848-1.385-11.668-1.385
				C482.98,104.235,478.98,105.551,478.98,105.551z"/>
		</g>
		<g>
			<path fill="#7D4E24" d="M490.439,131.971c0,0-15.58-1.666-15.58,13.283c0,0,12.301,0.307,15.58-9.314
				C490.833,134.782,490.439,133.473,490.439,131.971z"/>
		</g>
		<g>
			<path fill="#7D4E24" d="M506.017,145.254c0,0-12.287,0-15.49-9.654c-0.357-1.078-0.088-2.264-0.088-3.629
				c0,0,15.578-0.615,15.578,11.939"/>
		</g>
		<g>
			<ellipse fill="#FCDFB1" cx="490.439" cy="132.319" rx="4.387" ry="2.033"/>
		</g>
		<g>
			<path fill="#7D4E24" d="M504.675,142.581h-8.385c0,1.09-0.883,1.973-1.973,1.973s-1.971-0.883-1.971-1.973h-3.398
				c0,1.09-0.883,1.973-1.971,1.973c-1.09,0-1.973-0.883-1.973-1.973h-9.732l-0.414,2.674l0.414,2.791h30.744v-2.791
				L504.675,142.581z"/>
		</g>
		<g>
			<path fill="#3D0B2E" d="M539.148,196.227l-9.418-15.34l-0.107,0.068c3.449-2.27,4.287-5.064,2.49-8.309
				c-2.41-4.348-0.838-9.824,3.51-12.232c4.346-2.408,9.826-0.84,12.234,3.51C556.033,178.682,547.128,191.327,539.148,196.227z"/>
		</g>
		<g>
			<path fill="#FCDFB1" d="M534.619,170.94c-1.666-2.873-0.688-6.553,2.186-8.219s6.551-0.689,8.219,2.184"/>
		</g>
		<g>
			<path fill="#FCDFB1" d="M534.619,170.94c-1.666-2.873-0.688-6.553,2.186-8.219s6.551-0.689,8.219,2.184"/>
		</g>
		<g>
			<g>
				<path fill="#3D0B2E" d="M482.222,200.87c-5.068,0-9.82-1.104-14.234-3.311c-16.572-8.287-20.566-28.547-20.967-30.828
					c-0.859-4.896,2.412-9.562,7.309-10.422c4.879-0.865,9.539,2.396,10.414,7.273c0.701,3.771,4.102,14.322,11.35,17.904
					c4.992,2.469,11.785,1.557,20.191-2.707c4.432-2.25,9.848-0.479,12.098,3.955c2.248,4.432,0.477,9.85-3.955,12.098
					C496.496,198.856,489.072,200.87,482.222,200.87z"/>
			</g>
			<g>
				<path fill="#FCDFB1" d="M498.062,181.319c3.074-1.254,6.586,0.219,7.842,3.293s-0.215,6.584-3.289,7.84"/>
			</g>
		</g>
		<g>
			<g>
				<g>
					<path fill="#6DF7BB" d="M468.488,159.184c1.385,5.629-2.057,11.312-7.684,12.697l-7.432,1.828
						c-5.627,1.383-11.311-2.057-12.695-7.684l0,0c-1.385-5.629,2.057-11.314,7.682-12.697l7.432-1.83
						C461.417,150.116,467.103,153.557,468.488,159.184L468.488,159.184z"/>
				</g>
			</g>
			<g>
				<g>
					<path fill="#07A87E" d="M457.109,172.877c0,0-0.271-0.271-0.672-0.766c-0.396-0.496-0.912-1.217-1.43-2.107
						c-0.52-0.889-1.045-1.947-1.508-3.104c-0.463-1.158-0.875-2.414-1.188-3.693c-0.643-2.555-0.879-5.209-0.771-7.27
						c0.049-1.031,0.17-1.906,0.295-2.531c0.125-0.623,0.24-0.992,0.24-0.992s0.273,0.273,0.674,0.768
						c0.398,0.494,0.916,1.215,1.436,2.105c1.049,1.775,2.074,4.238,2.688,6.799c0.316,1.277,0.535,2.582,0.662,3.822
						s0.152,2.42,0.104,3.447c-0.047,1.029-0.168,1.908-0.289,2.531C457.224,172.512,457.109,172.877,457.109,172.877z"/>
				</g>
			</g>
			<g>
				<g>
					<path fill="#07A87E" d="M452.076,152.415c0,0-0.373,0.326-0.957,0.912c-0.293,0.291-0.629,0.662-1,1.08
						c-0.369,0.42-0.748,0.916-1.127,1.457c-0.381,0.543-0.73,1.15-1.047,1.795c-0.152,0.326-0.275,0.67-0.42,1.008
						c-0.1,0.348-0.203,0.703-0.305,1.066c-0.043,0.375-0.139,0.738-0.174,1.115c0.002,0.385-0.051,0.764-0.035,1.152
						c0.039,0.393,0.049,0.783,0.098,1.178l0.229,1.191l0.379,1.242l0.053,0.168l0.059,0.123l0.113,0.24l0.209,0.492
						c0.053,0.166,0.18,0.326,0.273,0.488l0.283,0.5c0.199,0.324,0.459,0.594,0.668,0.906c0.244,0.281,0.518,0.529,0.762,0.805
						c0.285,0.23,0.553,0.477,0.838,0.695c0.58,0.42,1.174,0.795,1.76,1.096c1.176,0.607,2.279,0.994,3.066,1.246
						c0.791,0.246,1.271,0.359,1.271,0.359s-0.463,0.182-1.32,0.307c-0.854,0.131-2.111,0.215-3.631-0.066
						c-0.756-0.139-1.568-0.387-2.408-0.752c-0.416-0.186-0.818-0.439-1.248-0.674c-0.4-0.281-0.803-0.584-1.197-0.912
						c-0.361-0.361-0.752-0.725-1.082-1.141c-0.309-0.436-0.65-0.836-0.916-1.342l-0.389-0.771l-0.189-0.393l-0.09-0.199
						l-0.055-0.166l-0.221-0.672l-0.109-0.336l-0.057-0.168l-0.027-0.084l-0.014-0.043l-0.006-0.021l-0.033-0.119l-0.002-0.012
						c-0.09-0.531-0.18-1.062-0.27-1.592c-0.064-0.535-0.033-1.088-0.049-1.621c0.01-0.539,0.123-1.076,0.195-1.598
						c0.105-0.52,0.279-1.021,0.432-1.508c0.203-0.471,0.412-0.93,0.641-1.359c0.271-0.406,0.504-0.818,0.789-1.176
						c0.57-0.713,1.174-1.311,1.779-1.787c1.213-0.951,2.357-1.473,3.172-1.762C451.583,152.473,452.076,152.415,452.076,152.415z"
						/>
				</g>
			</g>
			<g>
				<g>
					<path fill="#07A87E" d="M452.078,152.415c0,0,0.463-0.176,1.32-0.299c0.855-0.121,2.111-0.189,3.629,0.09
						c0.756,0.141,1.568,0.391,2.404,0.758c0.418,0.184,0.816,0.443,1.244,0.676c0.4,0.273,0.801,0.586,1.197,0.908
						c0.361,0.359,0.748,0.723,1.082,1.135c0.307,0.43,0.656,0.852,0.912,1.324c0.236,0.48,0.52,0.955,0.709,1.459
						c0.168,0.51,0.336,1.023,0.502,1.535l0.006,0.012l0.025,0.121l0.004,0.023l0.008,0.043l0.016,0.088l0.027,0.174l0.059,0.35
						l0.115,0.695l0.029,0.174l0.012,0.219l0.016,0.434l0.012,0.865c0,0.57-0.117,1.086-0.189,1.615
						c-0.098,0.521-0.277,1.021-0.43,1.51c-0.197,0.475-0.412,0.932-0.637,1.365c-0.271,0.406-0.51,0.816-0.793,1.174
						c-0.574,0.715-1.178,1.311-1.787,1.785c-1.211,0.953-2.367,1.463-3.184,1.744c-0.818,0.285-1.314,0.34-1.314,0.34
						s0.375-0.326,0.963-0.908c0.582-0.59,1.377-1.443,2.137-2.525c0.383-0.539,0.732-1.146,1.053-1.789
						c0.15-0.326,0.275-0.668,0.42-1.004c0.09-0.357,0.213-0.705,0.301-1.066c0.041-0.373,0.145-0.732,0.17-1.113l0.021-0.572
						c0.008-0.188,0.045-0.389,0.012-0.561l-0.039-0.533l-0.014-0.266l-0.002-0.137l-0.033-0.172l-0.238-1.277l-0.352-1.16
						c-0.141-0.373-0.312-0.723-0.459-1.09c-0.166-0.352-0.391-0.662-0.566-1.004c-0.207-0.318-0.459-0.596-0.67-0.908
						c-0.262-0.273-0.516-0.541-0.768-0.805c-0.283-0.23-0.553-0.479-0.838-0.697c-0.58-0.424-1.174-0.801-1.76-1.104
						c-0.588-0.305-1.154-0.566-1.676-0.77c-0.521-0.195-0.992-0.371-1.385-0.492C452.558,152.53,452.078,152.415,452.078,152.415z"
						/>
				</g>
			</g>
		</g>
	</g>
	<g>
		<g>
			<g>
				<g>
					<polygon fill="#7C3C55" points="353.904,163.333 350.455,245.752 345.085,245.752 341.636,163.333 					"/>
				</g>
			</g>
			<g>
				<g>
					<path fill="#7C3C55" d="M364.906,245.752c-3.578-6.771-12.277-6.771-16.018-6.771c-3.738,0-6.771,3.033-6.771,6.771"/>
				</g>
			</g>
		</g>
		<g>
			<g>
				<polygon fill="#846774" points="343.171,199.987 357.662,195.569 355.613,206.979 343.369,205.301 				"/>
			</g>
		</g>
		<g>
			<g>
				<g>
					<path fill="#D84030" d="M275.003,92.078c-1.828,2.326-3.522,4.764-5.077,7.296l2.232,4.331l5.667-0.511
						c1.307-2.067,2.717-4.063,4.234-5.974l-5.481-0.369L275.003,92.078z"/>
				</g>
			</g>
			<g>
				<g>
					<path fill="#D84030" d="M263.298,113.078c-1.011,2.764-1.863,5.604-2.553,8.506l3.377,3.346l5.348-2.285
						c0.602-2.375,1.328-4.7,2.173-6.967l-5.434,1.369L263.298,113.078z"/>
				</g>
			</g>
			<g>
				<g>
					<path fill="#D84030" d="M268.321,102.122c-1.438,2.576-2.729,5.245-3.867,7.993l2.851,3.886l5.572-1.405
						c0.967-2.248,2.052-4.436,3.248-6.552l-5.525,0.496L268.321,102.122z"/>
				</g>
			</g>
			<g>
				<g>
					<path fill="#D84030" d="M265.879,171.729c1.678,3.58,3.633,7.045,5.874,10.359c0.842,1.248,2.218,1.922,3.617,1.922
						c0.841,0,1.691-0.242,2.44-0.748c1.996-1.35,2.521-4.062,1.172-6.059c-2.134-3.158-3.974-6.473-5.532-9.902l-3.059,5.121
						L265.879,171.729z"/>
				</g>
			</g>
			<g>
				<g>
					<path fill="#D84030" d="M259.261,148.702c0.361,2.938,0.891,5.84,1.583,8.699l4.321,1.381l3.871-4.639
						c-0.525-2.357-0.928-4.752-1.201-7.17l-4.39,3.838L259.261,148.702z"/>
				</g>
			</g>
			<g>
				<g>
					<path fill="#D84030" d="M258.726,136.676c-0.03,0.867-0.05,1.734-0.05,2.609c0,2.094,0.093,4.178,0.259,6.248l4.104,2.066
						l4.513-3.941c-0.094-1.453-0.148-2.908-0.148-4.373c0-0.971,0.025-1.936,0.065-2.895l-4.88,3.064L258.726,136.676z"/>
				</g>
			</g>
			<g>
				<g>
					<path fill="#D84030" d="M260.075,124.7c-0.558,2.877-0.957,5.811-1.182,8.793l3.795,2.729l5-3.141
						c0.223-2.439,0.571-4.844,1.046-7.203l-5.218,2.232L260.075,124.7z"/>
				</g>
			</g>
			<g>
				<g>
					<path fill="#D84030" d="M261.66,160.481c0.814,2.83,1.791,5.615,2.93,8.336l4.424,0.678l3.134-5.248
						c-0.892-2.25-1.658-4.547-2.302-6.883l-3.778,4.525L261.66,160.481z"/>
				</g>
			</g>
			<g>
				<g>
					<path fill="#D84030" d="M335.23,62.73c-10.303,0-20.135,2.051-29.113,5.758l-0.781,5.065l4.652,2.778
						c7.805-3.142,16.324-4.875,25.242-4.875c2.408,0,4.361-1.953,4.361-4.363C339.591,64.686,337.638,62.73,335.23,62.73z"/>
				</g>
			</g>
			<g>
				<g>
					<path fill="#D84030" d="M303.203,69.761c-2.711,1.255-5.338,2.661-7.867,4.212l0.021,5.058l5.096,2.044
						c2.094-1.257,4.262-2.403,6.494-3.431l-4.539-2.712L303.203,69.761z"/>
				</g>
			</g>
			<g>
				<g>
					<path fill="#D84030" d="M292.66,75.691c-2.475,1.66-4.844,3.462-7.102,5.393l0.801,4.918l5.428,1.238
						c1.873-1.568,3.832-3.035,5.867-4.396l-4.973-1.995L292.66,75.691z"/>
				</g>
			</g>
			<g>
				<g>
					<path fill="#D84030" d="M283.183,83.201c-2.176,2.02-4.234,4.164-6.163,6.422l1.542,4.671l5.619,0.38
						c1.609-1.84,3.318-3.592,5.115-5.248L284,88.218L283.183,83.201z"/>
				</g>
			</g>
			<g>
				<g>
					<path fill="#AF3114" d="M306.117,68.488c-0.982,0.404-1.953,0.828-2.914,1.272l-0.795,5.171l4.539,2.712
						c1.002-0.462,2.016-0.897,3.041-1.312l-4.652-2.778L306.117,68.488z"/>
				</g>
			</g>
			<g>
				<g>
					<path fill="#AF3114" d="M295.335,73.973c-0.904,0.554-1.797,1.127-2.676,1.719l0.021,5.158l4.973,1.995
						c0.918-0.612,1.852-1.202,2.799-1.771l-5.096-2.044L295.335,73.973z"/>
				</g>
			</g>
			<g>
				<g>
					<path fill="#AF3114" d="M285.558,81.084c-0.807,0.688-1.598,1.396-2.375,2.117L284,88.218l5.297,1.208
						c0.811-0.748,1.641-1.479,2.49-2.186l-5.428-1.238L285.558,81.084z"/>
				</g>
			</g>
			<g>
				<g>
					<path fill="#AF3114" d="M277.021,89.623c-0.688,0.805-1.362,1.621-2.018,2.455l1.576,4.773l5.481,0.369
						c0.686-0.866,1.395-1.717,2.121-2.547l-5.619-0.38L277.021,89.623z"/>
				</g>
			</g>
			<g>
				<g>
					<path fill="#AF3114" d="M269.926,99.374c-0.554,0.905-1.087,1.821-1.604,2.748l2.278,4.418l5.525-0.496
						c0.543-0.965,1.111-1.915,1.701-2.85l-5.667,0.511L269.926,99.374z"/>
				</g>
			</g>
			<g>
				<g>
					<path fill="#AF3114" d="M264.454,110.115c-0.404,0.979-0.792,1.965-1.156,2.963l2.911,3.969l5.434-1.369
						c0.387-1.04,0.799-2.066,1.234-3.082l-5.572,1.405L264.454,110.115z"/>
				</g>
			</g>
			<g>
				<g>
					<path fill="#AF3114" d="M260.745,121.584c-0.245,1.03-0.467,2.071-0.67,3.116l3.441,3.41l5.218-2.232
						c0.22-1.086,0.465-2.164,0.735-3.232l-5.348,2.285L260.745,121.584z"/>
				</g>
			</g>
			<g>
				<g>
					<path fill="#AF3114" d="M258.894,133.493c-0.079,1.055-0.133,2.117-0.168,3.184l3.862,2.779l4.88-3.064
						c0.047-1.111,0.121-2.215,0.221-3.311l-5,3.141L258.894,133.493z"/>
				</g>
			</g>
			<g>
				<g>
					<path fill="#AF3114" d="M258.935,145.534c0.087,1.061,0.197,2.115,0.326,3.168l4.185,2.109l4.39-3.838
						c-0.125-1.1-0.214-2.205-0.284-3.314l-4.513,3.941L258.935,145.534z"/>
				</g>
			</g>
			<g>
				<g>
					<path fill="#AF3114" d="M260.844,157.401c0.251,1.033,0.523,2.061,0.816,3.08l4.407,1.408l3.778-4.525
						c-0.294-1.064-0.567-2.139-0.81-3.221l-3.871,4.639L260.844,157.401z"/>
				</g>
			</g>
			<g>
				<g>
					<path fill="#AF3114" d="M264.59,168.817c0.411,0.979,0.838,1.949,1.289,2.912l4.513,0.693l3.059-5.121
						c-0.459-1.008-0.896-2.025-1.303-3.055l-3.134,5.248L264.59,168.817z"/>
				</g>
			</g>
		</g>
		<g>
			<g>
				<g>
					<polygon fill="#7C3C55" points="333.804,163.333 330.355,245.752 324.986,245.752 321.535,163.333 					"/>
				</g>
			</g>
			<g>
				<g>
					<path fill="#7C3C55" d="M310.535,245.752c3.58-6.771,12.277-6.771,16.018-6.771s6.771,3.033,6.771,6.771"/>
				</g>
			</g>
		</g>
		<g>
			<g>
				<g>
					<path fill="#AF3114" d="M359.32,163.899c-0.018,6.107-4.98,11.045-11.088,11.027l-8.062-0.02
						c-6.107-0.018-11.043-4.979-11.025-11.086l0,0c0.016-6.107,4.977-11.045,11.084-11.029l8.062,0.02
						C354.398,152.829,359.335,157.793,359.32,163.899L359.32,163.899z"/>
				</g>
			</g>
			<g>
				<g>
					<path fill="#AF3114" d="M342.148,163.899c-0.018,6.107-4.979,11.045-11.086,11.027l-8.062-0.02
						c-6.107-0.018-11.043-4.979-11.027-11.086l0,0c0.016-6.107,4.979-11.045,11.086-11.029l8.062,0.02
						C337.226,152.829,342.166,157.793,342.148,163.899L342.148,163.899z"/>
				</g>
			</g>
			<g>
				<g>
					<path fill="#F47C64" d="M327.031,175.008c0,0-0.199-0.346-0.467-0.955c-0.266-0.607-0.592-1.477-0.881-2.518
						s-0.543-2.258-0.713-3.559c-0.168-1.301-0.264-2.689-0.26-4.078c-0.006-2.773,0.408-5.549,1.008-7.631
						c0.295-1.039,0.627-1.904,0.896-2.512c0.273-0.605,0.475-0.951,0.475-0.951s0.199,0.346,0.469,0.953
						c0.268,0.609,0.594,1.477,0.883,2.518c0.59,2.084,0.988,4.861,0.967,7.637c-0.002,1.389-0.104,2.775-0.281,4.076
						c-0.176,1.301-0.436,2.514-0.732,3.555c-0.295,1.039-0.623,1.906-0.891,2.514C327.23,174.663,327.031,175.008,327.031,175.008z
						"/>
				</g>
			</g>
			<g>
				<g>
					<path fill="#F47C64" d="M327.089,152.805c0,0-0.465,0.229-1.215,0.672c-0.377,0.217-0.818,0.506-1.307,0.832
						c-0.486,0.334-1.006,0.738-1.537,1.193c-0.531,0.453-1.051,0.984-1.547,1.564c-0.242,0.293-0.459,0.615-0.695,0.924
						c-0.195,0.332-0.393,0.672-0.596,1.02c-0.141,0.373-0.332,0.725-0.469,1.105c-0.098,0.395-0.252,0.773-0.336,1.178
						c-0.062,0.414-0.152,0.82-0.203,1.24l-0.072,1.287c0.025,0.457,0.049,0.916,0.072,1.373l0.01,0.186l0.031,0.141l0.055,0.281
						l0.094,0.564c0.012,0.186,0.1,0.385,0.156,0.576l0.168,0.586c0.123,0.387,0.322,0.732,0.461,1.107
						c0.184,0.35,0.398,0.676,0.584,1.021c0.236,0.309,0.453,0.629,0.689,0.926c0.496,0.578,1.012,1.109,1.543,1.562
						c1.057,0.914,2.092,1.58,2.838,2.029c0.75,0.441,1.217,0.672,1.217,0.672s-0.518,0.059-1.424-0.037
						c-0.902-0.096-2.203-0.34-3.672-1.02c-0.734-0.338-1.496-0.801-2.254-1.387c-0.375-0.297-0.719-0.658-1.094-1.004
						c-0.332-0.387-0.666-0.799-0.98-1.232c-0.273-0.461-0.578-0.926-0.807-1.432c-0.201-0.52-0.449-1.016-0.588-1.594l-0.199-0.881
						l-0.094-0.445l-0.041-0.223l-0.014-0.184l-0.053-0.744l-0.027-0.371l-0.014-0.186l-0.008-0.094l-0.002-0.047l-0.002-0.021
						l-0.002-0.125v-0.016c0.043-0.561,0.086-1.123,0.129-1.684c0.068-0.561,0.238-1.113,0.359-1.66
						c0.145-0.543,0.393-1.059,0.598-1.572c0.236-0.5,0.539-0.967,0.816-1.422c0.322-0.428,0.648-0.844,0.99-1.223
						c0.375-0.344,0.715-0.707,1.096-0.998c0.756-0.584,1.518-1.045,2.252-1.379c1.471-0.674,2.768-0.926,3.67-1.023
						C326.572,152.747,327.089,152.805,327.089,152.805z"/>
				</g>
			</g>
			<g>
				<g>
					<path fill="#F47C64" d="M327.089,152.803c0,0,0.52-0.055,1.422,0.049s2.197,0.361,3.664,1.041
						c0.732,0.34,1.492,0.803,2.246,1.393c0.377,0.291,0.717,0.656,1.092,1.004c0.336,0.381,0.662,0.799,0.984,1.227
						c0.273,0.459,0.572,0.926,0.807,1.428c0.201,0.514,0.449,1.031,0.59,1.576c0.117,0.547,0.283,1.102,0.35,1.66
						c0.041,0.561,0.08,1.125,0.121,1.688v0.012l-0.004,0.127l-0.002,0.021l-0.004,0.047l-0.006,0.094l-0.016,0.186l-0.027,0.371
						l-0.059,0.742l-0.016,0.186l-0.043,0.223l-0.094,0.445l-0.205,0.877c-0.143,0.578-0.391,1.072-0.596,1.592
						c-0.23,0.506-0.539,0.969-0.814,1.426c-0.318,0.434-0.652,0.844-0.988,1.229c-0.377,0.344-0.723,0.703-1.1,0.998
						c-0.76,0.584-1.523,1.041-2.262,1.375c-1.471,0.672-2.775,0.91-3.678,1c-0.906,0.092-1.422,0.029-1.422,0.029
						s0.467-0.229,1.219-0.666c0.748-0.445,1.789-1.104,2.85-2.012c0.535-0.451,1.055-0.98,1.551-1.557
						c0.24-0.295,0.457-0.613,0.695-0.92c0.186-0.344,0.404-0.67,0.59-1.02c0.139-0.375,0.342-0.721,0.469-1.104l0.17-0.588
						c0.057-0.191,0.146-0.389,0.158-0.574l0.098-0.564l0.055-0.281l0.031-0.141l0.012-0.184c0.027-0.457,0.055-0.916,0.082-1.373
						c-0.023-0.43-0.045-0.859-0.066-1.287c-0.049-0.422-0.137-0.826-0.195-1.242c-0.084-0.406-0.234-0.783-0.332-1.18
						c-0.133-0.383-0.322-0.734-0.463-1.109c-0.201-0.346-0.396-0.688-0.59-1.021c-0.234-0.311-0.449-0.633-0.689-0.93
						c-0.494-0.58-1.01-1.115-1.539-1.57c-0.527-0.459-1.045-0.867-1.529-1.201c-0.488-0.33-0.928-0.619-1.303-0.84
						C327.554,153.036,327.089,152.803,327.089,152.803z"/>
				</g>
			</g>
			<g>
				<g>
					<path fill="#F47C64" d="M344.201,175.008c0,0-0.197-0.346-0.467-0.955c-0.264-0.607-0.59-1.477-0.879-2.518
						c-0.291-1.041-0.543-2.258-0.713-3.559s-0.266-2.689-0.26-4.078c-0.006-2.773,0.406-5.549,1.008-7.631
						c0.295-1.039,0.625-1.904,0.896-2.512c0.273-0.605,0.473-0.951,0.473-0.951s0.199,0.346,0.469,0.953
						c0.268,0.609,0.596,1.477,0.885,2.518c0.59,2.084,0.988,4.861,0.967,7.637c-0.002,1.389-0.105,2.775-0.281,4.076
						s-0.438,2.514-0.734,3.555c-0.293,1.039-0.623,1.906-0.891,2.514C344.402,174.663,344.201,175.008,344.201,175.008z"/>
				</g>
			</g>
			<g>
				<g>
					<path fill="#F47C64" d="M344.259,152.805c0,0-0.465,0.229-1.217,0.672c-0.375,0.217-0.814,0.506-1.303,0.832
						c-0.486,0.334-1.008,0.738-1.537,1.193c-0.533,0.453-1.053,0.984-1.547,1.564c-0.242,0.293-0.459,0.615-0.697,0.924
						c-0.193,0.332-0.393,0.672-0.594,1.02c-0.141,0.373-0.334,0.725-0.469,1.105c-0.098,0.395-0.254,0.773-0.338,1.178
						c-0.061,0.414-0.15,0.82-0.203,1.24l-0.072,1.287c0.023,0.457,0.049,0.916,0.072,1.373l0.01,0.186l0.033,0.141l0.053,0.281
						l0.094,0.564c0.012,0.186,0.1,0.385,0.156,0.576l0.168,0.586c0.125,0.387,0.324,0.732,0.461,1.107
						c0.184,0.35,0.4,0.676,0.586,1.021c0.236,0.309,0.451,0.629,0.689,0.926c0.494,0.578,1.012,1.109,1.541,1.562
						c1.059,0.914,2.092,1.58,2.838,2.029c0.752,0.441,1.217,0.672,1.217,0.672s-0.518,0.059-1.422-0.037
						c-0.902-0.096-2.205-0.34-3.672-1.02c-0.736-0.338-1.498-0.801-2.254-1.387c-0.375-0.297-0.719-0.658-1.094-1.004
						c-0.334-0.387-0.666-0.799-0.982-1.232c-0.273-0.461-0.578-0.926-0.807-1.432c-0.201-0.52-0.449-1.016-0.586-1.594
						l-0.201-0.881l-0.094-0.445l-0.041-0.223l-0.012-0.184l-0.055-0.744l-0.027-0.371l-0.014-0.186l-0.006-0.094l-0.004-0.047
						l-0.002-0.021l-0.002-0.125v-0.016c0.043-0.561,0.086-1.123,0.129-1.684c0.07-0.561,0.238-1.113,0.359-1.66
						c0.143-0.543,0.395-1.059,0.598-1.572c0.236-0.5,0.541-0.967,0.816-1.422c0.324-0.428,0.65-0.844,0.99-1.223
						c0.377-0.344,0.717-0.707,1.096-0.998c0.756-0.584,1.52-1.045,2.252-1.379c1.471-0.674,2.77-0.926,3.67-1.023
						C343.744,152.747,344.259,152.805,344.259,152.805z"/>
				</g>
			</g>
			<g>
				<g>
					<path fill="#F47C64" d="M344.261,152.803c0,0,0.518-0.055,1.422,0.049c0.9,0.104,2.195,0.361,3.664,1.041
						c0.732,0.34,1.492,0.803,2.246,1.393c0.377,0.291,0.717,0.656,1.09,1.004c0.338,0.381,0.662,0.799,0.982,1.227
						c0.275,0.459,0.574,0.926,0.809,1.428c0.203,0.514,0.449,1.031,0.59,1.576c0.117,0.547,0.285,1.102,0.352,1.66
						c0.039,0.561,0.078,1.125,0.119,1.688l0.002,0.012l-0.004,0.127l-0.002,0.021l-0.004,0.047l-0.008,0.094l-0.014,0.186
						l-0.029,0.371l-0.059,0.742l-0.014,0.186l-0.043,0.223l-0.096,0.445l-0.205,0.877c-0.141,0.578-0.391,1.072-0.596,1.592
						c-0.23,0.506-0.537,0.969-0.812,1.426c-0.32,0.434-0.654,0.844-0.99,1.229c-0.377,0.344-0.721,0.703-1.098,0.998
						c-0.762,0.584-1.525,1.041-2.262,1.375c-1.473,0.672-2.775,0.91-3.678,1c-0.906,0.092-1.424,0.029-1.424,0.029
						s0.467-0.229,1.221-0.666c0.748-0.445,1.787-1.104,2.85-2.012c0.531-0.451,1.055-0.98,1.549-1.557
						c0.24-0.295,0.459-0.613,0.697-0.92c0.186-0.344,0.404-0.67,0.588-1.02c0.141-0.375,0.342-0.721,0.469-1.104l0.17-0.588
						c0.057-0.191,0.148-0.389,0.16-0.574l0.096-0.564l0.057-0.281l0.031-0.141l0.012-0.184c0.025-0.457,0.053-0.916,0.082-1.373
						c-0.025-0.43-0.047-0.859-0.068-1.287c-0.049-0.422-0.137-0.826-0.195-1.242c-0.082-0.406-0.234-0.783-0.33-1.18
						c-0.133-0.383-0.324-0.734-0.465-1.109c-0.199-0.346-0.396-0.688-0.588-1.021c-0.236-0.311-0.451-0.633-0.691-0.93
						c-0.492-0.58-1.01-1.115-1.537-1.57c-0.529-0.459-1.047-0.867-1.531-1.201c-0.488-0.33-0.928-0.619-1.301-0.84
						C344.724,153.036,344.261,152.803,344.261,152.803z"/>
				</g>
			</g>
		</g>
		<g>
			<g>
				<path fill="#D84030" d="M307.378,84.645c0,0-4.6-21.914,16.383-26.612c10.93-2.448,13.832-0.432,19.441-2.72
					c5.383-2.195,12.373-7.705,17.9,1.037c3.934,6.222,4.289,11.997,1.721,21.06C360.257,86.473,307.378,84.645,307.378,84.645z"/>
			</g>
		</g>
		<g>
			<g>
				<polygon fill="#7C3C55" points="322.21,116.877 297.601,164.971 292.142,162.381 313.849,112.909 				"/>
			</g>
		</g>
		<g>
			<g>
				<rect x="334.087" y="100.529" fill="#E8B995" width="4.027" height="22.375"/>
			</g>
		</g>
		<g>
			<g>
				<path fill="#7C3C55" d="M356.248,127.94c0,7.953-11.48,16.078-19.434,16.078h-1.428c-7.951,0-19.432-8.125-19.432-16.078l0,0
					c0-7.951,0-14.396,14.396-14.396h11.498C356.248,113.544,356.248,119.989,356.248,127.94L356.248,127.94z"/>
			</g>
		</g>
		<g>
			<g>
				<path fill="#846774" d="M325.048,147.047h22.104l4.424-9.893c0,0-12.4,3.203-15.475-8.373c0,0-3.145,13.615-16.477,7.32
					L325.048,147.047z"/>
			</g>
		</g>
		<g>
			<g>
				<path fill="#FCDFB1" d="M364.906,86.434c0,11.369-9.217,20.586-20.586,20.586h-16.438c-11.371,0-20.588-9.217-20.588-20.586l0,0
					c0-11.369,9.217-20.586,20.588-20.586h16.438C355.689,65.848,364.906,75.064,364.906,86.434L364.906,86.434z"/>
			</g>
		</g>
		<g>
			<g>
				<g>
					<path fill="#846774" d="M302.033,120.22c0-6.673,5.408-12.083,12.082-12.083c6.672,0,12.082,5.41,12.082,12.083"/>
				</g>
			</g>
			<g>
				<g>
					<path fill="#846774" d="M345.664,120.22c0-6.673,5.408-12.083,12.082-12.083s12.084,5.41,12.084,12.083"/>
				</g>
			</g>
		</g>
		<g>
			<g>
				<g>
					<path fill="#3C3C3B" d="M280.082,99.489c1.322,3.464,0.67,5.95-2.793,7.273c-3.463,1.32-7.343-0.417-8.664-3.88
						c-1.322-3.466,0.416-7.344,3.878-8.666C275.966,92.896,278.761,96.024,280.082,99.489z"/>
				</g>
			</g>
			<g>
				<g>
					
						<rect x="277.841" y="105.222" transform="matrix(0.9344 -0.3562 0.3562 0.9344 -23.2572 107.8329)" fill="#999999" width="6.618" height="23.68"/>
				</g>
			</g>
			<g>
				<g>
					
						<rect x="291.312" y="126.419" transform="matrix(0.9343 -0.3565 0.3565 0.9343 -34.9629 115.0394)" fill="#B17F4A" width="6.618" height="51.911"/>
				</g>
			</g>
			<g>
				<g>
					<path fill="#3C3C3B" d="M268.813,103.323c0,0-1.894-3.135,0.146-8.932c2.384-6.778-0.291-10.227-0.291-10.227
						s16.365,11.938,11.355,20.656L268.813,103.323z"/>
				</g>
			</g>
			<g>
				<g>
					<circle fill="#B17F4A" cx="303.873" cy="176.625" r="3.309"/>
				</g>
			</g>
		</g>
		<g>
			<g>
				<circle fill="#FCDFB1" cx="296.34" cy="160.583" r="6.739"/>
			</g>
		</g>
		<g>
			<g>
				<polygon fill="#7C3C55" points="325.048,147.047 319.779,153.27 336.123,174.112 352.466,153.186 347.152,147.047 				"/>
			</g>
		</g>
		<g>
			<g>
				<path fill="#D84030" d="M324.855,66.072c0,0,7.523-0.393,11.268,7.83c0,0,2.297-7.215,11.648-7.761c0,0-4.848-1.385-11.67-1.385
					C328.855,64.757,324.855,66.072,324.855,66.072z"/>
			</g>
		</g>
		<g>
			<g>
				<path fill="none" stroke="#6DF7BB" stroke-miterlimit="10" d="M327.669,175.803"/>
			</g>
		</g>
		<g>
			<g>
				<path fill="#999999" d="M402.535,121.226l-30.207-13.089l-30.205,13.089c0,0-1.008,52.693,30.205,52.693
					S402.535,121.226,402.535,121.226z"/>
			</g>
		</g>
		<g>
			<g>
				<path fill="#666666" d="M397.166,124.747l-24.838-10.763l-24.836,10.763c0,0-0.828,43.326,24.836,43.326
					C397.994,168.073,397.166,124.747,397.166,124.747z"/>
			</g>
		</g>
		<g>
			<g>
				<g>
					<path fill="#B17F4A" d="M372.328,122.139c-8.711,0-15.773,8.758-15.773,19.561c0,4.051,1.129,7.744,2.693,10.936
						c2.311,4.713,4.656-2.393,8.711,0.195c4.037,2.578-1.857,8.428,4.369,8.428c8.713,0,15.775-8.756,15.775-19.559
						S381.041,122.139,372.328,122.139z M374.767,152.379c-1.008,0.828-2.918,0.164-4.266-1.479
						c-1.348-1.645-1.623-3.646-0.613-4.473c1.008-0.828,2.918-0.166,4.266,1.479C375.501,149.549,375.777,151.551,374.767,152.379z
						"/>
				</g>
			</g>
			<g>
				<g>
					<circle fill="#FCDFB1" cx="362.82" cy="146.071" r="2.42"/>
				</g>
			</g>
			<g>
				<g>
					<circle fill="#D84030" cx="362.82" cy="138.188" r="2.42"/>
				</g>
			</g>
			<g>
				<g>
					<circle fill="#F76371" cx="365.849" cy="130.895" r="2.42"/>
				</g>
			</g>
			<g>
				<g>
					<circle fill="#B72141" cx="372.328" cy="127.885" r="2.42"/>
				</g>
			</g>
			<g>
				<g>
					<circle fill="#6DF7BB" cx="379.269" cy="130.895" r="2.42"/>
				</g>
			</g>
			<g>
				<g>
					<circle fill="#07A87E" cx="382.55" cy="138.188" r="2.42"/>
				</g>
			</g>
			<g>
				<g>
					<circle fill="#3C3C3B" cx="382.55" cy="146.071" r="2.42"/>
				</g>
			</g>
		</g>
		<g>
			<g>
				<polygon fill="#846774" points="332.322,199.987 317.832,195.569 319.88,206.979 332.126,205.301 				"/>
			</g>
		</g>
		<g>
			<g>
				<polygon fill="#846774" points="307.294,146.071 300.578,143.098 300.562,135.766 309.976,140.918 				"/>
			</g>
		</g>
		<g>
			<g>
				<g>
					<circle fill="#3C3C3B" cx="319.624" cy="87.188" r="2.544"/>
				</g>
			</g>
			<g>
				<g>
					<path fill="#3C3C3B" d="M319.625,85.59c-0.049,0-0.094-0.01-0.141-0.031c-1.75-0.802-1.947-2.604-1.955-2.681
						c-0.018-0.184,0.117-0.348,0.301-0.366c0.172-0.02,0.348,0.114,0.367,0.299c0.008,0.062,0.174,1.5,1.566,2.139
						c0.17,0.077,0.242,0.277,0.166,0.445C319.873,85.518,319.751,85.59,319.625,85.59z"/>
				</g>
			</g>
			<g>
				<g>
					<path fill="#3C3C3B" d="M318.736,86.42c-1.396,0-2.279-1.024-2.574-1.63c-0.08-0.166-0.012-0.365,0.156-0.447
						c0.166-0.08,0.367-0.011,0.447,0.153c0.031,0.062,0.762,1.501,2.381,1.216c0.178-0.038,0.357,0.089,0.391,0.271
						c0.031,0.184-0.092,0.357-0.273,0.39C319.08,86.405,318.904,86.42,318.736,86.42z"/>
				</g>
			</g>
		</g>
		<g>
			<g>
				<g>
					<circle fill="#3C3C3B" cx="353.396" cy="87.188" r="2.543"/>
				</g>
			</g>
			<g>
				<g>
					<path fill="#3C3C3B" d="M353.396,85.59c-0.127,0-0.248-0.072-0.305-0.195c-0.078-0.168-0.004-0.368,0.166-0.445
						c1.391-0.639,1.561-2.077,1.566-2.139c0.02-0.185,0.197-0.319,0.367-0.299c0.186,0.019,0.318,0.183,0.301,0.366
						c-0.008,0.076-0.205,1.879-1.955,2.681C353.492,85.58,353.443,85.59,353.396,85.59z"/>
				</g>
			</g>
			<g>
				<g>
					<path fill="#3C3C3B" d="M354.283,86.42c-0.166,0-0.344-0.015-0.527-0.048c-0.182-0.032-0.303-0.206-0.271-0.39
						c0.033-0.182,0.211-0.308,0.389-0.271c1.633,0.292,2.373-1.198,2.383-1.214c0.08-0.167,0.281-0.238,0.447-0.156
						s0.236,0.282,0.156,0.448C356.564,85.396,355.681,86.42,354.283,86.42z"/>
				</g>
			</g>
		</g>
	</g>
</g>
</svg>
