<?xml version="1.0" encoding="utf-8"?>
<!-- Generator: Adobe Illustrator 16.0.0, SVG Export Plug-In . SVG Version: 6.00 Build 0)  -->
<!DOCTYPE svg PUBLIC "-//W3C//DTD SVG 1.1//EN" "http://www.w3.org/Graphics/SVG/1.1/DTD/svg11.dtd">
<svg version="1.1" id="Capa_1" xmlns="http://www.w3.org/2000/svg" xmlns:xlink="http://www.w3.org/1999/xlink" x="0px" y="0px"
	 width="119.822px" height="38.833px" viewBox="0 0 119.822 38.833" enable-background="new 0 0 119.822 38.833"
	 xml:space="preserve">
<g>
	<path fill="#2EA7DF" d="M119.822,34.833c0,2.209-1.79,4-4,4H4c-2.209,0-4-1.791-4-4V4c0-2.209,1.791-4,4-4h111.822
		c2.21,0,4,1.791,4,4V34.833z"/>
	<path fill="#FFFFFF" d="M30.734,12.189c-0.867,0.385-1.8,0.645-2.777,0.762c0.998-0.599,1.767-1.546,2.126-2.676
		c-0.933,0.555-1.968,0.957-3.069,1.174c-0.884-0.94-2.141-1.527-3.531-1.527c-2.671,0-4.837,2.166-4.837,4.836
		c0,0.38,0.043,0.748,0.126,1.102c-4.02-0.2-7.583-2.125-9.968-5.053c-0.416,0.716-0.655,1.546-0.655,2.433
		c0,1.677,0.854,3.158,2.15,4.024c-0.792-0.024-1.537-0.243-2.189-0.605v0.062c0,2.343,1.667,4.298,3.879,4.742
		c-0.405,0.111-0.834,0.171-1.274,0.171c-0.311,0-0.614-0.031-0.91-0.088c0.616,1.922,2.401,3.319,4.518,3.36
		c-1.654,1.296-3.739,2.069-6.006,2.069c-0.391,0-0.775-0.024-1.153-0.068c2.14,1.371,4.683,2.172,7.415,2.172
		c8.895,0,13.759-7.368,13.759-13.76c0-0.209-0.006-0.418-0.014-0.626C29.266,14.013,30.085,13.16,30.734,12.189z"/>
	<path fill="#FFFFFF" d="M55.884,17.307c0-0.11,0.021-0.215,0.066-0.314c0.044-0.1,0.104-0.187,0.178-0.26
		c0.074-0.074,0.162-0.135,0.264-0.178c0.102-0.045,0.209-0.067,0.323-0.067c0.11,0,0.215,0.022,0.314,0.067
		c0.099,0.043,0.187,0.104,0.26,0.178c0.074,0.073,0.134,0.16,0.178,0.26c0.045,0.1,0.067,0.204,0.067,0.314
		c0,0.113-0.022,0.222-0.067,0.323c-0.044,0.102-0.104,0.191-0.178,0.271c-0.073,0.078-0.161,0.139-0.26,0.184
		c-0.1,0.045-0.204,0.066-0.314,0.066c-0.114,0-0.222-0.021-0.323-0.066s-0.189-0.105-0.264-0.184
		c-0.074-0.079-0.134-0.169-0.178-0.271C55.905,17.528,55.884,17.42,55.884,17.307z M56.144,19.299h1.13l0.261,7.408h-1.65
		L56.144,19.299z"/>
	<path fill="#FFFFFF" d="M61.749,22.625h0.882v-7.49h-2.196v1.498h-1.301v-2.539h8.582v2.539h-1.302v-1.498h-2.539v7.49h0.99v1.092
		h-3.116V22.625z"/>
	<path fill="#FFFFFF" d="M71.403,17.141h2.12v5.484h0.729v1.092h-1.916v-0.609c-0.297,0.229-0.619,0.406-0.969,0.533
		c-0.349,0.127-0.723,0.191-1.12,0.191c-0.33,0-0.63-0.049-0.898-0.143c-0.269-0.096-0.497-0.244-0.686-0.445
		s-0.333-0.455-0.435-0.765s-0.152-0.677-0.152-1.104v-3.143h-0.889v-1.092h2.12v4.095c0,0.503,0.116,0.884,0.349,1.143
		c0.233,0.259,0.567,0.388,1.004,0.388c0.258,0,0.529-0.047,0.815-0.141c0.285-0.093,0.556-0.222,0.81-0.387v-4.006h-0.883V17.141z"
		/>
	<path fill="#FFFFFF" d="M75.961,17.141h2.146v5.484h0.99v1.092h-3.123v-1.092h0.939v-4.393h-0.952V17.141z M76.69,14.812
		c0-0.11,0.022-0.215,0.067-0.313c0.044-0.1,0.104-0.188,0.178-0.262c0.073-0.073,0.161-0.133,0.263-0.178
		c0.102-0.043,0.21-0.066,0.324-0.066c0.109,0,0.215,0.023,0.314,0.066c0.1,0.045,0.186,0.104,0.26,0.178
		c0.074,0.074,0.134,0.162,0.178,0.262c0.045,0.099,0.066,0.203,0.066,0.313c0,0.114-0.021,0.222-0.066,0.323
		c-0.044,0.102-0.104,0.191-0.178,0.27c-0.074,0.079-0.16,0.141-0.26,0.186c-0.1,0.043-0.205,0.066-0.314,0.066
		c-0.114,0-0.223-0.023-0.324-0.066c-0.102-0.045-0.189-0.106-0.263-0.186c-0.074-0.078-0.134-0.168-0.178-0.27
		C76.713,15.033,76.69,14.926,76.69,14.812z"/>
	<path fill="#FFFFFF" d="M82.087,17.141h1.542V18.1h-1.556l-0.019,3.796c0,0.259,0.03,0.468,0.089,0.628
		c0.059,0.161,0.154,0.272,0.285,0.334c0.132,0.061,0.279,0.092,0.445,0.092c0.178,0,0.334-0.016,0.469-0.047
		c0.136-0.033,0.284-0.086,0.445-0.162l0.272,0.793c-0.203,0.105-0.417,0.189-0.642,0.25c-0.224,0.062-0.488,0.093-0.793,0.093
		c-0.287,0-0.539-0.034-0.752-0.104c-0.214-0.07-0.395-0.188-0.539-0.353c-0.146-0.165-0.256-0.386-0.328-0.663
		c-0.071-0.277-0.107-0.623-0.107-1.038l0.02-3.618h-1.048v-0.959h1.06v-1.574l1.156-0.545V17.141z"/>
	<path fill="#FFFFFF" d="M86.136,20.582c0,0.186,0.014,0.355,0.041,0.51c0.028,0.155,0.067,0.303,0.118,0.441
		c0.157,0.424,0.407,0.742,0.753,0.955c0.344,0.215,0.734,0.321,1.17,0.321c0.344,0,0.676-0.048,1-0.144
		c0.324-0.094,0.664-0.244,1.02-0.447l0.476,0.807c-0.432,0.297-0.865,0.516-1.302,0.66c-0.436,0.145-0.889,0.216-1.357,0.216
		c-0.445,0-0.856-0.074-1.234-0.222c-0.379-0.148-0.705-0.369-0.979-0.66c-0.273-0.293-0.486-0.656-0.641-1.092
		c-0.154-0.437-0.232-0.944-0.232-1.523c0-0.471,0.066-0.914,0.197-1.33c0.131-0.417,0.326-0.781,0.588-1.092
		c0.26-0.311,0.582-0.558,0.967-0.74c0.386-0.182,0.834-0.272,1.346-0.272c0.496,0,0.909,0.075,1.242,0.226
		c0.332,0.15,0.602,0.35,0.812,0.596c0.209,0.248,0.367,0.531,0.475,0.848c0.109,0.318,0.184,0.642,0.227,0.972
		c0.021,0.161,0.035,0.323,0.041,0.489c0.006,0.164,0.01,0.325,0.01,0.482H86.136z M87.983,17.96c-0.275,0-0.516,0.039-0.721,0.118
		c-0.205,0.078-0.379,0.189-0.523,0.336s-0.26,0.324-0.346,0.536c-0.087,0.212-0.151,0.448-0.193,0.711h3.408
		c-0.018-0.245-0.057-0.472-0.117-0.679c-0.062-0.208-0.156-0.388-0.283-0.54s-0.289-0.271-0.488-0.355S88.275,17.96,87.983,17.96z"
		/>
	<path fill="#FFFFFF" d="M96.343,23.107c-0.249,0.233-0.525,0.424-0.828,0.572c-0.303,0.147-0.646,0.222-1.031,0.222
		c-0.322,0-0.617-0.051-0.886-0.152s-0.5-0.24-0.694-0.415c-0.195-0.176-0.347-0.381-0.454-0.613
		c-0.108-0.232-0.162-0.48-0.162-0.742c0-0.279,0.041-0.527,0.124-0.743c0.082-0.216,0.192-0.403,0.33-0.562
		c0.137-0.158,0.298-0.293,0.482-0.4c0.184-0.107,0.377-0.194,0.577-0.26c0.201-0.066,0.406-0.112,0.616-0.141
		c0.209-0.027,0.409-0.041,0.6-0.041c0.305,0,0.561,0.01,0.768,0.029c0.208,0.02,0.396,0.045,0.565,0.079l0.007-0.54
		c0-0.232-0.034-0.434-0.102-0.605c-0.068-0.172-0.164-0.313-0.286-0.426c-0.122-0.111-0.27-0.195-0.441-0.25
		c-0.171-0.056-0.362-0.083-0.574-0.083c-0.198,0-0.39,0.014-0.571,0.042c-0.182,0.027-0.353,0.062-0.511,0.107
		c-0.159,0.045-0.305,0.096-0.438,0.152c-0.133,0.057-0.246,0.117-0.34,0.181l-0.387-0.819c0.156-0.102,0.328-0.195,0.514-0.281
		c0.187-0.088,0.383-0.162,0.588-0.223c0.205-0.062,0.414-0.11,0.628-0.146c0.214-0.035,0.425-0.054,0.632-0.054
		c0.381,0,0.724,0.046,1.028,0.136c0.305,0.092,0.563,0.232,0.774,0.423s0.375,0.433,0.488,0.728
		c0.115,0.293,0.172,0.646,0.172,1.057l-0.006,3.287h0.729v1.092h-1.911V23.107z M94.743,22.911c0.157,0,0.313-0.019,0.471-0.058
		c0.156-0.037,0.305-0.09,0.443-0.154c0.141-0.066,0.27-0.143,0.388-0.229c0.118-0.088,0.218-0.178,0.298-0.271l0.007-1.485h-1.371
		c-0.229,0-0.437,0.025-0.625,0.076s-0.352,0.125-0.489,0.223c-0.137,0.097-0.244,0.217-0.32,0.361s-0.114,0.309-0.114,0.495
		c0,0.173,0.032,0.325,0.095,0.454c0.064,0.129,0.154,0.236,0.271,0.324c0.116,0.086,0.255,0.152,0.415,0.195
		C94.371,22.889,94.549,22.911,94.743,22.911z"/>
	<path fill="#FFFFFF" d="M100.292,13.707h1.65l-0.261,7.408h-1.13L100.292,13.707z M100.292,22.949c0-0.109,0.021-0.215,0.066-0.314
		c0.044-0.1,0.104-0.186,0.178-0.26s0.162-0.133,0.264-0.178s0.209-0.066,0.323-0.066c0.11,0,0.215,0.021,0.314,0.066
		c0.099,0.045,0.187,0.104,0.26,0.178c0.074,0.074,0.134,0.16,0.178,0.26c0.045,0.1,0.067,0.205,0.067,0.314
		c0,0.114-0.022,0.223-0.067,0.324c-0.044,0.102-0.104,0.191-0.178,0.27c-0.073,0.078-0.161,0.139-0.26,0.184
		c-0.1,0.045-0.204,0.066-0.314,0.066c-0.114,0-0.222-0.021-0.323-0.066s-0.189-0.105-0.264-0.184s-0.134-0.168-0.178-0.27
		C100.313,23.172,100.292,23.063,100.292,22.949z"/>
	<path fill="#CDCCCC" d="M38.05,33.5c-0.276,0-0.5-0.224-0.5-0.5V8.233c0-0.276,0.224-0.5,0.5-0.5s0.5,0.224,0.5,0.5V33
		C38.55,33.276,38.326,33.5,38.05,33.5z"/>
</g>
</svg>
