<?xml version="1.0" encoding="utf-8"?>
<!-- Generator: Adobe Illustrator 16.0.0, SVG Export Plug-In . SVG Version: 6.00 Build 0)  -->
<!DOCTYPE svg PUBLIC "-//W3C//DTD SVG 1.1//EN" "http://www.w3.org/Graphics/SVG/1.1/DTD/svg11.dtd">
<svg version="1.1" id="Capa_1" xmlns="http://www.w3.org/2000/svg" xmlns:xlink="http://www.w3.org/1999/xlink" x="0px" y="0px"
	 width="65.05px" height="55.377px" viewBox="0 0 65.05 55.377" enable-background="new 0 0 65.05 55.377" xml:space="preserve">
<path fill="#FFFFFF" d="M14.858,27.903l8.046,14.604L49.7,27.746l-8.046-14.604L14.858,27.903z M64.634,25.458l-3.422-6.213
	c-1.062,0.234-2.197,0.214-3.315-0.109c-3.563-1.032-5.618-4.76-4.586-8.323c0.323-1.119,0.914-2.088,1.68-2.86l-3.424-6.215
	c-0.892-1.619-2.945-2.215-4.563-1.321L1.737,25.355c-1.62,0.892-2.214,2.945-1.321,4.563l3.424,6.215
	c1.062-0.234,2.196-0.215,3.313,0.109c3.565,1.031,5.618,4.758,4.586,8.323c-0.323,1.118-0.913,2.087-1.679,2.86l3.424,6.215
	c0.891,1.618,2.945,2.213,4.564,1.321l45.266-24.939C64.933,29.13,65.528,27.079,64.634,25.458z M21.404,47.687L9.679,26.404
	L43.156,7.962l11.724,21.282L21.404,47.687z"/>
</svg>
